<svg width="72" height="76" viewBox="0 0 72 76" fill="none" xmlns="http://www.w3.org/2000/svg">
<path fill-rule="evenodd" clip-rule="evenodd" d="M45.1246 19.9675C45.1246 14.7864 40.9252 10.5868 35.7442 10.5868C30.5632 10.5868 26.3638 14.7864 26.3638 19.9675C26.3638 22.191 27.1357 24.2342 28.432 25.8452L35.7464 29.5269L43.0566 25.8452C44.3527 24.2342 45.1246 22.191 45.1246 19.9675Z" fill="#FFD772"/>
<path fill-rule="evenodd" clip-rule="evenodd" d="M70.9878 51.7257H0.500671L1.85196 44.2101L2.25009 41.9901L3.40159 35.5802L3.80117 33.3601L4.79123 27.85C5.0355 26.7726 5.98707 25.8579 7.2214 25.8416L20.4898 25.843H22.7305L34.6343 25.8445H36.8543L64.267 25.8416C65.5014 25.8579 66.4531 26.7726 66.6972 27.85L67.6874 33.3601L68.087 35.5802L69.2385 41.9901L69.6366 44.2101L70.9878 51.7257Z" fill="#A1D4FF"/>
<path d="M53.9388 21.0777H49.9576C49.3445 21.0777 48.8476 20.5807 48.8476 19.9677C48.8476 19.3546 49.3445 18.8578 49.9576 18.8578H53.9388C54.5519 18.8578 55.0489 19.3548 55.0489 19.9677C55.0489 20.5807 54.5519 21.0777 53.9388 21.0777ZM21.5309 21.0777H17.5538C16.9408 21.0777 16.4439 20.5807 16.4439 19.9677C16.4439 19.3546 16.9409 18.8578 17.5538 18.8578H21.5309C22.144 18.8578 22.6408 19.3548 22.6408 19.9677C22.6408 20.5807 22.1438 21.0777 21.5309 21.0777Z" fill="#FFD772"/>
<path d="M45.7959 11.0298C45.5121 11.0298 45.2284 10.9217 45.0115 10.7053C44.5778 10.2722 44.5772 9.56938 45.0103 9.13553L47.8213 6.32051C48.2545 5.88665 48.9573 5.88607 49.3912 6.31934C49.8249 6.75246 49.8255 7.45524 49.3923 7.88909L46.5814 10.7041C46.3647 10.9213 46.0802 11.0298 45.7959 11.0298V11.0298Z" fill="#FFD772"/>
<path d="M25.6968 11.0298C25.4127 11.0298 25.1286 10.9214 24.9119 10.7047L22.0969 7.88967C21.6633 7.45611 21.6633 6.75334 22.0969 6.31992C22.5303 5.88636 23.2332 5.88636 23.6667 6.31992L26.4817 9.13494C26.9152 9.56851 26.9152 10.2713 26.4817 10.7047C26.265 10.9214 25.9807 11.0298 25.6968 11.0298Z" fill="#FFD772"/>
<path d="M35.7442 6.86381C35.1311 6.86381 34.6343 6.36681 34.6343 5.75388V1.77656C34.6343 1.16363 35.1311 0.666626 35.7442 0.666626C36.3573 0.666626 36.8543 1.16363 36.8543 1.77656V5.75373C36.8543 6.36681 36.3573 6.86381 35.7442 6.86381Z" fill="#FFD772"/>
<path fill-rule="evenodd" clip-rule="evenodd" d="M39.5408 57.8345L35.7149 55.6781L31.9434 57.8345L31.9476 63.9722L35.7988 65.7469L39.5408 63.9722V57.8345Z" fill="#375E7D"/>
<path fill-rule="evenodd" clip-rule="evenodd" d="M70.9878 51.7257H42.1793C43.6652 49.4406 44.7589 46.9083 45.3761 44.2102C45.4604 43.8431 45.5359 43.4731 45.6026 43.1002C45.6678 42.7332 45.7239 42.3632 45.7698 41.9902C45.8912 41.0326 45.9549 40.0602 45.9549 39.0687C45.9549 37.8861 45.8646 36.7214 45.6915 35.5804C45.6352 35.2075 45.5687 34.8373 45.4947 34.4704C45.4177 34.0975 45.3334 33.7274 45.2386 33.3605C44.5444 30.6535 43.3678 28.1182 41.7975 25.845H43.0569L48.7431 25.8435H50.9824L64.2669 25.842C65.5012 25.8584 66.4529 26.773 66.6971 27.8505L67.6873 33.3606L68.0869 35.5806L69.2384 41.9906L69.6365 44.2106L70.9878 51.7257Z" fill="#75CEF8"/>
<path d="M54.5064 51.7256L53.4837 44.2101H69.6366L69.2385 41.9901H53.1818L52.3086 35.5801H68.087L67.6874 33.3601H52.0065L50.9824 25.8431H48.7431L49.7658 33.3601H36.8542V25.8446H34.6342V33.3601H21.6885L22.7305 25.8431H20.4898L19.4463 33.3601H3.80105L3.40147 35.5801H19.1385L18.2491 41.9901H2.25011L1.85199 44.2101H17.9412L16.8992 51.7256L16.7098 53.0887C16.6255 53.6956 17.0502 54.2564 17.657 54.3394C17.7087 54.3468 17.7605 54.3498 17.811 54.3498C18.3571 54.3498 18.8322 53.9473 18.9091 53.3922L19.1399 51.7258L20.1834 44.2103H34.6343V53.114C34.6343 53.7963 35.1316 54.3498 35.7442 54.3498C36.357 54.3498 36.8543 53.7962 36.8543 53.114V44.2103H51.243L52.2671 51.7258L52.6742 54.7199C52.7512 55.2764 53.2261 55.6789 53.7723 55.6789C53.8226 55.6789 53.8744 55.6745 53.9261 55.6671C54.533 55.5842 54.9578 55.0232 54.8733 54.4164L54.5064 51.7256ZM34.6343 41.9901H20.4912L21.3792 35.5801H34.6342V41.9901H34.6343ZM36.8543 41.9901V35.5801H50.0678L50.9411 41.9901H36.8543Z" fill="#22A6FE"/>
<path fill-rule="evenodd" clip-rule="evenodd" d="M35.7442 51.7262H0.500252L0.0429182 54.6125C-0.254873 56.471 1.02875 57.7843 2.90825 57.7843H68.5801C70.4596 57.7843 71.7432 56.4712 71.4454 54.6125L70.9881 51.7262H42.1797H35.7442Z" fill="#F9F7F8"/>
<path fill-rule="evenodd" clip-rule="evenodd" d="M71.4455 54.6125L70.9882 51.7262H59.2206L59.678 54.6125C59.9757 56.471 58.6921 57.7843 56.8126 57.7843H68.5802C70.4596 57.7843 71.7433 56.471 71.4455 54.6125V54.6125Z" fill="#E5E4EC"/>
<path fill-rule="evenodd" clip-rule="evenodd" d="M39.5409 63.9723V57.8346L36.2687 57.8429L35.9204 57.8388V63.9723H39.1591H39.5409Z" fill="#2B4D66"/>
<path fill-rule="evenodd" clip-rule="evenodd" d="M45.1246 19.9675C45.1246 14.7864 40.9252 10.5868 35.7442 10.5868C33.4746 10.5868 31.3937 11.3922 29.7703 12.7348C34.8213 12.8859 38.8655 17.0266 38.8655 22.1113C38.8655 23.437 38.5885 24.6998 38.0936 25.845H41.7979H43.0564C44.3527 24.2342 45.1246 22.191 45.1246 19.9675V19.9675Z" fill="#FBBA58"/>
<path fill-rule="evenodd" clip-rule="evenodd" d="M39.5409 63.9723H31.9475H28.7131C27.2657 63.9723 26.0784 65.1595 26.0784 66.6069V69.4262L36.0631 71.5364L45.4099 69.4262V66.6069C45.4099 65.1595 44.2227 63.9723 42.7753 63.9723H39.5409Z" fill="#F9F7F8"/>
<path fill-rule="evenodd" clip-rule="evenodd" d="M45.4101 66.607C45.4101 65.1596 44.2228 63.9724 42.7754 63.9724H39.5409H39.1591C40.6065 63.9724 41.7937 65.1596 41.7937 66.607V69.4263H44.9023H45.4099V66.607H45.4101Z" fill="#E5E4EC"/>
<path fill-rule="evenodd" clip-rule="evenodd" d="M45.41 69.4263H26.0784H22.9698C21.4008 69.4263 20.1129 70.71 20.1129 72.2791V74.704C20.1129 75.048 20.3982 75.3332 20.7464 75.3332H50.7464C51.0904 75.3332 51.3756 75.048 51.3756 74.704V72.2791C51.3756 70.71 50.0919 69.4263 48.5188 69.4263H45.41Z" fill="#375E7D"/>
<path fill-rule="evenodd" clip-rule="evenodd" d="M51.3755 72.2791C51.3755 70.71 50.0917 69.4263 48.5186 69.4263H45.41H44.9024C46.4714 69.4263 47.7552 70.71 47.7552 72.2791V74.704C47.7552 75.048 47.4742 75.3332 47.1259 75.3332H50.7464C51.0904 75.3332 51.3757 75.048 51.3757 74.704V72.2791H51.3755Z" fill="#2B4D66"/>
</svg>
