<svg width="21" height="20" viewBox="0 0 21 20" fill="none" xmlns="http://www.w3.org/2000/svg">
<path d="M11.5419 15.3644C11.5419 12.9806 13.4812 11.0412 15.8644 11.0412C17.3056 11.0412 18.5806 11.7525 19.3663 12.8394C19.6544 11.9437 19.8125 10.9906 19.8125 10C19.8125 4.865 15.6344 0.6875 10.5 0.6875C5.36562 0.6875 1.1875 4.865 1.1875 10C1.1875 15.135 5.365 19.3125 10.5 19.3125C11.4906 19.3125 12.4437 19.1538 13.3394 18.8663C12.2531 18.08 11.5419 16.8056 11.5419 15.3644ZM9.8 12.8687C9.725 14.0437 8.44375 14.2562 7.84375 15.625C7.65375 16.0612 7.49437 16.7212 7.63875 17.6612C4.53312 16.4975 2.3125 13.5069 2.3125 10C2.3125 9.94687 2.31938 9.895 2.32063 9.84187C2.8825 10.5487 3.42188 10.8362 3.925 10.875C5.375 10.9875 6.1125 8.9875 7.56875 9.18125C8.6 9.31875 9.2125 10.475 9.4 10.875C9.41875 10.9187 9.4375 10.9562 9.44375 10.975C9.44375 10.975 9.85625 11.9125 9.8 12.8687ZM11.5137 1.88187C14.0825 2.20125 16.2813 3.71375 17.5438 5.8475C17.415 5.835 17.285 5.82312 17.1687 5.8C16.2125 5.6125 16.225 5.1875 15.4875 5.14375C14.1562 5.05625 13.55 6.425 12.525 6.19375C11.9 6.05 11.55 5.4 11.45 5.20625C10.9994 4.35875 11.0825 3.09625 11.5137 1.88187Z" fill="#92D050"/>
<path d="M15.8641 11.9794C13.9941 11.9794 12.4785 13.495 12.4785 15.365C12.4785 17.235 13.9941 18.7506 15.8641 18.7506C17.7341 18.75 19.2498 17.2344 19.2498 15.3644C19.2498 13.495 17.7341 11.9794 15.8641 11.9794ZM17.0173 16.5169C16.9073 16.6269 16.7635 16.6819 16.6191 16.6819C16.4748 16.6819 16.331 16.6269 16.221 16.5175L15.466 15.7625C15.361 15.6569 15.301 15.5137 15.301 15.3644V13.7731C15.301 13.4625 15.5529 13.2106 15.8635 13.2106C16.1741 13.2106 16.426 13.4625 16.426 13.7731V15.1312L17.016 15.7212C17.2366 15.9412 17.2366 16.2975 17.0173 16.5169Z" fill="#92D050"/>
</svg>
