<svg width="61" height="60" viewBox="0 0 61 60" fill="none" xmlns="http://www.w3.org/2000/svg">
<g clip-path="url(#clip0_95_622)">
<path d="M57.7118 38.383C57.4066 36.8012 56.4138 35.417 55.0222 34.6174C54.7169 33.036 53.724 31.6516 52.3326 30.852C52.0275 29.2699 51.0339 27.8853 49.6419 27.0857C49.3366 25.504 48.3438 24.1195 46.9524 23.3202C46.6472 21.7383 45.6543 20.3541 44.2629 19.5546C43.9577 17.9737 42.9658 16.5901 41.5756 15.7903C41.0918 13.235 38.8422 11.2969 36.1484 11.2969C33.4547 11.2969 31.2051 13.2352 30.7213 15.7902C29.3312 16.5899 28.3392 17.9735 28.034 19.5545C26.6425 20.3539 25.6497 21.7382 25.3445 23.3201C23.9531 24.1195 22.9603 25.5039 22.655 27.0855C21.2629 27.8852 20.2695 29.2698 19.9643 30.8518C18.5729 31.6515 17.58 33.036 17.2747 34.6173C15.8831 35.4169 14.8903 36.8011 14.5851 38.3829C12.898 39.3523 11.7969 41.1813 11.7969 43.1796C11.7969 46.2252 14.2748 48.703 17.3204 48.703H54.9765C58.0221 48.703 60.5 46.2252 60.5 43.1796C60.5 41.1814 59.3989 39.3524 57.7118 38.383Z" fill="#1E465A"/>
<path d="M54.9765 48.7031C58.0221 48.7031 60.5 46.2253 60.5 43.1797C60.5 41.1814 59.3989 39.3524 57.7118 38.383C57.4066 36.8012 56.4138 35.417 55.0222 34.6174C54.7169 33.036 53.724 31.6516 52.3326 30.852C52.0275 29.2699 51.0339 27.8853 49.6419 27.0857C49.3366 25.504 48.3438 24.1195 46.9524 23.3202C46.6471 21.7383 45.6543 20.3541 44.2628 19.5546C43.9577 17.9737 42.9658 16.5901 41.5756 15.7903C41.0918 13.235 38.8422 11.2969 36.1484 11.2969V48.7031H54.9765Z" fill="#0F2D3C"/>
<path d="M40.8554 35.5224C39.8846 35.5224 39.0976 34.7363 39.0976 33.7655V33.7637C39.0976 32.7934 39.4755 31.8801 40.1616 31.1921C40.8504 30.5034 41.7642 30.125 42.7364 30.125C43.7071 30.125 44.4951 30.912 44.4951 31.8828C44.4951 32.8536 43.7091 33.6406 42.7384 33.6406C42.7033 33.6406 42.6724 33.6533 42.6492 33.6765C42.627 33.6988 42.6132 33.7312 42.6132 33.7638C42.6132 34.7345 41.8262 35.5224 40.8554 35.5224Z" fill="#00141E"/>
<path d="M34.2657 31.7579C33.2949 31.7579 32.5079 30.9708 32.5079 30C32.5079 29.9311 32.4518 29.875 32.3829 29.875C31.4121 29.875 30.625 29.088 30.625 28.1172C30.625 27.1464 31.4121 26.3594 32.3829 26.3594C34.3904 26.3594 36.0235 27.9926 36.0235 30C36.0235 30.9708 35.2365 31.7579 34.2657 31.7579Z" fill="#0F2D3C"/>
<path d="M47.4453 42.1124C46.4745 42.1124 45.6875 41.3263 45.6875 40.3555V40.3536C45.6875 40.3205 45.6748 40.2895 45.6518 40.2664C45.6285 40.2432 45.5975 40.2305 45.5644 40.2305C44.5937 40.2305 43.8057 39.4434 43.8057 38.4727C43.8057 37.5019 44.5917 36.7148 45.5625 36.7148C46.5365 36.7148 47.4503 37.0932 48.1375 37.7804C48.8246 38.4674 49.2031 39.3813 49.2031 40.3536C49.2031 41.3244 48.4161 42.1124 47.4453 42.1124Z" fill="#00141E"/>
<path d="M33.3242 42.1124C32.3534 42.1124 31.5664 41.3263 31.5664 40.3555V40.3536C31.5664 40.3205 31.5537 40.2895 31.5307 40.2664C31.5075 40.2432 31.4764 40.2305 31.4434 40.2305C30.4726 40.2305 29.6846 39.4434 29.6846 38.4727C29.6846 37.5019 30.4707 36.7148 31.4415 36.7148C32.4155 36.7148 33.3294 37.0932 34.0166 37.7804C34.7036 38.4674 35.0821 39.3813 35.0821 40.3536C35.082 41.3244 34.295 42.1124 33.3242 42.1124Z" fill="#0F2D3C"/>
<path d="M13.5547 48.7031C12.5839 48.7031 11.7969 47.9161 11.7969 46.9453V40.3545C11.7969 37.0059 13.0804 28.2715 22.031 23.7961L24.0663 22.779C24.6112 22.507 25.2582 22.5363 25.7761 22.8566C26.2941 23.1768 26.6094 23.7426 26.6094 24.3516V35.6485C26.6094 42.8568 20.7762 48.7031 13.5547 48.7031Z" fill="#70D840"/>
<path d="M13.5547 48.7031C6.35633 48.7031 0.5 42.8468 0.5 35.6484V28.1171C0.5 27.5081 0.815234 26.9425 1.33332 26.6221C1.85141 26.3018 2.49828 26.2725 3.0432 26.5445L5.0784 27.5616C14.0271 32.0361 15.3125 40.7684 15.3125 44.1202V46.9453C15.3125 47.9161 14.5256 48.7031 13.5547 48.7031Z" fill="#BEE75E"/>
</g>
<defs>
<clipPath id="clip0_95_622">
<rect width="60" height="60" fill="white" transform="translate(0.5)"/>
</clipPath>
</defs>
</svg>
