<svg width="24" height="24" viewBox="0 0 24 24" fill="none" xmlns="http://www.w3.org/2000/svg">
<path d="M14.3674 2.40873C13.4566 1.50033 12.2481 1 10.9644 1C9.6808 1 8.47226 1.50029 7.56038 2.40972C6.69331 3.27825 5.54931 4.42246 4.78369 5.18804H17.1451C16.3793 4.42233 15.2351 3.27786 14.3674 2.40873Z" fill="#989898"/>
<path d="M3.02515 9.92886H18.9035C19.2595 9.92886 19.548 9.64028 19.548 9.28433V7.12158C19.548 6.76563 19.2595 6.47705 18.9035 6.47705H3.02515C2.66919 6.47705 2.38062 6.76563 2.38062 7.12158V9.28433C2.38062 9.64028 2.66919 9.92886 3.02515 9.92886Z" fill="#989898"/>
<path d="M13.1081 17.8217C14.0881 16.8418 15.4456 16.2796 16.8326 16.2796C18.0222 16.2796 19.19 16.6936 20.1168 17.4299L19.0801 11.2095C19.0219 11.2148 18.9631 11.2179 18.9036 11.2179H3.0253C2.96579 11.2179 2.90696 11.2148 2.84878 11.2095L1.00877 22.2494C0.977622 22.4363 1.0303 22.6274 1.15276 22.772C1.27518 22.9166 1.45509 22.9999 1.64454 22.9999H9.48694C9.23841 22.2988 9.41153 21.5194 9.94193 20.9886C9.94193 20.9886 11.8824 19.0468 13.1081 17.8217Z" fill="#989898"/>
<path d="M22.8114 21.8997C22.8114 21.8997 20.8713 19.9583 19.6459 18.7336C18.9055 17.9932 17.8801 17.5686 16.8325 17.5686C15.7849 17.5686 14.7595 17.9932 14.0193 18.7334C12.7938 19.9582 10.8537 21.8997 10.8537 21.8997C10.6694 22.0841 10.6144 22.3613 10.7142 22.602C10.8139 22.8428 11.049 22.9999 11.3096 22.9999H22.3554C22.6161 22.9999 22.8511 22.8429 22.9508 22.6021C23.0507 22.3613 22.9956 22.0841 22.8114 21.8997Z" fill="#989898"/>
</svg>
