<svg width="48" height="48" viewBox="0 0 48 48" fill="none" xmlns="http://www.w3.org/2000/svg">
<path d="M11.0443 47.4862L16.6294 26.8125L9.99328 26.28L7.72204 47.2302C7.67737 47.6411 7.99927 48 8.41308 48H10.3734C10.6873 48 10.9623 47.7894 11.0443 47.4862Z" fill="#537983"/>
<path d="M37.7279 47.4862L32.1432 26.8125L38.7789 26.28L41.0502 47.2302C41.0948 47.6411 40.7729 48 40.3595 48H38.3992C38.085 48 37.8099 47.7894 37.7279 47.4862Z" fill="#537983"/>
<path d="M25.9773 44.8652H22.5382C21.7095 44.8652 21.0371 44.1932 21.0371 43.3641V38.6818H27.4784V43.3641C27.4784 44.1932 26.8064 44.8652 25.9773 44.8652Z" fill="#DEECF1"/>
<path d="M7.36096 3.34717V29.9271C7.36096 30.798 7.74365 31.6249 8.40759 32.1888L21.0393 41.9883H27.4806L40.1086 32.1888C40.7722 31.6249 41.1549 30.798 41.1549 29.9271V3.34717C41.1549 1.49854 39.6564 0 37.8077 0H10.7081C8.85986 0 7.36096 1.49854 7.36096 3.34717Z" fill="#DEECF1"/>
<path d="M37.8077 0H35.8115C37.1222 0.578979 38.167 1.94568 38.167 3.34717V29.9271C38.167 30.798 37.7843 31.6249 37.1207 32.1888L35.1674 33.7046L24.4927 41.9883H27.4806L40.1086 32.1888C40.7722 31.6252 41.1549 30.7983 41.1549 29.9275V3.34717C41.1549 1.49854 39.656 0 37.8077 0V0Z" fill="#A8D3D8"/>
<path d="M19.7158 18.0011C19.7158 17.9857 19.7144 17.9711 19.7136 17.9561V11.7642C19.7144 11.7491 19.7158 11.7345 19.7158 11.7191C19.7158 11.7041 19.7144 11.6891 19.7136 11.6744V5.49683C19.7136 5.09656 19.3892 4.77209 18.9889 4.77209C18.5883 4.77209 18.2638 5.09656 18.2638 5.49683V10.9944H12.0895V5.49683C12.0895 5.09656 11.7646 4.77209 11.3644 4.77209C10.9641 4.77209 10.6396 5.09656 10.6396 5.49683V28.5421C10.6396 28.9427 10.9641 29.2672 11.3644 29.2672C11.7646 29.2672 12.0895 28.9427 12.0895 28.5421V25.0074H18.2638V28.5421C18.2638 28.9427 18.5883 29.2672 18.9889 29.2672C19.3892 29.2672 19.7136 28.9427 19.7136 28.5421V24.3278C19.7144 24.3127 19.7158 24.2981 19.7158 24.2827C19.7158 24.2677 19.7144 24.2527 19.7136 24.2377V18.0458C19.7144 18.0311 19.7158 18.0161 19.7158 18.0011ZM18.2638 12.4442V17.2764H12.0895V12.4442H18.2638ZM12.0895 23.558V18.7258H18.2638V23.558H12.0895Z" fill="#FF9838"/>
<path d="M5 4.84387C5 5.71179 5.70386 6.41528 6.57178 6.41528H41.9441C42.8124 6.41528 43.5159 5.71179 43.5159 4.84387C43.5159 3.97559 42.812 3.27209 41.9441 3.27209H6.57178C5.70349 3.27209 5 3.97595 5 4.84387Z" fill="#8EBAC5"/>
<path d="M24.4927 41.9883H24.4905V44.8652H25.9773C26.8064 44.8652 27.4784 44.1932 27.4784 43.3641V41.9883H24.4927Z" fill="#A8D3D8"/>
<path d="M8.40759 32.1888L21.0393 41.9883H27.4806L40.1086 32.1888H8.40759Z" fill="#8EBAC5"/>
<path d="M27.4806 41.9883L40.1086 32.1888H37.1207L35.1674 33.7046L24.4927 41.9883H27.4806Z" fill="#7CA1B1"/>
</svg>
