<svg width="48" height="48" viewBox="0 0 48 48" fill="none" xmlns="http://www.w3.org/2000/svg">
<path d="M28.5 22.5H45V45.75H28.5V22.5Z" fill="#B9CD2A"/>
<path d="M36 12H39V22.5H36V12Z" fill="#A2BA18"/>
<path d="M21.75 17.25H28.5V36H21.75V17.25Z" fill="#C1D439"/>
<path d="M21.75 17.25V13.5L28.5 17.25H21.75Z" fill="#ACC221"/>
<path d="M24 19.5H26.25V21H24V19.5Z" fill="#CDE046"/>
<path d="M15 17.25H21.75V36H15V17.25Z" fill="#B9CD2A"/>
<path d="M15 17.25V13.5L21.75 17.25H15Z" fill="#ACC221"/>
<path d="M17.25 19.5H19.5V21H17.25V19.5Z" fill="#CDE046"/>
<path d="M8.25 17.25H15V36H8.25V17.25Z" fill="#C1D439"/>
<path d="M30 30.75V45.75H9.75C8.76491 45.7511 7.7893 45.5576 6.87918 45.1807C5.96907 44.8037 5.14237 44.2507 4.44655 43.5534C4.42875 43.5356 4.41094 43.5178 4.39407 43.5C3.95242 43.05 3.56939 42.546 3.25406 42C2.7221 41.0801 2.39228 40.0574 2.28658 39C2.26218 38.7534 2.24998 38.5034 2.25 38.25C2.25 37.9969 2.26219 37.7469 2.28658 37.5C2.47304 35.6501 3.33979 33.9353 4.71877 32.6881C6.09774 31.441 7.8907 30.7503 9.75 30.75H12.75L15 27H18.75V30.75H30Z" fill="#B1712C"/>
<path d="M12 42V43.5H4.39404C3.95239 43.05 3.56936 42.546 3.25403 42H12Z" fill="#A36522"/>
<path d="M13.5 42H15V43.5H13.5V42Z" fill="#A36522"/>
<path d="M9.74997 33V34.5H3.25403C3.56936 33.954 3.95239 33.45 4.39404 33H9.74997Z" fill="#A36522"/>
<path d="M11.25 33H12.75V34.5H11.25V33Z" fill="#A36522"/>
<path d="M9.75 39H11.25V40.5H9.75V39Z" fill="#A36522"/>
<path d="M12.75 38.9999H24V40.4999H12.75V38.9999Z" fill="#A36522"/>
<path d="M18 42H25.5V43.5H18V42Z" fill="#A36522"/>
<path d="M6.74998 39V40.5H2.59404C2.44008 40.0119 2.33704 39.5093 2.28656 39H6.74998Z" fill="#A36522"/>
<path d="M12 36V37.5H2.28656C2.33704 36.9907 2.44008 36.4881 2.59404 36H12Z" fill="#A36522"/>
<path d="M17.25 36H24.75V37.5H17.25V36Z" fill="#A36522"/>
<path d="M15 33H25.5V34.5H15V33Z" fill="#A36522"/>
<path d="M8.25 17.25V13.5L15 17.25H8.25Z" fill="#B9CD2A"/>
<path d="M10.5 19.5H12.75V21H10.5V19.5Z" fill="#CDE046"/>
<path d="M31.5 25.5H33V27H31.5V25.5Z" fill="#CDE046"/>
<path d="M34.5 25.5H36V27H34.5V25.5Z" fill="#CDE046"/>
<path d="M37.5 25.5H39V27H37.5V25.5Z" fill="#CDE046"/>
<path d="M40.5 25.5H42V27H40.5V25.5Z" fill="#CDE046"/>
<path d="M37.5 28.5H39V30H37.5V28.5Z" fill="#CDE046"/>
<path d="M40.5 28.5H42V30H40.5V28.5Z" fill="#CDE046"/>
<path d="M40.5 31.5H42V33H40.5V31.5Z" fill="#CDE046"/>
<path d="M40.5 34.5H42V36H40.5V34.5Z" fill="#CDE046"/>
<path d="M40.5 37.5H42V39H40.5V37.5Z" fill="#CDE046"/>
<path d="M40.5 40.5H42V42H40.5V40.5Z" fill="#CDE046"/>
<path d="M33 12H36V22.5H33V12Z" fill="#ACC221"/>
<path d="M33 12H36V15H33V12Z" fill="#A2BA18"/>
<path d="M36 12H39V15H36V12Z" fill="#93AD10"/>
<path d="M43.5 1.5V4.79584C43.5 5.16625 43.4085 5.53093 43.2338 5.85752C43.059 6.1841 42.8063 6.46248 42.4981 6.66795C42.1142 6.9239 41.7994 7.27067 41.5816 7.67749C41.3639 8.08431 41.25 8.53858 41.25 9C41.25 9.46141 41.1361 9.91569 40.9184 10.3225C40.7006 10.7293 40.3858 11.0761 40.0019 11.332L39 12H33L31.9981 11.332C31.6142 11.0761 31.2994 10.7293 31.0816 10.3225C30.8639 9.91569 30.75 9.46141 30.75 9C30.75 8.53859 30.6361 8.08431 30.4184 7.67749C30.2006 7.27067 29.8858 6.9239 29.5019 6.66795C29.1937 6.46248 28.941 6.1841 28.7662 5.85752C28.5914 5.53094 28.5 5.16625 28.5 4.79584V1.5H43.5Z" fill="#D1E4FF"/>
<path d="M30.9667 5.47369L32.4664 3.97395L33.5269 5.03445L32.0272 6.53419L30.9667 5.47369Z" fill="#BDD1F2"/>
<path d="M32.4663 7.72369L33.9661 6.22395L35.0266 7.28445L33.5268 8.78419L32.4663 7.72369Z" fill="#BDD1F2"/>
<path d="M37.7151 5.03394L38.7756 3.97344L40.2754 5.47318L39.2149 6.53368L37.7151 5.03394Z" fill="#BDD1F2"/>
<path d="M36.9648 8.03351L38.0253 6.97301L39.5251 8.47275L38.4646 9.53325L36.9648 8.03351Z" fill="#BDD1F2"/>
<path d="M30 45.75C34.1421 45.75 37.5 42.3921 37.5 38.25C37.5 34.1079 34.1421 30.75 30 30.75C25.8579 30.75 22.5 34.1079 22.5 38.25C22.5 42.3921 25.8579 45.75 30 45.75Z" fill="#D69651"/>
<path d="M30 42.75C28.8069 42.7487 27.6631 42.2741 26.8195 41.4305C25.9759 40.5869 25.5013 39.4431 25.5 38.25H27C27 38.8433 27.1759 39.4234 27.5056 39.9167C27.8352 40.4101 28.3038 40.7946 28.8519 41.0216C29.4001 41.2487 30.0033 41.3081 30.5853 41.1924C31.1672 41.0766 31.7018 40.7909 32.1213 40.3713C32.5409 39.9518 32.8266 39.4172 32.9424 38.8353C33.0581 38.2533 32.9987 37.6501 32.7716 37.1019C32.5446 36.5538 32.1601 36.0852 31.6667 35.7556C31.1734 35.4259 30.5933 35.25 30 35.25V33.75C31.1935 33.75 32.3381 34.2241 33.182 35.068C34.0259 35.9119 34.5 37.0565 34.5 38.25C34.5 39.4435 34.0259 40.5881 33.182 41.432C32.3381 42.2759 31.1935 42.75 30 42.75Z" fill="#E3A15B"/>
</svg>
