<svg width="48" height="48" viewBox="0 0 48 48" fill="none" xmlns="http://www.w3.org/2000/svg">
<g clip-path="url(#clip0_218_1689)">
<path d="M39.4914 18.0181C39.4914 24.8897 35.0178 30.7174 28.8232 32.7445C27.3059 33.2419 25.6843 33.5104 24 33.5104C22.3157 33.5104 20.6941 33.2419 19.1769 32.7445C12.9822 30.7174 8.50867 24.8897 8.50867 18.0181C8.50867 17.0967 8.58882 16.1937 8.74332 15.3168C10.0221 8.04917 16.3654 2.52673 24 2.52673C31.6346 2.52673 37.9779 8.04917 39.2567 15.3168C39.4112 16.1937 39.4914 17.0967 39.4914 18.0181Z" fill="#F1F1F4"/>
<path d="M25.2903 33.4573C24.8653 33.493 24.4346 33.5105 24 33.5105C22.3157 33.5105 20.6941 33.242 19.1769 32.7446C12.9822 30.7175 8.50867 24.8898 8.50867 18.0182C8.50867 17.0968 8.58882 16.1938 8.74332 15.3169C10.0221 8.04917 16.3654 2.52673 24 2.52673C24.4346 2.52673 24.8644 2.54511 25.2894 2.57989C18.2391 3.16133 12.5292 8.46251 11.3229 15.3168C11.1684 16.1937 11.0883 17.0967 11.0883 18.0181C11.0883 24.8897 15.5619 30.7174 21.7565 32.7445C22.8826 33.1134 24.0656 33.3569 25.2903 33.4573Z" fill="#E2D8EC"/>
<path d="M39.4914 18.0181C39.4914 24.8897 35.0178 30.7174 28.8232 32.7445H19.1769C12.9822 30.7174 8.50867 24.8897 8.50867 18.0181C8.50867 17.0967 8.58882 16.1937 8.74332 15.3168H39.2566C39.4112 16.1937 39.4914 17.0967 39.4914 18.0181Z" fill="#E2D8EC"/>
<path d="M42.2965 15.1056C41.9576 15.1056 41.6549 14.8667 41.5868 14.5216C40.7134 10.1033 38.2173 6.19921 34.5581 3.52827C34.235 3.29239 34.1643 2.8393 34.4002 2.51614C34.6359 2.19299 35.089 2.1223 35.4123 2.35817C39.3663 5.24436 42.0639 9.46433 43.0079 14.2407C43.0855 14.6331 42.8303 15.0142 42.4378 15.0918C42.3904 15.1011 42.343 15.1056 42.2965 15.1056Z" fill="#F1F1F4"/>
<path d="M6.18697 13.1965C6.11572 13.1965 6.04334 13.1859 5.97162 13.1636C5.58968 13.0448 5.37631 12.6388 5.49518 12.2568C7.19187 6.80164 11.1877 2.39446 16.4577 0.165361C16.8261 0.00945508 17.2511 0.181768 17.407 0.550299C17.5629 0.918736 17.3905 1.3438 17.022 1.49961C12.1455 3.56221 8.4484 7.63986 6.87837 12.6872C6.7819 12.9975 6.49578 13.1965 6.18697 13.1965Z" fill="#F1F1F4"/>
<path d="M32.0711 18.0181C32.0711 22.4762 28.4572 26.0892 24 26.0892C19.5429 26.0892 15.9289 22.4762 15.9289 18.0181C15.9289 17.0707 16.0921 16.1609 16.3925 15.3168C17.5041 12.1876 20.4904 9.94791 24 9.94791C27.5096 9.94791 30.496 12.1876 31.6075 15.3168C31.9079 16.1609 32.0711 17.0707 32.0711 18.0181Z" fill="#E2D8EC"/>
<path d="M32.0711 18.0181C32.0711 22.4762 28.4572 26.0892 24 26.0892C19.5429 26.0892 15.9289 22.4762 15.9289 18.0181C15.9289 17.0706 16.0921 16.1609 16.3925 15.3168H31.6076C31.9079 16.1609 32.0711 17.0706 32.0711 18.0181Z" fill="#D0CEE7"/>
<path d="M24 21.6557C26.0088 21.6557 27.6372 20.0272 27.6372 18.0184C27.6372 16.0097 26.0088 14.3812 24 14.3812C21.9912 14.3812 20.3628 16.0097 20.3628 18.0184C20.3628 20.0272 21.9912 21.6557 24 21.6557Z" fill="#756E78"/>
<path d="M39.3427 18.0185H8.65722C7.16154 18.0185 5.94897 19.2309 5.94897 20.7267V33.8822H42.0509V20.7267C42.051 19.231 40.8384 18.0185 39.3427 18.0185Z" fill="#DF6B57"/>
<path d="M11.6561 18.0181C10.1602 18.0181 8.94806 19.2311 8.94806 20.7272V33.8823H5.94928V20.7272C5.94928 19.2311 7.16137 18.0181 8.65734 18.0181H11.6561Z" fill="#DA4A54"/>
<path d="M42.0291 22.4434H5.97095C4.22701 22.4434 2.81335 23.8571 2.81335 25.601V42.2654L24 45.0787L45.1867 42.2654V25.601C45.1867 23.8571 43.773 22.4434 42.0291 22.4434Z" fill="#5986CB"/>
<path d="M5.07639 43.0884L2.81335 42.2658V25.6009C2.81335 23.8577 4.22729 22.4437 5.97151 22.4437H10.0955C8.35126 22.4437 6.93732 23.8577 6.93732 25.6009V42.2658L5.07639 43.0884Z" fill="#5766CB"/>
<path d="M45.1867 42.2654H2.81334C1.25953 42.2654 0 43.5249 0 45.0787C0 46.6324 1.25953 47.8921 2.81334 47.8921H45.1867C46.7405 47.8921 48 46.6325 48 45.0787C48 43.5249 46.7405 42.2654 45.1867 42.2654Z" fill="#756E78"/>
<path d="M9.40491 47.0683C9.91387 47.5773 10.6179 47.8921 11.3945 47.8921H2.81334C2.03587 47.8921 1.33275 47.5773 0.823781 47.0683C0.314812 46.5593 0 45.8552 0 45.0787C0 43.5258 1.25944 42.2654 2.81334 42.2654H11.3945C9.84047 42.2654 8.58112 43.5258 8.58112 45.0787C8.58112 45.8552 8.89594 46.5593 9.40491 47.0683Z" fill="#665E66"/>
<path d="M29.8351 7.50881C29.435 7.50881 29.1108 7.18453 29.1108 6.7845V6.73621C29.1108 6.33618 29.4351 6.0119 29.8351 6.0119C30.2351 6.0119 30.5594 6.33618 30.5594 6.73621V6.7845C30.5595 7.18443 30.2352 7.50881 29.8351 7.50881Z" fill="#D0CEE7"/>
<path d="M31.544 9.08419C31.1439 9.08419 30.8197 8.75991 30.8197 8.35987V8.31159C30.8197 7.91156 31.144 7.58728 31.544 7.58728C31.944 7.58728 32.2683 7.91156 32.2683 8.31159V8.35987C32.2683 8.75981 31.944 9.08419 31.544 9.08419Z" fill="#D0CEE7"/>
<path d="M29.5806 9.5205C29.1805 9.5205 28.8563 9.19622 28.8563 8.79619V8.74781C28.8563 8.34778 29.1805 8.0235 29.5806 8.0235C29.9806 8.0235 30.3049 8.34778 30.3049 8.74781V8.79609C30.305 9.19612 29.9807 9.5205 29.5806 9.5205Z" fill="#D0CEE7"/>
<path d="M11.4737 16.0896C11.0736 16.0896 10.7494 15.7653 10.7494 15.3652V15.317C10.7494 14.9169 11.0737 14.5927 11.4737 14.5927C11.8738 14.5927 12.198 14.9169 12.198 15.317V15.3652C12.1981 15.7653 11.8738 16.0896 11.4737 16.0896Z" fill="#D0CEE7"/>
<path d="M12.928 13.8353C12.5279 13.8353 12.2037 13.511 12.2037 13.1109V13.0627C12.2037 12.6626 12.528 12.3383 12.928 12.3383C13.3281 12.3383 13.6524 12.6626 13.6524 13.0627V13.1109C13.6525 13.511 13.3282 13.8353 12.928 13.8353Z" fill="#D0CEE7"/>
<path d="M13.9462 15.835C13.5461 15.835 13.2219 15.5108 13.2219 15.1107V15.0624C13.2219 14.6624 13.5461 14.3381 13.9462 14.3381C14.3463 14.3381 14.6705 14.6624 14.6705 15.0624V15.1107C14.6705 15.5108 14.3462 15.835 13.9462 15.835Z" fill="#D0CEE7"/>
<path d="M33.9919 37.3625V28.1266C33.9919 26.7427 35.1137 25.6208 36.4976 25.6208H40.3215C41.7054 25.6208 42.8273 26.7426 42.8273 28.1266V37.3625C42.8273 38.7464 41.7054 39.8683 40.3215 39.8683H36.4976C35.1137 39.8682 33.9919 38.7464 33.9919 37.3625Z" fill="#F1F1F4"/>
<path d="M37.9884 39.8687H36.4972C35.1142 39.8687 33.9919 38.7464 33.9919 37.3634V28.1265C33.9919 26.7435 35.1142 25.6212 36.4972 25.6212H37.9884C36.6044 25.6212 35.4831 26.7435 35.4831 28.1265V37.3634C35.4831 38.7464 36.6043 39.8687 37.9884 39.8687Z" fill="#E2D8EC"/>
<path d="M38.4096 31.4874C39.4939 31.4874 40.373 30.6084 40.373 29.524C40.373 28.4397 39.4939 27.5606 38.4096 27.5606C37.3252 27.5606 36.4462 28.4397 36.4462 29.524C36.4462 30.6084 37.3252 31.4874 38.4096 31.4874Z" fill="#DF6B57"/>
<path d="M38.4096 37.9284C39.4939 37.9284 40.373 37.0494 40.373 35.965C40.373 34.8807 39.4939 34.0016 38.4096 34.0016C37.3252 34.0016 36.4462 34.8807 36.4462 35.965C36.4462 37.0494 37.3252 37.9284 38.4096 37.9284Z" fill="#DF6B57"/>
<path d="M39.2102 31.3175C38.9659 31.4267 38.6945 31.4875 38.4096 31.4875C37.3259 31.4875 36.4461 30.6086 36.4461 29.524C36.4461 28.4394 37.3259 27.5605 38.4096 27.5605C38.6945 27.5605 38.9659 27.6214 39.2102 27.7305C38.5255 28.0376 38.0484 28.7253 38.0484 29.5239C38.0484 30.3228 38.5256 31.0104 39.2102 31.3175Z" fill="#DA4A54"/>
<path d="M39.211 37.7586C38.9667 37.8677 38.6953 37.9285 38.4104 37.9285C37.3258 37.9285 36.4469 37.0496 36.4469 35.965C36.4469 34.8804 37.3258 34.0015 38.4104 34.0015C38.6953 34.0015 38.9667 34.0624 39.211 34.1715C38.5253 34.4777 38.0482 35.1653 38.0482 35.9649C38.0482 36.7647 38.5253 37.4524 39.211 37.7586Z" fill="#DA4A54"/>
<path d="M40.3215 40.5926H36.4976C34.7166 40.5926 33.2676 39.1436 33.2676 37.3625V28.1266C33.2676 26.3455 34.7166 24.8965 36.4976 24.8965H40.3215C42.1026 24.8965 43.5516 26.3455 43.5516 28.1266V37.3625C43.5515 39.1436 42.1026 40.5926 40.3215 40.5926ZM36.4976 26.3451C35.5154 26.3451 34.7163 27.1443 34.7163 28.1265V37.3625C34.7163 38.3447 35.5154 39.1438 36.4976 39.1438H40.3215C41.3037 39.1438 42.1029 38.3447 42.1029 37.3625V28.1265C42.1029 27.1443 41.3037 26.3451 40.3215 26.3451H36.4976Z" fill="#5766CB"/>
<path d="M9.39115 37.2187C8.67621 37.2187 8.09656 36.6392 8.09656 35.9241V29.5658C8.09656 28.8509 8.67612 28.2712 9.39115 28.2712C10.1061 28.2712 10.6857 28.8508 10.6857 29.5658V35.9241C10.6857 36.6391 10.1061 37.2187 9.39115 37.2187Z" fill="#544F57"/>
<path d="M14.4377 37.2187C13.7228 37.2187 13.1431 36.6392 13.1431 35.9241V29.5658C13.1431 28.8509 13.7227 28.2712 14.4377 28.2712C15.1527 28.2712 15.7323 28.8508 15.7323 29.5658V35.9241C15.7322 36.6391 15.1527 37.2187 14.4377 37.2187Z" fill="#544F57"/>
<path d="M19.4842 37.2187C18.7692 37.2187 18.1896 36.6392 18.1896 35.9241V29.5658C18.1896 28.8509 18.7691 28.2712 19.4842 28.2712C20.1991 28.2712 20.7788 28.8508 20.7788 29.5658V35.9241C20.7788 36.6391 20.1992 37.2187 19.4842 37.2187Z" fill="#544F57"/>
</g>
<defs>
<clipPath id="clip0_218_1689">
<rect width="48" height="48" fill="white"/>
</clipPath>
</defs>
</svg>
