<svg width="24" height="24" viewBox="0 0 24 24" fill="none" xmlns="http://www.w3.org/2000/svg">
<g clip-path="url(#clip0_218_1633)">
<path d="M16.3359 6.1875C17.7598 6.1875 18.9141 5.03323 18.9141 3.60938C18.9141 2.18552 17.7598 1.03125 16.3359 1.03125C14.9121 1.03125 13.7578 2.18552 13.7578 3.60938C13.7578 5.03323 14.9121 6.1875 16.3359 6.1875Z" fill="#293343"/>
<path d="M10.9453 4.21875C12.1103 4.21875 13.0547 3.27435 13.0547 2.10938C13.0547 0.944399 12.1103 0 10.9453 0C9.78034 0 8.83594 0.944399 8.83594 2.10938C8.83594 3.27435 9.78034 4.21875 10.9453 4.21875Z" fill="#293343"/>
<path d="M6.02344 5.71875C7.18841 5.71875 8.13281 4.77435 8.13281 3.60938C8.13281 2.4444 7.18841 1.5 6.02344 1.5C4.85846 1.5 3.91406 2.4444 3.91406 3.60938C3.91406 4.77435 4.85846 5.71875 6.02344 5.71875Z" fill="#293343"/>
<path d="M2.27344 9.46875C3.43841 9.46875 4.38281 8.52435 4.38281 7.35938C4.38281 6.1944 3.43841 5.25 2.27344 5.25C1.10846 5.25 0.164062 6.1944 0.164062 7.35938C0.164062 8.52435 1.10846 9.46875 2.27344 9.46875Z" fill="#293343"/>
<path d="M13.409 17.3022C13.014 16.3115 12.6056 15.2872 12.6719 14.4998C12.7427 13.66 13.1517 12.7401 13.8876 11.7657C14.5133 10.9371 15.3703 9.80244 15.1202 8.39576C14.9677 7.53805 14.5185 6.84186 13.8213 6.38239C12.3135 5.38887 10.1477 5.74962 9.2865 5.9509C8.88511 6.0447 6.00272 7.09794 5.03207 8.98217C4.22076 10.5571 4.31845 12.2881 4.54486 13.9241C4.81406 15.869 5.14542 17.4497 5.58754 18.8985L5.59275 18.9156C6.03604 20.3682 6.5385 22.0146 7.86975 23.1034C8.55084 23.6599 9.42342 23.9778 10.3268 23.9988C10.3588 23.9996 10.3907 23.9999 10.4227 23.9999C11.2821 23.9999 12.1303 23.7323 12.8211 23.2416C13.8512 22.5097 14.3364 21.5152 14.263 20.2857C14.204 19.296 13.7999 18.2824 13.409 17.3022V17.3022Z" fill="#293343"/>
<path d="M22.4297 14.625C22.4297 13.4619 21.4834 12.5156 20.3203 12.5156C19.1572 12.5156 18.2109 13.4619 18.2109 14.625C18.2109 15.7881 19.1572 16.7344 20.3203 16.7344C21.4834 16.7344 22.4297 15.7881 22.4297 14.625ZM20.3203 15.7969C19.6741 15.7969 19.1484 15.2712 19.1484 14.625C19.1484 13.9788 19.6741 13.4531 20.3203 13.4531C20.9665 13.4531 21.4922 13.9788 21.4922 14.625C21.4922 15.2712 20.9665 15.7969 20.3203 15.7969Z" fill="#293343"/>
<path d="M17.5747 15.4433C17.3763 15.277 17.0806 15.3028 16.9143 15.5012C16.8874 15.5333 16.8586 15.563 16.8285 15.5898C16.6743 15.7272 16.4762 15.7969 16.2399 15.7969C15.5937 15.7969 15.068 15.2712 15.068 14.625C15.068 13.9788 15.5937 13.4531 16.2399 13.4531C16.4748 13.4531 16.7012 13.5222 16.8947 13.6529C17.1092 13.7979 17.4006 13.7415 17.5455 13.527C17.6905 13.3125 17.6341 13.0211 17.4196 12.8761C17.0705 12.6403 16.6626 12.5156 16.2399 12.5156C15.0768 12.5156 14.1305 13.4618 14.1305 14.6249C14.1305 15.788 15.0768 16.7343 16.2399 16.7343C16.7064 16.7343 17.1256 16.5806 17.452 16.2899C17.5158 16.2331 17.5766 16.1705 17.6326 16.1037C17.7989 15.9054 17.773 15.6097 17.5747 15.4433V15.4433Z" fill="#293343"/>
<path d="M23.3613 19.5405C23.1941 19.5426 23.02 19.5443 22.8545 19.5454C22.9831 19.3695 23.1394 19.152 23.3274 18.8833C23.5178 18.6112 23.6375 18.362 23.6932 18.1215C23.7047 18.0607 23.7174 17.9708 23.719 17.909C23.719 17.2613 23.192 16.7344 22.5444 16.7344C21.9844 16.7344 21.4996 17.1328 21.3918 17.6818C21.3419 17.9358 21.5074 18.1822 21.7614 18.2321C22.0154 18.282 22.2619 18.1165 22.3117 17.8625C22.3334 17.752 22.4313 17.6719 22.5444 17.6719C22.6677 17.6719 22.7693 17.7666 22.7805 17.887L22.7751 17.9293C22.7524 18.0138 22.6961 18.1503 22.5593 18.3458C22.1242 18.9675 21.8647 19.3072 21.7253 19.4897C21.5444 19.7265 21.4249 19.8831 21.5018 20.1332C21.5475 20.2816 21.6638 20.3999 21.8132 20.4497C21.8755 20.4705 21.9199 20.4853 22.4709 20.4853C22.6849 20.4853 22.9754 20.483 23.373 20.478C23.6319 20.4748 23.8391 20.2623 23.8359 20.0034C23.8327 19.7445 23.6214 19.5365 23.3613 19.5405V19.5405Z" fill="#293343"/>
</g>
<defs>
<clipPath id="clip0_218_1633">
<rect width="24" height="24" fill="white"/>
</clipPath>
</defs>
</svg>
