<svg width="28" height="28" viewBox="0 0 28 28" fill="none" xmlns="http://www.w3.org/2000/svg">
<g clip-path="url(#clip0_222_302)">
<path d="M13.9966 0.0532227C6.29613 0.0532227 0.0527344 6.29963 0.0527344 14.003C0.0527344 21.7033 6.29613 27.9467 13.9965 27.9467C21.6999 27.9467 27.9463 21.7033 27.9463 14.003C27.9463 6.29963 21.6999 0.0532227 13.9966 0.0532227ZM13.9966 25.4126C7.7057 25.4126 2.58695 20.2939 2.58695 14.003C2.58695 7.70914 7.7057 2.58744 13.9966 2.58744C20.2904 2.58744 25.4121 7.70914 25.4121 14.003C25.4121 20.2938 20.2904 25.4126 13.9966 25.4126Z" fill="white"/>
<path d="M24.4152 14C24.4152 13.9996 24.4151 13.9993 24.4151 13.999C24.413 8.21616 19.6889 3.58654 14.0006 3.58446C14.0003 3.58446 13.9999 3.58435 13.9996 3.58435C13.9994 3.58435 13.9992 3.58441 13.999 3.58441C13.9982 3.58441 13.9975 3.58435 13.9967 3.58435C8.2934 3.58435 3.58623 8.2271 3.58409 13.999C3.58409 13.9993 3.58398 13.9996 3.58398 14C3.58398 14.0002 3.58404 14.0003 3.58404 14.0006C3.58404 14.0013 3.58398 14.0021 3.58398 14.0029C3.58398 15.8328 4.0672 17.6321 4.98136 19.2064C4.98158 19.2068 4.98169 19.2071 4.98191 19.2075C5.15641 19.4217 5.34027 19.5108 5.58522 19.3726C5.64226 19.3404 6.85457 18.6417 6.82422 18.6585C7.03723 18.5356 7.11023 18.2634 6.98735 18.0506C6.86463 17.8377 6.59223 17.765 6.37939 17.8874L5.54218 18.3705C4.91234 17.1574 4.55266 15.8169 4.48879 14.4451H5.45353C5.69941 14.4451 5.89863 14.2458 5.89863 14C5.89863 13.7541 5.69941 13.5549 5.45353 13.5549H4.48556C4.55113 12.1456 4.92536 10.8166 5.53999 9.63109L6.37939 10.1154C6.59092 10.2376 6.86365 10.1666 6.98735 9.95227C7.11023 9.73943 7.03717 9.46719 6.82422 9.34431L5.98624 8.86082C6.72682 7.7097 7.70759 6.72844 8.85799 5.98743L9.34099 6.82464C9.46453 7.03869 9.73709 7.11016 9.94895 6.98777C10.162 6.86489 10.235 6.59266 10.1121 6.37981L9.62799 5.5408C10.8141 4.92518 12.1442 4.55073 13.5544 4.48587V5.45395C13.5544 5.69983 13.7536 5.89905 13.9995 5.89905C14.2454 5.89905 14.4446 5.69983 14.4446 5.45395V4.48598C15.8537 4.55155 17.1827 4.926 18.368 5.54091L17.884 6.37981C17.7611 6.59266 17.8342 6.86489 18.0471 6.98777C18.2587 7.10994 18.5314 7.03896 18.6551 6.82464L19.1382 5.98732C20.2895 6.72844 21.271 7.70992 22.0121 8.8612L21.1748 9.34431C20.9618 9.46719 20.8888 9.73943 21.0116 9.95227C21.1352 10.1663 21.4077 10.2378 21.6196 10.1154L22.4585 9.63137C23.0734 10.8168 23.4479 12.1457 23.5134 13.5548H22.5455C22.2996 13.5548 22.1004 13.754 22.1004 13.9999C22.1004 14.2458 22.2996 14.445 22.5455 14.445H23.5102C23.4463 15.8169 23.0866 17.1574 22.4568 18.3704L21.6196 17.8874C21.407 17.7649 21.1346 17.8377 21.0116 18.0505C20.8888 18.2633 20.9618 18.5356 21.1748 18.6585L22.4091 19.3706C22.6137 19.4887 22.8949 19.4237 23.0176 19.2063C23.9318 17.632 24.415 15.8328 24.415 14.0028C24.415 14.002 24.4149 14.0013 24.4149 14.0005C24.4152 14.0004 24.4152 14.0002 24.4152 14Z" fill="white"/>
<path d="M19.4237 10.5911L15.0574 12.9287C14.785 12.6597 14.4114 12.4927 13.9992 12.4927C13.1682 12.4927 12.4922 13.169 12.4922 14.0003C12.4922 14.8313 13.1682 15.5073 13.9992 15.5073C14.8305 15.5073 15.5068 14.8313 15.5068 14.0003C15.5068 13.9021 15.4958 13.8065 15.4778 13.7134L19.8439 11.3759C20.0607 11.2598 20.1422 10.9902 20.0262 10.7734C19.9104 10.5568 19.6412 10.4751 19.4237 10.5911Z" fill="white"/>
<path d="M17.4856 19.766H10.5132C10.157 19.766 9.86816 20.0548 9.86816 20.411V21.6908C9.86816 22.047 10.157 22.3358 10.5132 22.3358H17.4856C17.8418 22.3358 18.1306 22.047 18.1306 21.6908V20.411C18.1306 20.0547 17.8419 19.766 17.4856 19.766Z" fill="white"/>
</g>
<defs>
<clipPath id="clip0_222_302">
<rect width="28" height="28" fill="white"/>
</clipPath>
</defs>
</svg>
