<svg width="48" height="49" viewBox="0 0 48 49" fill="none" xmlns="http://www.w3.org/2000/svg">
<g opacity="0.1" clip-path="url(#clip0_702_2572)">
<path d="M44.4295 19.4259C44.8703 21.1384 45.1879 22.9127 45.1879 24.7007C45.1879 36.3325 35.6322 45.8882 24.0004 45.8882C17.2347 45.8882 10.8088 42.6152 6.83684 37.357H9.84416V34.5445H3.1205L1.44922 41.2352L4.17659 41.9163L4.81972 39.3471C9.32966 45.1251 16.4763 48.7007 24.0004 48.7007C37.1826 48.7007 48.0004 37.8829 48.0004 24.7007C48.0004 22.6765 47.654 20.666 47.1541 18.7256L44.4295 19.4259Z" fill="#4A4F52"/>
<path d="M0.752531 30.6758L3.47719 29.9754C3.03638 28.263 2.8125 26.4887 2.8125 24.7007C2.8125 13.0689 12.3683 3.51318 24 3.51318C30.7616 3.51318 37.0785 6.79209 41.051 12.0444H38.0625V14.8569H44.7862L46.4574 8.16628L43.7301 7.48509L43.0856 10.0597C38.576 4.28034 31.5251 0.700684 24 0.700684C10.8178 0.700684 0 11.5185 0 24.7007C0 26.7249 0.252656 28.7354 0.752531 30.6758Z" fill="#4A4F52"/>
<path d="M24 33.6069C18.5719 33.6069 14.1562 32.3413 14.1562 30.7944V33.1382C14.1562 36.0631 19.1062 37.3569 24 37.3569C28.8938 37.3569 33.8438 36.0631 33.8438 33.1382V30.7944C33.8438 32.3413 29.4281 33.6069 24 33.6069Z" fill="#4A4F52"/>
<path d="M33.8438 24.2319C33.8438 25.7788 29.4281 27.0444 24 27.0444C18.5719 27.0444 14.1562 25.7788 14.1562 24.2319V27.9819C14.1562 29.5288 18.5719 30.7944 24 30.7944C29.4281 30.7944 33.8438 29.5288 33.8438 27.9819V24.2319Z" fill="#4A4F52"/>
<path d="M33.8438 17.6694C33.8438 19.2163 29.4281 20.4819 24 20.4819C18.5719 20.4819 14.1562 19.2163 14.1562 17.6694V21.4194C14.1562 22.9663 18.5719 24.2319 24 24.2319C29.4281 24.2319 33.8438 22.9663 33.8438 21.4194V17.6694Z" fill="#4A4F52"/>
<path d="M24 17.6694C29.4366 17.6694 33.8438 16.4102 33.8438 14.8569C33.8438 13.3036 29.4366 12.0444 24 12.0444C18.5634 12.0444 14.1562 13.3036 14.1562 14.8569C14.1562 16.4102 18.5634 17.6694 24 17.6694Z" fill="#4A4F52"/>
</g>
<defs>
<clipPath id="clip0_702_2572">
<rect width="48" height="48" fill="white" transform="translate(0 0.700684)"/>
</clipPath>
</defs>
</svg>
