<svg width="48" height="48" viewBox="0 0 48 48" fill="none" xmlns="http://www.w3.org/2000/svg">
<circle cx="24" cy="24" r="23" fill="#FF7020" stroke="white" stroke-width="2"/>
<g clip-path="url(#clip0_702_2583)">
<path d="M35.9175 20.6237C36.1747 21.6227 36.3599 22.6577 36.3599 23.7007C36.3599 30.4859 30.7857 36.0601 24.0006 36.0601C20.0539 36.0601 16.3054 34.1508 13.9885 31.0835H15.7427V29.4429H11.8206L10.8457 33.3458L12.4367 33.7431L12.8118 32.2444C15.4426 35.6149 19.6115 37.7007 24.0006 37.7007C31.6902 37.7007 38.0006 31.3903 38.0006 23.7007C38.0006 22.5199 37.7985 21.3471 37.5069 20.2152L35.9175 20.6237Z" fill="white"/>
<path d="M10.439 27.1862L12.0284 26.7776C11.7712 25.7787 11.6406 24.7437 11.6406 23.7007C11.6406 16.9155 17.2148 11.3413 24 11.3413C27.9443 11.3413 31.6291 13.254 33.9464 16.3179H32.2031V17.9585H36.1253L37.1002 14.0556L35.5092 13.6583L35.1333 15.1601C32.5026 11.7888 28.3897 9.70068 24 9.70068C16.3104 9.70068 10 16.0111 10 23.7007C10 24.8815 10.1474 26.0543 10.439 27.1862Z" fill="white"/>
<path d="M24 28.896C20.8336 28.896 18.2578 28.1577 18.2578 27.2554V28.6226C18.2578 30.3288 21.1453 31.0835 24 31.0835C26.8547 31.0835 29.7422 30.3288 29.7422 28.6226V27.2554C29.7422 28.1577 27.1664 28.896 24 28.896Z" fill="white"/>
<path d="M29.7422 23.4272C29.7422 24.3296 27.1664 25.0679 24 25.0679C20.8336 25.0679 18.2578 24.3296 18.2578 23.4272V25.6147C18.2578 26.5171 20.8336 27.2554 24 27.2554C27.1664 27.2554 29.7422 26.5171 29.7422 25.6147V23.4272Z" fill="white"/>
<path d="M29.7422 19.5991C29.7422 20.5015 27.1664 21.2397 24 21.2397C20.8336 21.2397 18.2578 20.5015 18.2578 19.5991V21.7866C18.2578 22.689 20.8336 23.4272 24 23.4272C27.1664 23.4272 29.7422 22.689 29.7422 21.7866V19.5991Z" fill="white"/>
<path d="M24 19.5991C27.1713 19.5991 29.7422 18.8646 29.7422 17.9585C29.7422 17.0524 27.1713 16.3179 24 16.3179C20.8287 16.3179 18.2578 17.0524 18.2578 17.9585C18.2578 18.8646 20.8287 19.5991 24 19.5991Z" fill="white"/>
</g>
<defs>
<clipPath id="clip0_702_2583">
<rect width="28" height="28" fill="white" transform="translate(10 9.70068)"/>
</clipPath>
</defs>
</svg>
