<svg width="48" height="49" viewBox="0 0 48 49" fill="none" xmlns="http://www.w3.org/2000/svg">
<g opacity="0.1" clip-path="url(#clip0_663_1927)">
<path d="M21.1875 48.2993C20.3464 48.2993 19.6875 47.6404 19.6875 46.7993V43.1431C19.6875 42.5602 19.3157 42.0653 18.7403 41.8823C17.6117 41.5599 16.4415 41.0748 15.2648 40.4411C15.0773 40.3425 14.8649 40.2902 14.6512 40.2902C14.2985 40.2902 13.9665 40.428 13.7163 40.6781L11.1289 43.2656C10.8527 43.5418 10.4796 43.6938 10.0781 43.6938C9.67678 43.6938 9.30356 43.5418 9.02747 43.2656L5.03372 39.2718C4.75753 38.9958 4.60547 38.6225 4.60547 38.2212C4.60547 37.8198 4.75753 37.4466 5.03372 37.1704L7.62122 34.583C8.03344 34.1706 8.12841 33.5479 7.85756 33.0335C7.22456 31.8578 6.73941 30.6877 6.41616 29.5563C6.22838 28.9929 5.72147 28.6118 5.15625 28.6118H1.5C0.658875 28.6118 0 27.9529 0 27.1118V21.4868C0 20.6457 0.658875 19.9868 1.5 19.9868H5.15625C5.73909 19.9868 6.234 19.615 6.417 19.0397C6.73931 17.9113 7.22447 16.741 7.85803 15.5642C8.1285 15.0505 8.03353 14.4278 7.62131 14.0156L5.03381 11.428C4.75763 11.1518 4.60556 10.7787 4.60556 10.3773C4.60556 9.976 4.75763 9.60288 5.03381 9.32679L9.02756 5.33285C9.30366 5.05666 9.67688 4.9046 10.0782 4.9046C10.4797 4.9046 10.8528 5.05666 11.129 5.33285L13.7164 7.92054C13.9665 8.17066 14.2985 8.30838 14.6512 8.30838C14.8649 8.30838 15.0774 8.25597 15.2658 8.15688C16.4416 7.52369 17.6118 7.03844 18.7432 6.71528C19.3064 6.52741 19.6875 6.0206 19.6875 5.45557V1.79932C19.6875 0.958191 20.3464 0.299316 21.1875 0.299316H26.8125C27.6536 0.299316 28.3125 0.958191 28.3125 1.79932V5.45557C28.3125 6.03822 28.6843 6.53313 29.2597 6.71613C30.3883 7.03854 31.5585 7.52369 32.7352 8.15735C32.9227 8.25607 33.1352 8.30847 33.3489 8.30847C33.7016 8.30847 34.0336 8.17066 34.2837 7.92063L36.8711 5.33294C37.1473 5.05675 37.5204 4.90469 37.9219 4.90469C38.3232 4.90469 38.6964 5.05675 38.9725 5.33294L42.9663 9.32688C43.2425 9.60297 43.3945 9.9761 43.3945 10.3774C43.3945 10.7788 43.2425 11.1519 42.9663 11.4281L40.3788 14.0157C39.9666 14.4279 39.8716 15.0506 40.1424 15.565C40.7756 16.7411 41.2607 17.9113 41.5838 19.0424C41.7717 19.6057 42.2786 19.9868 42.8438 19.9868H46.5C47.3411 19.9868 48 20.6457 48 21.4868V27.1118C48 27.9529 47.3411 28.6118 46.5 28.6118H42.8438C42.2609 28.6118 41.766 28.9836 41.583 29.559C41.2605 30.6876 40.7754 31.8578 40.142 33.0343C39.8715 33.5479 39.9665 34.1706 40.3787 34.583L42.9662 37.1704C43.2424 37.4466 43.3944 37.8198 43.3944 38.2212C43.3944 38.6225 43.2424 38.9958 42.9662 39.2718L38.9724 43.2656C38.6963 43.5418 38.3231 43.6938 37.9218 43.6938C37.5203 43.6938 37.1472 43.5418 36.871 43.2656L34.2836 40.6781C34.0335 40.428 33.7014 40.2902 33.3487 40.2902C33.135 40.2902 32.9225 40.3426 32.7342 40.4416C31.5584 41.0748 30.3882 41.5599 29.2568 41.8832C28.6936 42.071 28.3125 42.5779 28.3125 43.1431V46.7993C28.3125 47.6404 27.6536 48.2993 26.8125 48.2993H21.1875ZM24 11.7368C17.073 11.7368 11.4375 17.3723 11.4375 24.2993C11.4375 31.2263 17.073 36.8618 24 36.8618C30.927 36.8618 36.5625 31.2263 36.5625 24.2993C36.5625 17.3723 30.927 11.7368 24 11.7368Z" fill="#4A4F52"/>
<path d="M27.2246 20.4926L22.5938 25.1233L20.7755 23.305C20.2262 22.7557 19.3362 22.7557 18.787 23.305C18.2377 23.8543 18.2377 24.7443 18.787 25.2935L21.5995 28.106C22.1487 28.6553 23.0386 28.6554 23.588 28.106L29.213 22.481C29.7623 21.9318 29.7623 21.0418 29.213 20.4925C28.6637 19.9432 27.7738 19.9432 27.2246 20.4926Z" fill="#4A4F52"/>
</g>
<defs>
<clipPath id="clip0_663_1927">
<rect width="48" height="48" fill="white" transform="translate(0 0.299316)"/>
</clipPath>
</defs>
</svg>
