<svg width="28" height="28" viewBox="0 0 28 28" fill="none" xmlns="http://www.w3.org/2000/svg">
<path d="M12.3594 28C11.8687 28 11.4844 27.6157 11.4844 27.125V24.9922C11.4844 24.6522 11.2675 24.3635 10.9319 24.2568C10.2735 24.0687 9.59087 23.7857 8.90449 23.416C8.79512 23.3585 8.6712 23.328 8.54656 23.328C8.34077 23.328 8.14713 23.4084 8.00116 23.5543L6.49184 25.0637C6.33073 25.2248 6.11308 25.3135 5.87891 25.3135C5.64479 25.3135 5.42708 25.2248 5.26602 25.0637L2.93634 22.734C2.77523 22.5729 2.68652 22.3552 2.68652 22.1211C2.68652 21.8869 2.77523 21.6693 2.93634 21.5082L4.44571 19.9988C4.68617 19.7583 4.74157 19.395 4.58358 19.095C4.21433 18.4091 3.93132 17.7266 3.74276 17.0666C3.63322 16.7379 3.33752 16.5156 3.00781 16.5156H0.875C0.384344 16.5156 0 16.1313 0 15.6406V12.3594C0 11.8687 0.384344 11.4844 0.875 11.4844H3.00781C3.3478 11.4844 3.6365 11.2675 3.74325 10.9319C3.93127 10.2736 4.21427 9.59098 4.58385 8.90449C4.74162 8.60486 4.68623 8.24163 4.44577 8.00116L2.93639 6.49173C2.77528 6.33063 2.68658 6.11297 2.68658 5.87885C2.68658 5.64473 2.77528 5.42708 2.93639 5.26602L5.26608 2.93623C5.42713 2.77512 5.64484 2.68641 5.87896 2.68641C6.11313 2.68641 6.33079 2.77512 6.4919 2.93623L8.00122 4.44571C8.14713 4.59162 8.34077 4.67195 8.54651 4.67195C8.6712 4.67195 8.79517 4.64138 8.90504 4.58358C9.59093 4.21422 10.2735 3.93116 10.9335 3.74265C11.2621 3.63305 11.4844 3.33741 11.4844 3.00781V0.875C11.4844 0.384344 11.8687 0 12.3594 0H15.6406C16.1313 0 16.5156 0.384344 16.5156 0.875V3.00781C16.5156 3.3477 16.7325 3.63639 17.0681 3.74314C17.7265 3.93121 18.4091 4.21422 19.0955 4.58385C19.2049 4.64144 19.3289 4.67201 19.4535 4.67201C19.6593 4.67201 19.8529 4.59162 19.9988 4.44577L21.5082 2.93628C21.6693 2.77517 21.8869 2.68647 22.1211 2.68647C22.3552 2.68647 22.5729 2.77517 22.734 2.93628L25.0637 5.26608C25.2248 5.42713 25.3135 5.64479 25.3135 5.87891C25.3135 6.11302 25.2248 6.33068 25.0637 6.49179L23.5543 8.00122C23.3138 8.24168 23.2584 8.60491 23.4164 8.90498C23.7858 9.59104 24.0687 10.2736 24.2572 10.9335C24.3668 11.2621 24.6625 11.4844 24.9922 11.4844H27.125C27.6157 11.4844 28 11.8687 28 12.3594V15.6406C28 16.1313 27.6157 16.5156 27.125 16.5156H24.9922C24.6522 16.5156 24.3635 16.7325 24.2568 17.0681C24.0686 17.7265 23.7857 18.4091 23.4161 19.0954C23.2584 19.395 23.3138 19.7583 23.5542 19.9988L25.0636 21.5082C25.2247 21.6693 25.3134 21.8869 25.3134 22.1211C25.3134 22.3552 25.2247 22.5729 25.0636 22.734L22.7339 25.0637C22.5729 25.2248 22.3552 25.3135 22.121 25.3135C21.8869 25.3135 21.6692 25.2248 21.5081 25.0637L19.9988 23.5543C19.8529 23.4084 19.6592 23.328 19.4534 23.328C19.3288 23.328 19.2048 23.3586 19.095 23.4163C18.4091 23.7857 17.7265 24.0687 17.0665 24.2572C16.7379 24.3668 16.5156 24.6625 16.5156 24.9922V27.125C16.5156 27.6157 16.1313 28 15.6406 28H12.3594ZM14 6.67188C9.95925 6.67188 6.67188 9.95925 6.67188 14C6.67188 18.0408 9.95925 21.3281 14 21.3281C18.0408 21.3281 21.3281 18.0408 21.3281 14C21.3281 9.95925 18.0408 6.67188 14 6.67188Z" fill="white"/>
<path d="M15.881 11.7794L13.1797 14.4807L12.119 13.42C11.7986 13.0996 11.2795 13.0996 10.9591 13.42C10.6386 13.7404 10.6386 14.2596 10.9591 14.58L12.5997 16.2206C12.9201 16.541 13.4392 16.5411 13.7597 16.2206L17.0409 12.9393C17.3613 12.6189 17.3613 12.0998 17.0409 11.7794C16.7205 11.459 16.2014 11.459 15.881 11.7794Z" fill="white"/>
</svg>
