<svg width="28" height="28" viewBox="0 0 28 28" fill="none" xmlns="http://www.w3.org/2000/svg">
<g clip-path="url(#clip0_74_1215)">
<path d="M6.27539 7.8512H10.5527V9.64709H6.27539V7.8512Z" fill="white"/>
<path d="M6.27539 11.9349H10.5527V13.7308H6.27539V11.9349Z" fill="white"/>
<path d="M6.27539 16.0186H10.5527V17.8145H6.27539V16.0186Z" fill="white"/>
<path d="M6.27539 20.1024H10.5527V21.8983H6.27539V20.1024Z" fill="white"/>
<path d="M14.925 24.2896V9.6155L24.3026 9.60456V19.5038H26.0974V8.70556C26.0974 8.21568 25.6881 7.80759 25.1989 7.80759L14.0264 7.82063C13.5312 7.82123 13.1301 8.22304 13.1301 8.71861V24.2896H3.69744V6.52061L13.1301 3.98308V6.02175H14.925V2.8118C14.925 2.23086 14.3559 1.79363 13.7945 1.94464L2.56697 4.96499C2.17503 5.07047 1.90256 5.42603 1.90256 5.83215V24.2896H0V26.0855H28V24.2896H14.925Z" fill="white"/>
<path d="M24.3027 21.1202H26.0976V22.7931H24.3027V21.1202Z" fill="white"/>
<path d="M17.4473 11.9349H21.7246V13.7308H17.4473V11.9349Z" fill="white"/>
<path d="M17.4473 16.0186H21.7246V17.8145H17.4473V16.0186Z" fill="white"/>
<path d="M17.4473 20.1024H21.7246V21.8982H17.4473V20.1024Z" fill="white"/>
</g>
<defs>
<clipPath id="clip0_74_1215">
<rect width="28" height="28" fill="white"/>
</clipPath>
</defs>
</svg>