<svg width="88" height="96" viewBox="0 0 88 96" fill="none" xmlns="http://www.w3.org/2000/svg">
<g filter="url(#filter0_dd_124_3525)">
<circle cx="44" cy="48" r="24" fill="#29AA08"/>
<circle cx="44" cy="48" r="23" stroke="white" stroke-width="2"/>
</g>
<g clip-path="url(#clip0_124_3525)">
<path d="M43.9971 34.0532C36.2966 34.0532 30.0532 40.2996 30.0532 48.003C30.0532 55.7033 36.2966 61.9467 43.997 61.9467C51.7004 61.9467 57.9467 55.7033 57.9467 48.003C57.9468 40.2996 51.7004 34.0532 43.9971 34.0532ZM43.9971 59.4126C37.7062 59.4126 32.5874 54.2939 32.5874 48.003C32.5874 41.7091 37.7062 36.5874 43.9971 36.5874C50.2909 36.5874 55.4126 41.7091 55.4126 48.003C55.4126 54.2938 50.2909 59.4126 43.9971 59.4126Z" fill="white"/>
<path d="M54.4157 48C54.4157 47.9997 54.4156 47.9994 54.4156 47.999C54.4135 42.2162 49.6893 37.5866 44.0011 37.5845C44.0007 37.5845 44.0004 37.5844 44.0001 37.5844C43.9999 37.5844 43.9997 37.5845 43.9995 37.5845C43.9987 37.5845 43.998 37.5844 43.9972 37.5844C38.2939 37.5844 33.5867 42.2272 33.5846 47.999C33.5846 47.9994 33.5845 47.9997 33.5845 48C33.5845 48.0002 33.5845 48.0004 33.5845 48.0006C33.5845 48.0014 33.5845 48.0022 33.5845 48.0029C33.5845 49.8329 34.0677 51.6322 34.9818 53.2064C34.9821 53.2068 34.9822 53.2072 34.9824 53.2076C35.1569 53.4218 35.3408 53.5109 35.5857 53.3726C35.6427 53.3404 36.8551 52.6417 36.8247 52.6586C37.0377 52.5357 37.1107 52.2635 36.9878 52.0506C36.8651 51.8378 36.5927 51.765 36.3799 51.8875L35.5427 52.3705C34.9128 51.1575 34.5532 49.817 34.4893 48.4451H35.454C35.6999 48.4451 35.8991 48.2459 35.8991 48C35.8991 47.7542 35.6999 47.5549 35.454 47.5549H34.4861C34.5516 46.1457 34.9258 44.8166 35.5405 43.6312L36.3799 44.1155C36.5914 44.2376 36.8641 44.1667 36.9878 43.9523C37.1107 43.7395 37.0377 43.4673 36.8247 43.3444L35.9867 42.8609C36.7273 41.7098 37.7081 40.7285 38.8585 39.9875L39.3415 40.8247C39.465 41.0387 39.7376 41.1102 39.9494 40.9878C40.1624 40.865 40.2355 40.5927 40.1126 40.3799L39.6285 39.5409C40.8146 38.9252 42.1447 38.5508 43.5549 38.4859V39.454C43.5549 39.6999 43.7541 39.8991 44 39.8991C44.2459 39.8991 44.4451 39.6999 44.4451 39.454V38.486C45.8542 38.5516 47.1832 38.9261 48.3685 39.541L47.8845 40.3799C47.7616 40.5927 47.8347 40.865 48.0476 40.9878C48.2592 41.11 48.5319 41.039 48.6556 40.8247L49.1387 39.9874C50.29 40.7285 51.2715 41.71 52.0126 42.8613L51.1753 43.3444C50.9622 43.4673 50.8892 43.7395 51.0121 43.9523C51.1357 44.1664 51.4082 44.2379 51.6201 44.1155L52.459 43.6314C53.0738 44.8168 53.4483 46.1458 53.5139 47.5549H52.5459C52.3001 47.5549 52.1008 47.7541 52.1008 48C52.1008 48.2458 52.3001 48.4451 52.5459 48.4451H53.5107C53.4468 49.8169 53.0871 51.1574 52.4573 52.3705L51.6201 51.8874C51.4075 51.765 51.1351 51.8377 51.0121 52.0506C50.8892 52.2634 50.9623 52.5356 51.1753 52.6585L52.4096 53.3707C52.6142 53.4888 52.8953 53.4238 53.0181 53.2064C53.9323 51.6321 54.4155 49.8328 54.4155 48.0029C54.4155 48.0021 54.4154 48.0013 54.4154 48.0006C54.4157 48.0004 54.4157 48.0002 54.4157 48Z" fill="white"/>
<path d="M49.4242 44.5911L45.0579 46.9287C44.7854 46.6597 44.4119 46.4927 43.9997 46.4927C43.1687 46.4927 42.4927 47.169 42.4927 48.0003C42.4927 48.8313 43.1687 49.5073 43.9997 49.5073C44.8309 49.5073 45.5073 48.8313 45.5073 48.0003C45.5073 47.9021 45.4963 47.8065 45.4783 47.7134L49.8444 45.3759C50.0612 45.2598 50.1427 44.9902 50.0266 44.7734C49.9109 44.5568 49.6416 44.4751 49.4242 44.5911Z" fill="white"/>
<path d="M47.4861 53.766H40.5137C40.1575 53.766 39.8687 54.0548 39.8687 54.411V55.6908C39.8687 56.047 40.1575 56.3358 40.5137 56.3358H47.4861C47.8423 56.3358 48.1311 56.047 48.1311 55.6908V54.411C48.1311 54.0547 47.8424 53.766 47.4861 53.766Z" fill="white"/>
</g>
<defs>
<filter id="filter0_dd_124_3525" x="0" y="0" width="88" height="96" filterUnits="userSpaceOnUse" color-interpolation-filters="sRGB">
<feFlood flood-opacity="0" result="BackgroundImageFix"/>
<feColorMatrix in="SourceAlpha" type="matrix" values="0 0 0 0 0 0 0 0 0 0 0 0 0 0 0 0 0 0 127 0" result="hardAlpha"/>
<feOffset dy="-4"/>
<feGaussianBlur stdDeviation="10"/>
<feComposite in2="hardAlpha" operator="out"/>
<feColorMatrix type="matrix" values="0 0 0 0 0.466667 0 0 0 0 0.466667 0 0 0 0 0.466667 0 0 0 0.1 0"/>
<feBlend mode="normal" in2="BackgroundImageFix" result="effect1_dropShadow_124_3525"/>
<feColorMatrix in="SourceAlpha" type="matrix" values="0 0 0 0 0 0 0 0 0 0 0 0 0 0 0 0 0 0 127 0" result="hardAlpha"/>
<feOffset dy="4"/>
<feGaussianBlur stdDeviation="10"/>
<feComposite in2="hardAlpha" operator="out"/>
<feColorMatrix type="matrix" values="0 0 0 0 0.466667 0 0 0 0 0.466667 0 0 0 0 0.466667 0 0 0 0.1 0"/>
<feBlend mode="normal" in2="effect1_dropShadow_124_3525" result="effect2_dropShadow_124_3525"/>
<feBlend mode="normal" in="SourceGraphic" in2="effect2_dropShadow_124_3525" result="shape"/>
</filter>
<clipPath id="clip0_124_3525">
<rect width="28" height="28" fill="white" transform="translate(30 34)"/>
</clipPath>
</defs>
</svg>
