<svg width="104" height="104" viewBox="0 0 104 104" fill="none" xmlns="http://www.w3.org/2000/svg">
<g clip-path="url(#clip0_814_7076)">
<path d="M55.0097 7.8581L56.6344 2.79431C57.7365 -0.6448 62.8159 0.161038 62.8003 3.77172L62.7795 9.09025C62.7691 12.1628 66.7047 13.4418 68.501 10.9489L71.61 6.63634C73.7207 3.70673 78.301 6.04106 77.1728 9.46978L75.5118 14.5206C74.5526 17.4398 77.9007 19.8729 80.378 18.0559L84.6671 14.9131C87.5812 12.7789 91.2152 16.4156 89.0811 19.327L85.9383 23.6161C84.1238 26.096 86.557 29.4442 89.4736 28.4824L94.5244 26.8213C97.9557 25.6931 100.287 30.2734 97.3578 32.3842L93.0453 35.4932C90.5524 37.2894 91.8313 41.2276 94.9039 41.2146L100.222 41.1938C103.833 41.1808 104.639 46.2576 101.2 47.3598L96.136 48.9845C93.2116 49.9229 93.2116 54.0613 96.136 54.9997L101.2 56.6243C104.639 57.7265 103.833 62.8059 100.222 62.7903L94.9039 62.7695C91.8313 62.7591 90.5524 66.6947 93.0453 68.491L97.3578 71.5999C100.287 73.7107 97.9531 78.291 94.5244 77.1628L89.4736 75.5018C86.5544 74.5426 84.1212 77.8907 85.9383 80.368L89.0811 84.6571C91.2152 87.5711 87.5786 91.2052 84.6671 89.071L80.378 85.9283C77.8981 84.1138 74.55 86.547 75.5118 89.4636L77.1728 94.5144C78.301 97.9457 73.7207 100.277 71.61 97.3478L68.501 93.0353C66.7047 90.5423 62.7665 91.8213 62.7795 94.8939L62.8003 100.212C62.8133 103.823 57.7365 104.629 56.6344 101.19L55.0097 96.126C54.0713 93.2016 49.9329 93.2016 48.9945 96.126L47.3698 101.19C46.2676 104.629 41.1882 103.823 41.2038 100.212L41.2246 94.8939C41.235 91.8213 37.2994 90.5423 35.5032 93.0353L32.3942 97.3478C30.2834 100.277 25.7031 97.9431 26.8313 94.5144L28.4924 89.4636C29.4516 86.5444 26.1035 84.1112 23.6262 85.9283L19.337 89.071C16.423 91.2052 12.7889 87.5685 14.9231 84.6571L18.0659 80.368C19.8803 77.8881 17.4472 74.54 14.5306 75.5018L9.47979 77.1628C6.04847 78.291 3.71674 73.7107 6.64635 71.5999L10.9589 68.491C13.4518 66.6947 12.1728 62.7565 9.10026 62.7695L3.78173 62.7903C0.171048 62.8033 -0.634791 57.7265 2.80432 56.6243L7.86811 54.9997C10.7925 54.0613 10.7925 49.9229 7.86811 48.9845L2.80432 47.3598C-0.634791 46.2576 0.171048 41.1782 3.78173 41.1938L9.10026 41.2146C12.1728 41.225 13.4518 37.2894 10.9589 35.4932L6.64635 32.3842C3.71674 30.2734 6.05107 25.6931 9.47979 26.8213L14.5306 28.4824C17.4498 29.4416 19.8829 26.0934 18.0659 23.6161L14.9231 19.327C12.7889 16.413 16.4256 12.7789 19.337 14.9131L23.6262 18.0559C26.1061 19.8703 29.4542 17.4372 28.4924 14.5206L26.8313 9.46978C25.7031 6.03846 30.2834 3.70673 32.3942 6.63634L35.5032 10.9489C37.2994 13.4418 41.2376 12.1628 41.2246 9.09025L41.2038 3.77172C41.1908 0.161038 46.2676 -0.6448 47.3698 2.79431L48.9945 7.8581C49.9329 10.7825 54.0713 10.7825 55.0097 7.8581V7.8581Z" fill="#13304E"/>
<path d="M22.9164 18.6615L20.4833 13.9331C18.8326 10.7227 22.9917 7.6995 25.534 10.2626L29.2799 14.037C31.4453 16.218 35.1313 14.3386 34.64 11.305L33.7874 6.05663C33.2103 2.49274 38.0973 0.904457 39.7246 4.12781L42.1213 8.87446C43.5068 11.6169 47.5932 10.9696 48.0637 7.93345L48.8748 2.6773C49.4259 -0.891783 54.5676 -0.891783 55.1187 2.6773L55.9298 7.93345C56.4003 10.9696 60.4866 11.6169 61.8722 8.87446L64.2689 4.12781C65.8962 0.904457 70.7858 2.49274 70.2061 6.05663L69.3535 11.305C68.8622 14.3386 72.5508 16.218 74.7136 14.037L78.4595 10.2626C81.0043 7.6995 85.1635 10.7201 83.5102 13.9331L81.0771 18.6615C79.6708 21.3936 82.5978 24.3206 85.3299 22.9143L90.0583 20.4811C93.2687 18.8305 96.2919 22.9896 93.7288 25.5319L89.9544 29.2778C87.7734 31.4431 89.6528 35.1292 92.6864 34.6379L97.9348 33.7853C101.499 33.2082 103.087 38.0952 99.8636 39.7225L95.1169 42.1192C92.3745 43.5047 93.0217 47.5911 96.0579 48.0616L101.314 48.8727C104.883 49.4238 104.883 54.5655 101.314 55.1166L96.0579 55.9277C93.0217 56.3982 92.3745 60.4845 95.1169 61.8701L99.8636 64.2668C103.087 65.8941 101.499 70.7837 97.9348 70.204L92.6864 69.3514C89.6528 68.8601 87.7734 72.5487 89.9544 74.7115L93.7288 78.4573C96.2919 81.0022 93.2713 85.1614 90.0583 83.5081L85.3299 81.075C82.5978 79.6687 79.6708 82.5957 81.0771 85.3278L83.5102 90.0562C85.1609 93.2666 81.0017 96.2898 78.4595 93.7267L74.7136 89.9523C72.5482 87.7713 68.8622 89.6507 69.3535 92.6843L70.2061 97.9327C70.7832 101.497 65.8962 103.085 64.2689 99.8615L61.8722 95.1148C60.4866 92.3724 56.4003 93.0196 55.9298 96.0558L55.1187 101.312C54.5676 104.881 49.4259 104.881 48.8748 101.312L48.0637 96.0558C47.5958 93.0196 43.5068 92.3724 42.1213 95.1148L39.7246 99.8615C38.0973 103.085 33.2077 101.497 33.7874 97.9327L34.64 92.6843C35.1313 89.6507 31.4427 87.7713 29.2799 89.9523L25.534 93.7267C22.9892 96.2898 18.83 93.2692 20.4833 90.0562L22.9164 85.3278C24.3227 82.5957 21.3957 79.6687 18.661 81.075L13.9326 83.5081C10.7222 85.1588 7.69901 80.9996 10.2621 78.4573L14.0365 74.7115C16.2175 72.5461 14.3381 68.8601 11.3045 69.3514L6.05614 70.204C2.49225 70.7811 0.903969 65.8941 4.12732 64.2668L8.87397 61.8701C11.6164 60.4845 10.9692 56.3982 7.93296 55.9277L2.67681 55.1166C-0.892271 54.5655 -0.892271 49.4238 2.67681 48.8727L7.93296 48.0616C10.9692 47.5937 11.6164 43.5047 8.87397 42.1192L4.12732 39.7225C0.903969 38.0952 2.49225 33.2056 6.05614 33.7853L11.3045 34.6379C14.3381 35.1292 16.2175 31.4405 14.0365 29.2778L10.2621 25.5319C7.69901 22.987 10.7196 18.8279 13.9326 20.4811L18.661 22.9143C21.3931 24.3206 24.3201 21.3936 22.9164 18.6615V18.6615Z" fill="#9FC86A"/>
<path d="M52.0017 101.265C79.2102 101.265 101.267 79.2085 101.267 52C101.267 24.7915 79.2102 2.73462 52.0017 2.73462C24.7932 2.73462 2.73633 24.7915 2.73633 52C2.73633 79.2085 24.7932 101.265 52.0017 101.265Z" fill="#59843D"/>
<path d="M52.7406 97.4101C27.6608 97.8183 7.00014 77.8152 6.59202 52.7381C6.58162 52.0908 6.58422 51.4487 6.60242 50.8092C6.72719 45.8962 7.63701 41.173 9.20969 36.7591C11.0865 31.4951 13.907 26.6731 17.4734 22.5035C20.7098 18.7135 24.5622 15.4615 28.88 12.9036C28.9449 12.8646 29.0099 12.8282 29.0749 12.7893C34.2427 9.75826 40.0707 7.72026 46.2991 6.94042C47.929 6.73506 49.5848 6.61809 51.2667 6.58949C51.8828 6.57909 52.4988 6.58169 53.1097 6.59729C62.3847 6.81824 70.9915 9.82584 78.1063 14.835C86.3389 20.6215 92.5698 29.0854 95.5228 38.9842C96.6458 42.7405 97.2957 46.7073 97.4023 50.8092C97.4074 50.96 97.4101 51.1108 97.4127 51.2616C97.8208 76.3413 77.8178 97.002 52.7406 97.4101V97.4101Z" fill="#13304E"/>
<path d="M95.5222 38.9841C91.7711 38.9191 89.7799 34.747 90.9497 32.839C88.7895 33.0053 87.8771 31.4378 87.8771 31.4378L86.2368 29.0723C83.8245 26.9797 86.45 24.778 86.45 24.778C86.45 24.778 84.2508 24.2555 85.4544 22.3345C82.8367 23.0311 82.3662 20.9047 82.3662 20.9047C82.3662 20.9047 80.3776 21.5858 80.1151 19.7532C77.8639 18.2533 77.8197 16.1815 78.1057 14.835C86.3382 20.6214 92.5692 29.0853 95.5222 38.9841V38.9841Z" fill="#7B8C9D"/>
<path d="M53.109 6.59729C52.1394 8.98101 48.9992 8.26356 48.9992 8.26356C48.9992 8.26356 49.6075 10.2002 47.4135 10.6707C45.3678 11.1126 44.2058 9.38913 44.2058 9.38913C44.2058 9.38913 44.1018 10.6967 42.1132 10.2262C42.8463 11.0632 42.0222 11.7755 42.0222 11.7755L39.3032 12.7269C39.3032 12.7269 38.1334 12.6333 37.9774 11.5857C37.2444 12.7919 36.4074 11.3777 36.4074 11.3777C36.4074 11.3777 32.5913 14.5959 29.0742 12.7893C34.242 9.75826 40.07 7.72026 46.2984 6.94042C47.9282 6.73506 49.5841 6.61809 51.266 6.58949C51.8821 6.57909 52.4981 6.58169 53.109 6.59729V6.59729Z" fill="#7B8C9D"/>
<path d="M17.7905 29.0725C18.1128 30.64 16.1502 31.4381 16.1502 31.4381C16.1502 31.4381 17.0549 33.9466 13.6833 35.1371C14.2786 36.2185 11.3698 38.3215 9.20703 36.7592C11.0839 31.4953 13.9043 26.6732 17.4708 22.5037C18.1596 22.8494 18.8147 23.4993 18.5756 24.6924C20.1612 25.5503 20.1144 27.9678 17.7905 29.0725Z" fill="#7B8C9D"/>
<path d="M52.6439 12.1421H51.5703V14.6116H52.6439V12.1421Z" fill="#FBB62D"/>
<path d="M57.1037 10.6707H55.0137V14.6089H57.1037V10.6707Z" fill="#FBB62D"/>
<path d="M58.6384 14.1462H48.0352V25.246H58.6384V14.1462Z" fill="#FB9129"/>
<path d="M57.1022 15.3057H49.8574V16.0335H57.1022V15.3057Z" fill="#FBB62D"/>
<path d="M57.1022 16.4363H49.8574V17.1641H57.1022V16.4363Z" fill="#FBB62D"/>
<path d="M57.1022 17.5671H49.8574V18.295H57.1022V17.5671Z" fill="#FBB62D"/>
<path d="M57.1022 18.6953H49.8574V19.4232H57.1022V18.6953Z" fill="#FBB62D"/>
<path d="M29.5935 19.7766L28.1248 20.6916L26.9238 18.7602L28.941 18.729L29.5935 19.7766Z" fill="#FBD34C"/>
<path d="M32.0616 18.2405L30.5955 19.1555L29.3945 17.2241L31.4117 17.1929L32.0616 18.2405Z" fill="#FBD34C"/>
<path d="M34.531 16.7041L33.0623 17.6165L31.8613 15.6877L33.8785 15.6565L34.531 16.7041Z" fill="#FBD34C"/>
<path d="M35.1309 15.6965L22.5273 23.5415L30.2034 35.8736L42.8069 28.0286L35.1309 15.6965Z" fill="#FBB62D"/>
<path d="M26.7668 20.9017L22.5273 23.5405L30.2034 35.8726L34.4428 33.2338L26.7668 20.9017Z" fill="#FB9129"/>
<path d="M31.0396 20.3615L29.1328 21.5483L30.1383 23.1638L32.0451 21.9769L31.0396 20.3615Z" fill="#FB9129"/>
<path d="M33.7935 18.6471L31.8867 19.834L32.8922 21.4494L34.799 20.2626L33.7935 18.6471Z" fill="#FB9129"/>
<path d="M32.4849 22.6838L30.5781 23.8706L31.5836 25.486L33.4904 24.2992L32.4849 22.6838Z" fill="#FB9129"/>
<path d="M35.2407 20.9716L33.334 22.1584L34.3395 23.7739L36.2463 22.587L35.2407 20.9716Z" fill="#FB9129"/>
<path d="M33.9302 25.008L32.0234 26.1948L33.029 27.8103L34.9357 26.6234L33.9302 25.008Z" fill="#FB9129"/>
<path d="M36.6841 23.2912L34.7773 24.478L35.7829 26.0935L37.6896 24.9066L36.6841 23.2912Z" fill="#FB9129"/>
<path d="M27.8434 27.531C27.2975 27.8715 27.1311 28.589 27.4717 29.1323L31.2591 35.2176L33.2347 33.9881L29.4473 27.9027C29.1067 27.3568 28.3893 27.1905 27.846 27.531H27.8434Z" fill="#FBD34C"/>
<path d="M38.5696 26.4585L33.9727 29.3198L34.2515 29.7678L38.8485 26.9065L38.5696 26.4585Z" fill="#FBD34C"/>
<path d="M39.1829 27.4487L34.5859 30.3101L34.8648 30.7581L39.4617 27.8967L39.1829 27.4487Z" fill="#FBD34C"/>
<path d="M68.3451 17.9232L65.8262 16.3973L67.833 13.083L69.4343 16.1244L68.3451 17.9232Z" fill="#FB9129"/>
<path d="M72.5833 20.4889L70.0645 18.963L72.0713 15.6487L73.6725 18.6901L72.5833 20.4889Z" fill="#FB9129"/>
<path d="M76.8223 23.0573L74.3008 21.5314L76.3076 18.217L77.9115 21.2584L76.8223 23.0573Z" fill="#FB9129"/>
<path d="M78.0005 23.1316L65.3008 15.4434L57.7781 27.8696L70.4779 35.5578L78.0005 23.1316Z" fill="#FBB62D"/>
<path d="M69.5726 18.0292L65.3008 15.4431L57.7781 27.8694L62.0499 30.4554L69.5726 18.0292Z" fill="#FB9129"/>
<path d="M67.4314 18.5709L65.8125 17.5908L59.9174 27.3286L61.5363 28.3086L67.4314 18.5709Z" fill="#FBB62D"/>
<path d="M74.9758 22.7736L70.3438 19.9695L69.847 20.79L74.479 23.5942L74.9758 22.7736Z" fill="#FBD34C"/>
<path d="M73.884 24.5769L69.252 21.7727L68.7552 22.5933L73.3872 25.3974L73.884 24.5769Z" fill="#FBD34C"/>
<path d="M47.5502 25.1887L43.3469 26.66L41.8132 21.3727L40.8566 18.0791L40.4719 16.756L39.9987 15.1183L39.3047 12.7268L42.0211 11.7754L42.9726 14.0785L43.6224 15.6564L44.1475 16.9276L45.4525 20.0989L47.5502 25.1887Z" fill="#FBD34C"/>
<path d="M43.6217 15.6563L40.4712 16.7558L39.998 15.1182L42.9719 14.0784L43.6217 15.6563Z" fill="#FB9129"/>
<path d="M45.4533 20.0989L41.814 21.3726L40.8574 18.0791L44.1484 16.9275L45.4533 20.0989Z" fill="#FB9129"/>
<path d="M30.1453 36.6835L27.6057 40.3436L23.2593 36.9643L20.5507 34.8587L19.4641 34.0139L18.1176 32.9663L16.1523 31.4378L17.7926 29.0723L19.9138 30.3772L21.3669 31.274L22.5393 31.9967L25.4585 33.7955L30.1453 36.6835Z" fill="#FBD34C"/>
<path d="M26.0095 40.9779L20.8106 39.1296L19.7422 41.6771L24.9697 43.7801" fill="#FBB62D"/>
<path d="M77.4844 40.9779L82.6807 39.1296L83.7517 41.6771L78.5242 43.7801" fill="#FBB62D"/>
<path d="M21.3665 31.274L19.4637 34.0139L18.1172 32.9663L19.9134 30.3772L21.3665 31.274Z" fill="#FB9129"/>
<path d="M25.4586 33.7957L23.2594 36.9644L20.5508 34.8589L22.5394 31.9968L25.4586 33.7957Z" fill="#FB9129"/>
<path d="M73.8848 36.6838L76.4245 40.3439L80.7708 36.9645L83.4794 34.859L84.566 34.0141L85.9126 32.9665L87.8778 31.438L86.2375 29.0725L84.1163 30.3774L82.6632 31.2743L81.4908 31.9969L78.5716 33.7958L73.8848 36.6838Z" fill="#FBD34C"/>
<path d="M72.9199 33.1147L76.7853 29.9277L78.1761 31.4744L74.7604 34.7966" fill="#FBB62D"/>
<path d="M82.6621 31.2743L84.5649 34.0141L85.9115 32.9665L84.1152 30.3774L82.6621 31.2743Z" fill="#FB9129"/>
<path d="M78.5703 33.7959L80.7695 36.9647L83.4781 34.8591L81.4895 31.9971L78.5703 33.7959Z" fill="#FB9129"/>
<path d="M52.7406 97.4102C27.6608 97.8183 7.00014 77.8153 6.59202 52.7381C6.58162 52.0909 6.58422 51.4488 6.60242 50.8093H97.4023C97.4074 50.9601 97.4101 51.1109 97.4127 51.2616C97.8208 76.3414 77.8178 97.0021 52.7406 97.4102V97.4102Z" fill="#9FC86A"/>
<path d="M52.0012 81.665C68.3849 81.665 81.6665 68.3834 81.6665 51.9997C81.6665 35.6161 68.3849 22.3345 52.0012 22.3345C35.6175 22.3345 22.3359 35.6161 22.3359 51.9997C22.3359 68.3834 35.6175 81.665 52.0012 81.665Z" fill="#59843D"/>
<path d="M52.002 77.992C66.3571 77.992 77.9942 66.3549 77.9942 51.9998C77.9942 37.6447 66.3571 26.0076 52.002 26.0076C37.6469 26.0076 26.0098 37.6447 26.0098 51.9998C26.0098 66.3549 37.6469 77.992 52.002 77.992Z" fill="#13304E"/>
<path d="M45.4833 33.0682C45.8063 33.0682 46.0682 32.8063 46.0682 32.4833C46.0682 32.1603 45.8063 31.8984 45.4833 31.8984C45.1603 31.8984 44.8984 32.1603 44.8984 32.4833C44.8984 32.8063 45.1603 33.0682 45.4833 33.0682Z" fill="#9FC86A"/>
<path d="M49.1832 32.0672C49.1832 32.6209 48.7361 33.068 48.1824 33.068C47.6288 33.068 47.1816 32.6209 47.1816 32.0672C47.1816 31.5135 47.6288 31.0664 48.1824 31.0664C48.7361 31.0664 49.1832 31.5135 49.1832 32.0672Z" fill="#9FC86A"/>
<path d="M51.2131 34.095C51.9338 34.095 52.5181 33.5107 52.5181 32.79C52.5181 32.0693 51.9338 31.4851 51.2131 31.4851C50.4924 31.4851 49.9082 32.0693 49.9082 32.79C49.9082 33.5107 50.4924 34.095 51.2131 34.095Z" fill="#9FC86A"/>
<path d="M53.7605 36.5175C54.5386 36.5175 55.1694 35.8867 55.1694 35.1086C55.1694 34.3305 54.5386 33.6997 53.7605 33.6997C52.9824 33.6997 52.3516 34.3305 52.3516 35.1086C52.3516 35.8867 52.9824 36.5175 53.7605 36.5175Z" fill="#9FC86A"/>
<path d="M56.0551 39.039C56.0551 39.9748 55.296 40.7365 54.3576 40.7365C53.4192 40.7365 52.6602 39.9774 52.6602 39.039C52.6602 38.1006 53.4192 37.3416 54.3576 37.3416C55.296 37.3416 56.0551 38.1006 56.0551 39.039Z" fill="#9FC86A"/>
<path d="M45.69 33.8349C34.5122 36.4474 37.8864 52.455 37.8864 52.455C41.3125 43.3412 51.7598 44.225 51.778 38.462C51.7884 35.3296 48.7418 33.1226 45.69 33.8349V33.8349ZM38.96 46.1044C39.3239 37.3442 45.4846 37.3442 45.4846 37.3442C45.4846 37.3442 40.9979 39.0416 38.96 46.1044Z" fill="#9FC86A"/>
<path d="M36.3734 65.9617C36.6541 65.8006 37.0103 65.8967 37.174 66.1749C37.3352 66.4556 37.239 66.8118 36.9609 66.9755C36.6801 67.1367 36.324 67.0405 36.1602 66.7624C35.9991 66.4816 36.0952 66.1255 36.3734 65.9617V65.9617Z" fill="#9FC86A"/>
<path d="M34.4573 63.4741C34.9356 63.1985 35.5491 63.3623 35.8246 63.8406C36.1002 64.3189 35.9364 64.9324 35.4581 65.2079C34.9798 65.4835 34.3663 65.3197 34.0908 64.8414C33.8152 64.3631 33.979 63.7496 34.4573 63.4741Z" fill="#9FC86A"/>
<path d="M33.4122 60.2221C34.036 59.8608 34.8367 60.0766 35.1954 60.7004C35.5541 61.3243 35.341 62.1249 34.7171 62.4837C34.0932 62.8424 33.2926 62.6292 32.9339 62.0054C32.5751 61.3815 32.7883 60.5809 33.4122 60.2221Z" fill="#9FC86A"/>
<path d="M34.0968 56.7701C34.77 56.3801 35.6305 56.6115 36.0204 57.2848C36.4103 57.958 36.179 58.8185 35.5057 59.2084C34.8324 59.5983 33.972 59.3669 33.5821 58.6937C33.1922 58.0204 33.4235 57.16 34.0968 56.7701Z" fill="#9FC86A"/>
<path d="M37.0586 54.0353C37.8696 53.5674 38.9068 53.8455 39.3773 54.6565C39.8452 55.4676 39.5671 56.5048 38.756 56.9753C37.945 57.4458 36.9078 57.165 36.4373 56.354C35.9668 55.543 36.2475 54.5058 37.0586 54.0353Z" fill="#9FC86A"/>
<path d="M37.7333 65.6134C45.5837 73.9863 57.7623 63.0607 57.7623 63.0607C48.1572 64.649 43.6991 55.1609 38.6977 58.0281C35.9786 59.5852 35.5913 63.3285 37.7333 65.6134V65.6134ZM51.7237 65.3093C43.9564 69.3748 40.8734 64.0381 40.8734 64.0381C40.8734 64.0381 44.5855 67.0743 51.7237 65.3093Z" fill="#9FC86A"/>
<path d="M70.8829 57.0297C70.6022 56.8686 70.506 56.5098 70.6698 56.2291C70.8309 55.9484 71.1897 55.8522 71.4704 56.0159C71.7511 56.1771 71.8473 56.5358 71.6836 56.8166C71.5224 57.0973 71.1637 57.1935 70.8829 57.0297Z" fill="#9FC86A"/>
<path d="M69.6878 59.9333C69.2095 59.6577 69.0457 59.0443 69.3213 58.566C69.5968 58.0876 70.2103 57.9239 70.6886 58.1994C71.1669 58.475 71.3306 59.0884 71.0551 59.5667C70.7796 60.0451 70.1661 60.2088 69.6878 59.9333Z" fill="#9FC86A"/>
<path d="M67.3918 62.4627C66.768 62.1014 66.5522 61.3033 66.9135 60.6794C67.2749 60.0556 68.0729 59.8398 68.6968 60.2011C69.3207 60.5625 69.5364 61.3605 69.1751 61.9844C68.8138 62.6083 68.0157 62.824 67.3918 62.4627Z" fill="#9FC86A"/>
<path d="M64.0616 63.5985C63.3884 63.2086 63.157 62.3482 63.5469 61.6749C63.9368 61.0016 64.7973 60.7703 65.4705 61.1602C66.1438 61.5501 66.3752 62.4106 65.9852 63.0838C65.5953 63.7571 64.7349 63.9884 64.0616 63.5985Z" fill="#9FC86A"/>
<path d="M60.2117 62.4004C59.4007 61.9325 59.1225 60.8953 59.5904 60.0817C60.0583 59.268 61.0955 58.9925 61.9092 59.4604C62.7202 59.9283 62.9984 60.9655 62.5304 61.7791C62.0625 62.5902 61.0253 62.8683 60.2117 62.4004Z" fill="#9FC86A"/>
<path d="M69.9024 56.0265C73.2298 45.0411 57.6797 39.9565 57.6797 39.9565C63.8587 47.4794 57.8694 56.0863 62.8527 58.9821C65.5613 60.5574 68.9952 59.0237 69.9024 56.0239V56.0265ZM62.6421 44.0637C70.0454 48.7584 66.965 54.0951 66.965 54.0951C66.965 54.0951 67.7397 49.3615 62.6421 44.0637Z" fill="#9FC86A"/>
<path d="M14.7497 60.2143C14.7497 60.2143 4.51553 56.3307 14.7497 45.0386C24.6199 56.4503 14.7497 60.2143 14.7497 60.2143Z" fill="#59843D"/>
<path d="M14.6701 61.9429C14.5271 61.9429 14.4102 61.8259 14.4102 61.683V48.5998C14.4102 48.4568 14.5271 48.3398 14.6701 48.3398C14.8131 48.3398 14.9301 48.4568 14.9301 48.5998V61.683C14.9301 61.8259 14.8131 61.9429 14.6701 61.9429V61.9429Z" fill="#13304E"/>
<path d="M14.7168 52.1691L12.9413 50.4768C12.8373 50.378 12.8347 50.2143 12.9335 50.1103C13.0323 50.0063 13.1987 50.0037 13.3 50.1025L14.6986 51.436L16.0321 50.0375C16.1309 49.9335 16.2946 49.9309 16.3986 50.0297C16.5026 50.1285 16.5078 50.2922 16.4064 50.3962L14.7142 52.1717L14.7168 52.1691Z" fill="#13304E"/>
<path d="M14.7168 54.9088L12.9413 53.2166C12.8373 53.1178 12.8347 52.954 12.9335 52.85C13.0323 52.7461 13.1987 52.7435 13.3 52.8422L14.6986 54.1758L16.0321 52.7772C16.1309 52.6733 16.2946 52.6707 16.3986 52.7695C16.5026 52.8682 16.5078 53.032 16.4064 53.136L14.7142 54.9114L14.7168 54.9088Z" fill="#13304E"/>
<path d="M14.7168 57.6488L12.9413 55.9566C12.8373 55.8578 12.8347 55.694 12.9335 55.59C13.0323 55.486 13.1987 55.4834 13.3 55.5822L14.6986 56.9158L16.0321 55.5172C16.1309 55.4133 16.2946 55.4107 16.3986 55.5094C16.5026 55.6082 16.5078 55.772 16.4064 55.876L14.7142 57.6514L14.7168 57.6488Z" fill="#13304E"/>
<path d="M89.4157 60.2141C89.4157 60.2141 79.1815 56.3305 89.4157 45.0383C99.2859 56.45 89.4157 60.2141 89.4157 60.2141Z" fill="#59843D"/>
<path d="M89.3342 61.9429C89.1912 61.9429 89.0742 61.8259 89.0742 61.683V48.5998C89.0742 48.4568 89.1912 48.3398 89.3342 48.3398C89.4771 48.3398 89.5941 48.4568 89.5941 48.5998V61.683C89.5941 61.8259 89.4771 61.9429 89.3342 61.9429V61.9429Z" fill="#13304E"/>
<path d="M89.3799 52.1688L87.6044 50.4766C87.5004 50.3778 87.4952 50.214 87.5966 50.11C87.6954 50.0061 87.8618 50.0035 87.9632 50.1022L89.3617 51.4358L90.6952 50.0373C90.794 49.9333 90.9577 49.9307 91.0617 50.0295C91.1657 50.1282 91.1683 50.292 91.0695 50.396L89.3773 52.1714L89.3799 52.1688Z" fill="#13304E"/>
<path d="M89.3799 54.9086L87.6044 53.2163C87.5004 53.1175 87.4952 52.9538 87.5966 52.8498C87.6954 52.7458 87.8618 52.7432 87.9632 52.842L89.3617 54.1755L90.6952 52.777C90.794 52.673 90.9577 52.6704 91.0617 52.7692C91.1657 52.868 91.1683 53.0318 91.0695 53.1357L89.3773 54.9112L89.3799 54.9086Z" fill="#13304E"/>
<path d="M89.3799 57.6486L87.6044 55.9563C87.5004 55.8575 87.4952 55.6938 87.5966 55.5898C87.6954 55.4858 87.8618 55.4832 87.9632 55.582L89.3617 56.9155L90.6952 55.517C90.794 55.413 90.9577 55.4104 91.0617 55.5092C91.1657 55.608 91.1683 55.7717 91.0695 55.8757L89.3773 57.6512L89.3799 57.6486Z" fill="#13304E"/>
<path d="M15.729 68.6809C15.7368 68.3118 15.8382 67.9817 16.0331 67.6879C16.2281 67.3942 16.5062 67.1577 16.8624 66.9809L18.5858 66.1309C18.9445 65.9541 19.2981 65.8787 19.6516 65.9021C20.0025 65.9255 20.3275 66.0477 20.6212 66.2686C20.9149 66.4896 21.1593 66.7937 21.3491 67.181C21.5388 67.5632 21.6324 67.9375 21.635 68.2962C21.635 68.6576 21.5466 68.9825 21.3647 69.2736C21.1827 69.5648 20.9201 69.7935 20.577 69.9651C20.5328 69.9859 20.4912 69.9703 20.4496 69.9157L19.9661 69.0683L19.9583 69.0527C19.9349 69.0033 19.9479 68.9643 20.0025 68.9383C20.2651 68.8083 20.4366 68.6238 20.5172 68.382C20.5978 68.1429 20.5718 67.8907 20.4418 67.6256C20.3093 67.3578 20.1221 67.181 19.8855 67.0979C19.6464 67.0147 19.3942 67.0381 19.1317 67.1681L17.3329 68.0571C17.0729 68.1844 16.9039 68.369 16.826 68.6082C16.7454 68.8473 16.774 69.1021 16.9065 69.3724C17.0365 69.635 17.2211 69.8091 17.4602 69.8923C17.6994 69.9755 17.9489 69.9521 18.2063 69.8247C18.2609 69.7987 18.3025 69.8143 18.3337 69.8741L18.7262 70.7657C18.7392 70.7917 18.7418 70.8151 18.734 70.8411C18.7262 70.8671 18.7132 70.8827 18.695 70.8931C18.3519 71.0621 18.0087 71.1323 17.6656 71.0985C17.3225 71.0673 17.0053 70.9399 16.7194 70.7215C16.4308 70.5006 16.1917 70.199 16.0045 69.8169C15.8122 69.4296 15.7212 69.0501 15.729 68.6809V68.6809Z" fill="white"/>
<path d="M20.2364 76.3703L20.7537 75.6918C20.7641 75.6711 20.7667 75.6529 20.7563 75.6373L19.5631 73.9736C19.5527 73.9606 19.5371 73.9554 19.5111 73.9606L18.7079 74.2387C18.6533 74.2569 18.6091 74.2439 18.5779 74.1998L17.9618 73.3419C17.9436 73.3159 17.9358 73.2899 17.941 73.2639C17.9462 73.2379 17.9696 73.2197 18.006 73.2067L23.6261 71.3871C23.6807 71.3689 23.7249 71.3819 23.7561 71.4261L24.5177 72.4867C24.5489 72.5309 24.5489 72.5777 24.5125 72.6245L20.9876 77.3659C20.9876 77.3659 20.972 77.3867 20.959 77.3971C20.9174 77.4257 20.881 77.4153 20.8447 77.3659L20.2286 76.5081C20.1974 76.4639 20.1974 76.4171 20.2338 76.3729L20.2364 76.3703ZM20.4703 73.6825L21.323 74.873C21.3412 74.899 21.362 74.899 21.3827 74.873L22.9554 72.8246C22.971 72.8064 22.9736 72.796 22.9658 72.7882C22.958 72.7804 22.945 72.7804 22.9268 72.7856L20.4911 73.6305C20.4599 73.6461 20.4547 73.6643 20.4703 73.6877V73.6825Z" fill="white"/>
<path d="M24.5331 81.1168L25.417 78.7461C25.4248 78.7227 25.4196 78.7019 25.404 78.6863L24.8529 78.1404C24.8321 78.1196 24.8139 78.1222 24.7931 78.1404L23.1944 79.7547C23.1736 79.7755 23.1502 79.7833 23.1242 79.7859C23.0956 79.7859 23.0722 79.7755 23.054 79.7573L22.3626 79.071C22.3418 79.0502 22.334 79.0268 22.334 79.0008C22.334 78.9722 22.3444 78.9488 22.3626 78.9307L26.3242 74.9327C26.345 74.9119 26.3684 74.9041 26.3944 74.9041C26.4204 74.9041 26.4464 74.9145 26.4646 74.9327L28.1542 76.6093C28.4064 76.8589 28.5779 77.1292 28.6663 77.4229C28.7547 77.7141 28.7599 78.0078 28.6767 78.299C28.5935 78.5927 28.4298 78.8631 28.1828 79.11C27.9177 79.3778 27.6213 79.5415 27.299 79.5987C26.9767 79.6559 26.6543 79.6065 26.3346 79.4479C26.306 79.4375 26.2878 79.4427 26.2748 79.4713L25.4196 81.9408C25.4118 81.9642 25.404 81.9798 25.3962 81.9876C25.365 82.0188 25.3286 82.0136 25.2844 81.9694L24.5565 81.2494C24.5175 81.2104 24.5071 81.1662 24.5253 81.1142L24.5331 81.1168ZM26.4906 76.4352L25.4898 77.4463C25.469 77.4671 25.469 77.4853 25.4898 77.5061L26.2644 78.273C26.4308 78.4367 26.6127 78.5225 26.8155 78.5277C27.0182 78.5329 27.1976 78.4575 27.3536 78.299C27.5096 78.1404 27.5849 77.961 27.5797 77.7557C27.5745 77.5503 27.4888 77.3684 27.325 77.2046L26.5503 76.4377C26.5295 76.4169 26.5113 76.4195 26.4906 76.4377V76.4352Z" fill="white"/>
<path d="M31.5296 82.973C31.7999 83.5007 31.7505 84.0232 31.3814 84.5379C31.0669 84.9746 30.6822 85.1982 30.2246 85.2086C29.7671 85.219 29.2966 85.05 28.8131 84.7043L27.0611 83.4487C27.0377 83.4331 27.0247 83.4097 27.0195 83.3838C27.0143 83.3578 27.0195 83.3318 27.0377 83.3084L30.3182 78.7359C30.3338 78.7125 30.3572 78.6995 30.3832 78.6943C30.4092 78.6891 30.4352 78.6943 30.4586 78.7125L32.1561 79.9316C33.2244 80.6985 33.448 81.5147 32.8267 82.3804C32.5018 82.8301 32.0807 83.0172 31.5582 82.934C31.5218 82.9288 31.5114 82.9418 31.5296 82.9756V82.973ZM30.0063 84.0674C30.1987 84.0466 30.3624 83.9426 30.495 83.7581C30.6276 83.5735 30.6744 83.3863 30.6328 83.1966C30.5912 83.0068 30.4638 82.8353 30.2532 82.6845L29.4136 82.084C29.3902 82.0684 29.372 82.071 29.3564 82.0944L28.5506 83.2174C28.535 83.2408 28.5376 83.259 28.561 83.2746L29.4058 83.8803C29.6138 84.0284 29.8139 84.0934 30.0063 84.07V84.0674ZM30.7185 80.189L29.9621 81.2444C29.9465 81.2678 29.9491 81.286 29.9725 81.3016L30.7627 81.8683C30.9759 82.019 31.1761 82.0892 31.3632 82.0736C31.5504 82.058 31.7063 81.9644 31.8311 81.7929C31.9585 81.6161 31.9975 81.4367 31.9533 81.2496C31.9091 81.0624 31.7817 80.896 31.5686 80.7427L30.7783 80.176C30.7549 80.1604 30.7367 80.163 30.7211 80.1864L30.7185 80.189Z" fill="white"/>
<path d="M33.2571 87.2645C33.0414 86.9578 32.9218 86.6225 32.8984 86.2559C32.875 85.8894 32.9582 85.5177 33.1427 85.146L33.9356 83.5499C34.1175 83.1808 34.3619 82.8974 34.666 82.6946C34.9702 82.4919 35.3107 82.3879 35.6824 82.3775C36.0568 82.3671 36.4363 82.4581 36.8236 82.6505C37.2161 82.8454 37.5229 83.095 37.7386 83.3991C37.957 83.7032 38.0766 84.036 38.1 84.4025C38.1233 84.7664 38.0428 85.133 37.8608 85.5021L37.068 87.0982C36.8834 87.4699 36.6364 87.761 36.3297 87.9664C36.023 88.1743 35.6824 88.2809 35.3081 88.2913C34.9338 88.3017 34.5517 88.2081 34.1591 88.0132C33.7718 87.8208 33.4703 87.5713 33.2519 87.2645H33.2571ZM35.4043 87.1787C35.659 87.0878 35.8592 86.9006 36.0022 86.6121L36.8158 84.9718C36.9588 84.6833 36.99 84.4103 36.912 84.1504C36.834 83.8904 36.6546 83.6928 36.3765 83.5551C36.1035 83.4199 35.8384 83.3991 35.5863 83.4927C35.3315 83.5863 35.1339 83.7786 34.991 84.0672L34.1773 85.7074C34.0344 85.996 34.0032 86.2689 34.0838 86.5237C34.1643 86.781 34.3411 86.976 34.614 87.1112C34.887 87.2463 35.1521 87.2697 35.4069 87.1787H35.4043Z" fill="white"/>
<path d="M43.1733 85.1642C43.1967 85.1512 43.2227 85.1486 43.2487 85.1564L44.1819 85.4371C44.2079 85.4449 44.2287 85.4605 44.2417 85.4865C44.2547 85.5099 44.2573 85.5359 44.2495 85.5619L42.6274 90.9506C42.6196 90.9766 42.604 90.9974 42.5781 91.0104C42.5547 91.0234 42.5287 91.026 42.5027 91.0182L41.6032 90.7479C41.5513 90.7323 41.5201 90.6985 41.5097 90.6491L40.4725 86.6173C40.4673 86.5991 40.4569 86.5887 40.4465 86.5887C40.4361 86.5887 40.4257 86.5991 40.4205 86.6199L39.4249 89.9888C39.4171 90.0148 39.4015 90.0356 39.3755 90.0486C39.3521 90.0616 39.3261 90.0642 39.3001 90.0564L38.3669 89.7756C38.3409 89.7678 38.3201 89.7523 38.3071 89.7263C38.2941 89.7029 38.2915 89.6769 38.2993 89.6509L39.9214 84.2622C39.9292 84.2362 39.9448 84.2154 39.9708 84.2024C39.9942 84.1894 40.0202 84.1868 40.0462 84.1946L40.9456 84.4649C40.9976 84.4805 41.0288 84.5143 41.0392 84.5637L42.0738 88.5773C42.079 88.5955 42.0894 88.6059 42.0998 88.6059C42.1101 88.6059 42.1205 88.5955 42.1257 88.5747L43.1265 85.224C43.1343 85.198 43.1499 85.1772 43.1759 85.1642H43.1733Z" fill="white"/>
<path d="M51.8502 87.3036C51.8294 87.3218 51.806 87.3296 51.7774 87.3296L49.0531 87.1581C49.0245 87.1581 49.0115 87.1685 49.0089 87.197L48.9283 88.4838C48.9283 88.5124 48.9387 88.5254 48.9673 88.528L50.7532 88.6398C50.7818 88.6398 50.8026 88.6528 50.8208 88.6736C50.839 88.6943 50.8468 88.7177 50.8468 88.7463L50.7974 89.5522C50.7974 89.5808 50.7844 89.6016 50.7636 89.6198C50.7428 89.638 50.7194 89.6458 50.6908 89.6432L48.9049 89.5314C48.8763 89.5314 48.8633 89.5418 48.8607 89.5704L48.7776 90.9169C48.7776 90.9455 48.788 90.9585 48.8166 90.9611L51.5408 91.1327C51.5694 91.1327 51.5902 91.1457 51.6084 91.1665C51.6266 91.1872 51.6344 91.2106 51.6318 91.2392L51.5824 92.0451C51.5824 92.0737 51.5694 92.0971 51.5486 92.1153C51.5278 92.1335 51.5044 92.1413 51.4758 92.1387L47.6364 91.8969C47.6078 91.8969 47.587 91.8839 47.5688 91.8631C47.5506 91.8423 47.5428 91.8189 47.5454 91.7903L47.8989 86.1755C47.8989 86.1469 47.9119 86.1235 47.9327 86.1079C47.9535 86.0897 47.9769 86.0819 48.0055 86.0845L51.845 86.3262C51.8735 86.3262 51.8943 86.3392 51.9151 86.36C51.9333 86.3808 51.9411 86.4042 51.9385 86.4328L51.8891 87.2386C51.8891 87.2672 51.8761 87.2906 51.8553 87.3062L51.8502 87.3036Z" fill="white"/>
<path d="M56.9773 85.9285L57.9469 85.8272C57.9755 85.8246 57.9989 85.8323 58.0197 85.8479C58.0405 85.8661 58.0535 85.8869 58.0561 85.9155L58.6462 91.5122C58.6488 91.5408 58.641 91.5642 58.6254 91.585C58.6072 91.6058 58.5864 91.6188 58.5578 91.6214L57.5882 91.7228C57.5596 91.7254 57.5362 91.7176 57.5154 91.702C57.4946 91.6864 57.4816 91.663 57.479 91.6344L57.0943 87.9847C57.0943 87.9639 57.0865 87.9535 57.0735 87.9535C57.0631 87.9535 57.0527 87.9639 57.0423 87.9821L56.3092 89.4482C56.2858 89.495 56.2494 89.521 56.2001 89.5262L55.7114 89.5782C55.662 89.5834 55.6204 89.5652 55.5892 89.5236L54.5676 88.2421C54.5546 88.2265 54.5442 88.2213 54.5312 88.2239C54.5208 88.2291 54.5156 88.2395 54.5182 88.2629L54.9003 91.9047C54.9029 91.9333 54.8951 91.9567 54.8795 91.9775C54.8613 91.9983 54.8405 92.0113 54.8119 92.0139L53.8423 92.1153C53.8137 92.1179 53.7903 92.1101 53.7695 92.0945C53.7488 92.0763 53.7358 92.0555 53.7332 92.0269L53.1431 86.4302C53.1405 86.4016 53.1483 86.3782 53.1639 86.3574C53.1795 86.3366 53.2029 86.3237 53.2315 86.3211L54.2011 86.2197C54.2504 86.2145 54.292 86.2327 54.3232 86.2743L55.7685 88.0731C55.7893 88.1043 55.8049 88.1017 55.8179 88.0679L56.8655 86.0065C56.8889 85.9597 56.9253 85.9337 56.9747 85.9285H56.9773Z" fill="white"/>
<path d="M60.8568 91.0755C60.8334 91.0625 60.8178 91.0417 60.8126 91.0131L59.4973 85.5412C59.4895 85.5152 59.4973 85.4892 59.5077 85.4658C59.5233 85.4424 59.5415 85.4268 59.5701 85.4216L60.5163 85.1929C60.5423 85.1851 60.5683 85.1929 60.5917 85.2033C60.6151 85.2189 60.6307 85.2371 60.6359 85.2657L61.9512 90.7376C61.9564 90.7635 61.9512 90.7895 61.9382 90.8129C61.9226 90.8363 61.9044 90.8519 61.8758 90.8571L60.9296 91.0859C60.9036 91.0937 60.8776 91.0885 60.8542 91.0755H60.8568Z" fill="white"/>
<path d="M64.8169 89.8562C64.4556 89.838 64.1436 89.7366 63.8837 89.5521C63.6237 89.3675 63.4314 89.1101 63.3118 88.7826L63.2494 88.611C63.239 88.5851 63.2416 88.5591 63.252 88.5357C63.2624 88.5097 63.2832 88.4941 63.3092 88.4837L64.1982 88.1535C64.2242 88.1431 64.2502 88.1457 64.2736 88.1561C64.2996 88.1665 64.3152 88.1873 64.3256 88.2133L64.3698 88.3303C64.4478 88.5383 64.6089 88.6786 64.8533 88.7514C65.0976 88.8242 65.3862 88.7982 65.7137 88.6786C65.9892 88.5773 66.1738 88.4421 66.2648 88.2757C66.3558 88.1093 66.3714 87.9404 66.309 87.7662C66.2622 87.6414 66.1816 87.5505 66.0672 87.4959C65.9529 87.4413 65.8099 87.4075 65.6435 87.3945C65.4771 87.3815 65.2146 87.3763 64.8611 87.3763C64.4686 87.3867 64.128 87.3711 63.8395 87.3373C63.5509 87.3009 63.2858 87.2073 63.0414 87.0514C62.7971 86.8954 62.6177 86.6588 62.5007 86.3417C62.3864 86.0298 62.3656 85.7256 62.441 85.4319C62.5163 85.1381 62.6723 84.8756 62.9141 84.6442C63.1558 84.4129 63.4626 84.2283 63.8369 84.0905C64.232 83.945 64.6115 83.8852 64.9728 83.9112C65.3342 83.9372 65.6487 84.0438 65.9165 84.2335C66.1842 84.4207 66.3792 84.6832 66.5013 85.016L66.5455 85.1329C66.5559 85.1589 66.5533 85.1849 66.5429 85.2083C66.5325 85.2317 66.5117 85.2499 66.4857 85.2603L65.5889 85.593C65.5629 85.6034 65.5369 85.6008 65.5135 85.5905C65.4875 85.5801 65.4719 85.5593 65.4616 85.5333L65.4382 85.4709C65.3576 85.2525 65.199 85.0991 64.9625 85.0108C64.7259 84.925 64.4504 84.938 64.1384 85.0524C63.8941 85.1433 63.7225 85.2655 63.6211 85.4215C63.5197 85.5774 63.5067 85.7464 63.5717 85.9284C63.6211 86.0584 63.7017 86.1519 63.8135 86.2117C63.9279 86.2715 64.076 86.3053 64.2606 86.3183C64.4452 86.3287 64.7259 86.3339 65.1028 86.3313C65.5213 86.3313 65.8567 86.3417 66.1062 86.3677C66.3558 86.3937 66.6027 86.4795 66.8471 86.6224C67.0914 86.7654 67.276 87.002 67.3956 87.3295C67.5775 87.8182 67.5385 88.2705 67.2838 88.689C67.029 89.1049 66.5949 89.4273 65.9814 89.6534C65.5655 89.8068 65.1756 89.8744 64.8143 89.8588L64.8169 89.8562Z" fill="white"/>
<path d="M70.5569 87.4049C70.1981 87.4439 69.8732 87.3945 69.5873 87.2516C69.3013 87.1112 69.0726 86.885 68.901 86.5809L68.8126 86.4197C68.7996 86.3963 68.797 86.3703 68.8022 86.3444C68.81 86.3184 68.8256 86.2976 68.849 86.2846L69.6757 85.8193C69.699 85.8063 69.725 85.8037 69.751 85.8089C69.777 85.8167 69.7978 85.8323 69.8108 85.8556L69.8706 85.9648C69.9798 86.1598 70.1592 86.2716 70.4139 86.3054C70.6687 86.3392 70.9468 86.269 71.2509 86.0974C71.5083 85.9544 71.6695 85.7933 71.7318 85.6113C71.7942 85.4293 71.7838 85.263 71.6954 85.1018C71.6305 84.9848 71.5369 84.9094 71.4147 84.873C71.2925 84.8367 71.147 84.8263 70.9806 84.8393C70.8142 84.8522 70.5543 84.8886 70.2059 84.9458C69.8186 85.016 69.4807 85.0576 69.1896 85.0654C68.8984 85.0732 68.6229 85.0212 68.3577 84.9068C68.0926 84.7925 67.8768 84.5871 67.713 84.2908C67.5493 83.9996 67.4817 83.7033 67.5103 83.4017C67.5389 83.1002 67.6533 82.8169 67.8534 82.5517C68.0536 82.2866 68.3291 82.0552 68.6775 81.8602C69.0466 81.6549 69.4105 81.5353 69.7718 81.5041C70.1332 81.4729 70.4607 81.5301 70.7544 81.6731C71.0482 81.8161 71.2821 82.0448 71.4563 82.3541L71.5187 82.4633C71.5317 82.4867 71.5343 82.5127 71.5265 82.5387C71.5187 82.5647 71.5031 82.5855 71.4797 82.5985L70.6453 83.0664C70.6219 83.0794 70.5959 83.082 70.5699 83.0768C70.5439 83.0716 70.5231 83.0534 70.5101 83.03L70.4789 82.9728C70.3645 82.7701 70.1851 82.6427 69.9382 82.5933C69.6912 82.5439 69.4235 82.6011 69.1324 82.7623C68.9036 82.8896 68.7528 83.0378 68.68 83.2068C68.6073 83.3757 68.6177 83.5447 68.7112 83.7137C68.7788 83.8359 68.8724 83.9164 68.9946 83.9554C69.1168 83.997 69.2675 84.0074 69.4521 83.9892C69.6367 83.971 69.9148 83.932 70.2865 83.8696C70.6998 83.8021 71.0326 83.7631 71.2821 83.7501C71.5317 83.7371 71.789 83.7813 72.0542 83.8852C72.3193 83.9892 72.5351 84.192 72.7066 84.4961C72.9614 84.951 72.9952 85.4033 72.8106 85.8556C72.6235 86.308 72.2465 86.6927 71.6747 87.0124C71.2873 87.2282 70.913 87.3581 70.5543 87.3971L70.5569 87.4049Z" fill="white"/>
<path d="M75.1394 84.7225C75.1134 84.7173 75.09 84.7043 75.0744 84.6835L71.76 80.137C71.7444 80.1136 71.7366 80.0902 71.7418 80.0616C71.747 80.0356 71.76 80.0122 71.7808 79.9966L72.5685 79.4221C72.5919 79.4065 72.6153 79.3987 72.6439 79.4039C72.6725 79.4091 72.6932 79.4221 72.7088 79.4429L76.0232 83.9894C76.0388 84.0128 76.0466 84.0362 76.0414 84.0648C76.0362 84.0934 76.0232 84.1142 76.0024 84.1298L75.2147 84.7043C75.1914 84.7199 75.168 84.7277 75.1394 84.7225Z" fill="white"/>
<path d="M78.3955 81.9773C78.0341 82.0735 77.6754 82.0683 77.3245 81.9591C76.9736 81.8499 76.6538 81.6446 76.3705 81.3404L75.1539 80.0381C74.8732 79.7392 74.6912 79.409 74.6106 79.0529C74.5274 78.6968 74.5482 78.3432 74.6704 77.9897C74.7926 77.6362 75.0109 77.3112 75.3281 77.0175C75.6478 76.7186 75.9883 76.5184 76.3497 76.4222C76.711 76.3234 77.0645 76.3286 77.4155 76.4352C77.7664 76.5418 78.0809 76.7446 78.3617 77.0435L79.5782 78.3458C79.8616 78.65 80.0487 78.9827 80.1345 79.3414C80.2203 79.7028 80.2021 80.0589 80.0799 80.4124C79.9578 80.766 79.7368 81.0909 79.4171 81.3924C79.0999 81.6888 78.762 81.8837 78.3981 81.9799L78.3955 81.9773ZM79.0687 79.9367C79.0739 79.6664 78.9674 79.4142 78.7464 79.1777L77.496 77.8389C77.2751 77.605 77.0307 77.4776 76.7604 77.462C76.4901 77.4464 76.2405 77.5426 76.0143 77.7558C75.7908 77.9637 75.679 78.2029 75.679 78.4758C75.679 78.7462 75.7882 79.0009 76.0066 79.2349L77.2569 80.5736C77.4779 80.8075 77.7196 80.9323 77.9899 80.9479C78.2577 80.9635 78.5046 80.8647 78.7282 80.6568C78.9518 80.4488 79.0661 80.2097 79.0713 79.9367H79.0687Z" fill="white"/>
<path d="M79.9201 71.951C79.9175 71.925 79.9227 71.899 79.9409 71.8782L80.5336 71.1036C80.5518 71.0828 80.5726 71.0698 80.5986 71.0646C80.6246 71.062 80.6506 71.0672 80.6714 71.0854L85.1399 74.5063C85.1607 74.5219 85.1737 74.5453 85.1789 74.5713C85.1815 74.5973 85.1763 74.6233 85.1581 74.6441L84.5862 75.3901C84.5524 75.4343 84.5108 75.4525 84.4614 75.4421L80.3231 74.9872C80.3023 74.9872 80.2919 74.9898 80.2867 75.0002C80.2815 75.0106 80.2867 75.0236 80.3075 75.0366L83.1071 77.1604C83.1305 77.1786 83.1409 77.1994 83.1461 77.2254C83.1487 77.2539 83.1435 77.2773 83.1253 77.3007L82.5326 78.0728C82.517 78.0936 82.4936 78.1066 82.4676 78.1118C82.4416 78.1144 82.4156 78.1092 82.3948 78.091L77.9263 74.6701C77.9055 74.6519 77.8925 74.6311 77.8873 74.6051C77.8847 74.5791 77.8899 74.5531 77.9081 74.5297L78.48 73.7836C78.5138 73.7395 78.5554 73.7213 78.6048 73.7317L82.725 74.184C82.7458 74.184 82.7562 74.1814 82.7614 74.171C82.7666 74.1606 82.7614 74.1476 82.7406 74.1346L79.9591 72.016C79.9383 72.0004 79.9253 71.977 79.9201 71.951V71.951Z" fill="white"/>
<path d="M86.7338 71.7769C86.453 72.003 86.1515 72.1356 85.8344 72.1694C85.5172 72.2032 85.2027 72.1408 84.8959 71.9744L84.7348 71.8886C84.7114 71.8756 84.6932 71.8574 84.6854 71.8289C84.6776 71.8029 84.6802 71.7769 84.6932 71.7535L85.1403 70.9164C85.1533 70.893 85.1741 70.8748 85.2001 70.867C85.2261 70.8592 85.2521 70.8618 85.2755 70.8748L85.3846 70.9346C85.5796 71.0386 85.7954 71.036 86.0267 70.9268C86.2581 70.8177 86.4556 70.6097 86.6194 70.3004C86.7572 70.0404 86.8066 69.8194 86.765 69.6323C86.7234 69.4451 86.622 69.3099 86.4582 69.2242C86.3413 69.1618 86.2217 69.1488 86.0969 69.1826C85.9747 69.219 85.8474 69.2866 85.7122 69.3879C85.5796 69.4893 85.3794 69.6583 85.1169 69.8948C84.8284 70.1626 84.5658 70.3783 84.3267 70.5447C84.0875 70.7111 83.825 70.8151 83.539 70.8592C83.2531 70.906 82.9619 70.8488 82.663 70.6877C82.3693 70.5317 82.1535 70.3186 82.0131 70.0482C81.8728 69.7779 81.8182 69.4789 81.8442 69.1462C81.8702 68.8135 81.9767 68.4729 82.1665 68.1194C82.3641 67.7477 82.6084 67.4513 82.8969 67.2304C83.1855 67.0094 83.4922 66.882 83.8172 66.843C84.1421 66.8067 84.4618 66.8716 84.7738 67.038L84.883 67.0978C84.9063 67.1108 84.9245 67.1316 84.9323 67.1576C84.9401 67.1836 84.9375 67.2096 84.9245 67.233L84.4748 68.0778C84.4618 68.1012 84.441 68.1194 84.415 68.1272C84.389 68.135 84.3631 68.1324 84.3397 68.1194L84.2799 68.0882C84.0745 67.979 83.8536 67.9686 83.6196 68.0596C83.3856 68.1506 83.1881 68.3455 83.0321 68.6393C82.9099 68.8706 82.8632 69.076 82.8917 69.258C82.9203 69.4399 83.0217 69.5777 83.1907 69.6687C83.3129 69.7337 83.435 69.7519 83.5598 69.7207C83.6846 69.6895 83.8172 69.6167 83.9627 69.5023C84.1083 69.3879 84.3215 69.2034 84.6022 68.9512C84.9141 68.6705 85.1741 68.4599 85.3769 68.3118C85.5796 68.1662 85.8214 68.0648 86.0995 68.0076C86.3776 67.953 86.6714 68.0076 86.9807 68.1714C87.4408 68.4183 87.7138 68.7797 87.7996 69.2606C87.8854 69.7415 87.7762 70.2692 87.4668 70.8462C87.2563 71.2388 87.0119 71.5481 86.7312 71.7743L86.7338 71.7769Z" fill="white"/>
</g>
<defs>
<clipPath id="clip0_814_7076">
<rect width="104" height="104" fill="white"/>
</clipPath>
</defs>
</svg>
