<svg width="32" height="32" viewBox="0 0 32 32" fill="none" xmlns="http://www.w3.org/2000/svg">
<path fill-rule="evenodd" clip-rule="evenodd" d="M18.6667 16C17.9303 16 17.3333 16.597 17.3333 17.3334C17.3333 18.0698 17.9303 18.6667 18.6667 18.6667H25.3333C27.5425 18.6667 29.3333 20.4575 29.3333 22.6667C29.3333 24.8759 27.5425 26.6667 25.3333 26.6667H8V24H25.3333C26.0697 24 26.6667 23.4031 26.6667 22.6667C26.6667 21.9303 26.0697 21.3334 25.3333 21.3334H18.6667C16.4575 21.3334 14.6667 19.5426 14.6667 17.3334C14.6667 15.1242 16.4575 13.3334 18.6667 13.3334H24V16H18.6667Z" fill="#CDE0D1"/>
<path fill-rule="evenodd" clip-rule="evenodd" d="M23.9998 8.00004C23.2634 8.00004 22.6665 8.597 22.6665 9.33337C22.6665 9.33285 22.6665 9.33337 22.6665 9.33337C22.6665 9.33337 22.6672 9.35404 22.6756 9.40117C22.6848 9.45207 22.7006 9.52033 22.7264 9.60719C22.7784 9.783 22.8598 9.99957 22.9705 10.2517C23.1924 10.7566 23.4985 11.3294 23.8198 11.8833C23.88 11.9869 23.9401 12.0891 23.9998 12.1892C24.0596 12.0891 24.1197 11.9869 24.1798 11.8833C24.5012 11.3294 24.8073 10.7566 25.0292 10.2517C25.1398 9.99957 25.2213 9.783 25.2733 9.60719C25.299 9.52033 25.3149 9.45207 25.3241 9.40117C25.3325 9.35404 25.3332 9.33259 25.3332 9.33259C25.3332 9.33259 25.3332 9.33207 25.3332 9.33259C25.3332 8.59621 24.7362 8.00004 23.9998 8.00004ZM23.9998 14.6667C22.9028 15.4244 22.9026 15.4244 22.9026 15.4243L22.8998 15.4202L22.8929 15.4102L22.8684 15.3743C22.8473 15.3434 22.817 15.2987 22.7788 15.2419C22.7025 15.1284 22.5944 14.9659 22.4649 14.7667C22.207 14.3695 21.861 13.8211 21.5132 13.2214C21.1678 12.6261 20.8073 11.9575 20.5292 11.3243C20.275 10.7459 19.9998 10.0044 19.9998 9.33337C19.9998 7.12424 21.7906 5.33337 23.9998 5.33337C26.209 5.33337 27.9998 7.12424 27.9998 9.33337C27.9998 10.0044 27.7246 10.7459 27.4705 11.3243C27.1924 11.9575 26.8318 12.6261 26.4865 13.2214C26.1386 13.8211 25.7926 14.3695 25.5348 14.7667C25.4053 14.9659 25.2972 15.1284 25.2209 15.2419C25.1826 15.2987 25.1524 15.3434 25.1313 15.3743L25.1068 15.4102L25.0998 15.4202L25.097 15.4243C25.097 15.4244 25.0969 15.4244 23.9998 14.6667ZM23.9998 14.6667L25.097 15.4243C24.8481 15.7847 24.4378 16 23.9998 16C23.5618 16 23.1516 15.7847 22.9026 15.4243L23.9998 14.6667ZM7.99984 14.6667C6.52708 14.6667 5.33317 15.8606 5.33317 17.3334C5.33317 17.5828 5.47468 18.1348 5.84556 18.9791C6.19238 19.7684 6.66517 20.6515 7.15317 21.4927C7.44341 21.9931 7.73434 22.4706 7.99984 22.8946C8.26533 22.4706 8.55626 21.9931 8.8465 21.4927C9.3345 20.6515 9.80729 19.7684 10.1541 18.9791C10.525 18.1348 10.6665 17.5828 10.6665 17.3334C10.6665 15.8606 9.4726 14.6667 7.99984 14.6667ZM7.99984 25.3334L9.09689 26.0911C8.84794 26.4515 8.43786 26.6667 7.99984 26.6667C7.56181 26.6667 7.15173 26.4515 6.90278 26.0911L7.99984 25.3334ZM2.6665 17.3334C2.6665 14.3879 5.05432 12 7.99984 12C10.9454 12 13.3332 14.3879 13.3332 17.3334C13.3332 18.1884 12.9747 19.1887 12.5956 20.0516C12.1924 20.9694 11.6652 21.9482 11.1532 22.8308C10.6386 23.7178 10.126 24.5306 9.74304 25.1203C9.55118 25.4156 9.39097 25.6564 9.27817 25.8242C9.22174 25.9082 9.17712 25.9739 9.14626 26.0191L9.11053 26.0714L9.09689 26.0911C9.0968 26.0912 9.09689 26.0911 7.99984 25.3334C6.90278 26.0911 6.90288 26.0912 6.90278 26.0911L6.88913 26.0714L6.85341 26.0191C6.82256 25.9739 6.77793 25.9082 6.7215 25.8242C6.6087 25.6564 6.44849 25.4156 6.25664 25.1203C5.87366 24.5306 5.36105 23.7178 4.8465 22.8308C4.3345 21.9482 3.80729 20.9694 3.40412 20.0516C3.025 19.1887 2.6665 18.1884 2.6665 17.3334Z" fill="#75A640"/>
</svg>
