<svg width="32" height="32" viewBox="0 0 32 32" fill="none" xmlns="http://www.w3.org/2000/svg">
<g clip-path="url(#clip0_71_1205)">
<path d="M9.3087 28.3966L8.90112 28.8042V26.9192C8.85503 25.6777 7.07342 25.6786 7.02777 26.9192V28.8042L6.62019 28.3966C5.70987 27.5513 4.4506 28.8119 5.29554 29.7212L7.30215 31.7279C7.65091 32.0907 8.27804 32.0907 8.6268 31.7279L10.6334 29.7212C10.9991 29.3555 10.9991 28.7624 10.6334 28.3966C10.2675 28.0309 9.67444 28.0309 9.3087 28.3966Z" fill="#92D050"/>
<path d="M17.3349 28.3966L16.9273 28.8042V26.9192C16.8812 25.6777 15.0996 25.6786 15.0539 26.9192V28.8042L14.6464 28.3966C14.2806 28.0307 13.6876 28.0309 13.3217 28.3966C12.9559 28.7623 12.9559 29.3554 13.3217 29.7212L15.3283 31.7279C15.6771 32.0907 16.3042 32.0907 16.653 31.7279L18.6596 29.7212C19.0253 29.3555 19.0253 28.7624 18.6596 28.3966C18.2937 28.0309 17.7006 28.0309 17.3349 28.3966Z" fill="#92D050"/>
<path d="M31.9766 15.0738C31.9766 12.214 29.7631 9.86153 26.9595 9.63948C27.0079 6.6571 24.627 4.18665 21.6635 4.10647C19.7071 -1.57171 11.5922 -1.16944 10.1704 4.62446C6.62688 2.8188 2.42184 5.90271 3.07501 9.82881C-0.998899 12.0728 -0.989908 18.0822 3.07501 20.3189C2.72613 22.3879 3.82679 24.4922 5.58243 25.4309C6.82746 23.418 9.90606 23.7969 10.634 26.0433H13.321C14.1747 23.4799 17.8076 23.4815 18.6603 26.0433H21.3473C22.192 23.5016 25.7871 23.4743 26.6723 25.9994C29.9679 25.6196 32.0063 21.8439 30.4441 18.8642C31.4267 17.8542 31.9766 16.5127 31.9766 15.0738Z" fill="#92D050"/>
<path d="M25.3614 28.3966L24.9539 28.8042V26.9192C24.9078 25.6777 23.1262 25.6786 23.0805 26.9192V28.8042L22.6729 28.3966C21.7626 27.5513 20.5033 28.8119 21.3483 29.7212L23.3549 31.7279C23.7036 32.0907 24.3308 32.0907 24.6795 31.7279L26.6861 29.7212C27.0519 29.3555 27.0519 28.7624 26.6861 28.3966C26.3203 28.0309 25.7272 28.0309 25.3614 28.3966Z" fill="#92D050"/>
<path d="M8.7505 15.8917C8.79817 15.8917 8.84042 15.9102 8.87725 15.947L9.22175 16.3207C9.03108 16.5569 8.796 16.7378 8.5165 16.8635C8.23917 16.9892 7.9055 17.052 7.5155 17.052C7.16667 17.052 6.8525 16.9924 6.573 16.8732C6.29567 16.7541 6.05842 16.5883 5.86125 16.376C5.66408 16.1637 5.51242 15.9102 5.40625 15.6155C5.30225 15.3208 5.25025 14.9991 5.25025 14.6502C5.25025 14.2971 5.30658 13.9742 5.41925 13.6817C5.53192 13.3871 5.69008 13.1336 5.89375 12.9212C6.09958 12.7089 6.34442 12.5442 6.62825 12.4272C6.91208 12.3081 7.22625 12.2485 7.57075 12.2485C7.91308 12.2485 8.21642 12.3048 8.48075 12.4175C8.74725 12.5302 8.97367 12.6775 9.16 12.8595L8.8675 13.2657C8.85017 13.2917 8.82742 13.3145 8.79925 13.334C8.77325 13.3535 8.73642 13.3632 8.68875 13.3632C8.65625 13.3632 8.62267 13.3546 8.588 13.3372C8.55333 13.3177 8.51542 13.295 8.47425 13.269C8.43308 13.2408 8.38542 13.2105 8.33125 13.178C8.27708 13.1455 8.21425 13.1162 8.14275 13.0902C8.07125 13.0621 7.98783 13.0393 7.8925 13.022C7.79933 13.0025 7.691 12.9927 7.5675 12.9927C7.35733 12.9927 7.1645 13.0307 6.989 13.1065C6.81567 13.1802 6.66617 13.2885 6.5405 13.4315C6.41483 13.5723 6.31733 13.7457 6.248 13.9515C6.17867 14.1552 6.144 14.3881 6.144 14.6502C6.144 14.9146 6.18083 15.1497 6.2545 15.3555C6.33033 15.5613 6.43217 15.7347 6.56 15.8755C6.68783 16.0163 6.83842 16.1247 7.01175 16.2005C7.18508 16.2742 7.37142 16.311 7.57075 16.311C7.68992 16.311 7.79717 16.3045 7.8925 16.2915C7.99 16.2785 8.07883 16.2579 8.159 16.2297C8.24133 16.2016 8.31825 16.1658 8.38975 16.1225C8.46342 16.077 8.536 16.0217 8.6075 15.9567C8.62917 15.9372 8.65192 15.9221 8.67575 15.9112C8.69958 15.8982 8.7245 15.8917 8.7505 15.8917ZM11.4554 15.5765C11.2235 15.5873 11.0285 15.6079 10.8704 15.6382C10.7122 15.6664 10.5854 15.7032 10.4901 15.7487C10.3948 15.7942 10.3265 15.8473 10.2854 15.908C10.2442 15.9687 10.2236 16.0347 10.2236 16.1062C10.2236 16.2471 10.2648 16.3478 10.3471 16.4085C10.4316 16.4692 10.541 16.4995 10.6754 16.4995C10.84 16.4995 10.9819 16.4702 11.1011 16.4117C11.2224 16.3511 11.3405 16.2601 11.4554 16.1387V15.5765ZM9.61586 14.1302C9.99936 13.7792 10.4609 13.6037 11.0004 13.6037C11.1954 13.6037 11.3698 13.6362 11.5236 13.7012C11.6774 13.7641 11.8074 13.8529 11.9136 13.9677C12.0198 14.0804 12.0999 14.2158 12.1541 14.374C12.2104 14.5322 12.2386 14.7055 12.2386 14.894V17H11.8746C11.7988 17 11.7403 16.9892 11.6991 16.9675C11.6579 16.9437 11.6254 16.8971 11.6016 16.8277L11.5301 16.5872C11.4456 16.6631 11.3633 16.7302 11.2831 16.7887C11.2029 16.8451 11.1195 16.8927 11.0329 16.9317C10.9462 16.9707 10.853 17 10.7534 17.0195C10.6559 17.0412 10.5475 17.052 10.4284 17.052C10.2875 17.052 10.1575 17.0336 10.0384 16.9967C9.9192 16.9577 9.81628 16.9003 9.72961 16.8245C9.64295 16.7487 9.57578 16.6544 9.52811 16.5417C9.48045 16.4291 9.45661 16.298 9.45661 16.1485C9.45661 16.064 9.4707 15.9806 9.49886 15.8982C9.52703 15.8137 9.57253 15.7336 9.63536 15.6577C9.70036 15.5819 9.78378 15.5104 9.88561 15.4432C9.98745 15.3761 10.112 15.3176 10.2594 15.2677C10.4089 15.2179 10.5822 15.1778 10.7794 15.1475C10.9765 15.115 11.2019 15.0955 11.4554 15.089V14.894C11.4554 14.6708 11.4077 14.5062 11.3124 14.4C11.217 14.2917 11.0794 14.2375 10.8996 14.2375C10.7696 14.2375 10.6613 14.2527 10.5746 14.283C10.4901 14.3133 10.4154 14.348 10.3504 14.387C10.2854 14.4238 10.2258 14.4574 10.1716 14.4877C10.1196 14.5181 10.0611 14.5332 9.99611 14.5332C9.93978 14.5332 9.89211 14.5192 9.85311 14.491C9.81411 14.4607 9.7827 14.426 9.75886 14.387L9.61586 14.1302ZM13.7519 14.244C13.8559 14.0447 13.9794 13.8887 14.1224 13.776C14.2654 13.6612 14.4344 13.6037 14.6294 13.6037C14.7832 13.6037 14.9067 13.6373 14.9999 13.7045L14.9479 14.3057C14.9371 14.3447 14.9208 14.3729 14.8991 14.3902C14.8796 14.4054 14.8526 14.413 14.8179 14.413C14.7854 14.413 14.7366 14.4076 14.6716 14.3967C14.6088 14.3859 14.5471 14.3805 14.4864 14.3805C14.3976 14.3805 14.3185 14.3935 14.2491 14.4195C14.1798 14.4455 14.117 14.4834 14.0606 14.5332C14.0065 14.5809 13.9577 14.6394 13.9144 14.7087C13.8732 14.7781 13.8342 14.8572 13.7974 14.946V17H12.9946V13.6655H13.4659C13.5482 13.6655 13.6056 13.6807 13.6381 13.711C13.6706 13.7392 13.6923 13.7912 13.7031 13.867L13.7519 14.244ZM16.2222 16.1355C16.3132 16.246 16.4118 16.324 16.5179 16.3695C16.6263 16.415 16.74 16.4377 16.8592 16.4377C16.9827 16.4377 17.0932 16.4161 17.1907 16.3727C17.2904 16.3272 17.3749 16.2579 17.4442 16.1648C17.5135 16.0694 17.5666 15.9492 17.6034 15.804C17.6403 15.6567 17.6587 15.4812 17.6587 15.2775C17.6587 14.9113 17.598 14.647 17.4767 14.4845C17.3554 14.3198 17.1809 14.2375 16.9534 14.2375C16.7996 14.2375 16.6653 14.2732 16.5504 14.3447C16.4356 14.4141 16.3262 14.5127 16.2222 14.6405V16.1355ZM16.2222 14.075C16.3565 13.9342 16.5049 13.8226 16.6674 13.7402C16.8321 13.6557 17.0195 13.6135 17.2297 13.6135C17.4225 13.6135 17.5959 13.6514 17.7497 13.7272C17.9057 13.8031 18.0379 13.9125 18.1462 14.0555C18.2567 14.1963 18.3412 14.3675 18.3997 14.569C18.4582 14.7705 18.4874 14.9969 18.4874 15.2482C18.4874 15.5191 18.4539 15.765 18.3867 15.986C18.3195 16.207 18.2231 16.3966 18.0974 16.5547C17.9739 16.7107 17.8244 16.8321 17.6489 16.9187C17.4734 17.0054 17.2784 17.0488 17.0639 17.0488C16.9599 17.0488 16.8657 17.0379 16.7812 17.0163C16.6967 16.9967 16.6187 16.9686 16.5472 16.9317C16.4757 16.8949 16.4096 16.8505 16.3489 16.7985C16.2904 16.7443 16.2341 16.6847 16.1799 16.6197L16.1442 16.844C16.1312 16.9003 16.1084 16.9404 16.0759 16.9642C16.0456 16.9881 16.0034 17 15.9492 17H15.4194V12.1705H16.2222V14.075ZM20.5829 13.6135C20.8299 13.6135 21.0542 13.6536 21.2557 13.7338C21.4594 13.8139 21.6327 13.9277 21.7757 14.075C21.9209 14.2223 22.0324 14.4022 22.1104 14.6145C22.1884 14.8268 22.2274 15.0641 22.2274 15.3262C22.2274 15.5906 22.1884 15.8289 22.1104 16.0412C22.0324 16.2536 21.9209 16.4345 21.7757 16.584C21.6327 16.7335 21.4594 16.8483 21.2557 16.9285C21.0542 17.0087 20.8299 17.0488 20.5829 17.0488C20.3338 17.0488 20.1074 17.0087 19.9037 16.9285C19.7 16.8483 19.5256 16.7335 19.3804 16.584C19.2374 16.4345 19.1259 16.2536 19.0457 16.0412C18.9677 15.8289 18.9287 15.5906 18.9287 15.3262C18.9287 15.0641 18.9677 14.8268 19.0457 14.6145C19.1259 14.4022 19.2374 14.2223 19.3804 14.075C19.5256 13.9277 19.7 13.8139 19.9037 13.7338C20.1074 13.6536 20.3338 13.6135 20.5829 13.6135ZM20.5829 16.4312C20.8603 16.4312 21.065 16.3381 21.1972 16.1517C21.3315 15.9654 21.3987 15.6924 21.3987 15.3327C21.3987 14.9731 21.3315 14.699 21.1972 14.5105C21.065 14.322 20.8603 14.2277 20.5829 14.2277C20.3013 14.2277 20.0922 14.3231 19.9557 14.5137C19.8214 14.7022 19.7542 14.9752 19.7542 15.3327C19.7542 15.6902 19.8214 15.9632 19.9557 16.1517C20.0922 16.3381 20.3013 16.4312 20.5829 16.4312ZM23.5906 14.075C23.6578 14.0078 23.7282 13.9461 23.8019 13.8897C23.8777 13.8312 23.9568 13.7825 24.0391 13.7435C24.1236 13.7023 24.2135 13.6709 24.3089 13.6492C24.4042 13.6254 24.5082 13.6135 24.6209 13.6135C24.8029 13.6135 24.9643 13.6449 25.1051 13.7077C25.2459 13.7684 25.3629 13.8551 25.4561 13.9677C25.5514 14.0782 25.6229 14.2115 25.6706 14.3675C25.7204 14.5213 25.7454 14.6914 25.7454 14.8777V17H24.9426V14.8777C24.9426 14.6741 24.896 14.517 24.8029 14.4065C24.7097 14.2938 24.5678 14.2375 24.3771 14.2375C24.2384 14.2375 24.1084 14.2689 23.9871 14.3317C23.8658 14.3946 23.7509 14.4802 23.6426 14.5885V17H22.8399V13.6655H23.3306C23.4346 13.6655 23.5029 13.7142 23.5354 13.8117L23.5906 14.075Z" fill="white"/>
</g>
<defs>
<clipPath id="clip0_71_1205">
<rect width="32" height="32" fill="white"/>
</clipPath>
</defs>
</svg>
