<?xml version="1.0" encoding="UTF-8"?>
<svg xmlns="http://www.w3.org/2000/svg" xmlns:xlink="http://www.w3.org/1999/xlink" width="32px" height="31px" viewBox="0 0 32 31" version="1.1">
<g clip-path="url(#clip0_427_139)">
<path d="M21.2113 17.2396C20.6289 17.5397 19.9939 17.8613 19.3647 18.174L18.6582 32.9994H23.7644L23.0579 18.1746C22.4286 17.8613 21.7937 17.5397 21.2113 17.2396Z" fill="#92D050"/>
<path d="M12.0628 19.8687C12.4034 19.799 12.8351 19.6629 13.3637 19.4641C14.262 19.1267 15.4426 18.6064 16.8322 17.9461C18.2705 17.263 20.0398 16.3711 21.2116 15.7583C22.3834 16.3711 24.1528 17.263 25.591 17.9461C26.9806 18.6064 28.1612 19.1261 29.0595 19.4641C29.5881 19.6629 30.0199 19.799 30.3604 19.8687C31.0416 20.0073 31.5094 19.9763 31.8386 19.4059C32.1678 18.8362 31.9608 18.4152 31.4999 17.8948C31.2695 17.6346 30.9359 17.3289 30.4991 16.9699C29.7578 16.3609 28.717 15.5987 27.4503 14.7251C26.1399 13.8211 24.4826 12.7348 23.3659 12.0264C23.3108 10.7053 23.1988 8.727 23.0709 7.13994C22.9474 5.60607 22.8075 4.32351 22.6512 3.3771C22.5587 2.82002 22.4606 2.37815 22.3505 2.04833C22.1308 1.38933 21.87 1 21.2116 1C20.5532 1 20.2924 1.38933 20.0721 2.04896C19.962 2.37878 19.8639 2.82065 19.7714 3.37773C19.6144 4.32414 19.4745 5.6067 19.3517 7.14058C19.2245 8.72763 19.1124 10.7059 19.0567 12.0271C17.9407 12.7355 16.2833 13.8218 14.9723 14.7258C13.7056 15.5994 12.6648 16.3616 11.9235 16.9706C11.4873 17.3289 11.1537 17.6346 10.9227 17.8954C10.4618 18.4158 10.2554 18.8368 10.584 19.4065C10.9138 19.9763 11.3816 20.0079 12.0628 19.8687ZM21.2116 11.9562C21.9377 11.9562 22.5265 12.5449 22.5265 13.271C22.5265 13.9971 21.9377 14.5859 21.2116 14.5859C20.4855 14.5859 19.8968 13.9971 19.8968 13.271C19.8968 12.5449 20.4855 11.9562 21.2116 11.9562Z" fill="#92D050"/>
<path d="M7.91717 3.66565C8.29763 3.841 8.42994 4.14234 8.40652 4.55129C8.38436 4.94567 8.40525 5.34196 8.40082 5.73762C8.39575 6.14847 8.11911 6.4384 7.74118 6.4384C7.36325 6.4384 7.08661 6.14847 7.08154 5.73762C7.07711 5.34196 7.098 4.94567 7.07585 4.55129C7.05242 4.1417 7.18473 3.841 7.56519 3.66565C7.68231 3.66565 7.79942 3.66565 7.91717 3.66565Z" fill="#92D050"/>
<path d="M10.1628 9.48207C10.1622 10.8134 9.07079 11.9022 7.73885 11.901C6.40692 11.8997 5.31807 10.8096 5.31934 9.47764C5.31997 8.14634 6.41135 7.05686 7.74328 7.0575C9.07395 7.05876 10.1634 8.15077 10.1628 9.48207Z" fill="#92D050"/>
<path d="M4.08847 5.1748C4.28345 5.18493 4.44424 5.2495 4.57465 5.37928C4.9127 5.71606 5.25518 6.04778 5.58436 6.39279C5.85024 6.67133 5.84645 7.06889 5.59576 7.32464C5.33558 7.58925 4.93739 7.59432 4.64872 7.31831C4.30434 6.98849 3.96819 6.64981 3.63711 6.3067C3.4301 6.09209 3.37376 5.83634 3.50353 5.5578C3.62128 5.30585 3.83208 5.19316 4.08847 5.1748Z" fill="#92D050"/>
<path d="M12.0468 5.82431C12.038 6.03005 11.9633 6.19274 11.8278 6.32758C11.5012 6.65424 11.1789 6.98595 10.8459 7.30691C10.5484 7.59368 10.1458 7.59305 9.88308 7.3202C9.62733 7.05496 9.63556 6.66247 9.91663 6.3719C10.2433 6.03448 10.5756 5.70276 10.9131 5.37674C11.1283 5.1691 11.3853 5.11529 11.6626 5.2419C11.9145 5.35712 12.0272 5.56919 12.0468 5.82431Z" fill="#92D050"/>
<path d="M12.0469 13.1247C12.0298 13.3811 11.9209 13.5868 11.6835 13.7084C11.4467 13.8293 11.1986 13.8242 11.0011 13.6514C10.5871 13.2893 10.1946 12.9019 9.835 12.486C9.61723 12.234 9.66344 11.8542 9.89703 11.6257C10.1313 11.3971 10.5136 11.3585 10.758 11.5839C11.1511 11.9466 11.5214 12.3347 11.8962 12.7164C12.0038 12.8253 12.0355 12.9715 12.0469 13.1247Z" fill="#92D050"/>
<path d="M4.10047 13.7868C3.83902 13.7691 3.63392 13.6596 3.51237 13.4222C3.39083 13.1842 3.39779 12.9379 3.56998 12.7404C3.93145 12.3258 4.32204 11.9364 4.73542 11.5737C4.97661 11.3623 5.35011 11.4015 5.58054 11.6218C5.80844 11.8402 5.86668 12.22 5.66221 12.4638C5.29947 12.8961 4.88799 13.2848 4.46891 13.6634C4.36825 13.7546 4.23215 13.7735 4.10047 13.7868Z" fill="#92D050"/>
<path d="M3.30865 10.1392C3.06619 10.1392 2.82374 10.1455 2.58191 10.1373C2.20461 10.1253 1.92544 9.83662 1.92924 9.47325C1.9324 9.12001 2.20588 8.8307 2.57242 8.82247C3.06366 8.81108 3.55617 8.81171 4.04742 8.82184C4.42472 8.82944 4.70389 9.12444 4.70073 9.48591C4.69693 9.84738 4.41459 10.1278 4.03539 10.138C3.79293 10.1449 3.55048 10.1398 3.30865 10.1392Z" fill="#92D050"/>
<path d="M12.167 10.1392C11.9245 10.1392 11.6821 10.1449 11.4403 10.1379C11.063 10.1265 10.7812 9.84104 10.7812 9.47957C10.7812 9.11873 11.0623 8.8288 11.4409 8.82183C11.9252 8.81297 12.4101 8.81297 12.8944 8.82183C13.2736 8.8288 13.5527 9.1181 13.5527 9.4802C13.5527 9.84231 13.2717 10.1265 12.8931 10.1379C12.6519 10.1449 12.4095 10.1392 12.167 10.1392Z" fill="#92D050"/>
<path d="M7.08123 13.9059C7.08123 13.671 7.0768 13.4361 7.0825 13.2013C7.09199 12.8063 7.37243 12.5208 7.74277 12.5208C8.11247 12.5214 8.39544 12.8075 8.40051 13.2025C8.40684 13.6723 8.40684 14.142 8.40051 14.6117C8.39481 15.0067 8.1112 15.2922 7.74087 15.2916C7.37117 15.291 7.09136 15.0048 7.0825 14.6098C7.0768 14.3756 7.08123 14.1407 7.08123 13.9059Z" fill="#92D050"/>
<path d="M25.8898 32.2733H16.5334C16.3466 32.2733 16.1953 32.436 16.1953 32.6367C16.1953 32.8374 16.3466 33.0001 16.5334 33.0001H25.8892C26.0759 33.0001 26.2272 32.8374 26.2272 32.6367C26.2279 32.436 26.0766 32.2733 25.8898 32.2733Z" fill="#92D050"/>
<path d="M15.4427 28.8586C15.3452 29.0702 15.1814 29.1452 14.9479 29.1439C13.6464 29.1366 12.3449 29.1385 11.0434 29.1432C10.9107 29.1439 10.8676 29.1067 10.847 28.9727C10.7436 28.2987 10.6295 27.6261 10.5107 26.9541C10.4915 26.8467 10.518 26.8268 10.6175 26.8268C11.9794 26.8288 13.3412 26.8294 14.7024 26.8254C14.8079 26.8254 14.8378 26.8739 14.865 26.9574C15.0354 27.4769 15.2086 27.9949 15.3824 28.513C15.3976 28.5588 15.3996 28.6125 15.4414 28.647C15.4427 28.7173 15.4427 28.7876 15.4427 28.8586Z" fill="#92D050"/>
<path d="M5.84836 21.4105C5.7681 21.8908 5.68451 22.3704 5.61088 22.8513C5.59562 22.9522 5.55118 22.9701 5.46229 22.9701C4.32066 22.9681 3.17969 22.9681 2.03806 22.9701C1.93126 22.9701 1.90871 22.9449 1.94586 22.84C2.06526 22.4991 2.18334 22.1575 2.28682 21.8112C2.34586 21.6128 2.44868 21.4716 2.65034 21.4105C3.71635 21.4105 4.78235 21.4105 5.84836 21.4105Z" fill="#92D050"/>
<path d="M12.7884 21.4105C12.9894 21.4716 13.0922 21.6128 13.1519 21.8112C13.2554 22.1575 13.3728 22.4991 13.4928 22.84C13.53 22.9449 13.5074 22.9701 13.4006 22.9701C12.2544 22.9674 11.1081 22.9681 9.96115 22.9701C9.87159 22.9701 9.84241 22.9376 9.82848 22.8513C9.75285 22.3704 9.6706 21.8908 9.59033 21.4105C10.6557 21.4105 11.7223 21.4105 12.7884 21.4105Z" fill="#92D050"/>
<path d="M8.80542 21.4105C8.88369 21.8749 8.95998 22.3399 9.04223 22.8036C9.0628 22.919 9.05285 22.9734 8.90956 22.9721C8.11619 22.9654 7.32282 22.9654 6.52945 22.9721C6.38617 22.9734 6.37622 22.9196 6.39678 22.8036C6.47904 22.3399 6.55466 21.8749 6.63294 21.4105C7.35666 21.4105 8.08104 21.4105 8.80542 21.4105Z" fill="#92D050"/>
<path d="M7.71192 32.9993C6.83232 32.9993 5.95337 33.0007 5.07377 32.9987C4.79781 32.998 4.63264 32.8501 4.6333 32.6139C4.63397 32.399 4.79118 32.2371 5.01606 32.2338C5.35238 32.2285 5.68936 32.2272 6.02568 32.2345C6.14177 32.2372 6.17958 32.208 6.17891 32.0859C6.17294 31.408 6.17891 30.73 6.17294 30.0521C6.17228 29.938 6.20412 29.9108 6.31556 29.9114C7.25023 29.9161 8.18489 29.9167 9.11955 29.9108C9.24758 29.9101 9.2635 29.9565 9.26284 30.0653C9.25886 30.738 9.2635 31.4113 9.2582 32.0839C9.25687 32.2033 9.2907 32.2372 9.40944 32.2345C9.73117 32.2265 10.0529 32.2305 10.374 32.2325C10.6373 32.2338 10.8018 32.3818 10.8038 32.6126C10.8051 32.8448 10.6426 32.998 10.3799 32.9987C9.49103 33.0007 8.60148 32.9993 7.71192 32.9993Z" fill="#92D050"/>
<path d="M2.78037 26.8282C3.45368 26.8282 4.12698 26.8295 4.80028 26.8268C4.90443 26.8262 4.94887 26.8328 4.92565 26.9648C4.8036 27.6461 4.69282 28.3293 4.58469 29.0133C4.56811 29.1174 4.52632 29.1419 4.42947 29.1419C3.09812 29.1393 1.76611 29.1413 0.434758 29.1393C0.0957848 29.1386 -0.0740334 28.9071 0.0307762 28.5894C0.210545 28.0414 0.396947 27.4955 0.575389 26.9476C0.605239 26.8554 0.650348 26.8255 0.746534 26.8262C1.42315 26.8302 2.10176 26.8282 2.78037 26.8282Z" fill="#92D050"/>
<path d="M7.71813 29.1399C6.97451 29.1399 6.23023 29.1372 5.48661 29.1425C5.36854 29.1432 5.34333 29.1133 5.36389 28.9979C5.48197 28.316 5.59408 27.6327 5.70552 26.9488C5.72011 26.8606 5.75328 26.8254 5.85013 26.8254C7.09657 26.8288 8.34301 26.8288 9.58945 26.8254C9.68762 26.8254 9.7188 26.8626 9.73273 26.9502C9.84418 27.6334 9.95628 28.3167 10.0744 28.9986C10.0949 29.1153 10.0664 29.1425 9.95031 29.1419C9.20603 29.1372 8.46241 29.1399 7.71813 29.1399Z" fill="#92D050"/>
<path d="M2.97975 26.054C2.32635 26.054 1.67295 26.0507 1.01954 26.0566C0.896161 26.058 0.879578 26.0321 0.918715 25.9173C1.15155 25.2341 1.37908 24.5482 1.6033 23.8616C1.63514 23.7641 1.68024 23.7329 1.78439 23.7329C2.96051 23.7369 4.13664 23.7369 5.31276 23.7329C5.43416 23.7323 5.46135 23.7575 5.4388 23.8828C5.31873 24.5595 5.20663 25.2374 5.09983 25.9167C5.08324 26.0235 5.05007 26.0566 4.94062 26.056C4.28656 26.0513 3.63315 26.054 2.97975 26.054Z" fill="#92D050"/>
<path d="M12.4551 26.054C11.807 26.054 11.1582 26.052 10.5101 26.056C10.402 26.0566 10.3562 26.0348 10.3377 25.9154C10.2315 25.2314 10.1168 24.5482 9.99604 23.8669C9.97481 23.7482 10.0113 23.7343 10.1135 23.7349C11.2995 23.7376 12.4856 23.7376 13.6717 23.7343C13.7639 23.7343 13.8017 23.7648 13.8302 23.851C14.0584 24.5469 14.2899 25.2414 14.5254 25.9346C14.5626 26.0434 14.5301 26.0573 14.4312 26.0567C13.7718 26.0527 13.1138 26.054 12.4551 26.054Z" fill="#92D050"/>
<path d="M7.71703 26.054C7.1439 26.054 6.57076 26.05 5.99762 26.0573C5.87424 26.0586 5.85965 26.0221 5.87822 25.9134C5.99563 25.2308 6.10907 24.5475 6.21985 23.8643C6.2351 23.7707 6.26628 23.7323 6.37109 23.7329C7.2706 23.7376 8.17077 23.7369 9.07094 23.7336C9.16513 23.7329 9.20095 23.7614 9.21555 23.8536C9.32765 24.5469 9.44241 25.2401 9.56182 25.9326C9.58039 26.0387 9.54722 26.056 9.45104 26.0553C8.87326 26.052 8.29548 26.054 7.71703 26.054Z" fill="#92D050"/>
</g>
<defs>
<clipPath id="clip0_427_139">
<rect width="32" height="32" fill="white" transform="translate(0 1)"/>
</clipPath>
</defs>
</svg>
