<svg width="32" height="32" viewBox="0 0 32 32" fill="none" xmlns="http://www.w3.org/2000/svg">
<g clip-path="url(#clip0_71_1208)">
<path d="M15.9979 0.0639648C7.2119 0.0639648 0.0639648 7.21384 0.0639648 16.0023C0.0639648 24.7882 7.21184 31.936 15.9979 31.936C24.7862 31.936 31.936 24.7882 31.936 16.0023C31.9361 7.21384 24.7862 0.0639648 15.9979 0.0639648ZM15.9979 31.272C7.57809 31.272 0.727965 24.4221 0.727965 16.0023C0.727965 7.58003 7.57809 0.727965 15.9979 0.727965C24.4202 0.727965 31.272 7.58003 31.272 16.0023C31.272 24.4221 24.4202 31.272 15.9979 31.272Z" fill="#92D050"/>
<path d="M20.4775 27.4391C20.0775 27.5963 19.6641 27.7338 19.2486 27.8479C19.0717 27.8965 18.9679 28.0792 19.0163 28.2559C19.0651 28.4335 19.2484 28.5368 19.4244 28.4882C19.8625 28.3679 20.2986 28.2228 20.7204 28.057C20.8911 27.9899 20.9751 27.7972 20.908 27.6267C20.841 27.456 20.6487 27.3718 20.4775 27.4391Z" fill="#92D050"/>
<path d="M25.8449 8.11309C25.699 8.22396 25.6706 8.43227 25.7816 8.57834C26.0426 8.92171 26.2881 9.2819 26.5108 9.64908C26.6058 9.80571 26.8098 9.85584 26.9668 9.76077C27.1236 9.66559 27.1737 9.46152 27.0785 9.30477C26.8437 8.91784 26.5852 8.53815 26.3101 8.17633C26.1994 8.0304 25.9912 8.00202 25.8449 8.11309Z" fill="#92D050"/>
<path d="M24.3012 25.0467C23.9841 25.3378 23.6481 25.6155 23.3023 25.872C23.1549 25.9813 23.1241 26.1893 23.2334 26.3365C23.3428 26.4839 23.5507 26.5144 23.6978 26.4053C24.0621 26.1351 24.4163 25.8425 24.7503 25.536C24.8853 25.412 24.8944 25.2018 24.7704 25.0668C24.6462 24.9321 24.4364 24.9225 24.3012 25.0467Z" fill="#92D050"/>
<path d="M27.0132 21.44C26.8223 21.8252 26.6083 22.2048 26.377 22.5687C26.2787 22.7234 26.3245 22.9286 26.4793 23.027C26.6334 23.125 26.8387 23.08 26.9376 22.9247C27.1812 22.5412 27.4069 22.1409 27.6082 21.735C27.6896 21.5708 27.6225 21.3715 27.4583 21.29C27.2943 21.2085 27.0949 21.2759 27.0132 21.44Z" fill="#92D050"/>
<path d="M28.2354 17.0985C28.1972 17.5287 28.1357 17.9602 28.0527 18.3809C28.0172 18.5607 28.1343 18.7353 28.3142 18.7708C28.4918 18.8066 28.6684 18.6906 28.7041 18.5093C28.7917 18.0657 28.8565 17.6109 28.8969 17.1575C28.913 16.9748 28.7782 16.8135 28.5957 16.7973C28.4134 16.7832 28.2517 16.916 28.2354 17.0985Z" fill="#92D050"/>
<path d="M28.0991 13.8699C28.1307 14.0508 28.3032 14.1711 28.4835 14.1395C28.6641 14.1079 28.7849 13.9357 28.7531 13.7551C28.6746 13.3085 28.5712 12.8608 28.4456 12.4242C28.3948 12.2481 28.2116 12.1465 28.0346 12.1971C27.8584 12.2478 27.7567 12.4318 27.8075 12.608C27.9266 13.0219 28.0247 13.4465 28.0991 13.8699Z" fill="#92D050"/>
<path d="M7.02553 7.62124C7.15084 7.48736 7.14372 7.27724 7.00966 7.15211C6.87578 7.02699 6.66565 7.0338 6.54053 7.16799C6.2309 7.49936 5.93522 7.85093 5.66172 8.21311C5.55134 8.35949 5.58034 8.56768 5.72672 8.67818C5.87322 8.78855 6.08128 8.75936 6.19178 8.61318C6.45116 8.26955 6.73178 7.93574 7.02553 7.62124Z" fill="#92D050"/>
<path d="M22.4407 5.54443C22.8064 5.77055 23.1647 6.01912 23.5057 6.28299C23.6507 6.39487 23.859 6.36887 23.9715 6.22349C24.0837 6.07855 24.0571 5.87012 23.912 5.75774C23.5527 5.47987 23.1752 5.21805 22.7899 4.97962C22.634 4.88349 22.4295 4.9313 22.3329 5.08743C22.2364 5.24337 22.2847 5.44793 22.4407 5.54443Z" fill="#92D050"/>
<path d="M16.0485 28.2841C15.8168 28.2783 15.4141 28.2911 14.7043 28.2163C14.5201 28.1978 14.3586 28.3295 14.3392 28.5117C14.3201 28.6941 14.4522 28.8575 14.6346 28.8768C15.3838 28.9557 16.0141 28.9473 16.0486 28.9481C16.2319 28.9481 16.3806 28.7995 16.3806 28.6161C16.3805 28.4328 16.2318 28.2841 16.0485 28.2841Z" fill="#92D050"/>
<path d="M18.2328 3.91956C18.6553 3.99756 19.0792 4.09918 19.4926 4.22187C19.6706 4.27481 19.8538 4.17193 19.9053 3.99818C19.9575 3.82243 19.8573 3.63762 19.6816 3.58543C19.2457 3.45593 18.7988 3.34875 18.3531 3.26656C18.1735 3.23237 17.9998 3.3525 17.9665 3.53293C17.9333 3.71325 18.0524 3.88637 18.2328 3.91956Z" fill="#92D050"/>
<path d="M3.71714 15.8485C3.71939 15.6651 3.57252 15.5147 3.38921 15.5125C3.38789 15.5125 3.38646 15.5125 3.38502 15.5125C3.20364 15.5125 3.05546 15.6583 3.05321 15.8404C3.05383 15.8738 3.03889 16.4616 3.10771 17.2047C3.12358 17.3769 3.26833 17.5061 3.43789 17.5061C3.63333 17.5061 3.78677 17.3385 3.76877 17.1435C3.70152 16.4158 3.71839 15.9168 3.71714 15.8485Z" fill="#92D050"/>
<path d="M4.18019 12.6514C4.29757 12.2379 4.43876 11.8255 4.59976 11.4256C4.66819 11.2554 4.58582 11.0619 4.41576 10.9936C4.24507 10.9245 4.05182 11.0077 3.98376 11.1776C3.81401 11.5992 3.66519 12.0341 3.54151 12.4702C3.49144 12.6466 3.59388 12.8301 3.77026 12.8802C3.94901 12.9309 4.13063 12.8259 4.18019 12.6514Z" fill="#92D050"/>
<path d="M4.48874 20.292C4.42437 20.1202 4.23312 20.0332 4.06143 20.0974C3.88974 20.1616 3.80256 20.3529 3.86687 20.5247C4.02587 20.9496 4.20943 21.3708 4.41268 21.7767C4.49462 21.941 4.69506 22.0071 4.85799 21.925C5.02206 21.843 5.08849 21.6436 5.00631 21.4797C4.81381 21.0946 4.63949 20.695 4.48874 20.292Z" fill="#92D050"/>
<path d="M9.52089 5.56716C9.88677 5.33891 10.2682 5.12817 10.6544 4.94092C10.8194 4.86085 10.8881 4.66223 10.8082 4.49723C10.7283 4.33223 10.5297 4.26398 10.3645 4.34342C9.95727 4.54104 9.55527 4.7631 9.16945 5.00366C9.01402 5.10079 8.96652 5.30554 9.06345 5.46116C9.16008 5.61604 9.36445 5.66435 9.52089 5.56716Z" fill="#92D050"/>
<path d="M11.5637 27.4562C11.1628 27.3004 10.7653 27.1212 10.3822 26.9235C10.2195 26.8395 10.0191 26.9032 9.935 27.0663C9.85087 27.2292 9.91487 27.4294 10.0778 27.5136C10.4816 27.7219 10.9005 27.9109 11.3231 28.0751C11.4944 28.1418 11.6865 28.0566 11.7529 27.8859C11.8193 27.7151 11.7346 27.5227 11.5637 27.4562Z" fill="#92D050"/>
<path d="M6.8193 24.1547C6.69755 24.0179 6.4878 24.0052 6.35062 24.1273C6.21362 24.2491 6.2013 24.459 6.32324 24.596C6.62462 24.9348 6.94737 25.2616 7.28262 25.5674C7.41824 25.6909 7.62799 25.6814 7.75162 25.5458C7.87512 25.4103 7.86555 25.2004 7.73005 25.0768C7.4118 24.7866 7.10543 24.4763 6.8193 24.1547Z" fill="#92D050"/>
<path d="M13.7216 3.92758C14.1436 3.84815 14.5756 3.79027 15.0056 3.75577C15.1883 3.74121 15.3246 3.58121 15.3098 3.39833C15.2951 3.21533 15.1364 3.0754 14.9524 3.09408C14.4993 3.1304 14.0438 3.19133 13.5988 3.27502C13.4186 3.30908 13.3 3.48252 13.3339 3.66277C13.3678 3.84321 13.5418 3.96133 13.7216 3.92758Z" fill="#92D050"/>
<path d="M15.998 6.04004C10.5072 6.04004 6.04004 10.5091 6.04004 16.0024C6.04004 21.493 10.5072 25.9601 15.998 25.9601C21.491 25.9601 25.9601 21.493 25.9601 16.0024C25.9601 10.509 21.4911 6.04004 15.998 6.04004ZM15.998 25.296C10.8734 25.296 6.70404 21.1269 6.70404 16.0023C6.70404 10.8752 10.8734 6.70398 15.998 6.70398C21.125 6.70398 25.2961 10.8752 25.2961 16.0023C25.2961 21.1269 21.125 25.296 15.998 25.296Z" fill="#92D050"/>
<path d="M15.1597 13.6739C15.3431 13.6739 15.4917 13.5253 15.4917 13.3419C15.4917 13.1585 15.3431 13.0099 15.1597 13.0099H12.3315C12.1481 13.0099 11.9995 13.1585 11.9995 13.3419V18.6581C11.9995 18.8415 12.1481 18.9901 12.3315 18.9901C12.5149 18.9901 12.6635 18.8415 12.6635 18.6581V16.332H15.1597C15.3431 16.332 15.4917 16.1834 15.4917 16C15.4917 15.8166 15.3431 15.668 15.1597 15.668H12.6635V13.6739H15.1597Z" fill="#92D050"/>
<path d="M16.437 13.0099C16.2536 13.0099 16.105 13.1585 16.105 13.3419C16.105 13.5253 16.2536 13.6739 16.437 13.6739H18.0529V18.6581C18.0529 18.8415 18.2015 18.9901 18.3849 18.9901C18.5683 18.9901 18.7169 18.8415 18.7169 18.6581V13.6739H20.3329C20.5162 13.6739 20.6649 13.5253 20.6649 13.3419C20.6649 13.1585 20.5162 13.0099 20.3329 13.0099H16.437Z" fill="#92D050"/>
</g>
<defs>
<clipPath id="clip0_71_1208">
<rect width="32" height="32" fill="white"/>
</clipPath>
</defs>
</svg>
