<svg width="32" height="32" viewBox="0 0 32 32" fill="none" xmlns="http://www.w3.org/2000/svg">
<g clip-path="url(#clip0_71_1209)">
<path d="M15.625 0.505182C15.8571 0.371207 16.143 0.371207 16.375 0.505181L29.2314 7.92783C29.4635 8.06181 29.6064 8.3094 29.6064 8.57735V23.4226C29.6064 23.6906 29.4635 23.9382 29.2314 24.0722L16.375 31.4948C16.143 31.6288 15.8571 31.6288 15.625 31.4948L2.76859 24.0722C2.53654 23.9382 2.39359 23.6906 2.39359 23.4226V8.57735C2.39359 8.3094 2.53654 8.06181 2.76859 7.92783L15.625 0.505182Z" stroke="#92D050" stroke-width="0.5"/>
<path d="M11.3284 4.69717L14.1095 3.09151L14.2345 3.30801L15.625 2.50518C15.857 2.37121 16.1429 2.37121 16.375 2.50518L17.7655 3.30801L17.8905 3.09151L20.6716 4.69717L20.5466 4.91368L23.3277 6.51934L23.4527 6.30283L26.2338 7.90849L26.1088 8.125L27.4994 8.92783C27.7314 9.06181 27.8744 9.3094 27.8744 9.57735V11.183H28.1244V14.3943H27.8744V17.6057H28.1244V20.817H27.8744V22.4226C27.8744 22.6906 27.7314 22.9382 27.4994 23.0722L26.1088 23.875L26.2338 24.0915L23.4527 25.6972L23.3277 25.4807L20.5466 27.0863L20.6716 27.3028L17.8905 28.9085L17.7655 28.692L16.375 29.4948C16.143 29.6288 15.8571 29.6288 15.625 29.4948L14.2345 28.692L14.1095 28.9085L11.3284 27.3028L11.4534 27.0863L8.67228 25.4807L8.54728 25.6972L5.76619 24.0915L5.89119 23.875L4.50064 23.0722C4.26859 22.9382 4.12564 22.6906 4.12564 22.4226V20.817H3.87564V17.6057H4.12564V14.3943H3.87564V11.183H4.12564V9.57735C4.12564 9.3094 4.26859 9.06181 4.50064 8.92783L5.89119 8.125L5.76619 7.90849L8.54728 6.30283L8.67228 6.51934L11.4534 4.91368L11.3284 4.69717Z" stroke="#92D050" stroke-width="0.5" stroke-dasharray="3 3"/>
<path d="M15.625 4.50518C15.857 4.37121 16.1429 4.37121 16.375 4.50518L25.7673 9.92783C25.9994 10.0618 26.1423 10.3094 26.1423 10.5774V21.4226C26.1423 21.6906 25.9994 21.9382 25.7673 22.0722L16.375 27.4948C16.143 27.6288 15.8571 27.6288 15.625 27.4948L6.2327 22.0722C6.00065 21.9382 5.8577 21.6906 5.8577 21.4226V10.5774C5.8577 10.3094 6.00064 10.0618 6.2327 9.92783L15.625 4.50518Z" stroke="#92D050" stroke-width="0.5"/>
<path d="M13.0853 13.0099C12.9019 13.0099 12.7533 13.1585 12.7533 13.3419V17.6088L9.61821 13.1509C9.43302 12.8873 9.01465 13.0178 9.01465 13.3418V18.6581C9.01465 18.8414 9.16327 18.9901 9.34665 18.9901C9.53002 18.9901 9.67865 18.8414 9.67865 18.6581V14.3912L12.8137 18.8491C12.8966 18.9669 13.0463 19.0184 13.1854 18.9747C13.3233 18.931 13.4172 18.8029 13.4172 18.6581V13.3418C13.4173 13.1586 13.2686 13.0099 13.0853 13.0099Z" fill="#75A640"/>
<path d="M17.4805 13.6739C17.6639 13.6739 17.8125 13.5253 17.8125 13.3419C17.8125 13.1585 17.6639 13.0099 17.4805 13.0099H14.6523C14.4689 13.0099 14.3203 13.1585 14.3203 13.3419V18.6581C14.3203 18.8415 14.4689 18.9901 14.6523 18.9901C14.8357 18.9901 14.9843 18.8415 14.9843 18.6581V16.332H17.4805C17.6639 16.332 17.8125 16.1834 17.8125 16C17.8125 15.8166 17.6639 15.668 17.4805 15.668H14.9843V13.6739H17.4805Z" fill="#75A640"/>
<path d="M18.7573 13.0099C18.5739 13.0099 18.4253 13.1585 18.4253 13.3419C18.4253 13.5253 18.5739 13.6739 18.7573 13.6739H20.3732V18.6581C20.3732 18.8415 20.5219 18.9901 20.7052 18.9901C20.8886 18.9901 21.0372 18.8415 21.0372 18.6581V13.6739H22.6532C22.8365 13.6739 22.9852 13.5253 22.9852 13.3419C22.9852 13.1585 22.8365 13.0099 22.6532 13.0099H18.7573Z" fill="#75A640"/>
</g>
<defs>
<clipPath id="clip0_71_1209">
<rect width="32" height="32" fill="white"/>
</clipPath>
</defs>
</svg>
