<svg id="Icons" width="60" height="61" viewBox="0 0 60 60"  xmlns="http://www.w3.org/2000/svg"><path d="m59 26a10 10 0 0 1 -10 10h-38a10 10 0 0 1 -.95-19.95c-.02-.35-.05-.7-.05-1.05a13.992 13.992 0 0 1 24.98-8.67 8.982 8.982 0 0 1 14.49 9.69 10 10 0 0 1 9.53 9.98z" fill="#cae6ea"/><g fill="#99db5e"><path d="m34.733 53.9-3.852 4.681a1.14 1.14 0 0 1 -1.762 0l-3.852-4.681a1.161 1.161 0 0 1 .88-1.9h.853v-10a1 1 0 0 1 1-1h4a1 1 0 0 1 1 1v10h.853a1.161 1.161 0 0 1 .88 1.9z"/><path d="m17.733 52.9-3.852 4.681a1.14 1.14 0 0 1 -1.762 0l-3.852-4.681a1.161 1.161 0 0 1 .88-1.9h.853v-10a1 1 0 0 1 1-1h4a1 1 0 0 1 1 1v10h.853a1.161 1.161 0 0 1 .88 1.9z"/><path d="m51.734 52.9-3.853 4.681a1.141 1.141 0 0 1 -1.761 0l-3.852-4.681a1.161 1.161 0 0 1 .88-1.9h.852v-10a1 1 0 0 1 1-1h4a1 1 0 0 1 1 1v10h.852a1.162 1.162 0 0 1 .882 1.9z"/></g><path d="m21 17a2 2 0 0 1 2 2 1 1 0 0 0 2 0 4 4 0 0 0 -8 0v6a4 4 0 0 0 8 0 1 1 0 0 0 -2 0 2 2 0 0 1 -4 0v-6a2 2 0 0 1 2-2z" fill="#fff"/><path d="m31 15a4 4 0 0 0 -4 4v6a4 4 0 0 0 8 0v-6a4 4 0 0 0 -4-4zm2 10a2 2 0 0 1 -4 0v-6a2 2 0 0 1 4 0z" fill="#fff"/><path d="m42 27h-2.329c.209-.2.446-.4.68-.606 1.18-1.018 2.649-2.284 2.649-4.394a3 3 0 0 0 -3-3 3.156 3.156 0 0 0 -2.933 1.974.992.992 0 0 0 .561 1.277 1.008 1.008 0 0 0 1.3-.543 1.164 1.164 0 0 1 1.072-.708 1 1 0 0 1 1 1c0 1.193-.949 2.012-1.955 2.879s-2.045 1.764-2.045 3.121a1 1 0 0 0 1 1h4a1 1 0 0 0 0-2z" fill="#fff"/></svg>