<svg width="24" height="24" viewBox="0 0 24 24" fill="none" xmlns="http://www.w3.org/2000/svg">
<path fill-rule="evenodd" clip-rule="evenodd" d="M7.94783 20.4433H17.9948C17.9101 19.9104 17.6476 19.5292 17.3926 19.1587C17.1075 18.7439 16.8123 18.3152 16.8038 17.7197C16.7852 16.395 18.5073 14.7515 21.3376 14.3286V10.4712H2.66235C2.84659 13.6599 5.31775 15.6662 6.87705 16.1924C9.06416 16.93 9.37641 17.9876 9.36769 18.5524C9.35694 19.2663 8.83497 19.9414 7.94783 20.4433Z" fill="#989898"/>
<path fill-rule="evenodd" clip-rule="evenodd" d="M10.718 3.8471C10.7758 4.04725 10.8307 4.24968 10.8813 4.45297C10.9325 4.65752 10.9796 4.86242 11.0226 5.06562C11.0823 5.06011 11.1432 5.05071 11.2042 5.03742L20.2852 3.07358C20.5533 3.0155 20.7446 2.87589 20.8148 2.76294C20.8399 2.72238 20.8453 2.69334 20.8421 2.67946L20.5152 1.36264C20.5117 1.34892 20.4933 1.32573 20.4519 1.30168C20.3372 1.23488 20.1031 1.20093 19.8386 1.27501L10.8939 3.78613C10.8329 3.80324 10.7738 3.82381 10.718 3.8471Z" fill="#989898"/>
<path fill-rule="evenodd" clip-rule="evenodd" d="M3.96118 20.9509H21.0823V22.7667H3.96118V20.9509Z" fill="#989898"/>
<path fill-rule="evenodd" clip-rule="evenodd" d="M6.169 2.17514C6.04158 2.84485 6.17341 4.13246 6.51927 5.53682C6.86361 6.93314 7.34925 8.13321 7.78156 8.67118L10.739 7.93695C10.8697 7.25945 10.7378 5.97175 10.3886 4.57611C10.0376 3.17293 9.55194 1.97312 9.12607 1.44116L6.169 2.17514Z" fill="#989898"/>
</svg>
