<?xml version="1.0" encoding="iso-8859-1"?>
<!-- Generator: Adobe Illustrator 19.0.0, SVG Export Plug-In . SVG Version: 6.00 Build 0)  -->
<svg version="1.1" id="Capa_1" xmlns="http://www.w3.org/2000/svg" xmlns:xlink="http://www.w3.org/1999/xlink" x="0px" y="0px"
	width="60" height="61" viewBox="0 0 512 512" style="enable-background:new 0 0 512 512;" xml:space="preserve">
<path style="fill:#9C9DA0;" d="M433.627,226.917c-13.754-77.941-81.807-137.15-163.693-137.15
	c-57.773,0-108.654,29.477-138.446,74.207c-0.78-0.014-1.56-0.03-2.344-0.03C57.82,163.944,0,221.764,0,293.089
	c0,71.324,57.82,129.144,129.144,129.144c23.971,0,260.882,0,284.144,0c54.517,0,98.712-44.195,98.712-98.712
	C512,275.977,478.385,236.294,433.627,226.917z"/>
<path style="fill:#909091;" d="M433.627,226.917c-13.754-77.941-81.807-137.15-163.693-137.15c-9.341,0-18.498,0.782-27.419,2.263
	c69.273,11.508,124.07,65.843,136.253,134.886c44.758,9.377,78.373,49.06,78.373,96.604c0,54.517-44.195,98.712-98.712,98.712
	c27.877,0,48.746,0,54.859,0c54.517,0,98.712-44.195,98.712-98.712C512,275.977,478.385,236.294,433.627,226.917z"/>
<g>
	<path style="fill:#FFFFFF;" d="M163.793,227.076c-12.206,0-19.128,6.74-19.128,20.949v50.827c0,14.21,6.923,20.95,19.493,20.95
		c16.578,0,18.035-11.842,18.582-19.493c0.364-5.647,5.465-7.469,11.659-7.469c8.198,0,12.023,2.368,12.023,11.659
		c0,22.043-18.035,36.07-43.54,36.07c-22.954,0-41.9-11.295-41.9-41.718v-50.827c0-30.423,19.128-41.718,42.083-41.718
		c25.322,0,43.357,13.481,43.357,34.613c0,9.474-3.826,11.659-11.841,11.659c-6.741,0-11.659-2.004-11.841-7.469
		C182.375,239.464,181.1,227.076,163.793,227.076z"/>
	<path style="fill:#FFFFFF;" d="M226.459,298.853v-50.827c0-30.423,18.582-41.718,42.629-41.718s42.811,11.295,42.811,41.718v50.827
		c0,30.423-18.764,41.718-42.811,41.718C245.041,340.57,226.459,329.275,226.459,298.853z M288.216,248.025
		c0-14.392-7.287-20.949-19.128-20.949c-12.023,0-18.946,6.558-18.946,20.949v50.827c0,14.392,6.923,20.95,18.946,20.95
		c11.841,0,19.128-6.559,19.128-20.95V248.025z"/>
	<path style="fill:#FFFFFF;" d="M360.001,266.987c16.73,0,32.307,10.962,32.307,29.278c0,31.152-45.72,41.249-45.72,56.248v3.462
		h40.095c3.174,0,5.914,3.749,5.914,8.076s-2.74,8.365-5.914,8.365h-51.344c-3.317,0-8.221-2.308-8.221-5.913v-13.99
		c0-23.076,46.44-35.335,46.44-55.671c0-5.913-3.895-12.836-13.413-12.836c-7.067,0-12.836,3.749-12.836,12.691
		c0,3.462-3.605,6.923-9.808,6.923c-4.903,0-8.509-2.308-8.509-10.096C328.993,277.084,343.992,266.987,360.001,266.987z"/>
</g>
<g>
</g>
<g>
</g>
<g>
</g>
<g>
</g>
<g>
</g>
<g>
</g>
<g>
</g>
<g>
</g>
<g>
</g>
<g>
</g>
<g>
</g>
<g>
</g>
<g>
</g>
<g>
</g>
<g>
</g>
</svg>
