<svg width="24" height="24" viewBox="0 0 24 24" fill="currentColor" xmlns="http://www.w3.org/2000/svg">
<path d="M17.8868 11.625C17.8866 11.625 17.8866 11.625 17.8865 11.625C17.2526 11.625 16.6611 11.8327 16.2212 12.2098C15.7778 12.5899 15.5234 13.1128 15.5234 13.6445C15.5234 13.979 15.1275 14.375 14.793 14.375C14.228 14.375 13.7418 14.5665 13.3871 14.9287C12.9797 15.3446 12.7733 15.9535 12.7734 16.7383C12.7734 19.5578 15.0672 21.8516 17.8867 21.8516H17.8868C20.7062 21.8516 23 19.5577 23 16.7383C23 13.9188 20.7062 11.625 17.8868 11.625ZM19.3906 19.4454C19.0347 19.4454 18.7461 19.1568 18.7461 18.8009C18.7461 18.4449 19.0347 18.1563 19.3906 18.1563C19.7466 18.1563 20.0352 18.4449 20.0352 18.8009C20.0352 19.1569 19.7466 19.4454 19.3906 19.4454ZM20.9805 17.7266C20.6245 17.7266 20.3359 17.4381 20.3359 17.0821C20.3359 16.7262 20.6245 16.4376 20.9805 16.4376C21.3364 16.4376 21.625 16.7262 21.625 17.0821C21.625 17.4381 21.3364 17.7266 20.9805 17.7266Z"/>
<path d="M6.11332 11.625C6.1132 11.625 6.1132 11.625 6.11307 11.625C5.47915 11.625 4.88764 11.8327 4.44773 12.2098C4.00433 12.5899 3.75 13.1128 3.75 13.6445C3.75 13.979 3.35404 14.375 3.01953 14.375C2.45458 14.375 1.96839 14.5665 1.61364 14.9287C1.20634 15.3446 0.999871 15.9535 1 16.7383C1 19.5578 3.2938 21.8516 6.11328 21.8516H6.11332C8.9328 21.8516 11.2266 19.5577 11.2266 16.7383C11.2266 13.9188 8.93276 11.625 6.11332 11.625ZM7.70312 19.4454C7.34717 19.4454 7.05859 19.1568 7.05859 18.8009C7.05859 18.4449 7.34717 18.1563 7.70312 18.1563C8.05908 18.1563 8.34766 18.4449 8.34766 18.8009C8.34766 19.1569 8.05908 19.4454 7.70312 19.4454ZM9.9375 17.0821C9.9375 17.4381 9.64892 17.7266 9.29297 17.7266C8.93702 17.7266 8.64844 17.4381 8.64844 17.0821C8.64844 16.7262 8.93702 16.4376 9.29297 16.4376C9.64892 16.4376 9.9375 16.7262 9.9375 17.0821Z"/>
<path d="M17.1133 7.11337C17.1134 6.32846 16.9069 5.71959 16.4996 5.3037C16.1449 4.94147 15.6587 4.75 15.0938 4.75C14.7592 4.75 14.3633 4.35404 14.3633 4.01953C14.3633 3.48784 14.1089 2.96491 13.6656 2.5848C13.2256 2.20767 12.634 1.99996 12 2C9.18052 2 6.88672 4.2938 6.88672 7.11328C6.88672 9.93276 9.18052 12.2266 12 12.2266C14.8195 12.2266 17.1133 9.93276 17.1133 7.11337ZM13.5469 10.2501C13.1909 10.2501 12.9023 9.96151 12.9023 9.60555C12.9023 9.2496 13.1909 8.96102 13.5469 8.96102C13.9028 8.96102 14.1914 9.2496 14.1914 9.60555C14.1914 9.96155 13.9028 10.2501 13.5469 10.2501ZM15.1367 8.53134C14.7808 8.53134 14.4922 8.24276 14.4922 7.8868C14.4922 7.53085 14.7808 7.24227 15.1367 7.24227C15.4927 7.24227 15.7812 7.53085 15.7812 7.8868C15.7812 8.2428 15.4927 8.53134 15.1367 8.53134Z"/>
</svg>
