<svg width="61" height="60" viewBox="0 0 61 60" fill="none" xmlns="http://www.w3.org/2000/svg">
<g clip-path="url(#clip0_93_742)">
<path d="M0.616872 52.9054L3.2471 45.8915C4.38082 42.8682 7.27108 40.8652 10.4999 40.8652H14.1216L5.93406 55.3522H2.31233C1.0481 55.3522 0.172848 54.0894 0.616872 52.9054Z" fill="#81808C"/>
<path d="M30.5 40.8652H50.5L42.3125 55.3522H38.6875L30.5 40.8652Z" fill="#81808C"/>
<path d="M4.23871 52.9054L6.86894 45.8915C8.00266 42.8682 10.8929 40.8652 14.1217 40.8652H30.5L22.3125 55.3522H5.93417C4.66994 55.3522 3.79469 54.0894 4.23871 52.9054Z" fill="#9295A1"/>
<path d="M0.616872 34.7968L3.2471 27.7828C4.38082 24.7595 7.27108 22.7566 10.4999 22.7566H14.1216L5.93406 37.2435H2.31233C1.0481 37.2435 0.172848 35.9807 0.616872 34.7968Z" fill="#81808C"/>
<path d="M30.5 22.7566H50.5L42.3125 37.2435H38.6875L30.5 22.7566Z" fill="#81808C"/>
<path d="M4.23871 34.7968L6.86894 27.7828C8.00266 24.7595 10.8929 22.7566 14.1217 22.7566H30.5L22.3125 37.2435H5.93417C4.66994 37.2435 3.79469 35.9807 4.23871 34.7968Z" fill="#9295A1"/>
<path d="M40.617 34.7968L43.2472 27.7828C44.381 24.7595 47.2712 22.7566 50.5 22.7566L45.8845 37.2435H42.3125C41.0482 37.2435 40.173 35.9806 40.617 34.7968Z" fill="#9295A1"/>
<path d="M44.1263 34.9992L45.905 27.7828C46.6233 24.7595 48.4544 22.7566 50.5 22.7566C53.7289 22.7566 56.6191 24.7595 57.7528 27.7828L60.383 34.7968C60.827 35.9807 59.9519 37.2435 58.6875 37.2435H45.8844C44.7089 37.2435 43.8449 36.1407 44.1263 34.9992Z" fill="#9EA5AD"/>
<path d="M20.617 52.9054L23.2472 45.8915C24.381 42.8682 27.2712 40.8652 30.5 40.8652L25.8845 55.3522H22.3125C21.0482 55.3522 20.1731 54.0893 20.617 52.9054Z" fill="#9EA5AD"/>
<path d="M24.1263 53.1079L25.9051 45.8915C26.6234 42.8682 28.4544 40.8652 30.5001 40.8652C33.729 40.8652 36.6191 42.8682 37.7529 45.8915L40.3831 52.9054C40.827 54.0893 39.9519 55.3522 38.6875 55.3522H25.8844C24.709 55.3522 23.8451 54.2493 24.1263 53.1079Z" fill="#AEB9BF"/>
<path d="M40.617 52.9054L43.2472 45.8915C44.381 42.8682 47.2712 40.8652 50.5 40.8652L45.8845 55.3522H42.3125C41.0482 55.3522 40.173 54.0893 40.617 52.9054Z" fill="#9295A1"/>
<path d="M44.1263 53.1079L45.905 45.8915C46.6233 42.8682 48.4544 40.8652 50.5 40.8652C53.7289 40.8652 56.6191 42.8682 57.7528 45.8915L60.383 52.9054C60.827 54.0894 59.9519 55.3522 58.6875 55.3522H45.8844C44.7089 55.3522 43.8449 54.2493 44.1263 53.1079Z" fill="#9EA5AD"/>
<path d="M10.6168 16.6882L13.247 9.67419C14.3807 6.65089 17.271 4.64795 20.4999 4.64795H24.1216L15.9341 19.1349H12.3123C11.048 19.1349 10.1729 17.8721 10.6168 16.6882Z" fill="#81808C"/>
<path d="M14.2387 16.6882L16.8689 9.67419C18.0027 6.65089 20.8929 4.64795 24.1218 4.64795H40.5L32.3125 19.1349H15.9342C14.6699 19.1349 13.7948 17.8721 14.2387 16.6882Z" fill="#9295A1"/>
<path d="M30.6169 16.6882L33.2471 9.67419C34.381 6.65089 37.2711 4.64795 40.5 4.64795L35.8845 19.1349H32.3125C31.0481 19.1349 30.173 17.872 30.6169 16.6882Z" fill="#9EA5AD"/>
<path d="M34.1263 16.8906L35.9051 9.67419C36.6234 6.65089 38.4544 4.64795 40.5001 4.64795C43.729 4.64795 46.6191 6.65089 47.7529 9.67419L50.3831 16.6882C50.827 17.872 49.9519 19.1349 48.6875 19.1349H35.8844C34.709 19.1349 33.8451 18.0321 34.1263 16.8906Z" fill="#AEB9BF"/>
<path d="M20.617 34.7968L23.2472 27.7828C24.381 24.7595 27.2712 22.7566 30.5 22.7566L25.8845 37.2435H22.3125C21.0482 37.2435 20.1731 35.9806 20.617 34.7968Z" fill="#9EA5AD"/>
<path d="M24.1263 34.9992L25.9051 27.7828C26.6234 24.7595 28.4544 22.7566 30.5001 22.7566C33.729 22.7566 36.6191 24.7595 37.7529 27.7828L40.3831 34.7968C40.827 35.9806 39.9519 37.2435 38.6875 37.2435H25.8844C24.709 37.2435 23.8451 36.1407 24.1263 34.9992Z" fill="#AEB9BF"/>
<path d="M10.5804 52.6358C10.0804 52.6358 9.67497 52.2304 9.67497 51.7304C9.67497 51.2303 10.0804 50.825 10.5804 50.825C11.0805 50.825 11.4858 51.2303 11.4858 51.7304C11.4858 52.2304 11.0805 52.6358 10.5804 52.6358Z" fill="#81808C"/>
<path d="M16.8783 52.6358C16.3782 52.6358 15.9728 52.2304 15.9728 51.7304C15.9728 51.2303 16.3782 50.825 16.8783 50.825C17.3783 50.825 17.7837 51.2303 17.7837 51.7304C17.7837 52.2304 17.3783 52.6358 16.8783 52.6358Z" fill="#81808C"/>
<path d="M15.0672 49.0142C14.5672 49.0142 14.1618 48.6089 14.1618 48.1088C14.1618 47.6087 14.5672 47.2034 15.0672 47.2034C15.5673 47.2034 15.9727 47.6087 15.9727 48.1088C15.9727 48.6089 15.5673 49.0142 15.0672 49.0142Z" fill="#81808C"/>
<path d="M4.67953 34.5272C4.17947 34.5272 3.7741 34.1218 3.7741 33.6217C3.7741 33.1217 4.17947 32.7163 4.67953 32.7163C5.17958 32.7163 5.58496 33.1217 5.58496 33.6217C5.58496 34.1218 5.17958 34.5272 4.67953 34.5272Z" fill="#74727D"/>
<path d="M16.8783 34.5274C16.3782 34.5274 15.9728 34.122 15.9728 33.622C15.9728 33.1219 16.3782 32.7166 16.8783 32.7166C17.3783 32.7166 17.7837 33.1219 17.7837 33.622C17.7837 34.122 17.3783 34.5274 16.8783 34.5274Z" fill="#81808C"/>
<path d="M10.5804 30.9056C10.0804 30.9056 9.67497 30.5002 9.67497 30.0002C9.67497 29.5001 10.0804 29.0947 10.5804 29.0947C11.0805 29.0947 11.4858 29.5001 11.4858 30.0002C11.4858 30.5002 11.0805 30.9056 10.5804 30.9056Z" fill="#81808C"/>
<path d="M12.3914 27.2838C11.8914 27.2838 11.486 26.8784 11.486 26.3783C11.486 25.8783 11.8914 25.4729 12.3914 25.4729C12.8915 25.4729 13.2969 25.8783 13.2969 26.3783C13.2969 26.8784 12.8915 27.2838 12.3914 27.2838Z" fill="#81808C"/>
<path d="M26.8783 16.4188C26.3782 16.4188 25.9728 16.0134 25.9728 15.5133C25.9728 15.0133 26.3782 14.6079 26.8783 14.6079C27.3783 14.6079 27.7837 15.0133 27.7837 15.5133C27.7837 16.0134 27.3783 16.4188 26.8783 16.4188Z" fill="#81808C"/>
<path d="M25.0672 12.7969C24.5672 12.7969 24.1618 12.3916 24.1618 11.8915C24.1618 11.3915 24.5672 10.9861 25.0672 10.9861C25.5673 10.9861 25.9727 11.3915 25.9727 11.8915C25.9727 12.3916 25.5673 12.7969 25.0672 12.7969Z" fill="#81808C"/>
</g>
<defs>
<clipPath id="clip0_93_742">
<rect width="60" height="60" fill="white" transform="matrix(-1 0 0 1 60.5 0)"/>
</clipPath>
</defs>
</svg>
