<svg width="48" height="48" viewBox="0 0 48 48" fill="none" xmlns="http://www.w3.org/2000/svg">
<path d="M27.75 3.11475V2.25H20.25V3.11475C20.25 4.70823 18.9582 6 17.3647 6C15.9897 5.99984 14.8058 6.97056 14.5365 8.319L14.25 9.75L24.0518 10.6875L33.75 9.75L33.4635 8.319C33.1942 6.97056 32.0103 5.99984 30.6353 6C29.0418 6 27.75 4.70823 27.75 3.11475Z" fill="#285680"/>
<path d="M11.25 9.75H36.75C39.6495 9.75 42 12.1005 42 15V16.125H6V15C6 12.1005 8.35051 9.75 11.25 9.75Z" fill="#3B97D3"/>
<path d="M29.25 3H18.75C18.3358 3 18 2.66421 18 2.25C18 1.83579 18.3358 1.5 18.75 1.5H29.25C29.6642 1.5 30 1.83579 30 2.25C30 2.66421 29.6642 3 29.25 3Z" fill="#3B97D3"/>
<path d="M7.5 17.25H40.5V44.25H7.5V17.25Z" fill="#285680"/>
<path d="M42 42.75H6C5.17157 42.75 4.5 43.4216 4.5 44.25C4.5 45.0784 5.17157 45.75 6 45.75H42C42.8284 45.75 43.5 45.0784 43.5 44.25C43.5 43.4216 42.8284 42.75 42 42.75Z" fill="#4482C3"/>
<path d="M42 15.75H6C5.17157 15.75 4.5 16.4216 4.5 17.25C4.5 18.0784 5.17157 18.75 6 18.75H42C42.8284 18.75 43.5 18.0784 43.5 17.25C43.5 16.4216 42.8284 15.75 42 15.75Z" fill="#4482C3"/>
<path d="M24 21.75C30.2132 21.75 35.25 26.7868 35.25 33V42.75H12.75V33C12.75 26.7868 17.7868 21.75 24 21.75Z" fill="#35495E"/>
<path d="M10.5 23.25C10.0858 23.25 9.75 22.9142 9.75 22.5V21.75C9.75 21.3358 10.0858 21 10.5 21C10.9142 21 11.25 21.3358 11.25 21.75V22.5C11.25 22.9142 10.9142 23.25 10.5 23.25Z" fill="#9FC9D3"/>
<path d="M13.5 23.25C13.0858 23.25 12.75 22.9142 12.75 22.5V21.75C12.75 21.3358 13.0858 21 13.5 21C13.9142 21 14.25 21.3358 14.25 21.75V22.5C14.25 22.9142 13.9142 23.25 13.5 23.25Z" fill="#9FC9D3"/>
<path d="M34.5 23.25C34.0858 23.25 33.75 22.9142 33.75 22.5V21.75C33.75 21.3358 34.0858 21 34.5 21C34.9142 21 35.25 21.3358 35.25 21.75V22.5C35.25 22.9142 34.9142 23.25 34.5 23.25Z" fill="#9FC9D3"/>
<path d="M37.5 23.25C37.0858 23.25 36.75 22.9142 36.75 22.5V21.75C36.75 21.3358 37.0858 21 37.5 21C37.9142 21 38.25 21.3358 38.25 21.75V22.5C38.25 22.9142 37.9142 23.25 37.5 23.25Z" fill="#9FC9D3"/>
<path d="M31.5 34.875C31.6011 39.1197 28.2446 42.644 24 42.75C19.7554 42.644 16.399 39.1197 16.5 34.875C16.4532 31.9713 18.1378 29.318 20.7855 28.125C20.7855 28.125 20.25 31.5 23.4645 31.5C27.75 31.5 26.1428 24.75 26.1428 24.75C29.4565 27.0639 31.4511 30.8337 31.5 34.875Z" fill="#F0C419"/>
<path d="M24 42.75C20.2267 42.75 19.4715 38.6588 20.9812 37.2953C20.9812 37.2953 24.7545 40.023 26.2635 35.25C27.1867 36.1495 27.7275 37.3705 27.7732 38.6587C27.8495 40.8262 26.1665 42.651 24 42.75Z" fill="#F29C1F"/>
</svg>
