<svg width="48" height="48" viewBox="0 0 48 48" fill="none" xmlns="http://www.w3.org/2000/svg">
<path d="M11.0442 47.4862L16.6293 26.8125L9.99316 26.28L7.72192 47.2302C7.67724 47.6411 7.99914 48 8.41296 48H10.3733C10.6871 48 10.9622 47.7894 11.0442 47.4862Z" fill="#537983"/>
<path d="M37.7278 47.4862L32.1431 26.8125L38.7788 26.28L41.05 47.2302C41.0947 47.6411 40.7728 48 40.3594 48H38.399C38.0848 48 37.8098 47.7894 37.7278 47.4862Z" fill="#537983"/>
<path d="M25.9773 44.8653H22.5382C21.7095 44.8653 21.0371 44.1933 21.0371 43.3642V38.6819H27.4784V43.3642C27.4784 44.1933 26.8064 44.8653 25.9773 44.8653Z" fill="#DEECF1"/>
<path d="M7.36084 3.34717V29.9271C7.36084 30.798 7.74353 31.6249 8.40747 32.1888L21.0392 41.9883H27.4805L40.1085 32.1888C40.7721 31.6249 41.1548 30.798 41.1548 29.9271V3.34717C41.1548 1.49854 39.6562 0 37.8076 0H10.708C8.85974 0 7.36084 1.49854 7.36084 3.34717Z" fill="#DEECF1"/>
<path d="M37.8077 0H35.8115C37.1222 0.578979 38.167 1.94568 38.167 3.34717V29.9271C38.167 30.798 37.7843 31.6249 37.1207 32.1888L35.1674 33.7046L24.4927 41.9883H27.4806L40.1086 32.1888C40.7722 31.6252 41.1549 30.7983 41.1549 29.9275V3.34717C41.1549 1.49854 39.656 0 37.8077 0Z" fill="#A8D3D8"/>
<path d="M5 4.84375C5 5.71167 5.70386 6.41516 6.57178 6.41516H41.9441C42.8124 6.41516 43.5159 5.71167 43.5159 4.84375C43.5159 3.97547 42.812 3.27197 41.9441 3.27197H6.57178C5.70349 3.27197 5 3.97583 5 4.84375Z" fill="#8EBAC5"/>
<path d="M24.4924 41.9883H24.4902V44.8652H25.9771C26.8062 44.8652 27.4781 44.1932 27.4781 43.3641V41.9883H24.4924Z" fill="#A8D3D8"/>
<path d="M8.40771 32.1887L21.0394 41.9882H27.4807L40.1088 32.1887H8.40771Z" fill="#8EBAC5"/>
<path d="M27.4806 41.9882L40.1086 32.1887H37.1207L35.1674 33.7045L24.4927 41.9882H27.4806Z" fill="#7CA1B1"/>
<g clip-path="url(#clip0_571_471)">
<path d="M22.0007 18.966C22 15 23.3333 12.3333 26 11C26.3333 15 30 16.3333 30 21C30 22.5913 29.3679 24.1174 28.2426 25.2426C27.1174 26.3679 25.5913 27 24 27C22.4087 27 20.8826 26.3679 19.7574 25.2426C18.6321 24.1174 18 22.5913 18 21C18 18.6667 18.6667 17.6667 20 16.3333C20 18.3333 22.0007 18.966 22.0007 18.966Z" fill="#F16923"/>
<path opacity="0.1" d="M24.0001 26.8332C21.3161 26.8332 19.0435 25.0892 18.2415 22.6746C18.9668 25.1726 21.2681 26.9999 24.0001 26.9999C26.7321 26.9999 29.0335 25.1726 29.7588 22.6746C28.9568 25.0892 26.6841 26.8332 24.0001 26.8332Z" fill="#010101"/>
<path d="M27 22.6666C27 23.4622 26.6839 24.2253 26.1213 24.7879C25.5587 25.3505 24.7956 25.6666 24 25.6666C23.2044 25.6666 22.4413 25.3505 21.8787 24.7879C21.3161 24.2253 21 23.4622 21 22.6666C21 21.5486 21.3333 20.9719 22 20.3333C22 21.6666 23 21.9999 23 21.9999C23 20.0999 23.6667 18.9719 25 18.3333C25.1667 20.2499 27 20.8753 27 22.6666Z" fill="#FDB816"/>
<path opacity="0.2" d="M23 22.1666C23 20.2666 23.6667 19.1386 25 18.4999C25.1633 20.3786 26.924 21.0193 26.9933 22.7313C26.994 22.7093 27 22.6886 27 22.6666C27 20.8746 25.1667 20.2499 25 18.3333C23.6667 18.9719 23 20.0999 23 21.9999C23 21.9999 22 21.6666 22 20.3333C21.3333 20.9719 21 21.5486 21 22.6666C21 22.6826 21.0047 22.6973 21.0047 22.7133C21.0293 21.6766 21.358 21.1146 22 20.4999C22 21.8333 23 22.1666 23 22.1666V22.1666Z" fill="white"/>
<path opacity="0.1" d="M24 25.5C23.213 25.4995 22.4577 25.1895 21.8973 24.637C21.3368 24.0844 21.0162 23.3336 21.0047 22.5466C21.004 22.588 21 22.624 21 22.6666C21 23.4623 21.3161 24.2253 21.8787 24.788C22.4413 25.3506 23.2044 25.6666 24 25.6666C24.7956 25.6666 25.5587 25.3506 26.1213 24.788C26.6839 24.2253 27 23.4623 27 22.6666C27 22.6313 26.9947 22.5993 26.9933 22.5646C26.9775 23.3482 26.6552 24.0943 26.0956 24.6431C25.536 25.1918 24.7837 25.4994 24 25.5V25.5Z" fill="#010101"/>
<path opacity="0.2" d="M22.0007 19.1327C22 15.1667 23.3333 12.5 26 11.1667C26.3313 15.1413 29.95 16.4867 29.996 21.082C29.996 21.0547 30 21.028 30 21C30 16.3333 26.3333 15 26 11C23.3333 12.3333 22 15 22.0007 18.966C22.0007 18.966 20 18.3333 20 16.3333C18.6667 17.6667 18 18.6667 18 21C18 21.024 18.0033 21.048 18.0033 21.072C18.0233 18.81 18.6867 17.8133 20 16.5C20 18.5 22.0007 19.1327 22.0007 19.1327Z" fill="white"/>
<path d="M22.0007 18.966C22 15 23.3333 12.3333 26 11C26.3333 15 30 16.3333 30 21C30 22.5913 29.3679 24.1174 28.2426 25.2426C27.1174 26.3679 25.5913 27 24 27C22.4087 27 20.8826 26.3679 19.7574 25.2426C18.6321 24.1174 18 22.5913 18 21C18 18.6667 18.6667 17.6667 20 16.3333C20 18.3333 22.0007 18.966 22.0007 18.966Z" fill="url(#paint0_linear_571_471)"/>
</g>
<defs>
<linearGradient id="paint0_linear_571_471" x1="19.2705" y1="16.6392" x2="30.2647" y2="21.7659" gradientUnits="userSpaceOnUse">
<stop stop-color="white" stop-opacity="0.2"/>
<stop offset="1" stop-color="white" stop-opacity="0"/>
</linearGradient>
<clipPath id="clip0_571_471">
<rect width="16" height="16" fill="white" transform="translate(16 11)"/>
</clipPath>
</defs>
</svg>
