<svg width="48" height="48" viewBox="0 0 48 48" fill="none" xmlns="http://www.w3.org/2000/svg">
<g clip-path="url(#clip0_462_1402)">
<path d="M34.1408 4.34607L24 21.4754H37.0382V5.07042C37.0382 4.67038 36.7139 4.34607 36.3139 4.34607H34.1408Z" fill="#9EA5AD"/>
<path d="M10.9618 5.07042V21.4754H34.1408V4.34607H11.6861C11.2861 4.34607 10.9618 4.67038 10.9618 5.07042Z" fill="#AEB9BF"/>
<path d="M29.7948 15.9356C32.195 15.9356 34.1408 13.9898 34.1408 11.5895C34.1408 9.18927 32.195 7.24347 29.7948 7.24347C27.3945 7.24347 25.4487 9.18927 25.4487 11.5895C25.4487 13.9898 27.3945 15.9356 29.7948 15.9356Z" fill="#E5F9FF"/>
<path d="M18.2052 15.9356C20.6055 15.9356 22.5513 13.9898 22.5513 11.5895C22.5513 9.18927 20.6055 7.24347 18.2052 7.24347C15.805 7.24347 13.8592 9.18927 13.8592 11.5895C13.8592 13.9898 15.805 15.9356 18.2052 15.9356Z" fill="#E5F9FF"/>
<path d="M39.9356 18.833L24 40.886H42.833V19.5574C42.833 19.1573 42.5087 18.833 42.1087 18.833H39.9356Z" fill="#BFCFD6"/>
<path d="M5.167 19.5574V40.886H39.9356V18.833H5.89135C5.49132 18.833 5.167 19.1573 5.167 19.5574Z" fill="#CDE3EA"/>
<path d="M37.0382 27.9945V25.0971H34.1408L31.2435 30.8919L37.0382 27.9945Z" fill="#81808C"/>
<path d="M34.1408 25.0971H10.9618V27.9945L34.1408 33.7893V25.0971Z" fill="#9295A1"/>
<path d="M28.3461 33.7893H37.0382V27.9945H34.1408L28.3461 33.7893Z" fill="#FF9F5E"/>
<path d="M10.9618 27.9945H34.1408V33.7893H10.9618V27.9945Z" fill="#FFB963"/>
<path d="M46.7271 40.5808L46.3028 40.1565H1.6973L1.27302 40.5808C0.486478 41.3673 7.62939e-06 42.4538 7.62939e-06 43.6539C7.62939e-06 46.0542 1.94579 48 4.34608 48H43.6539C46.0542 48 48 46.0542 48 43.6539C48 42.4538 47.5135 41.3673 46.7271 40.5808Z" fill="#65636E"/>
<path d="M3.74545 45.1026H44.2537C46.835 45.1026 48.1281 41.9817 46.3028 40.1565L37.0383 30.892H10.9619L1.69729 40.1565C-0.127966 41.9817 1.16407 45.1026 3.74545 45.1026Z" fill="#74727D"/>
<path d="M16.7565 1.44869V11.5895C16.7565 12.3896 17.4052 13.0382 18.2052 13.0382C19.0053 13.0382 19.6539 12.3896 19.6539 11.5895V1.44869C19.6539 0.648628 19.0053 0 18.2052 0C17.4052 0 16.7565 0.648628 16.7565 1.44869Z" fill="#CDE3EA"/>
<path d="M28.3461 1.44869V11.5895C28.3461 12.3896 28.9947 13.0382 29.7948 13.0382C30.5948 13.0382 31.2435 12.3896 31.2435 11.5895V1.44869C31.2435 0.648628 30.5948 0 29.7948 0C28.9947 0 28.3461 0.648628 28.3461 1.44869Z" fill="#CDE3EA"/>
<path d="M12.7794 36.6693C13.5795 36.6693 14.2281 36.0207 14.2281 35.2206C14.2281 34.4205 13.5795 33.7719 12.7794 33.7719C11.9793 33.7719 11.3307 34.4205 11.3307 35.2206C11.3307 36.0207 11.9793 36.6693 12.7794 36.6693Z" fill="#81808C"/>
<path d="M24 40.886C24.8001 40.886 25.4487 40.2374 25.4487 39.4373C25.4487 38.6372 24.8001 37.9886 24 37.9886C23.1999 37.9886 22.5513 38.6372 22.5513 39.4373C22.5513 40.2374 23.1999 40.886 24 40.886Z" fill="#81808C"/>
<path d="M4.34608 45.1026C5.14617 45.1026 5.79477 44.454 5.79477 43.6539C5.79477 42.8538 5.14617 42.2052 4.34608 42.2052C3.54599 42.2052 2.89738 42.8538 2.89738 43.6539C2.89738 44.454 3.54599 45.1026 4.34608 45.1026Z" fill="#81808C"/>
<path d="M10.1408 45.1026C10.9409 45.1026 11.5895 44.454 11.5895 43.6539C11.5895 42.8538 10.9409 42.2052 10.1408 42.2052C9.34076 42.2052 8.69215 42.8538 8.69215 43.6539C8.69215 44.454 9.34076 45.1026 10.1408 45.1026Z" fill="#81808C"/>
<path d="M35.2206 36.6693C36.0207 36.6693 36.6693 36.0207 36.6693 35.2206C36.6693 34.4205 36.0207 33.7719 35.2206 33.7719C34.4205 33.7719 33.7719 34.4205 33.7719 35.2206C33.7719 36.0207 34.4205 36.6693 35.2206 36.6693Z" fill="#81808C"/>
<path d="M43.6539 45.1026C44.454 45.1026 45.1026 44.454 45.1026 43.6539C45.1026 42.8538 44.454 42.2052 43.6539 42.2052C42.8538 42.2052 42.2052 42.8538 42.2052 43.6539C42.2052 44.454 42.8538 45.1026 43.6539 45.1026Z" fill="#81808C"/>
<path d="M29.4258 36.6693C30.2259 36.6693 30.8745 36.0207 30.8745 35.2206C30.8745 34.4205 30.2259 33.7719 29.4258 33.7719C28.6257 33.7719 27.9771 34.4205 27.9771 35.2206C27.9771 36.0207 28.6257 36.6693 29.4258 36.6693Z" fill="#81808C"/>
<path d="M17.1255 35.945C17.5255 35.945 17.8498 35.6207 17.8498 35.2206C17.8498 34.8206 17.5255 34.4963 17.1255 34.4963C16.7254 34.4963 16.4011 34.8206 16.4011 35.2206C16.4011 35.6207 16.7254 35.945 17.1255 35.945Z" fill="#9295A1"/>
<path d="M18.5742 38.8423C18.9742 38.8423 19.2985 38.518 19.2985 38.118C19.2985 37.7179 18.9742 37.3936 18.5742 37.3936C18.1741 37.3936 17.8498 37.7179 17.8498 38.118C17.8498 38.518 18.1741 38.8423 18.5742 38.8423Z" fill="#9295A1"/>
<path d="M10.1408 40.0322C10.5409 40.0322 10.8652 39.7079 10.8652 39.3078C10.8652 38.9078 10.5409 38.5835 10.1408 38.5835C9.7408 38.5835 9.4165 38.9078 9.4165 39.3078C9.4165 39.7079 9.7408 40.0322 10.1408 40.0322Z" fill="#9295A1"/>
<path d="M33.5131 44.3783C33.9131 44.3783 34.2374 44.054 34.2374 43.6539C34.2374 43.2539 33.9131 42.9296 33.5131 42.9296C33.113 42.9296 32.7887 43.2539 32.7887 43.6539C32.7887 44.054 33.113 44.3783 33.5131 44.3783Z" fill="#9295A1"/>
<path d="M39.3078 44.3783C39.7079 44.3783 40.0322 44.054 40.0322 43.6539C40.0322 43.2539 39.7079 42.9296 39.3078 42.9296C38.9078 42.9296 38.5835 43.2539 38.5835 43.6539C38.5835 44.054 38.9078 44.3783 39.3078 44.3783Z" fill="#9295A1"/>
<path d="M37.8592 41.4809C38.2592 41.4809 38.5835 41.1566 38.5835 40.7565C38.5835 40.3565 38.2592 40.0322 37.8592 40.0322C37.4591 40.0322 37.1348 40.3565 37.1348 40.7565C37.1348 41.1566 37.4591 41.4809 37.8592 41.4809Z" fill="#9295A1"/>
</g>
<defs>
<clipPath id="clip0_462_1402">
<rect width="48" height="48" fill="white"/>
</clipPath>
</defs>
</svg>
