<svg width="48" height="48" viewBox="0 0 48 48" fill="none" xmlns="http://www.w3.org/2000/svg">
<g clip-path="url(#clip0_71_3528)">
<path d="M22.3574 5.62939H30.5419V8.80714H22.3574V5.62939Z" fill="#F1F1F4"/>
<path d="M39.7647 47.9997C40.9986 47.9997 41.9988 46.9995 41.9988 45.7657V39.548H37.5308V45.7657C37.5308 46.9996 38.5309 47.9997 39.7647 47.9997Z" fill="#756E78"/>
<path d="M40.6241 47.8286C40.3605 47.9388 40.0698 47.9995 39.7656 47.9995C38.5313 47.9995 37.5308 46.999 37.5308 45.7656V39.5479H39.2479V45.7656C39.2479 46.6957 39.8157 47.4925 40.6241 47.8286Z" fill="#665E66"/>
<path d="M24.589 4.84444V9.59222C24.589 12.2675 22.4198 14.4367 19.7446 14.4367H10.7724L8.93408 7.64475L10.7724 0H19.7446C22.4198 0 24.589 2.16919 24.589 4.84444Z" fill="#F1F1F4"/>
<path d="M24.5891 4.84448V9.59226C24.5891 12.2675 22.4199 14.4367 19.7447 14.4367L15.0871 16.1165L10.7725 14.4367L8.93359 7.64423L9.53912 5.12742L10.7724 9.68301H19.7446C22.4179 9.68301 24.5862 7.51683 24.5891 4.84448Z" fill="#E2D8EC"/>
<path d="M10.7727 0V14.4367H9.80684C7.13159 14.4367 4.9624 12.2675 4.9624 9.59222V4.84444C4.9624 2.16919 7.13159 0 9.80684 0L10.7727 0Z" fill="#DF6B57"/>
<path d="M10.7727 9.68301V14.4366H9.80684C7.13159 14.4366 4.9624 12.2674 4.9624 9.59217V4.84448C4.96531 7.51683 7.13347 9.68301 9.80684 9.68301H10.7727Z" fill="#DA4A54"/>
<path d="M37.2273 14.4364C38.2842 14.4364 39.141 13.5796 39.141 12.5227C39.141 11.4658 38.2842 10.609 37.2273 10.609C38.2842 10.609 39.141 9.7522 39.141 8.69526C39.141 7.63832 38.2842 6.78154 37.2273 6.78154C38.2842 6.78154 39.141 5.92476 39.141 4.86782C39.141 3.81088 38.2842 2.9541 37.2273 2.9541H30.5685C29.5116 2.9541 28.6548 3.81088 28.6548 4.86782C28.6548 5.92476 29.5116 6.78154 30.5685 6.78154C29.5116 6.78154 28.6548 7.63832 28.6548 8.69526C28.6548 9.7522 29.5116 10.609 30.5685 10.609C29.5116 10.609 28.6548 11.4658 28.6548 12.5227C28.6548 13.5796 29.5116 14.4364 30.5685 14.4364L34.0848 15.4256L37.2273 14.4364Z" fill="#756E78"/>
<path d="M32.0341 8.69543C32.0341 9.75302 32.8908 10.6096 33.9483 10.6096C32.8908 10.6096 32.0341 11.4662 32.0341 12.5229C32.0341 13.5804 32.8908 14.4371 33.9483 14.4371H30.569C29.5115 14.4371 28.6548 13.5804 28.6548 12.5229C28.6548 11.4662 29.5115 10.6096 30.569 10.6096C29.5115 10.6096 28.6548 9.75293 28.6548 8.69543C28.6548 7.63887 29.5115 6.78218 30.569 6.78218C29.5115 6.78218 28.6548 5.92558 28.6548 4.86902C28.6548 3.81143 29.5115 2.95483 30.569 2.95483H33.9483C32.8908 2.95483 32.0341 3.81152 32.0341 4.86902C32.0341 5.92558 32.8908 6.78218 33.9483 6.78218C32.8908 6.78218 32.0341 7.63887 32.0341 8.69543Z" fill="#665E66"/>
<path d="M37.2272 43.313H10.7725C4.82306 43.313 0 38.49 0 32.5405V25.2091C0 19.2596 4.82306 14.4365 10.7725 14.4365H34.8665H37.2273C43.1767 14.4365 47.9998 19.2596 47.9998 25.2091V32.5405C47.9997 38.49 43.1767 43.313 37.2272 43.313Z" fill="#E7A52E"/>
<path d="M47.9427 33.6522C47.3864 39.0791 42.8008 43.313 37.2273 43.313H10.7724C4.82316 43.313 0 38.4898 0 32.5406V25.2093C0 20.7541 2.70422 16.9316 6.56063 15.2906C6.52294 15.6557 6.50362 16.0266 6.50362 16.4023V23.7337C6.50362 29.6829 11.3268 34.506 17.277 34.506H43.731C45.226 34.5059 46.6495 34.2017 47.9427 33.6522Z" fill="#E49542"/>
<path d="M20.1942 3.907H13.7072C13.3072 3.907 12.9829 3.58272 12.9829 3.18269C12.9829 2.78266 13.3072 2.45837 13.7072 2.45837H20.1942C20.5942 2.45837 20.9185 2.78266 20.9185 3.18269C20.9185 3.58272 20.5942 3.907 20.1942 3.907Z" fill="#D0CEE7"/>
<path d="M20.1942 7.94264H13.7072C13.3072 7.94264 12.9829 7.61836 12.9829 7.21833C12.9829 6.8183 13.3072 6.49402 13.7072 6.49402H20.1942C20.5942 6.49402 20.9185 6.8183 20.9185 7.21833C20.9185 7.61836 20.5942 7.94264 20.1942 7.94264Z" fill="#D0CEE7"/>
<path d="M20.1942 11.9783H13.7072C13.3072 11.9783 12.9829 11.654 12.9829 11.254C12.9829 10.8539 13.3072 10.5297 13.7072 10.5297H20.1942C20.5942 10.5297 20.9185 10.8539 20.9185 11.254C20.9185 11.6539 20.5942 11.9783 20.1942 11.9783Z" fill="#D0CEE7"/>
<path d="M15.3227 47.9995C21.0952 47.9995 25.7748 43.32 25.7748 37.5474C25.7748 31.7749 21.0952 27.0953 15.3227 27.0953C9.55017 27.0953 4.87061 31.7749 4.87061 37.5474C4.87061 43.32 9.55017 47.9995 15.3227 47.9995Z" fill="#756E78"/>
<path d="M16.7996 47.895C16.3179 47.9645 15.8244 48 15.3231 48C9.55079 48 4.87061 43.3197 4.87061 37.5474C4.87061 31.7751 9.55089 27.0948 15.3231 27.0948C15.8244 27.0948 16.3179 27.1303 16.7996 27.1998C11.7269 27.9165 7.82495 32.2765 7.82495 37.5474C7.82495 42.8183 11.7269 47.1783 16.7996 47.895Z" fill="#665E66"/>
<path d="M15.3229 43.3435C18.5239 43.3435 21.1189 40.7485 21.1189 37.5475C21.1189 34.3464 18.5239 31.7515 15.3229 31.7515C12.1218 31.7515 9.52686 34.3464 9.52686 37.5475C9.52686 40.7485 12.1218 43.3435 15.3229 43.3435Z" fill="#F1F1F4"/>
<path d="M16.8558 43.1385C16.3675 43.2724 15.853 43.3433 15.3228 43.3433C12.1217 43.3433 9.52686 40.7486 9.52686 37.5474C9.52686 34.3463 12.1216 31.7515 15.3228 31.7515C15.853 31.7515 16.3675 31.8223 16.8558 31.9562C14.3975 32.6282 12.5915 34.8764 12.5915 37.5474C12.5915 40.2183 14.3974 42.4665 16.8558 43.1385Z" fill="#E2D8EC"/>
<path d="M42.1496 34.9635C42.1489 34.9635 42.1481 34.9635 42.1474 34.9635L38.7971 34.9532C38.7201 34.9529 38.6435 34.9405 38.5702 34.9161C38.3309 34.8363 38.152 34.6551 38.0794 34.419C37.9555 34.0162 38.1413 33.7727 38.5488 33.2394C38.8827 32.8021 39.5044 31.9882 40.546 30.4998C40.8478 30.0686 41.0424 29.6842 41.125 29.3566L41.1458 29.1938C41.1249 28.6839 40.7036 28.2755 40.1887 28.2755C39.7318 28.2755 39.3365 28.6 39.2487 29.047C39.1716 29.4395 38.7908 29.6952 38.3983 29.6181C38.0058 29.541 37.7501 29.1602 37.8272 28.7677C38.0482 27.6431 39.0412 26.8268 40.1887 26.8268C41.5157 26.8268 42.5953 27.9064 42.5953 29.2334C42.5918 29.3401 42.5632 29.5461 42.5441 29.6514C42.4245 30.1674 42.1515 30.7322 41.733 31.3303C41.0391 32.3219 40.5277 33.0199 40.162 33.5086L42.1519 33.5147C42.5519 33.5159 42.8752 33.8412 42.874 34.2413C42.8726 34.6407 42.5485 34.9635 42.1496 34.9635Z" fill="#F1F1F4"/>
<path d="M33.0033 35.1822C30.5073 35.1822 28.4766 33.1515 28.4766 30.6554V24.5744C28.4766 22.0784 30.5072 20.0477 33.0033 20.0477C35.4994 20.0477 37.53 22.0784 37.53 24.5744V30.6554C37.53 33.1514 35.4993 35.1822 33.0033 35.1822ZM33.0033 21.4964C31.306 21.4964 29.9253 22.8772 29.9253 24.5744V30.6554C29.9253 32.3527 31.306 33.7334 33.0033 33.7334C34.7005 33.7334 36.0813 32.3527 36.0813 30.6554V24.5744C36.0813 22.8772 34.7005 21.4964 33.0033 21.4964Z" fill="#F1F1F4"/>
<path d="M43.8398 21.0298C43.6865 21.0298 43.531 21.0115 43.3755 20.9731C42.3398 20.7176 41.7074 19.6708 41.9629 18.635L43.8987 10.7911C44.1544 9.75547 45.2011 9.12341 46.2368 9.3786C47.2725 9.63416 47.9049 10.681 47.6494 11.7167L45.7136 19.5606C45.4964 20.4408 44.7076 21.0298 43.8398 21.0298Z" fill="#756E78"/>
<path d="M47.1509 9.89772C46.4246 10.03 45.8074 10.5738 45.6191 11.3358L43.6836 19.1799C43.5175 19.855 43.728 20.5359 44.1829 20.9985C44.0709 21.0187 43.9559 21.0294 43.8401 21.0294C43.6865 21.0294 43.531 21.011 43.3755 20.9724C42.3403 20.7175 41.7076 19.6705 41.9636 18.6342L43.899 10.791C44.155 9.75466 45.2019 9.12306 46.2373 9.37806C46.5965 9.46703 46.9084 9.65153 47.1509 9.89772Z" fill="#665E66"/>
</g>
<defs>
<clipPath id="clip0_71_3528">
<rect width="48" height="48" fill="white"/>
</clipPath>
</defs>
</svg>
