<svg width="48" height="48" viewBox="0 0 48 48" fill="none" xmlns="http://www.w3.org/2000/svg">
<path d="M32.8927 4.21331H19.6212V2.57812C19.6212 1.1565 18.4646 0 17.0431 0H7.25793C5.8364 0 4.67981 1.1565 4.67981 2.57812V40.6875C4.67981 41.0758 4.99453 41.3906 5.38293 41.3906C5.77134 41.3906 6.08606 41.0758 6.08606 40.6875V2.57812C6.08606 1.93191 6.61172 1.40625 7.25793 1.40625H17.0431C17.6893 1.40625 18.215 1.93191 18.215 2.57812V4.21331H12.1856C11.5394 4.21331 11.0137 4.73897 11.0137 5.38519V9.36956C11.0137 9.75788 11.3285 10.0727 11.7169 10.0727C12.1053 10.0727 12.42 9.75788 12.42 9.36956V5.61956H14.5939V9.51019C14.5939 9.8985 14.9086 10.2133 15.297 10.2133C15.6854 10.2133 16.0001 9.8985 16.0001 9.51019V5.61956H18.215V9.51019C18.215 9.8985 18.5297 10.2133 18.9181 10.2133C19.3065 10.2133 19.6212 9.8985 19.6212 9.51019V5.61956H21.8361V9.51019C21.8361 9.8985 22.1508 10.2133 22.5392 10.2133C22.9276 10.2133 23.2423 9.8985 23.2423 9.51019V5.61956H25.4572V9.51019C25.4572 9.8985 25.7719 10.2133 26.1603 10.2133C26.5487 10.2133 26.8634 9.8985 26.8634 9.51019V5.61956H29.0782V9.51019C29.0782 9.8985 29.393 10.2133 29.7814 10.2133C30.1698 10.2133 30.4845 9.8985 30.4845 9.51019V5.61956H32.6584V9.36956C32.6584 9.75788 32.9731 10.0727 33.3615 10.0727C33.7499 10.0727 34.0646 9.75788 34.0646 9.36956V5.38519C34.0646 4.73906 33.539 4.21331 32.8927 4.21331Z" fill="#766D78"/>
<path d="M44.7264 46.5938H42.1798V16.6406C42.1798 14.9606 40.813 13.5938 39.1329 13.5938H36.4142C36.0258 13.5938 35.7111 13.9086 35.7111 14.2969C35.7111 14.6852 36.0258 15 36.4142 15H39.1329C40.0375 15 40.7736 15.736 40.7736 16.6406V46.5938H38.2265C37.8381 46.5938 37.5233 46.9086 37.5233 47.2969C37.5233 47.6852 37.8381 48 38.2265 48H44.7264C45.1148 48 45.4296 47.6852 45.4296 47.2969C45.4296 46.9086 45.1148 46.5938 44.7264 46.5938Z" fill="#766D78"/>
<path d="M10.8204 44.8125H4.44543C3.40987 44.8125 2.57043 43.9731 2.57043 42.9375V37.0312C2.57043 35.9957 3.40987 35.1562 4.44543 35.1562H10.8204V44.8125Z" fill="#544F56"/>
<path d="M42.9269 33.6562H40.0207C39.5029 33.6562 39.0832 33.2365 39.0832 32.7188V26.1562C39.0832 25.6385 39.5029 25.2188 40.0207 25.2188H42.9269C43.4447 25.2188 43.8644 25.6385 43.8644 26.1562V32.7188C43.8644 33.2365 43.4447 33.6562 42.9269 33.6562Z" fill="#544F56"/>
<path d="M36.3302 11.9531V44.9531C36.3302 46.2478 35.2811 47.2969 33.9864 47.2969H11.0918C9.79706 47.2969 8.748 46.2478 8.748 44.9531V11.9531C8.748 10.6584 9.79706 9.60938 11.0918 9.60938H33.9864C35.2811 9.60938 36.3302 10.6584 36.3302 11.9531Z" fill="#FED22B"/>
<path d="M14.373 47.2969H11.0918C9.79706 47.2969 8.748 46.2478 8.748 44.9531V11.9531C8.748 10.6584 9.79706 9.60938 11.0918 9.60938H14.373C13.0783 9.60938 12.0293 10.6584 12.0293 11.9531V44.9531C12.0293 46.2478 13.0783 47.2969 14.373 47.2969Z" fill="#FDC202"/>
<path d="M8.748 18.1875H36.3302V19.5938H8.748V18.1875Z" fill="#F0A70A"/>
<path d="M8.748 27.75H36.3302V29.1562H8.748V27.75Z" fill="#F0A70A"/>
<path d="M8.748 37.3125H36.3302V38.7188H8.748V37.3125Z" fill="#F0A70A"/>
<path d="M8.748 18.1875H12.0293V19.5938H8.748V18.1875Z" fill="#E38803"/>
<path d="M8.748 27.75H12.0293V29.1562H8.748V27.75Z" fill="#E38803"/>
<path d="M8.748 37.3125H12.0293V38.7188H8.748V37.3125Z" fill="#E38803"/>
<path d="M7.72707 44.8125H4.44582C3.40988 44.8125 2.57082 43.9734 2.57082 42.9375V37.0312C2.57082 35.9953 3.40988 35.1562 4.44582 35.1562H7.72707C6.69113 35.1562 5.85207 35.9953 5.85207 37.0312V42.9375C5.85207 43.9734 6.69113 44.8125 7.72707 44.8125Z" fill="#444145"/>
<path d="M42.5505 33.6375C42.4905 33.6497 42.4277 33.6562 42.364 33.6562H40.0202C39.5027 33.6562 39.0827 33.2362 39.0827 32.7188V26.1562C39.0827 25.6388 39.5027 25.2188 40.0202 25.2188H42.364C42.4277 25.2188 42.4905 25.2253 42.5505 25.2375C42.123 25.3256 41.8015 25.7034 41.8015 26.1562V32.7188C41.8015 33.1716 42.123 33.5494 42.5505 33.6375Z" fill="#444145"/>
</svg>
