<svg width="24" height="24" viewBox="0 0 24 24" fill="none" xmlns="http://www.w3.org/2000/svg">
<path d="M18.7079 15.924C18.7079 20.3773 15.0856 24 10.6332 24H10.6004C6.16152 23.9827 2.55615 20.3666 2.55615 15.924C2.55615 13.4826 3.79935 11.5845 5.18459 9.6953L5.19818 9.67702L10.6322 2.75037L16.0794 9.6953C17.4647 11.5845 18.7079 13.4826 18.7079 15.924Z" fill="#FBE000"/>
<path d="M18.708 15.924C18.708 20.3773 15.0857 24 10.6333 24H10.6323V2.75037L16.0795 9.6953C17.4648 11.5845 18.708 13.4826 18.708 15.924Z" fill="#FDBF00"/>
<path d="M21.4443 7.92187C21.4443 10.6009 19.265 12.7807 16.5864 12.7807H16.5859L16.5278 12.7803C13.8755 12.7493 11.7271 10.5817 11.7271 7.92187C11.7271 6.45319 12.456 5.3375 13.2679 4.23025L13.282 4.21197L16.5859 0L19.9035 4.23025C20.7154 5.3375 21.4443 6.45319 21.4443 7.92187Z" fill="#FFA001"/>
<path d="M21.4443 7.92187C21.4443 10.6009 19.265 12.7807 16.5864 12.7807H16.5859V0L19.9035 4.23025C20.7154 5.3375 21.4443 6.45319 21.4443 7.92187Z" fill="#F87F02"/>
</svg>
