<svg width="24" height="24" viewBox="0 0 24 24" fill="none" xmlns="http://www.w3.org/2000/svg">
<g clip-path="url(#clip0_69_3087)">
<path d="M12.8546 23.6C13.1728 23.6 13.4781 23.4736 13.7031 23.2486C13.9281 23.0235 14.0546 22.7183 14.0546 22.4C14.0546 22.0818 13.9281 21.7765 13.7031 21.5515C13.4781 21.3265 13.1728 21.2 12.8546 21.2C12.6252 21.2001 12.4015 21.2716 12.2146 21.4044C12.2146 21.3808 12.2178 21.3572 12.2178 21.3332C12.2232 21.0915 12.1326 20.8574 11.9656 20.6824C11.7987 20.5075 11.5691 20.4059 11.3274 20.4C11.1165 20.4038 10.9136 20.4813 10.7539 20.6192C10.5943 20.757 10.4879 20.9464 10.4534 21.1544C10.3846 21.0847 10.3027 21.0292 10.2125 20.9913C10.1222 20.9533 10.0253 20.9336 9.92737 20.9332C9.72009 20.9383 9.52328 21.0253 9.38012 21.1753C9.23696 21.3253 9.15915 21.5259 9.16377 21.7332C9.16388 21.8248 9.17915 21.9158 9.20897 22.0024C9.19417 22.0024 9.17897 22 9.16377 22C8.9516 22 8.74811 22.0843 8.59808 22.2343C8.44806 22.3844 8.36377 22.5879 8.36377 22.8C8.36377 23.0122 8.44806 23.2157 8.59808 23.3657C8.74811 23.5157 8.9516 23.6 9.16377 23.6H12.8546Z" fill="#71C285"/>
<path d="M3.6002 10C3.49411 10 3.39237 9.95786 3.31735 9.88284C3.24234 9.80783 3.2002 9.70609 3.2002 9.6V4.4C3.2002 4.29391 3.24234 4.19217 3.31735 4.11716C3.39237 4.04214 3.49411 4 3.6002 4C3.70628 4 3.80802 4.04214 3.88304 4.11716C3.95805 4.19217 4.0002 4.29391 4.0002 4.4V9.6C4.0002 9.70609 3.95805 9.80783 3.88304 9.88284C3.80802 9.95786 3.70628 10 3.6002 10Z" fill="#A5A5A4"/>
<path d="M14.3704 4.00007H4.4C4.29391 4.00007 4.19217 3.95793 4.11716 3.88292C4.04214 3.8079 4 3.70616 4 3.60007C4 3.49399 4.04214 3.39225 4.11716 3.31723C4.19217 3.24222 4.29391 3.20007 4.4 3.20007H14.3704C14.4765 3.20007 14.5782 3.24222 14.6532 3.31723C14.7283 3.39225 14.7704 3.49399 14.7704 3.60007C14.7704 3.70616 14.7283 3.8079 14.6532 3.88292C14.5782 3.95793 14.4765 4.00007 14.3704 4.00007Z" fill="#A5A5A4"/>
<path d="M12.8546 23.6C13.1728 23.6 13.4781 23.4736 13.7031 23.2486C13.9281 23.0235 14.0546 22.7183 14.0546 22.4C14.0546 22.0818 13.9281 21.7765 13.7031 21.5515C13.4781 21.3265 13.1728 21.2 12.8546 21.2C12.6252 21.2001 12.4015 21.2716 12.2146 21.4044C12.2146 21.3808 12.2178 21.3572 12.2178 21.3332C12.2232 21.0915 12.1326 20.8574 11.9656 20.6824C11.7987 20.5075 11.5691 20.4059 11.3274 20.4C11.1165 20.4038 10.9136 20.4813 10.7539 20.6192C10.5943 20.757 10.4879 20.9464 10.4534 21.1544C10.3846 21.0847 10.3027 21.0292 10.2125 20.9913C10.1222 20.9533 10.0253 20.9336 9.92737 20.9332C9.72009 20.9383 9.52328 21.0253 9.38012 21.1753C9.23696 21.3253 9.15915 21.5259 9.16377 21.7332C9.16388 21.8248 9.17915 21.9158 9.20897 22.0024C9.19417 22.0024 9.17897 22 9.16377 22C8.9516 22 8.74811 22.0843 8.59808 22.2343C8.44806 22.3844 8.36377 22.5879 8.36377 22.8C8.36377 23.0122 8.44806 23.2157 8.59808 23.3657C8.74811 23.5157 8.9516 23.6 9.16377 23.6H12.8546Z" fill="#71C285"/>
<path d="M23.6001 11.6C23.7062 11.6 23.8079 11.5579 23.8829 11.4829C23.9579 11.4078 24.0001 11.3061 24.0001 11.2C24.0155 10.9135 24.0128 10.6262 23.9921 10.34C23.9917 10.325 23.989 10.3102 23.9841 10.296C23.9843 10.2938 23.9841 10.2916 23.9834 10.2896C23.9827 10.2875 23.9816 10.2856 23.9801 10.284C23.9607 10.2291 23.9323 10.1777 23.8961 10.132L19.9481 5.78802L17.9761 0.264019C17.948 0.186798 17.8969 0.12008 17.8297 0.0729307C17.7624 0.0257816 17.6822 0.000488281 17.6001 0.000488281C17.5179 0.000488281 17.4378 0.0257816 17.3705 0.0729307C17.3032 0.12008 17.2521 0.186798 17.2241 0.264019L15.2521 5.78802C11.1149 10.3404 11.2521 10.1568 11.2201 10.284C11.2186 10.2856 11.2174 10.2875 11.2167 10.2896C11.216 10.2916 11.2158 10.2938 11.2161 10.296C11.2111 10.3102 11.2084 10.325 11.2081 10.34C11.1863 10.6262 11.1836 10.9135 11.2001 11.2C11.2001 11.3061 11.2422 11.4078 11.3172 11.4829C11.3922 11.5579 11.494 11.6 11.6001 11.6C11.7062 11.6 11.8079 11.5579 11.8829 11.4829C11.9579 11.4078 12.0001 11.3061 12.0001 11.2V10.8H15.2001V11.82C10.9601 15.6388 11.3201 15.3036 11.2401 15.424C11.1601 15.656 11.2229 15.5364 11.2001 16.4C11.2001 16.5061 11.2422 16.6078 11.3172 16.6829C11.3922 16.7579 11.494 16.8 11.6001 16.8C11.7062 16.8 11.8079 16.7579 11.8829 16.6829C11.9579 16.6078 12.0001 16.5061 12.0001 16.4V16H15.2001V23.6C15.2008 23.6111 15.2035 23.6219 15.2081 23.632C15.2095 23.6593 15.2149 23.6863 15.2241 23.712C15.2278 23.736 15.236 23.759 15.2481 23.78C15.2601 23.804 15.2761 23.824 15.2881 23.844C15.3081 23.864 15.3241 23.884 15.3441 23.904C15.3561 23.908 15.3601 23.92 15.3681 23.924C15.3801 23.936 15.3921 23.936 15.4081 23.944C15.4306 23.9578 15.4548 23.9686 15.4801 23.976C15.5062 23.9837 15.533 23.989 15.5601 23.992C15.5721 23.992 15.5841 24 15.6001 24H19.6001C19.648 23.9988 19.6954 23.9894 19.7401 23.972C19.7561 23.968 19.7681 23.956 19.7841 23.952C19.8001 23.94 19.8161 23.936 19.8321 23.924C19.8401 23.92 19.8441 23.908 19.8561 23.904C19.8761 23.884 19.8921 23.864 19.9121 23.844C19.9241 23.824 19.9401 23.804 19.9521 23.78C19.9642 23.759 19.9723 23.736 19.9761 23.712C19.9852 23.6863 19.9906 23.6593 19.9921 23.632C19.9966 23.6219 19.9993 23.6111 20.0001 23.6V16H23.2001V16.4C23.2001 16.5061 23.2422 16.6078 23.3172 16.6829C23.3922 16.7579 23.494 16.8 23.6001 16.8C23.7062 16.8 23.8079 16.7579 23.8829 16.6829C23.9579 16.6078 24.0001 16.5061 24.0001 16.4C23.9877 15.6064 24.0277 15.578 23.9629 15.436C23.9617 15.4321 23.9607 15.4281 23.9601 15.424C23.8625 15.2772 24.2513 15.6492 20.1201 11.928L20.1261 11.9336L20.0925 11.9032L20.0981 11.9084L20.0405 11.8564L20.0481 11.8632L20.0377 11.854L20.0001 11.82V10.8H23.2001V11.2C23.2001 11.3061 23.2422 11.4078 23.3172 11.4829C23.3922 11.5579 23.494 11.6 23.6001 11.6ZM15.2001 15.2H12.6441L15.2001 12.9V15.2ZM15.2001 10H12.5041L15.2001 7.03602V10ZM17.6001 1.58802L19.0321 5.60002H16.1681L17.6001 1.58802ZM16.3481 17.6L17.6001 15.72L18.8521 17.6H16.3481ZM18.8241 18.4L17.6001 20.112L16.3761 18.4H18.8241ZM16.3481 12.4H18.8521L17.6001 14.28L16.3481 12.4ZM16.3481 11.6L17.6001 9.72002L18.8521 11.6H16.3481ZM16.3481 6.40002H18.8521L17.6001 8.28002L16.3481 6.40002ZM16.0001 7.32002L17.1201 9.00002L16.0001 10.68V7.32002ZM16.0001 13.32L17.1201 15L16.0001 16.68V13.32ZM16.0001 19.248L17.1081 20.8L16.0001 22.352V19.248ZM16.3761 23.2L17.6001 21.488L18.8241 23.2H16.3761ZM19.2001 22.352L18.0921 20.8L19.2001 19.248V22.352ZM19.2001 16.68L18.0801 15L19.2001 13.32V16.68ZM19.2001 10.68L18.0801 9.00002L19.2001 7.32002V10.68ZM22.5561 15.2H20.0001V12.9L22.5561 15.2ZM20.0001 10V7.03602L22.6961 10H20.0001Z" fill="#3F5C6C"/>
<path d="M20.126 11.9336L20.1328 11.9396L20.126 11.9336Z" fill="#3F5C6C"/>
<path d="M20.0479 11.8632L20.0923 11.9032L20.0479 11.8632Z" fill="#3F5C6C"/>
<path d="M20.1328 11.9396L20.1436 11.9492L20.1328 11.9396Z" fill="#3F5C6C"/>
<path d="M22.696 10H20V7.03601L22.696 10Z" fill="#B0D3F0"/>
<path d="M22.556 15.2H20V12.9L22.556 15.2Z" fill="#B0D3F0"/>
<path d="M15.2 12.9V15.2H12.644L15.2 12.9Z" fill="#B0D3F0"/>
<path d="M15.1999 7.03601V10H12.5039L15.1999 7.03601Z" fill="#B0D3F0"/>
<path d="M19.032 5.60001H16.168L17.6 1.58801L19.032 5.60001Z" fill="#B0D3F0"/>
<path d="M19.1998 22.352V19.248L18.0918 20.8L19.1998 22.352Z" fill="#B0D3F0"/>
<path d="M16.376 23.2H18.824L17.6 21.488L16.376 23.2Z" fill="#B0D3F0"/>
<path d="M16 19.248V22.352L17.108 20.8L16 19.248Z" fill="#B0D3F0"/>
<path d="M18.824 18.4H16.376L17.6 20.112L18.824 18.4Z" fill="#B0D3F0"/>
<path d="M19.2001 16.6801V13.3201L18.0801 15.0001L19.2001 16.6801Z" fill="#B0D3F0"/>
<path d="M17.6001 15.72L16.3481 17.6H18.8521L17.6001 15.72Z" fill="#B0D3F0"/>
<path d="M16 13.3201V16.6801L17.12 15.0001L16 13.3201Z" fill="#B0D3F0"/>
<path d="M16.3481 12.4L17.6001 14.28L18.8521 12.4H16.3481Z" fill="#B0D3F0"/>
<path d="M17.6001 9.71997L16.3481 11.6H18.8521L17.6001 9.71997Z" fill="#B0D3F0"/>
<path d="M18.8521 6.40002H16.3481L17.6001 8.28002L18.8521 6.40002Z" fill="#B0D3F0"/>
<path d="M18.0801 9.00007L19.2001 10.6801V7.32007L18.0801 9.00007Z" fill="#B0D3F0"/>
<path d="M16 7.32007V10.6801L17.12 9.00007L16 7.32007Z" fill="#B0D3F0"/>
<path d="M5.27432 19.2V22.4H3.67432V16.672L5.27432 19.2Z" fill="#547580"/>
<path d="M9.75049 19.6H5.59449C5.53187 19.6006 5.47004 19.586 5.4143 19.5574C5.35857 19.5289 5.31059 19.4872 5.27449 19.436C5.26668 19.4291 5.25994 19.421 5.25449 19.412L4.04009 17.48L3.67609 16.908L3.35449 16.4H8.45449L10.0865 18.988C10.1242 19.0483 10.1451 19.1176 10.1471 19.1887C10.1492 19.2598 10.1322 19.3302 10.0979 19.3925C10.0637 19.4549 10.0135 19.507 9.95239 19.5435C9.89131 19.5799 9.82162 19.5995 9.75049 19.6Z" fill="#2FA8CC"/>
<path d="M8.45417 16.4001H3.35417L1.59017 13.6001L0.46217 11.8121C0.424398 11.7516 0.403458 11.6822 0.401516 11.611C0.399574 11.5397 0.4167 11.4693 0.451123 11.4069C0.485546 11.3445 0.536016 11.2924 0.597312 11.256C0.658608 11.2197 0.728504 11.2004 0.79977 11.2001H4.95577C5.02375 11.1999 5.09064 11.2171 5.15013 11.25C5.20962 11.2829 5.25974 11.3304 5.29577 11.3881L6.69017 13.6001L8.45417 16.4001Z" fill="#2FA8CC"/>
<path d="M8.45433 16.4H3.35433L1.59033 13.6H6.69033L8.45433 16.4Z" fill="#67B9CC"/>
<path d="M3.27451 22H5.67451C5.7806 22 5.88234 22.0421 5.95735 22.1172C6.03237 22.1922 6.07451 22.2939 6.07451 22.4V23.6H2.87451V22.4C2.87451 22.2939 2.91665 22.1922 2.99167 22.1172C3.06668 22.0421 3.16843 22 3.27451 22Z" fill="#3F5C6C"/>
<path d="M23.6 24.0001H0.4C0.293913 24.0001 0.192172 23.9579 0.117157 23.8829C0.0421427 23.8079 0 23.7062 0 23.6001C0 23.494 0.0421427 23.3922 0.117157 23.3172C0.192172 23.2422 0.293913 23.2001 0.4 23.2001H23.6C23.7061 23.2001 23.8078 23.2422 23.8828 23.3172C23.9579 23.3922 24 23.494 24 23.6001C24 23.7062 23.9579 23.8079 23.8828 23.8829C23.8078 23.9579 23.7061 24.0001 23.6 24.0001Z" fill="#4C8056"/>
<path d="M3.5998 4.40005C4.04163 4.40005 4.3998 4.04188 4.3998 3.60005C4.3998 3.15822 4.04163 2.80005 3.5998 2.80005C3.15798 2.80005 2.7998 3.15822 2.7998 3.60005C2.7998 4.04188 3.15798 4.40005 3.5998 4.40005Z" fill="#547580"/>
</g>
<defs>
<clipPath id="clip0_69_3087">
<rect width="24" height="24" fill="white"/>
</clipPath>
</defs>
</svg>
