<svg width="48" height="48" viewBox="0 0 48 48" fill="none" xmlns="http://www.w3.org/2000/svg">
<path d="M9.95119 41.1321H13.0732V43.4736C13.0732 43.9046 12.7237 44.254 12.2927 44.254H10.7317C10.3007 44.254 9.95128 43.9046 9.95128 43.4736V41.1321H9.95119Z" fill="#E2E2E2"/>
<path d="M38.0488 41.1321H34.9268V43.4736C34.9268 43.9046 35.2763 44.254 35.7073 44.254H37.2683C37.6993 44.254 38.0487 43.9046 38.0487 43.4736V41.1321H38.0488Z" fill="#E2E2E2"/>
<path d="M9.95119 7.57106H13.0732V5.22966C13.0732 4.79859 12.7237 4.44919 12.2927 4.44919H10.7317C10.3007 4.44919 9.95128 4.79859 9.95128 5.22966V7.57106H9.95119Z" fill="#E2E2E2"/>
<path d="M38.0488 7.57106H34.9268V5.22966C34.9268 4.79859 35.2763 4.44919 35.7073 4.44919H37.2683C37.6993 4.44919 38.0487 4.79859 38.0487 5.22966V7.57106H38.0488Z" fill="#E2E2E2"/>
<path d="M3.90244 41.1321H6.82931V7.57108H1.95122C0.873562 7.57108 0 8.44473 0 9.52229V19.5279C0 20.1337 0.141094 20.7312 0.412031 21.2731L1.53928 23.5276C1.81022 24.0695 1.95131 24.667 1.95131 25.2729V39.1809C1.95122 40.2585 2.82478 41.1321 3.90244 41.1321Z" fill="#9C9C9C"/>
<path d="M4.48781 7.57108H6.82931V41.1321H4.48781V7.57108Z" fill="#838383"/>
<path d="M46.0488 41.1321H43.1219C42.0442 41.1321 41.1707 40.2585 41.1707 39.1809V7.57108H46.0488C47.1264 7.57108 48 8.44464 48 9.52229V39.1809C48 40.2585 47.1264 41.1321 46.0488 41.1321Z" fill="#9C9C9C"/>
<path d="M46.0488 7.57108H43.7073C44.7849 7.57108 45.6585 8.44464 45.6585 9.52229V39.1809C45.6585 40.2585 44.7849 41.1321 43.7073 41.1321H46.0488C47.1264 41.1321 48 40.2585 48 39.1809V9.52229C48 8.44473 47.1264 7.57108 46.0488 7.57108Z" fill="#838383"/>
<path d="M41.1707 41.1321H6.82922V7.57108H41.1707V41.1321Z" fill="#E6F7FE"/>
<path d="M41.1707 41.1321H6.82922V7.57108H41.1707V41.1321Z" fill="#E6F7FE"/>
<path d="M41.1707 41.1321H38.6341V7.57108H41.1707V41.1321Z" fill="#D3EFFD"/>
<path d="M24 38.0101C24.8621 38.0101 25.5609 37.3112 25.5609 36.4491V12.2541C25.5609 11.3919 24.862 10.6931 24 10.6931C23.1379 10.6931 22.4391 11.392 22.4391 12.2541V36.4491C22.4391 37.3113 23.1379 38.0101 24 38.0101Z" fill="#5A5A5A"/>
<path d="M17.7561 38.0101C18.6182 38.0101 19.317 37.3112 19.317 36.4491V12.2541C19.317 11.3919 18.6181 10.6931 17.7561 10.6931C16.8939 10.6931 16.1951 11.392 16.1951 12.2541V36.4491C16.1951 37.3113 16.894 38.0101 17.7561 38.0101Z" fill="#5A5A5A"/>
<path d="M11.5122 38.0101C12.3743 38.0101 13.0732 37.3112 13.0732 36.4491V12.2541C13.0732 11.3919 12.3743 10.6931 11.5122 10.6931C10.6501 10.6931 9.95128 11.392 9.95128 12.2541V36.4491C9.95119 37.3113 10.6501 38.0101 11.5122 38.0101Z" fill="#5A5A5A"/>
<path d="M30.2439 38.0101C29.3818 38.0101 28.683 37.3112 28.683 36.4491V12.2541C28.683 11.3919 29.3819 10.6931 30.2439 10.6931C31.1061 10.6931 31.8049 11.392 31.8049 12.2541V36.4491C31.8049 37.3113 31.106 38.0101 30.2439 38.0101Z" fill="#5A5A5A"/>
<path d="M36.4878 38.0101C35.6257 38.0101 34.9268 37.3112 34.9268 36.4491V12.2541C34.9268 11.3919 35.6258 10.6931 36.4878 10.6931C37.3499 10.6931 38.0487 11.392 38.0487 12.2541V36.4491C38.0488 37.3113 37.3499 38.0101 36.4878 38.0101Z" fill="#5A5A5A"/>
<path d="M3.41466 12.9369C4.00734 12.9369 4.48781 12.4565 4.48781 11.8638C4.48781 11.2711 4.00734 10.7906 3.41466 10.7906C2.82197 10.7906 2.3415 11.2711 2.3415 11.8638C2.3415 12.4565 2.82197 12.9369 3.41466 12.9369Z" fill="#E6F7FE"/>
<path d="M44.5853 12.9369C45.178 12.9369 45.6585 12.4565 45.6585 11.8638C45.6585 11.2711 45.178 10.7906 44.5853 10.7906C43.9927 10.7906 43.5122 11.2711 43.5122 11.8638C43.5122 12.4565 43.9927 12.9369 44.5853 12.9369Z" fill="#E6F7FE"/>
<path d="M0.975561 3.74597C0.58003 3.74597 0.260905 4.07241 0.272718 4.47066C0.284249 4.8555 0.619968 5.15222 1.005 5.15222H2.92687V7.57107H6.82931V4.68347C6.82931 4.16569 6.40959 3.74597 5.89181 3.74597H0.975561Z" fill="#5A5A5A"/>
</svg>
