<svg width="48" height="48" viewBox="0 0 48 48" fill="none" xmlns="http://www.w3.org/2000/svg">
<g clip-path="url(#clip0_462_1505)">
<path d="M11.2444 41.4874H8.43195C8.04354 41.4874 7.72882 41.8021 7.72882 42.1905V47.2969C7.72882 47.6853 8.04354 48 8.43195 48H11.2444C11.6329 48 11.9476 47.6853 11.9476 47.2969V42.1905C11.9476 41.8022 11.6328 41.4874 11.2444 41.4874Z" fill="#6B717D"/>
<path d="M33.7444 41.4874H30.9319C30.5435 41.4874 30.2288 41.8021 30.2288 42.1905V47.2969C30.2288 47.6853 30.5435 48 30.9319 48H33.7444C34.1329 48 34.4476 47.6853 34.4476 47.2969V42.1905C34.4476 41.8022 34.1328 41.4874 33.7444 41.4874Z" fill="#6B717D"/>
<path d="M40.1804 18.1659V20.8347C40.1804 21.6973 39.4786 22.3992 38.6159 22.3992H37.7882V23.8055H38.6159C40.254 23.8055 41.5866 22.4728 41.5866 20.8347V18.1659H40.1804Z" fill="#6B717D"/>
<path d="M44.3147 5.56686V11.9822L41.8772 13.8787L40.6997 14.7947L37.0847 11.9822V5.56686C37.0847 5.17874 37.3997 4.86374 37.7878 4.86374H43.6115C44.0006 4.86374 44.3147 5.17874 44.3147 5.56686Z" fill="#6B717D"/>
<path d="M44.3147 5.56686V11.9822L41.8772 13.8787V5.56686C41.8772 5.17874 41.5631 4.86374 41.174 4.86374H43.6115C44.0006 4.86374 44.3147 5.17874 44.3147 5.56686Z" fill="#47505E"/>
<path d="M44.3147 11.9822V18.1659C44.3147 18.5541 44.0006 18.8691 43.6116 18.8691H37.7878C37.3997 18.8691 37.0847 18.5541 37.0847 18.1659V11.9822H44.3147Z" fill="#FFA07A"/>
<path d="M44.3147 11.9822V18.1659C44.3147 18.5541 44.0006 18.8691 43.6115 18.8691H41.174C41.5631 18.8691 41.8772 18.5541 41.8772 18.1659V11.9822H44.3147Z" fill="#FF7D43"/>
<path d="M38.4909 2.75437V42.1903C38.4909 42.5784 38.1769 42.8934 37.7878 42.8934H4.38843C3.99937 42.8934 3.6853 42.5784 3.6853 42.1903V2.75437C3.6853 1.23562 4.91999 0 6.43874 0H10.0725L21.0881 2.8125L32.1037 0H35.7375C37.2562 0 38.4909 1.23562 38.4909 2.75437Z" fill="#D6EAEC"/>
<path d="M38.4909 2.75437V42.1903C38.4909 42.5784 38.1769 42.8934 37.7878 42.8934H34.9753C35.3644 42.8934 35.6784 42.5784 35.6784 42.1903V2.75437C35.6784 1.23562 34.4437 0 32.925 0H35.7375C37.2562 0 38.4909 1.23562 38.4909 2.75437Z" fill="#B5D9DD"/>
<path d="M33.4103 20.6093C29.6574 18.5509 25.3965 17.4628 21.0881 17.4628C16.7798 17.4628 12.5188 18.5509 8.76591 20.6093C8.54082 20.7328 8.40085 20.9691 8.40085 21.2258V24.5071C8.40085 24.8955 8.71557 25.2102 9.10397 25.2102H33.0721C33.4605 25.2102 33.7752 24.8955 33.7752 24.5071V21.2258C33.7754 20.9691 33.6355 20.7328 33.4103 20.6093Z" fill="#B5D9DD"/>
<path d="M33.7754 24.5071C29.9349 22.3164 25.5368 21.1563 21.0882 21.1563C16.6395 21.1563 12.2414 22.3164 8.40103 24.5071V38.9333C8.40103 39.3217 8.71584 39.6365 9.10416 39.6365H33.0723C33.4606 39.6365 33.7754 39.3217 33.7754 38.9333V24.5071Z" fill="#6B717D"/>
<path d="M26.2628 29.8733C26.2466 29.5834 25.9332 29.4122 25.6811 29.5561C25.4234 29.7032 25.1152 29.9006 24.8388 30.1355C23.6967 27.8494 21.9764 26.2654 21.3381 25.7264C21.1934 25.6043 20.9828 25.6043 20.8382 25.7264C20.1998 26.2655 18.4795 27.8494 17.3375 30.1355C17.0611 29.9006 16.7528 29.7032 16.4951 29.5561C16.243 29.4122 15.9296 29.5834 15.9134 29.8733C15.7884 32.1082 14.8827 32.9345 14.8827 34.8061C14.8827 37.4739 16.7598 39.6365 21.0881 39.6365C25.4165 39.6365 27.2935 37.4739 27.2935 34.8061C27.2935 32.9345 26.3878 32.1082 26.2628 29.8733Z" fill="#FF6C6C"/>
<path d="M21.0881 39.6365C22.5303 39.6365 23.6993 38.4674 23.6993 37.0252C23.6993 34.8446 21.0881 33.3017 21.0881 33.3017C21.0881 33.3017 18.4769 34.8446 18.4769 37.0252C18.4769 38.4674 19.646 39.6365 21.0881 39.6365Z" fill="#F3D6AE"/>
<path d="M32.1037 0V5.56687C32.1037 5.955 31.7887 6.27 31.4006 6.27H10.7756C10.3875 6.27 10.0725 5.955 10.0725 5.56687V0L32.1037 0Z" fill="#6B717D"/>
<path d="M19.4581 9.63281H9.10406C8.71566 9.63281 8.40094 9.94753 8.40094 10.3359V13.1484C8.40094 13.5368 8.71566 13.8516 9.10406 13.8516H19.4581C19.8465 13.8516 20.1612 13.5368 20.1612 13.1484V10.3359C20.1612 9.94753 19.8465 9.63281 19.4581 9.63281Z" fill="#72BBFF"/>
<path d="M31.6659 10.0833C30.7506 10.0833 30.006 10.8275 30.006 11.7423C30.006 12.6571 30.7507 13.4012 31.6659 13.4012C32.5812 13.4012 33.3259 12.657 33.3259 11.7423C33.3259 10.8276 32.5813 10.0833 31.6659 10.0833Z" fill="#B5D9DD"/>
<path d="M23.2507 11.0385C22.8631 11.0385 22.549 11.3533 22.549 11.7416C22.549 12.13 22.8631 12.4448 23.2507 12.4448C23.6382 12.4448 23.9524 12.13 23.9524 11.7416C23.9524 11.3533 23.6382 11.0385 23.2507 11.0385Z" fill="#B5D9DD"/>
<path d="M26.5151 11.0385C26.1276 11.0385 25.8134 11.3533 25.8134 11.7416C25.8134 12.13 26.1276 12.4448 26.5151 12.4448C26.9027 12.4448 27.2169 12.13 27.2169 11.7416C27.2169 11.3533 26.9027 11.0385 26.5151 11.0385Z" fill="#B5D9DD"/>
</g>
<defs>
<clipPath id="clip0_462_1505">
<rect width="48" height="48" fill="white"/>
</clipPath>
</defs>
</svg>
