<svg width="48" height="48" viewBox="0 0 48 48" fill="none" xmlns="http://www.w3.org/2000/svg">
<g clip-path="url(#clip0_71_3399)">
<path d="M15.998 25.4705H21.9856V31.0516H15.998V25.4705Z" fill="#F9BB32"/>
<path d="M15.998 33.4436H21.9856V39.0247H15.998V33.4436Z" fill="#F9BB32"/>
<path d="M15.998 25.4705H18.9918V31.0516H15.998V25.4705Z" fill="#DB9C2E"/>
<path d="M15.998 33.4436H18.9918V39.0247H15.998V33.4436Z" fill="#DB9C2E"/>
<path d="M41.6445 11.075H28.0283V13.7254H40.447C41.1085 13.7254 41.6445 14.2607 41.6445 14.9213V35.7913H44.2391V13.4669C44.2391 12.1459 43.1667 11.075 41.8441 11.075H41.6445Z" fill="#FFD551"/>
<path d="M42.0439 13.7253H40.4473C41.1088 13.7253 41.6448 14.2606 41.6448 14.9213V35.7913H43.2414V14.9213C43.2414 14.261 42.7055 13.7253 42.0439 13.7253Z" fill="#FFC34C"/>
<path d="M28.4141 2.30469H9.56933C8.24669 2.30469 7.17432 3.37567 7.17432 4.69659V11.673H9.82154V6.15105C9.82154 5.49039 10.3575 4.9551 11.019 4.9551H26.9647C27.6262 4.9551 28.1622 5.49039 28.1622 6.15105V11.673H30.8095V4.69659C30.8091 3.37567 29.7371 2.30469 28.4141 2.30469Z" fill="#FFC34C"/>
<path d="M29.7588 7.34708C29.7588 6.68642 29.2228 6.15112 28.5613 6.15112H28.1621V11.6731H29.7588V7.34708Z" fill="#F9BB32"/>
<path d="M8.77099 6.15105V5.89255C8.77099 4.57163 9.84337 3.50064 11.166 3.50064H30.0111C30.1858 3.50064 30.3561 3.52011 30.5202 3.55592C30.1144 2.81079 29.3235 2.30469 28.4144 2.30469H9.56933C8.24669 2.30469 7.17432 3.37567 7.17432 4.69659V11.673H8.77099V6.15105Z" fill="#F9BB32"/>
<path d="M35.6544 8.20517H31.1162V6.74683H35.6544V8.20517Z" fill="#FFC34C"/>
<path d="M31.1167 6.74683H33.9109V8.20517H31.1167V6.74683Z" fill="#F9BB32"/>
<path d="M2.3291 6.74683H6.86691V8.20517H2.3291V6.74683Z" fill="#FFC34C"/>
<path d="M2.3291 6.74683H3.92578V8.20517H2.3291V6.74683Z" fill="#F9BB32"/>
<path d="M46.9336 38.2363C46.9336 40.4378 45.1463 42.2228 42.9419 42.2228C40.7371 42.2228 38.9502 40.4378 38.9502 38.2363C38.9502 36.0347 40.7371 34.2498 42.9419 34.2498C45.1463 34.2498 46.9336 36.0347 46.9336 38.2363Z" fill="#CCC033"/>
<path d="M44.9377 34.4733H40.946C40.7254 34.4733 40.5469 34.295 40.5469 34.0746V33.2773C40.5469 33.0574 40.7254 32.8787 40.946 32.8787H44.9377C45.1584 32.8787 45.3369 33.0574 45.3369 33.2773V34.0746C45.3369 34.295 45.1584 34.4733 44.9377 34.4733Z" fill="#EACF32"/>
<path d="M15.6826 48H1.3125C0.871618 48 0.51416 47.643 0.51416 47.2027V18.8712C0.51416 14.4825 4.07666 10.925 8.47063 10.925H8.52482C12.9188 10.925 16.4809 14.4825 16.4809 18.8712V47.2023C16.4809 47.643 16.1234 48 15.6826 48Z" fill="#BF6C0D"/>
<path d="M14.8843 19.4692C14.5537 19.4692 14.2855 19.2013 14.2855 18.8712C14.2855 16.4984 12.7913 14.3365 10.5671 13.4914C10.258 13.3738 10.1028 13.0285 10.2205 12.7197C10.3383 12.411 10.684 12.2557 10.9928 12.3733C13.6786 13.394 15.483 16.0055 15.483 18.8712C15.483 19.2013 15.2152 19.4692 14.8843 19.4692Z" fill="#E58D23"/>
<path d="M11.3405 8.93388H5.65469C5.44965 8.93388 5.2832 8.76804 5.2832 8.56287V6.38898C5.2832 6.18381 5.44965 6.01758 5.65469 6.01758H11.3405C11.5455 6.01758 11.712 6.18381 11.712 6.38898V8.56326C11.712 8.76804 11.5459 8.93388 11.3405 8.93388Z" fill="#E58D23"/>
<path d="M0.73915 5.47472C0.380133 5.38595 0.03125 5.64718 0.03125 6.00418V8.94734C0.03125 9.30434 0.380133 9.56556 0.73915 9.47719L2.79619 8.96914C2.88 8.94851 2.93847 8.87571 2.93847 8.7924V6.15912C2.93847 6.07581 2.88 6.00301 2.79619 5.98237L0.73915 5.47472Z" fill="#BF6C0D"/>
<path d="M22.3003 48H36.6704C37.1112 48 37.4687 47.643 37.4687 47.2027V18.8479C37.4687 14.472 33.9171 10.925 29.536 10.925H29.4346C25.0535 10.925 21.502 14.472 21.502 18.8479V47.2023C21.502 47.643 21.8594 48 22.3003 48Z" fill="#BF6C0D"/>
<path d="M26.6425 8.93388H32.3283C32.5333 8.93388 32.6998 8.76804 32.6998 8.56287V6.38898C32.6998 6.18381 32.5337 6.01758 32.3283 6.01758H26.6425C26.4374 6.01758 26.271 6.18381 26.271 6.38898V8.56326C26.2714 8.76804 26.4374 8.93388 26.6425 8.93388Z" fill="#E58D23"/>
<path d="M37.2442 5.47472C37.6029 5.38595 37.9521 5.64718 37.9521 6.00418V8.94734C37.9521 9.30434 37.6029 9.56556 37.2442 9.47719L35.1872 8.96914C35.1034 8.94851 35.0449 8.87571 35.0449 8.7924V6.15912C35.0449 6.07581 35.1034 6.00301 35.1872 5.98237L37.2442 5.47472Z" fill="#BF6C0D"/>
<path d="M22.5844 3.5972C22.5844 1.61057 20.9761 0 18.9919 0C17.0078 0 15.3994 1.61057 15.3994 3.5972C15.3994 5.58345 17.0078 7.19402 18.9919 7.19402C20.9761 7.19402 22.5844 5.58345 22.5844 3.5972Z" fill="#FF624B"/>
<path d="M6.10252 47.2027V18.8712C6.10252 15.4543 8.26208 12.5422 11.2917 11.4199C10.4302 11.1002 9.49818 10.925 8.52482 10.925H8.47063C4.07666 10.925 0.51416 14.4825 0.51416 18.8712V47.2023C0.51416 47.6426 0.871618 47.9996 1.3125 47.9996H6.90085C6.45998 48 6.10252 47.643 6.10252 47.2027Z" fill="#A56021"/>
<path d="M27.0903 47.2028V18.848C27.0903 15.4357 29.2507 12.5275 32.2795 11.4126C31.4246 11.0976 30.5004 10.9255 29.536 10.9255H29.4346C25.0535 10.9255 21.502 14.4725 21.502 18.848V47.2028C21.502 47.6431 21.8594 48.0001 22.3003 48.0001H27.8886C27.4478 48.0001 27.0903 47.6431 27.0903 47.2028Z" fill="#A56021"/>
<path d="M0.51416 22.4307H16.4809V43.9578H0.51416V22.4307Z" fill="#FFDF74"/>
<path d="M21.502 22.4307H37.4687V43.9578H21.502V22.4307Z" fill="#FFDF74"/>
<path d="M35.8722 42.9614C35.5416 42.9614 35.2734 42.6936 35.2734 42.3634V24.0255C35.2734 23.6953 35.5416 23.4275 35.8722 23.4275C36.2031 23.4275 36.4709 23.6953 36.4709 24.0255V42.3634C36.4709 42.6936 36.2031 42.9614 35.8722 42.9614Z" fill="#FCE575"/>
<path d="M0.51416 22.4307H6.10252V43.9578H0.51416V22.4307Z" fill="#FFD551"/>
<path d="M21.502 22.4307H27.0903V43.9578H21.502V22.4307Z" fill="#FFD551"/>
<path d="M1.62792 8.67171V7.20013C1.62792 6.84313 1.9772 6.58191 2.33582 6.67067L2.93847 6.81939V6.15912C2.93847 6.07581 2.88 6.00301 2.79619 5.98237L0.73915 5.47472C0.380133 5.38595 0.03125 5.64718 0.03125 6.00418V8.94734C0.03125 9.30434 0.380522 9.56556 0.73915 9.4768L1.62792 9.25723V8.67171Z" fill="#A56021"/>
<path d="M7.6787 7.18604C7.6787 6.98087 7.84476 6.81464 8.0498 6.81464H11.7121V6.38873C11.7121 6.18357 11.546 6.01733 11.3406 6.01733H5.65479C5.44975 6.01733 5.28369 6.18357 5.28369 6.38873V8.56302C5.28369 8.76779 5.44975 8.93364 5.65479 8.93364H7.6787V7.18604Z" fill="#BF6C0D"/>
<path d="M37.2442 5.47472C37.6029 5.38595 37.9521 5.64718 37.9521 6.00418V8.94734C37.9521 9.30434 37.6029 9.56556 37.2442 9.47719L35.1872 8.96914C35.1034 8.94851 35.0449 8.87571 35.0449 8.7924V6.15912C35.0449 6.07581 35.1034 6.00301 35.1872 5.98237L37.2442 5.47472Z" fill="#BF6C0D"/>
<path d="M28.6665 7.18604C28.6665 6.98087 28.8326 6.81464 29.038 6.81464H32.7003V6.38873C32.7003 6.18357 32.5338 6.01733 32.3288 6.01733H26.643C26.4379 6.01733 26.2715 6.18357 26.2715 6.38873V8.56302C26.2715 8.76779 26.4375 8.93364 26.643 8.93364H28.6665V7.18604Z" fill="#BF6C0D"/>
<path d="M37.2442 5.47472C37.6029 5.38595 37.9521 5.64718 37.9521 6.00418V8.94734C37.9521 9.30434 37.6029 9.56556 37.2442 9.47719L35.1872 8.96914C35.1034 8.94851 35.0449 8.87571 35.0449 8.7924V6.15912C35.0449 6.07581 35.1034 6.00301 35.1872 5.98237L37.2442 5.47472Z" fill="#BF6C0D"/>
<path d="M36.6416 8.27306V6.95642C36.6416 6.87311 36.7001 6.80031 36.7839 6.77968L37.9521 6.4912V6.00418C37.9521 5.64718 37.6029 5.38595 37.2442 5.47472L35.1872 5.98276C35.1034 6.0034 35.0449 6.07581 35.0449 6.15912V8.7924C35.0449 8.87571 35.1034 8.94851 35.1872 8.96914L36.6416 9.32809V8.27306Z" fill="#A56021"/>
<path d="M17.7944 3.5972C17.7944 2.03141 18.7951 0.703479 20.1894 0.209058C19.8144 0.0763043 19.4125 0 18.9919 0C17.0078 0 15.3994 1.61018 15.3994 3.5972C15.3994 5.58384 17.0078 7.19402 18.9919 7.19402C19.4125 7.19402 19.8144 7.1181 20.1894 6.98496C18.7951 6.49054 17.7944 5.16261 17.7944 3.5972Z" fill="#FF4B34"/>
<path d="M18.9917 5.98914C17.671 5.98914 16.5967 4.91582 16.5967 3.59723C16.5967 2.27825 17.671 1.20532 18.9917 1.20532C20.3124 1.20532 21.3867 2.27825 21.3867 3.59723C21.3867 4.91582 20.3124 5.98914 18.9917 5.98914Z" fill="#FFEACF"/>
<path d="M18.6911 5.96799C18.1341 5.33536 17.7942 4.50692 17.7942 3.5971C17.7942 2.6869 18.1337 1.85846 18.6908 1.22583C17.512 1.37455 16.5967 2.38013 16.5967 3.5971C16.5967 4.81369 17.512 5.81927 18.6911 5.96799Z" fill="#FFD59A"/>
<path d="M42.9419 34.0746V33.2773C42.9419 33.0574 43.1208 32.8787 43.3411 32.8787H40.946C40.7258 32.8787 40.5469 33.0574 40.5469 33.2773V34.0746C40.5469 34.295 40.7258 34.4733 40.946 34.4733H43.3411C43.1208 34.4733 42.9419 34.295 42.9419 34.0746Z" fill="#CCC033"/>
<path d="M41.3452 38.2363C41.3452 36.4513 42.5201 34.9408 44.1394 34.4327C43.7613 34.314 43.359 34.2498 42.9419 34.2498C40.7371 34.2498 38.9502 36.0347 38.9502 38.2363C38.9502 40.4378 40.7371 42.2228 42.9419 42.2228C43.359 42.2228 43.7613 42.1585 44.1394 42.0398C42.5201 41.5318 41.3452 40.0212 41.3452 38.2363Z" fill="#99AF17"/>
<path d="M44.9375 38.2363C44.9375 39.3373 44.044 40.2296 42.9416 40.2296C41.8393 40.2296 40.9458 39.3373 40.9458 38.2363C40.9458 37.1353 41.8393 36.243 42.9416 36.243C44.044 36.243 44.9375 37.1353 44.9375 38.2363Z" fill="#FCDA4F"/>
<path d="M42.1433 38.2363C42.1433 37.3456 42.7315 36.5895 43.5404 36.3349C43.3509 36.2754 43.1502 36.243 42.9416 36.243C41.8412 36.243 40.9458 37.1373 40.9458 38.2363C40.9458 39.3353 41.8412 40.2296 42.9416 40.2296C43.1502 40.2296 43.3509 40.1969 43.5404 40.1377C42.7315 39.8831 42.1433 39.127 42.1433 38.2363Z" fill="#EACF32"/>
<path d="M10.2937 41.7156C10.2937 42.7063 9.4895 43.5095 8.49743 43.5095C7.50536 43.5095 6.70117 42.7063 6.70117 41.7156C6.70117 40.7248 7.50536 39.9216 8.49743 39.9216C9.4895 39.9216 10.2937 40.7248 10.2937 41.7156Z" fill="#FFD551"/>
<path d="M34.0759 14.366C34.0759 15.3567 33.2717 16.1599 32.2797 16.1599C31.2876 16.1599 30.4834 15.3567 30.4834 14.366C30.4834 13.3752 31.2876 12.572 32.2797 12.572C33.2717 12.572 34.0759 13.3752 34.0759 14.366Z" fill="#A56021"/>
<path d="M18.4951 4.18111H19.4884L19.1138 1.81334C19.09 1.66346 18.8927 1.66346 18.8693 1.81334L18.4951 4.18111Z" fill="#FF624B"/>
<path d="M19.6125 4.1812C19.6125 4.5234 19.3346 4.80137 18.9916 4.80137C18.6485 4.80137 18.3706 4.5234 18.3706 4.1812C18.3706 3.83861 18.6485 3.56104 18.9916 3.56104C19.3346 3.56104 19.6125 3.83861 19.6125 4.1812Z" fill="#E58D23"/>
</g>
<defs>
<clipPath id="clip0_71_3399">
<rect width="48" height="48" fill="white"/>
</clipPath>
</defs>
</svg>
