<svg width="24" height="24" viewBox="0 0 24 24" fill="none" xmlns="http://www.w3.org/2000/svg">
<path d="M0.0468464 21.1621L1.09894 18.3566C1.55242 17.1472 2.70853 16.3461 4.00004 16.3461H5.44873L2.17372 22.1408H0.725028C0.219338 22.1408 -0.130763 21.6357 0.0468464 21.1621Z" fill="#81808C"/>
<path d="M12 16.3461H20L16.725 22.1408H15.275L12 16.3461Z" fill="#81808C"/>
<path d="M1.49548 21.1621L2.54757 18.3566C3.00106 17.1472 4.15717 16.3461 5.44868 16.3461H12L8.72499 22.1408H2.17367C1.66798 22.1408 1.31787 21.6357 1.49548 21.1621Z" fill="#9295A1"/>
<path d="M0.0468464 13.9186L1.09894 11.113C1.55242 9.90371 2.70853 9.10254 4.00004 9.10254H5.44873L2.17372 14.8973H0.725028C0.219338 14.8973 -0.130763 14.3922 0.0468464 13.9186Z" fill="#81808C"/>
<path d="M12 9.10254H20L16.725 14.8973H15.275L12 9.10254Z" fill="#81808C"/>
<path d="M1.49548 13.9186L2.54757 11.113C3.00106 9.90371 4.15717 9.10254 5.44868 9.10254H12L8.72499 14.8973H2.17367C1.66798 14.8973 1.31787 14.3922 1.49548 13.9186Z" fill="#9295A1"/>
<path d="M16.0468 13.9186L17.0989 11.113C17.5524 9.90371 18.7085 9.10254 20 9.10254L18.1538 14.8973H16.725C16.2193 14.8973 15.8692 14.3921 16.0468 13.9186Z" fill="#9295A1"/>
<path d="M17.4505 13.9996L18.162 11.113C18.4493 9.90371 19.1817 9.10254 20 9.10254C21.2916 9.10254 22.4476 9.90371 22.9011 11.113L23.9532 13.9186C24.1308 14.3922 23.7808 14.8973 23.275 14.8973H18.1538C17.6836 14.8973 17.338 14.4562 17.4505 13.9996Z" fill="#9EA5AD"/>
<path d="M8.04681 21.1621L9.0989 18.3566C9.55239 17.1472 10.7085 16.3461 12 16.3461L10.1538 22.1408H8.72499C8.2193 22.1408 7.86925 21.6357 8.04681 21.1621Z" fill="#9EA5AD"/>
<path d="M9.45054 21.2431L10.162 18.3566C10.4494 17.1472 11.1818 16.3461 12 16.3461C13.2916 16.3461 14.4477 17.1472 14.9011 18.3566L15.9532 21.1621C16.1308 21.6357 15.7807 22.1408 15.275 22.1408H10.1538C9.68358 22.1408 9.33802 21.6997 9.45054 21.2431Z" fill="#AEB9BF"/>
<path d="M16.0468 21.1621L17.0989 18.3566C17.5524 17.1472 18.7085 16.3461 20 16.3461L18.1538 22.1408H16.725C16.2193 22.1408 15.8692 21.6357 16.0468 21.1621Z" fill="#9295A1"/>
<path d="M17.4505 21.2431L18.162 18.3566C18.4493 17.1472 19.1817 16.3461 20 16.3461C21.2916 16.3461 22.4476 17.1472 22.9011 18.3566L23.9532 21.1621C24.1308 21.6357 23.7808 22.1408 23.275 22.1408H18.1538C17.6836 22.1408 17.338 21.6997 17.4505 21.2431Z" fill="#9EA5AD"/>
<path d="M4.0468 6.67521L5.09889 3.86963C5.55238 2.66031 6.70848 1.85913 8.00004 1.85913H9.44873L6.17372 7.6539H4.72503C4.21929 7.6539 3.86924 7.14879 4.0468 6.67521Z" fill="#81808C"/>
<path d="M5.49549 6.67521L6.54757 3.86963C7.00106 2.66031 8.15717 1.85913 9.44872 1.85913H16L12.725 7.6539H6.17367C5.66798 7.6539 5.31792 7.14879 5.49549 6.67521Z" fill="#9295A1"/>
<path d="M12.0468 6.67521L13.0988 3.86963C13.5524 2.66031 14.7084 1.85913 16 1.85913L14.1538 7.6539H12.725C12.2193 7.6539 11.8692 7.14874 12.0468 6.67521Z" fill="#9EA5AD"/>
<path d="M13.4505 6.75619L14.162 3.86963C14.4494 2.66031 15.1818 1.85913 16 1.85913C17.2916 1.85913 18.4477 2.66031 18.9011 3.86963L19.9532 6.67521C20.1308 7.14874 19.7807 7.6539 19.275 7.6539H14.1538C13.6836 7.6539 13.338 7.21277 13.4505 6.75619Z" fill="#AEB9BF"/>
<path d="M8.04681 13.9186L9.0989 11.113C9.55239 9.90371 10.7085 9.10254 12 9.10254L10.1538 14.8973H8.72499C8.2193 14.8973 7.86925 14.3921 8.04681 13.9186Z" fill="#9EA5AD"/>
<path d="M9.45054 13.9996L10.162 11.113C10.4494 9.90371 11.1818 9.10254 12 9.10254C13.2916 9.10254 14.4477 9.90371 14.9011 11.113L15.9532 13.9186C16.1308 14.3921 15.7807 14.8973 15.275 14.8973H10.1538C9.68358 14.8973 9.33802 14.4562 9.45054 13.9996Z" fill="#AEB9BF"/>
<path d="M4.03236 21.0543C3.83234 21.0543 3.67019 20.8922 3.67019 20.6921C3.67019 20.4921 3.83234 20.33 4.03236 20.33C4.23238 20.33 4.39453 20.4921 4.39453 20.6921C4.39453 20.8922 4.23238 21.0543 4.03236 21.0543Z" fill="#81808C"/>
<path d="M6.5514 21.0543C6.35138 21.0543 6.18923 20.8922 6.18923 20.6921C6.18923 20.4921 6.35138 20.33 6.5514 20.33C6.75142 20.33 6.91357 20.4921 6.91357 20.6921C6.91357 20.8922 6.75142 21.0543 6.5514 21.0543Z" fill="#81808C"/>
<path d="M5.82679 19.6056C5.62677 19.6056 5.46462 19.4434 5.46462 19.2434C5.46462 19.0434 5.62677 18.8812 5.82679 18.8812C6.02681 18.8812 6.18896 19.0434 6.18896 19.2434C6.18896 19.4434 6.02681 19.6056 5.82679 19.6056Z" fill="#81808C"/>
<path d="M1.67152 13.8109C1.4715 13.8109 1.30935 13.6487 1.30935 13.4487C1.30935 13.2487 1.4715 13.0865 1.67152 13.0865C1.87154 13.0865 2.03369 13.2487 2.03369 13.4487C2.03369 13.6487 1.87154 13.8109 1.67152 13.8109Z" fill="#74727D"/>
<path d="M6.5514 13.8108C6.35138 13.8108 6.18923 13.6486 6.18923 13.4486C6.18923 13.2486 6.35138 13.0864 6.5514 13.0864C6.75142 13.0864 6.91357 13.2486 6.91357 13.4486C6.91357 13.6486 6.75142 13.8108 6.5514 13.8108Z" fill="#81808C"/>
<path d="M4.03236 12.362C3.83234 12.362 3.67019 12.1999 3.67019 11.9999C3.67019 11.7998 3.83234 11.6377 4.03236 11.6377C4.23238 11.6377 4.39453 11.7998 4.39453 11.9999C4.39453 12.1999 4.23238 12.362 4.03236 12.362Z" fill="#81808C"/>
<path d="M4.75648 10.9134C4.55646 10.9134 4.39431 10.7513 4.39431 10.5513C4.39431 10.3512 4.55646 10.1891 4.75648 10.1891C4.9565 10.1891 5.11865 10.3512 5.11865 10.5513C5.11865 10.7513 4.9565 10.9134 4.75648 10.9134Z" fill="#81808C"/>
<path d="M10.5514 6.56736C10.3514 6.56736 10.1892 6.40521 10.1892 6.20519C10.1892 6.00517 10.3514 5.84302 10.5514 5.84302C10.7514 5.84302 10.9136 6.00517 10.9136 6.20519C10.9136 6.40521 10.7514 6.56736 10.5514 6.56736Z" fill="#81808C"/>
<path d="M9.82728 5.11863C9.62726 5.11863 9.46511 4.95648 9.46511 4.75646C9.46511 4.55644 9.62726 4.39429 9.82728 4.39429C10.0273 4.39429 10.1895 4.55644 10.1895 4.75646C10.1895 4.95648 10.0273 5.11863 9.82728 5.11863Z" fill="#81808C"/>
</svg>
