<svg width="61" height="52" viewBox="0 0 61 52" fill="none" xmlns="http://www.w3.org/2000/svg">
<path d="M0.616872 48.9054L3.2471 41.8915C4.38082 38.8682 7.27108 36.8652 10.4999 36.8652H14.1216L5.93406 51.3522H2.31233C1.0481 51.3522 0.172848 50.0894 0.616872 48.9054Z" fill="#81808C"/>
<path d="M30.5 36.8652H50.5L42.3125 51.3522H38.6875L30.5 36.8652Z" fill="#81808C"/>
<path d="M4.23871 48.9054L6.86894 41.8915C8.00266 38.8682 10.8929 36.8652 14.1217 36.8652H30.5L22.3125 51.3522H5.93417C4.66994 51.3522 3.79469 50.0894 4.23871 48.9054Z" fill="#9295A1"/>
<path d="M0.616872 30.7968L3.2471 23.7828C4.38082 20.7595 7.27108 18.7566 10.4999 18.7566H14.1216L5.93406 33.2435H2.31233C1.0481 33.2435 0.172848 31.9807 0.616872 30.7968Z" fill="#81808C"/>
<path d="M30.5 18.7566H50.5L42.3125 33.2435H38.6875L30.5 18.7566Z" fill="#81808C"/>
<path d="M4.23871 30.7968L6.86894 23.7828C8.00266 20.7595 10.8929 18.7566 14.1217 18.7566H30.5L22.3125 33.2435H5.93417C4.66994 33.2435 3.79469 31.9807 4.23871 30.7968Z" fill="#9295A1"/>
<path d="M40.617 30.7968L43.2472 23.7828C44.381 20.7595 47.2712 18.7566 50.5 18.7566L45.8845 33.2435H42.3125C41.0482 33.2435 40.173 31.9806 40.617 30.7968Z" fill="#9295A1"/>
<path d="M44.1263 30.9992L45.905 23.7828C46.6233 20.7595 48.4544 18.7566 50.5 18.7566C53.7289 18.7566 56.6191 20.7595 57.7528 23.7828L60.383 30.7968C60.827 31.9807 59.9519 33.2435 58.6875 33.2435H45.8844C44.7089 33.2435 43.8449 32.1407 44.1263 30.9992Z" fill="#9EA5AD"/>
<path d="M20.617 48.9054L23.2472 41.8915C24.381 38.8682 27.2712 36.8652 30.5 36.8652L25.8845 51.3522H22.3125C21.0482 51.3522 20.1731 50.0893 20.617 48.9054Z" fill="#9EA5AD"/>
<path d="M24.1263 49.1079L25.9051 41.8915C26.6234 38.8682 28.4544 36.8652 30.5001 36.8652C33.729 36.8652 36.6191 38.8682 37.7529 41.8915L40.3831 48.9054C40.827 50.0893 39.9519 51.3522 38.6875 51.3522H25.8844C24.709 51.3522 23.8451 50.2493 24.1263 49.1079Z" fill="#AEB9BF"/>
<path d="M40.617 48.9054L43.2472 41.8915C44.381 38.8682 47.2712 36.8652 50.5 36.8652L45.8845 51.3522H42.3125C41.0482 51.3522 40.173 50.0893 40.617 48.9054Z" fill="#9295A1"/>
<path d="M44.1263 49.1079L45.905 41.8915C46.6233 38.8682 48.4544 36.8652 50.5 36.8652C53.7289 36.8652 56.6191 38.8682 57.7528 41.8915L60.383 48.9054C60.827 50.0894 59.9519 51.3522 58.6875 51.3522H45.8844C44.7089 51.3522 43.8449 50.2493 44.1263 49.1079Z" fill="#9EA5AD"/>
<path d="M10.6168 12.6882L13.247 5.67419C14.3807 2.65089 17.271 0.647949 20.4999 0.647949H24.1216L15.9341 15.1349H12.3123C11.048 15.1349 10.1729 13.8721 10.6168 12.6882Z" fill="#81808C"/>
<path d="M14.2387 12.6882L16.8689 5.67419C18.0027 2.65089 20.8929 0.647949 24.1218 0.647949H40.5L32.3125 15.1349H15.9342C14.6699 15.1349 13.7948 13.8721 14.2387 12.6882Z" fill="#9295A1"/>
<path d="M30.6169 12.6882L33.2471 5.67419C34.381 2.65089 37.2711 0.647949 40.5 0.647949L35.8845 15.1349H32.3125C31.0481 15.1349 30.173 13.872 30.6169 12.6882Z" fill="#9EA5AD"/>
<path d="M34.1263 12.8906L35.9051 5.67419C36.6234 2.65089 38.4544 0.647949 40.5001 0.647949C43.729 0.647949 46.6191 2.65089 47.7529 5.67419L50.3831 12.6882C50.827 13.872 49.9519 15.1349 48.6875 15.1349H35.8844C34.709 15.1349 33.8451 14.0321 34.1263 12.8906Z" fill="#AEB9BF"/>
<path d="M20.617 30.7968L23.2472 23.7828C24.381 20.7595 27.2712 18.7566 30.5 18.7566L25.8845 33.2435H22.3125C21.0482 33.2435 20.1731 31.9806 20.617 30.7968Z" fill="#9EA5AD"/>
<path d="M24.1263 30.9992L25.9051 23.7828C26.6234 20.7595 28.4544 18.7566 30.5001 18.7566C33.729 18.7566 36.6191 20.7595 37.7529 23.7828L40.3831 30.7968C40.827 31.9806 39.9519 33.2435 38.6875 33.2435H25.8844C24.709 33.2435 23.8451 32.1407 24.1263 30.9992Z" fill="#AEB9BF"/>
<path d="M10.5804 48.6358C10.0804 48.6358 9.67497 48.2304 9.67497 47.7304C9.67497 47.2303 10.0804 46.825 10.5804 46.825C11.0805 46.825 11.4858 47.2303 11.4858 47.7304C11.4858 48.2304 11.0805 48.6358 10.5804 48.6358Z" fill="#81808C"/>
<path d="M16.8783 48.6358C16.3782 48.6358 15.9728 48.2304 15.9728 47.7304C15.9728 47.2303 16.3782 46.825 16.8783 46.825C17.3783 46.825 17.7837 47.2303 17.7837 47.7304C17.7837 48.2304 17.3783 48.6358 16.8783 48.6358Z" fill="#81808C"/>
<path d="M15.0672 45.0142C14.5672 45.0142 14.1618 44.6089 14.1618 44.1088C14.1618 43.6087 14.5672 43.2034 15.0672 43.2034C15.5673 43.2034 15.9727 43.6087 15.9727 44.1088C15.9727 44.6089 15.5673 45.0142 15.0672 45.0142Z" fill="#81808C"/>
<path d="M4.67953 30.5272C4.17947 30.5272 3.7741 30.1218 3.7741 29.6217C3.7741 29.1217 4.17947 28.7163 4.67953 28.7163C5.17958 28.7163 5.58496 29.1217 5.58496 29.6217C5.58496 30.1218 5.17958 30.5272 4.67953 30.5272Z" fill="#74727D"/>
<path d="M16.8783 30.5274C16.3782 30.5274 15.9728 30.122 15.9728 29.622C15.9728 29.1219 16.3782 28.7166 16.8783 28.7166C17.3783 28.7166 17.7837 29.1219 17.7837 29.622C17.7837 30.122 17.3783 30.5274 16.8783 30.5274Z" fill="#81808C"/>
<path d="M10.5804 26.9056C10.0804 26.9056 9.67497 26.5002 9.67497 26.0002C9.67497 25.5001 10.0804 25.0947 10.5804 25.0947C11.0805 25.0947 11.4858 25.5001 11.4858 26.0002C11.4858 26.5002 11.0805 26.9056 10.5804 26.9056Z" fill="#81808C"/>
<path d="M12.3914 23.2838C11.8914 23.2838 11.486 22.8784 11.486 22.3783C11.486 21.8783 11.8914 21.4729 12.3914 21.4729C12.8915 21.4729 13.2969 21.8783 13.2969 22.3783C13.2969 22.8784 12.8915 23.2838 12.3914 23.2838Z" fill="#81808C"/>
<path d="M26.8783 12.4188C26.3782 12.4188 25.9728 12.0134 25.9728 11.5133C25.9728 11.0133 26.3782 10.6079 26.8783 10.6079C27.3783 10.6079 27.7837 11.0133 27.7837 11.5133C27.7837 12.0134 27.3783 12.4188 26.8783 12.4188Z" fill="#81808C"/>
<path d="M25.0672 8.79695C24.5672 8.79695 24.1618 8.39157 24.1618 7.89152C24.1618 7.39146 24.5672 6.98608 25.0672 6.98608C25.5673 6.98608 25.9727 7.39146 25.9727 7.89152C25.9727 8.39157 25.5673 8.79695 25.0672 8.79695Z" fill="#81808C"/>
</svg>
