<svg width="48" height="48" viewBox="0 0 48 48" fill="none" xmlns="http://www.w3.org/2000/svg">
<g clip-path="url(#clip0_91_633)">
<path d="M36.6506 26.9408L37.4336 40.7565H34.5295L27.9585 26.9408L36.5859 26.9456L36.6506 26.9408Z" fill="#EB7052"/>
<path d="M34.4767 37.8591L33.9318 30.2637L11.4134 26.9456L11.3487 26.9408L10.5654 37.8591V40.7565H34.4767V37.8591Z" fill="#FF885C"/>
<path d="M34.4595 5.7948C34.8394 5.7948 35.1547 6.0883 35.182 6.46728L36.6509 26.9409L36.5862 26.9457L33.9321 30.2638L24 17.9991L32.1768 5.7948H34.4595Z" fill="#CC5F47"/>
<path d="M32.1769 5.7948L33.9322 30.2638L30.5192 34.5291V40.7566H17.481V34.5291L11.4138 26.9457L11.3491 26.9409L12.8181 6.46728C12.8453 6.0883 13.1607 5.7948 13.5406 5.7948H32.1769Z" fill="#EB7052"/>
<path d="M27.6218 4.94236C27.6218 4.00534 28.0187 3.12763 28.6674 2.45148C28.932 2.17565 29.0885 1.79541 29.0689 1.37867C29.0322 0.599469 28.3609 0 27.5809 0H24.7244L19.5488 12.7077H30.1054L27.9099 6.59696C27.7193 6.06616 27.6218 5.50638 27.6218 4.94236Z" fill="#FF885C"/>
<path d="M25.7695 2.45148C26.0341 2.17565 26.1906 1.79541 26.171 1.37867C26.1344 0.599469 25.4632 0 24.6831 0H20.4188C19.6388 0 18.9675 0.599469 18.9309 1.37867C18.9113 1.79541 19.0679 2.17565 19.3324 2.45148C19.9811 3.12763 20.378 4.00534 20.378 4.94236C20.378 5.50638 20.2804 6.06616 20.0898 6.59696L17.894 12.7083L27.2078 12.7079L25.0122 6.59696C24.8215 6.06616 24.724 5.50638 24.724 4.94236C24.724 4.00544 25.1209 3.12763 25.7695 2.45148Z" fill="#FF9F5E"/>
<path d="M32.9285 20.5663L30.105 12.7077C29.8551 12.0477 29.2001 11.5895 28.4508 11.5895C27.6859 11.5895 27.4468 11.94 27.0105 12.1592L20.3779 40.7565H27.6214V33.513L31.602 28.5372C32.7763 27.0693 33.4162 25.2454 33.4162 23.3655C33.4162 22.4114 33.2512 21.4643 32.9285 20.5663Z" fill="#FF9F5E"/>
<path d="M24.0244 37.8592L24.7242 34.842V37.8592H24.0244Z" fill="#FF9F5E"/>
<path d="M29.1857 26.92C30.5273 25.243 30.9022 22.9899 30.1762 20.9688L27.0111 12.1592C26.8127 12.2589 26.5735 12.3314 26.2257 12.3314C25.1129 12.3314 25.1129 11.5895 24.0001 11.5895C22.8873 11.5895 22.8873 12.3314 21.7745 12.3314C20.6617 12.3314 20.6617 11.5895 19.5488 11.5895C18.7994 11.5895 18.1442 12.0479 17.8944 12.7083L15.0711 20.5663C14.7485 21.4643 14.5835 22.4114 14.5835 23.3655C14.5835 25.2453 15.2232 27.0692 16.3976 28.5371L20.3784 33.513V40.7565H24.7244V33.513C24.7244 32.8551 24.9483 32.2168 25.3594 31.703L29.1857 26.92Z" fill="#FFB963"/>
<path d="M38.0312 42.2052L40.9286 48H43.1017C43.5017 48 43.826 47.6757 43.826 47.2756V45.1026L38.0312 42.2052Z" fill="#FFF3C4"/>
<path d="M4.17383 45.1026V47.2756C4.17383 47.6757 4.49814 48 4.89817 48H40.9285V42.2052H7.07121L4.17383 45.1026Z" fill="#FFFBEB"/>
<path d="M40.9286 37.8591L36.5825 41.4809L40.9286 45.1026H43.826V38.5835C43.826 38.1834 43.5017 37.8591 43.1016 37.8591H40.9286Z" fill="#AEB9BF"/>
<path d="M4.17383 38.5835V45.1026H40.9285V37.8591H4.89817C4.49814 37.8591 4.17383 38.1834 4.17383 38.5835Z" fill="#BFCFD6"/>
<path d="M23.9997 40.7566C22.7996 40.7566 21.8267 41.7295 21.8267 42.9296V48.0001H26.1727V42.9296C26.1727 41.7295 25.1998 40.7566 23.9997 40.7566Z" fill="#65636E"/>
</g>
<defs>
<clipPath id="clip0_91_633">
<rect width="48" height="48" fill="white"/>
</clipPath>
</defs>
</svg>
