<svg width="24" height="24" viewBox="0 0 24 24" fill="none" xmlns="http://www.w3.org/2000/svg">
<path d="M13.9373 24L22.4364 17.4194L20.3613 13.6088L19.7543 6.98379L9.2901 0L14.9789 9.22358L13.6423 12.3299L14.9789 17.4328L13.9373 24Z" fill="#616670"/>
<path d="M13.9373 24L14.9789 17.4328L13.6423 12.3299L14.9789 9.22358L9.2901 0L6.376 3.62147L6.32063 7.17137L2 13.6672L5.37895 19.8646L13.9373 24Z" fill="#707789"/>
<path d="M19.7543 6.9838L14.9789 9.22358L13.6423 12.3299L20.3613 13.6088L19.7543 6.9838Z" fill="#555960"/>
<path d="M13.9373 24L22.4364 17.4194L14.9789 17.4328L13.9373 24Z" fill="#555960"/>
<path d="M10.5046 12.8379C10.4708 12.8871 10.4256 12.9274 10.3728 12.9553C10.32 12.9832 10.2612 12.9978 10.2015 12.9979C10.1269 12.998 10.0542 12.9752 9.99304 12.9326L9.08146 12.3031C9.01212 12.2568 8.9614 12.1875 8.9383 12.1073L7.94251 8.82102L6.11725 7.47787L6.32146 7.1705L6.32777 6.71997L8.47725 8.30102C8.54187 8.34755 8.58925 8.41418 8.61198 8.4905L9.60567 11.7705L10.412 12.3263C10.492 12.3819 10.5467 12.467 10.564 12.5629C10.5814 12.6588 10.56 12.7577 10.5046 12.8379Z" fill="#616670"/>
<path d="M8.29621 17.2L8.02885 18.8084C8.01929 18.8662 7.99593 18.9209 7.96075 18.9678C7.92557 19.0147 7.8796 19.0525 7.82674 19.0779L5.80148 20.0694L5.37832 19.8652L5.20148 19.541L7.33411 18.4989L7.5699 17.08C7.57778 17.0323 7.59497 16.9866 7.6205 16.9456C7.64603 16.9045 7.6794 16.8689 7.71869 16.8407C7.75798 16.8126 7.80244 16.7925 7.84951 16.7815C7.89659 16.7705 7.94537 16.7689 7.99306 16.7768C8.04075 16.7847 8.08642 16.8019 8.12746 16.8274C8.16851 16.8529 8.20412 16.8863 8.23227 16.9256C8.26042 16.9649 8.28056 17.0093 8.29153 17.0564C8.3025 17.1035 8.30409 17.1523 8.29621 17.2Z" fill="#616670"/>
</svg>
