<svg width="48" height="48" viewBox="0 0 48 48" fill="none" xmlns="http://www.w3.org/2000/svg">
<g clip-path="url(#clip0_221_3174)">
<path d="M7.96875 43.3089L3.75 44.2471V47.2964C3.75 47.685 4.06481 48.0001 4.45312 48.0001H7.26562C7.65394 48.0001 7.96875 47.6851 7.96875 47.2964V43.3089Z" fill="#B5D9DD"/>
<path d="M44.25 44.2471L40.0312 43.3089V47.2964C40.0312 47.685 40.3461 48.0001 40.7344 48.0001H43.5469C43.9352 48.0001 44.25 47.6851 44.25 47.2964V44.2471Z" fill="#B5D9DD"/>
<path d="M34.0781 3.51825V10.186C34.0781 10.5744 33.7631 10.8897 33.375 10.8897H14.625C14.2369 10.8897 13.9219 10.5744 13.9219 10.186V3.51825C13.9219 3.12984 14.2369 2.81456 14.625 2.81456H33.375C33.7631 2.81456 34.0781 3.12984 34.0781 3.51825Z" fill="#F3D6AE"/>
<path d="M34.0781 3.51825V10.186C34.0781 10.5744 33.7631 10.8897 33.375 10.8897H31.2188C31.6069 10.8897 31.9219 10.5744 31.9219 10.186V3.51825C31.9219 3.12984 31.6069 2.81456 31.2188 2.81456H33.375C33.7631 2.81456 34.0781 3.12984 34.0781 3.51825Z" fill="#EDBA75"/>
<path d="M34.6144 26.9505H13.3856C13.3856 22.2314 17.2087 18.4055 21.9253 18.4055H26.0747C30.7912 18.4055 34.6144 22.2314 34.6144 26.9505Z" fill="#FF6C6C"/>
<path d="M34.6144 26.9505H31.8019C31.8019 22.2314 27.9787 18.4055 23.2622 18.4055H26.0747C30.7912 18.4055 34.6144 22.2314 34.6144 26.9505Z" fill="#FF4141"/>
<path d="M44.25 11.9902V14.4116C44.25 14.8 43.935 15.1153 43.5469 15.1153H4.45312C4.065 15.1153 3.75 14.8 3.75 14.4116V11.9902C3.75 10.6073 4.87406 9.48235 6.25594 9.48235H41.7441C43.1259 9.48235 44.25 10.6073 44.25 11.9902Z" fill="#D6EAEC"/>
<path d="M44.25 11.9902V14.4116C44.25 14.8 43.935 15.1153 43.5469 15.1153H40.7344C41.1225 15.1153 41.4375 14.8 41.4375 14.4116V11.9902C41.4375 10.6044 40.3153 9.48235 38.9315 9.48235H41.744C43.1259 9.48235 44.25 10.6073 44.25 11.9902Z" fill="#B5D9DD"/>
<path d="M37.4531 0.703687V3.51825C37.4531 3.90666 37.1381 4.22194 36.75 4.22194H11.25C10.8619 4.22194 10.5469 3.90675 10.5469 3.51825V0.703687C10.5469 0.315281 10.8619 0 11.25 0H36.75C37.1381 0 37.4531 0.315281 37.4531 0.703687Z" fill="#6B717D"/>
<path d="M37.4531 0.703687V3.51825C37.4531 3.90666 37.1381 4.22194 36.75 4.22194H33.9375C34.3256 4.22194 34.6406 3.90675 34.6406 3.51825V0.703687C34.6406 0.315281 34.3256 0 33.9375 0H36.75C37.1381 0 37.4531 0.315281 37.4531 0.703687Z" fill="#47505E"/>
<path d="M44.25 31.9164V44.2471H38.2969L24 42.3707L9.70312 44.2471H3.75V31.9164L24 28.7068L41.4375 31.4708L44.25 31.9164Z" fill="#6B717D"/>
<path d="M41.4375 31.4707L44.25 31.9164V44.2471H41.4375V31.4707Z" fill="#47505E"/>
<path d="M44.25 28.7547V31.9164H3.75V28.7547C3.75 27.3718 4.87406 26.2469 6.25594 26.2469H41.7441C43.1259 26.2469 44.25 27.3718 44.25 28.7547Z" fill="#D6EAEC"/>
<path d="M38.2969 44.2471V37.5963C38.2969 37.2079 37.9819 36.8926 37.5938 36.8926H10.4062C10.0181 36.8926 9.70312 37.2078 9.70312 37.5963V44.2471H38.2969Z" fill="#D6EAEC"/>
<path d="M29.0339 38.7129H18.9661C18.5777 38.7129 18.263 39.0279 18.263 39.4166C18.263 39.8052 18.5777 40.1203 18.9661 40.1203H29.034C29.4224 40.1203 29.7371 39.8053 29.7371 39.4166C29.737 39.0279 29.4223 38.7129 29.0339 38.7129Z" fill="#B5D9DD"/>
<path d="M18.0469 7.54988C18.4352 7.54988 18.75 7.23483 18.75 6.84619C18.75 6.45755 18.4352 6.1425 18.0469 6.1425C17.6585 6.1425 17.3438 6.45755 17.3438 6.84619C17.3438 7.23483 17.6585 7.54988 18.0469 7.54988Z" fill="#EDBA75"/>
<path d="M24 7.53956C24.3883 7.53956 24.7031 7.22451 24.7031 6.83587C24.7031 6.44724 24.3883 6.13219 24 6.13219C23.6117 6.13219 23.2969 6.44724 23.2969 6.83587C23.2969 7.22451 23.6117 7.53956 24 7.53956Z" fill="#EDBA75"/>
<path d="M29.9531 7.54988C30.3415 7.54988 30.6562 7.23483 30.6562 6.84619C30.6562 6.45755 30.3415 6.1425 29.9531 6.1425C29.5648 6.1425 29.25 6.45755 29.25 6.84619C29.25 7.23483 29.5648 7.54988 29.9531 7.54988Z" fill="#EDBA75"/>
<path d="M8.20312 35.2001C8.59145 35.2001 8.90625 34.8851 8.90625 34.4964C8.90625 34.1078 8.59145 33.7928 8.20312 33.7928C7.8148 33.7928 7.5 34.1078 7.5 34.4964C7.5 34.8851 7.8148 35.2001 8.20312 35.2001Z" fill="#47505E"/>
<path d="M38.8594 35.2001C39.2477 35.2001 39.5625 34.8851 39.5625 34.4964C39.5625 34.1078 39.2477 33.7928 38.8594 33.7928C38.471 33.7928 38.1562 34.1078 38.1562 34.4964C38.1562 34.8851 38.471 35.2001 38.8594 35.2001Z" fill="#47505E"/>
<path d="M44.25 28.7547V31.9164H41.4375V28.7547C41.4375 27.3718 40.3134 26.2469 38.9315 26.2469H41.744C43.1259 26.2469 44.25 27.3718 44.25 28.7547Z" fill="#B5D9DD"/>
</g>
<defs>
<clipPath id="clip0_221_3174">
<rect width="48" height="48" fill="white"/>
</clipPath>
</defs>
</svg>
