<svg width="48" height="48" viewBox="0 0 48 48" fill="none" xmlns="http://www.w3.org/2000/svg">
<g clip-path="url(#clip0_462_1432)">
<path d="M15.3078 0L13.8591 2.89738V19.0262H18.2052V0.724346C18.2052 0.324314 17.8809 0 17.4809 0H15.3078Z" fill="#65636E"/>
<path d="M12.4105 0.724346V19.0262H15.3078V0H13.1348C12.7348 0 12.4105 0.324314 12.4105 0.724346Z" fill="#74727D"/>
<path d="M24 0L22.5513 2.89738V19.0262H26.8974V0.724346C26.8974 0.324314 26.5731 0 26.173 0H24Z" fill="#65636E"/>
<path d="M21.1026 0.724346V19.0262H24V0H21.827C21.4269 0 21.1026 0.324314 21.1026 0.724346Z" fill="#74727D"/>
<path d="M32.6921 0L31.2435 2.89738V19.0262H35.5895V0.724346C35.5895 0.324314 35.2652 0 34.8652 0H32.6921Z" fill="#65636E"/>
<path d="M29.7948 0.724346V19.0262H32.6922V0H30.5191C30.1191 0 29.7948 0.324314 29.7948 0.724346Z" fill="#74727D"/>
<path d="M24 19.0262H42.833V36.4105H24V19.0262Z" fill="#BFCFD6"/>
<path d="M5.16699 19.0262H39.9356V36.4105H5.16699V19.0262Z" fill="#CDE3EA"/>
<path d="M42.833 27.7183H39.9356V30.6157H42.833C43.6331 30.6157 44.2817 29.967 44.2817 29.167C44.2817 28.3669 43.6331 27.7183 42.833 27.7183Z" fill="#9295A1"/>
<path d="M41.3843 29.167C41.3843 28.3669 40.7357 27.7183 39.9356 27.7183H37.0382V19.0262H34.1408V27.7183H13.8592V19.0262H10.9618V27.7183H5.167C4.36694 27.7183 3.71831 28.3669 3.71831 29.167C3.71831 29.9671 4.36694 30.6157 5.167 30.6157H39.9356C40.7357 30.6157 41.3843 29.9671 41.3843 29.167Z" fill="#9EA5AD"/>
<path d="M42.833 16.1288L38.4869 19.0261L42.833 21.9235H45.006C45.4061 21.9235 45.7304 21.5992 45.7304 21.1992V16.8531C45.7304 16.4531 45.4061 16.1288 45.006 16.1288H42.833Z" fill="#CDE3EA"/>
<path d="M2.26961 16.8531V21.1992C2.26961 21.5992 2.59392 21.9235 2.99395 21.9235H42.833V16.1288H2.99395C2.59392 16.1288 2.26961 16.4531 2.26961 16.8531Z" fill="#E5F9FF"/>
<path d="M44.2817 33.5131L39.9356 40.7565L44.2817 48H46.4547C46.8548 48 47.1791 47.6757 47.1791 47.2756V34.2374C47.1791 33.8374 46.8548 33.5131 46.4547 33.5131H44.2817Z" fill="#9EA5AD"/>
<path d="M0.820923 34.2374V47.2756C0.820923 47.6757 1.14524 48 1.54527 48H44.2817V45.1026L39.9356 40.7565L44.2817 36.4104V33.5131H1.54527C1.14524 33.5131 0.820923 33.8374 0.820923 34.2374Z" fill="#AEB9BF"/>
<path d="M41.3843 36.4105L37.0382 40.7565L41.3843 45.1026H44.2817V36.4105H41.3843Z" fill="#BFCFD6"/>
<path d="M35.5895 36.4105L31.2435 40.7565L35.5895 45.1026H41.3843V36.4105H35.5895Z" fill="#CDE3EA"/>
<path d="M32.6921 36.4105L28.3461 40.7565L32.6921 45.1026H35.5895V36.4105H32.6921Z" fill="#9295A1"/>
<path d="M12.4105 36.4105L9.51308 40.7564L12.4105 45.1026H32.6922V36.4105H12.4105Z" fill="#9EA5AD"/>
<path d="M9.51307 36.4105L5.16699 40.7565L9.51307 45.1026H12.4105V36.4105H9.51307Z" fill="#BFCFD6"/>
<path d="M3.71831 36.4105H9.51308V45.1026H3.71831V36.4105Z" fill="#CDE3EA"/>
<path d="M8.06438 42.2052C8.86447 42.2052 9.51308 41.5566 9.51308 40.7565C9.51308 39.9564 8.86447 39.3078 8.06438 39.3078C7.26429 39.3078 6.61569 39.9564 6.61569 40.7565C6.61569 41.5566 7.26429 42.2052 8.06438 42.2052Z" fill="#9295A1"/>
<path d="M39.9356 42.2052C40.7357 42.2052 41.3843 41.5566 41.3843 40.7565C41.3843 39.9564 40.7357 39.3078 39.9356 39.3078C39.1355 39.3078 38.4869 39.9564 38.4869 40.7565C38.4869 41.5566 39.1355 42.2052 39.9356 42.2052Z" fill="#9295A1"/>
</g>
<defs>
<clipPath id="clip0_462_1432">
<rect width="48" height="48" fill="white"/>
</clipPath>
</defs>
</svg>
