<svg width="60" height="60" viewBox="0 0 60 60" fill="none" xmlns="http://www.w3.org/2000/svg">
<g clip-path="url(#clip0_96_798)">
<path d="M46.0541 29.1797C44.3252 29.1797 42.7121 29.7462 41.5123 30.7746C40.303 31.8112 39.6094 33.2374 39.6094 34.6875C39.6094 35.5998 38.5295 36.6797 37.6172 36.6797C36.0764 36.6797 34.7504 37.2019 33.7829 38.1898C32.672 39.324 32.109 40.9846 32.1094 43.125C32.1094 50.8145 38.3652 57.0703 46.0547 57.0703H46.0548L50.1562 43.701L46.0548 29.1797C46.0545 29.1797 46.0545 29.1797 46.0541 29.1797Z" fill="#717175"/>
<path d="M60 43.125C60 35.4355 53.7442 29.1797 46.0548 29.1797V57.0703C53.7443 57.0703 60 50.8144 60 43.125Z" fill="#5B5B5E"/>
<path d="M54.4922 45.8206C55.463 45.8206 56.25 45.0336 56.25 44.0627C56.25 43.0919 55.463 42.3049 54.4922 42.3049C53.5214 42.3049 52.7344 43.0919 52.7344 44.0627C52.7344 45.0336 53.5214 45.8206 54.4922 45.8206Z" fill="#444448"/>
<path d="M50.1562 50.5081C51.1271 50.5081 51.9141 49.7211 51.9141 48.7502C51.9141 47.7794 51.1271 46.9924 50.1562 46.9924C49.1854 46.9924 48.3984 47.7794 48.3984 48.7502C48.3984 49.7211 49.1854 50.5081 50.1562 50.5081Z" fill="#444448"/>
<path d="M13.9447 29.1797C12.2159 29.1797 10.6027 29.7462 9.40289 30.7746C8.19363 31.8112 7.5 33.2374 7.5 34.6875C7.5 35.5998 6.42012 36.6797 5.50781 36.6797C3.96703 36.6797 2.64105 37.2019 1.67355 38.1898C0.562735 39.324 -0.000351398 40.9846 1.64521e-07 43.125C1.64521e-07 50.8145 6.25582 57.0703 13.9453 57.0703H13.9454L17.0121 43.5214L13.9454 29.1797C13.9451 29.1797 13.9451 29.1797 13.9447 29.1797Z" fill="#717175"/>
<path d="M27.8906 43.125C27.8906 35.4355 21.6348 29.1797 13.9454 29.1797V57.0703C21.6349 57.0703 27.8906 50.8144 27.8906 43.125Z" fill="#5B5B5E"/>
<path d="M22.6172 45.8206C23.588 45.8206 24.375 45.0336 24.375 44.0627C24.375 43.0919 23.588 42.3049 22.6172 42.3049C21.6464 42.3049 20.8594 43.0919 20.8594 44.0627C20.8594 45.0336 21.6464 45.8206 22.6172 45.8206Z" fill="#444448"/>
<path d="M18.2812 50.5081C19.2521 50.5081 20.0391 49.7211 20.0391 48.7502C20.0391 47.7794 19.2521 46.9924 18.2812 46.9924C17.3104 46.9924 16.5234 47.7794 16.5234 48.7502C16.5234 49.7211 17.3104 50.5081 18.2812 50.5081Z" fill="#444448"/>
<path d="M16.0547 16.875C16.0547 24.5645 22.3105 30.8203 30 30.8203L33.1691 16.875L30 2.92969C22.3105 2.92969 16.0547 9.18551 16.0547 16.875Z" fill="#717175"/>
<path d="M42.2718 11.9398C41.3043 10.9519 39.9783 10.4297 38.4375 10.4297C37.5252 10.4297 36.4453 9.3498 36.4453 8.4375C36.4453 6.98742 35.7517 5.56125 34.5424 4.52461C33.3424 3.49605 31.7291 2.92957 30 2.92969V30.8203C37.6895 30.8203 43.9453 24.5645 43.9453 16.8752C43.9457 14.7346 43.3826 13.074 42.2718 11.9398Z" fill="#5B5B5E"/>
<path d="M38.5547 20.7424C39.5255 20.7424 40.3125 19.9554 40.3125 18.9846C40.3125 18.0138 39.5255 17.2268 38.5547 17.2268C37.5839 17.2268 36.7969 18.0138 36.7969 18.9846C36.7969 19.9554 37.5839 20.7424 38.5547 20.7424Z" fill="#444448"/>
<path d="M34.2188 25.4299C35.1896 25.4299 35.9766 24.6429 35.9766 23.6721C35.9766 22.7013 35.1896 21.9143 34.2188 21.9143C33.2479 21.9143 32.4609 22.7013 32.4609 23.6721C32.4609 24.6429 33.2479 25.4299 34.2188 25.4299Z" fill="#444448"/>
</g>
<defs>
<clipPath id="clip0_96_798">
<rect width="60" height="60" fill="white"/>
</clipPath>
</defs>
</svg>
