<svg width="60" height="60" viewBox="0 0 60 60" fill="none" xmlns="http://www.w3.org/2000/svg">
<path d="M32.6752 9.96264C31.1978 7.34583 28.8027 7.34582 27.3253 9.96241L25.9878 12.3315L30.0003 51.2522L45.6681 32.9763L32.6752 9.96264Z" fill="#81808C"/>
<path d="M25.9879 12.3322L14.3325 32.9767L30.0004 51.2526L40.3184 32.9767C40.3184 32.9767 31.9795 18.2066 28.6627 12.3317C27.924 11.0233 26.7266 11.0238 25.9879 12.3322Z" fill="#9295A1"/>
<path d="M48.3427 28.2378C46.8654 25.6212 44.4702 25.6212 42.9929 28.2378L41.6553 30.6069V44.5509L55.9858 51.2515H59.0523C59.8949 51.2515 60.3168 49.447 59.721 48.3919L48.3427 28.2378Z" fill="#9295A1"/>
<path d="M41.6558 30.6076L30.0005 51.2521H55.9864C55.9864 51.2521 47.6475 36.482 44.3307 30.6071C43.592 29.2987 42.3945 29.2992 41.6558 30.6076Z" fill="#9EA5AD"/>
<path d="M17.0072 28.238C15.5299 25.6212 13.1347 25.6212 11.6574 28.2378L10.3198 30.6071V44.5511L24.6504 51.2517H30.0001L17.0072 28.238Z" fill="#9EA5AD"/>
<path d="M10.3198 30.6076L0.278841 48.3925C-0.316852 49.4476 0.105076 51.2521 0.947672 51.2521H24.6503C24.6503 51.2521 16.3114 36.482 12.9946 30.6071C12.2559 29.2987 11.0584 29.2992 10.3198 30.6076Z" fill="#AEB9BF"/>
<path d="M26.1953 21.6195C26.7476 21.6195 27.1953 21.2263 27.1953 20.7413C27.1953 20.2563 26.7476 19.8632 26.1953 19.8632C25.643 19.8632 25.1953 20.2563 25.1953 20.7413C25.1953 21.2263 25.643 21.6195 26.1953 21.6195Z" fill="#81808C"/>
<path d="M22.4116 28.3192C22.9639 28.3192 23.4116 27.926 23.4116 27.441C23.4116 26.956 22.9639 26.5629 22.4116 26.5629C21.8593 26.5629 21.4116 26.956 21.4116 27.441C21.4116 27.926 21.8593 28.3192 22.4116 28.3192Z" fill="#81808C"/>
<path d="M11.6348 37.9318C12.1871 37.9318 12.6348 37.5387 12.6348 37.0537C12.6348 36.5687 12.1871 36.1755 11.6348 36.1755C11.0825 36.1755 10.6348 36.5687 10.6348 37.0537C10.6348 37.5387 11.0825 37.9318 11.6348 37.9318Z" fill="#9EA5AD"/>
<path d="M7.85254 44.6326C8.40482 44.6326 8.85254 44.2395 8.85254 43.7545C8.85254 43.2695 8.40482 42.8763 7.85254 42.8763C7.30025 42.8763 6.85254 43.2695 6.85254 43.7545C6.85254 44.2395 7.30025 44.6326 7.85254 44.6326Z" fill="#9EA5AD"/>
<path d="M20.9209 44.6328C21.4732 44.6328 21.9209 44.2396 21.9209 43.7546C21.9209 43.2696 21.4732 42.8764 20.9209 42.8764C20.3686 42.8764 19.9209 43.2696 19.9209 43.7546C19.9209 44.2396 20.3686 44.6328 20.9209 44.6328Z" fill="#9295A1"/>
<path d="M39.1875 44.6325C39.7398 44.6325 40.1875 44.2393 40.1875 43.7543C40.1875 43.2693 39.7398 42.8761 39.1875 42.8761C38.6352 42.8761 38.1875 43.2693 38.1875 43.7543C38.1875 44.2393 38.6352 44.6325 39.1875 44.6325Z" fill="#9295A1"/>
</svg>
