<svg width="48" height="48" viewBox="0 0 48 48" fill="none" xmlns="http://www.w3.org/2000/svg">
<path d="M10.7115 35.0125L8.26837 36.6974V40.5031L10.7115 42.188V35.0125Z" fill="#756E78"/>
<path d="M43.1139 35.0125L45.5571 36.6974V40.5031L43.1139 42.188V35.0125Z" fill="#756E78"/>
<path d="M44.4746 35.8008H46.4937C47.3257 35.8008 48 35.1264 48 34.2945V19.3773C48 18.5453 47.3257 17.871 46.4937 17.871H45.5571L44.4746 35.8008Z" fill="#AFAAB4"/>
<path d="M1.77009 27.5495H0.713531C0.319406 27.5495 0 27.2301 0 26.8359C0 26.4418 0.319406 26.1223 0.713531 26.1223H1.77009C2.16422 26.1223 2.48362 26.4417 2.48362 26.8359C2.48362 27.2302 2.16422 27.5495 1.77009 27.5495Z" fill="#A298A5"/>
<path d="M36.4149 18.6797C36.0208 18.6797 35.7013 18.3603 35.7013 17.9661V11.4536C35.7013 11.0595 36.0207 10.7401 36.4149 10.7401C36.8092 10.7401 37.1285 11.0595 37.1285 11.4536V17.9661C37.1286 18.3602 36.8091 18.6797 36.4149 18.6797Z" fill="#A298A5"/>
<path d="M39.125 18.6797C38.7308 18.6797 38.4113 18.3603 38.4113 17.9662V14.8264C38.4113 14.4323 38.7308 14.1129 39.125 14.1129C39.5192 14.1129 39.8385 14.4323 39.8385 14.8264V17.9662C39.8385 18.3602 39.5191 18.6797 39.125 18.6797Z" fill="#A298A5"/>
<path d="M15.8547 14.4622C15.4606 14.4622 15.1412 14.1428 15.1412 13.7486V10.7343C15.1412 10.3402 15.4606 10.0208 15.8547 10.0208C16.2488 10.0208 16.5683 10.3402 16.5683 10.7343V13.7486C16.5683 14.1427 16.2488 14.4622 15.8547 14.4622Z" fill="#C6C1C8"/>
<path d="M14.5528 4.08206H17.1566V7.40822H14.5528V4.08206Z" fill="#756E78"/>
<path d="M14.5528 7.40811H17.1566V10.7343H14.5528V7.40811Z" fill="#665E66"/>
<path d="M17.6141 8.12164H14.0953C13.7012 8.12164 13.3818 7.80224 13.3818 7.40811C13.3818 7.01399 13.7012 6.69458 14.0953 6.69458H17.6141C18.0082 6.69458 18.3276 7.01399 18.3276 7.40811C18.3276 7.80224 18.0082 8.12164 17.6141 8.12164Z" fill="#8B818E"/>
<path d="M17.6141 4.79559H14.0953C13.7012 4.79559 13.3818 4.47619 13.3818 4.08206C13.3818 3.68794 13.7012 3.36853 14.0953 3.36853H17.6141C18.0082 3.36853 18.3276 3.68794 18.3276 4.08206C18.3276 4.47619 18.0082 4.79559 17.6141 4.79559Z" fill="#8B818E"/>
<path d="M17.6141 11.4478H14.0953C13.7012 11.4478 13.3818 11.1284 13.3818 10.7343C13.3818 10.3402 13.7012 10.0208 14.0953 10.0208H17.6141C18.0082 10.0208 18.3276 10.3402 18.3276 10.7343C18.3276 11.1284 18.0082 11.4478 17.6141 11.4478Z" fill="#8B818E"/>
<path d="M23.8319 17.871L10.5319 20.9155L11.6832 35.8008H42.1422V17.871H23.8319Z" fill="#C6C1C8"/>
<path d="M23.8319 31.0145H11.6832L10.5319 19.2505L23.8319 20.9155V31.0145Z" fill="#DD6938"/>
<path d="M38.3365 17.871V30.8747C38.3365 32.5444 36.983 33.8979 35.3132 33.8979H10.8945L11.6832 35.8008H42.1422L42.9299 17.8709H38.3365V17.871Z" fill="#AFAAB4"/>
<path d="M11.4419 36.6974H8.26846V17.2158C8.26846 17.0825 8.37656 16.9744 8.50987 16.9744H11.4419C11.5752 16.9744 11.6833 17.0825 11.6833 17.2158V36.456C11.6832 36.5893 11.5752 36.6974 11.4419 36.6974Z" fill="#5493A2"/>
<path d="M11.4419 40.5031H8.26846V43.9179H11.6833V40.7445C11.6832 40.6112 11.5752 40.5031 11.4419 40.5031Z" fill="#5493A2"/>
<path d="M42.3836 40.5031H45.5571V43.9179H42.1422V40.7445C42.1422 40.6112 42.2503 40.5031 42.3836 40.5031Z" fill="#5493A2"/>
<path d="M45.5571 36.6974H42.3836C42.2503 36.6974 42.1422 36.5893 42.1422 36.456V17.2158C42.1422 17.0825 42.2503 16.9744 42.3836 16.9744H45.3157C45.449 16.9744 45.5571 17.0825 45.5571 17.2158V36.6974Z" fill="#5493A2"/>
<path d="M7.64878 35.3467L8.26838 35.8008V17.871L7.64878 18.3251C5.47294 19.9198 4.18735 22.4559 4.18735 25.1536V28.5182C4.18735 31.2158 5.47294 33.752 7.64878 35.3467Z" fill="#C6C1C8"/>
<path d="M4.18735 29.7295H2.03006C1.88653 29.7295 1.7701 29.6132 1.7701 29.4695V24.2021C1.7701 24.0586 1.88644 23.9421 2.03006 23.9421H4.18744V29.7295H4.18735Z" fill="#AFAAB4"/>
<path d="M16.4405 25.8191V23.44C16.4405 23.3595 16.5058 23.2942 16.5864 23.2942H21.3074C21.3879 23.2942 21.4533 23.3595 21.4533 23.44V25.8191C21.4533 25.8997 21.3879 25.965 21.3074 25.965H16.5864C16.5057 25.965 16.4405 25.8998 16.4405 25.8191Z" fill="#B1E4F9"/>
<path d="M23.8319 20.9155H11.6832V14.1006C11.6832 13.9061 11.8409 13.7484 12.0353 13.7484H23.4798C23.6742 13.7484 23.8319 13.9061 23.8319 14.1006V20.9155Z" fill="#E27D47"/>
<path d="M16.4557 18.3911V16.273C16.4557 16.1925 16.521 16.1272 16.6015 16.1272H18.9136C18.9941 16.1272 19.0595 16.1925 19.0595 16.273V18.3911C19.0595 18.4717 18.9941 18.537 18.9136 18.537H16.6015C16.521 18.537 16.4557 18.4717 16.4557 18.3911Z" fill="#B1E4F9"/>
<path d="M13.1707 44.6316H6.78104C6.38691 44.6316 6.06741 44.3122 6.06741 43.9179C6.06741 43.5237 6.38682 43.2044 6.78104 43.2044H13.1707C13.5648 43.2044 13.8842 43.5238 13.8842 43.9179C13.8842 44.3121 13.5648 44.6316 13.1707 44.6316Z" fill="#70B9C6"/>
<path d="M47.0445 44.6316H40.6549C40.2608 44.6316 39.9413 44.3122 39.9413 43.9179C39.9413 43.5237 40.2608 43.2044 40.6549 43.2044H47.0445C47.4386 43.2044 47.758 43.5238 47.758 43.9179C47.758 44.3121 47.4386 44.6316 47.0445 44.6316Z" fill="#70B9C6"/>
<path d="M4.18735 31.8072C3.79322 31.8072 3.47382 31.4878 3.47382 31.0937V22.578C3.47382 22.1839 3.79322 21.8645 4.18735 21.8645C4.58147 21.8645 4.90088 22.1839 4.90088 22.578V31.0937C4.90097 31.4878 4.58147 31.8072 4.18735 31.8072Z" fill="#DFDDE2"/>
<path d="M18.689 29.0573H16.811C16.4168 29.0573 16.0974 28.7378 16.0974 28.3436C16.0974 27.9494 16.4168 27.6301 16.811 27.6301H18.689C19.0831 27.6301 19.4025 27.9495 19.4025 28.3436C19.4025 28.7378 19.0831 29.0573 18.689 29.0573Z" fill="#DD542E"/>
<path d="M14.0618 26.6786C13.6677 26.6786 13.3483 26.3592 13.3483 25.9651V23.2942C13.3483 22.9 13.6677 22.5806 14.0618 22.5806C14.456 22.5806 14.7754 22.9 14.7754 23.2942V25.9651C14.7755 26.3592 14.456 26.6786 14.0618 26.6786Z" fill="#DFDDE2"/>
<path d="M14.0618 16.8406C14.4559 16.8406 14.7754 16.5211 14.7754 16.1271C14.7754 15.733 14.4559 15.4135 14.0618 15.4135C13.6678 15.4135 13.3483 15.733 13.3483 16.1271C13.3483 16.5211 13.6678 16.8406 14.0618 16.8406Z" fill="#FFC250"/>
<path d="M21.4533 17.7921C21.8474 17.7921 22.1668 17.4726 22.1668 17.0785C22.1668 16.6844 21.8474 16.365 21.4533 16.365C21.0592 16.365 20.7397 16.6844 20.7397 17.0785C20.7397 17.4726 21.0592 17.7921 21.4533 17.7921Z" fill="#C6C1C8"/>
<path d="M14.0618 19.2505C14.4559 19.2505 14.7754 18.9311 14.7754 18.537C14.7754 18.1429 14.4559 17.8235 14.0618 17.8235C13.6678 17.8235 13.3483 18.1429 13.3483 18.537C13.3483 18.9311 13.6678 19.2505 14.0618 19.2505Z" fill="#5493A2"/>
<path d="M26.9127 31.7281C26.5186 31.7281 26.1992 31.4087 26.1992 31.0145V17.8709C26.1992 17.4768 26.5186 17.1574 26.9127 17.1574C27.3069 17.1574 27.6264 17.4768 27.6264 17.8709V31.0145C27.6264 31.4087 27.3069 31.7281 26.9127 31.7281Z" fill="#DFDDE2"/>
<path d="M34.5275 31.7281C34.1334 31.7281 33.8139 31.4087 33.8139 31.0145V17.8709C33.8139 17.4768 34.1333 17.1574 34.5275 17.1574C34.9217 17.1574 35.241 17.4768 35.241 17.8709V31.0145C35.2411 31.4087 34.9217 31.7281 34.5275 31.7281Z" fill="#DFDDE2"/>
<path d="M26.9127 36.5144C26.5186 36.5144 26.1992 36.195 26.1992 35.8008V33.4222C26.1992 33.028 26.5186 32.7085 26.9127 32.7085C27.3069 32.7085 27.6264 33.0279 27.6264 33.4222V35.8008C27.6264 36.1949 27.3069 36.5144 26.9127 36.5144Z" fill="#DFDDE2"/>
<path d="M19.298 36.5144C18.9038 36.5144 18.5844 36.195 18.5844 35.8008V33.4222C18.5844 33.028 18.9038 32.7085 19.298 32.7085C19.6921 32.7085 20.0115 33.0279 20.0115 33.4222V35.8008C20.0116 36.1949 19.6922 36.5144 19.298 36.5144Z" fill="#DFDDE2"/>
<path d="M34.5275 36.5144C34.1334 36.5144 33.8139 36.195 33.8139 35.8008V33.4222C33.8139 33.028 34.1333 32.7085 34.5275 32.7085C34.9217 32.7085 35.241 33.0279 35.241 33.4222V35.8008C35.2411 36.1949 34.9217 36.5144 34.5275 36.5144Z" fill="#DFDDE2"/>
<path d="M11.6832 31.0145H42.1422V33.4222H11.6832V31.0145Z" fill="#61AAB7"/>
</svg>
