<svg width="48" height="48" viewBox="0 0 48 48" fill="none" xmlns="http://www.w3.org/2000/svg">
<g clip-path="url(#clip0_462_1477)">
<path d="M39.3078 46.5513H24L33.5131 42.2052H39.3078V46.5513Z" fill="#FFD261"/>
<path d="M10.1408 42.2052H33.513V46.5513H10.1408V42.2052Z" fill="#FFEB6B"/>
<path d="M8.69214 21.9236H14.4869L18.833 26.994L14.4869 32.0644H8.69214V21.9236Z" fill="#74727D"/>
<path d="M39.3078 32.0644H33.5131L29.167 26.994L33.5131 21.9236H39.3078V32.0644Z" fill="#74727D"/>
<path d="M33.5131 32.0644H30.6157L26.2696 26.994L30.6157 21.9236H33.5131V32.0644Z" fill="#BFCFD6"/>
<path d="M14.487 21.9236H30.6157V32.0644H14.487V21.9236Z" fill="#CDE3EA"/>
<path d="M8.69214 8.88531H14.4869L18.833 13.9557L14.4869 19.0262H8.69214V8.88531Z" fill="#74727D"/>
<path d="M39.3078 19.0262H33.5131L29.167 13.9557L33.5131 8.88531H39.3078V19.0262Z" fill="#74727D"/>
<path d="M33.5131 19.0262H30.6157L26.2696 13.9557L30.6157 8.88531H33.5131V19.0262Z" fill="#BFCFD6"/>
<path d="M14.487 8.88531H30.6157V19.0262H14.487V8.88531Z" fill="#CDE3EA"/>
<path d="M42.2052 10.334V17.5775H47.2757C47.6757 17.5775 48 17.2532 48 16.8531V11.0584C48 10.6583 47.6757 10.334 47.2757 10.334H42.2052Z" fill="#FFEB6B"/>
<path d="M42.2052 30.6157H47.2757C47.6757 30.6157 48 30.2914 48 29.8913V24.0966C48 23.6965 47.6757 23.3722 47.2757 23.3722H42.2052V30.6157Z" fill="#FFEB6B"/>
<path d="M39.3079 2.89738V46.5513H45.1026V0.724346C45.1026 0.324314 44.7783 0 44.3783 0H42.2052L39.3079 2.89738Z" fill="#2DA0E3"/>
<path d="M36.4105 0.724346V46.5513H42.2052V29.167H40.7565V11.7827H42.2052V0H37.1348C36.7347 0 36.4105 0.324314 36.4105 0.724346Z" fill="#2EB7F0"/>
<path d="M40.7566 10.334C39.9565 10.334 39.3079 10.9826 39.3079 11.7827V29.167C39.3079 29.9671 39.9565 30.6157 40.7566 30.6157C41.5566 30.6157 42.2052 29.9671 42.2052 29.167V11.7827C42.2052 10.9826 41.5566 10.334 40.7566 10.334Z" fill="#CDE3EA"/>
<path d="M0 11.0584V16.8531C0 17.2532 0.324314 17.5775 0.724346 17.5775H5.79477V10.334H0.724346C0.324314 10.334 0 10.6583 0 11.0584Z" fill="#FFEB6B"/>
<path d="M0.724346 30.6157H5.79477V23.3722H0.724346C0.324314 23.3722 0 23.6965 0 24.0966V29.8913C0 30.2914 0.324314 30.6157 0.724346 30.6157Z" fill="#FFEB6B"/>
<path d="M5.79477 2.89738V46.5513H11.5895V0.724346C11.5895 0.324314 11.2652 0 10.8652 0H8.69215L5.79477 2.89738Z" fill="#2DA0E3"/>
<path d="M2.8974 0.724346V46.5513H8.69217V29.167H7.24348V11.7827H8.69217V0H3.62175C3.22171 0 2.8974 0.324314 2.8974 0.724346Z" fill="#2EB7F0"/>
<path d="M7.24348 42.2052C9.64375 42.2052 11.5896 40.2594 11.5896 37.8592C11.5896 35.4589 9.64375 33.5131 7.24348 33.5131C4.8432 33.5131 2.8974 35.4589 2.8974 37.8592C2.8974 40.2594 4.8432 42.2052 7.24348 42.2052Z" fill="#FFEB6B"/>
<path d="M7.24346 39.3078C8.04355 39.3078 8.69215 38.6592 8.69215 37.8592C8.69215 37.0591 8.04355 36.4105 7.24346 36.4105C6.44337 36.4105 5.79477 37.0591 5.79477 37.8592C5.79477 38.6592 6.44337 39.3078 7.24346 39.3078Z" fill="#74727D"/>
<path d="M45.1026 45.1026H42.2052L45.1026 48H47.1515C47.6499 48 48.0018 47.5075 47.8364 47.0376C47.4395 45.9105 46.3654 45.1026 45.1026 45.1026Z" fill="#2088CB"/>
<path d="M0.848561 48H45.1026C45.1026 46.3998 43.8055 45.1026 42.2052 45.1026H2.8974C1.63462 45.1026 0.560465 45.9105 0.163716 47.0376C-0.00172432 47.5075 0.350211 48 0.848561 48Z" fill="#2DA0E3"/>
<path d="M7.24346 10.334C6.4434 10.334 5.79477 10.9826 5.79477 11.7827V29.167C5.79477 29.9671 6.4434 30.6157 7.24346 30.6157C8.04353 30.6157 8.69215 29.9671 8.69215 29.167V11.7827C8.69215 10.9826 8.04362 10.334 7.24346 10.334Z" fill="#CDE3EA"/>
<path d="M40.7565 42.2052C43.1568 42.2052 45.1026 40.2594 45.1026 37.8592C45.1026 35.4589 43.1568 33.5131 40.7565 33.5131C38.3563 33.5131 36.4105 35.4589 36.4105 37.8592C36.4105 40.2594 38.3563 42.2052 40.7565 42.2052Z" fill="#FFEB6B"/>
<path d="M40.7566 39.3078C41.5566 39.3078 42.2052 38.6592 42.2052 37.8592C42.2052 37.0591 41.5566 36.4105 40.7566 36.4105C39.9565 36.4105 39.3079 37.0591 39.3079 37.8592C39.3079 38.6592 39.9565 39.3078 40.7566 39.3078Z" fill="#74727D"/>
</g>
<defs>
<clipPath id="clip0_462_1477">
<rect width="48" height="48" fill="white"/>
</clipPath>
</defs>
</svg>
