<svg width="48" height="48" viewBox="0 0 48 48" fill="none" xmlns="http://www.w3.org/2000/svg">
<g clip-path="url(#clip0_462_1589)">
<path fill-rule="evenodd" clip-rule="evenodd" d="M44.391 20.7628V40.7397L41.4651 48H6.35441L3.42857 40.7397V20.7628H44.391Z" fill="#FFA515"/>
<path fill-rule="evenodd" clip-rule="evenodd" d="M44.391 20.7628V40.7397L41.478 48H24V20.7628H44.391Z" fill="#FF6940"/>
<path fill-rule="evenodd" clip-rule="evenodd" d="M8.84211 27.4605H11.5489V41.0791H8.84211V27.4605Z" fill="#FF6940"/>
<path fill-rule="evenodd" clip-rule="evenodd" d="M14.2556 27.4605H16.9624V41.0791H14.2556V27.4605Z" fill="#FF6940"/>
<path fill-rule="evenodd" clip-rule="evenodd" d="M19.8496 27.4605H22.5564V41.0791H19.8496V27.4605Z" fill="#FF6940"/>
<path fill-rule="evenodd" clip-rule="evenodd" d="M25.2632 27.4605H28.1504V41.0791H25.2632V27.4605Z" fill="#EB4444"/>
<path fill-rule="evenodd" clip-rule="evenodd" d="M42.9474 11.549V16.9674H4.87218V11.549L7.80109 7.92335H13.0538L19.5165 0.669769H25.3741L28.303 4.29544H34.1608L37.0896 7.92335H40.0185L42.9474 11.549Z" fill="#AFABAB"/>
<path fill-rule="evenodd" clip-rule="evenodd" d="M42.9474 11.549V16.9674H24V0.669769H25.4575L28.3725 4.29544H34.2025L37.1174 7.92335H40.0324L42.9474 11.549Z" fill="#767171"/>
<path fill-rule="evenodd" clip-rule="evenodd" d="M30.8571 27.4605H33.5639V41.0791H30.8571V27.4605Z" fill="#EB4444"/>
<path fill-rule="evenodd" clip-rule="evenodd" d="M36.4511 27.4605H39.1579V41.0791H36.4511V27.4605Z" fill="#EB4444"/>
<path fill-rule="evenodd" clip-rule="evenodd" d="M0.541355 15.1814H47.4586V22.5488H0.541355V15.1814Z" fill="#FFDD5C"/>
<path fill-rule="evenodd" clip-rule="evenodd" d="M24 15.1814H47.4586V22.5488H24V15.1814Z" fill="#FFA515"/>
</g>
<defs>
<clipPath id="clip0_462_1589">
<rect width="48" height="48" fill="white"/>
</clipPath>
</defs>
</svg>
