<svg width="24" height="24" viewBox="0 0 24 24" fill="none" xmlns="http://www.w3.org/2000/svg">
<path d="M7.48442 15.1683C7.48442 17.18 8.42267 18.8108 9.5802 18.8108H21.9042V11.5258H9.5802C8.86405 11.5258 8.23194 12.1497 7.85431 13.102C7.62106 13.6892 7.48442 14.401 7.48442 15.1683Z" fill="#C15C08"/>
<path d="M17.8667 17.6262H20.4916C20.6916 17.6262 20.8538 17.4641 20.8538 17.2641C20.8538 17.0641 20.6916 16.9019 20.4916 16.9019H17.8667C17.6667 16.9019 17.5045 17.0641 17.5045 17.2641C17.5045 17.4641 17.6667 17.6262 17.8667 17.6262Z" fill="#99490D"/>
<path d="M16.6122 15.1956H18.8571C19.0572 15.1956 19.2193 15.0335 19.2193 14.8335C19.2193 14.6335 19.0572 14.4713 18.8571 14.4713H16.6122C16.4121 14.4713 16.25 14.6335 16.25 14.8335C16.25 15.0335 16.4121 15.1956 16.6122 15.1956Z" fill="#99490D"/>
<path d="M18.4225 13.102V13.1015C19.2884 13.0967 20.0465 12.4887 20.5396 11.5258H9.58018C8.86402 11.5258 8.23191 12.1497 7.85429 13.102H18.4225Z" fill="#99490D"/>
<path d="M7.48442 15.1683C7.48442 17.18 8.42267 18.8108 9.5802 18.8108H15.8607C16.6363 18.0666 17.1433 16.7276 17.1433 15.1683C17.1433 13.6095 16.6363 12.2704 15.8607 11.5258H9.5802C8.42267 11.5258 7.48442 13.1565 7.48442 15.1683Z" fill="#99490D"/>
<path d="M21.9044 18.8105C20.747 18.8105 19.8087 17.1798 19.8087 15.1683C19.8087 13.1568 20.747 11.5261 21.9044 11.5261C23.0617 11.5261 24 13.1568 24 15.1683C24 17.1798 23.0617 18.8105 21.9044 18.8105Z" fill="#FFCE94"/>
<path d="M22.8524 15.5306C23.0524 15.5306 23.2146 15.3684 23.2146 15.1684C23.2146 13.8231 22.7645 12.4611 21.9044 12.4611C21.7044 12.4611 21.5422 12.6233 21.5422 12.8233C21.5422 13.0233 21.7044 13.1854 21.9044 13.1854C22.0549 13.1854 22.4902 13.8672 22.4902 15.1684C22.4902 15.3684 22.6524 15.5306 22.8524 15.5306Z" fill="#FCB043"/>
<path d="M21.9044 17.8757C22.1044 17.8757 22.2665 17.7136 22.2665 17.5135C22.2665 17.3135 22.1044 17.1514 21.9044 17.1514C21.7538 17.1514 21.3185 16.4696 21.3185 15.1684C21.3185 14.9684 21.1564 14.8063 20.9564 14.8063C20.7563 14.8063 20.5942 14.9684 20.5942 15.1684C20.5942 16.5138 21.0442 17.8757 21.9044 17.8757Z" fill="#FCB043"/>
<path d="M3.99163 8.83172C3.99163 8.87762 3.99209 8.92299 3.99308 8.96836C3.99838 9.21704 4.0182 9.45947 4.05102 9.69272C4.11186 10.1307 4.21859 10.5378 4.36152 10.898C4.73914 11.8503 5.37125 12.4742 6.08741 12.4742H18.4114V5.18921H6.08736C4.92988 5.18921 3.99163 6.81994 3.99163 8.83172Z" fill="#DF781B"/>
<path d="M13.9452 9.99213H16.4899C16.6899 9.99213 16.852 9.82999 16.852 9.62998C16.852 9.42996 16.6899 9.26782 16.4899 9.26782H13.9452C13.7451 9.26782 13.583 9.42996 13.583 9.62998C13.583 9.82999 13.7451 9.99213 13.9452 9.99213Z" fill="#C15C08"/>
<path d="M4.36151 10.8981C4.73913 11.8503 5.37124 12.4742 6.0874 12.4742H16.5479C16.0886 11.5775 15.3991 10.9889 14.6076 10.9082V10.8981H4.36151Z" fill="#C15C08"/>
<path d="M18.4116 12.4739C17.2542 12.4739 16.3159 10.8432 16.3159 8.8317C16.3159 6.82018 17.2542 5.18951 18.4116 5.18951C19.569 5.18951 20.5072 6.82018 20.5072 8.8317C20.5072 10.8432 19.569 12.4739 18.4116 12.4739Z" fill="#FFCE94"/>
<path d="M18.4117 11.5389C19.2718 11.5389 19.7219 10.177 19.7219 8.83158C19.7219 7.48617 19.2718 6.12427 18.4117 6.12427C18.2116 6.12427 18.0495 6.28641 18.0495 6.48642C18.0495 6.68644 18.2116 6.84858 18.4117 6.84858C18.5622 6.84858 18.9975 7.53038 18.9975 8.83153C18.9975 10.1327 18.5622 10.8145 18.4117 10.8145C18.2611 10.8145 17.8258 10.1327 17.8258 8.83153C17.8258 8.63147 17.6637 8.46938 17.4637 8.46938C17.2636 8.46938 17.1015 8.63152 17.1015 8.83153C17.1015 10.177 17.5515 11.5389 18.4117 11.5389Z" fill="#FCB043"/>
<path d="M9.33055 7.99635H13.921C14.121 7.99635 14.2832 7.83421 14.2832 7.63419C14.2832 7.43413 14.121 7.27203 13.921 7.27203H9.33055C9.13053 7.27203 8.96839 7.43417 8.96839 7.63419C8.96834 7.83421 9.13053 7.99635 9.33055 7.99635Z" fill="#C15C08"/>
<path d="M3.99307 8.96838C3.99837 9.21706 4.0182 9.45949 4.05101 9.69274H10.603C10.8029 9.69274 10.9651 9.53051 10.9651 9.33059C10.9651 9.13067 10.8029 8.96843 10.603 8.96843H3.99307V8.96838Z" fill="#C15C08"/>
<path d="M5.98751 10.7905H9.6798C9.87982 10.7905 10.042 10.6283 10.042 10.4283C10.042 10.2283 9.87982 10.0662 9.6798 10.0662H5.98751C5.78749 10.0662 5.62535 10.2283 5.62535 10.4283C5.62535 10.6283 5.78749 10.7905 5.98751 10.7905Z" fill="#C15C08"/>
<path d="M8.28276 6.79878H8.8815C9.08151 6.79878 9.24365 6.63663 9.24365 6.43662C9.24365 6.23656 9.08151 6.07446 8.8815 6.07446H8.28276C8.08275 6.07446 7.92061 6.2366 7.92061 6.43662C7.92056 6.63663 8.08275 6.79878 8.28276 6.79878Z" fill="#C15C08"/>
<path d="M-1.23978e-05 15.1683C-1.23978e-05 15.2142 0.00045681 15.26 0.001441 15.3054C0.00673771 15.5541 0.0265665 15.7966 0.0589104 16.0298C0.28152 17.6258 1.10919 18.8108 2.09577 18.8108H14.4198V11.5258H2.09577C0.938238 11.5258 -1.23978e-05 13.1566 -1.23978e-05 15.1683Z" fill="#DF781B"/>
<path d="M10.3534 17.6262H12.8981C13.0981 17.6262 13.2603 17.4641 13.2603 17.2641C13.2603 17.0641 13.0981 16.9019 12.8981 16.9019H10.3534C10.1534 16.9019 9.99127 17.0641 9.99127 17.2641C9.99127 17.4641 10.1534 17.6262 10.3534 17.6262Z" fill="#C15C08"/>
<path d="M14.4202 18.8105C13.2628 18.8105 12.3245 17.1798 12.3245 15.1683C12.3245 13.1568 13.2628 11.5261 14.4202 11.5261C15.5776 11.5261 16.5158 13.1568 16.5158 15.1683C16.5158 17.1798 15.5776 18.8105 14.4202 18.8105Z" fill="#FFCE94"/>
<path d="M14.42 17.8757C15.2801 17.8757 15.7302 16.5138 15.7302 15.1684C15.7302 14.9683 15.568 14.8062 15.368 14.8062C15.168 14.8062 15.0059 14.9684 15.0059 15.1684C15.0059 16.4695 14.5706 17.1513 14.42 17.1513C14.2694 17.1513 13.8342 16.4695 13.8342 15.1684C13.8342 14.9683 13.672 14.8062 13.472 14.8062C13.272 14.8062 13.1099 14.9684 13.1099 15.1684C13.1098 16.5138 13.5598 17.8757 14.42 17.8757Z" fill="#FCB043"/>
<path d="M5.33888 14.3331H11.4262C11.6262 14.3331 11.7884 14.1709 11.7884 13.9709C11.7884 13.7709 11.6262 13.6088 11.4262 13.6088H5.33888C5.13886 13.6088 4.97672 13.7709 4.97672 13.9709C4.97672 14.1709 5.13886 14.3331 5.33888 14.3331Z" fill="#C15C08"/>
<path d="M0.00144386 15.3054C0.00674057 15.5541 0.0265679 15.7965 0.0589118 16.0298H6.88565C7.08557 16.0298 7.2478 15.8675 7.2478 15.6676C7.2478 15.4672 7.08557 15.3055 6.88565 15.3055L0.00144386 15.3054Z" fill="#C15C08"/>
<path d="M4.49062 17.4765H5.68814C5.88815 17.4765 6.05029 17.3144 6.05029 17.1144C6.05029 16.9143 5.88815 16.7522 5.68814 16.7522H4.49062C4.2906 16.7522 4.12847 16.9143 4.12847 17.1144C4.12847 17.3144 4.2906 17.4765 4.49062 17.4765Z" fill="#C15C08"/>
<path d="M2.44492 13.7343H3.0437C3.24371 13.7343 3.40585 13.5722 3.40585 13.3722C3.40585 13.1722 3.24371 13.01 3.0437 13.01H2.44492C2.2449 13.01 2.08276 13.1722 2.08276 13.3722C2.08276 13.5722 2.2449 13.7343 2.44492 13.7343Z" fill="#C15C08"/>
<path d="M14.42 14.5112C14.62 14.5112 14.7821 14.349 14.7821 14.149V13.4499C14.7821 13.2499 14.62 13.0878 14.42 13.0878C14.22 13.0878 14.0578 13.2499 14.0578 13.4499V14.149C14.0578 14.3491 14.22 14.5112 14.42 14.5112Z" fill="#FCB043"/>
</svg>
