<svg
    width="49"
    height="49"
    viewBox="0 0 49 49"
    fill="none"
    xmlns="http://www.w3.org/2000/svg"
    >
    <circle cx="24.311" cy="24.9752" r="23" fill="#FF7020" stroke="white" stroke-width="2" />
    <path
        d="M32.6241 18.2552C31.0081 16.3074 28.7399 15.0124 26.241 14.6108L26.381 13.7358C29.0855 14.1726 31.5416 15.5707 33.2978 17.6733L32.6241 18.2552Z"
        fill="#FCFCFC"
    />
    <path
        d="M14.1965 23.2953L13.3215 23.1553C13.6988 20.7938 14.8129 18.6121 16.5047 16.922C18.1964 15.2318 20.3791 14.1197 22.7409 13.7446L22.8809 14.6196C20.7036 14.9656 18.6913 15.9908 17.1316 17.5489C15.572 19.1071 14.5447 21.1183 14.1965 23.2953Z"
        fill="#FCFCFC"
    />
    <path
        d="M22.7411 36.2058C20.4631 35.8314 18.3521 34.7751 16.6869 33.1762C15.0216 31.5773 13.8803 29.5111 13.4136 27.2502L14.2886 27.0752C14.7168 29.1602 15.7673 31.0662 17.3014 32.5418C18.8355 34.0173 20.781 34.9928 22.8811 35.3396L22.7411 36.2058Z"
        fill="#FCFCFC"
    />
    <path
        d="M26.381 36.2058L26.241 35.3308C28.9253 34.9013 31.3362 33.4416 32.961 31.2621L33.661 31.7871C31.9034 34.153 29.291 35.7386 26.381 36.2058Z"
        fill="#FCFCFC"
    />
    <path d="M13.186 24.5377H14.061V25.4127H13.186V24.5377Z" fill="#FCFCFC" />
    <path d="M24.1235 13.6002H24.9985V14.4752H24.1235V13.6002Z" fill="#FCFCFC" />
    <path d="M24.1235 35.4752H24.9985V36.3502H24.1235V35.4752Z" fill="#FCFCFC" />
    <path
        d="M39.121 24.7958L32.121 19.9833C32.0878 19.9619 32.0491 19.9504 32.0095 19.9504C31.9699 19.9504 31.9312 19.9619 31.8979 19.9833C31.8619 20.0008 31.8317 20.0282 31.8108 20.0624C31.7898 20.0965 31.7791 20.1358 31.7798 20.1758V22.5821H25.436C25.1482 22.5821 24.872 22.6955 24.6672 22.8978C24.4625 23.1001 24.3457 23.3749 24.3423 23.6627V26.2877C24.3423 26.5778 24.4575 26.856 24.6626 27.0611C24.8678 27.2662 25.146 27.3815 25.436 27.3815H31.7798V29.7877C31.7791 29.8277 31.7898 29.8671 31.8108 29.9012C31.8317 29.9353 31.8619 29.9627 31.8979 29.9802C31.9313 30.0012 31.97 30.0123 32.0095 30.0123C32.0489 30.0123 32.0876 30.0012 32.121 29.9802L39.121 25.1677C39.1508 25.1482 39.1753 25.1216 39.1922 25.0903C39.2092 25.059 39.218 25.0239 39.218 24.9883C39.218 24.9527 39.2092 24.9177 39.1922 24.8864C39.1753 24.8551 39.1508 24.8285 39.121 24.809V24.7958Z"
        fill="#FCFCFC"
    />
    <path
        d="M30.6116 29.7484L28.8353 28.7246C28.7933 28.6999 28.7442 28.6899 28.6958 28.6962C28.6475 28.7025 28.6026 28.7249 28.5684 28.7596C27.9457 29.4313 27.1652 29.937 26.2978 30.2311C25.4303 30.5251 24.5032 30.5982 23.6004 30.4437C22.6976 30.2892 21.8475 29.9121 21.1272 29.3463C20.4068 28.7805 19.839 28.0441 19.475 27.2036C19.1109 26.3631 18.9623 25.4451 19.0424 24.5326C19.1225 23.6202 19.4289 22.7421 19.9339 21.978C20.4388 21.2138 21.1264 20.5876 21.9343 20.156C22.7422 19.7245 23.645 19.5012 24.5609 19.5065C25.3079 19.5032 26.0478 19.6507 26.7364 19.9401C27.425 20.2296 28.0481 20.655 28.5684 21.1909C28.6015 21.2259 28.6457 21.2486 28.6935 21.2549C28.7413 21.2613 28.7898 21.2511 28.8309 21.2259L30.6159 20.2065C30.6432 20.1904 30.6666 20.1685 30.6846 20.1425C30.7026 20.1164 30.7147 20.0867 30.7201 20.0555C30.7255 20.0243 30.7241 19.9923 30.7159 19.9618C30.7078 19.9312 30.693 19.9027 30.6728 19.8784C30.5897 19.7734 30.4978 19.6727 30.4103 19.5765C30.1755 19.3198 29.9257 19.0773 29.6622 18.8502C29.5612 18.7623 29.4904 18.6449 29.4598 18.5146C29.4292 18.3843 29.4403 18.2476 29.4915 18.124C29.5445 17.9964 29.5712 17.8596 29.5703 17.7215C29.5688 17.518 29.508 17.3194 29.3953 17.15C29.2826 16.9806 29.123 16.8477 28.9359 16.7677L27.2997 16.0896C27.1721 16.0364 27.0353 16.009 26.8972 16.009C26.759 16.009 26.6222 16.0364 26.4947 16.0896C26.3668 16.1417 26.2506 16.2189 26.1529 16.3166C26.0552 16.4143 25.9781 16.5305 25.9259 16.6584C25.8795 16.7742 25.7999 16.8737 25.6972 16.9445C25.5945 17.0153 25.4732 17.0543 25.3484 17.0565H25.2872C24.8126 17.0171 24.3355 17.0171 23.8609 17.0565C23.7248 17.0707 23.5877 17.0399 23.4708 16.9688C23.3538 16.8977 23.2634 16.7902 23.2134 16.6627C23.1051 16.4064 22.9003 16.2031 22.6432 16.0966C22.3861 15.9902 22.0975 15.9893 21.8397 16.094L20.1859 16.7677C20.057 16.8195 19.9396 16.8965 19.8408 16.9942C19.7419 17.0918 19.6635 17.2082 19.6101 17.3365C19.5568 17.4648 19.5295 17.6025 19.53 17.7415C19.5304 17.8804 19.5586 18.0179 19.6128 18.1459C19.6477 18.2243 19.6656 18.3093 19.6653 18.3952C19.6649 18.4844 19.6451 18.5725 19.6073 18.6533C19.5695 18.7341 19.5147 18.8058 19.4465 18.8634C19.0776 19.173 18.7392 19.5173 18.4359 19.8915C18.3481 19.9899 18.2312 20.0577 18.1022 20.0853C17.9732 20.1128 17.8388 20.0986 17.7184 20.0446C17.5903 19.9906 17.4527 19.9627 17.3137 19.9627C17.1747 19.9627 17.0371 19.9906 16.909 20.0446C16.6589 20.1509 16.4597 20.3501 16.3534 20.6002L15.6753 22.254C15.6221 22.3815 15.5947 22.5183 15.5947 22.6565C15.5947 22.7947 15.6221 22.9315 15.6753 23.059C15.7279 23.1873 15.8058 23.3037 15.9042 23.4014C16.0027 23.4991 16.1197 23.5761 16.2484 23.6277C16.3642 23.6742 16.4638 23.7537 16.5346 23.8565C16.6054 23.9592 16.6443 24.0805 16.6465 24.2052V24.2665C16.6049 24.7454 16.6049 25.227 16.6465 25.7059C16.655 25.8378 16.6209 25.9689 16.5493 26.08C16.4776 26.191 16.3721 26.2761 16.2484 26.3227C16.1196 26.3742 16.0024 26.451 15.904 26.5488C15.8055 26.6465 15.7277 26.763 15.6753 26.8915C15.6221 27.019 15.5947 27.1558 15.5947 27.294C15.5947 27.4322 15.6221 27.569 15.6753 27.6965L16.3534 29.3502C16.4052 29.4792 16.4822 29.5965 16.5799 29.6954C16.6775 29.7942 16.7939 29.8726 16.9222 29.926C17.0505 29.9794 17.1882 30.0066 17.3271 30.0062C17.4661 30.0057 17.6036 29.9776 17.7315 29.9234C17.8534 29.8716 17.9884 29.8598 18.1174 29.8897C18.2463 29.9196 18.3624 29.9896 18.449 30.0896C18.7587 30.4586 19.1029 30.797 19.4772 31.1002C19.5756 31.1881 19.6434 31.305 19.671 31.434C19.6985 31.563 19.6842 31.6974 19.6303 31.8177C19.5763 31.9458 19.5484 32.0834 19.5484 32.2224C19.5484 32.3614 19.5763 32.499 19.6303 32.6271C19.7366 32.8772 19.9358 33.0764 20.1859 33.1827L21.8222 33.8609C21.9497 33.914 22.0865 33.9414 22.2247 33.9414C22.3628 33.9414 22.4996 33.914 22.6272 33.8609C22.7551 33.8087 22.8713 33.7315 22.9689 33.6339C23.0666 33.5362 23.1438 33.42 23.1959 33.2921C23.2424 33.1763 23.3219 33.0768 23.4246 33.006C23.5274 32.9352 23.6487 32.8962 23.7734 32.894H23.8347C24.3136 32.9356 24.7952 32.9356 25.274 32.894C25.4054 32.8852 25.5362 32.9187 25.6472 32.9895C25.7582 33.0603 25.8436 33.1649 25.8909 33.2877C25.9424 33.4166 26.0192 33.5337 26.117 33.6322C26.2147 33.7307 26.3312 33.8084 26.4597 33.8609C26.5861 33.9125 26.7213 33.9393 26.8578 33.9396C26.9977 33.9404 27.1363 33.9121 27.2647 33.8565L28.9359 33.1827C29.0649 33.1309 29.1822 33.054 29.2811 32.9563C29.3799 32.8586 29.4583 32.7423 29.5117 32.6139C29.5651 32.4856 29.5923 32.348 29.5919 32.209C29.5914 32.07 29.5633 31.9326 29.5091 31.8046C29.4741 31.7261 29.4562 31.6411 29.4565 31.5552C29.457 31.466 29.4768 31.378 29.5145 31.2972C29.5523 31.2163 29.6072 31.1447 29.6753 31.0871C29.9393 30.8652 30.1892 30.6271 30.4234 30.374C30.5153 30.2777 30.6028 30.1771 30.6859 30.0765C30.7062 30.0521 30.7209 30.0237 30.729 29.9931C30.7372 29.9625 30.7386 29.9305 30.7332 29.8993C30.7278 29.8681 30.7157 29.8384 30.6977 29.8124C30.6797 29.7863 30.6563 29.7645 30.629 29.7484H30.6116Z"
        fill="#FCFCFC"
    />
</svg>