<svg width="48" height="48" viewBox="0 0 48 48" fill="none" xmlns="http://www.w3.org/2000/svg">
<circle cx="24" cy="24" r="23" fill="#2076FF" stroke="white" stroke-width="2"/>
<g clip-path="url(#clip0_423_213)">
<path d="M21.8382 35.2307C19.878 34.9099 18.0355 34.0829 16.4931 32.8313C14.9508 31.5798 13.762 29.9472 13.0444 28.095L13.8626 27.78C14.5258 29.4865 15.6236 30.9899 17.0473 32.141C18.4709 33.2922 20.1707 34.0511 21.9782 34.3425L21.8382 35.2307Z" fill="#FCFCFC"/>
<path d="M25.4784 35.2307L25.3384 34.3557C27.5157 34.0098 29.528 32.9845 31.0876 31.4264C32.6473 29.8682 33.6746 27.857 34.0228 25.6801L34.8978 25.8201C34.5205 28.1815 33.4064 30.3632 31.7146 32.0533C30.0229 33.7435 27.8401 34.8556 25.4784 35.2307Z" fill="#FCFCFC"/>
<path d="M34.0228 22.32C33.6763 20.1414 32.6498 18.1283 31.0899 16.5684C29.5301 15.0086 27.5169 13.9821 25.3384 13.6356L25.4784 12.7606C27.8398 13.1379 30.0215 14.252 31.7117 15.9437C33.4018 17.6355 34.5139 19.8182 34.889 22.18L34.0228 22.32Z" fill="#FCFCFC"/>
<path d="M13.8626 20.22L13.0444 19.905C13.762 18.0529 14.9508 16.4203 16.4931 15.1687C18.0355 13.9172 19.878 13.0901 21.8382 12.7694L21.9782 13.6444C20.1693 13.937 18.4684 14.6979 17.0447 15.8515C15.621 17.005 14.5239 18.5111 13.8626 20.22Z" fill="#FCFCFC"/>
<path d="M23.2207 12.625H24.0957V13.5H23.2207V12.625Z" fill="#FCFCFC"/>
<path d="M34.1582 23.5625H35.0332V24.4375H34.1582V23.5625Z" fill="#FCFCFC"/>
<path d="M23.2207 34.5H24.0957V35.375H23.2207V34.5Z" fill="#FCFCFC"/>
<path d="M31.9707 25.3387C31.8526 25.2903 31.7526 25.206 31.6851 25.0976C31.6176 24.9893 31.5859 24.8624 31.5945 24.735C31.6361 24.2546 31.6361 23.7716 31.5945 23.2912C31.5945 23.2912 31.5945 23.2344 31.5945 23.23C31.5963 23.1057 31.6346 22.9848 31.7046 22.8821C31.7746 22.7795 31.8732 22.6996 31.9882 22.6525C32.1171 22.6011 32.2342 22.5242 32.3327 22.4265C32.4312 22.3287 32.5089 22.2122 32.5613 22.0837C32.6145 21.9562 32.6419 21.8194 32.6419 21.6812C32.6419 21.5431 32.6145 21.4063 32.5613 21.2787L31.8657 19.625C31.8139 19.4971 31.7374 19.3806 31.6406 19.2822C31.5438 19.1839 31.4285 19.1056 31.3013 19.0519C31.1705 18.9966 31.0299 18.9682 30.8879 18.9682C30.7459 18.9682 30.6053 18.9966 30.4745 19.0519C30.3594 19.1038 30.2311 19.1186 30.1072 19.0943C29.9833 19.07 29.8701 19.0078 29.7832 18.9162C29.4725 18.539 29.1284 18.1905 28.7551 17.875C28.6868 17.8185 28.6319 17.7476 28.594 17.6675C28.5562 17.5873 28.5365 17.4999 28.5363 17.4112C28.5365 17.324 28.5543 17.2376 28.5888 17.1575C28.6429 17.0294 28.6707 16.8918 28.6707 16.7528C28.6707 16.6138 28.6429 16.4762 28.5888 16.3481C28.4825 16.098 28.2834 15.8988 28.0332 15.7925L26.397 15.1144C26.2681 15.0599 26.1297 15.0316 25.9898 15.031C25.8498 15.0304 25.7112 15.0575 25.5818 15.1108C25.4524 15.1641 25.3349 15.2425 25.236 15.3415C25.1372 15.4405 25.0589 15.5581 25.0057 15.6875C24.9551 15.8114 24.8662 15.9159 24.7522 15.9859C24.6381 16.0559 24.5047 16.0878 24.3713 16.0769C23.8982 16.0375 23.4226 16.0375 22.9495 16.0769H22.8882C22.764 16.075 22.643 16.0367 22.5404 15.9667C22.4377 15.8967 22.3578 15.7981 22.3107 15.6831C22.2593 15.5543 22.1824 15.4371 22.0847 15.3387C21.987 15.2402 21.8704 15.1624 21.742 15.11C21.6144 15.0568 21.4776 15.0294 21.3395 15.0294C21.2013 15.0294 21.0645 15.0568 20.937 15.11L19.2832 15.7925C19.0901 15.871 18.9249 16.0054 18.8088 16.1784C18.6926 16.3515 18.6308 16.5553 18.6313 16.7637C18.6304 16.9018 18.6572 17.0387 18.7101 17.1662C18.7504 17.2613 18.7671 17.3646 18.7587 17.4675C18.7503 17.5703 18.7171 17.6696 18.662 17.7569C18.6306 17.8025 18.6181 17.8585 18.627 17.9131C18.636 17.9678 18.6658 18.0168 18.7101 18.05L20.4601 19.3625C20.4958 19.3881 20.5386 19.4019 20.5826 19.4019C20.6266 19.4019 20.6694 19.3881 20.7051 19.3625C21.5928 18.8157 22.6156 18.5278 23.6582 18.5312C24.3898 18.5295 25.1145 18.6728 25.7904 18.9529C26.4662 19.233 27.0798 19.6444 27.5957 20.1631C28.104 20.6646 28.5076 21.2619 28.7832 21.9206C29.0588 22.5792 29.2009 23.286 29.2013 24C29.1898 25.4597 28.5997 26.8553 27.5605 27.8805C26.5214 28.9057 25.118 29.4769 23.6582 29.4687C22.6167 29.4701 21.5955 29.1807 20.7095 28.6331C20.6733 28.6087 20.6306 28.5956 20.587 28.5956C20.5433 28.5956 20.5006 28.6087 20.4645 28.6331L18.7145 29.915C18.691 29.9312 18.6709 29.9519 18.6555 29.9759C18.6401 29.9999 18.6296 30.0268 18.6248 30.0549C18.6199 30.083 18.6206 30.1118 18.627 30.1396C18.6334 30.1674 18.6453 30.1937 18.662 30.2169C18.736 30.3202 18.7758 30.4441 18.7757 30.5712C18.7756 30.6585 18.7578 30.7448 18.7232 30.825C18.6692 30.9531 18.6414 31.0907 18.6414 31.2297C18.6414 31.3687 18.6692 31.5063 18.7232 31.6344C18.8268 31.8919 19.0281 32.098 19.2832 32.2075L20.9195 32.8856C21.0486 32.9433 21.1881 32.9742 21.3295 32.9764C21.4709 32.9786 21.6112 32.9522 21.7421 32.8986C21.873 32.845 21.9916 32.7655 22.0909 32.6647C22.1901 32.564 22.2679 32.4442 22.3195 32.3125C22.3679 32.1943 22.4522 32.0944 22.5606 32.0269C22.669 31.9593 22.7958 31.9276 22.9232 31.9362C23.4036 31.9778 23.8866 31.9778 24.367 31.9362H24.4282C24.5525 31.9381 24.6734 31.9764 24.7761 32.0464C24.8788 32.1164 24.9586 32.215 25.0057 32.33C25.0572 32.4588 25.134 32.576 25.2318 32.6745C25.3295 32.7729 25.446 32.8507 25.5745 32.9031C25.7009 32.9548 25.8361 32.9815 25.9726 32.9819C26.1125 32.9826 26.2511 32.9543 26.3795 32.8987L28.0332 32.2075C28.1634 32.1555 28.2817 32.0777 28.3811 31.9788C28.4805 31.8799 28.5589 31.762 28.6116 31.632C28.6643 31.5021 28.6903 31.3629 28.6878 31.2227C28.6854 31.0825 28.6547 30.9443 28.5976 30.8162C28.5467 30.7003 28.5333 30.5714 28.5592 30.4475C28.5851 30.3236 28.649 30.2109 28.742 30.125C29.1192 29.8142 29.4677 29.4701 29.7832 29.0969C29.869 28.9957 29.9852 28.9249 30.1144 28.8949C30.2437 28.865 30.3792 28.8775 30.5007 28.9306C30.6288 28.9846 30.7664 29.0125 30.9054 29.0125C31.0444 29.0125 31.182 28.9846 31.3101 28.9306C31.5602 28.8243 31.7594 28.6251 31.8657 28.375L32.5438 26.7387C32.6015 26.6096 32.6324 26.4702 32.6346 26.3288C32.6369 26.1874 32.6104 26.047 32.5568 25.9161C32.5033 25.7852 32.4237 25.6666 32.3229 25.5674C32.2222 25.4681 32.1024 25.3903 31.9707 25.3387Z" fill="#FCFCFC"/>
<path d="M23.352 23.825L16.9295 19.1175L16.7851 19.0125C16.7531 18.9878 16.7147 18.9726 16.6745 18.9688C16.6342 18.9649 16.5937 18.9725 16.5576 18.9907C16.5222 19.0101 16.4926 19.0385 16.4719 19.0731C16.4511 19.1077 16.4399 19.1472 16.4395 19.1875V21.5938H10.0957C9.80562 21.5938 9.52742 21.709 9.32231 21.9141C9.11719 22.1193 9.00195 22.3975 9.00195 22.6875V25.3125C9.00195 25.6026 9.11719 25.8808 9.32231 26.0859C9.52742 26.2911 9.80562 26.4063 10.0957 26.4063H16.4395V28.8125C16.4399 28.8529 16.4511 28.8924 16.4719 28.927C16.4926 28.9616 16.5222 28.99 16.5576 29.0094C16.5908 29.0155 16.6249 29.0155 16.6582 29.0094C16.7056 29.0097 16.7517 28.9944 16.7895 28.9657L23.352 24.1532C23.3791 24.1328 23.4012 24.1064 23.4164 24.076C23.4315 24.0456 23.4395 24.0121 23.4395 23.9782C23.4395 23.9442 23.4315 23.9107 23.4164 23.8803C23.4012 23.85 23.3791 23.8235 23.352 23.8032V23.825Z" fill="#FCFCFC"/>
</g>
<defs>
<clipPath id="clip0_423_213">
<rect width="28" height="28" fill="white" transform="translate(7.9082 10)"/>
</clipPath>
</defs>
</svg>
