<svg
    width="48"
    height="48"
    viewBox="0 0 48 48"
    fill="none"
    xmlns="http://www.w3.org/2000/svg"
    >
    <circle cx="24" cy="24" r="23" fill="#29AA08" stroke="white" stroke-width="2" />
    <path
        d="M32.3133 17.28C30.6973 15.3321 28.4291 14.0371 25.9302 13.6356L26.0702 12.7606C28.7747 13.1974 31.2308 14.5955 32.9871 16.6981L32.3133 17.28Z"
        fill="#FCFCFC"
    />
    <path
        d="M13.8857 22.32L13.0107 22.18C13.388 19.8186 14.5021 17.6369 16.1939 15.9467C17.8856 14.2566 20.0684 13.1445 22.4301 12.7694L22.5701 13.6444C20.3928 13.9903 18.3805 15.0156 16.8209 16.5737C15.2612 18.1318 14.2339 20.1431 13.8857 22.32Z"
        fill="#FCFCFC"
    />
    <path
        d="M22.43 35.2306C20.152 34.8562 18.0411 33.7999 16.3758 32.201C14.7106 30.6021 13.5693 28.5359 13.1025 26.275L13.9775 26.1C14.4058 28.185 15.4563 30.091 16.9904 31.5665C18.5245 33.042 20.47 34.0176 22.57 34.3643L22.43 35.2306Z"
        fill="#FCFCFC"
    />
    <path
        d="M26.0702 35.2306L25.9302 34.3556C28.6145 33.9261 31.0254 32.4664 32.6502 30.2869L33.3502 30.8119C31.5926 33.1778 28.9802 34.7634 26.0702 35.2306Z"
        fill="#FCFCFC"
    />
    <path d="M12.875 23.5625H13.75V24.4375H12.875V23.5625Z" fill="#FCFCFC" />
    <path d="M23.8125 12.625H24.6875V13.5H23.8125V12.625Z" fill="#FCFCFC" />
    <path d="M23.8125 34.5H24.6875V35.375H23.8125V34.5Z" fill="#FCFCFC" />
    <path
        d="M38.81 23.8206L31.81 19.0081C31.7768 18.9866 31.738 18.9752 31.6984 18.9752C31.6589 18.9752 31.6201 18.9866 31.5869 19.0081C31.5509 19.0256 31.5207 19.053 31.4997 19.0871C31.4788 19.1212 31.4681 19.1606 31.4687 19.2006V21.6069H25.125C24.8372 21.6068 24.561 21.7203 24.3562 21.9226C24.1515 22.1249 24.0347 22.3997 24.0312 22.6875V25.3125C24.0312 25.6026 24.1465 25.8808 24.3516 26.0859C24.5567 26.291 24.8349 26.4062 25.125 26.4062H31.4687V28.8125C31.4681 28.8525 31.4788 28.8919 31.4997 28.926C31.5207 28.9601 31.5509 28.9875 31.5869 29.005C31.6203 29.026 31.659 29.0371 31.6984 29.0371C31.7379 29.0371 31.7766 29.026 31.81 29.005L38.81 24.1925C38.8398 24.173 38.8643 24.1464 38.8812 24.1151C38.8981 24.0838 38.907 24.0487 38.907 24.0131C38.907 23.9775 38.8981 23.9425 38.8812 23.9112C38.8643 23.8798 38.8398 23.8532 38.81 23.8337V23.8206Z"
        fill="#FCFCFC"
    />
    <path
        d="M30.3005 28.7731L28.5243 27.7494C28.4822 27.7246 28.4332 27.7146 28.3848 27.721C28.3365 27.7273 28.2916 27.7496 28.2574 27.7844C27.6346 28.456 26.8542 28.9618 25.9867 29.2558C25.1193 29.5499 24.1922 29.623 23.2893 29.4685C22.3865 29.314 21.5365 28.9368 20.8161 28.3711C20.0958 27.8053 19.5279 27.0689 19.1639 26.2284C18.7999 25.3879 18.6512 24.4698 18.7314 23.5574C18.8115 22.645 19.1179 21.7669 19.6228 21.0027C20.1278 20.2386 20.8153 19.6123 21.6233 19.1808C22.4312 18.7493 23.334 18.526 24.2499 18.5313C24.9968 18.528 25.7368 18.6755 26.4254 18.9649C27.1139 19.2543 27.7371 19.6797 28.2574 20.2156C28.2905 20.2507 28.3346 20.2734 28.3824 20.2797C28.4302 20.2861 28.4788 20.2758 28.5199 20.2506L30.3049 19.2313C30.3321 19.2151 30.3556 19.1933 30.3736 19.1672C30.3916 19.1412 30.4037 19.1115 30.4091 19.0803C30.4145 19.0491 30.4131 19.0171 30.4049 18.9865C30.3967 18.9559 30.382 18.9275 30.3618 18.9031C30.2786 18.7981 30.1868 18.6975 30.0993 18.6013C29.8645 18.3446 29.6147 18.1021 29.3511 17.875C29.2502 17.7871 29.1794 17.6697 29.1488 17.5394C29.1182 17.4091 29.1293 17.2724 29.1805 17.1488C29.2334 17.0212 29.2602 16.8843 29.2593 16.7463C29.2578 16.5428 29.197 16.3442 29.0843 16.1748C28.9716 16.0054 28.812 15.8725 28.6249 15.7925L26.9886 15.1144C26.8611 15.0612 26.7243 15.0338 26.5861 15.0338C26.448 15.0338 26.3112 15.0612 26.1836 15.1144C26.0557 15.1665 25.9395 15.2437 25.8419 15.3414C25.7442 15.439 25.667 15.5552 25.6149 15.6831C25.5684 15.7989 25.4889 15.8985 25.3862 15.9693C25.2835 16.0401 25.1621 16.079 25.0374 16.0813H24.9761C24.5015 16.0419 24.0245 16.0419 23.5499 16.0813C23.4137 16.0955 23.2767 16.0647 23.1597 15.9936C23.0428 15.9225 22.9524 15.8149 22.9024 15.6875C22.7941 15.4312 22.5892 15.2279 22.3321 15.1214C22.0751 15.015 21.7864 15.014 21.5286 15.1188L19.8749 15.7925C19.7459 15.8443 19.6286 15.9213 19.5297 16.0189C19.4309 16.1166 19.3525 16.233 19.2991 16.3613C19.2458 16.4896 19.2185 16.6273 19.219 16.7662C19.2194 16.9052 19.2476 17.0427 19.3018 17.1706C19.3367 17.2491 19.3546 17.3341 19.3543 17.42C19.3538 17.5092 19.334 17.5973 19.2963 17.6781C19.2585 17.7589 19.2037 17.8306 19.1355 17.8881C18.7665 18.1978 18.4281 18.542 18.1249 18.9163C18.037 19.0146 17.9202 19.0825 17.7912 19.11C17.6622 19.1376 17.5278 19.1233 17.4074 19.0694C17.2793 19.0154 17.1417 18.9875 17.0027 18.9875C16.8637 18.9875 16.7261 19.0154 16.598 19.0694C16.3479 19.1757 16.1487 19.3749 16.0424 19.625L15.3643 21.2788C15.3111 21.4063 15.2837 21.5431 15.2837 21.6813C15.2837 21.8194 15.3111 21.9562 15.3643 22.0838C15.4169 22.2121 15.4947 22.3285 15.5932 22.4262C15.6916 22.5239 15.8087 22.6009 15.9374 22.6525C16.0532 22.699 16.1527 22.7785 16.2235 22.8812C16.2943 22.984 16.3333 23.1053 16.3355 23.23V23.2913C16.2939 23.7702 16.2939 24.2517 16.3355 24.7306C16.344 24.8625 16.3099 24.9937 16.2382 25.1048C16.1665 25.2158 16.0611 25.3009 15.9374 25.3475C15.8085 25.3989 15.6914 25.4758 15.5929 25.5735C15.4945 25.6713 15.4167 25.7878 15.3643 25.9163C15.3111 26.0438 15.2837 26.1806 15.2837 26.3188C15.2837 26.4569 15.3111 26.5937 15.3643 26.7213L16.0424 28.375C16.0942 28.504 16.1712 28.6213 16.2688 28.7202C16.3665 28.819 16.4829 28.8974 16.6112 28.9508C16.7395 29.0042 16.8771 29.0314 17.0161 29.0309C17.1551 29.0305 17.2926 29.0023 17.4205 28.9481C17.5423 28.8964 17.6774 28.8846 17.8063 28.9145C17.9352 28.9444 18.0514 29.0144 18.138 29.1144C18.4476 29.4834 18.7919 29.8218 19.1661 30.125C19.2645 30.2129 19.3324 30.3298 19.3599 30.4587C19.3875 30.5877 19.3732 30.7221 19.3193 30.8425C19.2652 30.9706 19.2374 31.1082 19.2374 31.2472C19.2374 31.3862 19.2652 31.5238 19.3193 31.6519C19.4256 31.902 19.6247 32.1012 19.8749 32.2075L21.5111 32.8856C21.6387 32.9388 21.7755 32.9662 21.9136 32.9662C22.0518 32.9662 22.1886 32.9388 22.3161 32.8856C22.444 32.8335 22.5602 32.7563 22.6579 32.6587C22.7556 32.561 22.8327 32.4448 22.8849 32.3169C22.9313 32.2011 23.0109 32.1016 23.1136 32.0307C23.2163 31.9599 23.3376 31.921 23.4624 31.9188H23.5236C24.0025 31.9604 24.4841 31.9604 24.963 31.9188C25.0944 31.91 25.2252 31.9434 25.3361 32.0143C25.4471 32.0851 25.5326 32.1896 25.5799 32.3125C25.6313 32.4414 25.7082 32.5585 25.8059 32.657C25.9036 32.7554 26.0202 32.8332 26.1486 32.8856C26.275 32.9373 26.4102 32.9641 26.5468 32.9644C26.6867 32.9651 26.8252 32.9368 26.9536 32.8813L28.6249 32.2075C28.7538 32.1557 28.8712 32.0787 28.97 31.9811C29.0689 31.8834 29.1473 31.767 29.2007 31.6387C29.254 31.5104 29.2813 31.3728 29.2808 31.2338C29.2804 31.0948 29.2522 30.9573 29.198 30.8294C29.1631 30.7509 29.1452 30.6659 29.1455 30.58C29.146 30.4908 29.1657 30.4028 29.2035 30.3219C29.2413 30.2411 29.2961 30.1695 29.3643 30.1119C29.6283 29.89 29.8781 29.6519 30.1124 29.3988C30.2043 29.3025 30.2918 29.2019 30.3749 29.1013C30.3951 29.0769 30.4098 29.0485 30.418 29.0179C30.4262 28.9873 30.4276 28.9553 30.4222 28.9241C30.4168 28.8929 30.4047 28.8632 30.3867 28.8372C30.3687 28.8111 30.3453 28.7893 30.318 28.7731H30.3005Z"
        fill="#FCFCFC"
    />
</svg>