<svg width="158" height="50" viewBox="0 0 158 50" fill="none" xmlns="http://www.w3.org/2000/svg">
<path d="M31.4835 23.1073H18.9209V26.2317H31.4835V23.1073Z" fill="#181D1E"/>
<path d="M25.0719 0C11.5004 0 0.5 11.0004 0.5 24.5719C0.5 38.1435 11.5004 49.1439 25.0719 49.1439C38.6435 49.1439 49.6439 38.1435 49.6439 24.5719C49.6439 11.0004 38.6435 0 25.0719 0ZM34.2173 34.3031H31.3532V28.2496H18.7906V34.3031H15.9592V14.6455H18.8232V20.5688H31.3858V14.6455H34.2498V34.3031H34.2173Z" fill="#181D1E"/>
<path d="M80.0415 23.4329H70.0825V16.2403H67.5439V33.1315H70.0825V25.8087H80.0415V33.1315H82.58V16.2403H80.0415V23.4329Z" fill="#181D1E"/>
<path d="M91.3022 23.1075C92.962 23.1075 94.1011 23.9537 94.6544 25.581H87.8849C88.3731 23.9862 89.6098 23.1075 91.3022 23.1075ZM91.3022 21.0246C87.8849 21.0246 85.2812 23.6933 85.2812 27.2083C85.2812 30.7232 87.95 33.3919 91.4975 33.3919C95.5657 33.3919 96.9977 30.6581 97.1929 29.7143L97.2255 29.5515H94.8822L94.8497 29.6166C94.8171 29.6817 94.036 31.1788 91.53 31.1788C89.4471 31.1788 87.9174 29.7143 87.7222 27.5988H97.3557V27.4686C97.3557 23.6933 94.8497 21.0246 91.3022 21.0246Z" fill="#181D1E"/>
<path d="M105.46 31.1787C103.214 31.1787 101.685 29.5514 101.685 27.2081C101.685 24.8648 103.247 23.2376 105.46 23.2376C107.673 23.2376 109.203 24.8648 109.203 27.2081C109.203 29.5514 107.641 31.1787 105.46 31.1787ZM109.138 22.9121C108.552 22.0985 107.217 21.0245 105.037 21.0245C101.587 21.0245 99.1787 23.563 99.1787 27.2081C99.1787 30.8532 101.587 33.3918 105.037 33.3918C107.38 33.3918 108.649 32.09 109.138 31.4065V33.0989H111.513V15.6219H109.138V22.9121Z" fill="#181D1E"/>
<path d="M120.365 23.1075C122.025 23.1075 123.164 23.9537 123.717 25.581H116.948C117.404 23.9862 118.64 23.1075 120.365 23.1075ZM120.365 21.0246C116.948 21.0246 114.344 23.6933 114.344 27.2083C114.344 30.7232 117.013 33.3919 120.56 33.3919C124.629 33.3919 126.061 30.6581 126.256 29.7143L126.288 29.5515H123.945L123.913 29.6166C123.88 29.6817 123.099 31.1788 120.593 31.1788C118.51 31.1788 116.98 29.7143 116.785 27.5988H126.419V27.4686C126.386 23.6933 123.913 21.0246 120.365 21.0246Z" fill="#181D1E"/>
<path d="M131.464 23.0099V21.285H129.088V33.1316H131.464V26.4598C131.464 24.3769 132.538 23.5958 135.337 23.5958H138.428V21.2199H135.402C133.026 21.2199 131.952 22.2614 131.464 23.0099Z" fill="#181D1E"/>
<path d="M149.038 27.2083C149.038 29.519 147.508 31.1788 145.425 31.1788C143.342 31.1788 141.715 29.5515 141.715 27.2083C141.715 24.865 143.245 23.2377 145.425 23.2377C147.606 23.2377 149.038 24.9301 149.038 27.2083ZM148.973 22.9122C148.517 22.2613 147.313 21.0246 145.002 21.0246C142.138 21.0246 139.242 23.1401 139.242 27.2083C139.242 30.8534 141.618 33.3919 145.002 33.3919C147.215 33.3919 148.42 32.2203 148.973 31.4392V33.1316H151.349V21.285H148.973V22.9122Z" fill="#181D1E"/>
<path d="M153.692 21.6429H154.343V23.14H154.571V21.6429H155.222V21.4151H153.692V21.6429Z" fill="#181D1E"/>
<path d="M157.109 21.4151L156.556 22.782L156.003 21.4151H155.612V23.14H155.84V21.6429L156.458 23.14H156.621L157.24 21.6754V23.14H157.5V21.4151H157.109Z" fill="#181D1E"/>
</svg>
