<svg width="60" height="60" viewBox="0 0 60 60" fill="none" xmlns="http://www.w3.org/2000/svg">
<path d="M52.0728 1.28906H7.84906C4.2045 1.28906 1.25 4.24356 1.25 7.88812V52.1119C1.25 55.7564 4.2045 58.7109 7.84906 58.7109H52.0728C55.7174 58.7109 58.6719 55.7564 58.6719 52.1119V7.88812C58.6719 4.24356 55.7174 1.28906 52.0728 1.28906Z" fill="#F5D367"/>
<path d="M27.7859 58.711H7.84883C6.09858 58.7108 4.4201 58.0153 3.1826 56.7776C1.94509 55.5398 1.24992 53.8612 1.25 52.111V7.88794C1.24954 7.3123 1.32439 6.73908 1.47266 6.18286C1.40235 7.35708 1.36719 8.54067 1.36719 9.73364C1.36719 30.211 11.8719 48.2356 27.7859 58.711Z" fill="#E2C061"/>
<path d="M54.3926 49.766V10.234C54.3926 7.65742 52.3039 5.56873 49.7273 5.56873L10.1953 5.56873C7.61877 5.56873 5.53008 7.65742 5.53008 10.234V49.766C5.53008 52.3425 7.61877 54.4312 10.1953 54.4312H49.7273C52.3039 54.4312 54.3926 52.3425 54.3926 49.766Z" fill="#FFEBB9"/>
<path d="M22.0738 54.4313H10.1945C8.95725 54.4312 7.77066 53.9397 6.89577 53.0648C6.02089 52.1899 5.52935 51.0033 5.5293 49.766V31.4648C9.08826 40.3552 14.7682 48.2399 22.0738 54.4313Z" fill="#EDDAB0"/>
<path d="M42.8556 22.0224L42.8386 22.0385C42.3324 22.5177 41.6699 22.7979 40.9731 22.8277C40.2763 22.8575 39.5923 22.6347 39.047 22.2006C36.7216 20.3673 34.1793 19.4507 31.42 19.4507C28.4596 19.4507 25.9658 20.4613 23.9386 22.4827C21.9114 24.5042 20.8977 26.9959 20.8977 29.9579C20.8977 32.0215 21.3466 33.8534 22.2444 35.4538C23.1323 37.0442 24.4529 38.351 26.0535 39.223C27.7284 40.1437 29.6136 40.6151 31.5254 40.5915C33.1403 40.6115 34.7407 40.2848 36.2182 39.6335C37.1982 39.17 38.1163 38.5858 38.9509 37.8945C39.5126 37.4482 40.2212 37.228 40.9373 37.2771C41.6534 37.3263 42.3252 37.6412 42.8204 38.1601C43.0972 38.4471 43.311 38.7885 43.4485 39.1626C43.586 39.5366 43.6441 39.9351 43.619 40.3328C43.594 40.7305 43.4864 41.1186 43.3031 41.4725C43.1198 41.8264 42.8648 42.1384 42.5543 42.3885C41.1158 43.5365 39.7314 44.3924 38.4011 44.956C36.3649 45.8185 34.0409 46.2498 31.4293 46.25C26.6127 46.25 22.6703 44.7249 19.6023 41.6748C16.5339 38.6246 14.9998 34.7156 15 29.9476C15 26.8627 15.6986 24.1211 17.0958 21.7227C18.4928 19.3246 20.4938 17.3964 23.0988 15.9379C25.6651 14.4894 28.5657 13.7353 31.5135 13.7502C35.5781 13.7637 39.5172 15.1574 42.6837 17.7025C43.0018 17.9603 43.2612 18.2828 43.4447 18.6485C43.6281 19.0143 43.7315 19.4149 43.7477 19.8236C43.764 20.2324 43.6928 20.6399 43.539 21.019C43.3852 21.3982 43.1522 21.7402 42.8556 22.0224Z" fill="#4A5058"/>
</svg>