<svg width="48" height="48" viewBox="0 0 48 48" fill="none" xmlns="http://www.w3.org/2000/svg">
<path d="M41.6582 1.03125H6.27925C3.3636 1.03125 1 3.39485 1 6.3105V41.6895C1 44.6051 3.3636 46.9688 6.27925 46.9688H41.6582C44.5739 46.9688 46.9375 44.6051 46.9375 41.6895V6.3105C46.9375 3.39485 44.5739 1.03125 41.6582 1.03125Z" fill="#F5D367"/>
<path d="M22.2288 46.9687H6.27906C4.87886 46.9685 3.53608 46.4122 2.54608 45.422C1.55608 44.4318 0.99994 43.0889 1 41.6887V6.31029C0.99963 5.84978 1.05951 5.3912 1.17813 4.94623C1.12188 5.8856 1.09375 6.83248 1.09375 7.78685C1.09375 24.1687 9.4975 38.5884 22.2288 46.9687Z" fill="#E2C061"/>
<path d="M43.5137 39.8128V8.18721C43.5137 6.12597 41.8428 4.45502 39.7815 4.45502L8.15591 4.45502C6.09468 4.45502 4.42373 6.12597 4.42373 8.18721V39.8128C4.42373 41.8741 6.09468 43.545 8.15591 43.545H39.7815C41.8428 43.545 43.5137 41.8741 43.5137 39.8128Z" fill="#FFEBB9"/>
<path d="M17.6594 43.545H8.15595C7.16613 43.545 6.21686 43.1517 5.51695 42.4518C4.81704 41.7519 4.42381 40.8026 4.42377 39.8128V25.1719C7.27093 32.2842 11.8149 38.5919 17.6594 43.545Z" fill="#EDDAB0"/>
<path d="M34.2845 17.6179L34.2709 17.6308C33.8659 18.0141 33.3359 18.2383 32.7785 18.2622C32.2211 18.286 31.6738 18.1078 31.2376 17.7605C29.3773 16.2938 27.3435 15.5605 25.136 15.5605C22.7677 15.5605 20.7727 16.3691 19.1509 17.9862C17.5291 19.6034 16.7182 21.5968 16.7182 23.9664C16.7182 25.6172 17.0773 27.0827 17.7955 28.363C18.5058 29.6353 19.5623 30.6808 20.8428 31.3784C22.1827 32.1149 23.6909 32.4921 25.2203 32.4732C26.5122 32.4892 27.7925 32.2278 28.9746 31.7068C29.7586 31.336 30.493 30.8686 31.1608 30.3156C31.6101 29.9586 32.177 29.7824 32.7499 29.8217C33.3227 29.861 33.8601 30.113 34.2564 30.5281C34.4777 30.7577 34.6488 31.0308 34.7588 31.3301C34.8688 31.6293 34.9153 31.9481 34.8952 32.2662C34.8752 32.5844 34.7891 32.8949 34.6425 33.178C34.4958 33.4611 34.2918 33.7107 34.0434 33.9108C32.8927 34.8292 31.7852 35.5139 30.7209 35.9648C29.0919 36.6548 27.2328 36.9998 25.1434 37C21.2901 37 18.1363 35.7799 15.6818 33.3398C13.2272 30.8997 11.9999 27.7724 12 23.958C12 21.4901 12.5589 19.2968 13.6766 17.3781C14.7943 15.4597 16.3951 13.9171 18.479 12.7503C20.5321 11.5915 22.8526 10.9882 25.2108 11.0002C28.4625 11.0109 31.6138 12.1259 34.1469 14.162C34.4014 14.3682 34.609 14.6262 34.7557 14.9188C34.9025 15.2114 34.9852 15.5319 34.9982 15.8589C35.0112 16.1859 34.9543 16.5119 34.8312 16.8152C34.7081 17.1185 34.5217 17.3922 34.2845 17.6179Z" fill="#4A5058"/>
</svg>
