<svg width="60" height="60" viewBox="0 0 60 60" fill="none" xmlns="http://www.w3.org/2000/svg">
<rect width="60" height="60" fill="white"/>
<path d="M39.8156 29.6906C39.9282 30.1405 39.7875 30.6468 39.4219 30.9843L30 40.4062L25.3593 45.0468C24.8812 45.553 24.1218 45.6093 23.5594 45.2155C22.9969 44.7937 22.7999 44.0625 23.1093 43.4436L28.003 33.628L21.1125 31.3218C20.6624 31.1811 20.2968 30.7874 20.1843 30.3093C20.0717 29.8594 20.2124 29.3529 20.578 29.0154L34.6405 14.9529C35.1186 14.4467 35.878 14.3905 36.4404 14.7842C37.0029 15.2061 37.1999 15.9374 36.8905 16.5561L31.9968 26.3717L38.8873 28.6779C39.3375 28.8186 39.7031 29.2124 39.8156 29.6906Z" fill="#FDBF00"/>
<path d="M54 30C54 30.7874 53.3813 31.4062 52.5938 31.4062C51.8062 31.4062 51.1875 30.7874 51.1875 30C51.1875 18.3563 41.6437 8.8125 30 8.8125C23.2499 8.8125 16.8563 12.1687 12.9188 17.5125L15.7593 17.3438C16.5187 17.3156 17.1937 17.8781 17.25 18.6655C17.3063 19.425 16.7156 20.0999 15.9282 20.1562L10.3032 20.4938C9.51563 20.55 8.8125 19.8188 8.8125 19.0875V13.125C8.8125 12.3374 9.43116 11.7188 10.2188 11.7188C11.0063 11.7188 11.625 12.3374 11.625 13.125V14.6719C16.1249 9.32803 22.8563 6 30 6C43.1906 6 54 16.8094 54 30Z" fill="#71B22B"/>
<path d="M51.1875 40.9125V46.875C51.1875 47.6624 50.5688 48.2812 49.7812 48.2812C48.9937 48.2812 48.375 47.6624 48.375 46.875V45.3281C43.8751 50.6718 37.1437 54 30 54C16.8094 54 6 43.1906 6 30C6 29.2124 6.61866 28.5938 7.40625 28.5938C8.19384 28.5938 8.8125 29.2124 8.8125 30C8.8125 41.6437 18.3563 51.1875 30 51.1875C36.7501 51.1875 43.1437 47.8312 47.0812 42.4875L44.2407 42.6562C43.4813 42.7124 42.8063 42.1219 42.75 41.3343C42.6937 40.575 43.2844 39.8999 44.0718 39.8438L49.6968 39.5062C50.4562 39.45 51.1875 40.1249 51.1875 40.9125Z" fill="#71B22B"/>
<path d="M39.4218 30.9843L30 40.4063V19.5938L34.6407 14.953C35.1188 14.4468 35.8782 14.3906 36.4406 14.7843C37.0031 15.2063 37.2001 15.9375 36.8907 16.5562L31.997 26.3718L38.8875 28.6781C39.3376 28.8187 39.7032 29.2124 39.8157 29.6906C39.9282 30.1406 39.7874 30.6468 39.4218 30.9843Z" fill="#FF9F00"/>
<path d="M51.1875 40.9125V46.875C51.1875 47.6624 50.5688 48.2813 49.7812 48.2813C48.9937 48.2813 48.375 47.6624 48.375 46.875V45.3281C43.8751 50.6718 37.1437 54 30 54V51.1875C36.7501 51.1875 43.1438 47.8312 47.0812 42.4875L44.2407 42.6563C43.4812 42.7124 42.8063 42.1219 42.75 41.3343C42.6937 40.575 43.2844 39.8999 44.0718 39.8438L49.6968 39.5063C50.4562 39.45 51.1875 40.1249 51.1875 40.9125Z" fill="#92D050"/>
<path d="M54 30C54 30.7874 53.3813 31.4062 52.5938 31.4062C51.8062 31.4062 51.1875 30.7874 51.1875 30C51.1875 18.3563 41.6437 8.8125 30 8.8125V6C43.1906 6 54 16.8094 54 30Z" fill="#92D050"/>
</svg>
