<svg width="38" height="48" viewBox="0 0 38 48" fill="none" xmlns="http://www.w3.org/2000/svg">
<path d="M37.1906 29.3109C37.1906 39.5812 28.8647 47.9072 18.5953 47.9072C8.32594 47.9072 0 39.5803 0 29.3109C0 14.5856 16.0922 1.79906 18.3366 0.0871875C18.4894 -0.0290625 18.7013 -0.0290625 18.8541 0.0871875C21.0984 1.79906 37.1906 14.5847 37.1906 29.31V29.3109Z" fill="#40C1FA"/>
<path d="M18.3365 0.0871875L18.3319 0.0909375C23.7703 5.01281 33.1331 15.1162 33.1331 26.3484C33.1331 36.6187 24.8072 44.9437 14.5369 44.9437C11.3437 44.9437 8.33905 44.1384 5.71405 42.7209C9.05624 45.9319 13.5947 47.9062 18.5953 47.9062C28.8656 47.9062 37.1906 39.5803 37.1906 29.31C37.1906 14.5856 21.0984 1.79906 18.8541 0.0871875C18.7012 -0.0290625 18.4894 -0.0290625 18.3365 0.0871875Z" fill="#07A9F0"/>
<path d="M31.7118 34.0922C31.6321 34.0922 31.5496 34.0781 31.4699 34.049C31.1062 33.915 30.9196 33.5118 31.0527 33.1481C31.2787 32.5322 31.4727 31.8965 31.6284 31.259C31.7202 30.8822 32.1009 30.6525 32.4768 30.7443C32.8537 30.8372 33.0843 31.2168 32.9915 31.5928C32.8227 32.2809 32.6137 32.9662 32.3699 33.6318C32.2659 33.9159 31.9968 34.0922 31.7109 34.0922H31.7118Z" fill="#72D1FB"/>
<path d="M25.5516 42.4556C25.3416 42.4556 25.1325 42.361 24.9937 42.181C24.7584 41.8735 24.8166 41.4328 25.1241 41.1966C27.3103 39.5203 29.1056 37.3322 30.3169 34.8675C30.4875 34.5197 30.9084 34.3763 31.2562 34.5478C31.6041 34.7185 31.7475 35.1394 31.5759 35.4872C30.27 38.1441 28.3341 40.5038 25.9772 42.3103C25.8497 42.4088 25.6997 42.4556 25.5506 42.4556H25.5516Z" fill="#72D1FB"/>
<path d="M23.4628 14.7844H16.8365C16.6265 14.7844 16.4334 14.8988 16.3331 15.0825L10.5543 25.6584C10.3453 26.0409 10.6218 26.5078 11.0578 26.5069L16.5046 26.4984C16.9143 26.4984 17.1928 26.9138 17.0353 27.2925L14.1131 34.3256C13.8721 34.905 14.6024 35.3944 15.0468 34.9528L26.4046 23.6625C26.7684 23.3016 26.5124 22.6819 26.0006 22.6819H20.3503C19.8928 22.6819 19.619 22.1719 19.8731 21.7913L23.9399 15.6741C24.194 15.2925 23.9203 14.7834 23.4628 14.7834V14.7844Z" fill="#FFD508"/>
<path d="M26.0005 22.6828H24.6158C25.1277 22.6828 25.3827 23.3025 25.0199 23.6634L14.0652 34.5525C14.0624 35.0203 14.6614 35.3362 15.0468 34.9537L26.4046 23.6634C26.7683 23.3025 26.5114 22.6828 26.0005 22.6828Z" fill="#EEC707"/>
<path d="M22.5553 15.675L18.4875 21.7922C18.2344 22.1737 18.5081 22.6828 18.9656 22.6828H20.3503C19.8928 22.6828 19.6191 22.1728 19.8731 21.7922L23.94 15.675C24.1941 15.2934 23.9203 14.7844 23.4628 14.7844H22.0781C22.5366 14.7844 22.8094 15.2944 22.5553 15.675Z" fill="#EEC707"/>
</svg>
