<svg width="48" height="48" viewBox="0 0 48 48" fill="none" xmlns="http://www.w3.org/2000/svg">
<path d="M24 48C37.2548 48 48 37.2548 48 24C48 10.7452 37.2548 0 24 0C10.7452 0 0 10.7452 0 24C0 37.2548 10.7452 48 24 48Z" fill="#C5EDF9"/>
<path d="M31.3673 10.9617L37.1111 16.7055L35.333 18.4837L25.6587 8.80951L21.7945 12.6737L34.8804 25.7596L34.7143 25.9888L26.3326 17.6071L23.6451 16.753L18.1407 15.5963L13.1257 18.4436L10.6994 24.1699L12.4243 31.0269L17.3468 35.9494L15.6381 37.6582L25.9047 47.9248C38.269 46.9539 48 36.6137 48 24C48 23.9795 47.9992 23.959 47.9992 23.9385L33.1949 9.13417L31.3673 10.9617Z" fill="#A7E5F7"/>
<path d="M37.5048 36.6532L30.0246 36.6303L30.0315 34.6985C30.0315 34.6985 31.424 33.2147 33.8721 29.7166C34.3368 29.0528 34.6365 28.4614 34.7635 27.9577L34.7953 27.7089C34.7627 26.9324 34.1209 26.3108 33.3365 26.3108C32.6402 26.3108 32.0375 26.8055 31.9038 27.4867L31.684 28.6058L29.4459 28.1663L29.6657 27.0472C30.0092 25.2988 31.5529 24.0299 33.3365 24.0299C35.3992 24.0299 37.0775 25.7082 37.0775 27.7711V27.8436L36.9977 28.4218C36.812 29.2222 36.3891 30.0979 35.7407 31.0245C34.6976 32.5147 33.8931 33.5964 33.3018 34.3594L37.5116 34.3723L37.5048 36.6532Z" fill="#524CC6"/>
<path d="M23.6451 30.4558C22.4518 31.2838 21.0047 31.7708 19.4455 31.7708C19.4016 31.7708 19.3584 31.7683 19.3148 31.7676C15.3023 31.6973 12.0594 28.4136 12.0594 24.3846C12.0594 20.3556 15.3023 17.072 19.3148 17.0017C19.3585 17.001 19.4017 16.9985 19.4455 16.9985C21.0047 16.9985 22.4518 17.4854 23.6451 18.3134L24.8317 17.293L23.6451 15.6786C22.3743 15.0631 20.9495 14.7175 19.4455 14.7175C19.4016 14.7175 19.3585 14.7202 19.3148 14.7208C14.0446 14.7913 9.77844 19.098 9.77844 24.3846C9.77844 29.6712 14.0446 33.9779 19.3148 34.0484C19.3585 34.049 19.4017 34.0517 19.4455 34.0517C20.9496 34.0517 22.3744 33.7061 23.6451 33.0907L24.8317 31.2594L23.6451 30.4558Z" fill="#6863D0"/>
<path d="M29.1126 24.3845C29.1126 20.5582 26.8778 17.2442 23.6451 15.6785V18.3133C25.5688 19.648 26.8318 21.871 26.8318 24.3845C26.8318 26.8979 25.5688 29.121 23.6451 30.4558V33.0907C26.8778 31.5249 29.1126 28.2109 29.1126 24.3845Z" fill="#524CC6"/>
<path d="M35.5318 20.7977C36.9196 20.7977 38.0446 19.6726 38.0446 18.2849C38.0446 16.8971 36.9196 15.7721 35.5318 15.7721C34.1441 15.7721 33.019 16.8971 33.019 18.2849C33.019 19.6726 34.1441 20.7977 35.5318 20.7977Z" fill="#6863D0"/>
<path d="M16.5518 38.0367C17.2655 38.0367 17.8441 37.4581 17.8441 36.7444C17.8441 36.0306 17.2655 35.452 16.5518 35.452C15.8381 35.452 15.2595 36.0306 15.2595 36.7444C15.2595 37.4581 15.8381 38.0367 16.5518 38.0367Z" fill="#807DD7"/>
<path d="M32.2811 11.3403C32.9949 11.3403 33.5735 10.7617 33.5735 10.048C33.5735 9.33422 32.9949 8.75562 32.2811 8.75562C31.5674 8.75562 30.9888 9.33422 30.9888 10.048C30.9888 10.7617 31.5674 11.3403 32.2811 11.3403Z" fill="#6863D0"/>
<path d="M25.0119 10.6581L23.6451 13.3918C22.1352 13.3918 20.9113 12.1679 20.9113 10.6581C20.9113 9.14822 22.1352 7.92432 23.6451 7.92432L25.0119 10.6581Z" fill="#807DD7"/>
<path d="M26.3788 10.6581C26.3788 12.1679 25.1549 13.3918 23.645 13.3918V7.92432C25.1549 7.92432 26.3788 9.14822 26.3788 10.6581Z" fill="#6863D0"/>
</svg>
