<svg width="48" height="49" viewBox="0 0 48 49" fill="none" xmlns="http://www.w3.org/2000/svg">
<path d="M36.4926 23.2279C32.8221 23.2279 32.8221 26.2311 29.1516 26.2311C25.4811 26.2311 25.4811 23.2279 21.8106 23.2279C18.1401 23.2279 18.1401 26.2311 14.4696 26.2311C10.7987 26.2311 10.7987 23.2279 7.12821 23.2279C3.55037 23.2279 3.45917 26.0802 0.0585938 26.2249C1.19139 38.4406 11.4671 48.0043 23.9788 48.0043C37.1295 48.0043 47.8106 37.4382 48 24.3325C46.8844 25.1891 45.9959 26.2311 43.8336 26.2311C40.1631 26.2311 40.1631 23.2279 36.4926 23.2279Z" fill="#80CAF4"/>
<path d="M43.8336 26.2311C40.1631 26.2311 40.1631 23.2279 36.4926 23.2279C32.8221 23.2279 32.8221 26.2311 29.1516 26.2311C25.4807 26.2311 25.4807 23.2279 21.8102 23.2279C18.1397 23.2279 18.1397 26.2311 14.4692 26.2311C10.7987 26.2311 10.7987 23.2279 7.12821 23.2279C3.55037 23.2279 3.45917 26.0802 0.0582275 26.2249C0.29006 28.7234 0.904619 31.1106 1.8422 33.3282C3.65511 32.506 4.30996 30.7359 7.12821 30.7359C10.7987 30.7359 10.7987 33.7391 14.4692 33.7391C18.1397 33.7391 18.1397 30.7359 21.8102 30.7359C25.4807 30.7359 25.4807 33.7391 29.1516 33.7391C32.8221 33.7391 32.8221 30.7359 36.4926 30.7359C40.1631 30.7359 40.1631 33.7391 43.8336 33.7391C44.8386 33.7391 45.5678 33.5139 46.1732 33.1868C47.3082 30.4535 47.9546 27.4657 48 24.3325C46.8844 25.1891 45.9959 26.2311 43.8336 26.2311Z" fill="#2BA7ED"/>
<path d="M43.8336 33.7392C40.1631 33.7392 40.1631 30.736 36.4926 30.736C32.8221 30.736 32.8221 33.7392 29.1515 33.7392C25.4807 33.7392 25.4807 30.736 21.8102 30.736C18.1397 30.736 18.1397 33.7392 14.4692 33.7392C10.7987 33.7392 10.7987 30.736 7.12817 30.736C4.30992 30.736 3.65507 32.5057 1.84216 33.3282C2.65852 35.2591 3.721 37.0603 4.98857 38.6941C5.55405 38.4234 6.2316 38.244 7.12817 38.244C10.7987 38.244 10.7987 41.2472 14.4692 41.2472C18.1397 41.2472 18.1397 38.244 21.8102 38.244C25.4807 38.244 25.4807 41.2472 29.1515 41.2472C32.8221 41.2472 32.8221 38.244 36.4926 38.244C39.0625 38.244 39.8331 39.7159 41.324 40.5989C43.3673 38.4663 45.0224 35.9579 46.1731 33.1869C45.5677 33.5139 44.8385 33.7392 43.8336 33.7392Z" fill="#55B9F1"/>
<path d="M47.9575 23.9788C47.9575 17.5739 45.4634 11.5521 40.9344 7.0231C36.4054 2.49412 30.3836 0 23.9788 0C19.1421 0 14.5245 1.42323 10.6028 4.07007L6.92275 3.51888C6.53966 3.46138 6.17964 3.72617 6.12214 4.11073C6.06464 4.49528 6.3298 4.85347 6.71436 4.91097L8.99899 5.25304C8.31375 5.80351 7.65341 6.3928 7.0231 7.0231C2.49412 11.5521 0 17.5739 0 23.9788C0 30.3836 2.49412 36.4054 7.0231 40.9344C11.5521 45.4634 17.5739 47.9575 23.9788 47.9575C27.5951 47.9575 31.089 47.162 34.2614 45.6542L37.5694 47.1774C37.9418 47.3488 38.3912 47.1573 38.5278 46.772C38.6476 46.4336 38.4835 46.0486 38.1583 45.8989L35.8385 44.8305C37.6807 43.779 39.394 42.4745 40.9344 40.9344C45.4634 36.4054 47.9575 30.3836 47.9575 23.9788V23.9788ZM35.6953 43.2641L36.5219 41.4691C36.6845 41.1157 36.53 40.6978 36.1769 40.5352C35.8235 40.3726 35.4056 40.5271 35.2433 40.8802L33.6322 44.3782C30.7037 45.7696 27.4306 46.5497 23.9788 46.5497C11.533 46.5497 1.40784 36.4245 1.40784 23.9788C1.40784 16.8667 4.7154 10.5134 9.87175 6.37339L9.52199 8.70819C9.46449 9.09275 9.72928 9.45094 10.1138 9.50844C10.1494 9.51357 10.1845 9.51613 10.219 9.51613C10.5618 9.51613 10.8621 9.26562 10.9141 8.91659L11.4708 5.19994C15.0534 2.8058 19.3557 1.40784 23.9788 1.40784C36.4245 1.40784 46.5497 11.533 46.5497 23.9788C46.5497 32.1372 42.1987 39.2984 35.6953 43.2641V43.2641Z" fill="#B2DF78"/>
<path d="M24.5479 4.71499C24.2527 4.37218 23.7044 4.37218 23.4096 4.71499C22.8529 5.36178 17.9724 11.1224 17.9724 14.2143C17.9724 17.5262 20.6668 20.2207 23.9788 20.2207C27.2907 20.2207 29.9852 17.5262 29.9852 14.2143C29.9852 11.1224 25.1042 5.36178 24.5479 4.71499Z" fill="#80CAF4"/>
<path d="M20.9756 13.4635C20.9756 11.214 23.559 7.55192 25.1811 5.47421C24.8717 5.09442 24.6446 4.82743 24.5479 4.71499C24.2527 4.37218 23.7044 4.37218 23.4096 4.71499C22.8529 5.36178 17.9724 11.1224 17.9724 14.2143C17.9724 17.5262 20.6668 20.2207 23.9788 20.2207C25.0332 20.2207 26.0242 19.9467 26.8867 19.4677C23.6187 19.4164 20.9756 16.7436 20.9756 13.4635Z" fill="#2BA7ED"/>
</svg>
