<svg width="48" height="48" viewBox="0 0 48 48" fill="none" xmlns="http://www.w3.org/2000/svg">
<path d="M25.3586 42.56C25.8676 42.56 26.3558 42.3578 26.7157 41.9977C27.0756 41.6376 27.2778 41.1492 27.2778 40.64C27.2778 40.1308 27.0756 39.6424 26.7157 39.2823C26.3558 38.9223 25.8676 38.72 25.3586 38.72C24.9918 38.7202 24.6341 38.8345 24.335 39.047C24.335 39.0093 24.3401 38.9715 24.3401 38.9331C24.3489 38.5463 24.2038 38.1718 23.9369 37.8918C23.6699 37.6119 23.3027 37.4493 22.9161 37.4399C22.5788 37.446 22.2543 37.5701 21.999 37.7906C21.7436 38.0111 21.5735 38.3141 21.5183 38.647C21.4083 38.5354 21.2774 38.4467 21.133 38.386C20.9886 38.3252 20.8336 38.2936 20.677 38.2931C20.3455 38.3011 20.0307 38.4404 19.8018 38.6804C19.5728 38.9204 19.4484 39.2414 19.4557 39.5731C19.4559 39.7197 19.4803 39.8652 19.528 40.0038C19.5044 40.0038 19.4801 40 19.4557 40C19.1164 40 18.791 40.1349 18.551 40.3749C18.3111 40.615 18.1763 40.9405 18.1763 41.28C18.1763 41.6195 18.3111 41.9451 18.551 42.1851C18.791 42.4252 19.1164 42.56 19.4557 42.56H25.3586Z" fill="#71C285"/>
<path d="M10.5572 20.7997C10.3875 20.7997 10.2248 20.7322 10.1049 20.6122C9.98488 20.4922 9.91748 20.3294 9.91748 20.1596V11.8395C9.91748 11.6697 9.98488 11.5069 10.1049 11.3869C10.2248 11.2669 10.3875 11.1995 10.5572 11.1995C10.7269 11.1995 10.8896 11.2669 11.0096 11.3869C11.1296 11.5069 11.197 11.6697 11.197 11.8395V20.1596C11.197 20.3294 11.1296 20.4922 11.0096 20.6122C10.8896 20.7322 10.7269 20.7997 10.5572 20.7997Z" fill="#A5A5A4"/>
<path d="M27.7831 11.1989H11.837C11.6673 11.1989 11.5046 11.1315 11.3846 11.0115C11.2647 10.8916 11.1973 10.7288 11.1973 10.5592C11.1973 10.3895 11.2647 10.2268 11.3846 10.1068C11.5046 9.98683 11.6673 9.91943 11.837 9.91943H27.7831C27.9527 9.91943 28.1155 9.98683 28.2354 10.1068C28.3554 10.2268 28.4228 10.3895 28.4228 10.5592C28.4228 10.7288 28.3554 10.8916 28.2354 11.0115C28.1155 11.1315 27.9527 11.1989 27.7831 11.1989Z" fill="#A5A5A4"/>
<path d="M25.3586 42.56C25.8676 42.56 26.3558 42.3578 26.7157 41.9977C27.0756 41.6376 27.2778 41.1492 27.2778 40.64C27.2778 40.1308 27.0756 39.6424 26.7157 39.2823C26.3558 38.9223 25.8676 38.72 25.3586 38.72C24.9918 38.7202 24.6341 38.8345 24.335 39.047C24.335 39.0093 24.3401 38.9715 24.3401 38.9331C24.3489 38.5463 24.2038 38.1718 23.9369 37.8918C23.6699 37.6119 23.3027 37.4493 22.9161 37.4399C22.5788 37.446 22.2543 37.5701 21.999 37.7906C21.7436 38.0111 21.5735 38.3141 21.5183 38.647C21.4083 38.5354 21.2774 38.4467 21.133 38.386C20.9886 38.3252 20.8336 38.2936 20.677 38.2931C20.3455 38.3011 20.0307 38.4404 19.8018 38.6804C19.5728 38.9204 19.4484 39.2414 19.4557 39.5731C19.4559 39.7197 19.4803 39.8652 19.528 40.0038C19.5044 40.0038 19.4801 40 19.4557 40C19.1164 40 18.791 40.1349 18.551 40.3749C18.3111 40.615 18.1763 40.9405 18.1763 41.28C18.1763 41.6195 18.3111 41.9451 18.551 42.1851C18.791 42.4252 19.1164 42.56 19.4557 42.56H25.3586Z" fill="#71C285"/>
<path d="M42.5441 23.3597C42.7138 23.3597 42.8765 23.2922 42.9965 23.1722C43.1165 23.0522 43.1839 22.8894 43.1839 22.7196C43.2086 22.2612 43.2043 21.8016 43.1711 21.3436C43.1705 21.3196 43.1662 21.2959 43.1583 21.2732C43.1587 21.2697 43.1584 21.2662 43.1572 21.2629C43.1561 21.2596 43.1543 21.2565 43.1519 21.254C43.1208 21.1661 43.0755 21.0839 43.0176 21.0108L36.7033 14.0603L33.5494 5.22171C33.5046 5.09815 33.4229 4.9914 33.3153 4.91596C33.2077 4.84052 33.0795 4.80005 32.9481 4.80005C32.8167 4.80005 32.6885 4.84052 32.5809 4.91596C32.4733 4.9914 32.3916 5.09815 32.3467 5.22171L29.1928 14.0603C22.576 21.3443 22.7955 21.0505 22.7443 21.254C22.7419 21.2565 22.74 21.2596 22.7389 21.2629C22.7378 21.2662 22.7375 21.2697 22.7379 21.2732C22.73 21.2959 22.7257 21.3196 22.7251 21.3436C22.6902 21.8015 22.686 22.2612 22.7123 22.7196C22.7123 22.8894 22.7797 23.0522 22.8997 23.1722C23.0197 23.2922 23.1824 23.3597 23.352 23.3597C23.5217 23.3597 23.6844 23.2922 23.8044 23.1722C23.9244 23.0522 23.9918 22.8894 23.9918 22.7196V22.0796H29.1097V23.7117C22.3285 29.8219 22.9042 29.2855 22.7763 29.4782C22.6483 29.8494 22.7488 29.658 22.7123 31.0398C22.7123 31.2096 22.7797 31.3723 22.8997 31.4924C23.0197 31.6124 23.1824 31.6798 23.352 31.6798C23.5217 31.6798 23.6844 31.6124 23.8044 31.4924C23.9244 31.3723 23.9918 31.2096 23.9918 31.0398V30.3998H29.1097V42.56C29.1109 42.5777 29.1152 42.5951 29.1225 42.6112C29.1248 42.6549 29.1334 42.698 29.1481 42.7392C29.154 42.7776 29.1671 42.8145 29.1864 42.848C29.2056 42.8864 29.2312 42.9184 29.2504 42.9504C29.2824 42.9824 29.308 43.0144 29.34 43.0464C29.3592 43.0528 29.3656 43.072 29.3784 43.0784C29.3976 43.0976 29.4167 43.0976 29.4423 43.1104C29.4783 43.1325 29.517 43.1497 29.5575 43.1616C29.5993 43.1739 29.6421 43.1824 29.6854 43.1873C29.7046 43.1873 29.7238 43.2001 29.7494 43.2001H36.1468C36.2234 43.1982 36.2992 43.183 36.3707 43.1552C36.3963 43.1488 36.4155 43.1296 36.4411 43.1232C36.4666 43.104 36.4922 43.0976 36.5178 43.0784C36.5306 43.072 36.537 43.0528 36.5562 43.0464C36.5882 43.0144 36.6138 42.9824 36.6458 42.9504C36.665 42.9184 36.6906 42.8864 36.7097 42.848C36.7291 42.8145 36.7421 42.7776 36.7481 42.7392C36.7628 42.698 36.7714 42.6549 36.7737 42.6112C36.781 42.5951 36.7853 42.5777 36.7865 42.56V30.3998H41.9044V31.0398C41.9044 31.2096 41.9718 31.3723 42.0918 31.4924C42.2118 31.6124 42.3745 31.6798 42.5441 31.6798C42.7138 31.6798 42.8765 31.6124 42.9965 31.4924C43.1165 31.3723 43.1839 31.2096 43.1839 31.0398C43.164 29.77 43.228 29.7246 43.1244 29.4974C43.1224 29.4911 43.1209 29.4847 43.1199 29.4782C42.9638 29.2433 43.5856 29.8385 36.9784 23.8845L36.988 23.8934L36.9343 23.8448L36.9432 23.8531L36.8511 23.7699L36.8633 23.7808L36.8466 23.7661L36.7865 23.7117V22.0796H41.9044V22.7196C41.9044 22.8894 41.9718 23.0522 42.0918 23.1722C42.2118 23.2922 42.3745 23.3597 42.5441 23.3597V23.3597ZM29.1097 29.1198H25.0218L29.1097 25.4397V29.1198ZM29.1097 20.7996H24.7978L29.1097 16.0571V20.7996ZM32.9481 7.34015L35.2384 13.7595H30.6578L32.9481 7.34015ZM30.9457 32.9598L32.9481 29.9518L34.9505 32.9598H30.9457ZM34.9057 34.2399L32.9481 36.9791L30.9905 34.2399H34.9057ZM30.9457 24.6397H34.9505L32.9481 27.6477L30.9457 24.6397ZM30.9457 23.3597L32.9481 20.3516L34.9505 23.3597H30.9457ZM30.9457 15.0395H34.9505L32.9481 18.0476L30.9457 15.0395ZM30.3891 16.5115L32.1804 19.1996L30.3891 21.8876V16.5115ZM30.3891 26.1117L32.1804 28.7998L30.3891 31.4878V26.1117ZM30.3891 35.5967L32.1612 38.08L30.3891 40.5632V35.5967ZM30.9905 41.92L32.9481 39.1808L34.9057 41.92H30.9905ZM35.507 40.5632L33.735 38.08L35.507 35.5967V40.5632ZM35.507 31.4878L33.7158 28.7998L35.507 26.1117V31.4878ZM35.507 21.8876L33.7158 19.1996L35.507 16.5115V21.8876ZM40.8744 29.1198H36.7865V25.4397L40.8744 29.1198ZM36.7865 20.7996V16.0571L41.0983 20.7996H36.7865Z" fill="#3F5C6C"/>
<path d="M36.9883 23.8934L36.9992 23.903L36.9883 23.8934Z" fill="#3F5C6C"/>
<path d="M36.8633 23.7808L36.9343 23.8447L36.8633 23.7808Z" fill="#3F5C6C"/>
<path d="M36.999 23.9031L37.0163 23.9184L36.999 23.9031Z" fill="#3F5C6C"/>
<path d="M41.0984 20.7996H36.7866V16.0571L41.0984 20.7996Z" fill="#B0D3F0"/>
<path d="M40.8745 29.1199H36.7866V25.4398L40.8745 29.1199Z" fill="#B0D3F0"/>
<path d="M29.1094 25.4398V29.1199H25.0215L29.1094 25.4398Z" fill="#B0D3F0"/>
<path d="M29.1097 16.0571V20.7996H24.7979L29.1097 16.0571Z" fill="#B0D3F0"/>
<path d="M35.2382 13.7595H30.6577L32.948 7.34021L35.2382 13.7595Z" fill="#B0D3F0"/>
<path d="M35.5069 40.5633V35.5968L33.7349 38.0801L35.5069 40.5633Z" fill="#B0D3F0"/>
<path d="M30.9902 41.92H34.9054L32.9478 39.1808L30.9902 41.92Z" fill="#B0D3F0"/>
<path d="M30.3892 35.5968V40.5633L32.1612 38.0801L30.3892 35.5968Z" fill="#B0D3F0"/>
<path d="M34.9054 34.24H30.9902L32.9478 36.9792L34.9054 34.24Z" fill="#B0D3F0"/>
<path d="M35.5071 31.4879V26.1118L33.7158 28.7999L35.5071 31.4879Z" fill="#B0D3F0"/>
<path d="M32.9482 29.9519L30.9458 32.96H34.9506L32.9482 29.9519Z" fill="#B0D3F0"/>
<path d="M30.3892 26.1118V31.4879L32.1804 28.7999L30.3892 26.1118Z" fill="#B0D3F0"/>
<path d="M30.9458 24.6398L32.9482 27.6478L34.9506 24.6398H30.9458Z" fill="#B0D3F0"/>
<path d="M32.9482 20.3517L30.9458 23.3597H34.9506L32.9482 20.3517Z" fill="#B0D3F0"/>
<path d="M34.9506 15.0396H30.9458L32.9482 18.0476L34.9506 15.0396Z" fill="#B0D3F0"/>
<path d="M33.7158 19.1996L35.5071 21.8877V16.5116L33.7158 19.1996Z" fill="#B0D3F0"/>
<path d="M30.3892 16.5116V21.8877L32.1804 19.1996L30.3892 16.5116Z" fill="#B0D3F0"/>
<path d="M13.2352 35.5199V40.64H10.6763V31.475L13.2352 35.5199Z" fill="#547580"/>
<path d="M20.3939 36.1599H13.7471C13.6469 36.1608 13.548 36.1374 13.4589 36.0917C13.3697 36.046 13.293 35.9794 13.2353 35.8975C13.2228 35.8863 13.212 35.8734 13.2033 35.8591L11.2611 32.7678L10.6789 31.8526L10.1646 31.0398H18.3212L20.9313 35.1807C20.9916 35.2772 21.0251 35.388 21.0283 35.5018C21.0315 35.6156 21.0044 35.7281 20.9496 35.8279C20.8949 35.9277 20.8145 36.011 20.7168 36.0694C20.6192 36.1277 20.5077 36.159 20.3939 36.1599Z" fill="#2FA8CC"/>
<path d="M18.3211 31.0398H10.1644L7.3432 26.5597L5.53914 23.6988C5.47873 23.6021 5.44524 23.491 5.44213 23.3771C5.43903 23.2631 5.46642 23.1503 5.52147 23.0505C5.57652 22.9506 5.65724 22.8673 5.75528 22.8091C5.85331 22.751 5.9651 22.7201 6.07908 22.7196H12.7259C12.8347 22.7194 12.9416 22.7469 13.0368 22.7995C13.1319 22.8522 13.2121 22.9282 13.2697 23.0204L15.4998 26.5597L18.3211 31.0398Z" fill="#2FA8CC"/>
<path d="M18.3211 31.0398H10.1645L7.34326 26.5597H15.4999L18.3211 31.0398Z" fill="#67B9CC"/>
<path d="M10.0367 40H13.8751C14.0448 40 14.2075 40.0674 14.3275 40.1875C14.4475 40.3075 14.5149 40.4703 14.5149 40.64V42.5601H9.39697V40.64C9.39697 40.4703 9.46437 40.3075 9.58435 40.1875C9.70432 40.0674 9.86704 40 10.0367 40Z" fill="#3F5C6C"/>
<path d="M42.5443 43.1995H5.43954C5.26987 43.1995 5.10715 43.1321 4.98718 43.0121C4.86721 42.8922 4.7998 42.7294 4.7998 42.5598C4.7998 42.3901 4.86721 42.2274 4.98718 42.1074C5.10715 41.9874 5.26987 41.92 5.43954 41.92H42.5443C42.7139 41.92 42.8767 41.9874 42.9966 42.1074C43.1166 42.2274 43.184 42.3901 43.184 42.5598C43.184 42.7294 43.1166 42.8922 42.9966 43.0121C42.8767 43.1321 42.7139 43.1995 42.5443 43.1995Z" fill="#4C8056"/>
<path d="M10.5573 11.8395C11.2639 11.8395 11.8368 11.2664 11.8368 10.5594C11.8368 9.85251 11.2639 9.27942 10.5573 9.27942C9.85067 9.27942 9.27783 9.85251 9.27783 10.5594C9.27783 11.2664 9.85067 11.8395 10.5573 11.8395Z" fill="#547580"/>
</svg>
