<svg width="60" height="60" viewBox="0 0 60 60" fill="none" xmlns="http://www.w3.org/2000/svg">
<path fill-rule="evenodd" clip-rule="evenodd" d="M11.6949 35.6234V46.678H14.9492V38.771L11.6949 35.6234Z" fill="#285680"/>
<path fill-rule="evenodd" clip-rule="evenodd" d="M25.5173 35.6136V46.678H28.7715V38.771L25.5173 35.6136Z" fill="#285680"/>
<path fill-rule="evenodd" clip-rule="evenodd" d="M39.3478 35.6136V46.678H42.6021V38.771L39.3478 35.6136Z" fill="#285680"/>
<path fill-rule="evenodd" clip-rule="evenodd" d="M9.25424 48.3051V50.7457H17.3898V48.3051C17.3898 46.9571 16.2971 45.8644 14.9492 45.8644H11.6949C10.347 45.8644 9.25424 46.9571 9.25424 48.3051Z" fill="#3B97D3"/>
<path fill-rule="evenodd" clip-rule="evenodd" d="M6.29285 31.9688L11.6949 36.4352L14.9491 39.12L19.9362 43.2366C20.0999 43.3732 20.3114 43.4388 20.5237 43.419C20.736 43.3991 20.9315 43.2954 21.0671 43.1308L22.0922 41.8942C22.2286 41.7304 22.2941 41.519 22.2742 41.3068C22.2544 41.0946 22.1508 40.899 21.9864 40.7633L8.33488 29.4874C8.17108 29.351 7.9597 29.2855 7.74748 29.3054C7.53526 29.3252 7.3397 29.4288 7.20403 29.5932L6.18708 30.8379C6.0507 31.0017 5.98518 31.2131 6.00503 31.4253C6.02488 31.6375 6.12845 31.8331 6.29285 31.9688Z" fill="#3B97D3"/>
<path fill-rule="evenodd" clip-rule="evenodd" d="M23.0766 48.3051V50.7457H31.2122V48.3051C31.2122 46.9571 30.1195 45.8644 28.7715 45.8644H25.5173C24.1694 45.8644 23.0766 46.9571 23.0766 48.3051Z" fill="#3B97D3"/>
<path fill-rule="evenodd" clip-rule="evenodd" d="M20.1152 31.9688L25.5173 36.4271L28.7715 39.12L33.7668 43.2366C33.9306 43.373 34.1419 43.4385 34.3542 43.4187C34.5664 43.3988 34.7619 43.2952 34.8976 43.1308L35.9146 41.8942C36.0509 41.7304 36.1165 41.519 36.0966 41.3068C36.0768 41.0946 35.9732 40.899 35.8088 40.7634L22.1654 29.4875C22.0017 29.3509 21.7903 29.2852 21.578 29.3051C21.3657 29.3249 21.1701 29.4286 21.0346 29.5932L20.0095 30.838C19.8731 31.0018 19.8076 31.2131 19.8274 31.4254C19.8473 31.6376 19.9508 31.8331 20.1152 31.9688Z" fill="#3B97D3"/>
<path fill-rule="evenodd" clip-rule="evenodd" d="M36.9071 48.3051V50.7457H45.0427V48.3051C45.0427 46.9571 43.95 45.8644 42.602 45.8644H39.3478C38.7005 45.8644 38.0797 46.1215 37.622 46.5792C37.1643 47.037 36.9071 47.6577 36.9071 48.3051Z" fill="#3B97D3"/>
<path fill-rule="evenodd" clip-rule="evenodd" d="M33.9457 31.9688L39.3478 36.4271L42.602 39.12L47.5973 43.2366C47.7611 43.373 47.9724 43.4385 48.1847 43.4187C48.3969 43.3988 48.5924 43.2952 48.7281 43.1308L49.7451 41.8942C49.8815 41.7304 49.947 41.519 49.9271 41.3068C49.9073 41.0946 49.8037 40.899 49.6393 40.7634L35.9959 29.4875C35.8322 29.3509 35.6208 29.2852 35.4085 29.3051C35.1962 29.3249 35.0006 29.4286 34.8651 29.5932L33.84 30.838C33.7036 31.0018 33.6381 31.2131 33.6579 31.4254C33.6778 31.6376 33.7813 31.8331 33.9457 31.9688Z" fill="#3B97D3"/>
<path d="M42.6101 23.0848C39.4649 23.0848 36.9152 20.5351 36.9152 17.3899C36.9152 14.2446 39.4649 11.6949 42.6101 11.6949C45.7554 11.6949 48.3051 14.2446 48.3051 17.3899C48.3051 20.5351 45.7554 23.0848 42.6101 23.0848Z" fill="#FF9F00"/>
<path fill-rule="evenodd" clip-rule="evenodd" d="M42.6101 9.25424C43.0595 9.25424 43.4237 8.88999 43.4237 8.44068V6.81356C43.4237 6.36424 43.0595 6 42.6101 6C42.1608 6 41.7966 6.36424 41.7966 6.81356V8.44068C41.7966 8.88999 42.1608 9.25424 42.6101 9.25424Z" fill="#FF9F00"/>
<path fill-rule="evenodd" clip-rule="evenodd" d="M42.6101 28.7797C43.0595 28.7797 43.4237 28.4154 43.4237 27.9661V26.339C43.4237 25.8897 43.0595 25.5255 42.6101 25.5255C42.1608 25.5255 41.7966 25.8897 41.7966 26.339V27.9661C41.7966 28.4154 42.1608 28.7797 42.6101 28.7797Z" fill="#FF9F00"/>
<path fill-rule="evenodd" clip-rule="evenodd" d="M32.0339 18.2034H33.661C34.1103 18.2034 34.4745 17.8392 34.4745 17.3899C34.4745 16.9405 34.1103 16.5763 33.661 16.5763H32.0339C31.5846 16.5763 31.2203 16.9405 31.2203 17.3899C31.2203 17.8392 31.5846 18.2034 32.0339 18.2034Z" fill="#FF9F00"/>
<path fill-rule="evenodd" clip-rule="evenodd" d="M51.5593 18.2034H53.1864C53.6358 18.2034 54 17.8392 54 17.3899C54 16.9405 53.6358 16.5763 53.1864 16.5763H51.5593C51.11 16.5763 50.7458 16.9405 50.7458 17.3899C50.7458 17.8392 51.11 18.2034 51.5593 18.2034Z" fill="#FF9F00"/>
<path fill-rule="evenodd" clip-rule="evenodd" d="M51.7692 23.4915C52.1374 23.4915 52.4597 23.2442 52.555 22.8885C52.6503 22.5329 52.4949 22.1576 52.176 21.9734L50.7661 21.1599C50.5143 21.0122 50.2026 21.0108 49.9494 21.1563C49.6963 21.3017 49.5405 21.5716 49.5411 21.8635C49.5417 22.1554 49.6988 22.4247 49.9525 22.569L51.3624 23.3825C51.486 23.4542 51.6264 23.4918 51.7692 23.4915Z" fill="#FF9F00"/>
<path fill-rule="evenodd" clip-rule="evenodd" d="M34.8594 13.7288C35.2276 13.7288 35.5499 13.4815 35.6452 13.1258C35.7405 12.7702 35.585 12.3949 35.2662 12.2107L33.8563 11.3972C33.6044 11.2495 33.2927 11.2481 33.0396 11.3936C32.7864 11.539 32.6306 11.8089 32.6312 12.1008C32.6319 12.3928 32.7889 12.662 33.0427 12.8063L34.4526 13.6198C34.5762 13.6915 34.7165 13.7291 34.8594 13.7288Z" fill="#FF9F00"/>
<path fill-rule="evenodd" clip-rule="evenodd" d="M47.0848 10.4534C47.3757 10.4537 47.6446 10.2986 47.7901 10.0466L48.6037 8.63755C48.7513 8.3857 48.7527 8.07404 48.6073 7.82088C48.4619 7.56773 48.192 7.4119 47.9 7.41254C47.6081 7.41318 47.3389 7.5702 47.1946 7.82399L46.381 9.23307C46.2358 9.48466 46.2357 9.79461 46.3808 10.0463C46.526 10.2979 46.7943 10.4531 47.0848 10.4534Z" fill="#FF9F00"/>
<path fill-rule="evenodd" clip-rule="evenodd" d="M37.322 27.3624C37.613 27.3627 37.8819 27.2076 38.0274 26.9556L38.8409 25.5465C39.062 25.1578 38.9278 24.6635 38.5405 24.4399C38.1532 24.2163 37.658 24.3472 37.4318 24.733L36.6183 26.1421C36.473 26.3937 36.473 26.7036 36.6181 26.9553C36.7632 27.2069 37.0315 27.3621 37.322 27.3624Z" fill="#FF9F00"/>
<path fill-rule="evenodd" clip-rule="evenodd" d="M33.4511 23.4915C33.594 23.4918 33.7344 23.4542 33.8579 23.3825L35.2678 22.5689C35.6536 22.3428 35.7845 21.8476 35.5609 21.4603C35.3373 21.073 34.843 20.9388 34.4542 21.1599L33.0444 21.9734C32.7255 22.1575 32.57 22.5329 32.6653 22.8885C32.7606 23.2442 33.0829 23.4915 33.4511 23.4915Z" fill="#FF9F00"/>
<path fill-rule="evenodd" clip-rule="evenodd" d="M50.3609 13.7288C50.5038 13.7291 50.6441 13.6915 50.7677 13.6198L52.1776 12.8063C52.4314 12.662 52.5884 12.3928 52.589 12.1008C52.5897 11.8089 52.4339 11.539 52.1807 11.3936C51.9275 11.2481 51.6159 11.2495 51.364 11.3972L49.9541 12.2107C49.6353 12.3949 49.4798 12.7702 49.5751 13.1258C49.6704 13.4815 49.9927 13.7288 50.3609 13.7288Z" fill="#FF9F00"/>
<path fill-rule="evenodd" clip-rule="evenodd" d="M38.1356 10.4534C38.4261 10.4531 38.6945 10.2979 38.8396 10.0463C38.9847 9.79461 38.9846 9.48466 38.8394 9.23307L38.0258 7.82399C37.8815 7.5702 37.6123 7.41318 37.3204 7.41254C37.0284 7.4119 36.7585 7.56773 36.6131 7.82088C36.4677 8.07404 36.4691 8.3857 36.6167 8.63755L37.4303 10.0466C37.5758 10.2986 37.8447 10.4537 38.1356 10.4534Z" fill="#FF9F00"/>
<path fill-rule="evenodd" clip-rule="evenodd" d="M47.8983 27.3624C48.1888 27.3621 48.4571 27.2069 48.6023 26.9553C48.7474 26.7036 48.7473 26.3937 48.6021 26.1421L47.7885 24.733C47.5623 24.3472 47.0672 24.2163 46.6799 24.4399C46.2926 24.6635 46.1584 25.1578 46.3794 25.5465L47.193 26.9556C47.3384 27.2076 47.6074 27.3627 47.8983 27.3624Z" fill="#FF9F00"/>
<path d="M6.81352 49.9323H52.3728C52.8222 49.9323 53.1864 50.2965 53.1864 50.7458V53.1865C53.1864 53.6358 52.8222 54 52.3728 54H6.81352C6.3642 54 5.99996 53.6358 5.99996 53.1865V50.7458C5.99996 50.2965 6.3642 49.9323 6.81352 49.9323Z" fill="#4FBA6F"/>
</svg>
