<svg width="28" height="28" viewBox="0 0 28 28" fill="none" xmlns="http://www.w3.org/2000/svg">
<g clip-path="url(#clip0_317_3157)">
<path d="M13.8368 13.4877C15.6898 13.4877 17.2941 12.8232 18.6053 11.5119C19.9161 10.2009 20.5809 8.59683 20.5809 6.74365C20.5809 4.89111 19.9163 3.2868 18.6051 1.97537C17.2939 0.664581 15.6896 0 13.8368 0C11.9837 0 10.3796 0.664581 9.06857 1.97559C7.75756 3.28659 7.09277 4.8909 7.09277 6.74365C7.09277 8.59683 7.75756 10.2011 9.06857 11.5121C10.38 12.8229 11.9843 13.4877 13.8368 13.4877ZM10.229 3.13577C11.2349 2.12982 12.415 1.64084 13.8368 1.64084C15.2585 1.64084 16.4388 2.12982 17.4449 3.13577C18.4509 4.14194 18.9401 5.3222 18.9401 6.74365C18.9401 8.16553 18.4509 9.34558 17.4449 10.3517C16.4388 11.3579 15.2585 11.8469 13.8368 11.8469C12.4154 11.8469 11.2353 11.3577 10.229 10.3517C9.2228 9.34579 8.7336 8.16553 8.7336 6.74365C8.7336 5.3222 9.2228 4.14194 10.229 3.13577Z" fill="white"/>
<path d="M25.6369 21.5306C25.5991 20.985 25.5226 20.3899 25.4101 19.7614C25.2964 19.1282 25.1501 18.5296 24.9749 17.9825C24.7938 17.4171 24.5479 16.8587 24.2435 16.3235C23.9279 15.7681 23.5571 15.2845 23.141 14.8865C22.7058 14.4702 22.173 14.1354 21.5569 13.8912C20.943 13.6483 20.2626 13.5253 19.5348 13.5253C19.249 13.5253 18.9725 13.6426 18.4387 13.9901C18.1101 14.2044 17.7258 14.4522 17.2969 14.7263C16.9301 14.96 16.4332 15.179 15.8195 15.3772C15.2207 15.571 14.6127 15.6692 14.0124 15.6692C13.4126 15.6692 12.8046 15.571 12.2054 15.3772C11.5923 15.1792 11.0952 14.9602 10.729 14.7265C10.3041 14.455 9.91962 14.2072 9.58615 13.9899C9.05274 13.6424 8.77631 13.5251 8.49048 13.5251C7.76245 13.5251 7.08228 13.6483 6.46854 13.8914C5.85288 14.1352 5.31989 14.4699 4.88431 14.8867C4.46817 15.2849 4.09732 15.7683 3.78202 16.3235C3.47803 16.8587 3.23193 17.4169 3.05078 17.9828C2.87582 18.5298 2.72949 19.1282 2.61584 19.7614C2.50305 20.389 2.42679 20.9844 2.38898 21.5312C2.35181 22.0659 2.33301 22.6224 2.33301 23.1847C2.33301 24.6463 2.79764 25.8296 3.71387 26.7022C4.61878 27.5633 5.81592 28 7.27219 28H20.7544C22.2102 28 23.4073 27.5633 24.3125 26.7022C25.2289 25.8302 25.6935 24.6465 25.6935 23.1845C25.6933 22.6203 25.6743 22.0638 25.6369 21.5306ZM23.1811 25.5134C22.5832 26.0825 21.7894 26.3591 20.7541 26.3591H7.27219C6.23676 26.3591 5.44293 26.0825 4.84522 25.5136C4.25882 24.9554 3.97385 24.1934 3.97385 23.1847C3.97385 22.66 3.99115 22.142 4.02576 21.6447C4.05951 21.1568 4.12851 20.6208 4.23084 20.0513C4.33188 19.4888 4.46048 18.9609 4.61344 18.4831C4.7602 18.0248 4.96036 17.5711 5.20859 17.134C5.4455 16.7175 5.71808 16.3601 6.01886 16.0721C6.3002 15.8027 6.65482 15.5823 7.07266 15.4169C7.45911 15.264 7.8934 15.1802 8.36487 15.1676C8.42233 15.1982 8.52466 15.2565 8.69043 15.3646C9.02774 15.5844 9.41654 15.8352 9.84635 16.1097C10.3308 16.4186 10.955 16.6976 11.7008 16.9384C12.4632 17.1849 13.2408 17.3101 14.0126 17.3101C14.7844 17.3101 15.5622 17.1849 16.3242 16.9386C17.0706 16.6974 17.6946 16.4186 18.1798 16.1093C18.6196 15.8282 18.9975 15.5846 19.3348 15.3646C19.5006 15.2567 19.6029 15.1982 19.6604 15.1676C20.1321 15.1802 20.5664 15.264 20.953 15.4169C21.3707 15.5823 21.7253 15.8029 22.0066 16.0721C22.3074 16.3599 22.58 16.7173 22.8169 17.1342C23.0653 17.5711 23.2657 18.0251 23.4123 18.4828C23.5654 18.9614 23.6942 19.489 23.7951 20.0511C23.8972 20.6216 23.9664 21.1578 24.0001 21.6449V21.6453C24.035 22.1407 24.0525 22.6585 24.0527 23.1847C24.0525 24.1936 23.7675 24.9554 23.1811 25.5134Z" fill="white"/>
</g>
<defs>
<clipPath id="clip0_317_3157">
<rect width="28" height="28" fill="white"/>
</clipPath>
</defs>
</svg>
