<svg width="48" height="48" viewBox="0 0 48 48" fill="none" xmlns="http://www.w3.org/2000/svg">
<g clip-path="url(#clip0_317_3157)">
<path d="M23.7204 23.1218C26.8969 23.1218 29.6472 21.9826 31.8949 19.7347C34.142 17.4873 35.2817 14.7374 35.2817 11.5605C35.2817 8.38476 34.1424 5.63451 31.8946 3.38635C29.6468 1.13928 26.8966 0 23.7204 0C20.5436 0 17.7937 1.13928 15.5463 3.38673C13.2988 5.63415 12.1592 8.3844 12.1592 11.5605C12.1592 14.7374 13.2988 17.4876 15.5463 19.735C17.7944 21.9821 20.5447 23.1218 23.7204 23.1218ZM17.5355 5.37561C19.26 3.65112 21.283 2.81287 23.7204 2.81287C26.1576 2.81287 28.1809 3.65112 29.9057 5.37561C31.6303 7.10047 32.4689 9.12377 32.4689 11.5605C32.4689 13.9981 31.6303 16.021 29.9057 17.7458C28.1809 19.4707 26.1576 20.309 23.7204 20.309C21.2837 20.309 19.2607 19.4703 17.5355 17.7458C15.8107 16.0214 14.972 13.9981 14.972 11.5605C14.972 9.12377 15.8107 7.10047 17.5355 5.37561Z" fill="#EDEDEE"/>
<path d="M43.9495 36.9096C43.8847 35.9743 43.7536 34.9541 43.5607 33.8767C43.3658 32.7912 43.115 31.7651 42.8147 30.8272C42.5042 29.8579 42.0827 28.9007 41.5609 27.9832C41.0198 27.0311 40.3842 26.202 39.6709 25.5197C38.9248 24.8061 38.0114 24.2321 36.9553 23.8135C35.9029 23.3971 34.7365 23.1863 33.4888 23.1863C32.9989 23.1863 32.5249 23.3873 31.6098 23.9831C31.0465 24.3504 30.3877 24.7752 29.6524 25.2451C29.0236 25.6457 28.1718 26.0212 27.1197 26.3609C26.0932 26.6932 25.0509 26.8615 24.0218 26.8615C22.9936 26.8615 21.9513 26.6932 20.9241 26.3609C19.8731 26.0215 19.0209 25.6461 18.3932 25.2455C17.6648 24.78 17.0056 24.3552 16.434 23.9827C15.5195 23.387 15.0457 23.1859 14.5557 23.1859C13.3076 23.1859 12.1416 23.3971 11.0895 23.8139C10.0341 24.2318 9.12037 24.8056 8.37366 25.5201C7.66027 26.2027 7.02453 27.0314 6.48402 27.9832C5.96289 28.9007 5.54102 29.8576 5.23047 30.8277C4.93054 31.7654 4.67969 32.7912 4.48486 33.8767C4.2915 34.9526 4.16077 35.9733 4.09595 36.9107C4.03223 37.8273 4 38.7813 4 39.7452C4 42.2508 4.79651 44.2793 6.36719 45.7752C7.91846 47.2514 9.9707 48 12.4672 48H35.5795C38.0752 48 40.1274 47.2514 41.6791 45.7752C43.2501 44.2804 44.0466 42.2512 44.0466 39.7449C44.0462 38.7777 44.0137 37.8237 43.9495 36.9096ZM39.7396 43.7373C38.7146 44.7129 37.3538 45.1871 35.579 45.1871H12.4672C10.6921 45.1871 9.33129 44.7129 8.30665 43.7376C7.30139 42.7807 6.81287 41.4744 6.81287 39.7452C6.81287 38.8457 6.84253 37.9577 6.90186 37.1052C6.95971 36.2688 7.078 35.35 7.25342 34.3737C7.42663 33.4094 7.64709 32.5044 7.90931 31.6853C8.1609 30.8997 8.50403 30.1219 8.92957 29.3726C9.3357 28.6586 9.80298 28.0459 10.3186 27.5522C10.8009 27.0904 11.4088 26.7125 12.1251 26.429C12.7876 26.1669 13.5321 26.0232 14.3403 26.0016C14.4388 26.0541 14.6143 26.154 14.8984 26.3393C15.4767 26.7161 16.1432 27.1461 16.88 27.6167C17.7106 28.1462 18.7806 28.6245 20.0591 29.0373C21.3661 29.4599 22.6991 29.6745 24.0222 29.6745C25.3453 29.6745 26.6786 29.4599 27.9849 29.0376C29.2645 28.6241 30.3342 28.1462 31.1659 27.616C31.9199 27.1341 32.5677 26.7165 33.1459 26.3393C33.4302 26.1544 33.6055 26.0541 33.7041 26.0016C34.5127 26.0232 35.2573 26.1669 35.92 26.429C36.6361 26.7125 37.2439 27.0907 37.7262 27.5522C38.2418 28.0456 38.7091 28.6583 39.1153 29.3729C39.5411 30.1219 39.8846 30.9002 40.1359 31.6848C40.3984 32.5053 40.6192 33.4097 40.7922 34.3733C40.9672 35.3513 41.0858 36.2705 41.1436 37.1056V37.1063C41.2034 37.9555 41.2334 38.8432 41.2338 39.7452C41.2334 41.4748 40.7449 42.7807 39.7396 43.7373Z" fill="#EDEDEE"/>
</g>
<defs>
<clipPath id="clip0_317_3157">
<rect width="48" height="48" fill="white"/>
</clipPath>
</defs>
</svg>