<svg width="28" height="28" viewBox="0 0 28 28" fill="none" xmlns="http://www.w3.org/2000/svg">
<g clip-path="url(#clip0_74_1299)">
<path d="M26.8969 17.4364L26.006 17.394C25.8787 16.9273 25.709 16.503 25.4545 16.1212L26.0484 15.4424C26.2181 15.2727 26.1757 15.0182 26.0484 14.8485L24.6908 13.4909C24.5211 13.3212 24.2666 13.3212 24.0969 13.4909L23.4181 14.0849C23.0363 13.8727 22.612 13.6606 22.1454 13.5333L22.103 12.6424C22.103 12.4303 21.8908 12.2182 21.6787 12.2182H19.7696C19.5575 12.2182 19.3454 12.3879 19.3454 12.6424V13.5758C19.006 13.6606 18.6666 13.8303 18.3272 13.9576V4.36971C18.3272 3.4788 17.606 2.75759 16.7151 2.75759H14.3393V2.20607C14.3393 1.95153 14.1696 1.78183 13.9151 1.78183H11.2848C11.1151 0.97577 10.3939 0.424255 9.54538 0.424255C8.69689 0.424255 7.97568 0.97577 7.76356 1.78183H5.09083C4.83629 1.78183 4.66659 1.95153 4.66659 2.20607V2.80001H2.29083C1.39992 2.80001 0.678711 3.52123 0.678711 4.41213V26.0061C0.678711 26.897 1.39992 27.6182 2.29083 27.6182H16.7575C17.6484 27.6182 18.3696 26.897 18.3696 26.0061V23.6303C18.709 23.8 19.0484 23.9273 19.3878 24.0121L19.4302 24.903C19.4302 25.1152 19.6423 25.3273 19.8545 25.3273H21.7636C21.9757 25.3273 22.1878 25.1576 22.1878 24.903L22.2302 24.0121C22.6969 23.8849 23.1211 23.7152 23.503 23.4606L24.1817 24.0546C24.3514 24.2243 24.606 24.1818 24.7757 24.0546L26.1333 22.7394C26.303 22.5697 26.303 22.3152 26.1333 22.1455L25.4545 21.5091C25.6666 21.1273 25.8787 20.6606 26.006 20.2364L26.8969 20.194C27.109 20.194 27.3211 19.9818 27.3211 19.7697V17.8606C27.2787 17.6485 27.109 17.4364 26.8969 17.4364V17.4364ZM5.51507 2.63032H8.10295C8.31507 2.63032 8.5272 2.46062 8.5272 2.2485C8.56962 1.69698 8.99386 1.27274 9.54538 1.27274C10.0969 1.27274 10.5211 1.69698 10.5636 2.20607C10.5636 2.41819 10.7757 2.58789 10.9878 2.58789H13.5757C13.5757 2.75759 13.5757 4.62426 13.5757 4.58183H5.51507V2.63032ZM16.7575 26.7273H2.29083C1.86659 26.7273 1.5272 26.3879 1.5272 25.9637V4.36971C1.5272 3.94547 1.86659 3.60607 2.29083 3.60607H4.66659V5.00607C4.66659 5.26062 4.83629 5.43032 5.09083 5.43032H13.9575C14.212 5.43032 14.3817 5.26062 14.3817 5.00607V3.6485H16.7575C17.1817 3.6485 17.5211 3.98789 17.5211 4.41213V13.5758L17.4363 13.4909C17.2666 13.3212 17.012 13.3636 16.8423 13.5333C16.8423 13.5333 16.8423 13.5333 16.7999 13.5758L15.4848 14.8485C15.3151 15.0182 15.3151 15.2727 15.4848 15.4424L16.0787 16.1212C15.8666 16.503 15.6545 16.9697 15.5272 17.394L14.6363 17.4364C14.4242 17.4364 14.212 17.6485 14.212 17.8606V19.7697C14.212 19.9818 14.3817 20.194 14.6363 20.194L15.5272 20.2364C15.6545 20.703 15.8242 21.1273 16.0787 21.5091L15.4848 22.1879C15.3151 22.3576 15.3575 22.6121 15.4848 22.7818L16.7999 24.097C16.9696 24.2667 17.2242 24.2667 17.3939 24.097L17.4787 24.0121V25.9637C17.5211 26.3879 17.1817 26.7273 16.7575 26.7273V26.7273ZM26.4302 19.3455L25.6242 19.3879C25.412 19.3879 25.2848 19.5152 25.2423 19.7273C25.1151 20.2788 24.903 20.8303 24.5636 21.297C24.4363 21.4667 24.4787 21.6788 24.606 21.8061L25.1575 22.4L24.3939 23.1636L23.7999 22.6121C23.6727 22.4849 23.4605 22.4849 23.2908 22.5697C22.8242 22.9091 22.2727 23.1212 21.7211 23.2485C21.5514 23.2909 21.3817 23.4606 21.3817 23.6303L21.3393 24.4364H20.2787L20.2363 23.6303C20.2363 23.4182 20.109 23.2909 19.8969 23.2485C19.3454 23.1212 18.8363 22.9091 18.3696 22.6121C18.1999 22.4424 18.0302 22.4424 17.8181 22.6121C17.606 22.7818 17.7757 22.6546 17.7757 22.6546L17.7333 22.697C17.7333 22.697 17.7333 22.697 17.6908 22.7394C17.606 22.8243 17.5211 22.8667 17.4363 22.994L17.2242 23.1636L16.4605 22.4L17.012 21.8061C17.1393 21.6788 17.1393 21.4667 17.0545 21.297C16.7151 20.8303 16.503 20.2788 16.3757 19.7273C16.3333 19.5576 16.1636 19.3879 15.9939 19.3879L15.1878 19.3455V18.2424L15.9939 18.2C16.206 18.2 16.3333 18.0727 16.3757 17.8606C16.503 17.3091 16.7151 16.7576 17.0545 16.2909C17.1817 16.1212 17.1393 15.9091 17.012 15.7818L16.4605 15.1879L17.2242 14.4243L17.8181 14.9758C17.9454 15.103 18.1575 15.1455 18.3272 15.0182C18.7939 14.6788 19.3454 14.4667 19.8969 14.3394C20.0666 14.297 20.2363 14.1273 20.2363 13.9576L20.2787 13.1515H21.3393L21.3817 13.9576C21.3817 14.1697 21.509 14.297 21.7211 14.3394C22.3151 14.4667 22.8242 14.6788 23.2908 15.0182C23.4605 15.1455 23.6727 15.103 23.7999 14.9758L24.3939 14.4243L25.1575 15.1879L24.606 15.7818C24.4787 15.9091 24.4363 16.1212 24.5636 16.2909C24.903 16.7576 25.1151 17.3091 25.2423 17.8606C25.2848 18.0303 25.4545 18.2 25.6242 18.2L26.4302 18.2424V19.3455Z" fill="white"/>
<path d="M20.7882 15.5697C19.0063 15.5697 17.5215 17.0121 17.5215 18.8364C17.5215 20.6606 18.9639 22.0606 20.7882 22.0606C22.6124 22.0606 24.0548 20.6182 24.0548 18.7939C24.0548 16.9697 22.57 15.5697 20.7882 15.5697ZM20.7882 21.2121C19.473 21.2121 18.37 20.1515 18.37 18.7939C18.37 17.4788 19.4306 16.3758 20.7882 16.3758C22.1457 16.3758 23.2063 17.4364 23.2063 18.7939C23.1639 20.1091 22.1033 21.2121 20.7882 21.2121Z" fill="white"/>
<path d="M12.2603 3.18182H6.78752C6.53298 3.18182 6.36328 3.35152 6.36328 3.60607C6.36328 3.86061 6.53298 4.03031 6.78752 4.03031H12.2603C12.5148 4.03031 12.6845 3.86061 12.6845 3.60607C12.6845 3.39394 12.5148 3.18182 12.2603 3.18182Z" fill="white"/>
<path d="M6.78752 8.78183H15.9936C16.2481 8.78183 16.4178 8.61214 16.4178 8.35759C16.4178 8.10305 16.2481 7.93335 15.9936 7.93335H6.78752C6.53298 7.93335 6.36328 8.10305 6.36328 8.35759C6.36328 8.61214 6.5754 8.78183 6.78752 8.78183V8.78183Z" fill="white"/>
<path d="M6.78752 12.6848H15.9936C16.2481 12.6848 16.4178 12.5152 16.4178 12.2606C16.4178 12.0061 16.2481 11.8364 15.9936 11.8364H6.78752C6.53298 11.8364 6.36328 12.0061 6.36328 12.2606C6.36328 12.4727 6.5754 12.6848 6.78752 12.6848V12.6848Z" fill="white"/>
<path d="M13.7451 15.697H6.78752C6.53298 15.697 6.36328 15.8667 6.36328 16.1212C6.36328 16.3757 6.53298 16.5454 6.78752 16.5454H13.7451C13.9996 16.5454 14.1693 16.3757 14.1693 16.1212C14.1693 15.9091 13.9572 15.697 13.7451 15.697Z" fill="white"/>
<path d="M12.7269 19.6H6.78752C6.53298 19.6 6.36328 19.7697 6.36328 20.0243C6.36328 20.2788 6.53298 20.4485 6.78752 20.4485H12.7269C12.9815 20.4485 13.1512 20.2788 13.1512 20.0243C13.1512 19.7697 12.939 19.6 12.7269 19.6Z" fill="white"/>
<path d="M11.2845 23.4606H6.78752C6.53298 23.4606 6.36328 23.6303 6.36328 23.8849C6.36328 24.1394 6.53298 24.3091 6.78752 24.3091H11.2421C11.4966 24.3091 11.6663 24.1394 11.6663 23.8849C11.7087 23.6728 11.4966 23.4606 11.2845 23.4606Z" fill="white"/>
<path d="M5.21826 6.83029L3.81826 8.18786L3.43644 7.5515C3.30917 7.33938 3.05463 7.29696 2.8425 7.3818C2.63038 7.50908 2.58796 7.76362 2.67281 7.97574L3.30917 9.07877C3.52129 9.33332 3.81826 9.37574 4.03038 9.16362L5.8122 7.3818C5.9819 7.21211 5.9819 6.95756 5.8122 6.78787C5.6425 6.66059 5.38796 6.66059 5.21826 6.83029V6.83029Z" fill="white"/>
<path d="M5.21826 10.6485L3.81826 12.0061L3.43644 11.3697C3.30917 11.1576 3.05463 11.1152 2.8425 11.2C2.63038 11.3273 2.58796 11.5818 2.67281 11.794L3.30917 12.897C3.52129 13.1515 3.81826 13.194 4.03038 13.0243L5.8122 11.2425C5.9819 11.0728 5.9819 10.8182 5.8122 10.6485C5.6425 10.4788 5.38796 10.4788 5.21826 10.6485V10.6485Z" fill="white"/>
<path d="M5.21826 14.4667L3.81826 15.8667L3.43644 15.2303C3.30917 15.0182 3.05463 14.9758 2.8425 15.0606C2.63038 15.1879 2.58796 15.4424 2.67281 15.6546L3.30917 16.7576C3.43644 17.0121 3.77584 17.0546 3.98796 16.8424L5.76978 15.0606C5.93947 14.8909 5.93947 14.6364 5.76978 14.4667C5.6425 14.297 5.38796 14.297 5.21826 14.4667V14.4667Z" fill="white"/>
<path d="M5.21826 18.2848L3.81826 19.6848L3.43644 19.0485C3.30917 18.8364 3.05463 18.7939 2.8425 18.8788C2.63038 19.0061 2.58796 19.2606 2.67281 19.4727L3.30917 20.5758C3.43644 20.8303 3.77584 20.8727 3.98796 20.6606L5.76978 18.8788C5.93947 18.7091 5.93947 18.4545 5.76978 18.2848C5.6425 18.1576 5.38796 18.1576 5.21826 18.2848V18.2848Z" fill="white"/>
<path d="M5.21826 22.1455L3.81826 23.5031L3.43644 22.8667C3.30917 22.6546 3.05463 22.6121 2.8425 22.697C2.63038 22.8243 2.58796 23.0788 2.67281 23.2909L3.30917 24.394C3.43644 24.6485 3.77584 24.6909 3.98796 24.4788L5.76978 22.697C5.93947 22.5273 5.93947 22.2727 5.76978 22.1031C5.6425 21.9758 5.38796 21.9758 5.21826 22.1455V22.1455Z" fill="white"/>
</g>
<defs>
<clipPath id="clip0_74_1299">
<rect width="28" height="28" fill="white"/>
</clipPath>
</defs>
</svg>