<svg width="48" height="48" viewBox="0 0 48 48" fill="none" xmlns="http://www.w3.org/2000/svg">
<path d="M46.1086 29.891L44.5813 29.8183C44.3631 29.0182 44.0722 28.2909 43.6359 27.6363L44.654 26.4727C44.9449 26.1818 44.8722 25.7455 44.654 25.4546L42.3267 23.1273C42.0358 22.8363 41.5995 22.8363 41.3086 23.1273L40.1449 24.1455C39.4904 23.7818 38.763 23.4182 37.9631 23.1999L37.8904 21.6727C37.8904 21.3091 37.5267 20.9455 37.1631 20.9455H33.8903C33.5267 20.9455 33.1631 21.2364 33.1631 21.6727V23.2728C32.5813 23.4182 31.9995 23.7091 31.4176 23.9273V7.49093C31.4176 5.96366 30.1813 4.7273 28.654 4.7273H24.5812V3.78183C24.5812 3.34548 24.2903 3.05457 23.854 3.05457H19.345C19.054 1.67275 17.8177 0.727295 16.3631 0.727295C14.9085 0.727295 13.6722 1.67275 13.3085 3.05457H8.72672C8.29036 3.05457 7.99945 3.34548 7.99945 3.78183V4.80002H3.92672C2.39944 4.80002 1.16309 6.03639 1.16309 7.56365V44.5819C1.16309 46.1091 2.39944 47.3455 3.92672 47.3455H28.7267C30.254 47.3455 31.4903 46.1091 31.4903 44.5819V40.5091C32.0722 40.8 32.654 41.0182 33.2358 41.1636L33.3085 42.6909C33.3085 43.0546 33.6721 43.4182 34.0359 43.4182H37.3086C37.6722 43.4182 38.0358 43.1273 38.0358 42.6909L38.1085 41.1636C38.9086 40.9455 39.6358 40.6546 40.2904 40.2182L41.4539 41.2365C41.7448 41.5274 42.1813 41.4545 42.4722 41.2365L44.7995 38.9818C45.0904 38.6909 45.0904 38.2546 44.7995 37.9637L43.6359 36.8727C43.9995 36.2182 44.3631 35.4182 44.5813 34.691L46.1086 34.6183C46.4722 34.6183 46.8358 34.2545 46.8358 33.8909V30.6182C46.7631 30.2546 46.4722 29.891 46.1086 29.891ZM9.45399 4.50912H13.8904C14.254 4.50912 14.6176 4.21821 14.6176 3.85457C14.6904 2.90911 15.4176 2.18184 16.3631 2.18184C17.3086 2.18184 18.0358 2.90911 18.1086 3.78183C18.1086 4.14547 18.4722 4.43638 18.8358 4.43638H23.2722C23.2722 4.7273 23.2722 7.9273 23.2722 7.85457H9.45399V4.50912ZM28.7267 45.8182H3.92672C3.19945 45.8182 2.61764 45.2364 2.61764 44.5092V7.49093C2.61764 6.76366 3.19945 6.18184 3.92672 6.18184H7.99945V8.58184C7.99945 9.01821 8.29036 9.30912 8.72672 9.30912H23.9267C24.363 9.30912 24.6539 9.01821 24.6539 8.58184V6.25457H28.7267C29.4539 6.25457 30.0358 6.83638 30.0358 7.56365V23.2728L29.8904 23.1273C29.5995 22.8363 29.163 22.909 28.8721 23.1999C28.8721 23.1999 28.8721 23.1999 28.7994 23.2728L26.545 25.4546C26.254 25.7455 26.254 26.1818 26.545 26.4727L27.5631 27.6363C27.1995 28.2909 26.8359 29.0909 26.6176 29.8183L25.0904 29.891C24.7268 29.891 24.363 30.2546 24.363 30.6182V33.8909C24.363 34.2545 24.6539 34.6183 25.0904 34.6183L26.6176 34.691C26.8359 35.4909 27.1268 36.2182 27.5631 36.8727L26.545 38.0364C26.254 38.3273 26.3267 38.7636 26.545 39.0545L28.7994 41.3091C29.0903 41.6001 29.5268 41.6001 29.8177 41.3091L29.9631 41.1636V44.5092C30.0358 45.2364 29.4539 45.8182 28.7267 45.8182ZM45.3085 33.1637L43.9268 33.2364C43.563 33.2364 43.345 33.4546 43.2721 33.8182C43.054 34.7637 42.6904 35.7091 42.1086 36.5091C41.8904 36.8001 41.9631 37.1637 42.1813 37.3819L43.1267 38.4L41.8177 39.709L40.7994 38.7636C40.5814 38.5455 40.2176 38.5455 39.9267 38.6909C39.1268 39.2727 38.1814 39.6363 37.2358 39.8546C36.9448 39.9273 36.6539 40.2182 36.6539 40.5091L36.5812 41.891H34.7631L34.6904 40.5091C34.6904 40.1455 34.4722 39.9273 34.1086 39.8546C33.1631 39.6363 32.2904 39.2727 31.4903 38.7636C31.1994 38.4727 30.9085 38.4727 30.5449 38.7636C30.1813 39.0545 30.4722 38.8365 30.4722 38.8365L30.3995 38.9091C30.3995 38.9091 30.3995 38.9091 30.3267 38.9818C30.1813 39.1274 30.0358 39.2001 29.8904 39.4183L29.5268 39.709L28.2176 38.4L29.163 37.3819C29.3812 37.1637 29.3812 36.8001 29.2359 36.5091C28.654 35.7091 28.2904 34.7637 28.0722 33.8182C27.9995 33.5273 27.7086 33.2364 27.4177 33.2364L26.0358 33.1637V31.2727L27.4177 31.2C27.7813 31.2 27.9995 30.9818 28.0722 30.6182C28.2904 29.6727 28.654 28.7273 29.2359 27.9273C29.4539 27.6363 29.3812 27.2727 29.163 27.0545L28.2176 26.0364L29.5268 24.7274L30.5449 25.6728C30.7631 25.8909 31.1267 25.9637 31.4176 25.7455C32.2177 25.1637 33.1631 24.8001 34.1086 24.5818C34.3995 24.5091 34.6904 24.2182 34.6904 23.9273L34.7631 22.5454H36.5812L36.6539 23.9273C36.6539 24.2909 36.8722 24.5091 37.2358 24.5818C38.254 24.8001 39.1268 25.1637 39.9267 25.7455C40.2176 25.9637 40.5814 25.8909 40.7994 25.6728L41.8177 24.7274L43.1267 26.0364L42.1813 27.0545C41.9631 27.2727 41.8904 27.6363 42.1086 27.9273C42.6904 28.7273 43.054 29.6727 43.2721 30.6182C43.345 30.9091 43.6359 31.2 43.9268 31.2L45.3085 31.2727V33.1637Z" fill="#EDEDEE"/>
<path d="M35.6362 26.6909C32.5815 26.6909 30.0361 29.1636 30.0361 32.291C30.0361 35.4182 32.5088 37.8182 35.6362 37.8182C38.7634 37.8182 41.2361 35.3455 41.2361 32.2181C41.2361 29.0909 38.6907 26.6909 35.6362 26.6909ZM35.6362 36.3636C33.3816 36.3636 31.4907 34.5454 31.4907 32.2181C31.4907 29.9637 33.3089 28.0728 35.6362 28.0728C37.9633 28.0728 39.7815 29.891 39.7815 32.2181C39.7088 34.4727 37.8906 36.3636 35.6362 36.3636Z" fill="#EDEDEE"/>
<path d="M21.0174 5.45453H11.6355C11.1991 5.45453 10.9082 5.74544 10.9082 6.18181C10.9082 6.61817 11.1991 6.90908 11.6355 6.90908H21.0174C21.4537 6.90908 21.7446 6.61817 21.7446 6.18181C21.7446 5.81816 21.4537 5.45453 21.0174 5.45453Z" fill="#EDEDEE"/>
<path d="M11.6355 15.0546H27.4173C27.8536 15.0546 28.1445 14.7637 28.1445 14.3273C28.1445 13.891 27.8536 13.6 27.4173 13.6H11.6355C11.1991 13.6 10.9082 13.891 10.9082 14.3273C10.9082 14.7637 11.2718 15.0546 11.6355 15.0546Z" fill="#EDEDEE"/>
<path d="M11.6355 21.7454H27.4173C27.8536 21.7454 28.1445 21.4546 28.1445 21.0182C28.1445 20.5819 27.8536 20.291 27.4173 20.291H11.6355C11.1991 20.291 10.9082 20.5819 10.9082 21.0182C10.9082 21.3818 11.2718 21.7454 11.6355 21.7454Z" fill="#EDEDEE"/>
<path d="M23.5628 26.9091H11.6355C11.1991 26.9091 10.9082 27.2 10.9082 27.6363C10.9082 28.0726 11.1991 28.3635 11.6355 28.3635H23.5628C23.999 28.3635 24.29 28.0726 24.29 27.6363C24.29 27.2727 23.9264 26.9091 23.5628 26.9091Z" fill="#EDEDEE"/>
<path d="M21.8173 33.6H11.6355C11.1991 33.6 10.9082 33.8909 10.9082 34.3273C10.9082 34.7636 11.1991 35.0545 11.6355 35.0545H21.8173C22.2537 35.0545 22.5446 34.7636 22.5446 34.3273C22.5446 33.8909 22.1809 33.6 21.8173 33.6Z" fill="#EDEDEE"/>
<path d="M19.3446 40.2181H11.6355C11.1991 40.2181 10.9082 40.5091 10.9082 40.9455C10.9082 41.3818 11.1991 41.6727 11.6355 41.6727H19.2719C19.7082 41.6727 19.9991 41.3818 19.9991 40.9455C20.0718 40.5819 19.7082 40.2181 19.3446 40.2181Z" fill="#EDEDEE"/>
<path d="M8.94559 11.7091L6.54559 14.0364L5.89104 12.9454C5.67286 12.5818 5.23651 12.5091 4.87286 12.6545C4.50922 12.8727 4.4365 13.3091 4.58196 13.6727L5.67286 15.5636C6.0365 16 6.54559 16.0727 6.90922 15.7091L9.96377 12.6545C10.2547 12.3636 10.2547 11.9273 9.96377 11.6364C9.67286 11.4182 9.2365 11.4182 8.94559 11.7091Z" fill="#EDEDEE"/>
<path d="M8.94559 18.2546L6.54559 20.5819L5.89104 19.4909C5.67286 19.1273 5.23651 19.0546 4.87286 19.2C4.50922 19.4182 4.4365 19.8545 4.58196 20.2183L5.67286 22.1091C6.0365 22.5454 6.54559 22.6183 6.90922 22.3274L9.96377 19.2728C10.2547 18.9819 10.2547 18.5455 9.96377 18.2546C9.67286 17.9636 9.2365 17.9636 8.94559 18.2546Z" fill="#EDEDEE"/>
<path d="M8.94559 24.8L6.54559 27.2L5.89104 26.1091C5.67286 25.7455 5.23651 25.6728 4.87286 25.8181C4.50922 26.0364 4.4365 26.4727 4.58196 26.8364L5.67286 28.7273C5.89104 29.1636 6.47287 29.2364 6.8365 28.8727L9.89105 25.8181C10.1819 25.5272 10.1819 25.0909 9.89105 24.8C9.67286 24.5091 9.2365 24.5091 8.94559 24.8Z" fill="#EDEDEE"/>
<path d="M8.94559 31.3454L6.54559 33.7454L5.89104 32.6546C5.67286 32.291 5.23651 32.2181 4.87286 32.3637C4.50922 32.5819 4.4365 33.0182 4.58196 33.3818L5.67286 35.2728C5.89104 35.7091 6.47287 35.7818 6.8365 35.4182L9.89105 32.3637C10.1819 32.0727 10.1819 31.6363 9.89105 31.3454C9.67286 31.1273 9.2365 31.1273 8.94559 31.3454Z" fill="#EDEDEE"/>
<path d="M8.94559 37.9637L6.54559 40.291L5.89104 39.2001C5.67286 38.8365 5.23651 38.7636 4.87286 38.9092C4.50922 39.1274 4.4365 39.5637 4.58196 39.9273L5.67286 41.8183C5.89104 42.2546 6.47287 42.3273 6.8365 41.9637L9.89105 38.9092C10.1819 38.6182 10.1819 38.1818 9.89105 37.891C9.67286 37.6728 9.2365 37.6728 8.94559 37.9637Z" fill="#EDEDEE"/>
</svg>