<svg width="48" height="48" viewBox="0 0 48 48" fill="none" xmlns="http://www.w3.org/2000/svg">
<path d="M10.7578 13.4592H18.0903V16.5379H10.7578V13.4592Z" fill="#EDEDEE"/>
<path d="M10.7578 20.4598H18.0903V23.5385H10.7578V20.4598Z" fill="#EDEDEE"/>
<path d="M10.7578 27.4604H18.0903V30.5391H10.7578V27.4604Z" fill="#EDEDEE"/>
<path d="M10.7578 34.4613H18.0903V37.54H10.7578V34.4613Z" fill="#EDEDEE"/>
<path d="M25.5857 41.6393V16.4837L41.6616 16.465V33.4351H44.7384V14.9238C44.7384 14.084 44.0367 13.3845 43.1981 13.3845L24.0453 13.4068C23.1963 13.4078 22.5087 14.0967 22.5087 14.9462V41.6393H6.33847V11.1782L22.5087 6.82816V10.323H25.5857V4.82025C25.5857 3.82435 24.6101 3.07481 23.6477 3.33369L4.40052 8.51143C3.72862 8.69225 3.26153 9.30179 3.26153 9.99799V41.6393H0V44.718H48V41.6393H25.5857Z" fill="#EDEDEE"/>
<path d="M41.6621 36.2061H44.7391V39.0739H41.6621V36.2061Z" fill="#EDEDEE"/>
<path d="M29.9092 20.4598H37.2417V23.5385H29.9092V20.4598Z" fill="#EDEDEE"/>
<path d="M29.9092 27.4604H37.2417V30.5391H29.9092V27.4604Z" fill="#EDEDEE"/>
<path d="M29.9092 34.4613H37.2417V37.5398H29.9092V34.4613Z" fill="#EDEDEE"/>
</svg>