<svg width="60" height="60" viewBox="0 0 60 60" fill="none" xmlns="http://www.w3.org/2000/svg">
<path d="M46.875 2.8125H54.375V55.3125H46.875V2.8125Z" fill="#DFDFDF"/>
<path d="M31.875 18.75H39.375V55.3125H31.875V18.75Z" fill="#BEBEBE"/>
<path d="M31.875 20.625H39.375V26.25H31.875V20.625Z" fill="#E2662B"/>
<path d="M40.3504 11.7792C41.0723 11.4565 41.7009 10.9564 42.1775 10.3255C42.6542 9.69454 42.9635 8.95327 43.0766 8.17065C43.1898 7.38803 43.1031 6.58951 42.8247 5.8494C42.5462 5.10929 42.0851 4.45165 41.4841 3.93768C40.8832 3.42371 40.162 3.07013 39.3877 2.90983C38.6133 2.74953 37.811 2.78773 37.0554 3.02088C36.2998 3.25402 35.6155 3.67453 35.0661 4.24327C34.5167 4.81201 34.1201 5.5105 33.9132 6.27372C33.2909 5.6703 32.5375 5.21892 31.7118 4.95484C30.8862 4.69075 30.0106 4.6211 29.1536 4.75134C28.2966 4.88157 27.4813 5.20816 26.7714 5.7056C26.0614 6.20304 25.4761 6.85785 25.0611 7.61891C24.0888 5.87657 22.5859 4.48989 20.7711 3.6606C18.9564 2.83131 16.9243 2.60266 14.9706 3.00791C13.017 3.41316 11.2435 4.43117 9.90831 5.91386C8.57311 7.39655 7.74579 9.26657 7.5467 11.2519C7.42132 11.2507 7.29516 11.2527 7.1676 11.2615C5.95619 11.3476 4.82547 11.9005 4.0136 12.8037C3.20174 13.7069 2.77211 14.89 2.81521 16.1037C2.85831 17.3174 3.37077 18.467 4.24465 19.3104C5.11853 20.1538 6.28561 20.6251 7.50008 20.625H8.43758C9.92943 20.625 11.3602 21.2176 12.4151 22.2725C13.47 23.3274 14.0626 24.7582 14.0626 26.25H21.5626C21.5626 25.2554 21.9577 24.3016 22.6609 23.5984C23.3642 22.8951 24.318 22.5 25.3126 22.5H28.1251C29.0301 22.5 29.9157 22.238 30.6751 21.7456C31.4344 21.2532 32.035 20.5516 32.4042 19.7253C32.9165 20.2877 33.5375 20.7404 34.2298 21.0559C34.922 21.3715 35.671 21.5433 36.4316 21.561C37.1921 21.5788 37.9483 21.442 38.6545 21.1591C39.3607 20.8762 40.0021 20.453 40.5401 19.9151C41.078 19.3772 41.5012 18.7357 41.7841 18.0295C42.0671 17.3234 42.2038 16.5671 42.1861 15.8066C42.1683 15.046 41.9965 14.297 41.681 13.6048C41.3655 12.9125 40.9128 12.2915 40.3504 11.7792Z" fill="#6E6E6E"/>
<path d="M25.3125 26.25H10.3125C9.27697 26.25 8.4375 27.0895 8.4375 28.125C8.4375 29.1605 9.27697 30 10.3125 30H25.3125C26.348 30 27.1875 29.1605 27.1875 28.125C27.1875 27.0895 26.348 26.25 25.3125 26.25Z" fill="#7F7F7F"/>
<path d="M35.6251 49.6875L36.3015 53.7457C36.3745 54.1836 36.6004 54.5813 36.939 54.8682C37.2777 55.1551 37.7071 55.3125 38.151 55.3125H54.6618C55.1056 55.3125 55.535 55.1551 55.8737 54.8682C56.2124 54.5813 56.4383 54.1836 56.5112 53.7457L57.1876 49.6875H35.6251Z" fill="#0F3163"/>
<path d="M32.6174 54.9709L29.0183 48.6724C26.5899 44.4228 25.3126 39.613 25.3126 34.7185V30H10.3126V34.7185C10.3126 39.613 9.03531 44.4228 6.60695 48.6724L3.00782 54.9709C2.87907 55.1962 2.81176 55.4514 2.81263 55.7109C2.8135 55.9704 2.88251 56.2251 3.01277 56.4496C3.14302 56.674 3.32994 56.8603 3.55482 56.9898C3.77971 57.1193 4.03466 57.1875 4.29417 57.1875H31.3311C31.5906 57.1875 31.8455 57.1193 32.0704 56.9898C32.2953 56.8603 32.4822 56.674 32.6125 56.4496C32.7427 56.2251 32.8117 55.9704 32.8126 55.7109C32.8135 55.4514 32.7462 55.1962 32.6174 54.9709Z" fill="#DFDFDF"/>
<path d="M24.4989 51.0906L24.4699 51.0399C21.9524 46.63 20.6273 41.6404 20.6251 36.5625H22.5001C22.5022 41.3139 23.742 45.9828 26.0976 50.1092L26.1263 50.1594L24.4989 51.0906Z" fill="#BEBEBE"/>
<path d="M46.875 7.5H54.375V13.125H46.875V7.5Z" fill="#E2662B"/>
<path d="M42.1875 57.1875C43.223 57.1875 44.0625 56.348 44.0625 55.3125C44.0625 54.277 43.223 53.4375 42.1875 53.4375C41.152 53.4375 40.3125 54.277 40.3125 55.3125C40.3125 56.348 41.152 57.1875 42.1875 57.1875Z" fill="#575757"/>
<path d="M50.625 57.1875C51.6605 57.1875 52.5 56.348 52.5 55.3125C52.5 54.277 51.6605 53.4375 50.625 53.4375C49.5895 53.4375 48.75 54.277 48.75 55.3125C48.75 56.348 49.5895 57.1875 50.625 57.1875Z" fill="#575757"/>
<path d="M47.8125 42.1875L44.0625 43.125L43.125 49.6875H49.6875L50.625 45L47.8125 42.1875Z" fill="#575757"/>
<path d="M54.375 44.0625L50.625 45L49.6875 49.6875H56.25L57.1875 45.9375L54.375 44.0625Z" fill="#6E6E6E"/>
<path d="M44.0625 38.4375L42.1875 37.5H38.4375L36.5625 41.25L38.4375 44.0625L44.0625 43.125L47.8125 42.1875L44.0625 38.4375Z" fill="#8C8C8C"/>
<path d="M49.6875 35.625L45.9375 34.6875L44.0625 38.4375L49.6875 44.0625L51.5625 39.375L49.6875 35.625Z" fill="#6E6E6E"/>
<path d="M54.375 37.5L51.5625 39.375L49.6875 44.0625L50.625 45L54.375 44.0625L55.4122 44.7509L57.1875 40.3125L54.375 37.5Z" fill="#575757"/>
<path d="M21.4677 12.1875C21.2517 12.1876 21.0424 12.1129 20.8751 11.9763C20.7078 11.8397 20.5929 11.6494 20.5498 11.4378C20.3758 10.5913 19.9153 9.8307 19.246 9.28418C18.5766 8.73767 17.7392 8.43865 16.8751 8.43755C15.9546 8.43382 15.0655 8.7718 14.38 9.38604C14.2187 9.52878 14.0129 9.61125 13.7976 9.61943C13.5824 9.62762 13.3709 9.56102 13.1992 9.43095L13.1991 9.43082C13.0877 9.34647 12.9964 9.23837 12.932 9.11437C12.8675 8.99037 12.8315 8.85358 12.8265 8.71393C12.8215 8.57427 12.8477 8.43526 12.9031 8.30697C12.9585 8.17869 13.0418 8.06435 13.1469 7.97225C14.1734 7.0589 15.5011 6.55688 16.8751 6.56255C18.1737 6.56422 19.4318 7.01438 20.4367 7.83689C21.4416 8.6594 22.1316 9.80376 22.3899 11.0764C22.4159 11.212 22.4115 11.3516 22.3771 11.4853C22.3428 11.619 22.2792 11.7434 22.1911 11.8496C22.1029 11.9559 21.9923 12.0413 21.8673 12.0997C21.7422 12.1581 21.6058 12.1881 21.4677 12.1875Z" fill="#8C8C8C"/>
<path d="M17.8296 26.25H17.7956C17.5515 26.25 17.3174 26.153 17.1447 25.9804C16.9721 25.8078 16.8751 25.5736 16.8751 25.3295V23.4375C16.8765 22.3901 17.228 21.3731 17.8737 20.5484C18.5195 19.7237 19.4225 19.1386 20.439 18.8861C20.5738 18.8548 20.714 18.8544 20.849 18.885C20.984 18.9156 21.1103 18.9763 21.2184 19.0628C21.3265 19.1492 21.4137 19.2589 21.4733 19.3839C21.5329 19.5088 21.5634 19.6456 21.5626 19.784V19.8307C21.5605 20.035 21.4904 20.2328 21.3632 20.3928C21.2361 20.5527 21.0591 20.6657 20.8605 20.7137C20.2569 20.8702 19.7223 21.2225 19.3404 21.7154C18.9585 22.2083 18.7509 22.814 18.7501 23.4375V25.3295C18.7501 25.4504 18.7263 25.5701 18.6801 25.6818C18.6338 25.7935 18.566 25.8949 18.4805 25.9804C18.395 26.0659 18.2936 26.1337 18.1819 26.18C18.0702 26.2262 17.9505 26.25 17.8296 26.25Z" fill="#8C8C8C"/>
<path d="M12.1015 15.9375H12.0872C11.8732 15.9381 11.6657 15.8646 11.4999 15.7293C11.3341 15.5941 11.2203 15.4056 11.1779 15.1959C11.0321 14.4783 10.68 13.819 10.1648 13.2987C9.64954 12.7785 8.99364 12.42 8.27756 12.2672C8.05349 12.2199 7.85478 12.0915 7.71956 11.9067C7.58434 11.7219 7.52214 11.4936 7.54488 11.2658L7.54673 11.247C7.55932 11.1181 7.59876 10.9933 7.66251 10.8806C7.72626 10.768 7.8129 10.6699 7.91686 10.5927C8.02082 10.5155 8.13979 10.461 8.26611 10.4326C8.39243 10.4042 8.5233 10.4025 8.65029 10.4278C9.65781 10.6365 10.588 11.1198 11.338 11.8243C12.1963 12.6282 12.7825 13.6799 13.0146 14.8328C13.0408 14.9673 13.0369 15.106 13.003 15.2388C12.9692 15.3716 12.9064 15.4953 12.8191 15.6009C12.7318 15.7066 12.6221 15.7915 12.498 15.8497C12.374 15.908 12.2385 15.9379 12.1015 15.9375Z" fill="#8C8C8C"/>
<path d="M25.9804 9.32492L25.6062 9.44264C25.4271 9.49814 25.2337 9.48406 25.0646 9.4032C24.8955 9.32235 24.7631 9.18068 24.6939 9.00648L24.6903 8.99768C24.6245 8.83401 24.6201 8.65206 24.678 8.48542C24.7458 8.28798 24.8246 8.09449 24.9141 7.90588C24.9739 7.77731 25.0693 7.66855 25.189 7.59245C25.3087 7.51636 25.4476 7.4761 25.5894 7.47644C25.7313 7.47678 25.87 7.5177 25.9893 7.59437C26.1086 7.67104 26.2035 7.78025 26.2627 7.90911C26.3279 8.05296 26.39 8.19876 26.449 8.3465C26.4863 8.44122 26.5036 8.54261 26.5 8.64434C26.4963 8.74606 26.4717 8.84595 26.4278 8.93775C26.3838 9.02956 26.3214 9.11132 26.2444 9.17793C26.1675 9.24455 26.0776 9.29459 25.9804 9.32492Z" fill="#8C8C8C"/>
<path d="M35.5551 10.3125C35.3337 10.3143 35.1188 10.2376 34.9484 10.0962C34.778 9.95481 34.6631 9.75771 34.624 9.53976C34.5352 9.00571 34.1343 8.20585 33.9076 7.78397C33.7983 7.58417 33.7486 7.35718 33.7645 7.12997C33.7651 7.12233 33.7657 7.1147 33.7663 7.10707C33.8381 6.24224 34.9793 5.95546 35.4612 6.67711C35.9741 7.44391 36.3185 8.31074 36.4717 9.22041C36.4949 9.35419 36.4886 9.49142 36.4533 9.62252C36.418 9.75361 36.3544 9.87541 36.2671 9.97941C36.1798 10.0834 36.0709 10.1671 35.9479 10.2246C35.8249 10.2822 35.6909 10.3122 35.5551 10.3125Z" fill="#8C8C8C"/>
<path d="M39.7417 12.9724C39.6223 13.0008 39.5015 13.0254 39.3793 13.0462C39.2629 13.0649 39.1438 13.058 39.0303 13.0261C38.9168 12.9942 38.8116 12.938 38.722 12.8613C38.6324 12.7847 38.5605 12.6895 38.5114 12.5823C38.4623 12.4751 38.4371 12.3586 38.4375 12.2407V11.992C38.4392 11.799 38.5087 11.6126 38.6338 11.4656C38.759 11.3185 38.9318 11.2202 39.1221 11.1876L39.1321 11.1857C39.2393 11.1637 39.3498 11.1632 39.4572 11.1842C39.5646 11.2053 39.6667 11.2474 39.7577 11.3082C39.8635 11.3814 39.9667 11.4581 40.0672 11.5382C40.187 11.634 40.2775 11.7617 40.3282 11.9065C40.3789 12.0514 40.3878 12.2076 40.3538 12.3573C40.3199 12.5069 40.2445 12.644 40.1362 12.7528C40.028 12.8616 39.8912 12.9377 39.7417 12.9724Z" fill="#8C8C8C"/>
<path d="M33.736 17.4153C33.654 16.2561 33.2149 15.1507 32.4791 14.2512C31.7434 13.3516 30.747 12.7021 29.6271 12.3918C28.5072 12.0815 27.3186 12.1257 26.2249 12.5183C25.1311 12.9109 24.1858 13.6327 23.5188 14.5844C23.44 14.6982 23.3873 14.828 23.3647 14.9646C23.3421 15.1012 23.3501 15.241 23.3881 15.3742C23.4261 15.5073 23.4931 15.6303 23.5844 15.7344C23.6757 15.8384 23.7889 15.921 23.9159 15.976V15.976C24.1138 16.0622 24.3353 16.0775 24.5431 16.0193C24.751 15.961 24.9323 15.8328 25.0565 15.6563C25.5016 15.0229 26.1317 14.5428 26.8605 14.2819C27.5893 14.0209 28.381 13.9918 29.127 14.1986C29.8729 14.4054 30.5366 14.838 31.027 15.437C31.5173 16.036 31.8103 16.7721 31.8657 17.5442C31.888 17.8617 31.8707 18.1809 31.8142 18.4942C31.7929 18.6115 31.795 18.7319 31.8205 18.8485C31.846 18.965 31.8943 19.0753 31.9626 19.1731C31.9695 19.1829 31.9764 19.1927 31.9834 19.2025C32.0914 19.3506 32.2405 19.4638 32.4122 19.5281C32.5839 19.5923 32.7707 19.6048 32.9494 19.5639C33.1282 19.5229 33.291 19.4305 33.4176 19.2979C33.5443 19.1654 33.6293 18.9986 33.6621 18.8182C33.7442 18.3553 33.769 17.8842 33.736 17.4153Z" fill="#8C8C8C"/>
<path d="M39.375 43.125L36.5625 45.9375L37.5 49.6875H43.125L44.0625 43.125H39.375Z" fill="#6E6E6E"/>
</svg>
