<svg width="60" height="60" viewBox="0 0 60 60" fill="none" xmlns="http://www.w3.org/2000/svg">
<g clip-path="url(#clip0_454_772)">
<path d="M40.5823 8.65972H19.4498V2.27254C19.4499 1.01737 20.4673 0 21.7224 0H38.3098C39.5648 0 40.5823 1.01737 40.5823 2.27254V8.65972Z" fill="#F3EAE6"/>
<path d="M26.3906 2.09964V0H21.7224C20.4673 0 19.4498 1.01737 19.4498 2.27254V8.65972H40.5823V5.21329H29.5043C27.7846 5.21329 26.3906 3.81931 26.3906 2.09964Z" fill="#EFE2DD"/>
<path d="M40.4191 7.33533H19.6475C19.5152 7.33533 19.384 7.36398 19.2644 7.42057C10.7917 11.4267 4.93433 20.0116 4.93433 29.9575C4.93433 43.7344 16.1715 54.9029 30.0334 54.9029C43.8952 54.9029 55.1324 43.7344 55.1324 29.9575C55.1324 20.0116 49.275 11.4267 40.8023 7.42057C40.6825 7.36398 40.5514 7.33533 40.4191 7.33533Z" fill="#F9F3F1"/>
<path d="M11.8663 29.9575C11.8663 20.0116 17.7237 11.4267 26.1964 7.42057C26.316 7.36398 26.4471 7.33533 26.5795 7.33533H19.6475C19.5152 7.33533 19.384 7.36398 19.2644 7.42057C10.7917 11.4267 4.93433 20.0116 4.93433 29.9575C4.93433 43.7344 16.1715 54.9029 30.0334 54.9029C31.2095 54.9029 32.3662 54.8207 33.4994 54.665C21.278 52.9869 11.8663 42.5655 11.8663 29.9575Z" fill="#F3EAE6"/>
<path d="M55.6705 43.902H4.44999C3.9513 43.902 3.547 43.4977 3.547 42.999C3.547 42.5003 3.9513 42.096 4.44999 42.096H55.6705C56.1692 42.096 56.5735 42.5003 56.5735 42.999C56.5735 43.4977 56.1692 43.902 55.6705 43.902Z" fill="#B9ACAC"/>
<path d="M55.6705 57.2691H4.44999C3.9513 57.2691 3.547 56.8648 3.547 56.3661C3.547 55.8674 3.9513 55.4631 4.44999 55.4631H55.6705C56.1692 55.4631 56.5735 55.8674 56.5735 56.3661C56.5735 56.8648 56.1692 57.2691 55.6705 57.2691Z" fill="#B9ACAC"/>
<path d="M55.6705 50.5856H4.44999C3.9513 50.5856 3.547 50.1813 3.547 49.6826C3.547 49.1839 3.9513 48.7796 4.44999 48.7796H55.6705C56.1692 48.7796 56.5735 49.1839 56.5735 49.6826C56.5735 50.1813 56.1692 50.5856 55.6705 50.5856Z" fill="#B9ACAC"/>
<path d="M54.4665 34.7662H49.946V56.7737L48.9529 59.4348C48.8508 59.7085 49.0532 60 49.3453 60H55.0674C55.3595 60 55.5619 59.7085 55.4598 59.4348L54.4667 56.7737V34.7662H54.4665Z" fill="#E1D3CE"/>
<path d="M32.2603 35.3682H27.7398V56.7736L26.8037 59.282C26.6739 59.6298 26.9311 60.0001 27.3022 60.0001H32.6979C33.0689 60.0001 33.326 59.6298 33.1963 59.282L32.2602 56.7736V35.3682H32.2603Z" fill="#E1D3CE"/>
<path d="M5.65403 35.7294H10.1745V56.7737L11.1692 59.4389C11.2705 59.7106 11.0697 60 10.7797 60H5.04891C4.75898 60 4.55804 59.7106 4.65942 59.4389L5.65403 56.7737V35.7294Z" fill="#E1D3CE"/>
<path d="M22.3477 7.75671C21.849 7.75671 21.4447 8.16101 21.4447 8.65971V14.4217H14.8018V10.8023C14.8018 10.3036 14.3975 9.89934 13.8988 9.89934C13.4002 9.89934 12.9958 10.3036 12.9958 10.8023V32.1538C12.9958 32.6525 13.4002 33.0568 13.8988 33.0568C14.3975 33.0568 14.8018 32.6525 14.8018 32.1538V28.411H21.4447V32.1538C21.4447 32.6525 21.849 33.0568 22.3477 33.0568C22.8464 33.0568 23.2507 32.6525 23.2507 32.1538V8.65971C23.2507 8.16101 22.8464 7.75671 22.3477 7.75671ZM21.4447 16.2276V20.5133H14.8018V16.2276H21.4447ZM14.8018 26.605V22.3194H21.4447V26.605H14.8018Z" fill="#E1D3CE"/>
<path d="M40.6707 19.5301C40.172 19.5301 39.7677 19.9344 39.7677 20.4331V22.3187H37.4584V20.4331C37.4584 19.9344 37.0541 19.5301 36.5554 19.5301C36.0567 19.5301 35.6524 19.9344 35.6524 20.4331V23.1529C35.6507 23.1757 35.6489 23.1984 35.6489 23.2217C35.6489 23.2449 35.6507 23.2676 35.6524 23.2904V26.0101C35.6524 26.5088 36.0567 26.9131 36.5554 26.9131C37.0541 26.9131 37.4584 26.5088 37.4584 26.0101V24.1246H39.7677V26.0101C39.7677 26.5088 40.172 26.9131 40.6707 26.9131C41.1694 26.9131 41.5737 26.5088 41.5737 26.0101V20.4331C41.5737 19.9344 41.1694 19.5301 40.6707 19.5301Z" fill="#99E6FC"/>
<path d="M47.7235 25.107H46.2322L47.2688 24.0704C48.2236 23.1156 48.2236 21.5621 47.2688 20.6073C46.3141 19.6525 44.7606 19.6525 43.8057 20.6073L43.18 21.2331C42.8273 21.5858 42.8274 22.1576 43.18 22.5102C43.5327 22.8629 44.1044 22.8627 44.457 22.5102L45.0828 21.8845C45.3334 21.6338 45.7412 21.6338 45.9918 21.8845C46.1131 22.0059 46.18 22.1673 46.18 22.339C46.18 22.5107 46.1131 22.6722 45.9918 22.7935L43.7796 25.0057C43.4588 25.3265 43.3638 25.8043 43.5373 26.2235C43.7108 26.6426 44.1161 26.9132 44.5696 26.9132H47.7234C48.222 26.9132 48.6263 26.5089 48.6263 26.0102C48.6263 25.5115 48.2222 25.107 47.7235 25.107Z" fill="#99E6FC"/>
<path d="M55.7923 37.1742H4.2077C3.62689 37.1742 3.15613 36.7035 3.15613 36.1226V33.2053C3.15613 32.6244 3.62689 32.1537 4.2077 32.1537H55.7923C56.3731 32.1537 56.8438 32.6244 56.8438 33.2053V36.1226C56.8438 36.7035 56.3731 37.1742 55.7923 37.1742Z" fill="#B9ACAC"/>
</g>
<defs>
<clipPath id="clip0_454_772">
<rect width="60" height="60" fill="white"/>
</clipPath>
</defs>
</svg>
