<svg width="60" height="60" viewBox="0 0 60 60" fill="none" xmlns="http://www.w3.org/2000/svg">
<g clip-path="url(#clip0_412_3034)">
<path d="M33.5665 25.9875C33.5619 25.9752 33.5567 25.9635 33.5507 25.9519L20.1764 0.174141C20.1209 0.0672656 20.0106 0 19.89 0C19.7694 0 19.6592 0.0672656 19.6036 0.174141L6.22936 25.9519C6.22327 25.9635 6.21799 25.9753 6.21354 25.9875C4.80401 29.7615 4.94827 33.8583 6.62006 37.5231C8.29174 41.1881 11.2908 43.9825 15.0647 45.3918C16.6104 45.969 18.2304 46.2873 19.8802 46.3375C19.8835 46.3376 19.8867 46.3376 19.89 46.3376C19.8933 46.3376 19.8966 46.3376 19.8999 46.3375C21.5495 46.2871 23.1696 45.9689 24.7151 45.3918C28.4889 43.9825 31.4881 41.188 33.1599 37.5231C34.8315 33.8583 34.976 29.7615 33.5665 25.9875Z" fill="#6AA9FF"/>
<path d="M20.9213 43.7513C17.7154 40.5921 15.9317 36.3733 15.8985 31.8719C15.8984 31.8574 15.8992 31.8428 15.901 31.8284L19.4955 0.382751L6.22936 25.9519C6.22327 25.9635 6.21799 25.9753 6.21354 25.9875C4.80401 29.7615 4.94827 33.8583 6.62006 37.5231C8.29174 41.1881 11.2908 43.9825 15.0647 45.3918C16.6104 45.969 18.2304 46.2873 19.8802 46.3375C19.8835 46.3376 19.8867 46.3376 19.89 46.3376C19.8933 46.3376 19.8966 46.3376 19.8999 46.3375C21.1026 46.3008 22.2892 46.12 23.443 45.8019C22.5483 45.2069 21.7039 44.5221 20.9213 43.7513Z" fill="#6E76E5"/>
<path d="M54.2676 32.9039C54.2631 32.8917 54.2578 32.8798 54.2518 32.8682L47.6573 20.158C47.6018 20.0511 47.4915 19.9838 47.3709 19.9838C47.2503 19.9838 47.1401 20.051 47.0845 20.158L40.49 32.8682C40.4839 32.8798 40.4787 32.8917 40.4742 32.9039C39.7639 34.8056 39.8367 36.87 40.6792 38.7166C41.5214 40.5634 43.0326 41.9715 44.9346 42.6818C45.7134 42.9725 46.5299 43.1328 47.3611 43.1582C47.3644 43.1584 47.3676 43.1584 47.3709 43.1584C47.3742 43.1584 47.3775 43.1584 47.3808 43.1582C48.2117 43.1328 49.0282 42.9725 49.8071 42.6818C53.7323 41.2159 55.7334 36.8294 54.2676 32.9039Z" fill="#6AA9FF"/>
<path d="M54.2676 32.9039C54.263 32.8917 54.2577 32.8798 54.2518 32.8682L47.6573 20.158C47.6017 20.0511 47.4915 19.9838 47.3709 19.9838C47.3703 19.9838 47.3696 19.9841 47.3689 19.9841L44.7729 35.0803C44.7705 35.0944 44.769 35.1087 44.7684 35.123C44.6584 37.3576 45.4251 39.5007 46.9272 41.1581C47.5708 41.8682 48.317 42.4516 49.135 42.8967C49.3617 42.8353 49.5859 42.7645 49.8071 42.6819C53.7323 41.2159 55.7334 36.8294 54.2676 32.9039Z" fill="#AED0FF"/>
<path d="M41.1222 52.9857L36.7283 44.5164C36.6727 44.4095 36.5625 44.3423 36.4419 44.3423C36.3213 44.3423 36.211 44.4095 36.1555 44.5164L31.7609 52.9857C31.7548 52.9973 31.7496 53.0094 31.7451 53.0214C30.7477 55.6928 32.1093 58.6778 34.7807 59.6757C35.3108 59.8733 35.8664 59.9825 36.4319 59.9999C36.4353 60.0001 36.4386 60.0001 36.4419 60.0001C36.4451 60.0001 36.4484 60.0001 36.4518 59.9999C37.0169 59.9825 37.5724 59.8735 38.1029 59.6756C40.7742 58.6779 42.1358 55.6928 41.1382 53.0213C41.1336 53.009 41.1282 52.9972 41.1222 52.9857Z" fill="#6AA9FF"/>
<path d="M41.1381 53.0213C41.1335 53.009 41.1282 52.9972 41.1222 52.9857L36.7283 44.5164C36.6727 44.4095 36.5625 44.3423 36.4419 44.3423C36.4076 44.3423 36.3746 44.349 36.343 44.3593L34.539 54.9725C34.5364 54.9868 34.535 55.0017 34.5342 55.0163C34.4397 57.0242 35.3756 58.8462 36.8745 59.9696C37.2936 59.9224 37.7054 59.8239 38.1029 59.6757C40.7742 58.6778 42.1358 55.6927 41.1381 53.0213Z" fill="#AED0FF"/>
</g>
<defs>
<clipPath id="clip0_412_3034">
<rect width="60" height="60" fill="white"/>
</clipPath>
</defs>
</svg>
