<svg width="60" height="60" viewBox="0 0 60 60" fill="none" xmlns="http://www.w3.org/2000/svg">
<g clip-path="url(#clip0_1_285)">
<path d="M50.8157 24.0723C49.2039 14.9386 41.2289 8 31.6329 8C24.8626 8 18.9 11.4543 15.4088 16.6961C15.3173 16.6945 15.2259 16.6926 15.1341 16.6926C6.77578 16.6926 0 23.4684 0 31.8268C0 40.1851 6.77578 46.9609 15.1341 46.9609C17.9432 46.9609 45.7062 46.9609 48.4322 46.9609C54.8209 46.9609 60 41.7818 60 35.393C60 29.8215 56.0607 25.1711 50.8157 24.0723Z" fill="#9C9DA0"/>
<path d="M50.8156 24.0723C49.2038 14.9386 41.2289 8 31.6328 8C30.5382 8 29.4651 8.09164 28.4197 8.2652C36.5376 9.61379 42.9591 15.9812 44.3868 24.0721C49.6319 25.171 53.5712 29.8214 53.5712 35.3929C53.5712 41.7816 48.3921 46.9607 42.0033 46.9607C45.2702 46.9607 47.7158 46.9607 48.4321 46.9607C54.8208 46.9607 60 41.7816 60 35.3929C60 29.8215 56.0607 25.1711 50.8156 24.0723Z" fill="#909091"/>
<path d="M19.1944 24.091C17.764 24.091 16.9528 24.8808 16.9528 26.5459V32.5022C16.9528 34.1674 17.7641 34.9573 19.2372 34.9573C21.1799 34.9573 21.3507 33.5696 21.4148 32.673C21.4574 32.0112 22.0552 31.7977 22.781 31.7977C23.7417 31.7977 24.19 32.0752 24.19 33.164C24.19 35.7471 22.0765 37.3909 19.0876 37.3909C16.3977 37.3909 14.1775 36.0673 14.1775 32.5021V26.5458C14.1775 22.9806 16.4191 21.657 19.1091 21.657C22.0765 21.657 24.19 23.2368 24.19 25.7132C24.19 26.8234 23.7416 27.0795 22.8024 27.0795C22.0124 27.0795 21.4361 26.8446 21.4148 26.2042C21.372 25.5427 21.2226 24.091 19.1944 24.091Z" fill="white"/>
<path d="M26.5381 32.5023V26.5461C26.5381 22.9809 28.7157 21.6572 31.5337 21.6572C34.3517 21.6572 36.5506 22.9809 36.5506 26.5461V32.5023C36.5506 36.0675 34.3517 37.3912 31.5337 37.3912C28.7157 37.3911 26.5381 36.0674 26.5381 32.5023ZM33.7752 26.5459C33.7752 24.8594 32.9213 24.091 31.5337 24.091C30.1247 24.091 29.3134 24.8595 29.3134 26.5459V32.5022C29.3134 34.1888 30.1247 34.9573 31.5337 34.9573C32.9213 34.9573 33.7752 34.1887 33.7752 32.5022V26.5459Z" fill="white"/>
<path d="M42.1875 28.7681C44.1481 28.7681 45.9735 30.0527 45.9735 32.1991C45.9735 35.8497 40.6157 37.0329 40.6157 38.7906V39.1963H45.3143C45.6863 39.1963 46.0074 39.6357 46.0074 40.1428C46.0074 40.6498 45.6863 41.123 45.3143 41.123H39.2974C38.9087 41.123 38.334 40.8526 38.334 40.4301V38.7906C38.334 36.0864 43.7762 34.6498 43.7762 32.2667C43.7762 31.5738 43.3198 30.7625 42.2044 30.7625C41.3762 30.7625 40.7002 31.2018 40.7002 32.2497C40.7002 32.6554 40.2777 33.061 39.5508 33.061C38.9762 33.061 38.5537 32.7905 38.5537 31.8779C38.5538 29.9513 40.3115 28.7681 42.1875 28.7681Z" fill="white"/>
</g>
<defs>
<clipPath id="clip0_1_285">
<rect width="60" height="60" fill="white"/>
</clipPath>
</defs>
</svg>
