<svg width="120" height="120" viewBox="0 0 120 120" fill="none" xmlns="http://www.w3.org/2000/svg">
<path fill-rule="evenodd" clip-rule="evenodd" d="M120 68.1962V116.474C120 117.141 119.465 117.683 118.8 117.683H108.84C108.18 117.683 107.64 117.141 107.64 116.474V73.1862H79.8462V60.6951H112.578C116.677 60.6951 120 64.0541 120 68.1962Z" fill="#A49CA7"/>
<path fill-rule="evenodd" clip-rule="evenodd" d="M79.8462 60.6951H102.923V73.2047H79.8462V60.6951Z" fill="#766D78"/>
<path fill-rule="evenodd" clip-rule="evenodd" d="M17.0769 82.0077H87.6923V96.3706H17.0769V82.0077Z" fill="#766D78"/>
<path fill-rule="evenodd" clip-rule="evenodd" d="M17.0769 82.0077H25.8461V96.3706H17.0769V82.0077Z" fill="#655E67"/>
<path fill-rule="evenodd" clip-rule="evenodd" d="M30.1523 0H1.20928C0.540054 0 0 0.537436 0 1.19998V11.5367C0 12.1992 0.540054 12.7367 1.20928 12.7367H25.0569V41.2355H37.8462V7.66334C37.8462 3.42859 34.4031 0 30.1523 0Z" fill="#A49CA7"/>
<path fill-rule="evenodd" clip-rule="evenodd" d="M40.0386 37.0657H23.1925C22.1079 37.0657 21.231 37.9275 21.231 38.9885V45.8688H42.0002V38.9885C42.0002 37.9275 41.1233 37.0657 40.0386 37.0657Z" fill="#766D78"/>
<path fill-rule="evenodd" clip-rule="evenodd" d="M39.6187 19.9229H23.6125C22.2971 19.9229 21.231 21.0302 21.231 22.3923V26.2565C21.231 27.6186 22.2971 28.7259 23.6125 28.7259H39.6187C40.9341 28.7259 42.0002 27.6186 42.0002 26.2565V22.3923C42.0002 21.0302 40.9341 19.9229 39.6187 19.9229Z" fill="#766D78"/>
<path fill-rule="evenodd" clip-rule="evenodd" d="M9.69231 12.5097H1.20928C0.54467 12.5097 0 11.9814 0 11.3282V1.18149C0 0.528208 0.54467 0 1.20928 0H9.69231C9.02308 0 8.48302 0.528208 8.48302 1.18149V11.3282C8.48302 11.9814 9.02308 12.5097 9.69231 12.5097Z" fill="#8E8391"/>
<path fill-rule="evenodd" clip-rule="evenodd" d="M31.3848 37.0657C30.3187 37.0657 29.451 37.9275 29.451 38.9885V45.8688H21.231V38.9885C21.231 37.9275 22.0986 37.0657 23.1648 37.0657H31.3848Z" fill="#655E67"/>
<path fill-rule="evenodd" clip-rule="evenodd" d="M31.8463 28.7259H23.5895C22.2833 28.7259 21.231 27.6186 21.231 26.2565V22.3923C21.231 21.0302 22.2833 19.9229 23.5895 19.9229H31.8463C30.5402 19.9229 29.4878 21.0302 29.4878 22.3923V26.2565C29.4878 27.6186 30.5402 28.7259 31.8463 28.7259Z" fill="#655E67"/>
<path fill-rule="evenodd" clip-rule="evenodd" d="M73.9477 13.5197C72.9877 13.2232 71.9678 13.756 71.6724 14.7151L63.3139 41.6618C63.0139 42.6209 63.5539 43.6355 64.5139 43.932C64.6939 43.9876 64.8739 44.0155 65.0539 44.0155C65.8293 44.0155 66.5493 43.5151 66.7893 42.7367L75.1478 15.79C75.4478 14.8309 74.9077 13.8163 73.9477 13.5197Z" fill="#A49CA7"/>
<path fill-rule="evenodd" clip-rule="evenodd" d="M78.4617 15.0579C78.4617 18 76.1909 20.3861 73.3848 20.3861C70.5832 20.3861 68.3079 18 68.3079 15.0579C68.3079 12.1158 70.5832 9.72974 73.3848 9.72974C76.1909 9.72974 78.4617 12.1158 78.4617 15.0579Z" fill="#544F56"/>
<path fill-rule="evenodd" clip-rule="evenodd" d="M73.897 35.6757H58.4862C56.7646 35.6757 55.2785 36.8432 54.9231 38.4741V47.2587H77.5385V39.1969C77.5385 37.2509 75.9093 35.6757 73.897 35.6757Z" fill="#766D78"/>
<path fill-rule="evenodd" clip-rule="evenodd" d="M66.9231 35.6757C65.2062 35.6757 63.7293 36.8432 63.3785 38.4741V47.2587H54.9231V38.4741C55.2739 36.8432 56.7554 35.6757 58.4677 35.6757H66.9231Z" fill="#655E67"/>
<path fill-rule="evenodd" clip-rule="evenodd" d="M76.154 19.6077C75.374 20.0988 74.4509 20.3861 73.4632 20.3861C70.6201 20.3861 68.3079 18 68.3079 15.0579C68.3079 12.1158 70.6201 9.72974 73.4632 9.72974C74.4509 9.72974 75.374 10.017 76.154 10.5127C74.6725 11.444 73.6847 13.1305 73.6847 15.0579C73.6847 16.9807 74.6725 18.6718 76.154 19.6077Z" fill="#444145"/>
<path fill-rule="evenodd" clip-rule="evenodd" d="M15.6926 82.0078L1.8649 78.8943C1.31567 78.7692 0.92334 78.2827 0.92334 77.722V53.861C0.92334 53.3004 1.31567 52.8139 1.8649 52.6888L15.6926 49.5753V82.0078Z" fill="#A49CA7"/>
<path fill-rule="evenodd" clip-rule="evenodd" d="M21.231 45.4054H82.6156V86.1776H21.231V45.4054Z" fill="#E7551F"/>
<path fill-rule="evenodd" clip-rule="evenodd" d="M21.2309 86.1776H13.874C12.074 86.1776 10.6155 84.7367 10.6155 82.9575V48.6255C10.6155 46.8463 12.074 45.4054 13.874 45.4054H21.2309V86.1776Z" fill="#812F14"/>
<path fill-rule="evenodd" clip-rule="evenodd" d="M82.6152 86.1776H89.9721C91.7721 86.1776 93.2306 84.7367 93.2306 82.9575V48.6255C93.2306 46.8463 91.7721 45.4054 89.9721 45.4054H82.6152V86.1776Z" fill="#812F14"/>
<path fill-rule="evenodd" clip-rule="evenodd" d="M48.1708 76.4479H31.2138C30.5446 76.4479 30 75.9059 30 75.2387V55.8811C30 55.214 30.5446 54.6719 31.2138 54.6719H48.1708C48.8401 54.6719 49.3846 55.214 49.3846 55.8811V75.2387C49.3846 75.9059 48.8401 76.4479 48.1708 76.4479Z" fill="#766D78"/>
<path fill-rule="evenodd" clip-rule="evenodd" d="M58.1353 59.7684H73.8646C74.8753 59.7684 75.6922 59.041 75.6922 58.1468C75.6922 57.2526 74.8753 56.5251 73.8646 56.5251H58.1353C57.1245 56.5251 56.3076 57.2526 56.3076 58.1468C56.3076 59.041 57.1245 59.7684 58.1353 59.7684Z" fill="#812F14"/>
<path fill-rule="evenodd" clip-rule="evenodd" d="M73.8646 63.9382H58.1353C57.1245 63.9382 56.3076 64.7676 56.3076 65.7915C56.3076 66.8155 57.1245 67.6448 58.1353 67.6448H73.8646C74.8753 67.6448 75.6922 66.8155 75.6922 65.7915C75.6922 64.7676 74.8753 63.9382 73.8646 63.9382Z" fill="#812F14"/>
<path fill-rule="evenodd" clip-rule="evenodd" d="M73.8646 71.3513H58.1353C57.1245 71.3513 56.3076 72.1807 56.3076 73.2046C56.3076 74.2285 57.1245 75.0579 58.1353 75.0579H73.8646C74.8753 75.0579 75.6922 74.2285 75.6922 73.2046C75.6922 72.1807 74.8753 71.3513 73.8646 71.3513Z" fill="#812F14"/>
<path fill-rule="evenodd" clip-rule="evenodd" d="M93.4107 120H1.20466C0.54005 120 0 119.458 0 118.791V97.5799C0 96.9127 0.54005 96.3706 1.20466 96.3706H93.4107C94.0753 96.3706 94.6154 96.9127 94.6154 97.5799V118.791C94.6154 119.458 94.0753 120 93.4107 120Z" fill="#E7551F"/>
<path fill-rule="evenodd" clip-rule="evenodd" d="M39.6923 76.4479H31.2093C30.5447 76.4479 30 75.9059 30 75.2387V55.8811C30 55.2093 30.5447 54.6719 31.2093 54.6719H39.6923C39.0231 54.6719 38.483 55.2093 38.483 55.8811V75.2387C38.483 75.9059 39.0231 76.4479 39.6923 76.4479Z" fill="#655E67"/>
<path fill-rule="evenodd" clip-rule="evenodd" d="M40.2787 71.8147C40.0526 71.8147 39.8218 71.7729 39.6003 71.6895C38.6449 71.3282 38.1741 70.2903 38.548 69.3683L39.268 67.5845H37.3987C36.7849 67.5845 36.2079 67.2927 35.8618 66.8016C35.5156 66.3151 35.4418 65.6895 35.668 65.1382L37.3756 60.9127C37.7495 59.9861 38.8295 59.532 39.7849 59.8934C40.7402 60.2548 41.211 61.2927 40.8372 62.2193L40.1172 63.9984H41.9864C42.6003 63.9984 43.1772 64.2903 43.5234 64.7814C43.8695 65.2679 43.9433 65.8934 43.7172 66.4448L42.0095 70.6749C41.7234 71.3838 41.0218 71.8147 40.2787 71.8147Z" fill="#812F14"/>
<path fill-rule="evenodd" clip-rule="evenodd" d="M9.69231 120H1.20928C0.54467 120 0 119.458 0 118.791V97.5799C0 96.9127 0.54467 96.3706 1.20928 96.3706H9.69231C9.02308 96.3706 8.48302 96.9127 8.48302 97.5799V118.791C8.48302 119.458 9.02308 120 9.69231 120Z" fill="#812F14"/>
<path fill-rule="evenodd" clip-rule="evenodd" d="M9.69231 120H1.20928C0.54467 120 0 119.463 0 118.805V104.247L7.53234 108.783C7.84157 108.968 8.15995 109.144 8.48302 109.307V118.805C8.48302 119.463 9.02308 120 9.69231 120Z" fill="#72D1FB"/>
<path fill-rule="evenodd" clip-rule="evenodd" d="M0 104.247L7.5 108.783C12.1062 111.568 17.8938 111.568 22.5 108.783C27.1062 105.998 32.8938 105.998 37.5 108.783C42.0508 111.535 47.8385 111.6 52.5 108.783C57.0508 106.031 62.8385 105.966 67.5 108.783C72.0508 111.535 77.8385 111.6 82.5 108.783C87.0508 106.031 92.8385 105.966 97.5 108.783C102.051 111.535 107.838 111.6 112.5 108.783L120 104.247V118.805C120 119.463 119.46 120 118.795 120H1.20466C0.54005 120 0 119.463 0 118.805V104.247Z" fill="#93DCFC"/>
<path fill-rule="evenodd" clip-rule="evenodd" d="M112.5 108.741C110.197 110.117 107.598 110.808 105 110.808C97.9154 110.808 97.0754 106.67 90 106.67C82.9292 106.67 82.0754 110.808 75 110.808C67.9108 110.808 67.0846 106.67 60 106.67C52.92 106.67 52.0846 110.808 45 110.808C37.9154 110.808 37.0754 106.67 30 106.67C27.4015 106.67 24.8031 107.361 22.5 108.741C17.8938 111.498 12.1062 111.498 7.5 108.741L0 104.247V111.123L7.5 115.617C12.1062 118.374 17.8938 118.374 22.5 115.617C24.8031 114.236 27.4015 113.546 30 113.546C32.5985 113.546 35.1969 114.236 37.5 115.617C39.8031 116.993 42.4015 117.683 45 117.683C47.5985 117.683 50.1969 116.993 52.5 115.617C57.1062 112.856 62.8938 112.856 67.5 115.617C69.8031 116.993 72.4015 117.683 75 117.683C77.5985 117.683 80.1969 116.993 82.5 115.617C87.1108 112.856 92.8892 112.856 97.5 115.617C99.8031 116.993 102.402 117.683 105 117.683C107.598 117.683 110.197 116.993 112.5 115.617L120 111.123V104.247L112.5 108.741Z" fill="#72D1FB"/>
</svg>
