<svg width="60" height="60" viewBox="0 0 60 60" fill="none" xmlns="http://www.w3.org/2000/svg">
<path d="M58.9524 25.9994C58.9524 28.6516 57.8988 31.1951 56.0235 33.0705C54.1481 34.9459 51.6046 35.9994 48.9524 35.9994H10.9524C8.39083 35.9872 5.93163 34.9925 4.08195 33.2204C2.23227 31.4483 1.13317 29.0339 1.01133 26.4752C0.889486 23.9165 1.75419 21.4086 3.42711 19.4688C5.10003 17.5289 7.45358 16.305 10.0024 16.0494C9.98239 15.6994 9.95239 15.3494 9.95239 14.9994C9.95084 12.0909 10.8557 9.25422 12.5412 6.88383C14.2266 4.51345 16.6088 2.72721 19.3566 1.77353C22.1043 0.819862 25.0809 0.746163 27.8724 1.56269C30.664 2.37921 33.1317 4.04537 34.9324 6.32944C36.4163 4.9819 38.3084 4.16946 40.3074 4.02144C42.3064 3.87341 44.2975 4.39831 45.9637 5.51258C47.6299 6.62685 48.8755 8.26646 49.5023 10.1704C50.1291 12.0744 50.1009 14.1333 49.4224 16.0194C51.9888 16.1402 54.4103 17.2441 56.1846 19.1023C57.959 20.9604 58.9501 23.4302 58.9524 25.9994Z" fill="#CAE6EA"/>
<path d="M34.6855 53.8995L30.8335 58.5805C30.7266 58.7107 30.5921 58.8156 30.4398 58.8876C30.2874 58.9597 30.121 58.997 29.9525 58.997C29.784 58.997 29.6176 58.9597 29.4653 58.8876C29.3129 58.8156 29.1784 58.7107 29.0715 58.5805L25.2195 53.8995C25.0802 53.7307 24.9914 53.5259 24.9634 53.3088C24.9354 53.0917 24.9694 52.8711 25.0614 52.6725C25.1534 52.4738 25.2996 52.3053 25.4833 52.1862C25.667 52.0671 25.8806 52.0024 26.0995 51.9995H26.9525V41.9995C26.9525 41.7343 27.0579 41.4799 27.2454 41.2924C27.4329 41.1049 27.6873 40.9995 27.9525 40.9995H31.9525C32.0838 40.9995 32.2139 41.0254 32.3352 41.0756C32.4565 41.1259 32.5668 41.1995 32.6596 41.2924C32.7525 41.3853 32.8261 41.4955 32.8764 41.6168C32.9266 41.7382 32.9525 41.8682 32.9525 41.9995V51.9995H33.8055C34.0244 52.0024 34.238 52.0671 34.4217 52.1862C34.6054 52.3053 34.7516 52.4738 34.8436 52.6725C34.9356 52.8711 34.9696 53.0917 34.9416 53.3088C34.9137 53.5259 34.8249 53.7307 34.6855 53.8995Z" fill="#99DB5E"/>
<path d="M17.6855 52.8995L13.8335 57.5805C13.7266 57.7107 13.5921 57.8156 13.4398 57.8876C13.2874 57.9597 13.121 57.997 12.9525 57.997C12.784 57.997 12.6176 57.9597 12.4653 57.8876C12.3129 57.8156 12.1784 57.7107 12.0715 57.5805L8.21951 52.8995C8.08015 52.7307 7.99136 52.5259 7.96338 52.3088C7.9354 52.0917 7.96937 51.8711 8.06137 51.6725C8.15337 51.4738 8.29965 51.3053 8.48333 51.1862C8.66702 51.0671 8.88062 51.0024 9.09951 50.9995H9.95251V40.9995C9.95251 40.7343 10.0579 40.4799 10.2454 40.2924C10.4329 40.1049 10.6873 39.9995 10.9525 39.9995H14.9525C15.2177 39.9995 15.4721 40.1049 15.6596 40.2924C15.8472 40.4799 15.9525 40.7343 15.9525 40.9995V50.9995H16.8055C17.0244 51.0024 17.238 51.0671 17.4217 51.1862C17.6054 51.3053 17.7517 51.4738 17.8437 51.6725C17.9356 51.8711 17.9696 52.0917 17.9416 52.3088C17.9137 52.5259 17.8249 52.7307 17.6855 52.8995Z" fill="#99DB5E"/>
<path d="M51.6865 52.8995L47.8335 57.5805C47.7265 57.7104 47.592 57.815 47.4398 57.8868C47.2876 57.9586 47.1213 57.9958 46.953 57.9958C46.7847 57.9958 46.6185 57.9586 46.4662 57.8868C46.314 57.815 46.1796 57.7104 46.0725 57.5805L42.2205 52.8995C42.0812 52.7307 41.9924 52.5259 41.9644 52.3088C41.9364 52.0917 41.9704 51.8711 42.0624 51.6725C42.1544 51.4738 42.3007 51.3053 42.4843 51.1862C42.668 51.0671 42.8816 51.0024 43.1005 50.9995H43.9525V40.9995C43.9525 40.7343 44.0579 40.4799 44.2454 40.2924C44.4329 40.1049 44.6873 39.9995 44.9525 39.9995H48.9525C49.2177 39.9995 49.4721 40.1049 49.6596 40.2924C49.8472 40.4799 49.9525 40.7343 49.9525 40.9995V50.9995H50.8045C51.0234 51.0024 51.237 51.0671 51.4207 51.1861C51.6045 51.3051 51.7509 51.4736 51.843 51.6721C51.9352 51.8707 51.9694 52.0912 51.9417 52.3084C51.914 52.5255 51.8256 52.7304 51.6865 52.8995Z" fill="#99DB5E"/>
<path d="M20.9524 16.9995C21.4828 16.9995 21.9915 17.2102 22.3666 17.5853C22.7417 17.9604 22.9524 18.4691 22.9524 18.9995C22.9524 19.2647 23.0577 19.5191 23.2453 19.7066C23.4328 19.8942 23.6872 19.9995 23.9524 19.9995C24.2176 19.9995 24.472 19.8942 24.6595 19.7066C24.847 19.5191 24.9524 19.2647 24.9524 18.9995C24.9524 17.9386 24.531 16.9212 23.7808 16.1711C23.0307 15.4209 22.0133 14.9995 20.9524 14.9995C19.8915 14.9995 18.8741 15.4209 18.124 16.1711C17.3738 16.9212 16.9524 17.9386 16.9524 18.9995V24.9995C16.9524 26.0604 17.3738 27.0778 18.124 27.8279C18.8741 28.5781 19.8915 28.9995 20.9524 28.9995C22.0133 28.9995 23.0307 28.5781 23.7808 27.8279C24.531 27.0778 24.9524 26.0604 24.9524 24.9995C24.9524 24.7343 24.847 24.4799 24.6595 24.2924C24.472 24.1049 24.2176 23.9995 23.9524 23.9995C23.6872 23.9995 23.4328 24.1049 23.2453 24.2924C23.0577 24.4799 22.9524 24.7343 22.9524 24.9995C22.9524 25.5299 22.7417 26.0387 22.3666 26.4137C21.9915 26.7888 21.4828 26.9995 20.9524 26.9995C20.422 26.9995 19.9133 26.7888 19.5382 26.4137C19.1631 26.0387 18.9524 25.5299 18.9524 24.9995V18.9995C18.9524 18.4691 19.1631 17.9604 19.5382 17.5853C19.9133 17.2102 20.422 16.9995 20.9524 16.9995Z" fill="white"/>
<path d="M30.9524 14.9995C29.8915 14.9995 28.8741 15.4209 28.124 16.1711C27.3738 16.9212 26.9524 17.9386 26.9524 18.9995V24.9995C26.9524 26.0604 27.3738 27.0778 28.124 27.8279C28.8741 28.5781 29.8915 28.9995 30.9524 28.9995C32.0133 28.9995 33.0307 28.5781 33.7808 27.8279C34.531 27.0778 34.9524 26.0604 34.9524 24.9995V18.9995C34.9524 17.9386 34.531 16.9212 33.7808 16.1711C33.0307 15.4209 32.0133 14.9995 30.9524 14.9995ZM32.9524 24.9995C32.9524 25.5299 32.7417 26.0387 32.3666 26.4137C31.9915 26.7888 31.4828 26.9995 30.9524 26.9995C30.422 26.9995 29.9133 26.7888 29.5382 26.4137C29.1631 26.0387 28.9524 25.5299 28.9524 24.9995V18.9995C28.9524 18.4691 29.1631 17.9604 29.5382 17.5853C29.9133 17.2102 30.422 16.9995 30.9524 16.9995C31.4828 16.9995 31.9915 17.2102 32.3666 17.5853C32.7417 17.9604 32.9524 18.4691 32.9524 18.9995V24.9995Z" fill="white"/>
<path d="M41.9524 26.9995H39.6234C39.8324 26.7995 40.0694 26.5995 40.3034 26.3935C41.4834 25.3755 42.9524 24.1095 42.9524 21.9995C42.9524 21.2039 42.6363 20.4408 42.0737 19.8782C41.5111 19.3156 40.748 18.9995 39.9524 18.9995C39.3223 18.9982 38.7063 19.1855 38.1835 19.5373C37.6608 19.8891 37.2554 20.3893 37.0194 20.9735C36.926 21.2174 36.9325 21.4882 37.0376 21.7273C37.1426 21.9663 37.3376 22.1543 37.5804 22.2505C37.8251 22.3477 38.0981 22.3453 38.341 22.2438C38.5839 22.1424 38.7775 21.9499 38.8804 21.7075C38.9699 21.4973 39.1192 21.3181 39.3099 21.1922C39.5005 21.0663 39.7239 20.9993 39.9524 20.9995C40.2176 20.9995 40.472 21.1049 40.6595 21.2924C40.847 21.4799 40.9524 21.7343 40.9524 21.9995C40.9524 23.1925 40.0034 24.0115 38.9974 24.8785C37.9914 25.7455 36.9524 26.6425 36.9524 27.9995C36.9524 28.2647 37.0577 28.5191 37.2453 28.7066C37.4328 28.8942 37.6872 28.9995 37.9524 28.9995H41.9524C42.2176 28.9995 42.472 28.8942 42.6595 28.7066C42.847 28.5191 42.9524 28.2647 42.9524 27.9995C42.9524 27.7343 42.847 27.4799 42.6595 27.2924C42.472 27.1049 42.2176 26.9995 41.9524 26.9995Z" fill="white"/>
</svg>
