<svg width="60" height="60" viewBox="0 0 60 60" fill="none" xmlns="http://www.w3.org/2000/svg">
<path d="M31.6982 53.2C32.3345 53.2 32.9447 52.9471 33.3946 52.497C33.8445 52.0469 34.0973 51.4365 34.0973 50.7999C34.0973 50.1634 33.8445 49.553 33.3946 49.1029C32.9447 48.6528 32.3345 48.3999 31.6982 48.3999C31.2397 48.4001 30.7926 48.543 30.4188 48.8087C30.4188 48.7615 30.4252 48.7143 30.4252 48.6663C30.4361 48.1828 30.2548 47.7146 29.9211 47.3647C29.5873 47.0148 29.1284 46.8116 28.6451 46.7999C28.2235 46.8074 27.8179 46.9625 27.4987 47.2381C27.1795 47.5138 26.9669 47.8926 26.8978 48.3087C26.7604 48.1692 26.5967 48.0583 26.4162 47.9824C26.2357 47.9065 26.042 47.867 25.8463 47.8663C25.4319 47.8764 25.0384 48.0505 24.7522 48.3505C24.466 48.6504 24.3104 49.0517 24.3197 49.4663C24.3199 49.6495 24.3504 49.8315 24.41 50.0047C24.3805 50.0047 24.3501 49.9999 24.3197 49.9999C23.8955 49.9999 23.4887 50.1685 23.1888 50.4686C22.8888 50.7686 22.7203 51.1756 22.7203 51.6C22.7203 52.0243 22.8888 52.4313 23.1888 52.7314C23.4887 53.0314 23.8955 53.2 24.3197 53.2H31.6982Z" fill="#71C285"/>
<path d="M13.197 25.9994C12.9849 25.9994 12.7815 25.9152 12.6316 25.7651C12.4816 25.6151 12.3973 25.4116 12.3973 25.1994V14.7992C12.3973 14.587 12.4816 14.3836 12.6316 14.2335C12.7815 14.0835 12.9849 13.9992 13.197 13.9992C13.4091 13.9992 13.6125 14.0835 13.7625 14.2335C13.9124 14.3836 13.9967 14.587 13.9967 14.7992V25.1994C13.9967 25.4116 13.9124 25.6151 13.7625 25.7651C13.6125 25.9152 13.4091 25.9994 13.197 25.9994Z" fill="#A5A5A4"/>
<path d="M34.729 13.9985H14.7964C14.5843 13.9985 14.3809 13.9143 14.2309 13.7643C14.081 13.6143 13.9967 13.4109 13.9967 13.1988C13.9967 12.9868 14.081 12.7834 14.2309 12.6334C14.3809 12.4834 14.5843 12.3992 14.7964 12.3992H34.729C34.9411 12.3992 35.1445 12.4834 35.2944 12.6334C35.4444 12.7834 35.5286 12.9868 35.5286 13.1988C35.5286 13.4109 35.4444 13.6143 35.2944 13.7643C35.1445 13.9143 34.9411 13.9985 34.729 13.9985Z" fill="#A5A5A4"/>
<path d="M31.6982 53.2C32.3345 53.2 32.9447 52.9471 33.3946 52.497C33.8445 52.0469 34.0973 51.4365 34.0973 50.7999C34.0973 50.1634 33.8445 49.553 33.3946 49.1029C32.9447 48.6528 32.3345 48.3999 31.6982 48.3999C31.2397 48.4001 30.7926 48.543 30.4188 48.8087C30.4188 48.7615 30.4252 48.7143 30.4252 48.6663C30.4361 48.1828 30.2548 47.7146 29.9211 47.3647C29.5873 47.0148 29.1284 46.8116 28.6451 46.7999C28.2235 46.8074 27.8179 46.9625 27.4987 47.2381C27.1795 47.5138 26.9669 47.8926 26.8978 48.3087C26.7604 48.1692 26.5967 48.0583 26.4162 47.9824C26.2357 47.9065 26.042 47.867 25.8463 47.8663C25.4319 47.8764 25.0384 48.0505 24.7522 48.3505C24.466 48.6504 24.3104 49.0517 24.3197 49.4663C24.3199 49.6495 24.3504 49.8315 24.41 50.0047C24.3805 50.0047 24.3501 49.9999 24.3197 49.9999C23.8955 49.9999 23.4887 50.1685 23.1888 50.4686C22.8888 50.7686 22.7203 51.1756 22.7203 51.6C22.7203 52.0243 22.8888 52.4313 23.1888 52.7314C23.4887 53.0314 23.8955 53.2 24.3197 53.2H31.6982Z" fill="#71C285"/>
<path d="M53.1806 29.1995C53.3927 29.1995 53.5961 29.1152 53.7461 28.9652C53.896 28.8152 53.9803 28.6117 53.9803 28.3995C54.0112 27.8264 54.0058 27.2519 53.9643 26.6795C53.9636 26.6495 53.9582 26.6198 53.9483 26.5915C53.9488 26.5871 53.9484 26.5827 53.947 26.5786C53.9456 26.5744 53.9433 26.5706 53.9403 26.5675C53.9015 26.4575 53.8447 26.3548 53.7724 26.2635L45.8796 17.5753L41.9372 6.52707C41.8812 6.37263 41.779 6.23919 41.6445 6.14489C41.51 6.05059 41.3498 6 41.1855 6C41.0213 6 40.8611 6.05059 40.7266 6.14489C40.5921 6.23919 40.4899 6.37263 40.4339 6.52707L36.4915 17.5753C28.2205 26.6803 28.4948 26.3131 28.4308 26.5675C28.4278 26.5706 28.4255 26.5744 28.4241 26.5786C28.4227 26.5827 28.4223 26.5871 28.4228 26.5915C28.4129 26.6198 28.4075 26.6495 28.4068 26.6795C28.3632 27.2518 28.3579 27.8264 28.3908 28.3995C28.3908 28.6117 28.4751 28.8152 28.625 28.9652C28.775 29.1152 28.9784 29.1995 29.1905 29.1995C29.4026 29.1995 29.606 29.1152 29.7559 28.9652C29.9059 28.8152 29.9901 28.6117 29.9901 28.3995V27.5995H36.3875V29.6395C27.911 37.2773 28.6307 36.6069 28.4708 36.8477C28.3108 37.3117 28.4364 37.0725 28.3908 38.7997C28.3908 39.0119 28.4751 39.2154 28.625 39.3654C28.775 39.5154 28.9784 39.5997 29.1905 39.5997C29.4026 39.5997 29.606 39.5154 29.7559 39.3654C29.9059 39.2154 29.9901 39.0119 29.9901 38.7997V37.9997H36.3875V53.2C36.389 53.2221 36.3944 53.2438 36.4035 53.264C36.4064 53.3186 36.4172 53.3725 36.4355 53.424C36.443 53.4719 36.4592 53.518 36.4835 53.56C36.5075 53.608 36.5395 53.648 36.5634 53.688C36.6034 53.728 36.6354 53.768 36.6754 53.808C36.6994 53.816 36.7074 53.84 36.7234 53.848C36.7474 53.872 36.7714 53.872 36.8033 53.888C36.8483 53.9156 36.8967 53.9371 36.9473 53.952C36.9996 53.9673 37.0531 53.978 37.1072 53.984C37.1312 53.984 37.1552 54 37.1872 54H45.1839C45.2797 53.9976 45.3744 53.9787 45.4638 53.944C45.4958 53.936 45.5198 53.912 45.5517 53.904C45.5837 53.88 45.6157 53.872 45.6477 53.848C45.6637 53.84 45.6717 53.816 45.6957 53.808C45.7357 53.768 45.7677 53.728 45.8076 53.688C45.8316 53.648 45.8636 53.608 45.8876 53.56C45.9118 53.518 45.9281 53.4719 45.9356 53.424C45.9539 53.3725 45.9647 53.3186 45.9676 53.264C45.9766 53.2438 45.982 53.2221 45.9836 53.2V37.9997H52.3809V38.7997C52.3809 39.0119 52.4652 39.2154 52.6152 39.3654C52.7651 39.5154 52.9685 39.5997 53.1806 39.5997C53.3927 39.5997 53.5961 39.5154 53.7461 39.3654C53.896 39.2154 53.9803 39.0119 53.9803 38.7997C53.9555 37.2125 54.0355 37.1557 53.9059 36.8717C53.9035 36.8638 53.9016 36.8558 53.9003 36.8477C53.7052 36.5541 54.4825 37.2981 46.2235 29.8555L46.2355 29.8667L46.1683 29.8059L46.1795 29.8163L46.0643 29.7123L46.0795 29.7259L46.0587 29.7075L45.9836 29.6395V27.5995H52.3809V28.3995C52.3809 28.6117 52.4652 28.8152 52.6152 28.9652C52.7651 29.1152 52.9685 29.1995 53.1806 29.1995ZM36.3875 36.3997H31.2776L36.3875 31.7996V36.3997ZM36.3875 25.9995H30.9977L36.3875 20.0713V25.9995ZM41.1855 9.17512L44.0484 17.1993H38.3227L41.1855 9.17512ZM38.6826 41.1997L41.1855 37.4397L43.6885 41.1997H38.6826ZM43.6325 42.7998L41.1855 46.2238L38.7385 42.7998H43.6325ZM38.6826 30.7995H43.6885L41.1855 34.5596L38.6826 30.7995ZM38.6826 29.1995L41.1855 25.4394L43.6885 29.1995H38.6826ZM38.6826 18.7993H43.6885L41.1855 22.5594L38.6826 18.7993ZM37.9869 20.6393L40.2259 23.9994L37.9869 27.3595V20.6393ZM37.9869 32.6396L40.2259 35.9996L37.9869 39.3597V32.6396ZM37.9869 44.4958L40.2019 47.5999L37.9869 50.7039V44.4958ZM38.7385 52.4L41.1855 48.9759L43.6325 52.4H38.7385ZM44.3842 50.7039L42.1691 47.5999L44.3842 44.4958V50.7039ZM44.3842 39.3597L42.1451 35.9996L44.3842 32.6396V39.3597ZM44.3842 27.3595L42.1451 23.9994L44.3842 20.6393V27.3595ZM51.0935 36.3997H45.9836V31.7996L51.0935 36.3997ZM45.9836 25.9995V20.0713L51.3734 25.9995H45.9836Z" fill="#3F5C6C"/>
<path d="M46.2354 29.8668L46.249 29.8788L46.2354 29.8668Z" fill="#3F5C6C"/>
<path d="M46.0795 29.726L46.1682 29.8059L46.0795 29.726Z" fill="#3F5C6C"/>
<path d="M46.2491 29.8788L46.2707 29.898L46.2491 29.8788Z" fill="#3F5C6C"/>
<path d="M51.3733 25.9994H45.9835V20.0713L51.3733 25.9994Z" fill="#B0D3F0"/>
<path d="M51.0934 36.3997H45.9835V31.7996L51.0934 36.3997Z" fill="#B0D3F0"/>
<path d="M36.3875 31.7996V36.3997H31.2776L36.3875 31.7996Z" fill="#B0D3F0"/>
<path d="M36.3875 20.0713V25.9994H30.9977L36.3875 20.0713Z" fill="#B0D3F0"/>
<path d="M44.0483 17.1993H38.3227L41.1855 9.17511L44.0483 17.1993Z" fill="#B0D3F0"/>
<path d="M44.3842 50.704V44.4958L42.1691 47.5999L44.3842 50.704Z" fill="#B0D3F0"/>
<path d="M38.7385 52.3999H43.6325L41.1855 48.9758L38.7385 52.3999Z" fill="#B0D3F0"/>
<path d="M37.9868 44.4958V50.704L40.2019 47.5999L37.9868 44.4958Z" fill="#B0D3F0"/>
<path d="M43.6325 42.7998H38.7385L41.1855 46.2239L43.6325 42.7998Z" fill="#B0D3F0"/>
<path d="M44.3842 39.3597V32.6396L42.1451 35.9997L44.3842 39.3597Z" fill="#B0D3F0"/>
<path d="M41.1855 37.4397L38.6826 41.1998H43.6885L41.1855 37.4397Z" fill="#B0D3F0"/>
<path d="M37.9868 32.6396V39.3597L40.2259 35.9997L37.9868 32.6396Z" fill="#B0D3F0"/>
<path d="M38.6826 30.7996L41.1855 34.5596L43.6885 30.7996H38.6826Z" fill="#B0D3F0"/>
<path d="M41.1855 25.4395L38.6826 29.1995H43.6885L41.1855 25.4395Z" fill="#B0D3F0"/>
<path d="M43.6885 18.7993H38.6826L41.1855 22.5594L43.6885 18.7993Z" fill="#B0D3F0"/>
<path d="M42.1451 23.9994L44.3842 27.3595V20.6393L42.1451 23.9994Z" fill="#B0D3F0"/>
<path d="M37.9868 20.6393V27.3595L40.2259 23.9994L37.9868 20.6393Z" fill="#B0D3F0"/>
<path d="M16.5445 44.3998V50.7999H13.3458V39.3437L16.5445 44.3998Z" fill="#547580"/>
<path d="M25.4928 45.1999H17.1842C17.059 45.201 16.9354 45.1718 16.824 45.1147C16.7126 45.0575 16.6166 44.9742 16.5445 44.8719C16.5289 44.8579 16.5154 44.8417 16.5045 44.8239L14.0767 40.9598L13.349 39.8158L12.7061 38.7997H22.9019L26.1645 43.9758C26.2399 44.0965 26.2817 44.235 26.2858 44.3773C26.2898 44.5195 26.2558 44.6602 26.1874 44.7849C26.1189 44.9096 26.0185 45.0138 25.8964 45.0867C25.7743 45.1597 25.635 45.1987 25.4928 45.1999Z" fill="#2FA8CC"/>
<path d="M22.9018 38.7997H12.706L9.17948 33.1996L6.92441 29.6235C6.8489 29.5026 6.80704 29.3638 6.80315 29.2213C6.79927 29.0788 6.83351 28.9379 6.90233 28.8131C6.97114 28.6883 7.07204 28.5841 7.19458 28.5114C7.31713 28.4387 7.45686 28.4 7.59933 28.3995H15.9079C16.0438 28.3992 16.1775 28.4336 16.2965 28.4994C16.4154 28.5652 16.5156 28.6602 16.5876 28.7755L19.3753 33.1996L22.9018 38.7997Z" fill="#2FA8CC"/>
<path d="M22.9019 38.7997H12.7061L9.1795 33.1996H19.3753L22.9019 38.7997Z" fill="#67B9CC"/>
<path d="M12.5461 49.9999H17.3442C17.5562 49.9999 17.7596 50.0842 17.9096 50.2343C18.0596 50.3843 18.1438 50.5878 18.1438 50.8V53.2H11.7465V50.8C11.7465 50.5878 11.8307 50.3843 11.9807 50.2343C12.1306 50.0842 12.334 49.9999 12.5461 49.9999Z" fill="#3F5C6C"/>
<path d="M53.1806 53.9994H6.79967C6.58758 53.9994 6.38419 53.9151 6.23422 53.7651C6.08425 53.6152 6 53.4118 6 53.1997C6 52.9876 6.08425 52.7842 6.23422 52.6342C6.38419 52.4843 6.58758 52.4 6.79967 52.4H53.1806C53.3927 52.4 53.5961 52.4843 53.746 52.6342C53.896 52.7842 53.9803 52.9876 53.9803 53.1997C53.9803 53.4118 53.896 53.6152 53.746 53.7651C53.5961 53.9151 53.3927 53.9994 53.1806 53.9994Z" fill="#4C8056"/>
<path d="M13.197 14.7992C14.0803 14.7992 14.7963 14.0829 14.7963 13.1992C14.7963 12.3155 14.0803 11.5992 13.197 11.5992C12.3137 11.5992 11.5977 12.3155 11.5977 13.1992C11.5977 14.0829 12.3137 14.7992 13.197 14.7992Z" fill="#547580"/>
</svg>
