<svg width="60" height="60" viewBox="0 0 60 60" fill="none" xmlns="http://www.w3.org/2000/svg">
<g clip-path="url(#clip0_1_342)">
<path d="M32.9038 26.0934L30.0921 28.2049L34.5687 34.1648L29.9994 37.592L25.4301 34.1648L29.9067 28.2049L27.095 26.0934L21.2105 33.928V59.2411H24.7261V56.4864L29.9994 52.5314L35.2727 56.4864V59.2411H38.7883V33.928L32.9038 26.0934ZM24.7261 38.0297L27.0709 39.7883L24.7261 41.547V38.0297ZM24.7261 52.0936V48.5763L27.0709 50.3349L24.7261 52.0936ZM25.8967 45.0616L29.9994 41.9847L34.102 45.0616L29.9994 48.1386L25.8967 45.0616ZM35.2727 52.0936L32.9278 50.335L35.2727 48.5763V52.0936ZM35.2727 41.547L32.9278 39.7884L35.2727 38.0297V41.547Z" fill="#678D98"/>
<path d="M35.2727 59.241H38.7882V33.9278L32.9038 26.0934L30.0921 28.2049L34.5686 34.1648L29.9994 37.592V41.9847L34.102 45.0616L29.9994 48.1386V52.5313L35.2727 56.4863V59.241ZM32.9278 39.7883L35.2727 38.0297V41.547L32.9278 39.7883ZM32.9278 50.3349L35.2727 48.5763V52.0936L32.9278 50.3349Z" fill="#3B5A71"/>
<path d="M7.03113 31.5023H10.5467V52.0927H7.03113V31.5023Z" fill="#3B5A71"/>
<path d="M49.4521 20.5746H52.9676V41.546H49.4521V20.5746Z" fill="#2F374F"/>
<path d="M3.51556 50.3349H14.0622V59.241H3.51556V50.3349Z" fill="#FAA019"/>
<path d="M2.44953 36.834L1.06604 33.6035L25.7921 23.0568L27.1756 26.2874L2.44953 36.834Z" fill="#3B5A71"/>
<path d="M45.9365 39.7883H56.4832V59.241H45.9365V39.7883Z" fill="#FAA019"/>
<path d="M31.7314 20.5111L33.115 23.7418L40.2398 20.6877L41.6552 18.695L39.6279 17.1265L31.7314 20.5111Z" fill="#2F374F"/>
<path d="M59.6742 22.9451C59.7274 22.6859 60.9531 16.5422 58.2753 10.8021C55.5991 5.06187 50.1043 1.96291 49.8726 1.83764L48.3191 1L39.6279 17.1263L40.2398 20.6875L59.3172 24.672L59.6742 22.9451Z" fill="#FAA019"/>
<path d="M29.9993 29.2416C32.9117 29.2416 35.2727 26.8806 35.2727 23.9683C35.2727 21.0559 32.9117 18.6949 29.9993 18.6949C27.087 18.6949 24.726 21.0559 24.726 23.9683C24.726 26.8806 27.087 29.2416 29.9993 29.2416Z" fill="#678D98"/>
<path d="M35.2727 23.9683C35.2727 21.0604 32.9072 18.6949 29.9994 18.6949V29.2416C32.9072 29.2416 35.2727 26.8762 35.2727 23.9683Z" fill="#3B5A71"/>
<path d="M29.9994 57.4832H0V60.9988H29.9994H59.9987V57.4832H29.9994Z" fill="#91C83C"/>
<path d="M29.9994 57.4832H59.9987V60.9988H29.9994V57.4832Z" fill="#4B9641"/>
</g>
<defs>
<clipPath id="clip0_1_342">
<rect width="60" height="60" fill="white"/>
</clipPath>
</defs>
</svg>
