<svg width="60" height="60" viewBox="0 0 60 60" fill="none" xmlns="http://www.w3.org/2000/svg">
<path d="M57 25.9126C57 28.3434 56.0183 30.6746 54.2708 32.3934C52.5234 34.1122 50.1533 35.0778 47.682 35.0778H12.2736C9.88677 35.0666 7.59529 34.1549 5.87176 32.5308C4.14823 30.9066 3.12409 28.6937 3.01056 26.3486C2.89702 24.0035 3.70275 21.705 5.26158 19.9271C6.8204 18.1491 9.01344 17.0274 11.3884 16.7932C11.3698 16.4724 11.3418 16.1516 11.3418 15.8308C11.3404 13.1651 12.1835 10.5652 13.754 8.39268C15.3245 6.22016 17.5443 4.58303 20.1046 3.70896C22.6649 2.8349 25.4386 2.76735 28.0397 3.51572C30.6409 4.26408 32.9403 5.79115 34.6182 7.88456C36.0009 6.64951 37.7639 5.90489 39.6266 5.76922C41.4893 5.63355 43.3445 6.11463 44.8971 7.13589C46.4497 8.15714 47.6104 9.65988 48.1944 11.4049C48.7784 13.15 48.7522 15.037 48.12 16.7657C50.5113 16.8764 52.7677 17.8881 54.421 19.5912C56.0744 21.2942 56.9979 23.5578 57 25.9126V25.9126Z" fill="#CAE6EA"/>
<path d="M34.388 51.4836L30.7987 55.7739C30.6991 55.8932 30.5738 55.9894 30.4318 56.0554C30.2899 56.1214 30.1348 56.1556 29.9778 56.1556C29.8208 56.1556 29.6657 56.1214 29.5238 56.0554C29.3818 55.9894 29.2565 55.8932 29.1569 55.7739L25.5676 51.4836C25.4378 51.3289 25.355 51.1412 25.3289 50.9422C25.3029 50.7432 25.3345 50.5411 25.4202 50.359C25.506 50.177 25.6423 50.0225 25.8134 49.9133C25.9846 49.8042 26.1836 49.7449 26.3876 49.7422H27.1824V40.577C27.1824 40.3339 27.2806 40.1008 27.4553 39.9289C27.6301 39.757 27.8671 39.6605 28.1142 39.6605H31.8414C31.9638 39.6605 32.0849 39.6842 32.198 39.7302C32.311 39.7763 32.4138 39.8438 32.5003 39.9289C32.5868 40.014 32.6554 40.115 32.7023 40.2262C32.7491 40.3374 32.7732 40.4566 32.7732 40.577V49.7422H33.568C33.772 49.7449 33.971 49.8042 34.1422 49.9133C34.3133 50.0225 34.4496 50.177 34.5354 50.359C34.6211 50.5411 34.6527 50.7432 34.6267 50.9422C34.6006 51.1412 34.5179 51.3289 34.388 51.4836Z" fill="#99DB5E"/>
<path d="M18.5474 50.5671L14.9581 54.8573C14.8585 54.9767 14.7332 55.0728 14.5912 55.1388C14.4493 55.2048 14.2942 55.239 14.1372 55.239C13.9802 55.239 13.8252 55.2048 13.6832 55.1388C13.5413 55.0728 13.416 54.9767 13.3163 54.8573L9.72703 50.5671C9.59717 50.4123 9.51444 50.2247 9.48837 50.0257C9.46229 49.8267 9.49395 49.6245 9.57967 49.4424C9.66539 49.2604 9.8017 49.1059 9.97286 48.9968C10.144 48.8876 10.3431 48.8283 10.547 48.8257H11.3418V39.6604C11.3418 39.4173 11.44 39.1842 11.6148 39.0123C11.7895 38.8405 12.0265 38.7439 12.2736 38.7439H16.0008C16.248 38.7439 16.485 38.8405 16.6597 39.0123C16.8345 39.1842 16.9326 39.4173 16.9326 39.6604V48.8257H17.7275C17.9314 48.8283 18.1304 48.8876 18.3016 48.9968C18.4728 49.1059 18.6091 49.2604 18.6948 49.4424C18.7805 49.6245 18.8122 49.8267 18.7861 50.0257C18.76 50.2247 18.6773 50.4123 18.5474 50.5671V50.5671Z" fill="#99DB5E"/>
<path d="M50.2295 50.5671L46.6393 54.8573C46.5395 54.9763 46.4143 55.0722 46.2724 55.138C46.1306 55.2038 45.9757 55.238 45.8188 55.238C45.662 55.238 45.5071 55.2038 45.3653 55.138C45.2234 55.0722 45.0981 54.9763 44.9984 54.8573L41.4091 50.5671C41.2792 50.4123 41.1965 50.2247 41.1704 50.0257C41.1444 49.8267 41.176 49.6245 41.2617 49.4424C41.3475 49.2604 41.4838 49.1059 41.6549 48.9968C41.8261 48.8876 42.0251 48.8283 42.2291 48.8257H43.023V39.6604C43.023 39.4173 43.1211 39.1842 43.2959 39.0123C43.4706 38.8405 43.7076 38.7439 43.9548 38.7439H47.682C47.9291 38.7439 48.1661 38.8405 48.3409 39.0123C48.5156 39.1842 48.6138 39.4173 48.6138 39.6604V48.8257H49.4077C49.6116 48.8283 49.8107 48.8876 49.9819 48.9967C50.1531 49.1057 50.2895 49.2602 50.3753 49.4421C50.4612 49.6241 50.4931 49.8263 50.4673 50.0253C50.4415 50.2243 50.3591 50.4121 50.2295 50.5671V50.5671Z" fill="#99DB5E"/>
<path d="M21 17.2131C21.5304 17.2131 22.0391 17.4204 22.4142 17.7893C22.7893 18.1582 23 18.6586 23 19.1803C23 19.4412 23.1054 19.6914 23.2929 19.8759C23.4804 20.0603 23.7348 20.1639 24 20.1639C24.2652 20.1639 24.5196 20.0603 24.7071 19.8759C24.8946 19.6914 25 19.4412 25 19.1803C25 18.1369 24.5786 17.1361 23.8284 16.3983C23.0783 15.6604 22.0609 15.2459 21 15.2459C19.9391 15.2459 18.9217 15.6604 18.1716 16.3983C17.4214 17.1361 17 18.1369 17 19.1803V25.082C17 26.1255 17.4214 27.1262 18.1716 27.864C18.9217 28.6019 19.9391 29.0164 21 29.0164C22.0609 29.0164 23.0783 28.6019 23.8284 27.864C24.5786 27.1262 25 26.1255 25 25.082C25 24.8211 24.8946 24.5709 24.7071 24.3865C24.5196 24.202 24.2652 24.0984 24 24.0984C23.7348 24.0984 23.4804 24.202 23.2929 24.3865C23.1054 24.5709 23 24.8211 23 25.082C23 25.6037 22.7893 26.1041 22.4142 26.473C22.0391 26.8419 21.5304 27.0492 21 27.0492C20.4696 27.0492 19.9609 26.8419 19.5858 26.473C19.2107 26.1041 19 25.6037 19 25.082V19.1803C19 18.6586 19.2107 18.1582 19.5858 17.7893C19.9609 17.4204 20.4696 17.2131 21 17.2131V17.2131Z" fill="white"/>
<path d="M31 15.2459C29.9391 15.2459 28.9217 15.6604 28.1716 16.3983C27.4214 17.1361 27 18.1369 27 19.1803V25.082C27 26.1255 27.4214 27.1262 28.1716 27.864C28.9217 28.6019 29.9391 29.0164 31 29.0164C32.0609 29.0164 33.0783 28.6019 33.8284 27.864C34.5786 27.1262 35 26.1255 35 25.082V19.1803C35 18.1369 34.5786 17.1361 33.8284 16.3983C33.0783 15.6604 32.0609 15.2459 31 15.2459V15.2459ZM33 25.082C33 25.6037 32.7893 26.1041 32.4142 26.473C32.0391 26.8419 31.5304 27.0492 31 27.0492C30.4696 27.0492 29.9609 26.8419 29.5858 26.473C29.2107 26.1041 29 25.6037 29 25.082V19.1803C29 18.6586 29.2107 18.1582 29.5858 17.7893C29.9609 17.4204 30.4696 17.2131 31 17.2131C31.5304 17.2131 32.0391 17.4204 32.4142 17.7893C32.7893 18.1582 33 18.6586 33 19.1803V25.082Z" fill="white"/>
<path d="M42 27.0492H39.671C39.88 26.8524 40.117 26.6557 40.351 26.4531C41.531 25.4518 43 24.2065 43 22.1311C43 21.3485 42.6839 20.598 42.1213 20.0446C41.5587 19.4912 40.7956 19.1803 40 19.1803C39.3699 19.179 38.7539 19.3632 38.2311 19.7092C37.7084 20.0553 37.303 20.5473 37.067 21.1219C36.9736 21.3618 36.9802 21.6282 37.0852 21.8633C37.1902 22.0985 37.3852 22.2834 37.628 22.378C37.8727 22.4736 38.1457 22.4712 38.3886 22.3714C38.6316 22.2716 38.8251 22.0823 38.928 21.8439C39.0175 21.6372 39.1669 21.4609 39.3575 21.3371C39.5481 21.2132 39.7716 21.1473 40 21.1475C40.2652 21.1475 40.5196 21.2511 40.7071 21.4356C40.8946 21.6201 41 21.8703 41 22.1311C41 23.3046 40.051 24.1101 39.045 24.9629C38.039 25.8157 37 26.698 37 28.0328C37 28.2936 37.1054 28.5438 37.2929 28.7283C37.4804 28.9127 37.7348 29.0164 38 29.0164H42C42.2652 29.0164 42.5196 28.9127 42.7071 28.7283C42.8946 28.5438 43 28.2936 43 28.0328C43 27.7719 42.8946 27.5217 42.7071 27.3372C42.5196 27.1528 42.2652 27.0492 42 27.0492V27.0492Z" fill="white"/>
</svg>
