<svg width="48" height="46" viewBox="0 0 48 46" fill="none" xmlns="http://www.w3.org/2000/svg">
<path d="M49.1657 0.783926C48.8376 0.429104 48.3868 0.230177 47.9168 0.232814H0.0850476C-0.384935 0.230177 -0.835748 0.429104 -1.16389 0.783926C-1.50036 1.12997 -1.689 1.60537 -1.6865 2.10099V41.3327C-1.689 41.8283 -1.50036 42.3037 -1.16389 42.6498C-0.835748 43.0046 -0.384935 43.2035 0.0850476 43.2009H47.031C48.4986 43.2009 49.6884 41.9463 49.6884 40.3986V2.10099C49.6909 1.60537 49.5022 1.12997 49.1657 0.783926Z" fill="#F3D55B"/>
<path d="M49.6877 2.101V40.3986C49.6877 41.1417 49.4072 41.8543 48.9082 42.3789L45.2588 38.5305V4.90327L49.165 0.783936C49.5015 1.12998 49.6902 1.60538 49.6877 2.101Z" fill="#F0C419"/>
<path d="M2.74139 4.90327V38.5305L-1.16487 42.6498C-1.50134 42.3038 -1.68998 41.8284 -1.68748 41.3327V2.101C-1.68998 1.60538 -1.50134 1.12998 -1.16487 0.783936L2.74139 4.90327Z" fill="#F0C419"/>
<path d="M48.9077 42.3788C48.4102 42.9051 47.7346 43.2009 47.0299 43.2008H0.0839014C-0.386082 43.2035 -0.836894 43.0045 -1.16504 42.6497L2.74122 38.5304H45.2583L48.9077 42.3788Z" fill="#F29C1F"/>
<path d="M2.74121 4.9032H45.2583V38.5304H2.74121V4.9032Z" fill="#ECF0F1"/>
<path d="M45.2583 4.9032C45.2583 4.9032 2.74121 4.9032 2.74121 38.5304V4.9032H45.2583Z" fill="white"/>
<path d="M30.2002 11.4419H17.7993C17.3101 11.4419 16.9136 11.0237 16.9136 10.5078C16.9136 9.99194 17.3101 9.57373 17.7993 9.57373H30.2002C30.6894 9.57373 31.0859 9.99194 31.0859 10.5078C31.0859 11.0237 30.6894 11.4419 30.2002 11.4419Z" fill="#BDC3C7"/>
<path d="M21.3428 31.9918H8.94193C8.45273 31.9918 8.05615 31.5736 8.05615 31.0577C8.05615 30.5419 8.45273 30.1237 8.94193 30.1237H21.3428C21.832 30.1237 22.2285 30.5419 22.2285 31.0577C22.2285 31.5736 21.832 31.9918 21.3428 31.9918Z" fill="#95A5A5"/>
<path d="M32.8576 16.1123H15.1421C14.6529 16.1123 14.2563 15.6941 14.2563 15.1782C14.2563 14.6623 14.6529 14.2441 15.1421 14.2441H32.8576C33.3468 14.2441 33.7434 14.6623 33.7434 15.1782C33.7434 15.6941 33.3468 16.1123 32.8576 16.1123Z" fill="#BDC3C7"/>
<path d="M29.3145 35.1677L29.3145 47.2922C29.3123 47.6176 29.4709 47.9207 29.7331 48.0924C29.9953 48.264 30.3233 48.2793 30.5988 48.1329L32.9019 46.9092C33.1531 46.7785 33.4478 46.7785 33.6991 46.9092L36.0021 48.1329C36.2776 48.2793 36.6056 48.264 36.8678 48.0924C37.13 47.9207 37.2886 47.6176 37.2864 47.2922L37.2865 35.1677H29.3145Z" fill="#92D050"/>
<path d="M21.3428 28.2554C19.1738 28.2555 17.0415 27.6654 15.1521 26.5423C13.2594 27.6755 11.1183 28.2662 8.94193 28.2554C8.45273 28.2554 8.05615 27.8372 8.05615 27.3213C8.05615 26.8055 8.45273 26.3873 8.94193 26.3873C10.5296 26.3947 12.0991 26.0307 13.5373 25.3215C12.618 24.5783 12.03 23.4682 11.9119 22.253C11.9119 21.6925 12.1449 19.8486 15.1423 19.8486C18.1398 19.8486 18.3728 21.6888 18.3728 22.253C18.2553 23.4697 17.6677 24.5817 16.7482 25.3271C18.187 26.0331 19.7559 26.3951 21.3428 26.3873C21.832 26.3873 22.2285 26.8055 22.2285 27.3213C22.2285 27.8372 21.832 28.2554 21.3428 28.2554ZM15.1423 21.7168C14.4692 21.7168 13.6835 21.8569 13.6835 22.253C13.6835 22.649 14.0812 23.4467 15.1353 24.3024C16.0777 23.542 16.6012 22.7471 16.6012 22.253C16.6012 21.8569 15.8155 21.7168 15.1423 21.7168Z" fill="#95A5A5"/>
<path d="M41.7154 28.7225C41.7154 29.7995 39.8084 30.4674 39.4399 31.4042C39.0581 32.3748 39.9439 34.2663 39.2503 34.9977C38.5568 35.7291 36.7631 34.795 35.8436 35.1966C34.9552 35.5852 34.3219 37.5963 33.3006 37.5963C32.2793 37.5963 31.646 35.5852 30.7575 35.1966C29.8372 34.7941 28.0435 35.7281 27.35 34.9968C26.6564 34.2654 27.5422 32.3738 27.1613 31.4042C26.7928 30.4674 24.8857 29.7995 24.8857 28.7225C24.8857 27.6455 26.7928 26.9776 27.1613 26.0407C27.5431 25.0702 26.6573 23.1787 27.3509 22.4473C28.0444 21.7159 29.8381 22.65 30.7575 22.2483C31.6433 21.8597 32.2793 19.8486 33.3006 19.8486C34.3219 19.8486 34.9552 21.8597 35.8436 22.2483C36.764 22.6509 38.5577 21.7168 39.2512 22.4482C39.9448 23.1796 39.059 25.0711 39.4399 26.0407C39.8084 26.9776 41.7154 27.6455 41.7154 28.7225Z" fill="#D3ECB9"/>
<path d="M33.3004 31.9919C35.0126 31.9919 36.4006 30.5281 36.4006 28.7226C36.4006 26.917 35.0126 25.4532 33.3004 25.4532C31.5882 25.4532 30.2002 26.917 30.2002 28.7226C30.2002 30.5281 31.5882 31.9919 33.3004 31.9919Z" fill="#92D050"/>
</svg>
