<svg width="36" height="38" viewBox="0 0 36 38" fill="none" xmlns="http://www.w3.org/2000/svg">
<path fill-rule="evenodd" clip-rule="evenodd" d="M22.5626 9.98382C22.5626 7.39324 20.4629 5.29346 17.8723 5.29346C15.2818 5.29346 13.1821 7.39324 13.1821 9.98382C13.1821 11.0956 13.5681 12.1171 14.2162 12.9227L17.8734 14.7635L21.5285 12.9227C22.1766 12.1171 22.5626 11.0956 22.5626 9.98382Z" fill="#FFD772"/>
<path fill-rule="evenodd" clip-rule="evenodd" d="M35.494 25.8629H0.250488L0.926134 22.1052L1.1252 20.9952L1.70095 17.7902L1.90074 16.6802L2.39577 13.9251C2.5179 13.3864 2.99369 12.9291 3.61085 12.9209L10.245 12.9216H11.3654L17.3173 12.9224H18.4273L32.1337 12.9209C32.7508 12.9291 33.2267 13.3864 33.3487 13.9251L33.8439 16.6802L34.0436 17.7902L34.6194 20.9952L34.8185 22.1052L35.494 25.8629Z" fill="#A1D4FF"/>
<path d="M26.9696 10.5389H24.979C24.6725 10.5389 24.424 10.2904 24.424 9.98392C24.424 9.67738 24.6725 9.42896 24.979 9.42896H26.9696C27.2762 9.42896 27.5247 9.67746 27.5247 9.98392C27.5247 10.2904 27.2762 10.5389 26.9696 10.5389ZM10.7656 10.5389H8.77714C8.4706 10.5389 8.22217 10.2904 8.22217 9.98392C8.22217 9.67738 8.47067 9.42896 8.77714 9.42896H10.7656C11.0722 9.42896 11.3206 9.67746 11.3206 9.98392C11.3206 10.2904 11.0721 10.5389 10.7656 10.5389Z" fill="#FFD772"/>
<path d="M22.8978 5.51494C22.7559 5.51494 22.614 5.46091 22.5056 5.3527C22.2887 5.13614 22.2885 4.78475 22.505 4.56782L23.9105 3.16031C24.1271 2.94339 24.4785 2.9431 24.6954 3.15973C24.9123 3.37629 24.9126 3.72768 24.696 3.94461L23.2905 5.35212C23.1822 5.46069 23.0399 5.51494 22.8978 5.51494Z" fill="#FFD772"/>
<path d="M12.8483 5.51494C12.7062 5.51494 12.5642 5.46076 12.4558 5.35241L11.0483 3.9449C10.8315 3.72812 10.8315 3.37673 11.0483 3.16002C11.265 2.94324 11.6165 2.94324 11.8332 3.16002L13.2407 4.56753C13.4575 4.78431 13.4575 5.1357 13.2407 5.35241C13.1324 5.46076 12.9902 5.51494 12.8483 5.51494Z" fill="#FFD772"/>
<path d="M17.8724 3.43197C17.5658 3.43197 17.3174 3.18347 17.3174 2.877V0.888343C17.3174 0.581874 17.5658 0.333374 17.8724 0.333374C18.1789 0.333374 18.4274 0.581874 18.4274 0.888343V2.87693C18.4274 3.18347 18.1789 3.43197 17.8724 3.43197Z" fill="#FFD772"/>
<path fill-rule="evenodd" clip-rule="evenodd" d="M19.7704 28.9173L17.8575 27.8391L15.9717 28.9173L15.9738 31.9862L17.8994 32.8735L19.7704 31.9862V28.9173Z" fill="#375E7D"/>
<path fill-rule="evenodd" clip-rule="evenodd" d="M35.4941 25.8629H21.0898C21.8328 24.7203 22.3796 23.4541 22.6882 22.1051C22.7304 21.9216 22.7681 21.7366 22.8015 21.5501C22.8341 21.3666 22.8621 21.1816 22.8851 20.9951C22.9458 20.5163 22.9776 20.0301 22.9776 19.5343C22.9776 18.9431 22.9325 18.3607 22.8459 17.7902C22.8178 17.6037 22.7845 17.4187 22.7475 17.2352C22.709 17.0488 22.6669 16.8637 22.6195 16.6802C22.2724 15.3268 21.6841 14.0591 20.8989 12.9225H21.5286L24.3717 12.9218H25.4914L32.1336 12.921C32.7508 12.9292 33.2267 13.3865 33.3487 13.9252L33.8438 16.6803L34.0436 17.7903L34.6194 20.9953L34.8184 22.1053L35.4941 25.8629Z" fill="#75CEF8"/>
<path d="M27.253 25.8629L26.7416 22.1051H34.8181L34.619 20.9951H26.5907L26.1541 17.7901H34.0433L33.8435 16.6801H26.0031L25.491 12.9216H24.3713L24.8827 16.6801H18.4269V12.9224H17.3169V16.6801H10.8441L11.365 12.9216H10.2447L9.72296 16.6801H1.90031L1.70052 17.7901H9.56903L9.12431 20.9951H1.12484L0.925781 22.1051H8.97038L8.44939 25.8629L8.35468 26.5444C8.31253 26.8478 8.52486 27.1283 8.82827 27.1698C8.85416 27.1735 8.88004 27.1749 8.90527 27.1749C9.17834 27.1749 9.4159 26.9737 9.45433 26.6962L9.56976 25.863L10.0915 22.1052H17.3169V26.557C17.3169 26.8982 17.5656 27.1749 17.8719 27.1749C18.1783 27.1749 18.4269 26.8982 18.4269 26.557V22.1052H25.6213L26.1334 25.863L26.3369 27.36C26.3754 27.6383 26.6129 27.8395 26.8859 27.8395C26.9111 27.8395 26.937 27.8373 26.9629 27.8336C27.2663 27.7922 27.4787 27.5117 27.4365 27.2083L27.253 25.8629ZM17.3169 20.9951H10.2454L10.6894 17.7901H17.3169V20.9951H17.3169ZM18.4269 20.9951V17.7901H25.0337L25.4703 20.9951H18.4269Z" fill="#22A6FE"/>
<path fill-rule="evenodd" clip-rule="evenodd" d="M17.8721 25.8632H0.250126L0.0214591 27.3063C-0.127437 28.2356 0.514376 28.8922 1.45413 28.8922H34.29C35.2298 28.8922 35.8716 28.2357 35.7227 27.3063L35.494 25.8632H21.0899H17.8721Z" fill="#F9F7F8"/>
<path fill-rule="evenodd" clip-rule="evenodd" d="M35.7227 27.3063L35.494 25.8632H29.6102L29.8389 27.3063C29.9878 28.2356 29.346 28.8922 28.4062 28.8922H34.29C35.2297 28.8922 35.8716 28.2356 35.7227 27.3063Z" fill="#E5E4EC"/>
<path fill-rule="evenodd" clip-rule="evenodd" d="M19.7707 31.9862V28.9174L18.1346 28.9215L17.9604 28.9195V31.9862H19.5798H19.7707Z" fill="#2B4D66"/>
<path fill-rule="evenodd" clip-rule="evenodd" d="M22.5624 9.98382C22.5624 7.39324 20.4627 5.29346 17.8722 5.29346C16.7374 5.29346 15.697 5.69618 14.8853 6.36745C17.4108 6.44299 19.4328 8.51338 19.4328 11.0557C19.4328 11.7186 19.2944 12.35 19.0469 12.9226H20.8991H21.5283C22.1765 12.1171 22.5624 11.0956 22.5624 9.98382Z" fill="#FBBA58"/>
<path fill-rule="evenodd" clip-rule="evenodd" d="M19.7703 31.9862H15.9736H14.3564C13.6327 31.9862 13.0391 32.5798 13.0391 33.3035V34.7131L18.0314 35.7682L22.7048 34.7131V33.3035C22.7048 32.5798 22.1112 31.9862 21.3875 31.9862H19.7703Z" fill="#F9F7F8"/>
<path fill-rule="evenodd" clip-rule="evenodd" d="M22.7051 33.3036C22.7051 32.5799 22.1115 31.9863 21.3878 31.9863H19.7705H19.5796C20.3033 31.9863 20.8969 32.5799 20.8969 33.3036V34.7133H22.4512H22.705V33.3036H22.7051Z" fill="#E5E4EC"/>
<path fill-rule="evenodd" clip-rule="evenodd" d="M22.7052 34.7133H13.0394H11.4851C10.7006 34.7133 10.0566 35.3551 10.0566 36.1397V37.3521C10.0566 37.5241 10.1993 37.6667 10.3734 37.6667H25.3734C25.5454 37.6667 25.688 37.5241 25.688 37.3521V36.1397C25.688 35.3551 25.0461 34.7133 24.2596 34.7133H22.7052Z" fill="#375E7D"/>
<path fill-rule="evenodd" clip-rule="evenodd" d="M25.6877 36.1397C25.6877 35.3551 25.0458 34.7133 24.2593 34.7133H22.705H22.4512C23.2357 34.7133 23.8776 35.3551 23.8776 36.1397V37.3521C23.8776 37.5241 23.7371 37.6667 23.5629 37.6667H25.3732C25.5452 37.6667 25.6878 37.5241 25.6878 37.3521V36.1397H25.6877Z" fill="#2B4D66"/>
</svg>
