<svg width="40" height="40" viewBox="0 0 40 40" fill="none" xmlns="http://www.w3.org/2000/svg">
<g clip-path="url(#clip0_898_1370)">
<path d="M5.80021 6.2279C5.68638 5.92529 5.98215 5.62953 6.28476 5.74336L11.7643 7.68759L12.1337 1.74662C12.1447 1.42187 12.5333 1.26151 12.7702 1.48377L17.3698 5.62912L19.6977 0.220921C19.8312 -0.0735591 20.2495 -0.0735591 20.383 0.220921L22.7109 5.68588L27.3449 1.53063C27.5824 1.30884 27.9705 1.47009 27.9808 1.79484L28.0855 7.56249L33.7723 5.80027C34.0749 5.68644 34.3707 5.98221 34.2569 6.28482L32.0732 12.1427L38.2536 12.1338C38.5784 12.1448 38.7387 12.5332 38.5165 12.7702L34.2249 17.5159L39.7793 19.6977C40.0738 19.8312 40.0738 20.2495 39.7793 20.3829L34.0422 23.1705L38.4696 27.3448C38.6914 27.5823 38.5301 27.9704 38.2054 27.9807C38.2054 27.9807 31.5505 28.0567 31.6271 28.0853C31.7036 28.114 34.1999 33.7721 34.1999 33.7721C34.3137 34.0747 34.0179 34.3705 33.7153 34.2567L27.9779 32.0101L27.8664 38.2534C27.8553 38.5782 27.4668 38.7385 27.2299 38.5163L22.8877 34.2247L20.3025 39.7791C20.169 40.0736 19.7507 40.0736 19.6172 39.7791L16.9855 34.021L12.6553 38.4694C12.4179 38.6912 12.0298 38.53 12.0194 38.2052L11.9053 32.2372L6.228 34.1997C5.92539 34.3135 5.62963 34.0177 5.74346 33.7151L8.11967 27.9777L1.74672 27.8662C1.42197 27.8552 1.26161 27.4667 1.48387 27.2297L5.68598 23.0098L0.22086 20.3023C-0.0736201 20.1689 -0.0736201 19.7506 0.22086 19.6171L6.09791 17.1252L1.53057 12.6552C1.30878 12.4178 1.47003 12.0296 1.79478 12.0193L7.80055 11.9226L5.80021 6.2279Z" fill="#FEE97D"/>
<path d="M35.5214 16.0817C35.1701 14.6858 34.6353 13.363 33.9445 12.14L32.073 12.1427L32.7503 10.3257C31.8264 9.11006 30.7329 8.03059 29.5047 7.1226L28.0852 7.56247L28.0599 6.17065C26.8128 5.44234 25.4588 4.8772 24.0265 4.506L22.7107 5.68586L22.0456 4.12434C21.3757 4.03884 20.6931 3.99465 20 3.99457C19.3299 3.99449 18.6695 4.03627 18.0209 4.11621L17.3697 5.62902L16.0906 4.47622C14.5826 4.85491 13.1598 5.44781 11.8555 6.22056L11.7643 7.68749L10.3908 7.20012C9.20198 8.09419 8.14215 9.15031 7.24301 10.3352L7.80058 11.9225L6.1658 11.9488C5.49448 13.0998 4.9622 14.3418 4.59301 15.6522L6.09793 17.1251L4.12327 17.9624C4.03842 18.6296 3.99463 19.3096 3.99463 20C3.99455 20.7639 4.04921 21.5149 4.15266 22.2502L5.68592 23.0098L4.54133 24.1592C4.90045 25.4975 5.42799 26.7669 6.10115 27.9424L8.11953 27.9777L7.35805 29.8164C8.22281 30.9283 9.23096 31.923 10.3549 32.7731L11.9052 32.2372L11.9356 33.8273C13.0865 34.4999 14.3285 35.0335 15.6392 35.4038L16.9853 34.0209L17.8248 35.8576C18.5362 35.9543 19.262 36.0053 19.9999 36.0053C20.7202 36.0053 21.4291 35.9569 22.1242 35.8647L22.8876 34.2245L24.1409 35.4632C25.4866 35.1038 26.7628 34.5742 27.9441 33.8975L27.9778 32.0099L29.7401 32.7C30.7705 31.9086 31.7016 30.9949 32.5121 29.9803C32.0453 28.9433 31.6564 28.0962 31.6269 28.0851C31.5968 28.0739 32.6066 28.0553 33.8433 28.0369C34.4959 26.9153 35.0161 25.7075 35.3826 24.4343L34.0419 23.1703L35.8407 22.2963C35.9485 21.5463 36.0054 20.7798 36.0054 19.9999C36.0054 19.3824 35.9692 18.7735 35.9012 18.1742L34.2247 17.5157L35.5214 16.0817Z" fill="#FEDF30"/>
<path d="M33.4503 20C33.4503 27.4283 27.4284 33.4502 20 33.4502C12.5717 33.4502 6.54924 27.4284 6.5498 20C6.55045 12.5714 12.5746 6.54894 20 6.54974C27.4285 6.55055 33.4503 12.5716 33.4503 20Z" fill="#FED402"/>
<path d="M24.3449 31.2773C16.9165 31.2773 10.8946 25.2554 10.8946 17.827C10.8946 13.433 13.0027 9.53071 16.2615 7.07617C10.6525 8.6963 6.5498 13.8693 6.5498 20C6.5498 27.4283 12.5717 33.4502 20 33.4502C23.0344 33.4502 25.8346 32.4446 28.085 30.7496C26.8978 31.0925 25.6425 31.2773 24.3449 31.2773Z" fill="#FAC600"/>
<path d="M30.3632 20C30.3632 25.7236 25.7233 30.3635 19.9997 30.3635C14.2761 30.3635 9.63575 25.7236 9.63623 20C9.63671 14.2762 14.2784 9.63583 19.9997 9.63647C25.7233 9.63712 30.3632 14.2764 30.3632 20Z" fill="#FEDF30"/>
<path d="M9.63623 20C9.63575 25.5289 13.966 30.0462 19.4199 30.347C14.4276 28.3818 10.8943 23.5171 10.8943 17.827C10.8943 16.5907 11.0612 15.3932 11.3736 14.2559C10.2766 15.9001 9.63639 17.8753 9.63623 20Z" fill="#FED402"/>
<path d="M17.1497 13.2363L14.7464 19.2959C14.6278 19.5949 14.8481 19.9195 15.1699 19.9195H18.6848C18.9762 19.9195 19.1927 20.1891 19.1297 20.4736L17.6216 27.2873C17.5157 27.7658 18.1364 28.0512 18.4307 27.6594L25.2524 18.5766C25.4779 18.2763 25.2636 17.8474 24.8881 17.8474H23.233C22.8739 17.8474 22.656 17.4512 22.8481 17.1479L25.0658 13.6481C25.2581 13.3448 25.0401 12.9486 24.681 12.9486H17.5732C17.3864 12.9487 17.2186 13.0627 17.1497 13.2363Z" fill="#FFF9E2"/>
</g>
<defs>
<clipPath id="clip0_898_1370">
<rect width="40" height="40" fill="white"/>
</clipPath>
</defs>
</svg>
