<svg width="60" height="60" viewBox="0 0 60 60" fill="none" xmlns="http://www.w3.org/2000/svg">
<path fill-rule="evenodd" clip-rule="evenodd" d="M37.5379 15.5096C37.5379 11.3462 34.1633 7.97156 30 7.97156C25.8367 7.97156 22.4622 11.3462 22.4622 15.5096C22.4622 17.2964 23.0824 18.9382 24.1241 20.2328L30.0018 23.1913L35.876 20.2328C36.9176 18.9382 37.5379 17.2964 37.5379 15.5096Z" fill="#FFD772"/>
<path fill-rule="evenodd" clip-rule="evenodd" d="M58.3207 41.0296H1.67932L2.76518 34.9903L3.0851 33.2064L4.01042 28.0555L4.33151 26.2716L5.12709 21.8438C5.32338 20.978 6.08803 20.243 7.07991 20.2299L17.742 20.231H19.5426L29.1081 20.2322H30.8921L52.9201 20.2299C53.912 20.243 54.6768 20.978 54.873 21.8438L55.6687 26.2716L55.9897 28.0555L56.9151 33.2064L57.235 34.9903L58.3207 41.0296Z" fill="#A1D4FF"/>
<path d="M44.6207 16.4017H41.4215C40.9288 16.4017 40.5296 16.0023 40.5296 15.5098C40.5296 15.0171 40.9288 14.6179 41.4215 14.6179H44.6207C45.1133 14.6179 45.5127 15.0172 45.5127 15.5098C45.5127 16.0023 45.1133 16.4017 44.6207 16.4017ZM18.5786 16.4017H15.3828C14.8901 16.4017 14.4908 16.0023 14.4908 15.5098C14.4908 15.0171 14.8902 14.6179 15.3828 14.6179H18.5786C19.0712 14.6179 19.4705 15.0172 19.4705 15.5098C19.4705 16.0023 19.0711 16.4017 18.5786 16.4017Z" fill="#FFD772"/>
<path d="M38.0773 8.32748C37.8493 8.32748 37.6212 8.24064 37.447 8.06674C37.0985 7.71869 37.098 7.15396 37.446 6.80533L39.7048 4.54326C40.053 4.19463 40.6177 4.19416 40.9664 4.54232C41.3149 4.89037 41.3153 5.4551 40.9673 5.80373L38.7085 8.0658C38.5344 8.24029 38.3057 8.32748 38.0773 8.32748Z" fill="#FFD772"/>
<path d="M21.9262 8.32748C21.6979 8.32748 21.4696 8.24041 21.2955 8.06627L19.0334 5.8042C18.685 5.4558 18.685 4.89107 19.0334 4.54279C19.3817 4.19439 19.9465 4.19439 20.2948 4.54279L22.5569 6.80486C22.9053 7.15326 22.9053 7.71799 22.5569 8.06627C22.3827 8.24041 22.1543 8.32748 21.9262 8.32748Z" fill="#FFD772"/>
<path d="M30.0001 4.97988C29.5074 4.97988 29.1082 4.58051 29.1082 4.08797V0.891914C29.1082 0.399375 29.5074 0 30.0001 0C30.4927 0 30.8921 0.399375 30.8921 0.891914V4.08785C30.8921 4.58051 30.4927 4.97988 30.0001 4.97988Z" fill="#FFD772"/>
<path fill-rule="evenodd" clip-rule="evenodd" d="M33.0509 45.9385L29.9765 44.2057L26.9458 45.9385L26.9492 50.8706L30.0439 52.2967L33.0509 50.8706V45.9385Z" fill="#375E7D"/>
<path fill-rule="evenodd" clip-rule="evenodd" d="M58.3207 41.0296H35.1711C36.3651 39.1934 37.244 37.1584 37.7399 34.9903C37.8077 34.6954 37.8684 34.3981 37.9219 34.0984C37.9743 33.8035 38.0194 33.5062 38.0563 33.2064C38.1538 32.4369 38.205 31.6555 38.205 30.8588C38.205 29.9085 38.1325 28.9725 37.9934 28.0557C37.9482 27.756 37.8947 27.4586 37.8352 27.1637C37.7733 26.8641 37.7056 26.5667 37.6294 26.2718C37.0716 24.0966 36.1261 22.0593 34.8643 20.2326H35.8763L40.4455 20.2314H42.245L52.92 20.2302C53.9119 20.2433 54.6767 20.9783 54.8729 21.8441L55.6686 26.2719L55.9897 28.0559L56.915 33.2067L57.2349 34.9907L58.3207 41.0296Z" fill="#75CEF8"/>
<path d="M45.0767 41.0296L44.2549 34.9903H57.2349L56.915 33.2064H44.0123L43.3106 28.0555H55.9897L55.6686 26.2716H43.0679L42.2449 20.2311H40.4455L41.2673 26.2716H30.8919V20.2323H29.1079V26.2716H18.7052L19.5425 20.2311H17.7419L16.9035 26.2716H4.33135L4.01025 28.0555H16.6561L15.9413 33.2064H3.08506L2.76514 34.9903H15.694L14.8567 41.0296L14.7044 42.1249C14.6367 42.6125 14.978 43.0632 15.4656 43.1299C15.5072 43.1359 15.5488 43.1382 15.5893 43.1382C16.0282 43.1382 16.41 42.8148 16.4717 42.3688L16.6572 41.0297L17.4957 34.9904H29.1081V42.1452C29.1081 42.6935 29.5077 43.1382 30 43.1382C30.4924 43.1382 30.892 42.6934 30.892 42.1452V34.9904H42.4543L43.2773 41.0297L43.6044 43.4357C43.6663 43.8829 44.0479 44.2063 44.4868 44.2063C44.5272 44.2063 44.5688 44.2028 44.6104 44.1968C45.0981 44.1302 45.4394 43.6794 45.3716 43.1918L45.0767 41.0296ZM29.1081 33.2064H17.7431L18.4567 28.0555H29.1079V33.2064H29.1081ZM30.892 33.2064V28.0555H41.51L42.2117 33.2064H30.892Z" fill="#22A6FE"/>
<path fill-rule="evenodd" clip-rule="evenodd" d="M30 41.03H1.67897L1.31147 43.3494C1.07217 44.8428 2.10365 45.8981 3.61397 45.8981H56.386C57.8963 45.8981 58.9278 44.843 58.6885 43.3494L58.321 41.03H35.1714H30Z" fill="#F9F7F8"/>
<path fill-rule="evenodd" clip-rule="evenodd" d="M58.6885 43.3494L58.321 41.03H48.8649L49.2324 43.3494C49.4717 44.8428 48.4402 45.8981 46.9299 45.8981H56.386C57.8962 45.8981 58.9278 44.8428 58.6885 43.3494Z" fill="#E5E4EC"/>
<path fill-rule="evenodd" clip-rule="evenodd" d="M33.0509 50.8706V45.9385L30.4214 45.9452L30.1416 45.9419V50.8706H32.7441H33.0509Z" fill="#2B4D66"/>
<path fill-rule="evenodd" clip-rule="evenodd" d="M37.5379 15.5096C37.5379 11.3462 34.1634 7.97156 30.0001 7.97156C28.1763 7.97156 26.5041 8.61878 25.1996 9.69761C29.2585 9.81902 32.5082 13.1464 32.5082 17.2323C32.5082 18.2977 32.2857 19.3124 31.8879 20.2327H34.8646H35.876C36.9176 18.9382 37.5379 17.2964 37.5379 15.5096Z" fill="#FBBA58"/>
<path fill-rule="evenodd" clip-rule="evenodd" d="M33.0508 50.8706H26.949H24.3499C23.1868 50.8706 22.2328 51.8246 22.2328 52.9877V55.2532L30.2561 56.9489L37.767 55.2532V52.9877C37.767 51.8246 36.813 50.8706 35.6499 50.8706H33.0508Z" fill="#F9F7F8"/>
<path fill-rule="evenodd" clip-rule="evenodd" d="M37.7673 52.9878C37.7673 51.8248 36.8132 50.8707 35.6502 50.8707H33.0509H32.7441C33.9072 50.8707 34.8613 51.8248 34.8613 52.9878V55.2533H37.3592H37.7671V52.9878H37.7673Z" fill="#E5E4EC"/>
<path fill-rule="evenodd" clip-rule="evenodd" d="M37.7673 55.2533H22.2329H19.7349C18.4741 55.2533 17.4392 56.2849 17.4392 57.5457V59.4943C17.4392 59.7708 17.6684 60 17.9483 60H42.0554C42.3318 60 42.561 59.7708 42.561 59.4943V57.5457C42.561 56.2849 41.5294 55.2533 40.2653 55.2533H37.7673Z" fill="#375E7D"/>
<path fill-rule="evenodd" clip-rule="evenodd" d="M42.5609 57.5457C42.5609 56.2849 41.5293 55.2533 40.2652 55.2533H37.7672H37.3593C38.6201 55.2533 39.6517 56.2849 39.6517 57.5457V59.4943C39.6517 59.7708 39.4259 60 39.146 60H42.0553C42.3318 60 42.561 59.7708 42.561 59.4943V57.5457H42.5609Z" fill="#2B4D66"/>
</svg>
