<svg width="48" height="48" viewBox="0 0 48 48" fill="none" xmlns="http://www.w3.org/2000/svg">
<g clip-path="url(#clip0_412_2983)">
<path d="M13.6 47.2001L17.6 41.6001H9.59998V47.2001H13.6Z" fill="#547580"/>
<path d="M34.4 47.2001L30.4 41.6001H38.4V47.2001H34.4Z" fill="#547580"/>
<path d="M18.4 7.20007H23.2V10.4001H18.4V7.20007Z" fill="#BDC3C7"/>
<path d="M29.6 10.4H24.8V7.20002H29.6V10.4Z" fill="#BDC3C7"/>
<path d="M22.4 3.20007H25.6V14.4001H22.4V3.20007Z" fill="#547580"/>
<path d="M26.4 0.800049H21.6C20.7163 0.800049 20 1.51639 20 2.40005C20 3.2837 20.7163 4.00005 21.6 4.00005H26.4C27.2837 4.00005 28 3.2837 28 2.40005C28 1.51639 27.2837 0.800049 26.4 0.800049Z" fill="#BDC3C7"/>
<path d="M18.4 12.0001C18.1878 12.0001 17.9843 11.9158 17.8343 11.7658C17.6843 11.6158 17.6 11.4123 17.6 11.2001V6.4001C17.6 6.18792 17.6843 5.98444 17.8343 5.83441C17.9843 5.68438 18.1878 5.6001 18.4 5.6001C18.6121 5.6001 18.8156 5.68438 18.9657 5.83441C19.1157 5.98444 19.2 6.18792 19.2 6.4001V11.2001C19.2 11.4123 19.1157 11.6158 18.9657 11.7658C18.8156 11.9158 18.6121 12.0001 18.4 12.0001Z" fill="#F3D55B"/>
<path d="M29.6 12.0001C29.3878 12.0001 29.1843 11.9158 29.0343 11.7658C28.8843 11.6158 28.8 11.4123 28.8 11.2001V6.4001C28.8 6.18792 28.8843 5.98444 29.0343 5.83441C29.1843 5.68438 29.3878 5.6001 29.6 5.6001C29.8122 5.6001 30.0156 5.68438 30.1657 5.83441C30.3157 5.98444 30.4 6.18792 30.4 6.4001V11.2001C30.4 11.4123 30.3157 11.6158 30.1657 11.7658C30.0156 11.9158 29.8122 12.0001 29.6 12.0001Z" fill="#F3D55B"/>
<path d="M18.5064 13.6001H29.4664C29.7618 13.6001 30.0543 13.6583 30.3273 13.7713C30.6002 13.8844 30.8482 14.0501 31.0571 14.259C31.266 14.4679 31.4317 14.7159 31.5447 14.9888C31.6578 15.2617 31.716 15.5543 31.716 15.8497V17.6001H16.2568V15.8505C16.2568 15.2538 16.4938 14.6815 16.9156 14.2595C17.3375 13.8375 17.9097 13.6003 18.5064 13.6001Z" fill="#BDC3C7"/>
<path d="M47.168 24.8V34.4001C47.168 36.5163 46.3295 38.5462 44.8362 40.0456C43.3428 41.545 41.3162 42.3916 39.2 42.4001H8.79999C7.74941 42.4001 6.70913 42.1931 5.73852 41.7911C4.76792 41.389 3.886 40.7998 3.14313 40.0569C2.40026 39.314 1.81099 38.4321 1.40895 37.4615C1.00691 36.4909 0.799988 35.4506 0.799988 34.4001V24.8C0.799988 22.6783 1.64284 20.6435 3.14313 19.1432C4.64342 17.6429 6.67826 16.8 8.79999 16.8H39.2C41.3162 16.8085 43.3428 17.6551 44.8362 19.1545C46.3295 20.6539 47.168 22.6839 47.168 24.8Z" fill="#84B5CB"/>
<path d="M47.168 24.8V34.4001C47.168 36.5163 46.3296 38.5462 44.8362 40.0456C43.3428 41.545 41.3162 42.3916 39.2 42.4001V16.8C41.3162 16.8085 43.3428 17.6551 44.8362 19.1545C46.3296 20.6539 47.168 22.6839 47.168 24.8Z" fill="#E57E25"/>
<path d="M8.79999 16.8V42.4001C7.74941 42.4001 6.70913 42.1931 5.73852 41.7911C4.76792 41.389 3.886 40.7998 3.14313 40.0569C2.40026 39.314 1.81099 38.4321 1.40895 37.4615C1.00691 36.4909 0.799988 35.4506 0.799988 34.4001V24.8C0.799988 22.6783 1.64284 20.6435 3.14313 19.1432C4.64342 17.6429 6.67826 16.8 8.79999 16.8Z" fill="#E57E25"/>
<path d="M8.79999 16.8H39.2V42.4001H8.79999V16.8Z" fill="#F29C1F"/>
<path d="M47.2 48H0.8C0.587827 48 0.384344 47.9157 0.234315 47.7657C0.0842855 47.6157 0 47.4122 0 47.2C0 46.9879 0.0842855 46.7844 0.234315 46.6343C0.384344 46.4843 0.587827 46.4 0.8 46.4H47.2C47.4122 46.4 47.6157 46.4843 47.7657 46.6343C47.9157 46.7844 48 46.9879 48 47.2C48 47.4122 47.9157 47.6157 47.7657 47.7657C47.6157 47.9157 47.4122 48 47.2 48Z" fill="#3F5C6C"/>
<path d="M31.2 34.4001H28.832C30.824 32.9161 32 31.8161 32 29.6001C32 28.7515 31.6628 27.9375 31.0627 27.3374C30.4626 26.7373 29.6487 26.4001 28.8 26.4001C27.9513 26.4001 27.1374 26.7373 26.5372 27.3374C25.9371 27.9375 25.6 28.7515 25.6 29.6001C25.6 29.8123 25.6843 30.0158 25.8343 30.1658C25.9843 30.3159 26.1878 30.4001 26.4 30.4001C26.6121 30.4001 26.8156 30.3159 26.9657 30.1658C27.1157 30.0158 27.2 29.8123 27.2 29.6001C27.2 29.1758 27.3685 28.7688 27.6686 28.4688C27.9687 28.1687 28.3756 28.0001 28.8 28.0001C29.2243 28.0001 29.6313 28.1687 29.9313 28.4688C30.2314 28.7688 30.4 29.1758 30.4 29.6001C30.4 31.2001 29.6136 31.8489 27.1272 33.6681C26.7536 33.9417 26.3512 34.2361 25.92 34.5601C25.7857 34.6609 25.6864 34.8013 25.6364 34.9616C25.5863 35.1219 25.5879 35.2938 25.641 35.4531C25.6941 35.6124 25.796 35.751 25.9322 35.8491C26.0684 35.9473 26.2321 36.0001 26.4 36.0001H31.2C31.4121 36.0001 31.6156 35.9159 31.7657 35.7658C31.9157 35.6158 32 35.4123 32 35.2001C32 34.988 31.9157 34.7845 31.7657 34.6345C31.6156 34.4844 31.4121 34.4001 31.2 34.4001Z" fill="white"/>
<path d="M23.2 21.6001C22.9878 21.6001 22.7843 21.6844 22.6343 21.8344C22.4843 21.9844 22.4 22.1879 22.4 22.4001V26.4001H17.6V22.4001C17.6 22.1879 17.5157 21.9844 17.3657 21.8344C17.2157 21.6844 17.0122 21.6001 16.8 21.6001C16.5878 21.6001 16.3843 21.6844 16.2343 21.8344C16.0843 21.9844 16 22.1879 16 22.4001V32.8001C16 33.0123 16.0843 33.2158 16.2343 33.3658C16.3843 33.5158 16.5878 33.6001 16.8 33.6001C17.0122 33.6001 17.2157 33.5158 17.3657 33.3658C17.5157 33.2158 17.6 33.0123 17.6 32.8001V28.0001H22.4V32.8001C22.4 33.0123 22.4843 33.2158 22.6343 33.3658C22.7843 33.5158 22.9878 33.6001 23.2 33.6001C23.4122 33.6001 23.6157 33.5158 23.7657 33.3658C23.9157 33.2158 24 33.0123 24 32.8001V22.4001C24 22.1879 23.9157 21.9844 23.7657 21.8344C23.6157 21.6844 23.4122 21.6001 23.2 21.6001Z" fill="white"/>
</g>
<defs>
<clipPath id="clip0_412_2983">
<rect width="48" height="48" fill="white"/>
</clipPath>
</defs>
</svg>
