<svg width="48" height="48" viewBox="0 0 48 48" fill="none" xmlns="http://www.w3.org/2000/svg">
<path d="M34.931 45.5172V22.3448L36.5862 20.6896V19.0344H5.13794V20.6896L6.79311 22.3448V45.5172C6.79311 46.1756 7.05469 46.8071 7.52029 47.2728C7.9859 47.7384 8.6174 47.9999 9.27587 47.9999H32.4483C33.1068 47.9999 33.7383 47.7384 34.2039 47.2728C34.6695 46.8071 34.931 46.1756 34.931 45.5172Z" fill="#BBEDF2"/>
<path d="M34.931 28.9655L33.1829 27.2173C32.5298 26.5643 31.6563 26.179 30.7337 26.1372C29.8111 26.0953 28.9062 26.3999 28.1968 26.9911C27.5317 27.5454 26.6933 27.8489 25.8276 27.8489C24.9618 27.8489 24.1235 27.5454 23.4584 26.9911C22.7295 26.3838 21.8108 26.0511 20.8621 26.0511C19.9133 26.0511 18.9946 26.3838 18.2658 26.9911H18.2658C17.6007 27.5454 16.7623 27.8489 15.8965 27.8489C15.0308 27.8489 14.1924 27.5454 13.5273 26.9911H13.5273C12.8179 26.3999 11.913 26.0953 10.9904 26.1372C10.0679 26.179 9.19429 26.5643 8.54127 27.2173L6.79309 28.9655V45.5172C6.79309 46.1757 7.05467 46.8072 7.52027 47.2728C7.98588 47.7384 8.61738 48 9.27585 48H32.4483C33.1067 48 33.7382 47.7384 34.2038 47.2728C34.6694 46.8072 34.931 46.1757 34.931 45.5172V28.9655Z" fill="#8BE0E8"/>
<path d="M18.3793 9.93103H23.3449V13.2414H18.3793V9.93103Z" fill="#E0EDFF"/>
<path d="M14.2414 15.7241H17.5517V40.5517H14.2414V15.7241Z" fill="#E0EDFF"/>
<path d="M24.1724 15.7241H27.4828V40.5517H24.1724V15.7241Z" fill="#E0EDFF"/>
<path d="M16.7241 15.7242H15.069V11.5863C15.069 11.3668 15.1562 11.1563 15.3114 11.0011C15.4666 10.8459 15.6771 10.7587 15.8966 10.7587H18.3793V12.4138H16.7241V15.7242Z" fill="#BDD1F2"/>
<path d="M26.6552 15.7242H25V12.4138H23.3448V10.7587H25.8276C26.0471 10.7587 26.2576 10.8459 26.4128 11.0011C26.568 11.1563 26.6552 11.3668 26.6552 11.5863V15.7242Z" fill="#BDD1F2"/>
<path d="M30.7931 39.7241C31.2502 39.7241 31.6207 39.3536 31.6207 38.8966C31.6207 38.4395 31.2502 38.069 30.7931 38.069C30.336 38.069 29.9655 38.4395 29.9655 38.8966C29.9655 39.3536 30.336 39.7241 30.7931 39.7241Z" fill="#5BD2DE"/>
<path d="M20.0345 43.8621C20.4916 43.8621 20.8621 43.4916 20.8621 43.0345C20.8621 42.5774 20.4916 42.2069 20.0345 42.2069C19.5774 42.2069 19.2069 42.5774 19.2069 43.0345C19.2069 43.4916 19.5774 43.8621 20.0345 43.8621Z" fill="#5BD2DE"/>
<path d="M10.1035 42.2069C10.5605 42.2069 10.9311 41.8364 10.9311 41.3793C10.9311 40.9223 10.5605 40.5518 10.1035 40.5518C9.6464 40.5518 9.27588 40.9223 9.27588 41.3793C9.27588 41.8364 9.6464 42.2069 10.1035 42.2069Z" fill="#5BD2DE"/>
<path d="M11.7586 38.069C12.2157 38.069 12.5862 37.6985 12.5862 37.2414C12.5862 36.7843 12.2157 36.4138 11.7586 36.4138C11.3016 36.4138 10.931 36.7843 10.931 37.2414C10.931 37.6985 11.3016 38.069 11.7586 38.069Z" fill="#5BD2DE"/>
<path d="M21.6896 38.8965C22.1467 38.8965 22.5172 38.526 22.5172 38.0689C22.5172 37.6119 22.1467 37.2413 21.6896 37.2413C21.2326 37.2413 20.8621 37.6119 20.8621 38.0689C20.8621 38.526 21.2326 38.8965 21.6896 38.8965Z" fill="#5BD2DE"/>
<path d="M24.1724 43.8621C24.6295 43.8621 25 43.4916 25 43.0345C25 42.5774 24.6295 42.2069 24.1724 42.2069C23.7154 42.2069 23.3448 42.5774 23.3448 43.0345C23.3448 43.4916 23.7154 43.8621 24.1724 43.8621Z" fill="#5BD2DE"/>
<path d="M15.069 44.6896C15.526 44.6896 15.8966 44.3191 15.8966 43.862C15.8966 43.4049 15.526 43.0344 15.069 43.0344C14.6119 43.0344 14.2414 43.4049 14.2414 43.862C14.2414 44.3191 14.6119 44.6896 15.069 44.6896Z" fill="#5BD2DE"/>
<path d="M10.931 46.3449C11.3881 46.3449 11.7586 45.9743 11.7586 45.5173C11.7586 45.0602 11.3881 44.6897 10.931 44.6897C10.474 44.6897 10.1035 45.0602 10.1035 45.5173C10.1035 45.9743 10.474 46.3449 10.931 46.3449Z" fill="#5BD2DE"/>
<path d="M27.4827 46.3449C27.9398 46.3449 28.3103 45.9743 28.3103 45.5173C28.3103 45.0602 27.9398 44.6897 27.4827 44.6897C27.0257 44.6897 26.6552 45.0602 26.6552 45.5173C26.6552 45.9743 27.0257 46.3449 27.4827 46.3449Z" fill="#5BD2DE"/>
<path d="M31.6207 44.6896C32.0777 44.6896 32.4483 44.3191 32.4483 43.862C32.4483 43.4049 32.0777 43.0344 31.6207 43.0344C31.1636 43.0344 30.7931 43.4049 30.7931 43.862C30.7931 44.3191 31.1636 44.6896 31.6207 44.6896Z" fill="#5BD2DE"/>
<path d="M37.4138 13.2414C38.785 13.2414 39.8965 12.1298 39.8965 10.7586C39.8965 9.38745 38.785 8.27588 37.4138 8.27588C36.0426 8.27588 34.931 9.38745 34.931 10.7586C34.931 12.1298 36.0426 13.2414 37.4138 13.2414Z" fill="#FFC431"/>
<path d="M44.0345 9.10346C45.4056 9.10346 46.5172 7.99189 46.5172 6.6207C46.5172 5.24951 45.4056 4.13794 44.0345 4.13794C42.6633 4.13794 41.5517 5.24951 41.5517 6.6207C41.5517 7.99189 42.6633 9.10346 44.0345 9.10346Z" fill="#FFC431"/>
<path d="M37.4138 4.96552C38.785 4.96552 39.8965 3.85395 39.8965 2.48276C39.8965 1.11157 38.785 0 37.4138 0C36.0426 0 34.931 1.11157 34.931 2.48276C34.931 3.85395 36.0426 4.96552 37.4138 4.96552Z" fill="#FFC431"/>
<path d="M31.6207 19.0345H29.9655V6.62068C29.9655 6.40119 30.0527 6.19069 30.2079 6.03549C30.3631 5.88029 30.5736 5.79309 30.7931 5.79309H33.2759V7.44826H31.6207V19.0345Z" fill="#E0EDFF"/>
<path d="M3.48276 9.10346C4.85395 9.10346 5.96552 7.99189 5.96552 6.6207C5.96552 5.24951 4.85395 4.13794 3.48276 4.13794C2.11157 4.13794 1 5.24951 1 6.6207C1 7.99189 2.11157 9.10346 3.48276 9.10346Z" fill="#FFC431"/>
<path d="M11.7586 19.0345H10.1035V7.44826H8.4483V5.79309H10.9311C11.1506 5.79309 11.361 5.88029 11.5163 6.03549C11.6715 6.19069 11.7586 6.40119 11.7586 6.62068V19.0345Z" fill="#E0EDFF"/>
</svg>
