<svg width="48" height="48" viewBox="0 0 48 48" fill="none" xmlns="http://www.w3.org/2000/svg">
<g clip-path="url(#clip0_412_2934)">
<path d="M5.59998 8.80005H10.4V13.6H5.59998V8.80005Z" fill="#BDC3C7"/>
<path d="M21.6 8.80005H26.4V13.6H21.6V8.80005Z" fill="#BDC3C7"/>
<path d="M37.6 8.80005H42.4V13.6H37.6V8.80005Z" fill="#BDC3C7"/>
<path d="M6.39998 12.8H9.59998C10.873 12.8 12.0939 13.3058 12.9941 14.2059C13.8943 15.1061 14.4 16.327 14.4 17.6V44C14.4 44.8487 14.0628 45.6627 13.4627 46.2628C12.8626 46.8629 12.0487 47.2001 11.2 47.2001H4.79998C3.95128 47.2001 3.13735 46.8629 2.53723 46.2628C1.93712 45.6627 1.59998 44.8487 1.59998 44V17.6C1.59998 16.327 2.10569 15.1061 3.00586 14.2059C3.90604 13.3058 5.12694 12.8 6.39998 12.8Z" fill="#F29C1F"/>
<path d="M22.4 12.8H25.6C26.873 12.8 28.0939 13.3058 28.9941 14.2059C29.8943 15.1061 30.4 16.327 30.4 17.6V44C30.4 44.8487 30.0628 45.6627 29.4627 46.2628C28.8626 46.8629 28.0487 47.2001 27.2 47.2001H20.8C19.9513 47.2001 19.1374 46.8629 18.5372 46.2628C17.9371 45.6627 17.6 44.8487 17.6 44V17.6C17.6 16.327 18.1057 15.1061 19.0059 14.2059C19.906 13.3058 21.1269 12.8 22.4 12.8Z" fill="#F29C1F"/>
<path d="M38.4 12.8H41.6C42.873 12.8 44.0939 13.3058 44.9941 14.2059C45.8943 15.1061 46.4 16.327 46.4 17.6V44C46.4 44.8487 46.0628 45.6627 45.4627 46.2628C44.8626 46.8629 44.0487 47.2001 43.2 47.2001H36.8C35.9513 47.2001 35.1374 46.8629 34.5372 46.2628C33.9371 45.6627 33.6 44.8487 33.6 44V17.6C33.6 16.327 34.1057 15.1061 35.0059 14.2059C35.906 13.3058 37.1269 12.8 38.4 12.8Z" fill="#F29C1F"/>
<path d="M23.2 26.4C23.2 26.6122 23.2843 26.8157 23.4343 26.9657C23.5843 27.1157 23.7878 27.2 24 27.2C24.2122 27.2 24.4157 27.1157 24.5657 26.9657C24.7157 26.8157 24.8 26.6122 24.8 26.4V23.2C24.8 22.9879 24.7157 22.7844 24.5657 22.6343C24.4157 22.4843 24.2122 22.4 24 22.4C23.7878 22.4 23.5843 22.4843 23.4343 22.6343C23.2843 22.7844 23.2 22.9879 23.2 23.2V24.8H21.6V23.2C21.6 22.9879 21.5157 22.7844 21.3657 22.6343C21.2157 22.4843 21.0122 22.4 20.8 22.4C20.5878 22.4 20.3843 22.4843 20.2343 22.6343C20.0843 22.7844 20 22.9879 20 23.2V28C20 28.2122 20.0843 28.4157 20.2343 28.5657C20.3843 28.7157 20.5878 28.8 20.8 28.8C21.0122 28.8 21.2157 28.7157 21.3657 28.5657C21.5157 28.4157 21.6 28.2122 21.6 28V26.4H23.2Z" fill="white"/>
<path d="M28 30.24C27.9584 29.6318 27.6875 29.0621 27.242 28.646C26.7965 28.2299 26.2096 27.9984 25.6 27.9984C24.9904 27.9984 24.4035 28.2299 23.958 28.646C23.5125 29.0621 23.2416 29.6318 23.2 30.24C23.2 30.4521 23.2843 30.6556 23.4343 30.8057C23.5843 30.9557 23.7878 31.04 24 31.04C24.2122 31.04 24.4157 30.9557 24.5657 30.8057C24.7157 30.6556 24.8 30.4521 24.8 30.24C24.8409 30.0583 24.9424 29.896 25.0878 29.7797C25.2332 29.6633 25.4138 29.6 25.6 29.6C25.7862 29.6 25.9669 29.6633 26.1123 29.7797C26.2577 29.896 26.3591 30.0583 26.4 30.24C26.4 31.0216 25.9432 31.36 24.36 32.4C24.1096 32.5648 23.8408 32.7424 23.552 32.9368C23.4099 33.0326 23.3024 33.1715 23.2452 33.3331C23.1881 33.4947 23.1843 33.6703 23.2345 33.8342C23.2846 33.998 23.3861 34.1415 23.5239 34.2433C23.6617 34.3452 23.8286 34.4001 24 34.4H27.2C27.4122 34.4 27.6157 34.3157 27.7657 34.1657C27.9157 34.0156 28 33.8121 28 33.6C28 33.3878 27.9157 33.1843 27.7657 33.0343C27.6157 32.8843 27.4122 32.8 27.2 32.8H26.5888C27.0207 32.5268 27.3766 32.1488 27.6233 31.7013C27.87 31.2537 27.9996 30.751 28 30.24Z" fill="white"/>
<path d="M7.2 26.4C7.2 26.6122 7.28429 26.8157 7.43431 26.9657C7.58434 27.1157 7.78783 27.2 8 27.2C8.21217 27.2 8.41566 27.1157 8.56569 26.9657C8.71571 26.8157 8.8 26.6122 8.8 26.4V23.2C8.8 22.9879 8.71571 22.7844 8.56569 22.6343C8.41566 22.4843 8.21217 22.4 8 22.4C7.78783 22.4 7.58434 22.4843 7.43431 22.6343C7.28429 22.7844 7.2 22.9879 7.2 23.2V24.8H5.6V23.2C5.6 22.9879 5.51571 22.7844 5.36569 22.6343C5.21566 22.4843 5.01217 22.4 4.8 22.4C4.58783 22.4 4.38434 22.4843 4.23431 22.6343C4.08429 22.7844 4 22.9879 4 23.2V28C4 28.2122 4.08429 28.4157 4.23431 28.5657C4.38434 28.7157 4.58783 28.8 4.8 28.8C5.01217 28.8 5.21566 28.7157 5.36569 28.5657C5.51571 28.4157 5.6 28.2122 5.6 28V26.4H7.2Z" fill="white"/>
<path d="M12 30.24C11.9773 29.6252 11.712 29.0444 11.2623 28.6247C10.8125 28.2049 10.2149 27.9803 9.6 28C8.98512 27.9803 8.38747 28.2049 7.93772 28.6247C7.48798 29.0444 7.22274 29.6252 7.2 30.24C7.2 30.4521 7.28429 30.6556 7.43432 30.8057C7.58435 30.9557 7.78783 31.04 8 31.04C8.21218 31.04 8.41566 30.9557 8.56569 30.8057C8.71572 30.6556 8.8 30.4521 8.8 30.24C8.82578 30.051 8.9232 29.8792 9.07211 29.7601C9.22101 29.641 9.41001 29.5836 9.6 29.6C9.79 29.5836 9.97899 29.641 10.1279 29.7601C10.2768 29.8792 10.3742 30.051 10.4 30.24C10.4 31.0216 9.9432 31.36 8.36 32.4C8.1096 32.5648 7.8408 32.7424 7.552 32.9368C7.40993 33.0326 7.30239 33.1715 7.24523 33.3331C7.18806 33.4947 7.18428 33.6703 7.23445 33.8342C7.28463 33.998 7.3861 34.1415 7.52392 34.2433C7.66174 34.3452 7.82863 34.4001 8 34.4H11.2C11.4122 34.4 11.6157 34.3157 11.7657 34.1657C11.9157 34.0156 12 33.8121 12 33.6C12 33.3878 11.9157 33.1843 11.7657 33.0343C11.6157 32.8843 11.4122 32.8 11.2 32.8H10.5888C11.0207 32.5268 11.3766 32.1488 11.6233 31.7013C11.87 31.2537 11.9996 30.751 12 30.24Z" fill="white"/>
<path d="M39.2 26.4C39.2 26.6122 39.2843 26.8157 39.4343 26.9657C39.5843 27.1157 39.7878 27.2 40 27.2C40.2122 27.2 40.4157 27.1157 40.5657 26.9657C40.7157 26.8157 40.8 26.6122 40.8 26.4V23.2C40.8 22.9879 40.7157 22.7844 40.5657 22.6343C40.4157 22.4843 40.2122 22.4 40 22.4C39.7878 22.4 39.5843 22.4843 39.4343 22.6343C39.2843 22.7844 39.2 22.9879 39.2 23.2V24.8H37.6V23.2C37.6 22.9879 37.5157 22.7844 37.3657 22.6343C37.2157 22.4843 37.0122 22.4 36.8 22.4C36.5878 22.4 36.3843 22.4843 36.2343 22.6343C36.0843 22.7844 36 22.9879 36 23.2V28C36 28.2122 36.0843 28.4157 36.2343 28.5657C36.3843 28.7157 36.5878 28.8 36.8 28.8C37.0122 28.8 37.2157 28.7157 37.3657 28.5657C37.5157 28.4157 37.6 28.2122 37.6 28V26.4H39.2Z" fill="white"/>
<path d="M43.2 32.8H42.5888C43.0207 32.5268 43.3766 32.1488 43.6233 31.7013C43.87 31.2537 43.9996 30.751 44 30.24C43.9584 29.6318 43.6875 29.0621 43.242 28.646C42.7965 28.2299 42.2096 27.9984 41.6 27.9984C40.9904 27.9984 40.4035 28.2299 39.958 28.646C39.5125 29.0621 39.2416 29.6318 39.2 30.24C39.2 30.4521 39.2843 30.6556 39.4343 30.8057C39.5843 30.9557 39.7878 31.04 40 31.04C40.2122 31.04 40.4157 30.9557 40.5657 30.8057C40.7157 30.6556 40.8 30.4521 40.8 30.24C40.8409 30.0583 40.9424 29.896 41.0878 29.7797C41.2332 29.6633 41.4138 29.6 41.6 29.6C41.7862 29.6 41.9669 29.6633 42.1123 29.7797C42.2576 29.896 42.3591 30.0583 42.4 30.24C42.4 31.0216 41.9432 31.36 40.36 32.4C40.1096 32.5648 39.8408 32.7424 39.552 32.9368C39.4099 33.0326 39.3024 33.1715 39.2452 33.3331C39.1881 33.4947 39.1843 33.6703 39.2345 33.8342C39.2846 33.998 39.3861 34.1415 39.5239 34.2433C39.6617 34.3452 39.8286 34.4001 40 34.4H43.2C43.4122 34.4 43.6157 34.3157 43.7657 34.1657C43.9157 34.0156 44 33.8121 44 33.6C44 33.3878 43.9157 33.1843 43.7657 33.0343C43.6157 32.8843 43.4122 32.8 43.2 32.8Z" fill="white"/>
<path d="M37.6 0H0.8C0.587827 0 0.384344 0.0842855 0.234315 0.234315C0.0842855 0.384344 0 0.587827 0 0.8C0 1.01217 0.0842855 1.21566 0.234315 1.36569C0.384344 1.51571 0.587827 1.6 0.8 1.6H5.6C6.02435 1.6 6.43131 1.76857 6.73137 2.06863C7.03143 2.36869 7.2 2.77565 7.2 3.2V6.4C7.2 6.61217 7.28429 6.81566 7.43432 6.96569C7.58434 7.11571 7.78783 7.2 8 7.2C8.21217 7.2 8.41566 7.11571 8.56569 6.96569C8.71572 6.81566 8.8 6.61217 8.8 6.4V3.2C8.79669 2.6366 8.64314 2.08428 8.3552 1.6H21.6C22.0243 1.6 22.4313 1.76857 22.7314 2.06863C23.0314 2.36869 23.2 2.77565 23.2 3.2V6.4C23.2 6.61217 23.2843 6.81566 23.4343 6.96569C23.5843 7.11571 23.7878 7.2 24 7.2C24.2122 7.2 24.4157 7.11571 24.5657 6.96569C24.7157 6.81566 24.8 6.61217 24.8 6.4V3.2C24.7967 2.6366 24.6431 2.08428 24.3552 1.6H37.6C38.0243 1.6 38.4313 1.76857 38.7314 2.06863C39.0314 2.36869 39.2 2.77565 39.2 3.2V6.4C39.2 6.61217 39.2843 6.81566 39.4343 6.96569C39.5843 7.11571 39.7878 7.2 40 7.2C40.2122 7.2 40.4157 7.11571 40.5657 6.96569C40.7157 6.81566 40.8 6.61217 40.8 6.4V3.2C40.8 2.35131 40.4629 1.53737 39.8627 0.937258C39.2626 0.337142 38.4487 0 37.6 0V0Z" fill="#3F5C6C"/>
<path d="M47.2 48H0.8C0.587827 48 0.384344 47.9157 0.234315 47.7657C0.0842855 47.6157 0 47.4122 0 47.2C0 46.9879 0.0842855 46.7844 0.234315 46.6343C0.384344 46.4843 0.587827 46.4 0.8 46.4H47.2C47.4122 46.4 47.6157 46.4843 47.7657 46.6343C47.9157 46.7844 48 46.9879 48 47.2C48 47.4122 47.9157 47.6157 47.7657 47.7657C47.6157 47.9157 47.4122 48 47.2 48Z" fill="#3F5C6C"/>
<path d="M10.4 6.40002H5.6C4.71634 6.40002 4 7.11637 4 8.00002C4 8.88368 4.71634 9.60002 5.6 9.60002H10.4C11.2837 9.60002 12 8.88368 12 8.00002C12 7.11637 11.2837 6.40002 10.4 6.40002Z" fill="#547580"/>
<path d="M26.4 6.40002H21.6C20.7163 6.40002 20 7.11637 20 8.00002C20 8.88368 20.7163 9.60002 21.6 9.60002H26.4C27.2837 9.60002 28 8.88368 28 8.00002C28 7.11637 27.2837 6.40002 26.4 6.40002Z" fill="#547580"/>
<path d="M42.4 6.40002H37.6C36.7163 6.40002 36 7.11637 36 8.00002C36 8.88368 36.7163 9.60002 37.6 9.60002H42.4C43.2837 9.60002 44 8.88368 44 8.00002C44 7.11637 43.2837 6.40002 42.4 6.40002Z" fill="#547580"/>
</g>
<defs>
<clipPath id="clip0_412_2934">
<rect width="48" height="48" fill="white"/>
</clipPath>
</defs>
</svg>
