<svg width="48" height="48" viewBox="0 0 48 48" fill="none" xmlns="http://www.w3.org/2000/svg">
<g clip-path="url(#clip0_412_2834)">
<path d="M4.6875 5.25V17.5781C6.32841 17.5781 7.65863 16.875 7.65863 16.875C7.65863 16.875 8.98884 16.1719 10.6298 16.1719C12.2707 16.1719 13.6009 16.875 13.6009 16.875C13.6009 16.875 14.9311 17.5781 16.572 17.5781C18.2129 17.5781 19.5431 16.875 19.5431 16.875C19.5431 16.875 20.8733 16.1719 22.5142 16.1719C24.1552 16.1719 25.4854 16.875 25.4854 16.875C25.4854 16.875 26.8156 17.5781 28.4565 17.5781C30.0974 17.5781 31.4276 16.875 31.4276 16.875C31.4276 16.875 32.7578 16.1719 34.3988 16.1719C36.0397 16.1719 37.3699 16.875 37.3699 16.875C37.3699 16.875 38.7001 17.5781 40.341 17.5781C41.9823 17.5781 43.3125 16.5938 43.3125 16.5938V5.25H47.0625V42.75H0.9375V5.25H4.6875Z" fill="white"/>
<path d="M4.6875 17.5781C6.32841 17.5781 7.65863 16.875 7.65863 16.875C7.65863 16.875 8.98884 16.1719 10.6298 16.1719C12.2707 16.1719 13.6009 16.875 13.6009 16.875C13.6009 16.875 14.9311 17.5781 16.572 17.5781C18.2129 17.5781 19.5431 16.875 19.5431 16.875C19.5431 16.875 20.8733 16.1719 22.5142 16.1719C24.1552 16.1719 25.4854 16.875 25.4854 16.875C25.4854 16.875 26.8156 17.5781 28.4565 17.5781C30.0974 17.5781 31.4276 16.875 31.4276 16.875C31.4276 16.875 32.7578 16.1719 34.3988 16.1719C36.0397 16.1719 37.3699 16.875 37.3699 16.875C37.3699 16.875 38.7001 17.5781 40.341 17.5781C41.9823 17.5781 43.3125 16.5938 43.3125 16.5938V39H4.6875V17.5781Z" fill="#8BE0E9"/>
<path d="M4.6875 7.96875H43.3125V11.7188H4.6875V7.96875Z" fill="#A0C8FF"/>
<path d="M47.0625 33.8362C47.5803 33.8362 48 33.4165 48 32.8987C48 32.381 47.5803 31.9612 47.0625 31.9612C46.5447 31.9612 46.125 32.381 46.125 32.8987C46.125 33.4165 46.5447 33.8362 47.0625 33.8362Z" fill="#E0EEFF"/>
<path d="M47.0625 29.6175C47.5791 29.6175 48 29.1975 48 28.68V5.25C48 5.00344 47.8997 4.76156 47.7253 4.58719C47.5509 4.41281 47.3091 4.3125 47.0625 4.3125H43.3125C43.0659 4.3125 42.8241 4.41272 42.6497 4.58719C42.4753 4.76156 42.375 5.00344 42.375 5.25V7.03125H5.625V5.25C5.625 5.00344 5.52469 4.76156 5.35031 4.58719C5.17594 4.41281 4.93406 4.3125 4.6875 4.3125H0.9375C0.690938 4.3125 0.449062 4.41272 0.274687 4.58719C0.100313 4.76156 0 5.00344 0 5.25V42.75C0 42.9966 0.100313 43.2384 0.274687 43.4127C0.449062 43.5872 0.690938 43.6875 0.9375 43.6875H47.0625C47.3091 43.6875 47.5509 43.5872 47.7253 43.4127C47.8997 43.2384 48 42.9966 48 42.75V37.1175C48 36.6009 47.5791 36.18 47.0625 36.18C46.5459 36.18 46.125 36.6009 46.125 37.1175V41.8125H1.875V6.1875H3.75V39C3.75 39.5177 4.16972 39.9375 4.6875 39.9375H43.3125C43.8303 39.9375 44.25 39.5177 44.25 39V6.1875H46.125V28.68C46.125 29.1974 46.5459 29.6175 47.0625 29.6175ZM5.625 8.90625H23.0625V10.7812H5.625V8.90625ZM42.375 38.0625H5.625V18.4517L5.62228 18.4505C6.78797 18.2967 7.68506 17.9312 8.06719 17.7413C8.07844 17.7365 9.30094 17.1562 10.6191 17.1562C11.3428 17.1562 12.0159 17.2987 12.4397 17.4384C12.6834 17.5181 13.1813 17.7239 13.1925 17.7295C13.6716 17.9677 14.9588 18.5139 16.5722 18.5214C18.1838 18.5139 19.4878 17.9618 19.9669 17.7247C20.0081 17.7031 21.195 17.1562 22.5037 17.1562C23.2275 17.1562 23.9006 17.2987 24.3244 17.4384C24.5691 17.5181 25.0659 17.7248 25.0772 17.7295C25.5562 17.9677 26.8434 18.5139 28.4569 18.5214C30.0703 18.5139 31.3575 17.9588 31.8366 17.7207C31.8478 17.7159 32.2069 17.5598 32.6606 17.4173C33.0722 17.288 33.7181 17.1562 34.3884 17.1562C35.1122 17.1562 35.7853 17.2987 36.2091 17.4384C36.4528 17.5181 36.9506 17.7248 36.9628 17.7305C37.4409 17.9677 38.7291 18.5139 40.3416 18.5215C41.0086 18.5199 41.6907 18.3848 42.375 18.1287V38.0625ZM42.375 16.0716C42.2409 16.1447 42.1031 16.2122 41.9644 16.2722C41.5819 16.44 40.9838 16.6407 40.3425 16.6407C39.6188 16.6407 38.955 16.4747 38.5312 16.3351C38.2903 16.2562 37.7897 16.0369 37.7784 16.0323C37.2994 15.7942 36.0122 15.242 34.3988 15.2345C32.7863 15.242 31.4981 15.7942 31.02 16.0313C31.0088 16.037 30.6487 16.2385 30.195 16.3809C29.7844 16.5103 29.134 16.6876 28.4637 16.6876C27.74 16.6876 27.0712 16.4981 26.6474 16.3585C26.4037 16.2797 25.9049 16.0495 25.8937 16.044C25.4155 15.8059 24.1274 15.2479 22.514 15.2404C20.9024 15.2479 19.6143 15.8205 19.1352 16.0578C19.124 16.0634 17.8921 16.6877 16.5824 16.6877C15.8587 16.6877 15.1865 16.4982 14.7627 16.3586C14.5199 16.2798 14.0202 16.0487 14.009 16.0432C13.5308 15.806 12.2427 15.248 10.6293 15.2404C9.01678 15.2479 7.72866 15.7971 7.25053 16.0343C7.23928 16.04 6.46678 16.4045 5.62491 16.5555V12.6562H42.3749V16.0716H42.375ZM42.375 10.7812H24.9375V8.90625H42.375V10.7812Z" fill="#E0EEFF"/>
<path d="M27 32.8125C27.5178 32.8125 27.9375 32.3928 27.9375 31.875C27.9375 31.3572 27.5178 30.9375 27 30.9375C26.4822 30.9375 26.0625 31.3572 26.0625 31.875C26.0625 32.3928 26.4822 32.8125 27 32.8125Z" fill="#5AD2DF"/>
<path fill-rule="evenodd" clip-rule="evenodd" d="M33.0938 30C33.0938 28.4492 34.3554 27.1875 35.9062 27.1875C37.4571 27.1875 38.7188 28.4492 38.7188 30C38.7188 31.5508 37.4571 32.8125 35.9062 32.8125C34.3554 32.8125 33.0938 31.5508 33.0938 30Z" fill="#5AD2DF"/>
<path fill-rule="evenodd" clip-rule="evenodd" d="M25.5938 24.8438C25.5938 23.2929 26.8554 22.0312 28.4062 22.0312C29.9571 22.0312 31.2188 23.2929 31.2188 24.8438C31.2188 26.3946 29.9571 27.6562 28.4062 27.6562C26.8554 27.6562 25.5938 26.3946 25.5938 24.8438Z" fill="#5AD2DF"/>
</g>
<defs>
<clipPath id="clip0_412_2834">
<rect width="48" height="48" fill="white"/>
</clipPath>
</defs>
</svg>
