<svg width="148" height="148" viewBox="0 0 148 148" fill="none" xmlns="http://www.w3.org/2000/svg">
<g clip-path="url(#clip0_124_3853)">
<path d="M78.225 11.2032L80.5354 4.00225C82.1027 -0.888303 89.3258 0.257633 89.3036 5.39216L89.274 12.9553C89.2593 17.3247 94.8559 19.1434 97.4102 15.5984L101.831 9.46578C104.833 5.29975 111.346 8.61927 109.742 13.495L107.38 20.6775C106.016 24.8287 110.777 28.2887 114.3 25.7048L120.399 21.2356C124.543 18.2008 129.711 23.3723 126.676 27.5124L122.207 33.6117C119.627 37.1383 123.087 41.8994 127.234 40.5317L134.417 38.1696C139.296 36.5653 142.612 43.0787 138.446 46.0803L132.313 50.5014C128.768 53.0557 130.587 58.656 134.956 58.6375L142.519 58.6079C147.654 58.5894 148.8 65.8088 143.909 67.3762L136.708 69.6865C132.55 71.021 132.55 76.9059 136.708 78.2404L143.909 80.5507C148.8 82.1181 147.654 89.3412 142.519 89.319L134.956 89.2894C130.587 89.2746 128.768 94.8712 132.313 97.4256L138.446 101.847C142.612 104.848 139.292 111.362 134.417 109.757L127.234 107.395C123.083 106.031 119.623 110.792 122.207 114.315L126.676 120.415C129.711 124.558 124.539 129.726 120.399 126.691L114.3 122.222C110.773 119.642 106.012 123.102 107.38 127.249L109.742 134.432C111.346 139.311 104.833 142.627 101.831 138.461L97.4102 132.329C94.8559 128.784 89.2556 130.602 89.274 134.972L89.3036 142.535C89.3221 147.669 82.1027 148.815 80.5354 143.925L78.225 136.724C76.8905 132.565 71.0056 132.565 69.6712 136.724L67.3608 143.925C65.7935 148.815 58.5704 147.669 58.5925 142.535L58.6221 134.972C58.6369 130.602 53.0403 128.784 50.486 132.329L46.0649 138.461C43.0633 142.627 36.5499 139.308 38.1542 134.432L40.5163 127.249C41.8804 123.098 37.1192 119.638 33.5964 122.222L27.497 126.691C23.3532 129.726 18.1854 124.555 21.2203 120.415L25.6894 114.315C28.2696 110.789 24.8096 106.027 20.6621 107.395L13.4797 109.757C8.60019 111.362 5.28437 104.848 9.4504 101.847L15.583 97.4256C19.128 94.8712 17.3093 89.2709 12.94 89.2894L5.37678 89.319C0.242252 89.3375 -0.903684 82.1181 3.98687 80.5507L11.1878 78.2404C15.3464 76.9059 15.3464 71.021 11.1878 69.6865L3.98687 67.3762C-0.903684 65.8088 0.242252 58.5858 5.37678 58.6079L12.94 58.6375C17.3093 58.6523 19.128 53.0557 15.583 50.5014L9.4504 46.0803C5.28437 43.0787 8.60388 36.5653 13.4797 38.1696L20.6621 40.5317C24.8133 41.8958 28.2733 37.1346 25.6894 33.6117L21.2203 27.5124C18.1854 23.3686 23.3569 18.2008 27.497 21.2356L33.5964 25.7048C37.1229 28.285 41.8841 24.825 40.5163 20.6775L38.1542 13.495C36.5499 8.61557 43.0633 5.29975 46.0649 9.46578L50.486 15.5984C53.0403 19.1434 58.6406 17.3247 58.6221 12.9553L58.5925 5.39216C58.5741 0.257633 65.7935 -0.888303 67.3608 4.00225L69.6712 11.2032C71.0056 15.3618 76.8905 15.3618 78.225 11.2032Z" fill="#13304E"/>
<path d="M32.587 26.566L29.127 19.842C26.7797 15.2767 32.6942 10.9776 36.3095 14.6224L41.6362 19.9898C44.7155 23.0913 49.9572 20.4186 49.2585 16.1047L48.0461 8.64137C47.2254 3.57338 54.175 1.31478 56.489 5.89852L59.8973 12.6484C61.8675 16.5483 67.6785 15.6279 68.3476 11.3103L69.5009 3.83584C70.2846 -1.23955 77.5964 -1.23955 78.3801 3.83584L79.5334 11.3103C80.2025 15.6279 86.0135 16.5483 87.9838 12.6484L91.392 5.89852C93.706 1.31478 100.659 3.57338 99.835 8.64137L98.6225 16.1047C97.9238 20.4186 103.169 23.0913 106.245 19.9898L111.572 14.6224C115.19 10.9776 121.105 15.273 118.754 19.842L115.294 26.566C113.294 30.4511 117.456 34.6134 121.342 32.6136L128.066 29.1536C132.631 26.8063 136.93 32.7208 133.285 36.336L127.918 41.6628C124.816 44.742 127.489 49.9838 131.803 49.2851L139.266 48.0726C144.334 47.252 146.593 54.2016 142.009 56.5156L135.259 59.9238C131.359 61.8941 132.28 67.7051 136.597 68.3742L144.072 69.5275C149.147 70.3112 149.147 77.623 144.072 78.4067L136.597 79.56C132.28 80.2291 131.359 86.0401 135.259 88.0104L142.009 91.4186C146.593 93.7326 144.334 100.686 139.266 99.8615L131.803 98.6491C127.489 97.9504 124.816 103.196 127.918 106.271L133.285 111.598C136.93 115.217 132.635 121.132 128.066 118.781L121.342 115.321C117.456 113.321 113.294 117.483 115.294 121.368L118.754 128.092C121.101 132.657 115.187 136.957 111.572 133.312L106.245 127.944C103.166 124.843 97.9238 127.516 98.6225 131.829L99.835 139.293C100.656 144.361 93.706 146.619 91.392 142.036L87.9838 135.286C86.0135 131.386 80.2025 132.306 79.5334 136.624L78.3801 144.098C77.5964 149.174 70.2846 149.174 69.5009 144.098L68.3476 136.624C67.6822 132.306 61.8675 131.386 59.8973 135.286L56.489 142.036C54.175 146.619 47.2217 144.361 48.0461 139.293L49.2585 131.829C49.9572 127.516 44.7118 124.843 41.6362 127.944L36.3095 133.312C32.6905 136.957 26.776 132.661 29.127 128.092L32.587 121.368C34.5869 117.483 30.4245 113.321 26.5357 115.321L19.8117 118.781C15.2464 121.128 10.9473 115.213 14.5921 111.598L19.9596 106.271C23.061 103.192 20.3884 97.9504 16.0745 98.6491L8.6111 99.8615C3.54311 100.682 1.2845 93.7326 5.86825 91.4186L12.6182 88.0104C16.5181 86.0401 15.5976 80.2291 11.28 79.56L3.80556 78.4067C-1.26982 77.623 -1.26982 70.3112 3.80556 69.5275L11.28 68.3742C15.5976 67.7088 16.5181 61.8941 12.6182 59.9238L5.86825 56.5156C1.2845 54.2016 3.54311 47.2483 8.6111 48.0726L16.0745 49.2851C20.3884 49.9838 23.061 44.7383 19.9596 41.6628L14.5921 36.336C10.9473 32.7171 15.2427 26.8026 19.8117 29.1536L26.5357 32.6136C30.4208 34.6134 34.5832 30.4511 32.587 26.566Z" fill="#9FC86A"/>
<path d="M73.9475 144.032C112.639 144.032 144.005 112.666 144.005 73.9746C144.005 35.2831 112.639 3.91733 73.9475 3.91733C35.2559 3.91733 3.89014 35.2831 3.89014 73.9746C3.89014 112.666 35.2559 144.032 73.9475 144.032Z" fill="#59843D"/>
<path d="M74.9971 138.55C39.3326 139.13 9.95229 110.685 9.37193 75.0243C9.35714 74.1038 9.36084 73.1908 9.38672 72.2814C9.56415 65.2949 10.8579 58.5783 13.0944 52.3015C15.7633 44.8159 19.7741 37.9588 24.8458 32.0295C29.448 26.6399 34.9263 22.0155 41.0663 18.3781C41.1587 18.3226 41.2511 18.2709 41.3435 18.2154C48.6923 13.9052 56.98 11.0071 65.837 9.89817C68.1547 9.60614 70.5094 9.43979 72.9011 9.39913C73.7772 9.38434 74.6533 9.38804 75.522 9.41022C88.7113 9.72443 100.951 14.0014 111.068 21.1246C122.775 29.3532 131.636 41.3892 135.835 55.4657C137.432 60.8073 138.356 66.4482 138.508 72.2814C138.515 72.4958 138.519 72.7102 138.523 72.9246C139.103 108.589 110.658 137.969 74.9971 138.55Z" fill="#13304E"/>
<path d="M135.835 55.4658C130.501 55.3734 127.67 49.4404 129.333 46.7271C126.261 46.9637 124.964 44.7346 124.964 44.7346L122.631 41.3708C119.201 38.395 122.934 35.264 122.934 35.264C122.934 35.264 119.807 34.521 121.519 31.7893C117.796 32.7799 117.127 29.7561 117.127 29.7561C117.127 29.7561 114.299 30.7246 113.926 28.1186C110.725 25.9856 110.662 23.0395 111.068 21.1247C122.775 29.3532 131.636 41.3892 135.835 55.4658Z" fill="#7B8C9D"/>
<path d="M75.5227 9.41022C74.1439 12.8 69.6784 11.7797 69.6784 11.7797C69.6784 11.7797 70.5434 14.5337 67.4235 15.2027C64.5143 15.8312 62.862 13.3803 62.862 13.3803C62.862 13.3803 62.7141 15.2397 59.8862 14.5706C60.9286 15.7609 59.7568 16.7738 59.7568 16.7738L55.8902 18.1267C55.8902 18.1267 54.2268 17.9936 54.005 16.5039C52.9625 18.2191 51.7723 16.2082 51.7723 16.2082C51.7723 16.2082 46.3457 20.7846 41.3442 18.2154C48.693 13.9052 56.9807 11.0071 65.8377 9.89817C68.1554 9.60614 70.5101 9.43979 72.9018 9.39913C73.7779 9.38434 74.654 9.38804 75.5227 9.41022Z" fill="#7B8C9D"/>
<path d="M25.2988 41.3709C25.7572 43.5999 22.9663 44.7347 22.9663 44.7347C22.9663 44.7347 24.2527 48.3019 19.4583 49.9949C20.3048 51.5327 16.1683 54.5232 13.0928 52.3016C15.7617 44.8161 19.7725 37.9589 24.8442 32.0296C25.8237 32.5213 26.7553 33.4454 26.4152 35.1421C28.6701 36.362 28.6036 39.7998 25.2988 41.3709Z" fill="#7B8C9D"/>
<path d="M74.8602 17.2952H73.3335V20.8069H74.8602V17.2952Z" fill="#FBB62D"/>
<path d="M81.2035 15.2028H78.2314V20.8031H81.2035V15.2028Z" fill="#FBB62D"/>
<path d="M83.3849 20.1452H68.3066V35.9295H83.3849V20.1452Z" fill="#FB9129"/>
<path d="M81.1998 21.7938H70.8975V22.8289H81.1998V21.7938Z" fill="#FBB62D"/>
<path d="M81.1998 23.4017H70.8975V24.4367H81.1998V23.4017Z" fill="#FBB62D"/>
<path d="M81.1998 25.0098H70.8975V26.0449H81.1998V25.0098Z" fill="#FBB62D"/>
<path d="M81.1998 26.6142H70.8975V27.6492H81.1998V26.6142Z" fill="#FBB62D"/>
<path d="M42.083 28.1519L39.9944 29.453L38.2866 26.7065L41.1552 26.6621L42.083 28.1519Z" fill="#FBD34C"/>
<path d="M45.5905 25.9672L43.5057 27.2684L41.7979 24.5219L44.6664 24.4775L45.5905 25.9672Z" fill="#FBD34C"/>
<path d="M49.1035 23.7825L47.0149 25.08L45.3071 22.3371L48.1757 22.2928L49.1035 23.7825Z" fill="#FBD34C"/>
<path d="M49.9564 22.3495L32.0337 33.5054L42.9493 51.0421L60.872 39.8862L49.9564 22.3495Z" fill="#FBB62D"/>
<path d="M38.0623 29.7517L32.0337 33.5042L42.9493 51.0409L48.978 47.2884L38.0623 29.7517Z" fill="#FB9129"/>
<path d="M44.1377 28.9835L41.4263 30.6712L42.8562 32.9685L45.5676 31.2807L44.1377 28.9835Z" fill="#FB9129"/>
<path d="M48.0552 26.5457L45.3438 28.2335L46.7736 30.5307L49.4851 28.843L48.0552 26.5457Z" fill="#FB9129"/>
<path d="M46.1929 32.2858L43.4814 33.9736L44.9113 36.2708L47.6228 34.583L46.1929 32.2858Z" fill="#FB9129"/>
<path d="M50.1128 29.8512L47.4014 31.539L48.8313 33.8362L51.5427 32.1484L50.1128 29.8512Z" fill="#FB9129"/>
<path d="M48.2476 35.5911L45.5361 37.2788L46.966 39.576L49.6775 37.8883L48.2476 35.5911Z" fill="#FB9129"/>
<path d="M52.1651 33.1497L49.4536 34.8374L50.8835 37.1347L53.595 35.4469L52.1651 33.1497Z" fill="#FB9129"/>
<path d="M39.5929 39.1788C38.8166 39.663 38.5801 40.6833 39.0643 41.4558L44.4502 50.1095L47.2596 48.361L41.8737 39.7074C41.3895 38.9311 40.3692 38.6945 39.5966 39.1788H39.5929Z" fill="#FBD34C"/>
<path d="M54.8451 37.6537L48.3081 41.7227L48.7046 42.3597L55.2417 38.2908L54.8451 37.6537Z" fill="#FBD34C"/>
<path d="M55.7187 39.0618L49.1816 43.1308L49.5782 43.7678L56.1152 39.6989L55.7187 39.0618Z" fill="#FBD34C"/>
<path d="M97.187 25.5162L93.605 23.3464L96.4587 18.6332L98.7358 22.9582L97.187 25.5162Z" fill="#FB9129"/>
<path d="M103.216 29.1647L99.6338 26.9948L102.488 22.2817L104.765 26.6067L103.216 29.1647Z" fill="#FB9129"/>
<path d="M109.244 32.817L105.658 30.6471L108.512 25.934L110.793 30.259L109.244 32.817Z" fill="#FB9129"/>
<path d="M110.917 32.9228L92.8579 21.9899L82.1604 39.6605L100.22 50.5935L110.917 32.9228Z" fill="#FBB62D"/>
<path d="M98.9326 25.6669L92.8579 21.9894L82.1604 39.66L88.2351 43.3375L98.9326 25.6669Z" fill="#FB9129"/>
<path d="M95.8895 26.4371L93.5874 25.0435L85.2044 38.8909L87.5065 40.2846L95.8895 26.4371Z" fill="#FBB62D"/>
<path d="M106.618 32.4137L100.031 28.4261L99.3248 29.593L105.912 33.5806L106.618 32.4137Z" fill="#FBD34C"/>
<path d="M105.064 34.9778L98.4775 30.9902L97.7711 32.1571L104.358 36.1447L105.064 34.9778Z" fill="#FBD34C"/>
<path d="M67.6161 35.8481L61.6388 37.9403L59.4578 30.4215L58.0975 25.7379L57.5504 23.8564L56.8776 21.5276L55.8906 18.1267L59.7535 16.7738L61.1065 20.0489L62.0306 22.2927L62.7773 24.1004L64.633 28.6102L67.6161 35.8481Z" fill="#FBD34C"/>
<path d="M62.0295 22.2926L57.5492 23.8562L56.8765 21.5274L61.1053 20.0488L62.0295 22.2926Z" fill="#FB9129"/>
<path d="M64.6332 28.6101L59.458 30.4214L58.0977 25.7379L62.7775 24.1003L64.6332 28.6101Z" fill="#FB9129"/>
<path d="M42.8664 52.1943L39.2548 57.399L33.0742 52.5935L29.2224 49.5993L27.6772 48.3979L25.7624 46.9082L22.9678 44.7346L25.3003 41.3707L28.3167 43.2264L30.3831 44.5017L32.0502 45.5294L36.2015 48.0874L42.8664 52.1943Z" fill="#FBD34C"/>
<path d="M36.9847 58.3011L29.5916 55.6729L28.0723 59.2955L35.5061 62.286" fill="#FBB62D"/>
<path d="M110.185 58.3011L117.574 55.6729L119.097 59.2955L111.663 62.286" fill="#FBB62D"/>
<path d="M30.3824 44.5018L27.6765 48.398L25.7617 46.9083L28.316 43.2265L30.3824 44.5018Z" fill="#FB9129"/>
<path d="M36.2018 48.0874L33.0745 52.5936L29.2227 49.5993L32.0505 45.5294L36.2018 48.0874Z" fill="#FB9129"/>
<path d="M105.064 52.1944L108.676 57.3992L114.856 52.5936L118.708 49.5994L120.253 48.398L122.168 46.9083L124.963 44.7347L122.63 41.3708L119.614 43.2265L117.547 44.5018L115.88 45.5295L111.729 48.0875L105.064 52.1944Z" fill="#FBD34C"/>
<path d="M103.693 47.119L109.19 42.587L111.167 44.7865L106.31 49.5107" fill="#FBB62D"/>
<path d="M117.547 44.502L120.253 48.3982L122.168 46.9084L119.614 43.2267L117.547 44.502Z" fill="#FB9129"/>
<path d="M111.729 48.0876L114.856 52.5937L118.708 49.5995L115.88 45.5295L111.729 48.0876Z" fill="#FB9129"/>
<path d="M74.9971 138.55C39.3326 139.13 9.95229 110.685 9.37193 75.0243C9.35714 74.1039 9.36084 73.1908 9.38672 72.2815H138.508C138.515 72.4959 138.519 72.7103 138.523 72.9247C139.103 108.589 110.658 137.969 74.9971 138.55Z" fill="#9FC86A"/>
<path d="M73.9484 116.16C97.2466 116.16 116.134 97.2727 116.134 73.9744C116.134 50.6762 97.2466 31.7892 73.9484 31.7892C50.6501 31.7892 31.7632 50.6762 31.7632 73.9744C31.7632 97.2727 50.6501 116.16 73.9484 116.16Z" fill="#59843D"/>
<path d="M73.9473 110.936C94.3608 110.936 110.909 94.388 110.909 73.9745C110.909 53.561 94.3608 37.0125 73.9473 37.0125C53.5338 37.0125 36.9854 53.561 36.9854 73.9745C36.9854 94.388 53.5338 110.936 73.9473 110.936Z" fill="#13304E"/>
<path d="M64.6799 47.0529C65.1392 47.0529 65.5116 46.6805 65.5116 46.2212C65.5116 45.7618 65.1392 45.3894 64.6799 45.3894C64.2205 45.3894 63.8481 45.7618 63.8481 46.2212C63.8481 46.6805 64.2205 47.0529 64.6799 47.0529Z" fill="#9FC86A"/>
<path d="M69.9406 45.6296C69.9406 46.417 69.3048 47.0528 68.5174 47.0528C67.73 47.0528 67.0942 46.417 67.0942 45.6296C67.0942 44.8422 67.73 44.2064 68.5174 44.2064C69.3048 44.2064 69.9406 44.8422 69.9406 45.6296Z" fill="#9FC86A"/>
<path d="M72.8274 48.513C73.8522 48.513 74.683 47.6822 74.683 46.6573C74.683 45.6325 73.8522 44.8017 72.8274 44.8017C71.8025 44.8017 70.9717 45.6325 70.9717 46.6573C70.9717 47.6822 71.8025 48.513 72.8274 48.513Z" fill="#9FC86A"/>
<path d="M76.4498 51.9582C77.5564 51.9582 78.4534 51.0612 78.4534 49.9547C78.4534 48.8482 77.5564 47.9511 76.4498 47.9511C75.3433 47.9511 74.4463 48.8482 74.4463 49.9547C74.4463 51.0612 75.3433 51.9582 76.4498 51.9582Z" fill="#9FC86A"/>
<path d="M79.7139 55.5438C79.7139 56.8746 78.6345 57.9577 77.3001 57.9577C75.9656 57.9577 74.8862 56.8783 74.8862 55.5438C74.8862 54.2094 75.9656 53.13 77.3001 53.13C78.6345 53.13 79.7139 54.2094 79.7139 55.5438Z" fill="#9FC86A"/>
<path d="M64.9743 48.1432C49.0791 51.8583 53.8772 74.6217 53.8772 74.6217C58.7493 61.6615 73.6058 62.9184 73.6317 54.7231C73.6465 50.2687 69.3141 47.1303 64.9743 48.1432ZM55.4039 65.591C55.9214 53.1336 64.6823 53.1336 64.6823 53.1336C64.6823 53.1336 58.302 55.5474 55.4039 65.591Z" fill="#9FC86A"/>
<path d="M51.7239 93.8288C52.1231 93.5996 52.6295 93.7364 52.8624 94.1319C53.0916 94.5311 52.9548 95.0376 52.5593 95.2704C52.1601 95.4996 51.6536 95.3628 51.4208 94.9673C51.1916 94.5681 51.3283 94.0617 51.7239 93.8288Z" fill="#9FC86A"/>
<path d="M48.9995 90.2913C49.6797 89.8994 50.5521 90.1323 50.9439 90.8125C51.3357 91.4927 51.1028 92.3651 50.4227 92.7569C49.7425 93.1487 48.8701 92.9158 48.4783 92.2357C48.0864 91.5555 48.3193 90.6831 48.9995 90.2913Z" fill="#9FC86A"/>
<path d="M47.5137 85.6669C48.4009 85.153 49.5394 85.4598 50.0495 86.347C50.5597 87.2342 50.2565 88.3727 49.3694 88.8829C48.4822 89.393 47.3436 89.0899 46.8335 88.2027C46.3234 87.3155 46.6265 86.177 47.5137 85.6669Z" fill="#9FC86A"/>
<path d="M48.4863 80.7579C49.4437 80.2034 50.6672 80.5324 51.2217 81.4898C51.7762 82.4472 51.4472 83.6708 50.4898 84.2253C49.5324 84.7798 48.3088 84.4508 47.7543 83.4934C47.1999 82.536 47.5289 81.3124 48.4863 80.7579Z" fill="#9FC86A"/>
<path d="M52.6994 76.869C53.8527 76.2036 55.3276 76.5991 55.9967 77.7525C56.6621 78.9058 56.2665 80.3807 55.1132 81.0498C53.9599 81.7189 52.485 81.3196 51.8159 80.1663C51.1468 79.013 51.546 77.5381 52.6994 76.869Z" fill="#9FC86A"/>
<path d="M53.6577 93.3334C64.8213 105.24 82.1397 89.7034 82.1397 89.7034C68.4809 91.962 62.1413 78.4695 55.0291 82.5469C51.1625 84.7611 50.6117 90.0842 53.6577 93.3334ZM73.5526 92.9009C62.5073 98.6824 58.1231 91.0933 58.1231 91.0933C58.1231 91.0933 63.4018 95.4109 73.5526 92.9009Z" fill="#9FC86A"/>
<path d="M100.799 81.1273C100.4 80.8981 100.263 80.388 100.496 79.9888C100.725 79.5895 101.235 79.4528 101.635 79.6857C102.034 79.9149 102.171 80.425 101.938 80.8242C101.708 81.2234 101.198 81.3602 100.799 81.1273Z" fill="#9FC86A"/>
<path d="M99.0986 85.2564C98.4184 84.8645 98.1856 83.9921 98.5774 83.312C98.9692 82.6318 99.8416 82.3989 100.522 82.7908C101.202 83.1826 101.435 84.055 101.043 84.7351C100.651 85.4153 99.7788 85.6482 99.0986 85.2564Z" fill="#9FC86A"/>
<path d="M95.8337 88.853C94.9465 88.3392 94.6397 87.2044 95.1535 86.3172C95.6673 85.43 96.8022 85.1232 97.6894 85.637C98.5765 86.1509 98.8833 87.2857 98.3695 88.1729C97.8557 89.0601 96.7209 89.3669 95.8337 88.853Z" fill="#9FC86A"/>
<path d="M91.0981 90.4685C90.1407 89.9141 89.8117 88.6905 90.3662 87.7331C90.9206 86.7757 92.1442 86.4467 93.1016 87.0012C94.059 87.5556 94.388 88.7792 93.8335 89.7366C93.279 90.694 92.0555 91.023 91.0981 90.4685Z" fill="#9FC86A"/>
<path d="M85.624 88.7645C84.4707 88.0991 84.0751 86.6242 84.7405 85.4671C85.4059 84.3101 86.8808 83.9183 88.0378 84.5837C89.1912 85.249 89.5867 86.724 88.9213 87.881C88.2559 89.0343 86.781 89.4299 85.624 88.7645Z" fill="#9FC86A"/>
<path d="M99.4057 79.7007C104.137 64.079 82.0244 56.8485 82.0244 56.8485C90.8112 67.5464 82.2943 79.7857 89.3806 83.9037C93.2324 86.1438 98.1156 83.9628 99.4057 79.697V79.7007ZM89.0812 62.6891C99.609 69.3651 95.2285 76.9541 95.2285 76.9541C95.2285 76.9541 96.3301 70.2227 89.0812 62.6891Z" fill="#9FC86A"/>
<path d="M20.9726 85.6557C20.9726 85.6557 6.41918 80.133 20.9726 64.0751C35.0084 80.3031 20.9726 85.6557 20.9726 85.6557Z" fill="#59843D"/>
<path d="M20.8579 88.114C20.6546 88.114 20.4883 87.9476 20.4883 87.7443V69.1395C20.4883 68.9362 20.6546 68.7698 20.8579 68.7698C21.0612 68.7698 21.2276 68.9362 21.2276 69.1395V87.7443C21.2276 87.9476 21.0612 88.114 20.8579 88.114Z" fill="#13304E"/>
<path d="M20.9246 74.2149L18.3999 71.8084C18.252 71.6679 18.2483 71.4351 18.3888 71.2872C18.5293 71.1393 18.7658 71.1356 18.91 71.2761L20.8988 73.1724L22.7951 71.1837C22.9356 71.0358 23.1684 71.0321 23.3163 71.1726C23.4642 71.3131 23.4716 71.5459 23.3274 71.6938L20.9209 74.2186L20.9246 74.2149Z" fill="#13304E"/>
<path d="M20.9246 78.111L18.3999 75.7046C18.252 75.5641 18.2483 75.3312 18.3888 75.1833C18.5293 75.0355 18.7658 75.0318 18.91 75.1722L20.8988 77.0686L22.7951 75.0798C22.9356 74.932 23.1684 74.9283 23.3163 75.0687C23.4642 75.2092 23.4716 75.4421 23.3274 75.59L20.9209 78.1147L20.9246 78.111Z" fill="#13304E"/>
<path d="M20.9246 82.0073L18.3999 79.6008C18.252 79.4604 18.2483 79.2275 18.3888 79.0796C18.5293 78.9317 18.7658 78.9281 18.91 79.0685L20.8988 80.9649L22.7951 78.9761C22.9356 78.8282 23.1684 78.8245 23.3163 78.965C23.4642 79.1055 23.4716 79.3384 23.3274 79.4862L20.9209 82.011L20.9246 82.0073Z" fill="#13304E"/>
<path d="M127.152 85.6557C127.152 85.6557 112.598 80.133 127.152 64.0751C141.188 80.303 127.152 85.6557 127.152 85.6557Z" fill="#59843D"/>
<path d="M127.037 88.114C126.834 88.114 126.667 87.9476 126.667 87.7443V69.1395C126.667 68.9362 126.834 68.7698 127.037 68.7698C127.24 68.7698 127.407 68.9362 127.407 69.1395V87.7443C127.407 87.9476 127.24 88.114 127.037 88.114Z" fill="#13304E"/>
<path d="M127.1 74.2149L124.576 71.8084C124.428 71.6679 124.42 71.4351 124.565 71.2872C124.705 71.1393 124.942 71.1356 125.086 71.2761L127.074 73.1724L128.971 71.1837C129.111 71.0358 129.344 71.0321 129.492 71.1726C129.64 71.3131 129.644 71.5459 129.503 71.6938L127.097 74.2186L127.1 74.2149Z" fill="#13304E"/>
<path d="M127.1 78.111L124.576 75.7046C124.428 75.5641 124.42 75.3312 124.565 75.1833C124.705 75.0355 124.942 75.0318 125.086 75.1722L127.074 77.0686L128.971 75.0798C129.111 74.932 129.344 74.9283 129.492 75.0687C129.64 75.2092 129.644 75.4421 129.503 75.59L127.097 78.1147L127.1 78.111Z" fill="#13304E"/>
<path d="M127.1 82.0073L124.576 79.6008C124.428 79.4604 124.42 79.2275 124.565 79.0796C124.705 78.9317 124.942 78.9281 125.086 79.0685L127.074 80.9649L128.971 78.9761C129.111 78.8282 129.344 78.8245 129.492 78.965C129.64 79.1055 129.644 79.3384 129.503 79.4862L127.097 82.011L127.1 82.0073Z" fill="#13304E"/>
<path d="M22.3674 97.6955C22.3784 97.1706 22.5226 96.7011 22.7999 96.2834C23.0771 95.8657 23.4726 95.5293 23.9791 95.278L26.4299 94.0692C26.94 93.8178 27.4427 93.7106 27.9455 93.7439C28.4445 93.7771 28.9066 93.9509 29.3243 94.2651C29.742 94.5793 30.0895 95.0118 30.3593 95.5626C30.6292 96.106 30.7623 96.6383 30.766 97.1484C30.766 97.6622 30.6403 98.1243 30.3815 98.5383C30.1228 98.9523 29.7494 99.2776 29.2615 99.5216C29.1986 99.5512 29.1395 99.529 29.0803 99.4514L28.3928 98.2463L28.3817 98.2241C28.3484 98.1539 28.3669 98.0984 28.4445 98.0615C28.8179 97.8766 29.0618 97.6142 29.1764 97.2704C29.291 96.9303 29.2541 96.5717 29.0692 96.1947C28.8807 95.814 28.6146 95.5626 28.2782 95.4443C27.9381 95.326 27.5795 95.3593 27.2062 95.5441L24.6481 96.8083C24.2785 96.9895 24.0382 97.2519 23.9273 97.592C23.8127 97.9321 23.8534 98.2943 24.0419 98.6788C24.2267 99.0521 24.4892 99.2998 24.8293 99.4181C25.1694 99.5364 25.5242 99.5031 25.8902 99.322C25.9678 99.285 26.027 99.3072 26.0713 99.3922L26.6295 100.66C26.648 100.697 26.6517 100.73 26.6406 100.767C26.6295 100.804 26.611 100.826 26.5851 100.841C26.0972 101.082 25.6092 101.181 25.1213 101.133C24.6334 101.089 24.1824 100.908 23.7757 100.597C23.3654 100.283 23.0253 99.8543 22.7592 99.3109C22.4856 98.7601 22.3563 98.2204 22.3674 97.6955Z" fill="white"/>
<path d="M28.7766 108.63L29.5122 107.665C29.527 107.636 29.5307 107.61 29.5159 107.588L27.8192 105.222C27.8044 105.203 27.7822 105.196 27.7452 105.203L26.603 105.599C26.5254 105.625 26.4625 105.606 26.4182 105.543L25.5421 104.323C25.5162 104.286 25.5051 104.25 25.5125 104.213C25.5199 104.176 25.5532 104.15 25.6049 104.131L33.5969 101.544C33.6745 101.518 33.7374 101.536 33.7817 101.599L34.8648 103.107C34.9092 103.17 34.9092 103.237 34.8574 103.303L29.8449 110.046C29.8449 110.046 29.8227 110.075 29.8042 110.09C29.7451 110.131 29.6933 110.116 29.6416 110.046L28.7655 108.826C28.7211 108.763 28.7211 108.696 28.7729 108.634L28.7766 108.63ZM29.1093 104.808L30.3217 106.501C30.3476 106.538 30.3772 106.538 30.4068 106.501L32.6432 103.588C32.6654 103.562 32.6691 103.547 32.658 103.536C32.6469 103.525 32.6284 103.525 32.6025 103.532L29.1388 104.734C29.0945 104.756 29.0871 104.782 29.1093 104.815V104.808Z" fill="white"/>
<path d="M34.8885 115.38L36.1454 112.009C36.1564 111.975 36.1491 111.946 36.1269 111.924L35.3432 111.147C35.3136 111.118 35.2878 111.121 35.2582 111.147L32.9848 113.443C32.9552 113.472 32.922 113.484 32.885 113.487C32.8443 113.487 32.8111 113.472 32.7852 113.447L31.8019 112.471C31.7723 112.441 31.7612 112.408 31.7612 112.371C31.7612 112.33 31.776 112.297 31.8019 112.271L37.4355 106.586C37.465 106.556 37.4983 106.545 37.5353 106.545C37.5722 106.545 37.6092 106.56 37.6351 106.586L40.0378 108.97C40.3964 109.325 40.6404 109.709 40.7661 110.127C40.8917 110.541 40.8991 110.959 40.7809 111.373C40.6626 111.791 40.4297 112.175 40.0785 112.526C39.7015 112.907 39.28 113.14 38.8217 113.221C38.3633 113.302 37.9049 113.232 37.4502 113.007C37.4096 112.992 37.3837 112.999 37.3652 113.04L36.1491 116.552C36.138 116.585 36.1269 116.607 36.1158 116.618C36.0714 116.663 36.0197 116.655 35.9568 116.592L34.9218 115.568C34.8663 115.513 34.8516 115.45 34.8774 115.376L34.8885 115.38ZM37.672 108.722L36.2489 110.16C36.2193 110.19 36.2193 110.216 36.2489 110.245L37.3504 111.336C37.587 111.569 37.8458 111.691 38.1341 111.698C38.4224 111.705 38.6775 111.598 38.8993 111.373C39.1211 111.147 39.2283 110.892 39.2209 110.6C39.2135 110.308 39.0915 110.049 38.8586 109.817L37.7571 108.726C37.7275 108.696 37.7016 108.7 37.672 108.726V108.722Z" fill="white"/>
<path d="M44.8357 118.019C45.2201 118.77 45.1499 119.513 44.625 120.245C44.1777 120.866 43.6306 121.184 42.98 121.198C42.3294 121.213 41.6603 120.973 40.9728 120.481L38.4813 118.696C38.448 118.674 38.4295 118.64 38.4222 118.603C38.4148 118.566 38.4222 118.529 38.448 118.496L43.1131 111.994C43.1353 111.961 43.1685 111.942 43.2055 111.935C43.2425 111.927 43.2794 111.935 43.3127 111.961L45.7266 113.694C47.2459 114.785 47.5638 115.946 46.6803 117.176C46.2182 117.816 45.6194 118.082 44.8764 117.964C44.8246 117.956 44.8098 117.975 44.8357 118.023V118.019ZM42.6695 119.576C42.9431 119.546 43.1759 119.398 43.3645 119.136C43.553 118.873 43.6195 118.607 43.5604 118.337C43.5012 118.067 43.3201 117.823 43.0207 117.609L41.8267 116.755C41.7934 116.733 41.7675 116.737 41.7454 116.77L40.5994 118.367C40.5772 118.4 40.5809 118.426 40.6142 118.448L41.8156 119.309C42.1113 119.52 42.396 119.613 42.6695 119.579V119.576ZM43.6824 114.06L42.6067 115.561C42.5845 115.594 42.5882 115.62 42.6214 115.642L43.7452 116.448C44.0483 116.663 44.333 116.762 44.5991 116.74C44.8653 116.718 45.0871 116.585 45.2645 116.341C45.4456 116.09 45.5011 115.835 45.4382 115.568C45.3754 115.302 45.1943 115.066 44.8911 114.848L43.7674 114.042C43.7341 114.02 43.7082 114.023 43.6861 114.057L43.6824 114.06Z" fill="white"/>
<path d="M47.2944 124.122C46.9876 123.686 46.8176 123.209 46.7843 122.688C46.751 122.167 46.8693 121.638 47.1318 121.11L48.2592 118.84C48.518 118.315 48.8655 117.912 49.298 117.624C49.7305 117.335 50.2147 117.187 50.7433 117.173C51.2756 117.158 51.8153 117.287 52.3661 117.561C52.9243 117.838 53.3605 118.193 53.6673 118.625C53.9778 119.058 54.1479 119.531 54.1811 120.052C54.2144 120.57 54.0998 121.091 53.841 121.616L52.7136 123.886C52.4511 124.414 52.1 124.828 51.6638 125.12C51.2276 125.416 50.7433 125.568 50.211 125.582C49.6787 125.597 49.1353 125.464 48.5771 125.187C48.0263 124.913 47.5975 124.558 47.287 124.122H47.2944ZM50.3478 124C50.71 123.871 50.9947 123.605 51.198 123.194L52.355 120.862C52.5583 120.452 52.6027 120.063 52.4918 119.694C52.3809 119.324 52.1258 119.043 51.7303 118.847C51.3422 118.655 50.9651 118.625 50.6065 118.759C50.2443 118.892 49.9633 119.165 49.76 119.575L48.603 121.908C48.3997 122.318 48.3553 122.706 48.4699 123.069C48.5845 123.435 48.8359 123.712 49.224 123.904C49.6122 124.096 49.9892 124.13 50.3515 124H50.3478Z" fill="white"/>
<path d="M61.3953 121.135C61.4286 121.117 61.4655 121.113 61.5025 121.124L62.8296 121.524C62.8665 121.535 62.8961 121.557 62.9146 121.594C62.9331 121.627 62.9368 121.664 62.9257 121.701L60.619 129.364C60.6079 129.401 60.5858 129.431 60.5488 129.449C60.5155 129.468 60.4786 129.471 60.4416 129.46L59.1626 129.076C59.0887 129.054 59.0443 129.005 59.0295 128.935L57.5546 123.202C57.5472 123.176 57.5324 123.161 57.5176 123.161C57.5028 123.161 57.488 123.176 57.4806 123.206L56.0649 127.996C56.0538 128.033 56.0316 128.063 55.9946 128.081C55.9614 128.1 55.9244 128.104 55.8874 128.092L54.5604 127.693C54.5234 127.682 54.4938 127.66 54.4753 127.623C54.4569 127.59 54.4532 127.553 54.4642 127.516L56.7709 119.853C56.782 119.816 56.8042 119.786 56.8411 119.768C56.8744 119.749 56.9114 119.746 56.9483 119.757L58.2274 120.141C58.3013 120.163 58.3456 120.211 58.3604 120.282L59.8317 125.989C59.8391 126.015 59.8538 126.03 59.8686 126.03C59.8834 126.03 59.8982 126.015 59.9056 125.985L61.3288 121.221C61.3399 121.184 61.362 121.154 61.399 121.135H61.3953Z" fill="white"/>
<path d="M73.7326 124.178C73.703 124.203 73.6697 124.215 73.6291 124.215L69.7551 123.971C69.7144 123.971 69.6959 123.985 69.6922 124.026L69.5776 125.856C69.5776 125.897 69.5924 125.915 69.6331 125.919L72.1726 126.078C72.2133 126.078 72.2428 126.096 72.2687 126.126C72.2946 126.155 72.3057 126.189 72.3057 126.229L72.2355 127.375C72.2355 127.416 72.217 127.445 72.1874 127.471C72.1578 127.497 72.1246 127.508 72.0839 127.505L69.5444 127.346C69.5037 127.346 69.4852 127.36 69.4815 127.401L69.3632 129.316C69.3632 129.357 69.378 129.375 69.4187 129.379L73.2927 129.623C73.3333 129.623 73.3629 129.641 73.3888 129.671C73.4147 129.7 73.4257 129.734 73.422 129.774L73.3518 130.92C73.3518 130.961 73.3333 130.994 73.3038 131.02C73.2742 131.046 73.2409 131.057 73.2003 131.053L67.7404 130.709C67.6998 130.709 67.6702 130.691 67.6443 130.661C67.6184 130.632 67.6073 130.599 67.611 130.558L68.1138 122.573C68.1138 122.533 68.1323 122.499 68.1618 122.477C68.1914 122.451 68.2247 122.44 68.2653 122.444L73.7252 122.788C73.7658 122.788 73.7954 122.806 73.825 122.836C73.8509 122.865 73.8619 122.899 73.8582 122.939L73.788 124.085C73.788 124.126 73.7695 124.159 73.74 124.181L73.7326 124.178Z" fill="white"/>
<path d="M81.0249 122.222L82.4037 122.078C82.4444 122.074 82.4777 122.085 82.5072 122.108C82.5368 122.133 82.5553 122.163 82.559 122.204L83.3981 130.162C83.4018 130.203 83.3907 130.236 83.3685 130.266C83.3427 130.295 83.3131 130.314 83.2724 130.318L81.8936 130.462C81.8529 130.465 81.8197 130.454 81.7901 130.432C81.7605 130.41 81.742 130.377 81.7383 130.336L81.1913 125.146C81.1913 125.117 81.1802 125.102 81.1617 125.102C81.1469 125.102 81.1321 125.117 81.1173 125.142L80.0749 127.227C80.0416 127.294 79.9899 127.331 79.9196 127.338L79.2247 127.412C79.1545 127.42 79.0953 127.394 79.0509 127.334L77.5982 125.512C77.5797 125.49 77.5649 125.483 77.5464 125.486C77.5317 125.494 77.5243 125.508 77.528 125.542L78.0714 130.721C78.0751 130.761 78.064 130.794 78.0418 130.824C78.0159 130.854 77.9863 130.872 77.9457 130.876L76.5669 131.02C76.5262 131.024 76.4929 131.013 76.4634 130.99C76.4338 130.965 76.4153 130.935 76.4116 130.894L75.5725 122.936C75.5688 122.895 75.5799 122.862 75.6021 122.832C75.6242 122.802 75.6575 122.784 75.6982 122.78L77.077 122.636C77.1472 122.629 77.2064 122.655 77.2507 122.714L79.306 125.272C79.3356 125.316 79.3578 125.312 79.3762 125.264L80.866 122.333C80.8992 122.266 80.951 122.23 81.0212 122.222H81.0249Z" fill="white"/>
<path d="M86.5403 129.541C86.5071 129.523 86.4849 129.493 86.4775 129.453L84.607 121.671C84.596 121.634 84.607 121.597 84.6218 121.564C84.644 121.531 84.6699 121.509 84.7105 121.501L86.0561 121.176C86.0931 121.165 86.13 121.176 86.1633 121.191C86.1966 121.213 86.2187 121.239 86.2261 121.28L88.0966 129.061C88.104 129.098 88.0966 129.135 88.0781 129.168C88.0559 129.201 88.0301 129.223 87.9894 129.231L86.6439 129.556C86.6069 129.567 86.5699 129.56 86.5367 129.541H86.5403Z" fill="white"/>
<path d="M92.1738 127.808C91.66 127.782 91.2164 127.638 90.8468 127.375C90.4771 127.113 90.2036 126.747 90.0335 126.281L89.9448 126.037C89.93 126 89.9337 125.963 89.9485 125.93C89.9633 125.893 89.9929 125.871 90.0298 125.856L91.2941 125.386C91.331 125.372 91.368 125.375 91.4012 125.39C91.4382 125.405 91.4604 125.435 91.4752 125.472L91.538 125.638C91.6489 125.934 91.8781 126.133 92.2256 126.237C92.5731 126.34 92.9834 126.303 93.4492 126.133C93.841 125.989 94.1034 125.797 94.2328 125.56C94.3622 125.324 94.3844 125.083 94.2957 124.836C94.2291 124.658 94.1145 124.529 93.9519 124.451C93.7892 124.374 93.5859 124.326 93.3493 124.307C93.1128 124.289 92.7394 124.281 92.2367 124.281C91.6785 124.296 91.1942 124.274 90.7839 124.226C90.3736 124.174 89.9966 124.041 89.6491 123.819C89.3016 123.597 89.0465 123.261 88.8802 122.81C88.7175 122.366 88.688 121.934 88.7952 121.516C88.9024 121.098 89.1242 120.725 89.4679 120.396C89.8117 120.067 90.2479 119.805 90.7802 119.609C91.3421 119.402 91.8818 119.317 92.3956 119.354C92.9094 119.391 93.3567 119.542 93.7375 119.812C94.1182 120.078 94.3955 120.452 94.5692 120.925L94.6321 121.091C94.6468 121.128 94.6431 121.165 94.6284 121.198C94.6136 121.232 94.584 121.257 94.547 121.272L93.2717 121.745C93.2348 121.76 93.1978 121.756 93.1645 121.742C93.1275 121.727 93.1054 121.697 93.0906 121.66L93.0573 121.572C92.9427 121.261 92.7172 121.043 92.3808 120.917C92.0445 120.795 91.6526 120.814 91.209 120.976C90.8616 121.106 90.6176 121.28 90.4734 121.501C90.3292 121.723 90.3108 121.963 90.4032 122.222C90.4734 122.407 90.588 122.54 90.747 122.625C90.9096 122.71 91.1203 122.758 91.3828 122.777C91.6452 122.791 92.0445 122.799 92.5805 122.795C93.1756 122.795 93.6525 122.81 94.0073 122.847C94.3622 122.884 94.7134 123.006 95.0609 123.209C95.4083 123.413 95.6708 123.749 95.8408 124.215C96.0996 124.91 96.0441 125.553 95.6819 126.148C95.3196 126.739 94.7023 127.198 93.8299 127.519C93.2384 127.737 92.684 127.834 92.1701 127.811L92.1738 127.808Z" fill="white"/>
<path d="M100.335 124.322C99.825 124.377 99.3629 124.307 98.9563 124.104C98.5497 123.904 98.2244 123.583 97.9804 123.15L97.8547 122.921C97.8362 122.888 97.8325 122.851 97.8399 122.814C97.851 122.777 97.8732 122.747 97.9064 122.729L99.082 122.067C99.1152 122.048 99.1522 122.045 99.1892 122.052C99.2261 122.063 99.2557 122.085 99.2742 122.119L99.3592 122.274C99.5145 122.551 99.7695 122.71 100.132 122.758C100.494 122.806 100.89 122.706 101.322 122.462C101.688 122.259 101.917 122.03 102.006 121.771C102.095 121.512 102.08 121.276 101.954 121.047C101.862 120.88 101.729 120.773 101.555 120.721C101.381 120.67 101.174 120.655 100.938 120.673C100.701 120.692 100.331 120.744 99.8361 120.825C99.2853 120.925 98.8047 120.984 98.3907 120.995C97.9767 121.006 97.5849 120.932 97.2078 120.769C96.8308 120.607 96.5239 120.315 96.2911 119.893C96.0582 119.479 95.9621 119.058 96.0027 118.629C96.0434 118.2 96.206 117.797 96.4907 117.42C96.7753 117.043 97.1671 116.714 97.6625 116.437C98.1874 116.145 98.7049 115.975 99.2187 115.931C99.7326 115.886 100.198 115.968 100.616 116.171C101.034 116.374 101.366 116.7 101.614 117.139L101.703 117.295C101.721 117.328 101.725 117.365 101.714 117.402C101.703 117.439 101.681 117.468 101.647 117.487L100.461 118.152C100.428 118.171 100.391 118.174 100.354 118.167C100.317 118.16 100.287 118.134 100.269 118.101L100.224 118.019C100.062 117.731 99.8065 117.55 99.4553 117.48C99.1041 117.409 98.7234 117.491 98.3094 117.72C97.9841 117.901 97.7697 118.112 97.6662 118.352C97.5627 118.592 97.5775 118.832 97.7105 119.073C97.8066 119.246 97.9397 119.361 98.1135 119.417C98.2872 119.476 98.5016 119.49 98.7641 119.465C99.0265 119.439 99.4221 119.383 99.9507 119.295C100.538 119.198 101.012 119.143 101.366 119.124C101.721 119.106 102.087 119.169 102.464 119.317C102.841 119.465 103.148 119.753 103.392 120.185C103.754 120.832 103.802 121.475 103.54 122.119C103.274 122.762 102.738 123.309 101.925 123.764C101.374 124.07 100.842 124.255 100.331 124.311L100.335 124.322Z" fill="white"/>
<path d="M106.852 120.507C106.815 120.5 106.782 120.481 106.76 120.452L102.047 113.986C102.025 113.953 102.013 113.92 102.021 113.879C102.028 113.842 102.047 113.809 102.076 113.787L103.196 112.97C103.23 112.948 103.263 112.937 103.304 112.944C103.344 112.951 103.374 112.97 103.396 112.999L108.109 119.465C108.131 119.498 108.142 119.531 108.135 119.572C108.128 119.613 108.109 119.642 108.08 119.664L106.959 120.481C106.926 120.503 106.893 120.514 106.852 120.507Z" fill="white"/>
<path d="M111.481 116.603C110.967 116.74 110.457 116.733 109.958 116.578C109.459 116.422 109.005 116.13 108.602 115.698L106.872 113.846C106.472 113.421 106.214 112.951 106.099 112.445C105.981 111.938 106.01 111.436 106.184 110.933C106.358 110.43 106.668 109.968 107.119 109.55C107.574 109.125 108.058 108.841 108.572 108.704C109.086 108.563 109.589 108.571 110.088 108.722C110.587 108.874 111.034 109.162 111.433 109.587L113.163 111.439C113.566 111.872 113.832 112.345 113.954 112.855C114.076 113.369 114.05 113.875 113.877 114.378C113.703 114.881 113.389 115.343 112.934 115.772C112.483 116.193 112.002 116.47 111.485 116.607L111.481 116.603ZM112.439 113.702C112.446 113.317 112.294 112.959 111.98 112.622L110.202 110.718C109.888 110.386 109.541 110.205 109.156 110.182C108.772 110.16 108.417 110.297 108.095 110.6C107.777 110.896 107.618 111.236 107.618 111.624C107.618 112.009 107.774 112.371 108.084 112.704L109.862 114.607C110.176 114.94 110.52 115.117 110.905 115.14C111.285 115.162 111.636 115.021 111.954 114.726C112.272 114.43 112.435 114.09 112.442 113.702H112.439Z" fill="white"/>
<path d="M113.65 102.346C113.647 102.309 113.654 102.272 113.68 102.242L114.523 101.141C114.549 101.111 114.578 101.093 114.615 101.085C114.652 101.082 114.689 101.089 114.719 101.115L121.073 105.979C121.103 106.002 121.121 106.035 121.129 106.072C121.132 106.109 121.125 106.146 121.099 106.175L120.286 107.236C120.238 107.299 120.179 107.325 120.108 107.31L114.223 106.663C114.194 106.663 114.179 106.667 114.172 106.682C114.164 106.697 114.172 106.715 114.201 106.734L118.182 109.754C118.216 109.78 118.23 109.809 118.238 109.846C118.242 109.887 118.234 109.92 118.208 109.953L117.365 111.051C117.343 111.081 117.31 111.099 117.273 111.107C117.236 111.11 117.199 111.103 117.17 111.077L110.815 106.212C110.786 106.187 110.767 106.157 110.76 106.12C110.756 106.083 110.763 106.046 110.789 106.013L111.602 104.952C111.651 104.889 111.71 104.863 111.78 104.878L117.639 105.521C117.669 105.521 117.683 105.517 117.691 105.503C117.698 105.488 117.691 105.469 117.661 105.451L113.706 102.438C113.676 102.416 113.658 102.383 113.65 102.346Z" fill="white"/>
<path d="M123.341 102.098C122.941 102.42 122.513 102.608 122.062 102.656C121.611 102.704 121.163 102.616 120.727 102.379L120.498 102.257C120.465 102.239 120.439 102.213 120.428 102.172C120.417 102.135 120.42 102.098 120.439 102.065L121.075 100.875C121.093 100.841 121.123 100.815 121.16 100.804C121.197 100.793 121.234 100.797 121.267 100.815L121.422 100.901C121.699 101.048 122.006 101.045 122.335 100.889C122.664 100.734 122.945 100.438 123.178 99.9985C123.374 99.6289 123.444 99.3147 123.385 99.0485C123.326 98.7824 123.182 98.5901 122.949 98.4682C122.782 98.3794 122.612 98.361 122.435 98.409C122.261 98.4608 122.08 98.5569 121.888 98.701C121.699 98.8452 121.415 99.0855 121.041 99.4219C120.631 99.8026 120.258 100.109 119.918 100.346C119.577 100.583 119.204 100.73 118.797 100.793C118.391 100.86 117.977 100.779 117.552 100.549C117.134 100.328 116.827 100.024 116.628 99.64C116.428 99.2555 116.35 98.8304 116.387 98.3573C116.424 97.8841 116.576 97.3998 116.846 96.8971C117.127 96.3685 117.474 95.9471 117.884 95.6329C118.295 95.3187 118.731 95.1376 119.193 95.0821C119.655 95.0304 120.11 95.1228 120.553 95.3594L120.709 95.4444C120.742 95.4628 120.768 95.4924 120.779 95.5294C120.79 95.5664 120.786 95.6033 120.768 95.6366L120.128 96.838C120.11 96.8712 120.08 96.8971 120.043 96.9082C120.006 96.9193 119.969 96.9156 119.936 96.8971L119.851 96.8528C119.559 96.6975 119.245 96.6827 118.912 96.8121C118.579 96.9415 118.298 97.2187 118.077 97.6364C117.903 97.9654 117.836 98.2575 117.877 98.5162C117.918 98.775 118.062 98.9709 118.302 99.1003C118.476 99.1927 118.65 99.2186 118.827 99.1742C119.005 99.1298 119.193 99.0263 119.4 98.8637C119.607 98.701 119.91 98.4386 120.309 98.08C120.753 97.6808 121.123 97.3814 121.411 97.1707C121.699 96.9637 122.043 96.8195 122.439 96.7382C122.834 96.6605 123.252 96.7382 123.692 96.971C124.346 97.3222 124.734 97.836 124.856 98.5199C124.978 99.2038 124.823 99.9542 124.383 100.775C124.084 101.333 123.736 101.773 123.337 102.094L123.341 102.098Z" fill="white"/>
</g>
<defs>
<clipPath id="clip0_124_3853">
<rect width="147.892" height="147.892" fill="white" transform="translate(0 0.0284424)"/>
</clipPath>
</defs>
</svg>