<svg width="120" height="120" viewBox="0 0 120 120" fill="none" xmlns="http://www.w3.org/2000/svg">
<g clip-path="url(#clip0_1_360)">
<path d="M63.4703 9.0672L65.345 3.22437C66.6167 -0.743839 72.4775 0.185975 72.4595 4.35214L72.4355 10.4889C72.4235 14.0342 76.9646 15.5099 79.0372 12.6335L82.6245 7.65748C85.06 4.27716 90.3449 6.97062 89.0432 10.9268L87.1266 16.7547C86.0198 20.123 89.883 22.9304 92.7415 20.8338L97.6905 17.2076C101.053 14.7451 105.246 18.9412 102.783 22.3006L99.1572 27.2496C97.0636 30.111 99.871 33.9742 103.236 32.8644L109.064 30.9478C113.023 29.6461 115.714 34.931 112.334 37.3665L107.358 40.9538C104.481 43.0264 105.957 47.5705 109.502 47.5555L115.639 47.5315C119.805 47.5165 120.735 53.3743 116.767 54.6461L110.924 56.5207C107.55 57.6035 107.55 62.3785 110.924 63.4613L116.767 65.336C120.735 66.6077 119.805 72.4685 115.639 72.4505L109.502 72.4265C105.957 72.4145 104.481 76.9556 107.358 79.0282L112.334 82.6155C115.714 85.051 113.02 90.3359 109.064 89.0342L103.236 87.1176C99.868 86.0108 97.0606 89.874 99.1572 92.7325L102.783 97.6815C105.246 101.044 101.05 105.237 97.6905 102.774L92.7415 99.1482C89.88 97.0546 86.0168 99.862 87.1266 103.227L89.0432 109.055C90.3449 113.014 85.06 115.705 82.6245 112.325L79.0372 107.349C76.9646 104.472 72.4205 105.948 72.4355 109.493L72.4595 115.63C72.4745 119.796 66.6167 120.726 65.345 116.758L63.4703 110.915C62.3875 107.541 57.6125 107.541 56.5297 110.915L54.6551 116.758C53.3833 120.726 47.5225 119.796 47.5405 115.63L47.5645 109.493C47.5765 105.948 43.0354 104.472 40.9628 107.349L37.3755 112.325C34.94 115.705 29.6551 113.011 30.9568 109.055L32.8734 103.227C33.9802 99.859 30.117 97.0516 27.2586 99.1482L22.3096 102.774C18.9472 105.237 14.7541 101.041 17.2166 97.6815L20.8428 92.7325C22.9364 89.871 20.129 86.0078 16.7637 87.1176L10.9358 89.0342C6.97662 90.3359 4.28616 85.051 7.66648 82.6155L12.6425 79.0282C15.5189 76.9556 14.0432 72.4115 10.4979 72.4265L4.36115 72.4505C0.194978 72.4655 -0.734836 66.6077 3.23337 65.336L9.0762 63.4613C12.4505 62.3785 12.4505 57.6035 9.0762 56.5207L3.23337 54.6461C-0.734836 53.3743 0.194978 47.5135 4.36115 47.5315L10.4979 47.5555C14.0432 47.5675 15.5189 43.0264 12.6425 40.9538L7.66648 37.3665C4.28616 34.931 6.97962 29.6461 10.9358 30.9478L16.7637 32.8644C20.132 33.9712 22.9394 30.108 20.8428 27.2496L17.2166 22.3006C14.7541 18.9382 18.9502 14.7451 22.3096 17.2076L27.2586 20.8338C30.12 22.9274 33.9832 20.12 32.8734 16.7547L30.9568 10.9268C29.6551 6.96762 34.94 4.27716 37.3755 7.65748L40.9628 12.6335C43.0354 15.5099 47.5795 14.0342 47.5645 10.4889L47.5405 4.35214C47.5255 0.185975 53.3833 -0.743839 54.6551 3.22437L56.5297 9.0672C57.6125 12.4415 62.3875 12.4415 63.4703 9.0672Z" fill="#13304E"/>
<path d="M26.4398 21.5327L23.6324 16.0768C21.7278 12.3725 26.5268 8.88421 29.4602 11.8416L33.7824 16.1967C36.2809 18.7132 40.534 16.5447 39.9671 13.0444L38.9833 6.98858C38.3175 2.87641 43.9563 1.04377 45.834 4.76303L48.5994 10.2399C50.1981 13.4043 54.9131 12.6575 55.456 9.15415L56.3918 3.08936C57.0277 -1.02881 62.9605 -1.02881 63.5964 3.08936L64.5322 9.15415C65.0751 12.6575 69.7902 13.4043 71.3888 10.2399L74.1543 4.76303C76.0319 1.04377 81.6738 2.87641 81.0049 6.98858L80.0211 13.0444C79.4542 16.5447 83.7104 18.7132 86.2059 16.1967L90.528 11.8416C93.4644 8.88421 98.2635 12.3695 96.3559 16.0768L93.5484 21.5327C91.9257 24.685 95.3031 28.0624 98.4554 26.4397L103.911 23.6323C107.616 21.7276 111.104 26.5267 108.146 29.4601L103.791 33.7822C101.275 36.2807 103.443 40.5339 106.944 39.967L113 38.9832C117.112 38.3173 118.944 43.9562 115.225 45.8338L109.748 48.5993C106.584 50.1979 107.331 54.913 110.834 55.4559L116.899 56.3917C121.017 57.0276 121.017 62.9604 116.899 63.5963L110.834 64.5321C107.331 65.075 106.584 69.79 109.748 71.3887L115.225 74.1542C118.944 76.0318 117.112 81.6737 113 81.0048L106.944 80.021C103.443 79.4541 101.275 83.7102 103.791 86.2057L108.146 90.5279C111.104 93.4643 107.619 98.2633 103.911 96.3557L98.4554 93.5483C95.3031 91.9256 91.9257 95.3029 93.5484 98.4553L96.3559 103.911C98.2605 107.615 93.4614 111.104 90.528 108.146L86.2059 103.791C83.7074 101.275 79.4542 103.443 80.0211 106.944L81.0049 112.999C81.6708 117.112 76.0319 118.944 74.1543 115.225L71.3888 109.748C69.7902 106.584 65.0751 107.331 64.5322 110.834L63.5964 116.899C62.9605 121.017 57.0277 121.017 56.3918 116.899L55.456 110.834C54.9161 107.331 50.1981 106.584 48.5994 109.748L45.834 115.225C43.9563 118.944 38.3145 117.112 38.9833 112.999L39.9671 106.944C40.534 103.443 36.2779 101.275 33.7824 103.791L29.4602 108.146C26.5238 111.104 21.7248 107.618 23.6324 103.911L26.4398 98.4553C28.0625 95.3029 24.6852 91.9256 21.5298 93.5483L16.0739 96.3557C12.3696 98.2603 8.88134 93.4613 11.8387 90.5279L16.1939 86.2057C18.7104 83.7072 16.5418 79.4541 13.0415 80.021L6.98572 81.0048C2.87354 81.6707 1.04091 76.0318 4.76016 74.1542L10.2371 71.3887C13.4014 69.79 12.6546 65.075 9.15128 64.5321L3.0865 63.5963C-1.03168 62.9604 -1.03168 57.0276 3.0865 56.3917L9.15128 55.4559C12.6546 54.916 13.4014 50.1979 10.2371 48.5993L4.76016 45.8338C1.04091 43.9562 2.87354 38.3143 6.98572 38.9832L13.0415 39.967C16.5418 40.5339 18.7104 36.2777 16.1939 33.7822L11.8387 29.4601C8.88134 26.5237 12.3666 21.7246 16.0739 23.6323L21.5298 26.4397C24.6822 28.0624 28.0595 24.685 26.4398 21.5327Z" fill="#9FC86A"/>
<path d="M60 116.845C91.3944 116.845 116.845 91.3944 116.845 60C116.845 28.6056 91.3944 3.15536 60 3.15536C28.6056 3.15536 3.1554 28.6056 3.1554 60C3.1554 91.3944 28.6056 116.845 60 116.845Z" fill="#59843D"/>
<path d="M60.8519 112.397C31.9137 112.867 8.07442 89.787 7.60351 60.8518C7.59152 60.105 7.59452 59.3641 7.61551 58.6263C7.75948 52.9574 8.80927 47.5075 10.6239 42.4145C12.7895 36.3407 16.0438 30.7768 20.159 25.9658C23.8933 21.5927 28.3384 17.8404 33.3204 14.889C33.3954 14.844 33.4703 14.802 33.5453 14.7571C39.5081 11.2598 46.2328 8.90822 53.4194 8.0084C55.3 7.77145 57.2106 7.63648 59.1512 7.60348C59.8621 7.59148 60.5729 7.59448 61.2778 7.61248C71.9796 7.86743 81.9107 11.3377 90.12 17.1176C99.6191 23.7942 106.809 33.5603 110.216 44.982C111.512 49.3161 112.262 53.8932 112.385 58.6263C112.391 58.8002 112.394 58.9742 112.397 59.1482C112.867 88.0864 89.7871 111.926 60.8519 112.397Z" fill="#13304E"/>
<path d="M110.216 44.982C105.888 44.907 103.59 40.093 104.94 37.8914C102.448 38.0834 101.395 36.2748 101.395 36.2748L99.5021 33.5453C96.7187 31.1308 99.7481 28.5903 99.7481 28.5903C99.7481 28.5903 97.2106 27.9874 98.5993 25.7709C95.5789 26.5747 95.036 24.1212 95.036 24.1212C95.036 24.1212 92.7415 24.907 92.4385 22.7924C89.841 21.0618 89.7901 18.6713 90.12 17.1176C99.6191 23.7942 106.809 33.5603 110.216 44.982Z" fill="#7B8C9D"/>
<path d="M61.2778 7.61248C60.159 10.3629 56.5358 9.5351 56.5358 9.5351C56.5358 9.5351 57.2376 11.7696 54.7061 12.3125C52.3456 12.8224 51.0049 10.8338 51.0049 10.8338C51.0049 10.8338 50.8849 12.3425 48.5903 11.7996C49.4362 12.7654 48.4854 13.5873 48.4854 13.5873L45.348 14.6851C45.348 14.6851 43.9983 14.5771 43.8183 13.3683C42.9725 14.7601 42.0067 13.1284 42.0067 13.1284C42.0067 13.1284 37.6035 16.8416 33.5453 14.7571C39.5082 11.2598 46.2328 8.90822 53.4194 8.0084C55.3 7.77145 57.2106 7.63648 59.1512 7.60348C59.8621 7.59148 60.5729 7.59448 61.2778 7.61248Z" fill="#7B8C9D"/>
<path d="M20.5279 33.5453C20.8998 35.3539 18.6353 36.2748 18.6353 36.2748C18.6353 36.2748 19.6791 39.1692 15.7889 40.5429C16.4757 41.7907 13.1194 44.2172 10.6239 42.4145C12.7895 36.3407 16.0438 30.7769 20.159 25.9658C20.9538 26.3647 21.7097 27.1146 21.4337 28.4913C23.2634 29.4811 23.2094 32.2706 20.5279 33.5453Z" fill="#7B8C9D"/>
<path d="M60.7409 14.0102H59.5021V16.8597H60.7409V14.0102Z" fill="#FBB62D"/>
<path d="M65.8879 12.3126H63.4764V16.8567H65.8879V12.3126Z" fill="#FBB62D"/>
<path d="M67.6575 16.3228H55.423V29.1302H67.6575V16.3228Z" fill="#FB9129"/>
<path d="M65.8849 17.6605H57.5256V18.5003H65.8849V17.6605Z" fill="#FBB62D"/>
<path d="M65.8849 18.9652H57.5256V19.8051H65.8849V18.9652Z" fill="#FBB62D"/>
<path d="M65.8849 20.27H57.5256V21.1098H65.8849V20.27Z" fill="#FBB62D"/>
<path d="M65.8849 21.5717H57.5256V22.4115H65.8849V21.5717Z" fill="#FBB62D"/>
<path d="M34.1452 22.8194L32.4505 23.8752L31.0648 21.6467L33.3924 21.6107L34.1452 22.8194Z" fill="#FBD34C"/>
<path d="M36.9916 21.0468L35.3 22.1026L33.9142 19.874L36.2418 19.838L36.9916 21.0468Z" fill="#FBD34C"/>
<path d="M39.8411 19.2742L38.1464 20.3269L36.7607 18.1014L39.0882 18.0654L39.8411 19.2742Z" fill="#FBD34C"/>
<path d="M40.5338 18.1114L25.9913 27.1634L34.8482 41.3927L49.3908 32.3408L40.5338 18.1114Z" fill="#FBB62D"/>
<path d="M30.8822 24.1176L25.9906 27.1624L34.8476 41.3917L39.7392 38.3469L30.8822 24.1176Z" fill="#FB9129"/>
<path d="M35.8112 23.4942L33.6111 24.8637L34.7713 26.7276L36.9714 25.3582L35.8112 23.4942Z" fill="#FB9129"/>
<path d="M38.9909 21.5162L36.7908 22.8857L37.9511 24.7497L40.1511 23.3802L38.9909 21.5162Z" fill="#FB9129"/>
<path d="M37.4786 26.1737L35.2785 27.5431L36.4387 29.4071L38.6388 28.0376L37.4786 26.1737Z" fill="#FB9129"/>
<path d="M40.66 24.1982L38.4599 25.5677L39.6201 27.4316L41.8202 26.0622L40.66 24.1982Z" fill="#FB9129"/>
<path d="M39.1476 28.8556L36.9475 30.2251L38.1077 32.089L40.3078 30.7196L39.1476 28.8556Z" fill="#FB9129"/>
<path d="M42.3244 26.8746L40.1243 28.2441L41.2845 30.108L43.4846 28.7386L42.3244 26.8746Z" fill="#FB9129"/>
<path d="M32.1236 31.7667C31.4937 32.1596 31.3017 32.9874 31.6947 33.6143L36.0648 40.6359L38.3443 39.2172L33.9742 32.1956C33.5813 31.5657 32.7534 31.3738 32.1266 31.7667H32.1236Z" fill="#FBD34C"/>
<path d="M44.4996 30.5293L39.1954 33.8309L39.5172 34.3478L44.8214 31.0462L44.4996 30.5293Z" fill="#FBD34C"/>
<path d="M45.208 31.6718L39.9038 34.9733L40.2256 35.4902L45.5297 32.1887L45.208 31.6718Z" fill="#FBD34C"/>
<path d="M78.8572 20.6809L75.9508 18.9202L78.2663 15.096L80.114 18.6053L78.8572 20.6809Z" fill="#FB9129"/>
<path d="M83.7493 23.6413L80.8428 21.8806L83.1584 18.0564L85.006 21.5657L83.7493 23.6413Z" fill="#FB9129"/>
<path d="M88.6413 26.6047L85.7319 24.844L88.0474 21.0198L89.898 24.5291L88.6413 26.6047Z" fill="#FB9129"/>
<path d="M89.9987 26.6906L75.3452 17.8195L66.6652 32.1575L81.3188 41.0286L89.9987 26.6906Z" fill="#FBB62D"/>
<path d="M80.274 20.803L75.345 17.8191L66.6651 32.1571L71.5941 35.141L80.274 20.803Z" fill="#FB9129"/>
<path d="M77.8054 21.428L75.9375 20.2972L69.1355 31.5331L71.0034 32.6639L77.8054 21.428Z" fill="#FBB62D"/>
<path d="M86.5108 26.2774L81.1661 23.0419L80.593 23.9887L85.9376 27.2242L86.5108 26.2774Z" fill="#FBD34C"/>
<path d="M85.2494 28.358L79.9047 25.1224L79.3315 26.0692L84.6762 29.3048L85.2494 28.358Z" fill="#FBD34C"/>
<path d="M54.8621 29.0642L50.012 30.7618L48.2424 24.6611L47.1386 20.8608L46.6947 19.3341L46.1488 17.4445L45.348 14.6851L48.4823 13.5873L49.5801 16.2447L50.33 18.0654L50.9358 19.5321L52.4415 23.1914L54.8621 29.0642Z" fill="#FBD34C"/>
<path d="M50.33 18.0654L46.6947 19.3341L46.1488 17.4445L49.5801 16.2448L50.33 18.0654Z" fill="#FB9129"/>
<path d="M52.4415 23.1914L48.2424 24.6611L47.1386 20.8608L50.9359 19.5321L52.4415 23.1914Z" fill="#FB9129"/>
<path d="M34.7811 42.3275L31.8507 46.5507L26.8357 42.6515L23.7103 40.222L22.4566 39.2472L20.9029 38.0384L18.6353 36.2747L20.5279 33.5453L22.9754 35.051L24.6521 36.0858L26.0048 36.9196L29.3732 38.9952L34.7811 42.3275Z" fill="#FBD34C"/>
<path d="M30.009 47.2825L24.0102 45.15L22.7775 48.0894L28.8093 50.5159" fill="#FBB62D"/>
<path d="M89.4031 47.2825L95.3989 45.15L96.6347 48.0894L90.6029 50.5159" fill="#FBB62D"/>
<path d="M24.6521 36.0858L22.4565 39.2472L20.9028 38.0384L22.9754 35.051L24.6521 36.0858Z" fill="#FB9129"/>
<path d="M29.3732 38.9952L26.8357 42.6515L23.7103 40.222L26.0049 36.9196L29.3732 38.9952Z" fill="#FB9129"/>
<path d="M85.249 42.3275L88.1794 46.5507L93.1944 42.6515L96.3198 40.222L97.5736 39.2472L99.1272 38.0384L101.395 36.2747L99.5022 33.5453L97.0547 35.051L95.378 36.0858L94.0253 36.9196L90.6569 38.9952L85.249 42.3275Z" fill="#FBD34C"/>
<path d="M84.1362 38.2093L88.5963 34.5321L90.201 36.3167L86.2598 40.15" fill="#FBB62D"/>
<path d="M95.378 36.0858L97.5736 39.2472L99.1272 38.0384L97.0547 35.051L95.378 36.0858Z" fill="#FB9129"/>
<path d="M90.6569 38.9952L93.1944 42.6515L96.3198 40.222L94.0253 36.9196L90.6569 38.9952Z" fill="#FB9129"/>
<path d="M60.8519 112.397C31.9137 112.867 8.07442 89.7871 7.60351 60.8518C7.59152 60.105 7.59452 59.3641 7.61551 58.6263H112.385C112.391 58.8002 112.394 58.9742 112.397 59.1482C112.867 88.0864 89.7871 111.926 60.8519 112.397Z" fill="#9FC86A"/>
<path d="M60 94.2292C78.9043 94.2292 94.2292 78.9042 94.2292 60C94.2292 41.0958 78.9043 25.7708 60 25.7708C41.0958 25.7708 25.7709 41.0958 25.7709 60C25.7709 78.9042 41.0958 94.2292 60 94.2292Z" fill="#59843D"/>
<path d="M60 89.991C76.5636 89.991 89.991 76.5636 89.991 60C89.991 43.4364 76.5636 30.009 60 30.009C43.4365 30.009 30.009 43.4364 30.009 60C30.009 76.5636 43.4365 89.991 60 89.991Z" fill="#13304E"/>
<path d="M52.4805 38.1554C52.8532 38.1554 53.1554 37.8532 53.1554 37.4805C53.1554 37.1078 52.8532 36.8056 52.4805 36.8056C52.1078 36.8056 51.8057 37.1078 51.8057 37.4805C51.8057 37.8532 52.1078 38.1554 52.4805 38.1554Z" fill="#9FC86A"/>
<path d="M56.7487 37.0006C56.7487 37.6395 56.2328 38.1554 55.5939 38.1554C54.955 38.1554 54.4391 37.6395 54.4391 37.0006C54.4391 36.3617 54.955 35.8458 55.5939 35.8458C56.2328 35.8458 56.7487 36.3617 56.7487 37.0006Z" fill="#9FC86A"/>
<path d="M59.0912 39.3401C59.9228 39.3401 60.5969 38.666 60.5969 37.8344C60.5969 37.0029 59.9228 36.3287 59.0912 36.3287C58.2596 36.3287 57.5855 37.0029 57.5855 37.8344C57.5855 38.666 58.2596 39.3401 59.0912 39.3401Z" fill="#9FC86A"/>
<path d="M62.0306 42.1356C62.9285 42.1356 63.6563 41.4077 63.6563 40.5099C63.6563 39.6121 62.9285 38.8842 62.0306 38.8842C61.1328 38.8842 60.405 39.6121 60.405 40.5099C60.405 41.4077 61.1328 42.1356 62.0306 42.1356Z" fill="#9FC86A"/>
<path d="M64.6791 45.045C64.6791 46.1248 63.8033 47.0036 62.7205 47.0036C61.6377 47.0036 60.7619 46.1278 60.7619 45.045C60.7619 43.9622 61.6377 43.0864 62.7205 43.0864C63.8033 43.0864 64.6791 43.9622 64.6791 45.045Z" fill="#9FC86A"/>
<path d="M52.7205 39.0402C39.8231 42.0546 43.7163 60.5249 43.7163 60.5249C47.6695 50.009 59.7241 51.0288 59.7451 44.3791C59.7571 40.7649 56.2418 38.2184 52.7205 39.0402ZM44.955 53.1974C45.3749 43.0894 52.4835 43.0894 52.4835 43.0894C52.4835 43.0894 47.3066 45.048 44.955 53.1974Z" fill="#9FC86A"/>
<path d="M41.9676 76.1098C42.2916 75.9238 42.7025 76.0348 42.8915 76.3557C43.0774 76.6796 42.9664 77.0906 42.6455 77.2795C42.3216 77.4655 41.9107 77.3545 41.7217 77.0336C41.5357 76.7096 41.6467 76.2987 41.9676 76.1098Z" fill="#9FC86A"/>
<path d="M39.7571 73.2394C40.3089 72.9214 41.0168 73.1104 41.3347 73.6623C41.6527 74.2142 41.4637 74.922 40.9118 75.24C40.3599 75.5579 39.6521 75.3689 39.3341 74.817C39.0162 74.2651 39.2052 73.5573 39.7571 73.2394Z" fill="#9FC86A"/>
<path d="M38.5513 69.4871C39.2712 69.0702 40.195 69.3191 40.6089 70.039C41.0228 70.7588 40.7769 71.6827 40.057 72.0966C39.3371 72.5105 38.4133 72.2645 37.9994 71.5447C37.5855 70.8248 37.8314 69.901 38.5513 69.4871Z" fill="#9FC86A"/>
<path d="M39.3401 65.5039C40.117 65.054 41.1098 65.3209 41.5597 66.0978C42.0096 66.8746 41.7426 67.8674 40.9658 68.3173C40.189 68.7672 39.1961 68.5003 38.7462 67.7235C38.2963 66.9466 38.5633 65.9538 39.3401 65.5039Z" fill="#9FC86A"/>
<path d="M42.7595 62.3485C43.6953 61.8086 44.892 62.1296 45.4349 63.0654C45.9748 64.0012 45.6539 65.198 44.7181 65.7408C43.7823 66.2837 42.5855 65.9598 42.0426 65.024C41.4997 64.0882 41.8237 62.8914 42.7595 62.3485Z" fill="#9FC86A"/>
<path d="M43.5363 75.7078C52.5945 85.3689 66.6467 72.7624 66.6467 72.7624C55.5639 74.5951 50.4199 63.6473 44.6491 66.9556C41.5117 68.7522 41.0648 73.0714 43.5363 75.7078ZM59.6791 75.3569C50.7169 80.048 47.1596 73.8902 47.1596 73.8902C47.1596 73.8902 51.4427 77.3935 59.6791 75.3569Z" fill="#9FC86A"/>
<path d="M81.7876 65.8038C81.4637 65.6179 81.3527 65.204 81.5417 64.88C81.7276 64.5561 82.1416 64.4451 82.4655 64.6341C82.7894 64.82 82.9004 65.234 82.7114 65.5579C82.5255 65.8818 82.1116 65.9928 81.7876 65.8038Z" fill="#9FC86A"/>
<path d="M80.4079 69.1542C79.856 68.8362 79.6671 68.1284 79.985 67.5765C80.303 67.0246 81.0108 66.8356 81.5627 67.1536C82.1146 67.4715 82.3036 68.1794 81.9856 68.7312C81.6677 69.2831 80.9598 69.4721 80.4079 69.1542Z" fill="#9FC86A"/>
<path d="M77.7595 72.0726C77.0396 71.6557 76.7907 70.7349 77.2076 70.015C77.6245 69.2951 78.5453 69.0462 79.2652 69.4631C79.985 69.88 80.234 70.8008 79.8171 71.5207C79.4001 72.2406 78.4793 72.4895 77.7595 72.0726Z" fill="#9FC86A"/>
<path d="M73.9172 73.3833C73.1404 72.9334 72.8734 71.9406 73.3233 71.1638C73.7732 70.3869 74.766 70.12 75.5429 70.5699C76.3197 71.0198 76.5867 72.0126 76.1368 72.7894C75.6869 73.5663 74.6941 73.8332 73.9172 73.3833Z" fill="#9FC86A"/>
<path d="M69.4751 72.0006C68.5393 71.4607 68.2184 70.2639 68.7583 69.3251C69.2981 68.3863 70.4949 68.0684 71.4337 68.6083C72.3695 69.1482 72.6905 70.3449 72.1506 71.2837C71.6107 72.2196 70.4139 72.5405 69.4751 72.0006Z" fill="#9FC86A"/>
<path d="M80.6569 64.6461C84.4961 51.9706 66.5537 46.1038 66.5537 46.1038C73.6833 54.7841 66.7727 64.7151 72.5225 68.0564C75.6479 69.874 79.6101 68.1044 80.6569 64.6431V64.6461ZM72.2796 50.8428C80.8219 56.2598 77.2676 62.4175 77.2676 62.4175C77.2676 62.4175 78.1614 56.9556 72.2796 50.8428Z" fill="#9FC86A"/>
<path d="M17.0156 69.4781C17.0156 69.4781 5.20698 64.997 17.0156 51.9676C28.4043 65.135 17.0156 69.4781 17.0156 69.4781Z" fill="#59843D"/>
<path d="M16.9226 71.4727C16.7577 71.4727 16.6227 71.3377 16.6227 71.1728V56.0768C16.6227 55.9118 16.7577 55.7769 16.9226 55.7769C17.0876 55.7769 17.2226 55.9118 17.2226 56.0768V71.1728C17.2226 71.3377 17.0876 71.4727 16.9226 71.4727Z" fill="#13304E"/>
<path d="M16.9766 60.195L14.928 58.2424C14.8081 58.1284 14.8051 57.9394 14.919 57.8195C15.033 57.6995 15.225 57.6965 15.342 57.8105L16.9556 59.3492L18.4943 57.7355C18.6083 57.6155 18.7973 57.6125 18.9172 57.7265C19.0372 57.8405 19.0432 58.0294 18.9262 58.1494L16.9736 60.198L16.9766 60.195Z" fill="#13304E"/>
<path d="M16.9766 63.3563L14.928 61.4037C14.8081 61.2897 14.8051 61.1008 14.919 60.9808C15.033 60.8608 15.225 60.8578 15.342 60.9718L16.9556 62.5105L18.4943 60.8968C18.6083 60.7768 18.7973 60.7738 18.9172 60.8878C19.0372 61.0018 19.0432 61.1908 18.9262 61.3107L16.9736 63.3593L16.9766 63.3563Z" fill="#13304E"/>
<path d="M16.9766 66.5177L14.928 64.5651C14.8081 64.4511 14.8051 64.2622 14.919 64.1422C15.033 64.0222 15.225 64.0192 15.342 64.1332L16.9556 65.6719L18.4943 64.0582C18.6083 63.9382 18.7973 63.9352 18.9172 64.0492C19.0372 64.1632 19.0432 64.3521 18.9262 64.4721L16.9736 66.5207L16.9766 66.5177Z" fill="#13304E"/>
<path d="M103.17 69.4781C103.17 69.4781 91.3618 64.997 103.17 51.9676C114.559 65.135 103.17 69.4781 103.17 69.4781Z" fill="#59843D"/>
<path d="M103.077 71.4727C102.912 71.4727 102.777 71.3377 102.777 71.1728V56.0768C102.777 55.9118 102.912 55.7769 103.077 55.7769C103.242 55.7769 103.377 55.9118 103.377 56.0768V71.1728C103.377 71.3377 103.242 71.4727 103.077 71.4727Z" fill="#13304E"/>
<path d="M103.128 60.195L101.08 58.2424C100.96 58.1284 100.954 57.9394 101.071 57.8195C101.185 57.6995 101.377 57.6965 101.494 57.8105L103.107 59.3492L104.646 57.7355C104.76 57.6155 104.949 57.6125 105.069 57.7265C105.189 57.8405 105.192 58.0294 105.078 58.1494L103.125 60.198L103.128 60.195Z" fill="#13304E"/>
<path d="M103.128 63.3563L101.08 61.4037C100.96 61.2897 100.954 61.1008 101.071 60.9808C101.185 60.8608 101.377 60.8578 101.494 60.9718L103.107 62.5105L104.646 60.8968C104.76 60.7768 104.949 60.7738 105.069 60.8878C105.189 61.0018 105.192 61.1908 105.078 61.3107L103.125 63.3593L103.128 63.3563Z" fill="#13304E"/>
<path d="M103.128 66.5177L101.08 64.5651C100.96 64.4511 100.954 64.2622 101.071 64.1422C101.185 64.0222 101.377 64.0192 101.494 64.1332L103.107 65.6719L104.646 64.0582C104.76 63.9382 104.949 63.9352 105.069 64.0492C105.189 64.1632 105.192 64.3521 105.078 64.4721L103.125 66.5207L103.128 66.5177Z" fill="#13304E"/>
<path d="M18.1494 79.2472C18.1584 78.8212 18.2754 78.4403 18.5003 78.1014C18.7253 77.7625 19.0462 77.4895 19.4571 77.2856L21.4457 76.3047C21.8597 76.1008 22.2676 76.0138 22.6755 76.0408C23.0804 76.0678 23.4553 76.2088 23.7943 76.4637C24.1332 76.7187 24.4151 77.0696 24.6341 77.5165C24.8531 77.9574 24.961 78.3893 24.964 78.8033C24.964 79.2202 24.8621 79.5951 24.6521 79.931C24.4421 80.267 24.1392 80.5309 23.7433 80.7289C23.6923 80.7529 23.6443 80.7349 23.5963 80.6719L23.0384 79.6941L23.0294 79.6761C23.0024 79.6191 23.0174 79.5741 23.0804 79.5441C23.3834 79.3941 23.5813 79.1812 23.6743 78.9022C23.7673 78.6263 23.7373 78.3353 23.5873 78.0294C23.4343 77.7205 23.2184 77.5165 22.9454 77.4205C22.6695 77.3245 22.3786 77.3515 22.0756 77.5015L20 78.5273C19.7001 78.6743 19.5051 78.8872 19.4151 79.1632C19.3222 79.4391 19.3552 79.7331 19.5081 80.045C19.6581 80.3479 19.8711 80.5489 20.147 80.6449C20.4229 80.7409 20.7109 80.7139 21.0078 80.5669C21.0708 80.5369 21.1188 80.5549 21.1548 80.6239L21.6077 81.6527C21.6227 81.6827 21.6257 81.7097 21.6167 81.7397C21.6077 81.7697 21.5927 81.7877 21.5717 81.7996C21.1758 81.9946 20.7799 82.0756 20.384 82.0366C19.988 82.0006 19.6221 81.8536 19.2922 81.6017C18.9592 81.3467 18.6833 80.9988 18.4673 80.5579C18.2454 80.111 18.1404 79.6731 18.1494 79.2472Z" fill="white"/>
<path d="M23.3504 88.1194L23.9472 87.3365C23.9592 87.3125 23.9622 87.2916 23.9502 87.2736L22.5735 85.3539C22.5615 85.3389 22.5435 85.3329 22.5135 85.3389L21.5867 85.6599C21.5237 85.6809 21.4727 85.6659 21.4368 85.6149L20.7259 84.6251C20.7049 84.5951 20.6959 84.5651 20.7019 84.5351C20.7079 84.5051 20.7349 84.4841 20.7769 84.4691L27.2616 82.3695C27.3246 82.3485 27.3756 82.3635 27.4116 82.4145L28.2904 83.6383C28.3264 83.6893 28.3264 83.7433 28.2844 83.7973L24.2172 89.2682C24.2172 89.2682 24.1992 89.2922 24.1842 89.3041C24.1362 89.3371 24.0942 89.3251 24.0522 89.2682L23.3414 88.2784C23.3054 88.2274 23.3054 88.1734 23.3474 88.1224L23.3504 88.1194ZM23.6203 85.018L24.6041 86.3917C24.6251 86.4217 24.6491 86.4217 24.6731 86.3917L26.4877 84.0282C26.5057 84.0072 26.5087 83.9952 26.4997 83.9862C26.4907 83.9772 26.4757 83.9772 26.4547 83.9832L23.6443 84.958C23.6083 84.976 23.6023 84.997 23.6203 85.024V85.018Z" fill="white"/>
<path d="M28.3084 93.5963L29.3282 90.8608C29.3372 90.8339 29.3312 90.8099 29.3132 90.7919L28.6773 90.162C28.6533 90.138 28.6323 90.141 28.6083 90.162L26.7637 92.0246C26.7397 92.0486 26.7127 92.0576 26.6827 92.0606C26.6497 92.0606 26.6227 92.0486 26.6017 92.0276L25.8039 91.2358C25.7799 91.2118 25.7709 91.1848 25.7709 91.1548C25.7709 91.1218 25.7829 91.0948 25.8039 91.0738L30.375 86.4607C30.3989 86.4367 30.4259 86.4277 30.4559 86.4277C30.4859 86.4277 30.5159 86.4397 30.5369 86.4607L32.4865 88.3953C32.7775 88.6833 32.9754 88.9952 33.0774 89.3342C33.1794 89.6701 33.1854 90.009 33.0894 90.345C32.9934 90.6839 32.8045 90.9958 32.5195 91.2808C32.2136 91.5897 31.8717 91.7787 31.4997 91.8447C31.1278 91.9106 30.7559 91.8537 30.387 91.6707C30.354 91.6587 30.333 91.6647 30.318 91.6977L29.3312 94.5471C29.3222 94.5741 29.3132 94.5921 29.3042 94.6011C29.2682 94.6371 29.2262 94.6311 29.1752 94.5801L28.3354 93.7493C28.2904 93.7043 28.2784 93.6533 28.2994 93.5933L28.3084 93.5963ZM30.5669 88.1944L29.4121 89.3611C29.3882 89.3851 29.3882 89.4061 29.4121 89.4301L30.306 90.315C30.4979 90.5039 30.7079 90.6029 30.9418 90.6089C31.1758 90.6149 31.3828 90.5279 31.5627 90.345C31.7427 90.162 31.8297 89.955 31.8237 89.7181C31.8177 89.4811 31.7187 89.2712 31.5297 89.0822L30.6359 88.1974C30.6119 88.1734 30.5909 88.1764 30.5669 88.1974V88.1944Z" fill="white"/>
<path d="M36.3797 95.7379C36.6917 96.3467 36.6347 96.9496 36.2088 97.5435C35.8459 98.0474 35.4019 98.3053 34.874 98.3173C34.3462 98.3293 33.8033 98.1344 33.2454 97.7355L31.2238 96.2867C31.1968 96.2688 31.1818 96.2418 31.1758 96.2118C31.1698 96.1818 31.1758 96.1518 31.1968 96.1248L34.982 90.8488C35 90.8218 35.027 90.8068 35.057 90.8009C35.087 90.7949 35.117 90.8008 35.144 90.8218L37.1026 92.2286C38.3354 93.1134 38.5933 94.0552 37.8764 95.054C37.5015 95.5729 37.0156 95.7889 36.4127 95.6929C36.3707 95.6869 36.3588 95.7019 36.3797 95.7409V95.7379ZM34.6221 97.0006C34.8441 96.9766 35.033 96.8566 35.186 96.6437C35.339 96.4307 35.3929 96.2148 35.345 95.9958C35.297 95.7768 35.15 95.5789 34.907 95.4049L33.9382 94.7121C33.9112 94.6941 33.8902 94.6971 33.8722 94.7241L32.9424 96.0198C32.9244 96.0468 32.9274 96.0678 32.9544 96.0858L33.9292 96.7846C34.1692 96.9556 34.4001 97.0306 34.6221 97.0036V97.0006ZM35.4439 92.5255L34.5711 93.7433C34.5531 93.7703 34.5561 93.7913 34.5831 93.8092L35.4949 94.4631C35.7409 94.6371 35.9718 94.7181 36.1878 94.7001C36.4037 94.6821 36.5837 94.5741 36.7277 94.3761C36.8746 94.1722 36.9196 93.9652 36.8686 93.7493C36.8177 93.5333 36.6707 93.3413 36.4247 93.1644L35.5129 92.5105C35.4859 92.4925 35.4649 92.4955 35.4469 92.5225L35.4439 92.5255Z" fill="white"/>
<path d="M38.3744 100.69C38.1254 100.336 37.9874 99.949 37.9604 99.5261C37.9335 99.1032 38.0294 98.6742 38.2424 98.2453L39.1572 96.4037C39.3672 95.9778 39.6491 95.6509 40 95.4169C40.351 95.1829 40.7439 95.063 41.1728 95.051C41.6047 95.039 42.0426 95.144 42.4895 95.3659C42.9425 95.5909 43.2964 95.8788 43.5453 96.2297C43.7973 96.5807 43.9353 96.9646 43.9622 97.3875C43.9892 97.8074 43.8963 98.2303 43.6863 98.6563L42.7715 100.498C42.5585 100.927 42.2736 101.263 41.9197 101.5C41.5657 101.74 41.1728 101.863 40.7409 101.875C40.309 101.887 39.8681 101.779 39.4152 101.554C38.9682 101.332 38.6203 101.044 38.3684 100.69H38.3744ZM40.8519 100.591C41.1458 100.486 41.3768 100.27 41.5417 99.937L42.4805 98.0444C42.6455 97.7114 42.6815 97.3965 42.5915 97.0966C42.5015 96.7966 42.2946 96.5687 41.9736 96.4097C41.6587 96.2537 41.3528 96.2297 41.0618 96.3377C40.7679 96.4457 40.5399 96.6676 40.375 97.0006L39.4362 98.8932C39.2712 99.2261 39.2352 99.5411 39.3282 99.835C39.4212 100.132 39.6251 100.357 39.9401 100.513C40.255 100.669 40.5609 100.696 40.8549 100.591H40.8519Z" fill="white"/>
<path d="M49.817 98.2663C49.844 98.2514 49.874 98.2484 49.904 98.2574L50.9808 98.5813C51.0108 98.5903 51.0348 98.6083 51.0498 98.6383C51.0648 98.6653 51.0678 98.6953 51.0588 98.7253L49.1872 104.943C49.1782 104.973 49.1602 104.997 49.1302 105.012C49.1032 105.027 49.0732 105.03 49.0432 105.021L48.0054 104.709C47.9454 104.691 47.9094 104.652 47.8974 104.595L46.7007 99.943C46.6947 99.922 46.6827 99.91 46.6707 99.91C46.6587 99.91 46.6467 99.922 46.6407 99.946L45.4919 103.833C45.4829 103.863 45.4649 103.887 45.4349 103.902C45.4079 103.917 45.3779 103.92 45.3479 103.911L44.2712 103.587C44.2412 103.578 44.2172 103.56 44.2022 103.53C44.1872 103.503 44.1842 103.473 44.1932 103.443L46.0648 97.2256C46.0738 97.1956 46.0918 97.1716 46.1218 97.1566C46.1488 97.1416 46.1788 97.1386 46.2088 97.1476L47.2466 97.4595C47.3066 97.4775 47.3425 97.5165 47.3545 97.5735L48.5483 102.205C48.5543 102.226 48.5663 102.238 48.5783 102.238C48.5903 102.238 48.6023 102.226 48.6083 102.202L49.7631 98.3353C49.7721 98.3053 49.7901 98.2813 49.8201 98.2663H49.817Z" fill="white"/>
<path d="M59.8261 100.735C59.8021 100.756 59.7751 100.765 59.7421 100.765L56.5987 100.567C56.5657 100.567 56.5507 100.579 56.5477 100.612L56.4548 102.097C56.4548 102.13 56.4668 102.145 56.4998 102.148L58.5603 102.277C58.5933 102.277 58.6173 102.292 58.6383 102.316C58.6593 102.34 58.6683 102.367 58.6683 102.4L58.6113 103.329C58.6113 103.362 58.5963 103.386 58.5723 103.407C58.5483 103.428 58.5214 103.437 58.4884 103.434L56.4278 103.305C56.3948 103.305 56.3798 103.317 56.3768 103.35L56.2808 104.904C56.2808 104.937 56.2928 104.952 56.3258 104.955L59.4692 105.153C59.5022 105.153 59.5262 105.168 59.5471 105.192C59.5681 105.216 59.5771 105.243 59.5741 105.276L59.5172 106.206C59.5172 106.239 59.5022 106.266 59.4782 106.287C59.4542 106.308 59.4272 106.317 59.3942 106.314L54.9641 106.035C54.9311 106.035 54.9071 106.02 54.8861 105.996C54.8651 105.972 54.8561 105.945 54.8591 105.912L55.267 99.4331C55.267 99.4001 55.282 99.3731 55.306 99.3551C55.33 99.3341 55.357 99.3251 55.39 99.3281L59.8201 99.6071C59.8531 99.6071 59.8771 99.6221 59.9011 99.6461C59.9221 99.6701 59.9311 99.6971 59.9281 99.7301L59.8711 100.66C59.8711 100.693 59.8561 100.72 59.8321 100.738L59.8261 100.735Z" fill="white"/>
<path d="M65.7439 99.1482L66.8627 99.0312C66.8957 99.0282 66.9227 99.0372 66.9467 99.0552C66.9707 99.0762 66.9856 99.1002 66.9886 99.1332L67.6695 105.591C67.6725 105.624 67.6635 105.651 67.6455 105.675C67.6245 105.699 67.6005 105.714 67.5675 105.717L66.4488 105.834C66.4158 105.837 66.3888 105.828 66.3648 105.81C66.3408 105.792 66.3258 105.765 66.3228 105.732L65.8789 101.521C65.8789 101.497 65.8699 101.485 65.8549 101.485C65.8429 101.485 65.8309 101.497 65.8189 101.518L64.973 103.209C64.9461 103.263 64.9041 103.293 64.8471 103.299L64.2832 103.359C64.2262 103.365 64.1782 103.344 64.1422 103.296L62.9635 101.818C62.9485 101.8 62.9365 101.794 62.9215 101.797C62.9095 101.803 62.9035 101.815 62.9065 101.842L63.3474 106.044C63.3504 106.077 63.3414 106.104 63.3234 106.128C63.3024 106.152 63.2784 106.167 63.2454 106.17L62.1266 106.287C62.0936 106.29 62.0666 106.281 62.0426 106.263C62.0186 106.242 62.0036 106.218 62.0006 106.185L61.3198 99.7271C61.3168 99.6941 61.3258 99.6671 61.3438 99.6431C61.3618 99.6191 61.3888 99.6041 61.4218 99.6011L62.5405 99.4841C62.5975 99.4781 62.6455 99.4991 62.6815 99.5471L64.3492 101.623C64.3732 101.659 64.3912 101.656 64.4062 101.617L65.6149 99.2382C65.6419 99.1842 65.6839 99.1542 65.7409 99.1482H65.7439Z" fill="white"/>
<path d="M70.2189 105.087C70.192 105.072 70.174 105.048 70.168 105.015L68.6503 98.7013C68.6413 98.6713 68.6503 98.6413 68.6623 98.6143C68.6803 98.5873 68.7013 98.5693 68.7342 98.5633L69.826 98.2994C69.856 98.2904 69.886 98.2994 69.913 98.3114C69.94 98.3294 69.958 98.3504 69.964 98.3834L71.4817 104.697C71.4877 104.727 71.4817 104.757 71.4667 104.784C71.4487 104.811 71.4277 104.829 71.3947 104.835L70.3029 105.099C70.2729 105.108 70.2429 105.102 70.2159 105.087H70.2189Z" fill="white"/>
<path d="M74.7901 103.68C74.3732 103.659 74.0132 103.542 73.7133 103.329C73.4134 103.116 73.1914 102.819 73.0534 102.442L72.9814 102.244C72.9694 102.214 72.9724 102.184 72.9844 102.157C72.9964 102.127 73.0204 102.109 73.0504 102.097L74.0762 101.716C74.1062 101.704 74.1362 101.707 74.1632 101.719C74.1932 101.731 74.2112 101.755 74.2232 101.785L74.2742 101.92C74.3642 102.16 74.5501 102.322 74.8321 102.406C75.114 102.49 75.4469 102.46 75.8249 102.322C76.1428 102.205 76.3558 102.049 76.4607 101.857C76.5657 101.665 76.5837 101.47 76.5117 101.269C76.4577 101.125 76.3648 101.02 76.2328 100.957C76.1008 100.894 75.9358 100.855 75.7439 100.84C75.5519 100.825 75.249 100.819 74.8411 100.819C74.3882 100.831 73.9952 100.813 73.6623 100.774C73.3294 100.732 73.0234 100.624 72.7415 100.444C72.4595 100.264 72.2526 99.991 72.1176 99.6251C71.9856 99.2652 71.9616 98.9142 72.0486 98.5753C72.1356 98.2364 72.3156 97.9334 72.5945 97.6665C72.8735 97.3995 73.2274 97.1866 73.6593 97.0276C74.1152 96.8597 74.5531 96.7907 74.97 96.8207C75.387 96.8507 75.7499 96.9736 76.0588 97.1926C76.3678 97.4085 76.5927 97.7115 76.7337 98.0954L76.7847 98.2304C76.7967 98.2604 76.7937 98.2904 76.7817 98.3174C76.7697 98.3444 76.7457 98.3654 76.7157 98.3773L75.6809 98.7613C75.6509 98.7733 75.6209 98.7703 75.5939 98.7583C75.5639 98.7463 75.5459 98.7223 75.5339 98.6923L75.5069 98.6203C75.414 98.3684 75.231 98.1914 74.958 98.0894C74.6851 97.9904 74.3672 98.0054 74.0072 98.1374C73.7253 98.2424 73.5273 98.3833 73.4104 98.5633C73.2934 98.7433 73.2784 98.9382 73.3534 99.1482C73.4104 99.2982 73.5033 99.4061 73.6323 99.4751C73.7643 99.5441 73.9353 99.5831 74.1482 99.5981C74.3612 99.6101 74.6851 99.6161 75.12 99.6131C75.6029 99.6131 75.9898 99.6251 76.2778 99.6551C76.5657 99.6851 76.8507 99.7841 77.1326 99.949C77.4146 100.114 77.6275 100.387 77.7655 100.765C77.9754 101.329 77.9304 101.851 77.6365 102.334C77.3426 102.813 76.8417 103.185 76.1338 103.446C75.6539 103.623 75.204 103.701 74.7871 103.683L74.7901 103.68Z" fill="white"/>
<path d="M81.4127 100.852C80.9988 100.897 80.6239 100.84 80.294 100.675C79.964 100.513 79.7001 100.252 79.5021 99.901L79.4001 99.715C79.3851 99.688 79.3821 99.6581 79.3881 99.6281C79.3971 99.5981 79.4151 99.5741 79.4421 99.5591L80.3959 99.0222C80.4229 99.0072 80.4529 99.0042 80.4829 99.0102C80.5129 99.0192 80.5369 99.0372 80.5519 99.0642L80.6209 99.1901C80.7469 99.4151 80.9538 99.5441 81.2478 99.5831C81.5417 99.6221 81.8626 99.5411 82.2136 99.3431C82.5105 99.1781 82.6965 98.9922 82.7685 98.7822C82.8404 98.5723 82.8284 98.3803 82.7265 98.1943C82.6515 98.0594 82.5435 97.9724 82.4025 97.9304C82.2616 97.8884 82.0936 97.8764 81.9016 97.8914C81.7097 97.9064 81.4097 97.9484 81.0078 98.0144C80.5609 98.0954 80.171 98.1433 79.8351 98.1523C79.4991 98.1613 79.1812 98.1014 78.8752 97.9694C78.5693 97.8374 78.3203 97.6005 78.1314 97.2585C77.9424 96.9226 77.8644 96.5807 77.8974 96.2327C77.9304 95.8848 78.0624 95.5579 78.2934 95.2519C78.5243 94.946 78.8422 94.679 79.2442 94.4541C79.6701 94.2171 80.09 94.0792 80.5069 94.0432C80.9238 94.0072 81.3018 94.0732 81.6407 94.2381C81.9796 94.4031 82.2496 94.667 82.4505 95.024L82.5225 95.15C82.5375 95.1769 82.5405 95.2069 82.5315 95.2369C82.5225 95.2669 82.5045 95.2909 82.4775 95.3059L81.5147 95.8458C81.4877 95.8608 81.4577 95.8638 81.4277 95.8578C81.3977 95.8518 81.3737 95.8308 81.3587 95.8038L81.3228 95.7378C81.1908 95.5039 80.9838 95.3569 80.6989 95.2999C80.4139 95.2429 80.105 95.3089 79.7691 95.4949C79.5051 95.6419 79.3311 95.8128 79.2472 96.0078C79.1632 96.2027 79.1752 96.3977 79.2832 96.5927C79.3611 96.7336 79.4691 96.8266 79.6101 96.8716C79.7511 96.9196 79.925 96.9316 80.138 96.9106C80.3509 96.8896 80.6719 96.8446 81.1008 96.7726C81.5777 96.6946 81.9616 96.6496 82.2496 96.6347C82.5375 96.6197 82.8344 96.6707 83.1404 96.7906C83.4463 96.9106 83.6953 97.1445 83.8932 97.4955C84.1872 98.0204 84.2262 98.5423 84.0132 99.0642C83.7973 99.5861 83.3623 100.03 82.7025 100.399C82.2556 100.648 81.8237 100.798 81.4097 100.843L81.4127 100.852Z" fill="white"/>
<path d="M86.7007 97.7565C86.6707 97.7505 86.6437 97.7355 86.6257 97.7115L82.8015 92.4655C82.7835 92.4385 82.7745 92.4116 82.7805 92.3786C82.7865 92.3486 82.8015 92.3216 82.8255 92.3036L83.7343 91.6407C83.7613 91.6227 83.7883 91.6137 83.8213 91.6197C83.8543 91.6257 83.8783 91.6407 83.8963 91.6647L87.7205 96.9107C87.7385 96.9377 87.7475 96.9646 87.7415 96.9976C87.7355 97.0306 87.7205 97.0546 87.6965 97.0726L86.7877 97.7355C86.7607 97.7535 86.7337 97.7625 86.7007 97.7565Z" fill="white"/>
<path d="M90.4559 94.5891C90.039 94.7001 89.6251 94.6941 89.2202 94.5681C88.8152 94.4421 88.4463 94.2052 88.1194 93.8542L86.7157 92.3515C86.3917 92.0066 86.1818 91.6257 86.0888 91.2148C85.9928 90.8038 86.0168 90.3959 86.1578 89.988C86.2987 89.5801 86.5507 89.2052 86.9166 88.8662C87.2856 88.5213 87.6785 88.2903 88.0954 88.1794C88.5123 88.0654 88.9202 88.0714 89.3251 88.1944C89.7301 88.3173 90.093 88.5513 90.4169 88.8962L91.8206 90.3989C92.1476 90.7499 92.3635 91.1338 92.4625 91.5477C92.5615 91.9646 92.5405 92.3755 92.3995 92.7835C92.2586 93.1914 92.0036 93.5663 91.6347 93.9142C91.2688 94.2562 90.8788 94.4811 90.4589 94.5921L90.4559 94.5891ZM91.2328 92.2346C91.2388 91.9226 91.1158 91.6317 90.8608 91.3587L89.4181 89.814C89.1632 89.5441 88.8812 89.3971 88.5693 89.3791C88.2574 89.3611 87.9694 89.4721 87.7085 89.7181C87.4505 89.958 87.3215 90.234 87.3215 90.5489C87.3215 90.8608 87.4475 91.1548 87.6995 91.4247L89.1422 92.9694C89.3971 93.2394 89.6761 93.3833 89.988 93.4013C90.2969 93.4193 90.5819 93.3053 90.8398 93.0654C91.0978 92.8254 91.2298 92.5495 91.2358 92.2346H91.2328Z" fill="white"/>
<path d="M92.2166 83.0204C92.2136 82.9904 92.2196 82.9604 92.2406 82.9364L92.9245 82.0426C92.9455 82.0186 92.9695 82.0036 92.9995 81.9976C93.0295 81.9946 93.0594 82.0006 93.0834 82.0216L98.2394 85.9688C98.2634 85.9868 98.2784 86.0138 98.2844 86.0438C98.2874 86.0738 98.2814 86.1038 98.2604 86.1278L97.6005 86.9886C97.5615 87.0396 97.5136 87.0606 97.4566 87.0486L92.6815 86.5237C92.6575 86.5237 92.6455 86.5267 92.6395 86.5387C92.6335 86.5507 92.6395 86.5657 92.6635 86.5807L95.8939 89.0312C95.9209 89.0522 95.9329 89.0762 95.9389 89.1062C95.9419 89.1392 95.9359 89.1662 95.9149 89.1932L95.231 90.084C95.213 90.108 95.186 90.123 95.156 90.129C95.126 90.132 95.096 90.126 95.072 90.105L89.9161 86.1578C89.8921 86.1368 89.8771 86.1128 89.8711 86.0828C89.8681 86.0528 89.8741 86.0228 89.8951 85.9958L90.5549 85.135C90.5939 85.084 90.6419 85.063 90.6989 85.075L95.453 85.5969C95.477 85.5969 95.489 85.5939 95.495 85.5819C95.501 85.5699 95.495 85.5549 95.471 85.5399L92.2616 83.0954C92.2376 83.0774 92.2226 83.0504 92.2166 83.0204Z" fill="white"/>
<path d="M100.078 82.8195C99.7541 83.0804 99.4061 83.2334 99.0402 83.2724C98.6743 83.3114 98.3113 83.2394 97.9574 83.0474L97.7715 82.9484C97.7445 82.9334 97.7235 82.9124 97.7145 82.8794C97.7055 82.8495 97.7085 82.8195 97.7235 82.7925L98.2394 81.8267C98.2544 81.7997 98.2784 81.7787 98.3084 81.7697C98.3383 81.7607 98.3683 81.7637 98.3953 81.7787L98.5213 81.8477C98.7463 81.9676 98.9952 81.9646 99.2622 81.8387C99.5291 81.7127 99.7571 81.4727 99.946 81.1158C100.105 80.8159 100.162 80.5609 100.114 80.345C100.066 80.129 99.949 79.973 99.7601 79.874C99.6251 79.8021 99.4871 79.7871 99.3431 79.8261C99.2022 79.8681 99.0552 79.946 98.8992 80.063C98.7463 80.18 98.5153 80.3749 98.2124 80.6479C97.8794 80.9568 97.5765 81.2058 97.3005 81.3977C97.0246 81.5897 96.7217 81.7097 96.3917 81.7607C96.0618 81.8147 95.7259 81.7487 95.3809 81.5627C95.042 81.3827 94.7931 81.1368 94.6311 80.8249C94.4691 80.5129 94.4061 80.168 94.4361 79.7841C94.4661 79.4001 94.5891 79.0072 94.808 78.5993C95.036 78.1704 95.3179 77.8285 95.6509 77.5735C95.9838 77.3186 96.3377 77.1716 96.7127 77.1266C97.0876 77.0846 97.4565 77.1596 97.8164 77.3516L97.9424 77.4205C97.9694 77.4355 97.9904 77.4595 97.9994 77.4895C98.0084 77.5195 98.0054 77.5495 97.9904 77.5765L97.4715 78.5513C97.4565 78.5783 97.4325 78.5993 97.4025 78.6083C97.3725 78.6173 97.3425 78.6143 97.3156 78.5993L97.2466 78.5633C97.0096 78.4373 96.7547 78.4253 96.4847 78.5303C96.2148 78.6353 95.9868 78.8602 95.8069 79.1992C95.6659 79.4661 95.6119 79.7031 95.6449 79.913C95.6779 80.123 95.7949 80.282 95.9898 80.3869C96.1308 80.4619 96.2718 80.4829 96.4157 80.4469C96.5597 80.4109 96.7127 80.327 96.8806 80.195C97.0486 80.063 97.2945 79.8501 97.6185 79.5591C97.9784 79.2352 98.2784 78.9922 98.5123 78.8213C98.7463 78.6533 99.0252 78.5363 99.3461 78.4703C99.6671 78.4073 100.006 78.4703 100.363 78.6593C100.894 78.9442 101.209 79.3612 101.308 79.916C101.407 80.4709 101.281 81.0798 100.924 81.7457C100.681 82.1986 100.399 82.5555 100.075 82.8165L100.078 82.8195Z" fill="white"/>
</g>
<defs>
<clipPath id="clip0_1_360">
<rect width="120" height="120" fill="white"/>
</clipPath>
</defs>
</svg>
