<svg width="48" height="48" viewBox="0 0 48 48" fill="none" xmlns="http://www.w3.org/2000/svg">
<g opacity="0.1" clip-path="url(#clip0_702_2766)">
<path d="M23.9955 0.0913086C10.7948 0.0913086 0.0917969 10.7994 0.0917969 24.0052C0.0917969 37.2058 10.7948 47.9088 23.9954 47.9088C37.2012 47.9088 47.9093 37.2058 47.9093 24.0052C47.9094 10.7994 37.2012 0.0913086 23.9955 0.0913086ZM23.9955 43.5646C13.2112 43.5646 4.43617 34.7896 4.43617 24.0052C4.43617 13.2157 13.2112 4.43568 23.9955 4.43568C34.785 4.43568 43.5651 13.2157 43.5651 24.0052C43.5651 34.7895 34.7849 43.5646 23.9955 43.5646Z" fill="#4A4F52"/>
<path d="M41.8552 24.0001C41.8552 23.9996 41.855 23.999 41.855 23.9984C41.8514 14.085 33.7529 6.14853 24.0016 6.14496C24.001 6.14496 24.0004 6.14478 23.9999 6.14478C23.9995 6.14478 23.9992 6.14487 23.9988 6.14487C23.9975 6.14487 23.9962 6.14478 23.9949 6.14478C14.2178 6.14478 6.14837 14.1038 6.14472 23.9984C6.14472 23.999 6.14453 23.9996 6.14453 24.0001C6.14453 24.0005 6.14462 24.0008 6.14462 24.0011C6.14462 24.0025 6.14453 24.0038 6.14453 24.0051C6.14453 27.1421 6.97291 30.2266 8.54003 32.9254C8.54041 32.9261 8.54059 32.9267 8.54097 32.9274C8.84013 33.2946 9.15531 33.4473 9.57522 33.2103C9.673 33.1551 11.7512 31.9573 11.6992 31.9862C12.0644 31.7756 12.1895 31.3089 11.9789 30.944C11.7685 30.5791 11.3015 30.4544 10.9367 30.6643L9.50144 31.4924C8.42172 29.4129 7.80512 27.1149 7.69562 24.7631H9.34947C9.77097 24.7631 10.1125 24.4216 10.1125 24.0001C10.1125 23.5786 9.77097 23.2371 9.34947 23.2371H7.69009C7.8025 20.8212 8.44403 18.5428 9.49769 16.5106L10.9367 17.3409C11.2993 17.5503 11.7668 17.4286 11.9789 17.0612C12.1895 16.6963 12.0643 16.2296 11.6992 16.019L10.2627 15.1901C11.5322 13.2168 13.2136 11.5347 15.1857 10.2643L16.0137 11.6996C16.2255 12.0665 16.6927 12.189 17.0559 11.9792C17.4211 11.7686 17.5462 11.3019 17.3356 10.937L16.5057 9.49868C18.539 8.44334 20.8192 7.80143 23.2367 7.69024V9.34981C23.2367 9.77131 23.5782 10.1128 23.9997 10.1128C24.4212 10.1128 24.7627 9.77131 24.7627 9.34981V7.69043C27.1784 7.80284 29.4566 8.44474 31.4886 9.49887L30.6588 10.937C30.4482 11.3019 30.5734 11.7686 30.9385 11.9792C31.3011 12.1887 31.7687 12.067 31.9807 11.6996L32.8089 10.2642C34.7826 11.5347 36.4652 13.2172 37.7356 15.1908L36.3002 16.019C35.935 16.2296 35.8098 16.6963 36.0205 17.0612C36.2323 17.4281 36.6995 17.5507 37.0627 17.3409L38.5008 16.5111C39.5549 18.5432 40.1969 20.8214 40.3093 23.237H38.6499C38.2284 23.237 37.8869 23.5785 37.8869 24C37.8869 24.4215 38.2284 24.7631 38.6499 24.7631H40.3037C40.1942 27.1148 39.5777 29.4128 38.4979 31.4923L37.0627 30.6642C36.6983 30.4543 36.2313 30.579 36.0205 30.9439C35.8098 31.3088 35.9351 31.7755 36.3002 31.9861L38.4162 33.2069C38.7669 33.4094 39.2489 33.298 39.4593 32.9253C41.0265 30.2265 41.8548 27.1421 41.8548 24.005C41.8548 24.0037 41.8547 24.0024 41.8547 24.0011C41.8551 24.0008 41.8552 24.0005 41.8552 24.0001Z" fill="#4A4F52"/>
<path d="M33.2985 18.1562L25.8135 22.1635C25.3465 21.7023 24.7062 21.416 23.9995 21.416C22.575 21.416 21.416 22.5753 21.416 24.0004C21.416 25.425 22.575 26.5839 23.9995 26.5839C25.4245 26.5839 26.5839 25.425 26.5839 24.0004C26.5839 23.8321 26.565 23.6682 26.5342 23.5086L34.0189 19.5015C34.3905 19.3025 34.5303 18.8403 34.3314 18.4687C34.1329 18.0973 33.6714 17.9572 33.2985 18.1562Z" fill="#4A4F52"/>
<path d="M29.9765 33.8845H18.0237C17.4131 33.8845 16.918 34.3796 16.918 34.9903V37.1841C16.918 37.7948 17.4131 38.2898 18.0237 38.2898H29.9764C30.5871 38.2898 31.0822 37.7948 31.0822 37.1841V34.9903C31.0822 34.3795 30.5872 33.8845 29.9765 33.8845Z" fill="#4A4F52"/>
</g>
<defs>
<clipPath id="clip0_702_2766">
<rect width="48" height="48" fill="white"/>
</clipPath>
</defs>
</svg>
