<svg width="48" height="48" viewBox="0 0 48 48" fill="none" xmlns="http://www.w3.org/2000/svg">
<path d="M23.995 0.0912476C10.7943 0.0912476 0.0913086 10.7994 0.0913086 24.0051C0.0913086 37.2057 10.7943 47.9087 23.9949 47.9087C37.2007 47.9087 47.9088 37.2057 47.9088 24.0051C47.9089 10.7994 37.2007 0.0912476 23.995 0.0912476ZM23.995 43.5645C13.2107 43.5645 4.43568 34.7895 4.43568 24.0052C4.43568 13.2157 13.2107 4.43562 23.995 4.43562C34.7845 4.43562 43.5646 13.2157 43.5646 24.0052C43.5646 34.7894 34.7844 43.5645 23.995 43.5645Z" fill="#4A4F52"/>
<path d="M41.8552 24.0001C41.8552 23.9995 41.855 23.9989 41.855 23.9984C41.8514 14.085 33.7529 6.14846 24.0016 6.1449C24.001 6.1449 24.0004 6.14471 23.9999 6.14471C23.9995 6.14471 23.9992 6.14481 23.9988 6.14481C23.9975 6.14481 23.9962 6.14471 23.9949 6.14471C14.2178 6.14471 6.14837 14.1037 6.14472 23.9984C6.14472 23.9989 6.14453 23.9995 6.14453 24.0001C6.14453 24.0004 6.14462 24.0007 6.14462 24.0011C6.14462 24.0024 6.14453 24.0037 6.14453 24.005C6.14453 27.1421 6.97291 30.2266 8.54003 32.9253C8.54041 32.926 8.54059 32.9266 8.54097 32.9273C8.84013 33.2945 9.15531 33.4472 9.57522 33.2102C9.673 33.155 11.7512 31.9573 11.6992 31.9861C12.0644 31.7755 12.1895 31.3088 11.9789 30.9439C11.7685 30.5791 11.3015 30.4544 10.9367 30.6643L9.50144 31.4924C8.42172 29.4128 7.80512 27.1148 7.69562 24.7631H9.34947C9.77097 24.7631 10.1125 24.4216 10.1125 24.0001C10.1125 23.5786 9.77097 23.237 9.34947 23.237H7.69009C7.8025 20.8212 8.44403 18.5428 9.49769 16.5106L10.9367 17.3408C11.2993 17.5502 11.7668 17.4286 11.9789 17.0612C12.1895 16.6963 12.0643 16.2296 11.6992 16.0189L10.2627 15.1901C11.5322 13.2167 13.2136 11.5346 15.1857 10.2643L16.0137 11.6995C16.2255 12.0664 16.6927 12.189 17.0559 11.9792C17.4211 11.7685 17.5462 11.3018 17.3356 10.9369L16.5057 9.49862C18.539 8.44328 20.8192 7.80137 23.2367 7.69018V9.34975C23.2367 9.77125 23.5782 10.1128 23.9997 10.1128C24.4212 10.1128 24.7627 9.77125 24.7627 9.34975V7.69037C27.1784 7.80278 29.4566 8.44468 31.4886 9.49881L30.6588 10.9369C30.4482 11.3018 30.5734 11.7685 30.9385 11.9792C31.3011 12.1886 31.7687 12.0669 31.9807 11.6995L32.8089 10.2641C34.7826 11.5346 36.4652 13.2171 37.7356 15.1907L36.3002 16.0189C35.935 16.2296 35.8098 16.6963 36.0205 17.0612C36.2323 17.4281 36.6995 17.5506 37.0627 17.3408L38.5008 16.511C39.5549 18.5432 40.1969 20.8214 40.3093 23.2369H38.6499C38.2284 23.2369 37.8869 23.5785 37.8869 24C37.8869 24.4215 38.2284 24.763 38.6499 24.763H40.3037C40.1942 27.1147 39.5777 29.4127 38.4979 31.4923L37.0627 30.6642C36.6983 30.4543 36.2313 30.579 36.0205 30.9438C35.8098 31.3087 35.9351 31.7754 36.3002 31.9861L38.4162 33.2069C38.7669 33.4094 39.2489 33.2979 39.4593 32.9252C41.0265 30.2265 41.8548 27.142 41.8548 24.0049C41.8548 24.0036 41.8547 24.0023 41.8547 24.001C41.8551 24.0007 41.8552 24.0004 41.8552 24.0001Z" fill="#4A4F52"/>
<path d="M33.2985 18.1562L25.8135 22.1636C25.3465 21.7023 24.7062 21.4161 23.9995 21.4161C22.575 21.4161 21.416 22.5754 21.416 24.0005C21.416 25.425 22.575 26.584 23.9995 26.584C25.4245 26.584 26.5839 25.425 26.5839 24.0005C26.5839 23.8321 26.565 23.6683 26.5342 23.5087L34.0189 19.5015C34.3905 19.3026 34.5303 18.8403 34.3314 18.4688C34.1329 18.0973 33.6714 17.9573 33.2985 18.1562Z" fill="#4A4F52"/>
<path d="M29.9765 33.8846H18.0237C17.4131 33.8846 16.918 34.3797 16.918 34.9904V37.1842C16.918 37.7949 17.4131 38.2899 18.0237 38.2899H29.9764C30.5871 38.2899 31.0822 37.7949 31.0822 37.1842V34.9904C31.0822 34.3796 30.5872 33.8846 29.9765 33.8846Z" fill="#4A4F52"/>
</svg>
