<svg width="16" height="16" viewBox="0 0 16 16" fill="none" xmlns="http://www.w3.org/2000/svg">
<path d="M7.99998 1.33331C4.33331 1.33331 1.33331 4.33331 1.33331 7.99998C1.33331 11.6666 4.33331 14.6666 7.99998 14.6666C11.6666 14.6666 14.6666 11.6666 14.6666 7.99998C14.6666 4.33331 11.6666 1.33331 7.99998 1.33331ZM8.66665 10.6666C8.66665 11.0666 8.39998 11.3333 7.99998 11.3333C7.59998 11.3333 7.33331 11.0666 7.33331 10.6666V7.99998C7.33331 7.59998 7.59998 7.33331 7.99998 7.33331C8.39998 7.33331 8.66665 7.59998 8.66665 7.99998V10.6666ZM7.99998 5.99998C7.59998 5.99998 7.33331 5.73331 7.33331 5.33331C7.33331 4.93331 7.59998 4.66665 7.99998 4.66665C8.39998 4.66665 8.66665 4.93331 8.66665 5.33331C8.66665 5.73331 8.39998 5.99998 7.99998 5.99998Z" fill="#75A640"/>
</svg>
