<svg width="104" height="104" viewBox="0 0 104 104" fill="none" xmlns="http://www.w3.org/2000/svg">
<g clip-path="url(#clip0_58_540)">
<path d="M55.0088 7.8581L56.6335 2.79431C57.7357 -0.6448 62.8151 0.161038 62.7995 3.77172L62.7787 9.09025C62.7683 12.1628 66.7039 13.4418 68.5001 10.9489L71.6091 6.63634C73.7199 3.70673 78.3002 6.04106 77.172 9.46978L75.5109 14.5206C74.5517 17.4398 77.8998 19.8729 80.3771 18.0559L84.6663 14.9131C87.5803 12.7789 91.2144 16.4156 89.0802 19.327L85.9374 23.6161C84.123 26.096 86.5561 29.4442 89.4727 28.4824L94.5235 26.8213C97.9548 25.6931 100.287 30.2734 97.3569 32.3842L93.0444 35.4932C90.5515 37.2894 91.8304 41.2276 94.903 41.2146L100.222 41.1938C103.832 41.1808 104.638 46.2576 101.199 47.3598L96.1352 48.9845C93.2108 49.9229 93.2108 54.0613 96.1352 54.9997L101.199 56.6243C104.638 57.7265 103.832 62.8059 100.222 62.7903L94.903 62.7695C91.8304 62.7591 90.5515 66.6947 93.0444 68.491L97.3569 71.5999C100.287 73.7107 97.9522 78.291 94.5235 77.1628L89.4727 75.5018C86.5535 74.5426 84.1204 77.8907 85.9374 80.368L89.0802 84.6571C91.2144 87.5712 87.5777 91.2052 84.6663 89.071L80.3771 85.9283C77.8972 84.1138 74.5491 86.547 75.5109 89.4636L77.172 94.5144C78.3002 97.9457 73.7199 100.277 71.6091 97.3478L68.5001 93.0352C66.7039 90.5424 62.7657 91.8213 62.7787 94.8939L62.7995 100.212C62.8125 103.823 57.7357 104.629 56.6335 101.19L55.0088 96.126C54.0704 93.2016 49.932 93.2016 48.9936 96.126L47.3689 101.19C46.2668 104.629 41.1874 103.823 41.203 100.212L41.2238 94.8939C41.2342 91.8213 37.2986 90.5424 35.5023 93.0352L32.3933 97.3478C30.2826 100.277 25.7023 97.9431 26.8305 94.5144L28.4915 89.4636C29.4507 86.5443 26.1026 84.1112 23.6253 85.9283L19.3362 89.071C16.4221 91.2052 12.7881 87.5686 14.9222 84.6571L18.065 80.368C19.8794 77.8881 17.4463 74.54 14.5297 75.5018L9.47893 77.1628C6.04762 78.291 3.71588 73.7107 6.6455 71.5999L10.958 68.491C13.4509 66.6947 12.172 62.7565 9.09941 62.7695L3.78087 62.7903C0.170194 62.8033 -0.635645 57.7265 2.80347 56.6243L7.86725 54.9997C10.7917 54.0613 10.7917 49.9229 7.86725 48.9845L2.80347 47.3598C-0.635645 46.2576 0.170194 41.1782 3.78087 41.1938L9.09941 41.2146C12.172 41.225 13.4509 37.2894 10.958 35.4932L6.6455 32.3842C3.71588 30.2734 6.05022 25.6931 9.47893 26.8213L14.5297 28.4824C17.4489 29.4416 19.882 26.0934 18.065 23.6161L14.9222 19.327C12.7881 16.413 16.4247 12.7789 19.3362 14.9131L23.6253 18.0559C26.1052 19.8703 29.4533 17.4372 28.4915 14.5206L26.8305 9.46978C25.7023 6.03846 30.2826 3.70673 32.3933 6.63634L35.5023 10.9489C37.2986 13.4418 41.2368 12.1628 41.2238 9.09025L41.203 3.77172C41.19 0.161038 46.2668 -0.6448 47.3689 2.79431L48.9936 7.8581C49.932 10.7825 54.0704 10.7825 55.0088 7.8581Z" fill="#13304E"/>
<path d="M22.9155 18.6615L20.4824 13.9331C18.8317 10.7227 22.9909 7.6995 25.5332 10.2626L29.279 14.037C31.4444 16.218 35.1305 14.3386 34.6392 11.305L33.7865 6.05663C33.2095 2.49274 38.0965 0.904458 39.7237 4.12781L42.1205 8.87446C43.506 11.6169 47.5924 10.9696 48.0629 7.93345L48.8739 2.6773C49.425 -0.891783 54.5668 -0.891783 55.1179 2.6773L55.9289 7.93345C56.3994 10.9696 60.4858 11.6169 61.8713 8.87446L64.268 4.12781C65.8953 0.904458 70.7849 2.49274 70.2053 6.05663L69.3526 11.305C68.8613 14.3386 72.55 16.218 74.7127 14.037L78.4586 10.2626C81.0035 7.6995 85.1627 10.7201 83.5094 13.9331L81.0763 18.6615C79.67 21.3936 82.597 24.3206 85.329 22.9143L90.0575 20.4811C93.2678 18.8305 96.291 22.9896 93.7279 25.5319L89.9535 29.2778C87.7725 31.4431 89.652 35.1292 92.6855 34.6379L97.9339 33.7853C101.498 33.2082 103.086 38.0952 99.8627 39.7225L95.1161 42.1192C92.3736 43.5047 93.0209 47.5911 96.0571 48.0616L101.313 48.8727C104.882 49.4238 104.882 54.5655 101.313 55.1166L96.0571 55.9277C93.0209 56.3982 92.3736 60.4845 95.1161 61.8701L99.8627 64.2668C103.086 65.8941 101.498 70.7837 97.9339 70.204L92.6855 69.3514C89.652 68.8601 87.7725 72.5487 89.9535 74.7115L93.7279 78.4574C96.291 81.0022 93.2704 85.1614 90.0575 83.5081L85.329 81.075C82.597 79.6687 79.67 82.5957 81.0763 85.3278L83.5094 90.0562C85.1601 93.2666 81.0009 96.2898 78.4586 93.7267L74.7127 89.9522C72.5474 87.7713 68.8613 89.6507 69.3526 92.6843L70.2053 97.9326C70.7823 101.497 65.8953 103.085 64.268 99.8615L61.8713 95.1148C60.4858 92.3724 56.3994 93.0196 55.9289 96.0558L55.1179 101.312C54.5668 104.881 49.425 104.881 48.8739 101.312L48.0629 96.0558C47.595 93.0196 43.506 92.3724 42.1205 95.1148L39.7237 99.8615C38.0965 103.085 33.2069 101.497 33.7865 97.9326L34.6392 92.6843C35.1305 89.6507 31.4418 87.7713 29.279 89.9522L25.5332 93.7267C22.9883 96.2898 18.8291 93.2692 20.4824 90.0562L22.9155 85.3278C24.3218 82.5957 21.3948 79.6687 18.6602 81.075L13.9317 83.5081C10.7213 85.1588 7.69816 80.9996 10.2612 78.4574L14.0357 74.7115C16.2167 72.5461 14.3372 68.8601 11.3036 69.3514L6.05528 70.204C2.4914 70.7811 0.903115 65.8941 4.12647 64.2668L8.87312 61.8701C11.6156 60.4845 10.9683 56.3982 7.93211 55.9277L2.67596 55.1166C-0.893126 54.5655 -0.893126 49.4238 2.67596 48.8727L7.93211 48.0616C10.9683 47.5937 11.6156 43.5047 8.87312 42.1192L4.12647 39.7225C0.903115 38.0952 2.4914 33.2056 6.05528 33.7853L11.3036 34.6379C14.3372 35.1292 16.2167 31.4405 14.0357 29.2778L10.2612 25.5319C7.69816 22.987 10.7188 18.8279 13.9317 20.4811L18.6602 22.9143C21.3922 24.3206 24.3192 21.3936 22.9155 18.6615Z" fill="#9FC86A"/>
<path d="M52.0007 101.265C79.2092 101.265 101.266 79.2085 101.266 52C101.266 24.7915 79.2092 2.73462 52.0007 2.73462C24.7922 2.73462 2.73535 24.7915 2.73535 52C2.73535 79.2085 24.7922 101.265 52.0007 101.265Z" fill="#59843D"/>
<path d="M52.7389 97.4101C27.6591 97.8183 6.99843 77.8152 6.59031 52.7381C6.57991 52.0908 6.58251 51.4487 6.60071 50.8092C6.72548 45.8962 7.6353 41.173 9.20799 36.7591C11.0848 31.4951 13.9052 26.6731 17.4717 22.5035C20.7081 18.7135 24.5605 15.4615 28.8782 12.9036C28.9432 12.8646 29.0082 12.8282 29.0732 12.7893C34.241 9.75826 40.069 7.72026 46.2974 6.94042C47.9272 6.73506 49.5831 6.61809 51.265 6.58949C51.8811 6.57909 52.4971 6.58169 53.108 6.59729C62.3829 6.81824 70.9898 9.82584 78.1046 14.835C86.3372 20.6215 92.5681 29.0854 95.5211 38.9842C96.6441 42.7405 97.294 46.7073 97.4005 50.8092C97.4057 50.96 97.4083 51.1108 97.4109 51.2616C97.8191 76.3413 77.8161 97.002 52.7389 97.4101Z" fill="#13304E"/>
<path d="M95.5213 38.9841C91.7703 38.9191 89.7791 34.747 90.9488 32.839C88.7887 33.0053 87.8763 31.4378 87.8763 31.4378L86.236 29.0723C83.8237 26.9797 86.4491 24.778 86.4491 24.778C86.4491 24.778 84.25 24.2555 85.4535 22.3345C82.8359 23.0311 82.3654 20.9047 82.3654 20.9047C82.3654 20.9047 80.3768 21.5858 80.1142 19.7532C77.8631 18.2533 77.8189 16.1815 78.1048 14.835C86.3374 20.6214 92.5683 29.0853 95.5213 38.9841Z" fill="#7B8C9D"/>
<path d="M53.1084 6.59729C52.1388 8.98101 48.9986 8.26356 48.9986 8.26356C48.9986 8.26356 49.6069 10.2002 47.4129 10.6707C45.3671 11.1126 44.2052 9.38913 44.2052 9.38913C44.2052 9.38913 44.1012 10.6967 42.1126 10.2262C42.8457 11.0632 42.0216 11.7755 42.0216 11.7755L39.3026 12.7269C39.3026 12.7269 38.1328 12.6333 37.9768 11.5857C37.2438 12.7919 36.4067 11.3777 36.4067 11.3777C36.4067 11.3777 32.5907 14.5959 29.0736 12.7893C34.2414 9.75826 40.0694 7.72026 46.2978 6.94042C47.9276 6.73506 49.5835 6.61809 51.2654 6.58949C51.8814 6.57909 52.4975 6.58169 53.1084 6.59729Z" fill="#7B8C9D"/>
<path d="M17.7905 29.0725C18.1128 30.64 16.1502 31.4381 16.1502 31.4381C16.1502 31.4381 17.0549 33.9466 13.6833 35.1371C14.2786 36.2185 11.3698 38.3215 9.20703 36.7592C11.0839 31.4953 13.9043 26.6732 17.4708 22.5037C18.1596 22.8494 18.8147 23.4993 18.5756 24.6924C20.1612 25.5503 20.1144 27.9678 17.7905 29.0725Z" fill="#7B8C9D"/>
<path d="M52.6428 12.1421H51.5692V14.6116H52.6428V12.1421Z" fill="#FBB62D"/>
<path d="M57.1032 10.6707H55.0132V14.6089H57.1032V10.6707Z" fill="#FBB62D"/>
<path d="M58.6373 14.1462H48.0341V25.246H58.6373V14.1462Z" fill="#FB9129"/>
<path d="M57.1008 15.3057H49.8561V16.0335H57.1008V15.3057Z" fill="#FBB62D"/>
<path d="M57.1008 16.4363H49.8561V17.1641H57.1008V16.4363Z" fill="#FBB62D"/>
<path d="M57.1008 17.5671H49.8561V18.295H57.1008V17.5671Z" fill="#FBB62D"/>
<path d="M57.1008 18.6953H49.8561V19.4232H57.1008V18.6953Z" fill="#FBB62D"/>
<path d="M29.5931 19.7766L28.1244 20.6916L26.9235 18.7602L28.9407 18.729L29.5931 19.7766Z" fill="#FBD34C"/>
<path d="M32.0595 18.2405L30.5934 19.1555L29.3925 17.2241L31.4097 17.1929L32.0595 18.2405Z" fill="#FBD34C"/>
<path d="M34.5298 16.7041L33.0611 17.6165L31.8601 15.6877L33.8773 15.6565L34.5298 16.7041Z" fill="#FBD34C"/>
<path d="M35.1298 15.6965L22.5262 23.5415L30.2023 35.8736L42.8058 28.0286L35.1298 15.6965Z" fill="#FBB62D"/>
<path d="M26.7657 20.9017L22.5262 23.5405L30.2023 35.8726L34.4417 33.2338L26.7657 20.9017Z" fill="#FB9129"/>
<path d="M31.038 20.3615L29.1312 21.5483L30.1367 23.1638L32.0435 21.9769L31.038 20.3615Z" fill="#FB9129"/>
<path d="M33.7927 18.6471L31.886 19.834L32.8915 21.4494L34.7983 20.2626L33.7927 18.6471Z" fill="#FB9129"/>
<path d="M32.483 22.6838L30.5763 23.8706L31.5818 25.486L33.4886 24.2992L32.483 22.6838Z" fill="#FB9129"/>
<path d="M35.2399 20.9716L33.3331 22.1584L34.3387 23.7739L36.2454 22.587L35.2399 20.9716Z" fill="#FB9129"/>
<path d="M33.9281 25.008L32.0214 26.1948L33.0269 27.8103L34.9336 26.6234L33.9281 25.008Z" fill="#FB9129"/>
<path d="M36.683 23.2912L34.7762 24.478L35.7818 26.0935L37.6885 24.9066L36.683 23.2912Z" fill="#FB9129"/>
<path d="M27.842 27.531C27.2962 27.8715 27.1298 28.589 27.4703 29.1323L31.2578 35.2176L33.2334 33.9881L29.4459 27.9027C29.1054 27.3568 28.3879 27.1905 27.8446 27.531H27.842Z" fill="#FBD34C"/>
<path d="M38.5676 26.4585L33.9707 29.3198L34.2496 29.7678L38.8465 26.9065L38.5676 26.4585Z" fill="#FBD34C"/>
<path d="M39.1819 27.4487L34.585 30.3101L34.8638 30.7581L39.4608 27.8967L39.1819 27.4487Z" fill="#FBD34C"/>
<path d="M68.3431 17.9232L65.8242 16.3973L67.831 13.083L69.4323 16.1244L68.3431 17.9232Z" fill="#FB9129"/>
<path d="M72.5825 20.4889L70.0636 18.963L72.0704 15.6487L73.6717 18.6901L72.5825 20.4889Z" fill="#FB9129"/>
<path d="M76.8217 23.0573L74.3002 21.5314L76.307 18.217L77.9109 21.2584L76.8217 23.0573Z" fill="#FB9129"/>
<path d="M77.9987 23.1316L65.299 15.4434L57.7763 27.8696L70.4761 35.5578L77.9987 23.1316Z" fill="#FBB62D"/>
<path d="M69.5707 18.0292L65.299 15.4431L57.7763 27.8694L62.0481 30.4554L69.5707 18.0292Z" fill="#FB9129"/>
<path d="M67.4309 18.5709L65.812 17.5908L59.9169 27.3286L61.5358 28.3086L67.4309 18.5709Z" fill="#FBB62D"/>
<path d="M74.9753 22.7736L70.3433 19.9695L69.8465 20.79L74.4786 23.5942L74.9753 22.7736Z" fill="#FBD34C"/>
<path d="M73.8827 24.5769L69.2506 21.7727L68.7539 22.5933L73.3859 25.3974L73.8827 24.5769Z" fill="#FBD34C"/>
<path d="M47.5485 25.1887L43.3452 26.66L41.8115 21.3727L40.8549 18.0791L40.4701 16.756L39.997 15.1183L39.303 12.7268L42.0194 11.7754L42.9708 14.0785L43.6207 15.6564L44.1458 16.9276L45.4507 20.0989L47.5485 25.1887Z" fill="#FBD34C"/>
<path d="M43.6199 15.6563L40.4693 16.7558L39.9962 15.1182L42.97 14.0784L43.6199 15.6563Z" fill="#FB9129"/>
<path d="M45.4507 20.0989L41.8115 21.3726L40.8549 18.0791L44.1458 16.9275L45.4507 20.0989Z" fill="#FB9129"/>
<path d="M30.1442 36.6835L27.6046 40.3436L23.2582 36.9643L20.5496 34.8587L19.463 34.0139L18.1165 32.9663L16.1512 31.4378L17.7915 29.0723L19.9127 30.3772L21.3658 31.274L22.5382 31.9967L25.4574 33.7955L30.1442 36.6835Z" fill="#FBD34C"/>
<path d="M26.0082 40.9779L20.8092 39.1296L19.7408 41.6771L24.9684 43.7801" fill="#FBB62D"/>
<path d="M77.4833 40.9779L82.6796 39.1296L83.7506 41.6771L78.5231 43.7801" fill="#FBB62D"/>
<path d="M21.3654 31.274L19.4626 34.0139L18.1161 32.9663L19.9123 30.3772L21.3654 31.274Z" fill="#FB9129"/>
<path d="M25.4576 33.7957L23.2585 36.9644L20.5498 34.8589L22.5384 31.9968L25.4576 33.7957Z" fill="#FB9129"/>
<path d="M73.8822 36.6838L76.4219 40.3439L80.7682 36.9645L83.4769 34.859L84.5635 34.0141L85.91 32.9665L87.8752 31.438L86.2349 29.0725L84.1138 30.3774L82.6606 31.2743L81.4883 31.9969L78.5691 33.7958L73.8822 36.6838Z" fill="#FBD34C"/>
<path d="M72.9181 33.1147L76.7835 29.9277L78.1742 31.4744L74.7585 34.7966" fill="#FBB62D"/>
<path d="M82.6609 31.2743L84.5637 34.0141L85.9102 32.9665L84.114 30.3774L82.6609 31.2743Z" fill="#FB9129"/>
<path d="M78.5692 33.7959L80.7684 36.9647L83.477 34.8591L81.4884 31.9971L78.5692 33.7959Z" fill="#FB9129"/>
<path d="M52.7389 97.4102C27.6591 97.8183 6.99843 77.8153 6.59031 52.7381C6.57991 52.0909 6.58251 51.4488 6.60071 50.8093H97.4005C97.4057 50.9601 97.4083 51.1109 97.4109 51.2616C97.8191 76.3414 77.8161 97.0021 52.7389 97.4102Z" fill="#9FC86A"/>
<path d="M52.0013 81.665C68.385 81.665 81.6666 68.3834 81.6666 51.9997C81.6666 35.6161 68.385 22.3345 52.0013 22.3345C35.6176 22.3345 22.3361 35.6161 22.3361 51.9997C22.3361 68.3834 35.6176 81.665 52.0013 81.665Z" fill="#59843D"/>
<path d="M52.0009 77.992C66.356 77.992 77.9931 66.3549 77.9931 51.9998C77.9931 37.6447 66.356 26.0076 52.0009 26.0076C37.6458 26.0076 26.0087 37.6447 26.0087 51.9998C26.0087 66.3549 37.6458 77.992 52.0009 77.992Z" fill="#13304E"/>
<path d="M45.4836 33.0682C45.8066 33.0682 46.0684 32.8063 46.0684 32.4833C46.0684 32.1603 45.8066 31.8984 45.4836 31.8984C45.1605 31.8984 44.8987 32.1603 44.8987 32.4833C44.8987 32.8063 45.1605 33.0682 45.4836 33.0682Z" fill="#9FC86A"/>
<path d="M49.1829 32.0672C49.1829 32.6209 48.7358 33.068 48.1821 33.068C47.6284 33.068 47.1813 32.6209 47.1813 32.0672C47.1813 31.5135 47.6284 31.0664 48.1821 31.0664C48.7358 31.0664 49.1829 31.5135 49.1829 32.0672Z" fill="#9FC86A"/>
<path d="M51.2131 34.095C51.9338 34.095 52.5181 33.5107 52.5181 32.79C52.5181 32.0693 51.9338 31.4851 51.2131 31.4851C50.4924 31.4851 49.9082 32.0693 49.9082 32.79C49.9082 33.5107 50.4924 34.095 51.2131 34.095Z" fill="#9FC86A"/>
<path d="M53.7604 36.5175C54.5385 36.5175 55.1693 35.8867 55.1693 35.1086C55.1693 34.3305 54.5385 33.6997 53.7604 33.6997C52.9822 33.6997 52.3514 34.3305 52.3514 35.1086C52.3514 35.8867 52.9822 36.5175 53.7604 36.5175Z" fill="#9FC86A"/>
<path d="M56.0559 39.039C56.0559 39.9748 55.2969 40.7365 54.3585 40.7365C53.4201 40.7365 52.661 39.9774 52.661 39.039C52.661 38.1006 53.4201 37.3416 54.3585 37.3416C55.2969 37.3416 56.0559 38.1006 56.0559 39.039Z" fill="#9FC86A"/>
<path d="M45.6906 33.8349C34.5129 36.4474 37.887 52.455 37.887 52.455C41.3131 43.3412 51.7604 44.225 51.7786 38.462C51.789 35.3296 48.7424 33.1226 45.6906 33.8349ZM38.9606 46.1044C39.3245 37.3442 45.4853 37.3442 45.4853 37.3442C45.4853 37.3442 40.9986 39.0416 38.9606 46.1044Z" fill="#9FC86A"/>
<path d="M36.373 65.9617C36.6538 65.8006 37.0099 65.8967 37.1737 66.1749C37.3348 66.4556 37.2386 66.8118 36.9605 66.9755C36.6797 67.1367 36.3236 67.0405 36.1599 66.7624C35.9987 66.4816 36.0949 66.1255 36.373 65.9617Z" fill="#9FC86A"/>
<path d="M34.4572 63.4741C34.9355 63.1985 35.549 63.3623 35.8245 63.8406C36.1001 64.3189 35.9363 64.9324 35.458 65.2079C34.9797 65.4835 34.3662 65.3197 34.0907 64.8414C33.8151 64.3631 33.9789 63.7496 34.4572 63.4741Z" fill="#9FC86A"/>
<path d="M33.4125 60.2221C34.0364 59.8608 34.8371 60.0766 35.1958 60.7004C35.5545 61.3243 35.3414 62.1249 34.7175 62.4837C34.0936 62.8424 33.293 62.6292 32.9342 62.0054C32.5755 61.3815 32.7887 60.5809 33.4125 60.2221Z" fill="#9FC86A"/>
<path d="M34.0964 56.7701C34.7697 56.3801 35.6301 56.6115 36.02 57.2848C36.4099 57.958 36.1786 58.8185 35.5053 59.2084C34.8321 59.5983 33.9716 59.3669 33.5817 58.6937C33.1918 58.0204 33.4231 57.16 34.0964 56.7701Z" fill="#9FC86A"/>
<path d="M37.0592 54.0353C37.8702 53.5674 38.9074 53.8455 39.3779 54.6565C39.8458 55.4676 39.5677 56.5048 38.7566 56.9753C37.9456 57.4458 36.9084 57.165 36.4379 56.354C35.9674 55.543 36.2481 54.5058 37.0592 54.0353Z" fill="#9FC86A"/>
<path d="M37.733 65.6134C45.5835 73.9863 57.762 63.0607 57.762 63.0607C48.1569 64.649 43.6988 55.1609 38.6974 58.0281C35.9784 59.5852 35.5911 63.3285 37.733 65.6134ZM51.7234 65.3093C43.9562 69.3748 40.8732 64.0381 40.8732 64.0381C40.8732 64.0381 44.5853 67.0743 51.7234 65.3093Z" fill="#9FC86A"/>
<path d="M70.8833 57.0297C70.6025 56.8686 70.5064 56.5098 70.6701 56.2291C70.8313 55.9484 71.19 55.8522 71.4708 56.0159C71.7515 56.1771 71.8477 56.5358 71.6839 56.8166C71.5228 57.0973 71.164 57.1935 70.8833 57.0297Z" fill="#9FC86A"/>
<path d="M69.6875 59.9333C69.2092 59.6577 69.0455 59.0443 69.321 58.566C69.5966 58.0876 70.21 57.9239 70.6883 58.1994C71.1666 58.475 71.3304 59.0884 71.0549 59.5667C70.7793 60.0451 70.1658 60.2088 69.6875 59.9333Z" fill="#9FC86A"/>
<path d="M67.3916 62.4627C66.7677 62.1014 66.552 61.3033 66.9133 60.6794C67.2746 60.0556 68.0727 59.8398 68.6965 60.2011C69.3204 60.5625 69.5362 61.3605 69.1748 61.9844C68.8135 62.6083 68.0155 62.824 67.3916 62.4627Z" fill="#9FC86A"/>
<path d="M64.0615 63.5985C63.3882 63.2086 63.1569 62.3482 63.5468 61.6749C63.9367 61.0016 64.7971 60.7703 65.4704 61.1602C66.1437 61.5501 66.375 62.4105 65.9851 63.0838C65.5952 63.7571 64.7348 63.9884 64.0615 63.5985Z" fill="#9FC86A"/>
<path d="M60.212 62.4004C59.4009 61.9325 59.1228 60.8953 59.5907 60.0817C60.0586 59.268 61.0958 58.9925 61.9094 59.4604C62.7205 59.9283 62.9986 60.9655 62.5307 61.7791C62.0628 62.5902 61.0256 62.8683 60.212 62.4004Z" fill="#9FC86A"/>
<path d="M69.9034 56.0265C73.2308 45.0411 57.6807 39.9565 57.6807 39.9565C63.8596 47.4794 57.8704 56.0863 62.8536 58.9821C65.5623 60.5574 68.9962 59.0237 69.9034 56.0239V56.0265ZM62.6431 44.0637C70.0464 48.7584 66.966 54.0951 66.966 54.0951C66.966 54.0951 67.7406 49.3615 62.6431 44.0637Z" fill="#9FC86A"/>
<path d="M14.748 60.2143C14.748 60.2143 4.51382 56.3307 14.748 45.0386C24.6182 56.4503 14.748 60.2143 14.748 60.2143Z" fill="#59843D"/>
<path d="M14.6674 61.9429C14.5244 61.9429 14.4075 61.8259 14.4075 61.683V48.5998C14.4075 48.4568 14.5244 48.3398 14.6674 48.3398C14.8104 48.3398 14.9274 48.4568 14.9274 48.5998V61.683C14.9274 61.8259 14.8104 61.9429 14.6674 61.9429Z" fill="#13304E"/>
<path d="M14.7144 52.1691L12.939 50.4768C12.835 50.378 12.8324 50.2143 12.9312 50.1103C13.03 50.0063 13.1963 50.0037 13.2977 50.1025L14.6962 51.436L16.0298 50.0375C16.1286 49.9335 16.2923 49.9309 16.3963 50.0297C16.5003 50.1285 16.5055 50.2922 16.4041 50.3962L14.7118 52.1717L14.7144 52.1691Z" fill="#13304E"/>
<path d="M14.7144 54.9088L12.939 53.2166C12.835 53.1178 12.8324 52.954 12.9312 52.85C13.03 52.7461 13.1963 52.7435 13.2977 52.8422L14.6962 54.1758L16.0298 52.7772C16.1286 52.6733 16.2923 52.6707 16.3963 52.7695C16.5003 52.8682 16.5055 53.032 16.4041 53.136L14.7118 54.9114L14.7144 54.9088Z" fill="#13304E"/>
<path d="M14.7144 57.6488L12.939 55.9566C12.835 55.8578 12.8324 55.694 12.9312 55.59C13.03 55.486 13.1963 55.4834 13.2977 55.5822L14.6962 56.9158L16.0298 55.5172C16.1286 55.4133 16.2923 55.4107 16.3963 55.5094C16.5003 55.6082 16.5055 55.772 16.4041 55.876L14.7118 57.6514L14.7144 57.6488Z" fill="#13304E"/>
<path d="M89.4147 60.2141C89.4147 60.2141 79.1806 56.3305 89.4147 45.0383C99.2849 56.45 89.4147 60.2141 89.4147 60.2141Z" fill="#59843D"/>
<path d="M89.334 61.9429C89.1911 61.9429 89.0741 61.8259 89.0741 61.683V48.5998C89.0741 48.4568 89.1911 48.3398 89.334 48.3398C89.477 48.3398 89.594 48.4568 89.594 48.5998V61.683C89.594 61.8259 89.477 61.9429 89.334 61.9429Z" fill="#13304E"/>
<path d="M89.3786 52.1688L87.6032 50.4766C87.4992 50.3778 87.494 50.214 87.5954 50.11C87.6942 50.0061 87.8606 50.0035 87.9619 50.1022L89.3605 51.4358L90.694 50.0373C90.7928 49.9333 90.9565 49.9307 91.0605 50.0295C91.1645 50.1282 91.1671 50.292 91.0683 50.396L89.376 52.1714L89.3786 52.1688Z" fill="#13304E"/>
<path d="M89.3786 54.9086L87.6032 53.2163C87.4992 53.1175 87.494 52.9538 87.5954 52.8498C87.6942 52.7458 87.8606 52.7432 87.9619 52.842L89.3605 54.1755L90.694 52.777C90.7928 52.673 90.9565 52.6704 91.0605 52.7692C91.1645 52.868 91.1671 53.0318 91.0683 53.1357L89.376 54.9112L89.3786 54.9086Z" fill="#13304E"/>
<path d="M89.3786 57.6486L87.6032 55.9563C87.4992 55.8575 87.494 55.6938 87.5954 55.5898C87.6942 55.4858 87.8606 55.4832 87.9619 55.582L89.3605 56.9155L90.694 55.517C90.7928 55.413 90.9565 55.4104 91.0605 55.5092C91.1645 55.608 91.1671 55.7717 91.0683 55.8757L89.376 57.6512L89.3786 57.6486Z" fill="#13304E"/>
<path d="M15.7292 68.6809C15.737 68.3118 15.8384 67.9817 16.0334 67.6879C16.2283 67.3942 16.5065 67.1577 16.8626 66.9809L18.5861 66.1309C18.9448 65.9541 19.2983 65.8787 19.6518 65.9021C20.0028 65.9255 20.3277 66.0477 20.6214 66.2686C20.9152 66.4896 21.1595 66.7937 21.3493 67.181C21.5391 67.5632 21.6326 67.9375 21.6352 68.2962C21.6352 68.6576 21.5469 68.9825 21.3649 69.2736C21.1829 69.5648 20.9204 69.7935 20.5773 69.9651C20.5331 69.9859 20.4915 69.9703 20.4499 69.9157L19.9664 69.0683L19.9586 69.0527C19.9352 69.0033 19.9482 68.9643 20.0028 68.9383C20.2653 68.8083 20.4369 68.6238 20.5175 68.382C20.598 68.1429 20.5721 67.8907 20.4421 67.6256C20.3095 67.3578 20.1223 67.181 19.8858 67.0979C19.6466 67.0147 19.3945 67.0381 19.1319 67.1681L17.3331 68.0571C17.0732 68.1844 16.9042 68.369 16.8262 68.6082C16.7456 68.8473 16.7742 69.1021 16.9068 69.3724C17.0368 69.635 17.2213 69.8091 17.4605 69.8923C17.6996 69.9755 17.9492 69.9521 18.2065 69.8247C18.2611 69.7987 18.3027 69.8143 18.3339 69.8741L18.7264 70.7657C18.7394 70.7917 18.742 70.8151 18.7342 70.8411C18.7264 70.8671 18.7134 70.8827 18.6952 70.8931C18.3521 71.0621 18.009 71.1323 17.6658 71.0985C17.3227 71.0673 17.0056 70.9399 16.7196 70.7215C16.4311 70.5006 16.1919 70.199 16.0048 69.8169C15.8124 69.4296 15.7214 69.0501 15.7292 68.6809Z" fill="white"/>
<path d="M20.2361 76.3703L20.7534 75.6918C20.7638 75.6711 20.7664 75.6529 20.756 75.6373L19.5629 73.9736C19.5525 73.9606 19.5369 73.9554 19.5109 73.9606L18.7076 74.2387C18.653 74.2569 18.6089 74.2439 18.5777 74.1998L17.9616 73.3419C17.9434 73.3159 17.9356 73.2899 17.9408 73.2639C17.946 73.2379 17.9694 73.2197 18.0058 73.2067L23.6259 71.3871C23.6804 71.3689 23.7246 71.3819 23.7558 71.4261L24.5175 72.4867C24.5487 72.5309 24.5487 72.5777 24.5123 72.6245L20.9874 77.3659C20.9874 77.3659 20.9718 77.3867 20.9588 77.3971C20.9172 77.4257 20.8808 77.4153 20.8444 77.3659L20.2283 76.5081C20.1971 76.4639 20.1971 76.4171 20.2335 76.3729L20.2361 76.3703ZM20.4701 73.6825L21.3227 74.873C21.3409 74.899 21.3617 74.899 21.3825 74.873L22.9552 72.8246C22.9708 72.8064 22.9734 72.796 22.9656 72.7882C22.9578 72.7804 22.9448 72.7804 22.9266 72.7856L20.4909 73.6305C20.4597 73.6461 20.4545 73.6643 20.4701 73.6877V73.6825Z" fill="white"/>
<path d="M24.5342 81.1168L25.4181 78.7461C25.4259 78.7227 25.4207 78.7019 25.4051 78.6863L24.854 78.1404C24.8332 78.1196 24.815 78.1222 24.7942 78.1404L23.1955 79.7547C23.1747 79.7755 23.1513 79.7833 23.1253 79.7859C23.0967 79.7859 23.0733 79.7755 23.0551 79.7573L22.3637 79.071C22.3429 79.0502 22.3351 79.0268 22.3351 79.0008C22.3351 78.9722 22.3455 78.9488 22.3637 78.9307L26.3253 74.9327C26.3461 74.9119 26.3695 74.9041 26.3955 74.9041C26.4215 74.9041 26.4475 74.9145 26.4657 74.9327L28.1553 76.6093C28.4075 76.8589 28.579 77.1292 28.6674 77.4229C28.7558 77.7141 28.761 78.0078 28.6778 78.299C28.5946 78.5927 28.4309 78.8631 28.1839 79.11C27.9188 79.3778 27.6224 79.5415 27.3001 79.5987C26.9778 79.6559 26.6554 79.6065 26.3357 79.4479C26.3071 79.4375 26.2889 79.4427 26.2759 79.4713L25.4207 81.9408C25.4129 81.9642 25.4051 81.9798 25.3973 81.9876C25.3661 82.0188 25.3297 82.0136 25.2855 81.9694L24.5576 81.2494C24.5186 81.2104 24.5082 81.1662 24.5264 81.1142L24.5342 81.1168ZM26.4917 76.4352L25.4909 77.4463C25.4701 77.4671 25.4701 77.4853 25.4909 77.5061L26.2655 78.273C26.4319 78.4367 26.6138 78.5225 26.8166 78.5277C27.0193 78.5329 27.1987 78.4575 27.3547 78.299C27.5106 78.1404 27.586 77.961 27.5808 77.7557C27.5756 77.5503 27.4899 77.3684 27.3261 77.2046L26.5514 76.4377C26.5306 76.4169 26.5124 76.4195 26.4917 76.4377V76.4352Z" fill="white"/>
<path d="M31.5293 82.973C31.7997 83.5007 31.7503 84.0232 31.3812 84.5379C31.0666 84.9746 30.6819 85.1982 30.2244 85.2086C29.7669 85.219 29.2964 85.05 28.8129 84.7043L27.0608 83.4487C27.0374 83.4331 27.0244 83.4097 27.0192 83.3838C27.014 83.3578 27.0192 83.3318 27.0374 83.3084L30.318 78.7359C30.3336 78.7125 30.357 78.6995 30.383 78.6943C30.409 78.6891 30.435 78.6943 30.4584 78.7125L32.1558 79.9316C33.2242 80.6985 33.4478 81.5147 32.8265 82.3804C32.5015 82.8301 32.0804 83.0172 31.5579 82.934C31.5215 82.9288 31.5111 82.9418 31.5293 82.9756V82.973ZM30.006 84.0674C30.1984 84.0466 30.3622 83.9426 30.4947 83.7581C30.6273 83.5735 30.6741 83.3863 30.6325 83.1966C30.5909 83.0068 30.4636 82.8353 30.253 82.6845L29.4134 82.084C29.39 82.0684 29.3718 82.071 29.3562 82.0944L28.5503 83.2174C28.5347 83.2408 28.5373 83.259 28.5607 83.2746L29.4056 83.8803C29.6135 84.0284 29.8137 84.0934 30.006 84.07V84.0674ZM30.7183 80.189L29.9619 81.2444C29.9463 81.2678 29.9489 81.286 29.9723 81.3016L30.7625 81.8683C30.9757 82.019 31.1758 82.0892 31.363 82.0736C31.5501 82.058 31.7061 81.9644 31.8309 81.7929C31.9583 81.6161 31.9972 81.4367 31.9531 81.2496C31.9089 81.0624 31.7815 80.896 31.5683 80.7427L30.7781 80.176C30.7547 80.1604 30.7365 80.163 30.7209 80.1864L30.7183 80.189Z" fill="white"/>
<path d="M33.2583 87.2645C33.0426 86.9578 32.923 86.6225 32.8996 86.2559C32.8762 85.8894 32.9594 85.5177 33.144 85.146L33.9368 83.5499C34.1188 83.1808 34.3631 82.8974 34.6673 82.6946C34.9714 82.4919 35.3119 82.3879 35.6837 82.3775C36.058 82.3671 36.4375 82.4581 36.8248 82.6505C37.2173 82.8454 37.5241 83.095 37.7398 83.3991C37.9582 83.7032 38.0778 84.036 38.1012 84.4025C38.1246 84.7664 38.044 85.133 37.862 85.5021L37.0692 87.0982C36.8846 87.4699 36.6377 87.761 36.3309 87.9664C36.0242 88.1743 35.6837 88.2809 35.3093 88.2913C34.935 88.3017 34.5529 88.2081 34.1604 88.0132C33.773 87.8208 33.4715 87.5713 33.2531 87.2645H33.2583ZM35.4055 87.1787C35.6603 87.0878 35.8604 86.9006 36.0034 86.6121L36.817 84.9718C36.96 84.6833 36.9912 84.4103 36.9132 84.1504C36.8352 83.8904 36.6559 83.6928 36.3777 83.5551C36.1048 83.4199 35.8396 83.3991 35.5875 83.4927C35.3327 83.5863 35.1352 83.7786 34.9922 84.0672L34.1786 85.7074C34.0356 85.996 34.0044 86.2689 34.085 86.5237C34.1656 86.781 34.3423 86.976 34.6153 87.1112C34.8882 87.2463 35.1534 87.2697 35.4081 87.1787H35.4055Z" fill="white"/>
<path d="M43.1742 85.1642C43.1976 85.1512 43.2236 85.1486 43.2496 85.1564L44.1828 85.4371C44.2088 85.4449 44.2296 85.4605 44.2426 85.4865C44.2556 85.5099 44.2582 85.5359 44.2504 85.5619L42.6283 90.9506C42.6205 90.9766 42.6049 90.9974 42.5789 91.0104C42.5555 91.0234 42.5295 91.026 42.5035 91.0182L41.6041 90.7479C41.5521 90.7323 41.5209 90.6985 41.5105 90.6491L40.4733 86.6173C40.4681 86.5991 40.4577 86.5887 40.4473 86.5887C40.4369 86.5887 40.4265 86.5991 40.4213 86.6199L39.4257 89.9888C39.4179 90.0148 39.4023 90.0356 39.3763 90.0486C39.353 90.0616 39.327 90.0642 39.301 90.0564L38.3678 89.7756C38.3418 89.7678 38.321 89.7523 38.308 89.7263C38.295 89.7029 38.2924 89.6769 38.3002 89.6509L39.9222 84.2622C39.93 84.2362 39.9456 84.2154 39.9716 84.2024C39.995 84.1894 40.021 84.1868 40.047 84.1946L40.9464 84.4649C40.9984 84.4805 41.0296 84.5143 41.04 84.5637L42.0746 88.5773C42.0798 88.5955 42.0902 88.6059 42.1006 88.6059C42.111 88.6059 42.1214 88.5955 42.1266 88.5747L43.1274 85.224C43.1352 85.198 43.1508 85.1772 43.1768 85.1642H43.1742Z" fill="white"/>
<path d="M51.8498 87.3036C51.829 87.3218 51.8056 87.3296 51.777 87.3296L49.0527 87.1581C49.0241 87.1581 49.0112 87.1685 49.0086 87.197L48.928 88.4838C48.928 88.5124 48.9384 88.5254 48.967 88.528L50.7528 88.6398C50.7814 88.6398 50.8022 88.6528 50.8204 88.6736C50.8386 88.6943 50.8464 88.7177 50.8464 88.7463L50.797 89.5522C50.797 89.5808 50.784 89.6016 50.7632 89.6198C50.7424 89.638 50.719 89.6458 50.6904 89.6432L48.9046 89.5314C48.876 89.5314 48.863 89.5418 48.8604 89.5704L48.7772 90.9169C48.7772 90.9455 48.7876 90.9585 48.8162 90.9611L51.5404 91.1327C51.569 91.1327 51.5898 91.1457 51.608 91.1665C51.6262 91.1872 51.634 91.2106 51.6314 91.2392L51.582 92.0451C51.582 92.0737 51.569 92.0971 51.5482 92.1153C51.5274 92.1335 51.5041 92.1413 51.4755 92.1387L47.636 91.8969C47.6074 91.8969 47.5866 91.8839 47.5684 91.8631C47.5502 91.8423 47.5424 91.8189 47.545 91.7903L47.8986 86.1755C47.8986 86.1469 47.9116 86.1235 47.9324 86.1079C47.9532 86.0897 47.9766 86.0819 48.0052 86.0845L51.8446 86.3262C51.8732 86.3262 51.894 86.3392 51.9148 86.36C51.933 86.3808 51.9408 86.4042 51.9382 86.4328L51.8888 87.2386C51.8888 87.2672 51.8758 87.2906 51.855 87.3062L51.8498 87.3036Z" fill="white"/>
<path d="M56.978 85.9285L57.9476 85.8272C57.9762 85.8246 57.9996 85.8323 58.0204 85.8479C58.0412 85.8661 58.0542 85.8869 58.0568 85.9155L58.6469 91.5122C58.6495 91.5408 58.6417 91.5642 58.6261 91.585C58.6079 91.6058 58.5871 91.6188 58.5585 91.6214L57.5889 91.7228C57.5603 91.7254 57.5369 91.7176 57.5161 91.702C57.4953 91.6864 57.4823 91.663 57.4797 91.6344L57.095 87.9847C57.095 87.9639 57.0872 87.9535 57.0742 87.9535C57.0638 87.9535 57.0534 87.9639 57.043 87.9821L56.31 89.4482C56.2866 89.495 56.2502 89.521 56.2008 89.5262L55.7121 89.5782C55.6627 89.5834 55.6211 89.5652 55.5899 89.5236L54.5683 88.2421C54.5553 88.2265 54.5449 88.2213 54.5319 88.2239C54.5215 88.2291 54.5163 88.2395 54.5189 88.2629L54.901 91.9047C54.9036 91.9333 54.8959 91.9567 54.8803 91.9775C54.8621 91.9983 54.8413 92.0113 54.8127 92.0139L53.8431 92.1153C53.8145 92.1179 53.7911 92.1101 53.7703 92.0945C53.7495 92.0763 53.7365 92.0555 53.7339 92.0269L53.1438 86.4302C53.1412 86.4016 53.149 86.3782 53.1646 86.3574C53.1802 86.3366 53.2036 86.3237 53.2322 86.3211L54.2018 86.2197C54.2512 86.2145 54.2928 86.2327 54.324 86.2743L55.7693 88.0731C55.7901 88.1043 55.8057 88.1017 55.8187 88.0679L56.8663 86.0065C56.8897 85.9597 56.926 85.9337 56.9754 85.9285H56.978Z" fill="white"/>
<path d="M60.8566 91.0755C60.8332 91.0625 60.8176 91.0417 60.8124 91.0131L59.4971 85.5412C59.4893 85.5152 59.4971 85.4892 59.5075 85.4658C59.5231 85.4424 59.5413 85.4268 59.5698 85.4216L60.5161 85.1929C60.5421 85.1851 60.568 85.1929 60.5914 85.2033C60.6148 85.2189 60.6304 85.2371 60.6356 85.2657L61.951 90.7376C61.9562 90.7635 61.951 90.7895 61.938 90.8129C61.9224 90.8363 61.9042 90.8519 61.8756 90.8571L60.9294 91.0859C60.9034 91.0937 60.8774 91.0885 60.854 91.0755H60.8566Z" fill="white"/>
<path d="M64.818 89.8562C64.4567 89.838 64.1447 89.7366 63.8848 89.5521C63.6248 89.3675 63.4325 89.1101 63.3129 88.7826L63.2505 88.611C63.2401 88.5851 63.2427 88.5591 63.2531 88.5357C63.2635 88.5097 63.2843 88.4941 63.3103 88.4837L64.1993 88.1535C64.2253 88.1431 64.2513 88.1457 64.2747 88.1561C64.3007 88.1665 64.3163 88.1873 64.3267 88.2133L64.3709 88.3303C64.4489 88.5383 64.61 88.6786 64.8544 88.7514C65.0987 88.8242 65.3873 88.7982 65.7148 88.6786C65.9903 88.5773 66.1749 88.4421 66.2659 88.2757C66.3569 88.1093 66.3725 87.9404 66.3101 87.7662C66.2633 87.6414 66.1827 87.5505 66.0683 87.4959C65.954 87.4413 65.811 87.4075 65.6446 87.3945C65.4782 87.3815 65.2157 87.3763 64.8622 87.3763C64.4696 87.3867 64.1291 87.3711 63.8406 87.3373C63.552 87.3009 63.2869 87.2073 63.0425 87.0514C62.7982 86.8954 62.6188 86.6588 62.5018 86.3417C62.3875 86.0298 62.3667 85.7256 62.4421 85.4319C62.5174 85.1381 62.6734 84.8756 62.9152 84.6442C63.1569 84.4129 63.4636 84.2283 63.838 84.0905C64.2331 83.945 64.6126 83.8852 64.9739 83.9112C65.3353 83.9372 65.6498 84.0438 65.9176 84.2335C66.1853 84.4207 66.3803 84.6832 66.5024 85.016L66.5466 85.1329C66.557 85.1589 66.5544 85.1849 66.544 85.2083C66.5336 85.2317 66.5128 85.2499 66.4868 85.2603L65.59 85.593C65.564 85.6034 65.538 85.6008 65.5146 85.5905C65.4886 85.5801 65.473 85.5593 65.4627 85.5333L65.4393 85.4709C65.3587 85.2525 65.2001 85.0991 64.9636 85.0108C64.727 84.925 64.4515 84.938 64.1395 85.0524C63.8952 85.1433 63.7236 85.2655 63.6222 85.4215C63.5208 85.5774 63.5078 85.7464 63.5728 85.9284C63.6222 86.0584 63.7028 86.1519 63.8146 86.2117C63.929 86.2715 64.0771 86.3053 64.2617 86.3183C64.4463 86.3287 64.727 86.3339 65.1039 86.3313C65.5224 86.3313 65.8578 86.3417 66.1073 86.3677C66.3569 86.3937 66.6038 86.4795 66.8482 86.6224C67.0925 86.7654 67.2771 87.002 67.3967 87.3295C67.5786 87.8182 67.5396 88.2705 67.2849 88.689C67.0301 89.1049 66.596 89.4273 65.9825 89.6534C65.5666 89.8068 65.1767 89.8744 64.8154 89.8588L64.818 89.8562Z" fill="white"/>
<path d="M70.5574 87.4049C70.1986 87.4439 69.8737 87.3945 69.5878 87.2516C69.3018 87.1112 69.0731 86.885 68.9015 86.5809L68.8131 86.4197C68.8001 86.3963 68.7975 86.3703 68.8027 86.3444C68.8105 86.3184 68.8261 86.2976 68.8495 86.2846L69.6761 85.8193C69.6995 85.8063 69.7255 85.8037 69.7515 85.8089C69.7775 85.8167 69.7983 85.8323 69.8113 85.8556L69.8711 85.9648C69.9803 86.1598 70.1596 86.2716 70.4144 86.3054C70.6691 86.3392 70.9473 86.269 71.2514 86.0974C71.5088 85.9544 71.6699 85.7933 71.7323 85.6113C71.7947 85.4293 71.7843 85.263 71.6959 85.1018C71.6309 84.9848 71.5374 84.9094 71.4152 84.873C71.293 84.8367 71.1474 84.8263 70.9811 84.8393C70.8147 84.8522 70.5548 84.8886 70.2064 84.9458C69.8191 85.016 69.4812 85.0576 69.19 85.0654C68.8989 85.0732 68.6234 85.0212 68.3582 84.9068C68.0931 84.7925 67.8773 84.5871 67.7135 84.2908C67.5498 83.9996 67.4822 83.7033 67.5108 83.4017C67.5394 83.1002 67.6537 82.8169 67.8539 82.5517C68.0541 82.2866 68.3296 82.0552 68.6779 81.8602C69.0471 81.6549 69.411 81.5353 69.7723 81.5041C70.1336 81.4729 70.4612 81.5301 70.7549 81.6731C71.0487 81.8161 71.2826 82.0448 71.4568 82.3541L71.5192 82.4633C71.5322 82.4867 71.5348 82.5127 71.527 82.5387C71.5192 82.5647 71.5036 82.5855 71.4802 82.5985L70.6457 83.0664C70.6223 83.0794 70.5964 83.082 70.5704 83.0768C70.5444 83.0716 70.5236 83.0534 70.5106 83.03L70.4794 82.9728C70.365 82.7701 70.1856 82.6427 69.9387 82.5933C69.6917 82.5439 69.424 82.6011 69.1329 82.7623C68.9041 82.8896 68.7533 83.0378 68.6805 83.2068C68.6078 83.3757 68.6181 83.5447 68.7117 83.7137C68.7793 83.8359 68.8729 83.9164 68.9951 83.9554C69.1173 83.997 69.268 84.0074 69.4526 83.9892C69.6371 83.971 69.9153 83.932 70.287 83.8696C70.7003 83.8021 71.0331 83.7631 71.2826 83.7501C71.5322 83.7371 71.7895 83.7813 72.0547 83.8852C72.3198 83.9892 72.5356 84.192 72.7071 84.4961C72.9619 84.951 72.9957 85.4033 72.8111 85.8556C72.624 86.308 72.247 86.6927 71.6751 87.0124C71.2878 87.2282 70.9135 87.3581 70.5548 87.3971L70.5574 87.4049Z" fill="white"/>
<path d="M75.1402 84.7225C75.1142 84.7173 75.0908 84.7043 75.0752 84.6835L71.7609 80.137C71.7453 80.1136 71.7375 80.0902 71.7427 80.0616C71.7479 80.0356 71.7609 80.0122 71.7817 79.9966L72.5693 79.4221C72.5927 79.4065 72.6161 79.3987 72.6447 79.4039C72.6733 79.4091 72.6941 79.4221 72.7097 79.4429L76.024 83.9894C76.0396 84.0128 76.0474 84.0362 76.0422 84.0648C76.037 84.0934 76.024 84.1142 76.0032 84.1298L75.2156 84.7043C75.1922 84.7199 75.1688 84.7277 75.1402 84.7225Z" fill="white"/>
<path d="M78.3955 81.9773C78.0341 82.0735 77.6754 82.0683 77.3245 81.9591C76.9736 81.8499 76.6538 81.6446 76.3705 81.3404L75.1539 80.0381C74.8732 79.7392 74.6912 79.409 74.6106 79.0529C74.5274 78.6968 74.5482 78.3432 74.6704 77.9897C74.7926 77.6362 75.0109 77.3112 75.3281 77.0175C75.6478 76.7186 75.9883 76.5184 76.3497 76.4222C76.711 76.3234 77.0645 76.3286 77.4155 76.4352C77.7664 76.5418 78.0809 76.7446 78.3617 77.0435L79.5782 78.3458C79.8616 78.65 80.0487 78.9827 80.1345 79.3414C80.2203 79.7028 80.2021 80.0589 80.0799 80.4124C79.9578 80.766 79.7368 81.0909 79.4171 81.3924C79.0999 81.6888 78.762 81.8837 78.3981 81.9799L78.3955 81.9773ZM79.0687 79.9367C79.0739 79.6664 78.9674 79.4142 78.7464 79.1777L77.496 77.8389C77.2751 77.605 77.0307 77.4776 76.7604 77.462C76.4901 77.4464 76.2405 77.5426 76.0143 77.7558C75.7908 77.9637 75.679 78.2029 75.679 78.4758C75.679 78.7462 75.7882 79.0009 76.0066 79.2349L77.2569 80.5736C77.4779 80.8075 77.7196 80.9323 77.9899 80.9479C78.2577 80.9635 78.5046 80.8647 78.7282 80.6568C78.9518 80.4488 79.0661 80.2097 79.0713 79.9367H79.0687Z" fill="white"/>
<path d="M79.9209 71.951C79.9183 71.925 79.9235 71.899 79.9417 71.8782L80.5343 71.1036C80.5525 71.0828 80.5733 71.0698 80.5993 71.0646C80.6253 71.062 80.6513 71.0672 80.6721 71.0854L85.1406 74.5063C85.1614 74.5219 85.1744 74.5453 85.1796 74.5713C85.1822 74.5973 85.177 74.6233 85.1588 74.6441L84.5869 75.3901C84.5531 75.4343 84.5116 75.4525 84.4622 75.4421L80.3238 74.9872C80.303 74.9872 80.2926 74.9898 80.2874 75.0002C80.2822 75.0106 80.2874 75.0236 80.3082 75.0366L83.1078 77.1604C83.1312 77.1786 83.1416 77.1994 83.1468 77.2254C83.1494 77.2539 83.1442 77.2773 83.126 77.3007L82.5333 78.0728C82.5178 78.0936 82.4944 78.1066 82.4684 78.1118C82.4424 78.1144 82.4164 78.1092 82.3956 78.091L77.9271 74.6701C77.9063 74.6519 77.8933 74.6311 77.8881 74.6051C77.8855 74.5791 77.8907 74.5531 77.9089 74.5297L78.4808 73.7836C78.5146 73.7395 78.5561 73.7213 78.6055 73.7317L82.7257 74.184C82.7465 74.184 82.7569 74.1814 82.7621 74.171C82.7673 74.1606 82.7621 74.1476 82.7413 74.1346L79.9599 72.016C79.9391 72.0004 79.9261 71.977 79.9209 71.951Z" fill="white"/>
<path d="M86.7349 71.7769C86.4541 72.003 86.1526 72.1356 85.8355 72.1694C85.5183 72.2032 85.2038 72.1408 84.897 71.9744L84.7359 71.8886C84.7125 71.8756 84.6943 71.8574 84.6865 71.8289C84.6787 71.8029 84.6813 71.7769 84.6943 71.7535L85.1414 70.9164C85.1544 70.893 85.1752 70.8748 85.2012 70.867C85.2272 70.8592 85.2532 70.8618 85.2766 70.8748L85.3857 70.9346C85.5807 71.0386 85.7965 71.036 86.0278 70.9268C86.2592 70.8177 86.4567 70.6097 86.6205 70.3004C86.7583 70.0404 86.8077 69.8194 86.7661 69.6323C86.7245 69.4451 86.6231 69.3099 86.4593 69.2242C86.3424 69.1618 86.2228 69.1488 86.098 69.1826C85.9758 69.219 85.8485 69.2866 85.7133 69.3879C85.5807 69.4893 85.3805 69.6583 85.118 69.8948C84.8295 70.1626 84.5669 70.3783 84.3278 70.5447C84.0886 70.7111 83.8261 70.8151 83.5401 70.8592C83.2542 70.906 82.963 70.8488 82.6641 70.6877C82.3704 70.5317 82.1546 70.3186 82.0142 70.0482C81.8738 69.7779 81.8193 69.4789 81.8453 69.1462C81.8713 68.8135 81.9778 68.4729 82.1676 68.1194C82.3652 67.7477 82.6095 67.4513 82.898 67.2304C83.1866 67.0094 83.4933 66.882 83.8183 66.843C84.1432 66.8067 84.4629 66.8716 84.7749 67.038L84.884 67.0978C84.9074 67.1108 84.9256 67.1316 84.9334 67.1576C84.9412 67.1836 84.9386 67.2096 84.9256 67.233L84.4759 68.0778C84.4629 68.1012 84.4421 68.1194 84.4161 68.1272C84.3901 68.135 84.3642 68.1324 84.3408 68.1194L84.281 68.0882C84.0756 67.979 83.8547 67.9686 83.6207 68.0596C83.3867 68.1506 83.1892 68.3455 83.0332 68.6393C82.911 68.8706 82.8643 69.076 82.8928 69.258C82.9214 69.4399 83.0228 69.5777 83.1918 69.6687C83.314 69.7337 83.4361 69.7519 83.5609 69.7207C83.6857 69.6895 83.8183 69.6167 83.9638 69.5023C84.1094 69.3879 84.3226 69.2034 84.6033 68.9512C84.9152 68.6705 85.1752 68.4599 85.3779 68.3118C85.5807 68.1662 85.8225 68.0648 86.1006 68.0076C86.3787 67.953 86.6725 68.0076 86.9818 68.1714C87.4419 68.4183 87.7149 68.7797 87.8007 69.2606C87.8864 69.7415 87.7773 70.2692 87.4679 70.8462C87.2574 71.2388 87.013 71.5481 86.7323 71.7743L86.7349 71.7769Z" fill="white"/>
</g>
<defs>
<clipPath id="clip0_58_540">
<rect width="104" height="104" fill="white"/>
</clipPath>
</defs>
</svg>
