<svg width="120" height="120" viewBox="0 0 120 120" fill="none" xmlns="http://www.w3.org/2000/svg">
<g clip-path="url(#clip0_1012_7821)">
<path d="M59.9994 119.305C92.7525 119.305 119.304 92.7534 119.304 60C119.304 27.2468 92.7525 0.695068 59.9994 0.695068C27.2461 0.695068 0.694336 27.2468 0.694336 60C0.694336 92.7534 27.2461 119.305 59.9994 119.305Z" fill="#525355" stroke="#CECECB" stroke-width="1.38996" stroke-miterlimit="10"/>
<g opacity="0.8">
<path d="M61.0236 116.517C30.1272 117.023 4.67696 92.2785 4.17575 61.2597C4.16411 60.4581 4.16702 59.6652 4.18739 58.8753C4.34186 52.7979 5.4608 46.9548 7.39856 41.4948C9.70931 34.9845 13.1857 29.0185 17.5798 23.8599C21.5661 19.1724 26.3129 15.1492 31.6308 11.9862C31.7094 11.9393 31.7913 11.8925 31.8696 11.8457C38.2368 8.09751 45.4167 5.57532 53.0892 4.60974C55.0968 4.35519 57.1365 4.21182 59.2083 4.17669C59.9658 4.16499 60.7266 4.16793 61.4781 4.18548C72.9036 4.45758 83.5074 8.17947 92.2698 14.3767C102.41 21.5337 110.085 32.0031 113.725 44.2482C115.109 48.8946 115.907 53.8014 116.041 58.8753C116.047 59.0625 116.05 59.247 116.053 59.4342C116.557 90.4584 91.9143 116.014 61.0236 116.517Z" fill="#CECECB"/>
</g>
<path d="M59.7669 98.9187C81.3891 98.9187 98.9175 81.3906 98.9175 59.7684C98.9175 38.1459 81.3891 20.6177 59.7669 20.6177C38.1447 20.6177 20.6162 38.1459 20.6162 59.7684C20.6162 81.3906 38.1447 98.9187 59.7669 98.9187Z" fill="#525355"/>
<path opacity="0.8" d="M59.7678 96.834C80.2386 96.834 96.8334 80.2908 96.8334 59.8842C96.8334 39.4773 80.2386 22.9343 59.7678 22.9343C39.297 22.9343 22.7021 39.4773 22.7021 59.8842C22.7021 80.2908 39.297 96.834 59.7678 96.834Z" fill="#CECECB"/>
<path d="M17.6649 92.3904C17.3433 92.6364 16.8826 92.5752 16.641 92.2503C9.98336 83.2998 6.2552 72.5022 5.97851 61.3389C5.70182 50.175 8.89052 39.2061 15.0965 29.9368C15.3218 29.6005 15.7789 29.5166 16.1122 29.7464C16.4456 29.9762 16.529 30.4326 16.3039 30.7692C10.2735 39.7836 7.1753 50.4483 7.44434 61.3026C7.71332 72.1563 11.3361 82.6548 17.8056 91.3593C18.0472 91.6842 17.9865 92.1444 17.6649 92.3904Z" fill="#525355"/>
<path d="M27.6077 17.6653C27.3617 17.3437 27.4229 16.883 27.7477 16.6413C36.6984 9.98376 47.4957 6.25557 58.6593 5.97888C69.8229 5.70219 80.7918 8.89089 90.0612 15.0969C90.3975 15.3221 90.4815 15.7792 90.2517 16.1126C90.0219 16.446 89.5656 16.5294 89.229 16.3042C80.2146 10.2739 69.5499 7.17567 58.6956 7.44471C47.8416 7.71372 37.3434 11.3365 28.6386 17.806C28.3138 18.0475 27.8538 17.9868 27.6077 17.6653Z" fill="#525355"/>
<path d="M102.335 27.6099C102.657 27.3639 103.118 27.4251 103.359 27.7499C110.017 36.7005 113.745 47.4981 114.022 58.6614C114.298 69.825 111.11 80.7939 104.904 90.0636C104.678 90.3999 104.221 90.4836 103.888 90.2538C103.554 90.024 103.471 89.5677 103.696 89.2311C109.727 80.2167 112.825 69.552 112.556 58.6977C112.287 47.8437 108.664 37.3455 102.194 28.6408C101.953 28.316 102.014 27.856 102.335 27.6099Z" fill="#525355"/>
<path d="M92.3895 102.335C92.6355 102.657 92.5746 103.117 92.2497 103.359C83.2992 110.017 72.5016 113.745 61.338 114.022C50.1744 114.298 39.2055 111.11 29.9361 104.903C29.5997 104.678 29.5159 104.221 29.7457 103.888C29.9755 103.554 30.4317 103.471 30.7683 103.696C39.7827 109.727 50.4474 112.825 61.3017 112.556C72.1557 112.287 82.6542 108.664 91.3587 102.194C91.6836 101.953 92.1435 102.014 92.3895 102.335Z" fill="#525355"/>
<path d="M44.0292 19.2388C43.6722 19.1922 43.3584 19.0573 43.0956 18.8364C42.8301 18.6155 42.6315 18.3201 42.4974 17.9502L41.8572 16.1793C41.7255 15.8116 41.6886 15.4574 41.7516 15.1165C41.8146 14.7756 41.9679 14.4759 42.2145 14.2127C42.4608 13.9495 42.7839 13.7462 43.1817 13.6026C43.5747 13.4614 43.9473 13.4083 44.2998 13.4457C44.652 13.4831 44.9586 13.6064 45.2214 13.8158C45.4845 14.0251 45.6807 14.3043 45.8079 14.658C45.8241 14.7043 45.8037 14.7438 45.7458 14.7765L44.8677 15.1545L44.8515 15.1592C44.8008 15.178 44.7657 15.1597 44.7447 15.1019C44.6457 14.8314 44.4849 14.6446 44.2596 14.5393C44.0343 14.4364 43.7862 14.4332 43.5159 14.532C43.2408 14.6308 43.047 14.7941 42.942 15.0171C42.8343 15.2401 42.831 15.488 42.9276 15.7585L43.5936 17.6057C43.6899 17.8716 43.851 18.056 44.076 18.159C44.3016 18.262 44.5518 18.2652 44.8293 18.164C45.0996 18.0652 45.2886 17.9066 45.3963 17.6813C45.504 17.4582 45.5094 17.2126 45.4131 16.9468C45.3918 16.8913 45.4125 16.8518 45.4749 16.8283L46.386 16.5428C46.4115 16.5334 46.437 16.5333 46.4601 16.5424C46.4832 16.5515 46.4997 16.5653 46.5066 16.5862C46.6338 16.9399 46.6635 17.2802 46.596 17.6119C46.5282 17.9436 46.3701 18.2364 46.1262 18.4926C45.8796 18.7488 45.561 18.9475 45.168 19.0911C44.7705 19.2346 44.3907 19.2831 44.0337 19.2365L44.0292 19.2388Z" fill="#F5FAEF"/>
<path d="M51.7666 17.1721L51.3661 16.44C51.352 16.4215 51.3358 16.4124 51.3196 16.4171L49.3552 16.8244C49.339 16.8268 49.3276 16.8407 49.3231 16.8639L49.2535 17.6937C49.2493 17.7493 49.2193 17.7842 49.1662 17.7961L48.1528 18.0057C48.1201 18.0128 48.0946 18.006 48.0763 17.9922C48.055 17.9761 48.0481 17.9507 48.0502 17.9113L48.6571 12.158C48.6613 12.1023 48.6913 12.0674 48.7444 12.0555L49.9984 11.7959C50.0518 11.7863 50.0914 11.8047 50.1193 11.8531L52.9627 16.892C52.9627 16.892 52.9768 16.915 52.9792 16.9312C52.9885 16.9798 52.9657 17.0101 52.9054 17.022L51.892 17.2316C51.8386 17.2412 51.7993 17.2229 51.7711 17.1721L51.7666 17.1721ZM49.4542 15.8948L50.8588 15.6042C50.8912 15.5971 50.8981 15.5785 50.8816 15.5508L49.6714 13.3291C49.6618 13.3083 49.6528 13.3014 49.6411 13.3061C49.6318 13.3108 49.6252 13.3224 49.6228 13.3386L49.4122 15.8557C49.4125 15.8881 49.4266 15.9019 49.4542 15.8971V15.8948Z" fill="#F5FAEF"/>
<path d="M57.2431 16.6271L56.0956 14.4328C56.0839 14.412 56.0674 14.4028 56.0443 14.4029L55.2871 14.4466C55.2592 14.4467 55.2478 14.463 55.2481 14.4885L55.3765 16.7094C55.3765 16.7372 55.3696 16.7605 55.3513 16.7814C55.3327 16.8024 55.312 16.8118 55.2841 16.8142L54.3325 16.8683C54.3046 16.8684 54.2812 16.8616 54.2605 16.8432C54.2395 16.8247 54.2302 16.8017 54.2275 16.7762L53.9092 11.2736C53.9092 11.2459 53.9161 11.2227 53.9344 11.2017C53.9527 11.1807 53.9734 11.1713 54.0013 11.1689L56.3287 11.0353C56.6761 11.0147 56.9845 11.0686 57.2563 11.1945C57.5281 11.3203 57.7423 11.5091 57.9013 11.7607C58.0603 12.0123 58.1497 12.3107 58.1704 12.6511C58.1911 13.0193 58.1188 13.3417 57.9487 13.6161C57.7789 13.8904 57.5323 14.091 57.2086 14.218C57.1807 14.2297 57.1741 14.2506 57.1879 14.276L58.4284 16.5161C58.4404 16.5369 58.4473 16.5531 58.4473 16.5646C58.4476 16.6087 58.4224 16.632 58.3621 16.6346L57.3616 16.6936C57.3085 16.6962 57.2689 16.6756 57.2431 16.6271ZM55.1119 12.1356L55.1914 13.5274C55.1917 13.5552 55.2079 13.5667 55.2334 13.5666L56.299 13.5049C56.5258 13.4921 56.7082 13.4146 56.8441 13.2702C56.98 13.1258 57.0415 12.9471 57.0289 12.7294C57.0157 12.5117 56.9338 12.3384 56.7826 12.2095C56.6314 12.0807 56.4409 12.0215 56.2141 12.0343L55.1488 12.096C55.1209 12.0961 55.1092 12.1124 55.1095 12.1379L55.1119 12.1356Z" fill="#F5FAEF"/>
<path d="M63.3941 14.0299C63.8867 14.3376 64.1072 14.8019 64.0529 15.4185C64.0094 15.9446 63.7961 16.3257 63.4154 16.5642C63.0344 16.8027 62.5553 16.8957 61.976 16.848L59.8712 16.6699C59.8436 16.6678 59.8226 16.6563 59.804 16.6356C59.7878 16.6148 59.7782 16.5917 59.7806 16.5639L60.2426 11.0732C60.245 11.0454 60.2564 11.0245 60.2771 11.0058C60.2978 10.9895 60.3209 10.9801 60.3488 10.9822L62.3882 11.1537C63.6725 11.2623 64.2686 11.8357 64.1822 12.8764C64.1363 13.4188 63.8744 13.7863 63.3938 13.9813C63.359 13.9954 63.359 14.0116 63.3893 14.0299L63.3941 14.0299ZM62.6621 15.7159C62.8142 15.6016 62.8991 15.432 62.9165 15.2095C62.936 14.9869 62.8793 14.8066 62.7488 14.6683C62.6183 14.5277 62.4257 14.4478 62.1731 14.4283L61.1648 14.3437C61.1369 14.3439 61.1231 14.3532 61.121 14.381L61.0082 15.7299C61.0061 15.7577 61.0175 15.7716 61.0454 15.7737L62.0606 15.8607C62.3108 15.8824 62.51 15.8349 62.6621 15.7183V15.7159ZM61.3142 12.0957L61.2077 13.3635C61.2056 13.3913 61.2173 13.4051 61.2452 13.4073L62.1956 13.4876C62.4503 13.5094 62.6516 13.4665 62.804 13.3591C62.954 13.2517 63.0389 13.096 63.0563 12.8897C63.0737 12.6788 63.017 12.5054 62.8865 12.3718C62.756 12.2381 62.5631 12.1604 62.3084 12.1387L61.358 12.0584C61.3304 12.0586 61.3163 12.0679 61.3142 12.0957Z" fill="#F5FAEF"/>
<path d="M66.2547 17.2775C65.9802 17.0359 65.7884 16.7404 65.6846 16.3958C65.5805 16.0512 65.574 15.6806 65.6667 15.2816L66.06 13.5813C66.1506 13.1893 66.3179 12.8617 66.5618 12.6008C66.806 12.34 67.1061 12.1622 67.4601 12.0676C67.8141 11.9729 68.1962 11.9753 68.609 12.0703C69.0266 12.1675 69.3752 12.3347 69.6521 12.574C69.9293 12.8134 70.1186 13.1042 70.2245 13.4465C70.3283 13.7888 70.3374 14.1571 70.2471 14.5468L69.8535 16.2471C69.7608 16.6438 69.5937 16.976 69.3474 17.2438C69.1008 17.5116 68.8008 17.6917 68.4492 17.7841C68.0952 17.8787 67.7084 17.8763 67.2908 17.779C66.8777 17.6841 66.5339 17.5146 66.257 17.2729L66.2547 17.2775ZM68.2812 16.7101C68.5047 16.5675 68.652 16.3419 68.7219 16.0334L69.1268 14.2867C69.1967 13.9805 69.1676 13.7119 69.0317 13.4834C68.8982 13.2548 68.6822 13.1054 68.3852 13.0376C68.0927 12.9697 67.8383 13.0106 67.6169 13.1578C67.3952 13.305 67.2507 13.5328 67.1781 13.8391L66.7733 15.5858C66.7034 15.892 66.7349 16.1605 66.8684 16.3868C67.0016 16.6131 67.2156 16.7601 67.5081 16.828C67.7979 16.8958 68.057 16.8573 68.2787 16.7147L68.2812 16.7101Z" fill="#F5FAEF"/>
<path d="M75.9137 14.5241C75.9392 14.5146 75.9623 14.5122 75.9878 14.5236L76.8746 14.8731C76.9004 14.8822 76.9187 14.9006 76.9283 14.926C76.94 14.9515 76.94 14.9746 76.9289 15.0002L74.9099 20.1267C74.9006 20.1523 74.8823 20.1709 74.8568 20.1803C74.8313 20.1897 74.8082 20.1922 74.7827 20.1807L73.9259 19.8427C73.8749 19.8222 73.8467 19.7876 73.8443 19.7413L73.1591 15.7211C73.154 15.7026 73.1471 15.6911 73.1357 15.6911C73.124 15.6912 73.1147 15.6982 73.1081 15.7191L71.8634 18.9254C71.8544 18.951 71.8358 18.9696 71.8106 18.979C71.7851 18.9884 71.762 18.9909 71.7362 18.9794L70.8494 18.63C70.8242 18.6209 70.8053 18.6025 70.796 18.5794C70.7843 18.5539 70.784 18.5308 70.7957 18.5052L72.8144 13.3786C72.8234 13.3531 72.842 13.3345 72.8672 13.3251C72.8927 13.3133 72.9158 13.3132 72.9413 13.3246L73.7984 13.6627C73.8494 13.6832 73.8749 13.7178 73.88 13.7641L74.5652 17.7657C74.5697 17.7842 74.5769 17.7958 74.5886 17.7957C74.6 17.7956 74.609 17.7863 74.6162 17.7677L75.863 14.5799C75.8723 14.5544 75.8906 14.5358 75.9158 14.5264L75.9137 14.5241Z" fill="#F5FAEF"/>
<path d="M87.4728 54.5403C87.4728 50.1099 83.7723 46.4652 79.0854 46.1211C79.1667 41.5005 75.1863 37.6731 70.2318 37.5489C66.9612 28.7519 53.3955 29.375 51.0183 38.3514C45.0948 35.5539 38.0649 40.332 39.1569 46.4145C32.3463 49.8912 32.3616 59.2014 39.1569 62.6664C38.5737 65.8722 40.4136 69.1323 43.3485 70.5864C45.4302 67.4682 50.5767 68.055 51.7935 71.5353H56.2854C57.7128 67.5639 63.786 67.5663 65.2113 71.5353H69.7032C71.1153 67.5975 77.1255 67.5552 78.6051 71.4675C84.1149 70.8789 87.5223 65.0292 84.9108 60.4128C86.5536 58.8483 87.4728 56.7696 87.4728 54.5403Z" fill="#525355"/>
<path d="M75.2911 74.7224L75.2941 75.0071L75.4906 74.8013L75.9307 74.3408C76.2802 73.9751 76.8517 73.9697 77.2087 74.3285C77.5672 74.6891 77.5729 75.2807 77.2219 75.6479L75.0565 77.9135L75.055 77.9153C74.7241 78.2756 74.1178 78.2816 73.78 77.9279L73.7785 77.9264L71.5702 75.7055C71.1532 75.2525 71.2486 74.7152 71.5603 74.3888C71.7169 74.225 71.9254 74.1182 72.1471 74.1029C72.3661 74.0876 72.6073 74.1608 72.8353 74.3732L73.2826 74.8229L73.4836 75.0251L73.4806 74.7404L73.4599 72.6344C73.4938 71.3978 75.2116 71.3807 75.2704 72.6164L75.2911 74.7224Z" fill="#525355" stroke="#525355" stroke-width="0.23166"/>
<path d="M58.149 74.513C58.4988 74.1473 59.0703 74.1416 59.427 74.5004L59.8761 74.9519L60.0765 75.1538L60.0738 74.8691L60.0528 72.7634C60.087 71.5265 61.8048 71.5097 61.8636 72.7454L61.8843 74.8514L61.8873 75.1361L62.0838 74.93L62.5236 74.4701C62.8734 74.1041 63.4449 74.0984 63.8019 74.4575C64.1604 74.8178 64.1664 75.4097 63.8148 75.7769L61.6494 78.0425L61.6482 78.0443C61.317 78.4046 60.711 78.4106 60.3732 78.0569L60.3714 78.0551L58.1619 75.8327C57.8034 75.4721 57.7974 74.8808 58.149 74.513ZM58.149 74.513L58.0653 74.4332L58.149 74.513ZM58.149 74.513L58.0653 74.4332L58.149 74.513ZM58.0653 74.4332C58.4601 74.0201 59.1063 74.0135 59.5092 74.4188L58.08 75.9143C57.6771 75.5093 57.6705 74.846 58.0653 74.4332Z" fill="#525355"/>
<path d="M58.149 74.513L58.0653 74.4332M58.149 74.513L58.0653 74.4332M58.149 74.513C58.4988 74.1473 59.0703 74.1416 59.427 74.5004L59.8761 74.9519L60.0765 75.1538L60.0738 74.8691L60.0528 72.7634C60.087 71.5265 61.8048 71.5097 61.8636 72.7454L61.8843 74.8514L61.8873 75.1361L62.0838 74.93L62.5236 74.4701C62.8734 74.1041 63.4449 74.0984 63.8019 74.4575C64.1604 74.8178 64.1664 75.4097 63.8148 75.7769L61.6494 78.0425L61.6482 78.0443C61.317 78.4046 60.711 78.4106 60.3732 78.0569L60.3714 78.0551L58.1619 75.8327C57.8034 75.4721 57.7974 74.8808 58.149 74.513ZM58.0653 74.4332C58.4601 74.0201 59.1063 74.0135 59.5092 74.4188L58.08 75.9143C57.6771 75.5093 57.6705 74.846 58.0653 74.4332Z" stroke="#525355" stroke-width="0.23166"/>
<path d="M58.177 85.5804C58.5313 85.2183 59.1028 85.2195 59.4553 85.5825L59.899 86.0391L60.0973 86.2434L60.0976 85.9587L60.1015 83.8527C60.1498 82.6164 61.8676 82.6194 61.912 83.8557L61.9084 85.9617L61.9078 86.2467L62.107 86.0433L62.5522 85.5879C62.9062 85.2264 63.4777 85.2273 63.8305 85.5903C64.1848 85.9551 64.1836 86.5464 63.8281 86.91L61.6366 89.1501L61.6351 89.1519C61.3 89.5083 60.6937 89.5071 60.3601 89.1498L60.3583 89.148L58.1746 86.9001C57.8206 86.5353 57.8218 85.9437 58.177 85.5804ZM58.177 85.5804L58.0942 85.4991L58.177 85.5804ZM58.177 85.5804L58.0942 85.4991L58.177 85.5804ZM58.0942 85.4991C58.4941 85.0911 59.1406 85.092 59.5384 85.5018L58.0918 86.9808C57.6937 86.571 57.6949 85.9077 58.0942 85.4991Z" fill="#525355"/>
<path d="M58.177 85.5804L58.0942 85.4991M58.177 85.5804L58.0942 85.4991M58.177 85.5804C58.5313 85.2183 59.1028 85.2195 59.4553 85.5825L59.899 86.0391L60.0973 86.2434L60.0976 85.9587L60.1015 83.8527C60.1498 82.6164 61.8676 82.6194 61.912 83.8557L61.9084 85.9617L61.9078 86.2467L62.107 86.0433L62.5522 85.5879C62.9062 85.2264 63.4777 85.2273 63.8305 85.5903C64.1848 85.9551 64.1836 86.5464 63.8281 86.91L61.6366 89.1501L61.6351 89.1519C61.3 89.5083 60.6937 89.5071 60.3601 89.1498L60.3583 89.148L58.1746 86.9001C57.8206 86.5353 57.8218 85.9437 58.177 85.5804ZM58.0942 85.4991C58.4941 85.0911 59.1406 85.092 59.5384 85.5018L58.0918 86.9808C57.6937 86.571 57.6949 85.9077 58.0942 85.4991Z" stroke="#525355" stroke-width="0.23166"/>
<path d="M47.9251 75.0264L47.9278 75.3111L48.1246 75.1053L48.5644 74.6451C48.9142 74.2791 49.4857 74.2734 49.8427 74.6325C50.2009 74.9928 50.2069 75.5847 49.8556 75.9519L47.6902 78.2178L47.6887 78.2193C47.3578 78.5796 46.7518 78.5856 46.4137 78.2319L46.4122 78.2301L44.2042 76.0095C43.7869 75.5565 43.8823 75.0192 44.1943 74.6928C44.3509 74.529 44.5594 74.4222 44.7811 74.4069C45.0001 74.3916 45.241 74.4648 45.4693 74.6772L45.9166 75.1272L46.1173 75.3288L46.1146 75.0441L46.0936 72.9384C46.1278 71.7018 47.8453 71.6847 47.9044 72.9204L47.9251 75.0264Z" fill="#525355" stroke="#525355" stroke-width="0.23166"/>
<path d="M47.0846 43.8545H44.9561V46.1783H47.0846V43.8545Z" fill="white"/>
<path d="M63.2506 57.8533V63.0094H58.9927V59.2333L57.1963 59.4511V63.0094V64.825H58.9927H63.2506H65.0467V63.0094V56.9092L63.2506 57.8533Z" fill="white"/>
<path d="M68.2399 46.1616H55.1338V44.2734H69.0382L68.2399 46.1616Z" fill="white"/>
<path d="M49.6806 46.1616H47.0859V48.9939H49.6806V46.1616Z" fill="white"/>
<path d="M53.0714 42.4746H49.6787V46.1781H53.0714V42.4746Z" fill="white"/>
<path d="M52.5765 54.8764C52.5465 57.2731 54.756 57.1357 54.756 57.1357C54.756 57.1357 54.102 56.3632 54.0027 55.8205C53.8695 55.0942 53.8695 54.2956 54.8676 52.4074C55.1505 51.8722 55.3839 51.4714 55.5708 51.1729H53.7366C53.2482 52.0015 52.5942 53.3821 52.5765 54.8764Z" fill="white"/>
<path d="M71.1158 44.6957C70.9868 44.4317 70.7951 44.2103 70.5611 44.0543C70.3271 43.8983 70.0592 43.814 69.785 43.8098C69.785 43.8098 71.1017 46.1924 69.0395 48.827C68.8985 49.0079 68.762 49.1834 68.6288 49.3565H63.2516V54.5648C62.8277 54.8195 62.3645 55.0766 61.8545 55.3391C60.6419 55.9598 59.7614 56.4506 58.9937 56.8277V49.3565H52.9397V47.9765H51.1436V51.1718H57.1973V57.4175H57.5918C56.3771 57.8189 55.0781 57.92 52.6079 57.7994C52.6079 57.7994 54.5369 59.0912 57.1982 58.5446C59.8592 57.9974 63.0266 57.4553 65.7011 55.0754C68.3756 52.6955 70.0109 50.8589 70.8557 48.7277C71.7005 46.5962 71.5961 45.6266 71.1158 44.6957ZM65.0477 53.3237V51.1718H67.2053C66.5561 51.9686 65.8331 52.6895 65.0477 53.3237Z" fill="white"/>
<path d="M43.8233 100.182C43.7978 100.189 43.7723 100.182 43.7492 100.168L41.4905 98.7383C41.4674 98.7245 41.4488 98.729 41.435 98.75L40.7585 99.818C40.7447 99.8411 40.7468 99.8597 40.7702 99.8735L42.2504 100.812C42.2735 100.826 42.2876 100.846 42.2945 100.872C42.3014 100.897 42.2945 100.923 42.2804 100.946L41.8565 101.613C41.8427 101.636 41.8217 101.65 41.7965 101.657C41.771 101.664 41.7455 101.657 41.7221 101.644L40.2419 100.705C40.2188 100.691 40.2002 100.696 40.1864 100.717L39.4799 101.833C39.4658 101.857 39.4706 101.875 39.4913 101.889L41.75 103.318C41.7731 103.332 41.7872 103.353 41.7941 103.378C41.7986 103.404 41.7941 103.429 41.78 103.453L41.3561 104.12C41.3423 104.143 41.3216 104.157 41.2961 104.164C41.2706 104.171 41.2451 104.164 41.2217 104.15L38.0387 102.135C38.0156 102.121 38.0018 102.1 37.9949 102.074C37.988 102.049 37.9949 102.023 38.0087 102L40.9553 97.3439C40.9694 97.3205 40.9901 97.3067 41.0156 97.2998C41.0411 97.2929 41.0666 97.2998 41.0897 97.3136L44.2727 99.3269C44.2961 99.3407 44.3099 99.3614 44.3168 99.3869C44.3216 99.4124 44.3168 99.4379 44.303 99.461L43.8791 100.128C43.865 100.152 43.8443 100.165 43.8188 100.172L43.8233 100.182Z" fill="white"/>
<path d="M48.8818 101.417L49.7623 101.785C49.7875 101.794 49.804 101.813 49.8154 101.838C49.8247 101.864 49.8247 101.887 49.8154 101.912L47.6935 106.997C47.6842 107.023 47.6656 107.039 47.6401 107.051C47.6146 107.06 47.5915 107.06 47.566 107.051L46.6858 106.682C46.6603 106.673 46.6441 106.655 46.6324 106.629C46.6231 106.604 46.6231 106.58 46.6324 106.555L48.0178 103.238C48.0271 103.217 48.0247 103.205 48.0154 103.2C48.0061 103.196 47.9923 103.2 47.9761 103.21L46.6579 104.125C46.6162 104.155 46.5721 104.159 46.5283 104.141L46.0834 103.956C46.0372 103.937 46.0117 103.902 46.0024 103.851L45.7267 102.269C45.7219 102.251 45.715 102.239 45.7036 102.237C45.6919 102.237 45.6826 102.244 45.6733 102.265L44.2927 105.575C44.281 105.6 44.2648 105.617 44.2393 105.628C44.2138 105.638 44.1907 105.638 44.1652 105.628L43.285 105.26C43.2595 105.248 43.2433 105.232 43.2316 105.207C43.2223 105.181 43.2223 105.158 43.2316 105.133L45.3538 100.048C45.3628 100.022 45.3814 100.006 45.4069 99.9943C45.4324 99.985 45.4579 99.985 45.481 99.9943L46.3615 100.363C46.4053 100.381 46.4332 100.416 46.4425 100.467L46.8385 102.691C46.8409 102.728 46.8571 102.733 46.8826 102.709L48.7498 101.431C48.7915 101.4 48.8356 101.396 48.8794 101.414L48.8818 101.417Z" fill="white"/>
<path d="M49.806 107.66C49.7922 107.637 49.7898 107.611 49.7967 107.586L51.2262 102.265C51.2331 102.239 51.2493 102.218 51.2724 102.204C51.2955 102.19 51.321 102.188 51.3465 102.195L52.2687 102.443C52.2942 102.45 52.3149 102.466 52.3287 102.489C52.3428 102.512 52.3449 102.538 52.338 102.563L50.9088 107.884C50.9019 107.91 50.8857 107.931 50.8623 107.945C50.8392 107.959 50.8137 107.961 50.7882 107.954L49.8663 107.706C49.8408 107.699 49.8198 107.683 49.806 107.66Z" fill="white"/>
<path d="M53.8053 108.469C53.5017 108.286 53.2818 108.054 53.1426 107.771C53.0037 107.491 52.9596 107.18 53.0085 106.842L53.034 106.664C53.0385 106.636 53.0502 106.615 53.0733 106.599C53.094 106.583 53.1195 106.576 53.145 106.58L54.0648 106.712C54.0924 106.717 54.1134 106.729 54.1296 106.752C54.1458 106.773 54.1506 106.798 54.1482 106.824L54.132 106.944C54.1017 107.16 54.1737 107.354 54.3519 107.533C54.5304 107.709 54.7875 107.822 55.1256 107.871C55.4106 107.912 55.6332 107.882 55.7907 107.78C55.9482 107.679 56.0385 107.54 56.064 107.363C56.0826 107.234 56.0547 107.12 55.983 107.018C55.9089 106.916 55.8045 106.821 55.6656 106.733C55.5264 106.646 55.3041 106.518 54.9984 106.354C54.6555 106.178 54.3681 106.008 54.1365 105.842C53.9049 105.677 53.7195 105.471 53.583 105.223C53.4462 104.975 53.4 104.688 53.4486 104.359C53.4948 104.037 53.6199 103.766 53.8215 103.548C54.0231 103.33 54.2802 103.178 54.5952 103.092C54.9102 103.006 55.26 102.99 55.647 103.046C56.0547 103.103 56.409 103.229 56.7081 103.421C57.0069 103.613 57.2268 103.852 57.3705 104.139C57.5142 104.426 57.5604 104.741 57.5094 105.086L57.4932 105.207C57.4887 105.235 57.477 105.255 57.4539 105.272C57.4332 105.288 57.4077 105.295 57.3822 105.29L56.4531 105.156C56.4255 105.151 56.4045 105.14 56.3883 105.116C56.3721 105.093 56.3652 105.07 56.3697 105.045L56.379 104.98C56.4114 104.755 56.3466 104.549 56.1843 104.363C56.0223 104.178 55.779 104.062 55.4571 104.016C55.2045 103.979 54.9984 104.004 54.8409 104.093C54.6834 104.18 54.5907 104.317 54.5628 104.505C54.5442 104.639 54.5697 104.757 54.6393 104.862C54.7089 104.966 54.8223 105.065 54.9753 105.161C55.128 105.258 55.3689 105.392 55.6956 105.566C56.0571 105.761 56.3397 105.927 56.5413 106.066C56.7426 106.205 56.9166 106.393 57.0624 106.631C57.2061 106.87 57.2547 107.157 57.2061 107.496C57.132 108.001 56.8887 108.374 56.4762 108.614C56.0616 108.855 55.5381 108.927 54.9033 108.837C54.4725 108.774 54.1065 108.652 53.8029 108.469H53.8053Z" fill="white"/>
<path d="M59.8862 109.036C59.5571 108.902 59.3045 108.707 59.1239 108.45C58.9433 108.195 58.8506 107.894 58.8461 107.554V107.375C58.8437 107.347 58.853 107.324 58.8713 107.306C58.8899 107.287 58.913 107.278 58.9409 107.276L59.87 107.264C59.8976 107.264 59.921 107.273 59.9393 107.292C59.9579 107.31 59.9696 107.334 59.9696 107.361V107.484C59.9741 107.702 60.0761 107.883 60.2798 108.031C60.4838 108.177 60.7547 108.249 61.0976 108.244C61.385 108.239 61.6004 108.177 61.7393 108.052C61.8785 107.926 61.9478 107.776 61.9457 107.598C61.9457 107.468 61.8992 107.357 61.8113 107.269C61.7231 107.181 61.6028 107.102 61.4543 107.037C61.304 106.972 61.0652 106.882 60.7385 106.766C60.3725 106.645 60.0623 106.523 59.8073 106.395C59.5526 106.268 59.3393 106.094 59.1656 105.869C58.9919 105.647 58.9016 105.369 58.8968 105.038C58.8923 104.711 58.9733 104.426 59.1377 104.178C59.3024 103.93 59.534 103.741 59.8304 103.606C60.1271 103.472 60.4721 103.402 60.8636 103.398C61.2761 103.393 61.6466 103.46 61.9709 103.604C62.2955 103.747 62.5526 103.949 62.7377 104.209C62.9231 104.47 63.0182 104.774 63.0227 105.121V105.244C63.0227 105.272 63.0158 105.295 62.9972 105.313C62.9789 105.332 62.9555 105.343 62.9279 105.343L61.9895 105.355C61.9619 105.355 61.9385 105.346 61.9202 105.327C61.9016 105.309 61.8899 105.286 61.8899 105.258V105.193C61.8854 104.966 61.7903 104.771 61.6004 104.614C61.4105 104.456 61.1534 104.38 60.8267 104.385C60.5717 104.387 60.3725 104.445 60.2291 104.556C60.0854 104.667 60.0158 104.818 60.0182 105.008C60.0182 105.144 60.0644 105.258 60.1502 105.348C60.236 105.439 60.3611 105.52 60.5279 105.592C60.6947 105.663 60.9518 105.758 61.3016 105.879C61.6883 106.015 61.9943 106.136 62.2166 106.243C62.4389 106.349 62.6381 106.507 62.819 106.72C62.9972 106.933 63.0899 107.209 63.0947 107.551C63.1016 108.063 62.9186 108.469 62.5478 108.77C62.1773 109.071 61.67 109.226 61.0304 109.233C60.5951 109.24 60.215 109.175 59.8862 109.041V109.036Z" fill="white"/>
<path d="M65.0701 108.876C65.0494 108.86 65.0377 108.839 65.0332 108.811L64.3219 103.346C64.3195 103.319 64.3243 103.295 64.3405 103.274C64.3567 103.254 64.3777 103.24 64.4053 103.237L65.3506 103.114C65.3782 103.112 65.4016 103.117 65.4223 103.133C65.4433 103.149 65.4571 103.17 65.4595 103.198L66.1705 108.663C66.1753 108.691 66.1684 108.714 66.1522 108.735C66.136 108.755 66.1126 108.769 66.0871 108.772L65.1421 108.895C65.1142 108.899 65.0911 108.892 65.0701 108.876Z" fill="white"/>
<path d="M69.1637 108.049C68.807 107.961 68.5034 107.787 68.2532 107.528C68.003 107.269 67.8248 106.944 67.7252 106.548L67.292 104.857C67.1924 104.468 67.19 104.099 67.2872 103.757C67.3847 103.412 67.5677 103.117 67.8386 102.872C68.1098 102.626 68.4503 102.45 68.8601 102.346C69.2771 102.239 69.6617 102.23 70.0184 102.316C70.3754 102.401 70.6766 102.573 70.9289 102.828C71.1815 103.082 71.3552 103.407 71.4548 103.796L71.888 105.487C71.99 105.881 71.9924 106.254 71.8973 106.604C71.8022 106.954 71.6192 107.252 71.3483 107.498C71.0771 107.744 70.7345 107.92 70.3175 108.026C69.9074 108.13 69.5228 108.14 69.1661 108.052L69.1637 108.049ZM70.7018 106.613C70.8341 106.384 70.8617 106.115 70.7831 105.809L70.3382 104.072C70.2596 103.766 70.109 103.544 69.8843 103.4C69.6596 103.259 69.4001 103.224 69.1058 103.3C68.8163 103.374 68.6078 103.527 68.4779 103.759C68.3483 103.991 68.3252 104.259 68.4017 104.565L68.8463 106.303C68.9252 106.608 69.0758 106.831 69.2981 106.97C69.5228 107.109 69.7775 107.141 70.0673 107.067C70.3568 106.993 70.5677 106.84 70.6997 106.611L70.7018 106.613Z" fill="white"/>
<path d="M75.1862 100.15C75.1955 100.124 75.2141 100.106 75.2372 100.096L76.1081 99.7095C76.1336 99.6981 76.157 99.6981 76.1822 99.7095C76.2077 99.7188 76.2263 99.7374 76.2356 99.7605L78.4781 104.794C78.4898 104.82 78.4898 104.843 78.4781 104.869C78.4688 104.894 78.4502 104.913 78.4271 104.922L77.5862 105.297C77.5376 105.32 77.4935 105.316 77.4542 105.283L74.1068 102.955C74.0906 102.943 74.0765 102.943 74.0696 102.95C74.0603 102.958 74.0603 102.971 74.0696 102.99L75.485 106.126C75.4967 106.152 75.4967 106.175 75.485 106.201C75.4757 106.226 75.4574 106.245 75.434 106.254L74.5631 106.643C74.5376 106.655 74.5145 106.655 74.489 106.643C74.4635 106.634 74.4449 106.615 74.4356 106.592L72.1931 101.558C72.1817 101.533 72.1817 101.509 72.1931 101.484C72.2048 101.459 72.221 101.44 72.2441 101.431L73.085 101.056C73.1336 101.032 73.1777 101.037 73.2149 101.069L76.5485 103.386C76.5647 103.395 76.5785 103.398 76.5878 103.391C76.5971 103.384 76.5971 103.37 76.5878 103.351L75.1886 100.226C75.1769 100.201 75.1769 100.177 75.1886 100.152L75.1862 100.15Z" fill="white"/>
<path d="M81.1396 103.178C80.7922 103.243 80.4724 103.215 80.1829 103.097C79.8934 102.978 79.6546 102.777 79.4647 102.492L79.3651 102.341C79.3489 102.318 79.3444 102.295 79.3513 102.267C79.3558 102.242 79.3696 102.221 79.393 102.205L80.1691 101.693C80.1922 101.679 80.2153 101.674 80.2432 101.679C80.2708 101.684 80.2894 101.697 80.3056 101.72L80.3728 101.822C80.4934 102.003 80.6785 102.103 80.9287 102.114C81.1789 102.128 81.4477 102.04 81.7327 101.852C81.9736 101.693 82.1173 101.524 82.1683 101.345C82.2193 101.165 82.1938 101 82.0963 100.852C82.0246 100.743 81.9274 100.676 81.8044 100.648C81.6817 100.62 81.5404 100.62 81.3781 100.648C81.2161 100.673 80.9659 100.727 80.6275 100.808C80.2546 100.905 79.9279 100.968 79.6432 100.998C79.3606 101.028 79.0849 100.998 78.8185 100.903C78.5521 100.808 78.3274 100.625 78.142 100.347C77.9611 100.076 77.8756 99.7908 77.8801 99.4941C77.8849 99.1977 77.9776 98.9127 78.1558 98.6394C78.3343 98.3661 78.5845 98.1204 78.9109 97.905C79.2562 97.6779 79.6036 97.5345 79.9534 97.4787C80.3032 97.4232 80.6275 97.4556 80.9266 97.5738C81.223 97.6941 81.4687 97.8981 81.661 98.1876L81.7279 98.2896C81.7444 98.3127 81.7489 98.3382 81.742 98.3637C81.7351 98.3892 81.7234 98.4102 81.7003 98.4264L80.9173 98.943C80.8942 98.9568 80.8708 98.9637 80.8432 98.9568C80.8177 98.9523 80.7967 98.9382 80.7805 98.9151L80.7436 98.8617C80.6185 98.6718 80.4331 98.5608 80.1874 98.5305C79.942 98.5005 79.6849 98.5746 79.4113 98.7552C79.1983 98.8965 79.0615 99.0519 79.0015 99.2208C78.9412 99.39 78.9643 99.5544 79.0687 99.7143C79.1428 99.8277 79.2424 99.8997 79.3627 99.9297C79.4833 99.96 79.6339 99.96 79.8121 99.9297C79.9906 99.8997 80.2594 99.8418 80.6185 99.7536C81.0193 99.6588 81.3412 99.5961 81.5845 99.5661C81.8275 99.5358 82.0825 99.5613 82.3489 99.6426C82.6153 99.7236 82.8424 99.909 83.0299 100.194C83.3125 100.62 83.3776 101.06 83.2291 101.514C83.0785 101.969 82.738 102.371 82.2028 102.726C81.8392 102.967 81.4849 103.118 81.1372 103.182L81.1396 103.178Z" fill="white"/>
<path d="M17.4248 17.5913C6.24303 28.8055 -0.00363354 44.025 0.0590612 59.9007C0.121755 75.777 6.48867 91.0092 17.7592 102.247C29.0297 113.485 44.2803 119.808 60.1566 119.825C76.0329 119.841 91.2336 113.551 102.416 102.336L59.9202 59.9637L17.4248 17.5913Z" fill="#525355" fill-opacity="0.1"/>
</g>
<defs>
<clipPath id="clip0_1012_7821">
<rect width="120" height="120" fill="white"/>
</clipPath>
</defs>
</svg>
