<?xml version="1.0" encoding="UTF-8"?>
<svg xmlns="http://www.w3.org/2000/svg" xmlns:xlink="http://www.w3.org/1999/xlink" width="120px" height="115px" viewBox="0 0 120 115" version="1.1">
<g id="surface1">
<path style=" stroke:none;fill-rule:nonzero;fill:rgb(95.294118%,83.529412%,35.686275%);fill-opacity:1;" d="M 122.914062 1.960938 C 122.09375 1.074219 120.964844 0.574219 119.792969 0.582031 L 0.210938 0.582031 C -0.964844 0.574219 -2.089844 1.074219 -2.910156 1.960938 C -3.75 2.824219 -4.222656 4.011719 -4.21875 5.253906 L -4.21875 103.332031 C -4.222656 104.570312 -3.75 105.757812 -2.910156 106.625 C -2.089844 107.511719 -0.964844 108.007812 0.210938 108.003906 L 117.578125 108.003906 C 121.246094 108.003906 124.21875 104.867188 124.21875 100.996094 L 124.21875 5.253906 C 124.226562 4.011719 123.753906 2.824219 122.914062 1.960938 Z M 122.914062 1.960938 "/>
<path style=" stroke:none;fill-rule:nonzero;fill:rgb(94.117647%,76.862745%,9.803922%);fill-opacity:1;" d="M 124.21875 5.253906 L 124.21875 100.996094 C 124.21875 102.855469 123.515625 104.636719 122.269531 105.945312 L 113.144531 96.324219 L 113.144531 12.257812 L 122.910156 1.960938 C 123.753906 2.824219 124.226562 4.011719 124.21875 5.253906 Z M 124.21875 5.253906 "/>
<path style=" stroke:none;fill-rule:nonzero;fill:rgb(94.117647%,76.862745%,9.803922%);fill-opacity:1;" d="M 6.851562 12.257812 L 6.851562 96.324219 L -2.914062 106.625 C -3.753906 105.757812 -4.226562 104.570312 -4.21875 103.332031 L -4.21875 5.253906 C -4.226562 4.011719 -3.753906 2.824219 -2.914062 1.960938 Z M 6.851562 12.257812 "/>
<path style=" stroke:none;fill-rule:nonzero;fill:rgb(94.901961%,61.176471%,12.156863%);fill-opacity:1;" d="M 122.269531 105.945312 C 121.027344 107.261719 119.335938 108.003906 117.574219 108.003906 L 0.210938 108.003906 C -0.964844 108.007812 -2.089844 107.511719 -2.910156 106.625 L 6.855469 96.324219 L 113.148438 96.324219 Z M 122.269531 105.945312 "/>
<path style=" stroke:none;fill-rule:nonzero;fill:rgb(92.54902%,94.117647%,94.509804%);fill-opacity:1;" d="M 6.855469 12.257812 L 113.148438 12.257812 L 113.148438 96.324219 L 6.855469 96.324219 Z M 6.855469 12.257812 "/>
<path style=" stroke:none;fill-rule:nonzero;fill:rgb(100%,100%,100%);fill-opacity:1;" d="M 113.148438 12.257812 C 113.148438 12.257812 6.855469 12.257812 6.855469 96.324219 L 6.855469 12.257812 Z M 113.148438 12.257812 "/>
<path style=" stroke:none;fill-rule:nonzero;fill:rgb(74.117647%,76.470588%,78.039216%);fill-opacity:1;" d="M 75.5 28.605469 L 44.5 28.605469 C 43.273438 28.605469 42.285156 27.558594 42.285156 26.269531 C 42.285156 24.980469 43.273438 23.933594 44.5 23.933594 L 75.5 23.933594 C 76.722656 23.933594 77.714844 24.980469 77.714844 26.269531 C 77.714844 27.558594 76.722656 28.605469 75.5 28.605469 Z M 75.5 28.605469 "/>
<path style=" stroke:none;fill-rule:nonzero;fill:rgb(58.431373%,64.705882%,64.705882%);fill-opacity:1;" d="M 53.355469 79.980469 L 22.355469 79.980469 C 21.132812 79.980469 20.140625 78.933594 20.140625 77.644531 C 20.140625 76.355469 21.132812 75.308594 22.355469 75.308594 L 53.355469 75.308594 C 54.578125 75.308594 55.570312 76.355469 55.570312 77.644531 C 55.570312 78.933594 54.578125 79.980469 53.355469 79.980469 Z M 53.355469 79.980469 "/>
<path style=" stroke:none;fill-rule:nonzero;fill:rgb(74.117647%,76.470588%,78.039216%);fill-opacity:1;" d="M 82.144531 40.28125 L 37.855469 40.28125 C 36.632812 40.28125 35.640625 39.234375 35.640625 37.945312 C 35.640625 36.65625 36.632812 35.609375 37.855469 35.609375 L 82.144531 35.609375 C 83.367188 35.609375 84.359375 36.65625 84.359375 37.945312 C 84.359375 39.234375 83.367188 40.28125 82.144531 40.28125 Z M 82.144531 40.28125 "/>
<path style=" stroke:none;fill-rule:nonzero;fill:rgb(57.254902%,81.568627%,31.372549%);fill-opacity:1;" d="M 73.285156 87.917969 L 73.285156 118.230469 C 73.28125 119.042969 73.679688 119.800781 74.332031 120.230469 C 74.988281 120.660156 75.808594 120.699219 76.496094 120.332031 L 82.253906 117.273438 C 82.882812 116.945312 83.621094 116.945312 84.25 117.273438 L 90.003906 120.332031 C 90.695312 120.699219 91.515625 120.660156 92.171875 120.230469 C 92.824219 119.800781 93.222656 119.042969 93.214844 118.230469 L 93.214844 87.917969 Z M 73.285156 87.917969 "/>
<path style=" stroke:none;fill-rule:nonzero;fill:rgb(58.431373%,64.705882%,64.705882%);fill-opacity:1;" d="M 53.355469 70.636719 C 47.933594 70.640625 42.605469 69.164062 37.878906 66.355469 C 33.148438 69.1875 27.796875 70.664062 22.355469 70.636719 C 21.132812 70.636719 20.140625 69.59375 20.140625 68.304688 C 20.140625 67.015625 21.132812 65.96875 22.355469 65.96875 C 26.324219 65.988281 30.246094 65.078125 33.84375 63.304688 C 31.546875 61.445312 30.074219 58.671875 29.78125 55.632812 C 29.78125 54.230469 30.363281 49.621094 37.855469 49.621094 C 45.347656 49.621094 45.933594 54.222656 45.933594 55.632812 C 45.636719 58.675781 44.167969 61.453125 41.871094 63.316406 C 45.46875 65.082031 49.390625 65.988281 53.355469 65.96875 C 54.578125 65.96875 55.570312 67.015625 55.570312 68.304688 C 55.570312 69.59375 54.578125 70.636719 53.355469 70.636719 Z M 37.855469 54.292969 C 36.171875 54.292969 34.207031 54.640625 34.207031 55.632812 C 34.207031 56.621094 35.203125 58.617188 37.839844 60.757812 C 40.195312 58.855469 41.503906 56.867188 41.503906 55.632812 C 41.503906 54.640625 39.539062 54.292969 37.855469 54.292969 Z M 37.855469 54.292969 "/>
<path style=" stroke:none;fill-rule:nonzero;fill:rgb(82.745098%,92.54902%,72.54902%);fill-opacity:1;" d="M 104.289062 71.804688 C 104.289062 74.5 99.519531 76.167969 98.601562 78.511719 C 97.644531 80.9375 99.859375 85.664062 98.125 87.496094 C 96.390625 89.324219 91.90625 86.988281 89.609375 87.992188 C 87.386719 88.964844 85.804688 93.992188 83.25 93.992188 C 80.699219 93.992188 79.113281 88.964844 76.894531 87.992188 C 74.59375 86.984375 70.109375 89.320312 68.375 87.492188 C 66.640625 85.664062 68.855469 80.933594 67.902344 78.511719 C 66.980469 76.167969 62.214844 74.5 62.214844 71.804688 C 62.214844 69.113281 66.980469 67.445312 67.902344 65.101562 C 68.859375 62.675781 66.644531 57.945312 68.378906 56.117188 C 70.109375 54.289062 74.59375 56.625 76.894531 55.621094 C 79.109375 54.648438 80.699219 49.621094 83.25 49.621094 C 85.804688 49.621094 87.386719 54.648438 89.609375 55.621094 C 91.910156 56.628906 96.394531 54.292969 98.128906 56.121094 C 99.863281 57.949219 97.648438 62.679688 98.601562 65.101562 C 99.519531 67.445312 104.289062 69.113281 104.289062 71.804688 Z M 104.289062 71.804688 "/>
<path style=" stroke:none;fill-rule:nonzero;fill:rgb(57.254902%,81.568627%,31.372549%);fill-opacity:1;" d="M 83.25 79.980469 C 87.53125 79.980469 91 76.320312 91 71.804688 C 91 67.292969 87.53125 63.632812 83.25 63.632812 C 78.96875 63.632812 75.5 67.292969 75.5 71.804688 C 75.5 76.320312 78.96875 79.980469 83.25 79.980469 Z M 83.25 79.980469 "/>
</g>
</svg>
