<svg width="120" height="120" viewBox="0 0 120 120" fill="none" xmlns="http://www.w3.org/2000/svg">
<g clip-path="url(#clip0_1012_7862)">
<path d="M59.9994 119.305C92.7525 119.305 119.304 92.7534 119.304 60C119.304 27.2468 92.7525 0.695068 59.9994 0.695068C27.2461 0.695068 0.694336 27.2468 0.694336 60C0.694336 92.7534 27.2461 119.305 59.9994 119.305Z" fill="#7FA54F" stroke="#9FCE63" stroke-width="1.38996" stroke-miterlimit="10"/>
<g opacity="0.8">
<path d="M61.0236 116.517C30.1272 117.023 4.67696 92.2785 4.17575 61.2597C4.16411 60.4581 4.16702 59.6652 4.18739 58.8753C4.34186 52.7979 5.4608 46.9548 7.39856 41.4948C9.70931 34.9845 13.1857 29.0185 17.5798 23.8599C21.5661 19.1724 26.3129 15.1492 31.6308 11.9862C31.7094 11.9393 31.7913 11.8925 31.8696 11.8457C38.2368 8.09751 45.4167 5.57532 53.0892 4.60974C55.0968 4.35519 57.1365 4.21182 59.2083 4.17669C59.9658 4.16499 60.7266 4.16793 61.4781 4.18548C72.9036 4.45758 83.5074 8.17947 92.2698 14.3767C102.41 21.5337 110.085 32.0031 113.725 44.2482C115.109 48.8946 115.907 53.8014 116.041 58.8753C116.047 59.0625 116.05 59.247 116.053 59.4342C116.557 90.4584 91.9143 116.014 61.0236 116.517Z" fill="#A1E161"/>
</g>
<path d="M59.7669 98.9187C81.3891 98.9187 98.9175 81.3906 98.9175 59.7684C98.9175 38.1459 81.3891 20.6177 59.7669 20.6177C38.1447 20.6177 20.6162 38.1459 20.6162 59.7684C20.6162 81.3906 38.1447 98.9187 59.7669 98.9187Z" fill="#7FA54F"/>
<path opacity="0.8" d="M59.7678 96.834C80.2386 96.834 96.8334 80.2908 96.8334 59.8842C96.8334 39.4773 80.2386 22.9343 59.7678 22.9343C39.297 22.9343 22.7021 39.4773 22.7021 59.8842C22.7021 80.2908 39.297 96.834 59.7678 96.834Z" fill="#A1E161"/>
<path d="M17.6649 92.3904C17.3433 92.6364 16.8826 92.5752 16.641 92.2503C9.98336 83.2998 6.2552 72.5022 5.97851 61.3389C5.70182 50.175 8.89052 39.2061 15.0965 29.9368C15.3218 29.6005 15.7789 29.5166 16.1122 29.7464C16.4456 29.9762 16.529 30.4326 16.3039 30.7692C10.2735 39.7836 7.1753 50.4483 7.44434 61.3026C7.71332 72.1563 11.3361 82.6548 17.8056 91.3593C18.0472 91.6842 17.9865 92.1444 17.6649 92.3904Z" fill="#7FA54F"/>
<path d="M27.6077 17.6653C27.3617 17.3437 27.4229 16.883 27.7477 16.6413C36.6984 9.98376 47.4957 6.25557 58.6593 5.97888C69.8229 5.70219 80.7918 8.89089 90.0612 15.0969C90.3975 15.3221 90.4815 15.7792 90.2517 16.1126C90.0219 16.446 89.5656 16.5294 89.229 16.3042C80.2146 10.2739 69.5499 7.17567 58.6956 7.44471C47.8416 7.71372 37.3434 11.3365 28.6386 17.806C28.3138 18.0475 27.8538 17.9868 27.6077 17.6653Z" fill="#7FA54F"/>
<path d="M102.335 27.6099C102.657 27.3639 103.118 27.4251 103.359 27.7499C110.017 36.7005 113.745 47.4981 114.022 58.6614C114.298 69.825 111.11 80.7939 104.904 90.0636C104.678 90.3999 104.221 90.4836 103.888 90.2538C103.554 90.024 103.471 89.5677 103.696 89.2311C109.727 80.2167 112.825 69.552 112.556 58.6977C112.287 47.8437 108.664 37.3455 102.194 28.6408C101.953 28.316 102.014 27.856 102.335 27.6099Z" fill="#7FA54F"/>
<path d="M92.3895 102.335C92.6355 102.657 92.5746 103.117 92.2497 103.359C83.2992 110.017 72.5016 113.745 61.338 114.022C50.1744 114.298 39.2055 111.11 29.9361 104.903C29.5997 104.678 29.5159 104.221 29.7457 103.888C29.9755 103.554 30.4317 103.471 30.7683 103.696C39.7827 109.727 50.4474 112.825 61.3017 112.556C72.1557 112.287 82.6542 108.664 91.3587 102.194C91.6836 101.953 92.1435 102.014 92.3895 102.335Z" fill="#7FA54F"/>
<path d="M44.0292 19.2388C43.6722 19.1922 43.3584 19.0573 43.0956 18.8364C42.8301 18.6155 42.6315 18.3201 42.4974 17.9502L41.8572 16.1793C41.7255 15.8116 41.6886 15.4574 41.7516 15.1165C41.8146 14.7756 41.9679 14.4759 42.2145 14.2127C42.4608 13.9495 42.7839 13.7462 43.1817 13.6026C43.5747 13.4614 43.9473 13.4083 44.2998 13.4457C44.652 13.4831 44.9586 13.6064 45.2214 13.8158C45.4845 14.0251 45.6807 14.3043 45.8079 14.658C45.8241 14.7043 45.8037 14.7438 45.7458 14.7765L44.8677 15.1545L44.8515 15.1592C44.8008 15.178 44.7657 15.1597 44.7447 15.1019C44.6457 14.8314 44.4849 14.6446 44.2596 14.5393C44.0343 14.4364 43.7862 14.4332 43.5159 14.532C43.2408 14.6308 43.047 14.7941 42.942 15.0171C42.8343 15.2401 42.831 15.488 42.9276 15.7585L43.5936 17.6057C43.6899 17.8716 43.851 18.056 44.076 18.159C44.3016 18.262 44.5518 18.2652 44.8293 18.164C45.0996 18.0652 45.2886 17.9066 45.3963 17.6813C45.504 17.4582 45.5094 17.2126 45.4131 16.9468C45.3918 16.8913 45.4125 16.8518 45.4749 16.8283L46.386 16.5428C46.4115 16.5334 46.437 16.5333 46.4601 16.5424C46.4832 16.5515 46.4997 16.5653 46.5066 16.5862C46.6338 16.9399 46.6635 17.2802 46.596 17.6119C46.5282 17.9436 46.3701 18.2364 46.1262 18.4926C45.8796 18.7488 45.561 18.9475 45.168 19.0911C44.7705 19.2346 44.3907 19.2831 44.0337 19.2365L44.0292 19.2388Z" fill="#F5FAEF"/>
<path d="M51.7666 17.1721L51.3661 16.44C51.3523 16.4215 51.3358 16.4124 51.3196 16.4171L49.3552 16.8244C49.339 16.8268 49.3276 16.8407 49.3231 16.8639L49.2538 17.6937C49.2493 17.7493 49.2193 17.7842 49.1662 17.7961L48.1528 18.0057C48.1201 18.0128 48.0946 18.006 48.0763 17.9922C48.055 17.9761 48.0481 17.9507 48.0502 17.9113L48.6571 12.158C48.6613 12.1023 48.6913 12.0674 48.7444 12.0555L49.9984 11.7959C50.0518 11.7863 50.0914 11.8047 50.1193 11.8531L52.9627 16.892C52.9627 16.892 52.9768 16.915 52.9792 16.9312C52.9885 16.9798 52.9657 17.0101 52.9054 17.022L51.892 17.2316C51.8389 17.2412 51.7993 17.2229 51.7711 17.1721L51.7666 17.1721ZM49.4545 15.8948L50.8588 15.6042C50.8912 15.5971 50.8981 15.5785 50.8816 15.5508L49.6714 13.3291C49.6618 13.3083 49.6528 13.3014 49.6411 13.3061C49.6318 13.3108 49.6252 13.3224 49.6228 13.3386L49.4125 15.8557C49.4125 15.8881 49.4266 15.9019 49.4545 15.8971V15.8948Z" fill="#F5FAEF"/>
<path d="M57.2431 16.6271L56.0956 14.4328C56.0839 14.412 56.0674 14.4028 56.0443 14.4029L55.2871 14.4466C55.2592 14.4467 55.2478 14.463 55.2481 14.4885L55.3765 16.7094C55.3765 16.7372 55.3696 16.7605 55.3513 16.7814C55.3327 16.8024 55.312 16.8118 55.2841 16.8142L54.3325 16.8683C54.3046 16.8684 54.2812 16.8616 54.2605 16.8432C54.2395 16.8247 54.2302 16.8017 54.2275 16.7762L53.9092 11.2736C53.9092 11.2459 53.9161 11.2227 53.9344 11.2017C53.9527 11.1807 53.9734 11.1713 54.0013 11.1689L56.3287 11.0353C56.6761 11.0147 56.9845 11.0686 57.2563 11.1945C57.5281 11.3203 57.7423 11.5091 57.9013 11.7607C58.0603 12.0123 58.1497 12.3107 58.1704 12.6511C58.1911 13.0193 58.1188 13.3417 57.9487 13.6161C57.7789 13.8904 57.5323 14.091 57.2086 14.218C57.1807 14.2297 57.1741 14.2506 57.1879 14.276L58.4284 16.5161C58.4404 16.5369 58.4473 16.5531 58.4473 16.5646C58.4476 16.6087 58.4224 16.632 58.3621 16.6346L57.3616 16.6936C57.3085 16.6962 57.2689 16.6756 57.2431 16.6271ZM55.1119 12.1356L55.1914 13.5274C55.1917 13.5552 55.2079 13.5667 55.2334 13.5666L56.299 13.5049C56.5258 13.4921 56.7082 13.4146 56.8441 13.2702C56.98 13.1258 57.0415 12.9471 57.0289 12.7294C57.0157 12.5117 56.9338 12.3384 56.7826 12.2095C56.6314 12.0807 56.4409 12.0215 56.2141 12.0343L55.1488 12.096C55.1209 12.0961 55.1092 12.1124 55.1095 12.1379L55.1119 12.1356Z" fill="#F5FAEF"/>
<path d="M63.3941 14.0299C63.887 14.3376 64.1072 14.8019 64.0529 15.4185C64.0094 15.9446 63.7961 16.3257 63.4154 16.5642C63.0344 16.8027 62.5553 16.8957 61.976 16.848L59.8712 16.6699C59.8436 16.6678 59.8226 16.6563 59.804 16.6356C59.7878 16.6148 59.7782 16.5917 59.7806 16.5639L60.2429 11.0732C60.245 11.0454 60.2564 11.0245 60.2771 11.0058C60.2978 10.9895 60.3209 10.9801 60.3488 10.9822L62.3885 11.1537C63.6725 11.2623 64.2686 11.8357 64.1822 12.8764C64.1363 13.4188 63.8744 13.7863 63.3938 13.9813C63.359 13.9954 63.3593 14.0116 63.3893 14.0299L63.3941 14.0299ZM62.6621 15.7159C62.8142 15.6016 62.8991 15.432 62.9165 15.2095C62.936 14.9869 62.8793 14.8066 62.7491 14.6683C62.6183 14.5277 62.4257 14.4478 62.1731 14.4283L61.1648 14.3437C61.1369 14.3439 61.1231 14.3532 61.121 14.381L61.0082 15.7299C61.0061 15.7577 61.0175 15.7716 61.0454 15.7737L62.0606 15.8607C62.3108 15.8824 62.51 15.8349 62.6621 15.7183V15.7159ZM61.3142 12.0957L61.208 13.3635C61.2056 13.3913 61.2176 13.4051 61.2452 13.4073L62.1956 13.4876C62.4503 13.5094 62.6516 13.4665 62.804 13.3591C62.954 13.2517 63.0389 13.096 63.0563 12.8897C63.0737 12.6788 63.017 12.5054 62.8865 12.3718C62.756 12.2381 62.5631 12.1604 62.3084 12.1387L61.358 12.0584C61.3304 12.0586 61.3163 12.0679 61.3142 12.0957Z" fill="#F5FAEF"/>
<path d="M66.2547 17.2775C65.9802 17.0359 65.7884 16.7404 65.6846 16.3958C65.5805 16.0512 65.574 15.6806 65.6667 15.2816L66.06 13.5813C66.1506 13.1893 66.3179 12.8617 66.5618 12.6008C66.806 12.34 67.1061 12.1622 67.4601 12.0676C67.8141 11.9729 68.1962 11.9753 68.609 12.0703C69.0266 12.1675 69.3752 12.3347 69.6521 12.574C69.9293 12.8134 70.1186 13.1042 70.2245 13.4465C70.3283 13.7888 70.3374 14.1571 70.2471 14.5468L69.8535 16.2471C69.7608 16.6438 69.5937 16.976 69.3474 17.2438C69.1008 17.5116 68.8008 17.6917 68.4492 17.7841C68.0952 17.8787 67.7084 17.8763 67.2908 17.779C66.8777 17.6841 66.5339 17.5146 66.257 17.2729L66.2547 17.2775ZM68.2812 16.7101C68.5047 16.5675 68.652 16.3419 68.7219 16.0334L69.1268 14.2867C69.1967 13.9805 69.1676 13.7119 69.0317 13.4834C68.8982 13.2548 68.6822 13.1054 68.3852 13.0376C68.0927 12.9697 67.8383 13.0106 67.6169 13.1578C67.3952 13.305 67.2507 13.5328 67.1781 13.8391L66.7733 15.5858C66.7034 15.892 66.7349 16.1605 66.8684 16.3868C67.0016 16.6131 67.2156 16.7601 67.5081 16.828C67.7979 16.8958 68.057 16.8573 68.2787 16.7147L68.2812 16.7101Z" fill="#F5FAEF"/>
<path d="M75.9137 14.5241C75.9392 14.5146 75.9623 14.5122 75.9878 14.5236L76.8746 14.8731C76.9004 14.8822 76.9187 14.9006 76.9283 14.926C76.94 14.9515 76.94 14.9746 76.9289 15.0002L74.9099 20.1267C74.9006 20.1523 74.8823 20.1709 74.8568 20.1803C74.8313 20.1897 74.8082 20.1922 74.7827 20.1807L73.9259 19.8427C73.8749 19.8222 73.8467 19.7876 73.8443 19.7413L73.1591 15.7211C73.154 15.7026 73.1471 15.6911 73.1357 15.6911C73.124 15.6912 73.1147 15.6982 73.1081 15.7191L71.8634 18.9254C71.8544 18.951 71.8358 18.9696 71.8106 18.979C71.7851 18.9884 71.762 18.9909 71.7362 18.9794L70.8494 18.63C70.8242 18.6209 70.8053 18.6025 70.796 18.5794C70.7843 18.5539 70.784 18.5308 70.7957 18.5052L72.8144 13.3786C72.8234 13.3531 72.842 13.3345 72.8672 13.3251C72.8927 13.3133 72.9158 13.3132 72.9413 13.3246L73.7984 13.6627C73.8494 13.6832 73.8749 13.7178 73.88 13.7641L74.5652 17.7657C74.5697 17.7842 74.5769 17.7958 74.5886 17.7957C74.6 17.7956 74.609 17.7863 74.6162 17.7677L75.863 14.5799C75.8723 14.5544 75.8906 14.5358 75.9158 14.5264L75.9137 14.5241Z" fill="#F5FAEF"/>
<path d="M38.6436 102.651L39.0582 100.209C39.0606 100.186 39.0537 100.168 39.0351 100.156L38.4075 99.732C38.3841 99.7158 38.3658 99.7203 38.3517 99.7437L37.11 101.59C37.0938 101.613 37.0731 101.627 37.0476 101.632C37.0197 101.636 36.9966 101.632 36.9735 101.618L36.1812 101.085C36.1578 101.069 36.144 101.05 36.1395 101.022C36.1347 100.997 36.1395 100.971 36.1557 100.948L39.2322 96.3753C39.246 96.3522 39.2667 96.3381 39.2946 96.3336C39.3201 96.3288 39.3456 96.3336 39.3687 96.3474L41.3031 97.6494C41.5926 97.8438 41.8059 98.0733 41.9448 98.3373C42.0837 98.6016 42.1416 98.8818 42.1161 99.1782C42.0909 99.4749 41.982 99.7668 41.7897 100.049C41.5833 100.355 41.3286 100.566 41.0298 100.682C40.7286 100.798 40.4112 100.807 40.0752 100.712C40.0476 100.705 40.029 100.717 40.0221 100.744L39.6537 103.276C39.6513 103.3 39.6468 103.318 39.6399 103.325C39.6144 103.362 39.5772 103.362 39.5286 103.33L38.697 102.769C38.6529 102.739 38.6343 102.697 38.6436 102.644V102.651ZM39.6654 97.7859L38.8869 98.9421C38.8707 98.9652 38.8752 98.9838 38.8986 98.9976L39.7833 99.5931C39.9735 99.7203 40.1658 99.7689 40.3602 99.7365C40.5549 99.7041 40.7148 99.5976 40.8351 99.417C40.9557 99.2361 40.9974 99.0486 40.9533 98.8539C40.9116 98.6595 40.7958 98.4972 40.6059 98.3697L39.7209 97.7745C39.6978 97.7583 39.6792 97.7628 39.6654 97.7859Z" fill="#F5FAEF"/>
<path d="M46.9941 101.738C46.9686 101.747 46.9431 101.745 46.92 101.736L44.4945 100.607C44.469 100.596 44.4528 100.603 44.4411 100.628L43.9083 101.775C43.8969 101.8 43.9038 101.817 43.9269 101.828L45.516 102.567C45.5415 102.579 45.5577 102.597 45.567 102.623C45.5763 102.648 45.5763 102.674 45.5646 102.697L45.231 103.413C45.2196 103.438 45.201 103.455 45.1755 103.464C45.15 103.473 45.1245 103.471 45.1014 103.462L43.5123 102.723C43.4868 102.711 43.4706 102.718 43.4589 102.741L42.903 103.939C42.8913 103.964 42.8982 103.981 42.9216 103.992L45.3471 105.12C45.3723 105.132 45.3888 105.15 45.3978 105.176C45.4071 105.201 45.405 105.227 45.3957 105.25L45.0621 105.966C45.0504 105.991 45.0318 106.007 45.0063 106.017C44.9808 106.026 44.9556 106.023 44.9322 106.014L41.5176 104.425C41.4921 104.414 41.4759 104.395 41.4666 104.37C41.4573 104.344 41.4597 104.319 41.4714 104.296L43.7949 99.2984C43.8063 99.2729 43.8249 99.2567 43.8504 99.2477C43.8759 99.2384 43.9014 99.2384 43.9245 99.2498L47.3391 100.839C47.3646 100.851 47.3808 100.869 47.3901 100.895C47.3994 100.92 47.3973 100.946 47.388 100.969L47.0544 101.685C47.0427 101.71 47.0241 101.726 46.9986 101.736L46.9941 101.738Z" fill="#F5FAEF"/>
<path d="M47.0229 106.764C47.0088 106.741 47.0067 106.716 47.0136 106.69L48.5193 101.39C48.5262 101.364 48.5424 101.344 48.5658 101.332C48.5889 101.318 48.6144 101.316 48.6399 101.323L50.5998 101.878C50.9913 101.99 51.3156 102.157 51.5727 102.379C51.8274 102.601 52.0011 102.861 52.0938 103.157C52.1841 103.454 52.1841 103.767 52.0893 104.095L51.4752 106.259C51.3828 106.588 51.2181 106.855 50.9841 107.061C50.7501 107.265 50.4675 107.397 50.1318 107.45C49.7982 107.506 49.4343 107.476 49.0407 107.364L47.0808 106.808C47.0553 106.801 47.0343 106.785 47.0229 106.762V106.764ZM48.4011 106.16L49.3509 106.428C49.5918 106.495 49.8096 106.47 50.0043 106.352C50.199 106.231 50.3379 106.037 50.4213 105.766L50.9334 103.961C51.0096 103.69 50.9982 103.452 50.8938 103.248C50.7918 103.044 50.6136 102.905 50.3634 102.833L49.4229 102.567C49.3974 102.56 49.3788 102.567 49.3719 102.595L48.3735 106.109C48.3666 106.134 48.3735 106.15 48.4011 106.16Z" fill="#F5FAEF"/>
<path d="M54.1296 108.27C53.8308 108.074 53.613 107.816 53.4693 107.504C53.328 107.189 53.277 106.841 53.3211 106.457L53.7402 102.761C53.7426 102.734 53.7564 102.713 53.7774 102.697C53.7981 102.68 53.8215 102.674 53.8491 102.676L54.7968 102.782C54.8244 102.785 54.8454 102.796 54.8616 102.819C54.8778 102.842 54.8847 102.866 54.8823 102.891L54.4632 106.593C54.4308 106.88 54.4932 107.121 54.6483 107.316C54.8037 107.51 55.0236 107.624 55.311 107.657C55.5981 107.689 55.8369 107.626 56.0337 107.471C56.2284 107.316 56.3418 107.096 56.3742 106.808L56.7936 103.107C56.796 103.079 56.8074 103.058 56.8308 103.042C56.8515 103.025 56.8746 103.019 56.9025 103.021L57.8499 103.127C57.8778 103.13 57.8985 103.144 57.9147 103.165C57.9312 103.185 57.9381 103.208 57.9357 103.236L57.5163 106.931C57.4725 107.316 57.3474 107.645 57.1389 107.918C56.9304 108.194 56.6592 108.393 56.3232 108.518C55.9896 108.643 55.6146 108.685 55.1976 108.636C54.7806 108.59 54.426 108.467 54.1272 108.268L54.1296 108.27Z" fill="#F5FAEF"/>
<path d="M60.3816 108.646C60.0528 108.495 59.7957 108.275 59.6079 107.984C59.4204 107.694 59.3184 107.353 59.2998 106.962L59.2119 105.081C59.1933 104.689 59.265 104.342 59.4249 104.034C59.5848 103.728 59.8212 103.484 60.1338 103.306C60.4467 103.128 60.8148 103.031 61.239 103.01C61.6557 102.991 62.0289 103.051 62.3532 103.19C62.6775 103.329 62.9346 103.538 63.1245 103.816C63.3144 104.092 63.4188 104.418 63.435 104.793C63.435 104.842 63.4071 104.875 63.3423 104.888L62.3925 104.99H62.3763C62.3229 104.993 62.2929 104.965 62.2905 104.905C62.2767 104.617 62.1771 104.39 61.9941 104.226C61.8087 104.061 61.5726 103.985 61.2852 103.999C60.9933 104.013 60.7617 104.11 60.5925 104.293C60.4233 104.476 60.3471 104.71 60.3609 104.997L60.4536 106.959C60.4674 107.242 60.567 107.467 60.75 107.631C60.9354 107.796 61.1739 107.872 61.4658 107.858C61.7532 107.844 61.9824 107.747 62.1492 107.564C62.3184 107.381 62.3949 107.15 62.3811 106.867C62.3787 106.807 62.4087 106.776 62.4735 106.772L63.4281 106.767C63.456 106.767 63.4791 106.772 63.4974 106.788C63.516 106.804 63.5277 106.823 63.5277 106.844C63.5463 107.219 63.4722 107.552 63.3099 107.849C63.1476 108.146 62.9115 108.38 62.601 108.551C62.2905 108.725 61.9269 108.82 61.5075 108.838C61.0836 108.857 60.7083 108.792 60.3795 108.641L60.3816 108.646Z" fill="#F5FAEF"/>
<path d="M68.4435 102.051C68.4669 102.065 68.4807 102.086 68.4852 102.113L68.6427 102.896C68.6475 102.924 68.6427 102.947 68.6289 102.971C68.6151 102.994 68.5941 103.007 68.5665 103.012L67.137 103.302C67.1091 103.306 67.1001 103.322 67.1046 103.35L68.0103 107.833C68.0151 107.861 68.0103 107.884 67.9965 107.907C67.9827 107.93 67.9617 107.944 67.9338 107.949L66.9981 108.139C66.9702 108.143 66.9471 108.139 66.924 108.125C66.9006 108.111 66.8868 108.09 66.8823 108.062L65.9763 103.58C65.9718 103.554 65.9556 103.543 65.9277 103.547L64.5378 103.828C64.5099 103.832 64.4868 103.828 64.4637 103.814C64.4406 103.8 64.4265 103.779 64.422 103.751L64.2645 102.968C64.2597 102.943 64.2645 102.917 64.2783 102.894C64.2945 102.871 64.3131 102.857 64.341 102.852L68.367 102.039C68.3949 102.035 68.418 102.039 68.4414 102.053L68.4435 102.051Z" fill="#F5FAEF"/>
<path d="M71.4149 107.004C71.3915 106.992 71.3753 106.973 71.366 106.946L69.6473 101.71C69.638 101.685 69.6404 101.659 69.6518 101.636C69.6635 101.613 69.6821 101.597 69.7097 101.588L70.6157 101.291C70.6409 101.282 70.6664 101.284 70.6898 101.296C70.7129 101.307 70.7291 101.326 70.7384 101.354L72.4574 106.589C72.4664 106.614 72.4643 106.64 72.4526 106.663C72.4409 106.686 72.4226 106.703 72.3947 106.712L71.489 107.008C71.4635 107.018 71.438 107.015 71.4149 107.004Z" fill="#F5FAEF"/>
<path d="M75.2861 105.421C74.9201 105.402 74.5889 105.289 74.2925 105.082C73.9958 104.876 73.7618 104.589 73.5881 104.221L72.8444 102.643C72.6731 102.279 72.6035 101.918 72.6338 101.561C72.6638 101.205 72.7889 100.88 73.0091 100.588C73.229 100.296 73.5302 100.06 73.9148 99.8795C74.3039 99.6965 74.6792 99.6131 75.0452 99.6317C75.4112 99.6479 75.7403 99.7589 76.0346 99.9629C76.3286 100.167 76.5602 100.452 76.7318 100.815L77.4755 102.393C77.6492 102.761 77.7209 103.127 77.693 103.489C77.6654 103.85 77.5403 104.177 77.3225 104.471C77.1023 104.763 76.799 105.001 76.4096 105.184C76.0253 105.365 75.65 105.446 75.284 105.425L75.2861 105.421ZM76.5257 103.72C76.6112 103.47 76.5881 103.201 76.4537 102.916L75.6893 101.292C75.5549 101.007 75.365 100.815 75.1172 100.718C74.8691 100.621 74.6075 100.637 74.3342 100.767C74.063 100.894 73.8869 101.084 73.8035 101.337C73.7201 101.589 73.7456 101.858 73.88 102.143L74.6444 103.767C74.7788 104.052 74.9687 104.241 75.2144 104.337C75.4598 104.432 75.7172 104.415 75.9881 104.288C76.2593 104.16 76.4375 103.973 76.5233 103.72H76.5257Z" fill="#F5FAEF"/>
<path d="M79.7092 96.5319C79.714 96.504 79.7278 96.4832 79.7509 96.4691L80.5339 95.925C80.5573 95.9088 80.5804 95.904 80.6083 95.9088C80.6335 95.9133 80.6569 95.9271 80.6707 95.9505L83.8168 100.475C83.833 100.498 83.8375 100.521 83.833 100.549C83.8282 100.576 83.8144 100.597 83.7913 100.611L83.0359 101.137C82.9918 101.167 82.948 101.172 82.9039 101.149L79.1788 99.4901C79.1602 99.4832 79.1488 99.4832 79.1395 99.4901C79.1326 99.4994 79.1347 99.5108 79.1464 99.5294L81.1249 102.344C81.1411 102.367 81.1456 102.391 81.1411 102.418C81.1363 102.446 81.1225 102.467 81.0994 102.481L80.3164 103.025C80.293 103.042 80.2699 103.046 80.242 103.042C80.2144 103.037 80.1934 103.023 80.1796 103.002L77.0335 98.4777C77.0173 98.4546 77.0128 98.4315 77.0173 98.4036C77.0221 98.3781 77.0359 98.3574 77.0569 98.3412L77.812 97.8152C77.8561 97.7849 77.9002 97.7805 77.944 97.8036L81.6529 99.453C81.6715 99.4599 81.6832 99.4599 81.6922 99.453C81.6994 99.4437 81.697 99.4323 81.6853 99.4137L79.7233 96.6084C79.7071 96.585 79.7023 96.5619 79.7071 96.5343L79.7092 96.5319Z" fill="#F5FAEF"/>
<path d="M87.4728 54.5403C87.4728 50.1099 83.7723 46.4652 79.0854 46.1211C79.1667 41.5005 75.1863 37.6731 70.2318 37.5489C66.9612 28.7519 53.3955 29.375 51.0183 38.3514C45.0948 35.5539 38.0649 40.332 39.1569 46.4145C32.3463 49.8912 32.3616 59.2014 39.1569 62.6664C38.5737 65.8722 40.4136 69.1323 43.3485 70.5864C45.4302 67.4682 50.5767 68.055 51.7935 71.5353H56.2854C57.7128 67.5639 63.786 67.5663 65.2113 71.5353H69.7032C71.1153 67.5975 77.1255 67.5552 78.6051 71.4675C84.1149 70.8789 87.5223 65.0292 84.9108 60.4128C86.5536 58.8483 87.4728 56.7696 87.4728 54.5403Z" fill="white"/>
<path d="M75.2911 74.7224L75.2941 75.0071L75.4906 74.8013L75.9307 74.3408C76.2802 73.9751 76.852 73.9697 77.2087 74.3285C77.5672 74.6891 77.5729 75.2807 77.2219 75.6479L75.0565 77.9135L75.055 77.9153C74.7241 78.2756 74.1178 78.2816 73.78 77.9279L73.7785 77.9264L71.5702 75.7055C71.1532 75.2525 71.2486 74.7152 71.5603 74.3888C71.7169 74.225 71.9257 74.1182 72.1471 74.1029C72.3661 74.0876 72.6073 74.1608 72.8353 74.3732L73.2826 74.8229L73.4836 75.0251L73.4806 74.7404L73.4599 72.6344C73.4938 71.3978 75.2116 71.3807 75.2704 72.6164L75.2911 74.7224Z" fill="white" stroke="white" stroke-width="0.23166"/>
<path d="M58.149 74.513C58.4988 74.1473 59.0703 74.1416 59.427 74.5004L59.8761 74.9519L60.0765 75.1538L60.0738 74.8691L60.0528 72.7634C60.087 71.5265 61.8048 71.5097 61.8636 72.7454L61.8843 74.8514L61.8873 75.1361L62.0838 74.93L62.5236 74.4701C62.8734 74.1041 63.4449 74.0984 63.8019 74.4575C64.1604 74.8178 64.1664 75.4097 63.8148 75.7769L61.6494 78.0425L61.6482 78.0443C61.317 78.4046 60.711 78.4106 60.3732 78.0569L60.3714 78.0551L58.1619 75.8327C57.8034 75.4721 57.7974 74.8808 58.149 74.513ZM58.149 74.513L58.0653 74.4332L58.149 74.513ZM58.149 74.513L58.0653 74.4332L58.149 74.513ZM58.0653 74.4332C58.4601 74.0201 59.1063 74.0135 59.5092 74.4188L58.08 75.9143C57.6771 75.5093 57.6705 74.846 58.0653 74.4332Z" fill="white"/>
<path d="M58.149 74.513L58.0653 74.4332M58.149 74.513L58.0653 74.4332M58.149 74.513C58.4988 74.1473 59.0703 74.1416 59.427 74.5004L59.8761 74.9519L60.0765 75.1538L60.0738 74.8691L60.0528 72.7634C60.087 71.5265 61.8048 71.5097 61.8636 72.7454L61.8843 74.8514L61.8873 75.1361L62.0838 74.93L62.5236 74.4701C62.8734 74.1041 63.4449 74.0984 63.8019 74.4575C64.1604 74.8178 64.1664 75.4097 63.8148 75.7769L61.6494 78.0425L61.6482 78.0443C61.317 78.4046 60.711 78.4106 60.3732 78.0569L60.3714 78.0551L58.1619 75.8327C57.8034 75.4721 57.7974 74.8808 58.149 74.513ZM58.0653 74.4332C58.4601 74.0201 59.1063 74.0135 59.5092 74.4188L58.08 75.9143C57.6771 75.5093 57.6705 74.846 58.0653 74.4332Z" stroke="white" stroke-width="0.23166"/>
<path d="M58.177 85.5804C58.5313 85.2183 59.1028 85.2195 59.4553 85.5825L59.899 86.0391L60.0973 86.2434L60.0976 85.9587L60.1015 83.8527C60.1498 82.6164 61.8676 82.6194 61.912 83.8557L61.9084 85.9617L61.9078 86.2467L62.107 86.0433L62.5522 85.5879C62.9062 85.2264 63.4777 85.2273 63.8305 85.5903C64.1848 85.9551 64.1836 86.5464 63.8281 86.91L61.6366 89.1501L61.6351 89.1519C61.3 89.5083 60.6937 89.5071 60.3601 89.1498L60.3583 89.148L58.1746 86.9001C57.8206 86.5353 57.8218 85.9437 58.177 85.5804ZM58.177 85.5804L58.0942 85.4991L58.177 85.5804ZM58.177 85.5804L58.0942 85.4991L58.177 85.5804ZM58.0942 85.4991C58.4941 85.0911 59.1406 85.092 59.5384 85.5018L58.0918 86.9808C57.6937 86.571 57.6949 85.9077 58.0942 85.4991Z" fill="white"/>
<path d="M58.177 85.5804L58.0942 85.4991M58.177 85.5804L58.0942 85.4991M58.177 85.5804C58.5313 85.2183 59.1028 85.2195 59.4553 85.5825L59.899 86.0391L60.0973 86.2434L60.0976 85.9587L60.1015 83.8527C60.1498 82.6164 61.8676 82.6194 61.912 83.8557L61.9084 85.9617L61.9078 86.2467L62.107 86.0433L62.5522 85.5879C62.9062 85.2264 63.4777 85.2273 63.8305 85.5903C64.1848 85.9551 64.1836 86.5464 63.8281 86.91L61.6366 89.1501L61.6351 89.1519C61.3 89.5083 60.6937 89.5071 60.3601 89.1498L60.3583 89.148L58.1746 86.9001C57.8206 86.5353 57.8218 85.9437 58.177 85.5804ZM58.0942 85.4991C58.4941 85.0911 59.1406 85.092 59.5384 85.5018L58.0918 86.9808C57.6937 86.571 57.6949 85.9077 58.0942 85.4991Z" stroke="white" stroke-width="0.23166"/>
<path d="M47.9247 75.0264L47.9277 75.3111L48.1245 75.1053L48.5643 74.6451C48.9141 74.2791 49.4856 74.2734 49.8426 74.6325C50.2008 74.9928 50.2068 75.5847 49.8555 75.9519L47.6901 78.2178L47.6889 78.2193C47.3577 78.5796 46.7517 78.5856 46.4136 78.2319L46.4121 78.2301L44.2041 76.0095C43.7868 75.5565 43.8825 75.0192 44.1939 74.6928C44.3508 74.529 44.5593 74.4222 44.781 74.4069C44.9997 74.3916 45.2409 74.4648 45.4692 74.6772L45.9162 75.1272L46.1172 75.3288L46.1145 75.0441L46.0935 72.9384C46.1277 71.7018 47.8455 71.6847 47.9043 72.9204L47.9247 75.0264Z" fill="white" stroke="white" stroke-width="0.23166"/>
<path d="M47.0846 43.8545H44.9561V46.1783H47.0846V43.8545Z" fill="#9FCE63"/>
<path d="M63.2503 57.8533V63.0094H58.9927V59.2333L57.1963 59.4511V63.0094V64.825H58.9927H63.2503H65.0467V63.0094V56.9092L63.2503 57.8533Z" fill="#9FCE63"/>
<path d="M68.2399 46.1616H55.1338V44.2734H69.0382L68.2399 46.1616Z" fill="#9FCE63"/>
<path d="M49.6806 46.1616H47.0859V48.9939H49.6806V46.1616Z" fill="#9FCE63"/>
<path d="M53.0714 42.4746H49.6787V46.1781H53.0714V42.4746Z" fill="#9FCE63"/>
<path d="M52.5765 54.8764C52.5465 57.2731 54.756 57.1357 54.756 57.1357C54.756 57.1357 54.102 56.3632 54.0027 55.8205C53.8695 55.0942 53.8695 54.2956 54.8676 52.4074C55.1505 51.8722 55.3836 51.4714 55.5708 51.1729H53.7366C53.2482 52.0015 52.5942 53.3821 52.5765 54.8764Z" fill="#9FCE63"/>
<path d="M71.1158 44.6957C70.9868 44.4317 70.7951 44.2103 70.5611 44.0543C70.3271 43.8983 70.0592 43.814 69.785 43.8098C69.785 43.8098 71.1017 46.1924 69.0395 48.827C68.8985 49.0079 68.762 49.1834 68.6288 49.3565H63.2513V54.5648C62.8277 54.8195 62.3645 55.0766 61.8545 55.3391C60.6416 55.9598 59.7614 56.4506 58.9937 56.8277V49.3565H52.9397V47.9765H51.1436V51.1718H57.1973V57.4175H57.5918C56.3771 57.8189 55.0781 57.92 52.6079 57.7994C52.6079 57.7994 54.5369 59.0912 57.1982 58.5446C59.8592 57.9974 63.0266 57.4553 65.7011 55.0754C68.3756 52.6955 70.0109 50.8589 70.8557 48.7277C71.7005 46.5962 71.5961 45.6266 71.1158 44.6957ZM65.0477 53.3237V51.1718H67.2053C66.5561 51.9686 65.8331 52.6895 65.0477 53.3237Z" fill="#9FCE63"/>
<path d="M17.4248 17.5913C6.24303 28.8055 -0.00363354 44.025 0.0590612 59.9007C0.121755 75.777 6.48867 91.0092 17.7592 102.247C29.0297 113.485 44.2803 119.808 60.1566 119.825C76.0329 119.841 91.2336 113.551 102.416 102.336L59.9202 59.9637L17.4248 17.5913Z" fill="#E0FFB8" fill-opacity="0.1"/>
</g>
<defs>
<clipPath id="clip0_1012_7862">
<rect width="120" height="120" fill="white"/>
</clipPath>
</defs>
</svg>
