<svg width="120" height="120" viewBox="0 0 120 120" fill="none" xmlns="http://www.w3.org/2000/svg">
<g clip-path="url(#clip0_1012_7761)">
<path d="M60.0024 119.305C92.7555 119.305 119.307 92.7534 119.307 60C119.307 27.2468 92.7555 0.695068 60.0024 0.695068C27.249 0.695068 0.697266 27.2468 0.697266 60C0.697266 92.7534 27.249 119.305 60.0024 119.305Z" fill="#7FA54F" stroke="#95CB5A" stroke-width="1.38996" stroke-miterlimit="10"/>
<g opacity="0.8">
<path d="M61.0266 116.517C30.1302 117.023 4.67988 92.2785 4.1787 61.2597C4.16703 60.4581 4.16997 59.6652 4.19034 58.8753C4.34478 52.7979 5.46372 46.9548 7.40151 41.4948C9.71223 34.9845 13.1886 29.0185 17.5828 23.8599C21.569 19.1724 26.3158 15.1492 31.6338 11.9862C31.7124 11.9393 31.794 11.8925 31.8726 11.8457C38.2395 8.09751 45.4194 5.57532 53.0919 4.60974C55.0995 4.35519 57.1395 4.21182 59.211 4.17669C59.9688 4.16499 60.7293 4.16793 61.4811 4.18548C72.9066 4.45758 83.5104 8.17947 92.2728 14.3767C102.413 21.5337 110.088 32.0031 113.728 44.2482C115.112 48.8946 115.91 53.8014 116.044 58.8753C116.05 59.0625 116.053 59.247 116.056 59.4342C116.56 90.4584 91.917 116.014 61.0266 116.517Z" fill="#9AD55D"/>
</g>
<path d="M59.7696 98.9187C81.3921 98.9187 98.9202 81.3906 98.9202 59.7684C98.9202 38.1459 81.3921 20.6177 59.7696 20.6177C38.1474 20.6177 20.6191 38.1459 20.6191 59.7684C20.6191 81.3906 38.1474 98.9187 59.7696 98.9187Z" fill="#7FA54F"/>
<path opacity="0.8" d="M59.7708 96.834C80.2416 96.834 96.8364 80.2908 96.8364 59.8842C96.8364 39.4773 80.2416 22.9343 59.7708 22.9343C39.2997 22.9343 22.7051 39.4773 22.7051 59.8842C22.7051 80.2908 39.2997 96.834 59.7708 96.834Z" fill="#9AD55D"/>
<path d="M17.6678 92.3904C17.3462 92.6364 16.8856 92.5752 16.6439 92.2503C9.98632 83.2998 6.25813 72.5022 5.98144 61.3389C5.70478 50.175 8.89345 39.2061 15.0995 29.9368C15.3247 29.6005 15.7818 29.5166 16.1152 29.7464C16.4486 29.9762 16.532 30.4326 16.3068 30.7692C10.2764 39.7836 7.17826 50.4483 7.44727 61.3026C7.71628 72.1563 11.339 82.6548 17.8085 91.3593C18.0501 91.6842 17.9894 92.1444 17.6678 92.3904Z" fill="#7FA54F"/>
<path d="M27.6107 17.6653C27.3647 17.3437 27.4258 16.883 27.7506 16.6413C36.7011 9.98376 47.4987 6.25557 58.6623 5.97888C69.8259 5.70219 80.7948 8.89089 90.0642 15.0969C90.4005 15.3221 90.4845 15.7792 90.2547 16.1126C90.0249 16.446 89.5683 16.5294 89.2317 16.3042C80.2176 10.2739 69.5529 7.17567 58.6986 7.44471C47.8446 7.71372 37.3461 11.3365 28.6415 17.806C28.3168 18.0475 27.8567 17.9868 27.6107 17.6653Z" fill="#7FA54F"/>
<path d="M102.338 27.6099C102.66 27.3639 103.12 27.4251 103.362 27.7499C110.02 36.7005 113.748 47.4981 114.024 58.6614C114.301 69.825 111.112 80.7939 104.906 90.0636C104.681 90.3999 104.224 90.4836 103.891 90.2538C103.557 90.024 103.474 89.5677 103.699 89.2311C109.729 80.2167 112.828 69.552 112.559 58.6977C112.289 47.8437 108.667 37.3455 102.197 28.6408C101.956 28.316 102.016 27.856 102.338 27.6099Z" fill="#7FA54F"/>
<path d="M92.3925 102.335C92.6385 102.657 92.5773 103.117 92.2527 103.359C83.3022 110.017 72.5046 113.745 61.341 114.022C50.1774 114.298 39.2085 111.11 29.939 104.903C29.6026 104.678 29.5188 104.221 29.7486 103.888C29.9784 103.554 30.4347 103.471 30.7713 103.696C39.7857 109.727 50.4504 112.825 61.3047 112.556C72.1587 112.287 82.6569 108.664 91.3617 102.194C91.6863 101.953 92.1465 102.014 92.3925 102.335Z" fill="#7FA54F"/>
<path d="M84.6603 77.5163C84.6603 79.6982 81.0399 81.467 76.5732 81.467C72.1077 81.467 68.4873 79.6982 68.4873 77.5163C68.4873 75.3347 72.1077 73.5659 76.5732 73.5659C81.0399 73.5659 84.6603 75.3347 84.6603 77.5163Z" fill="#F6B940"/>
<path d="M76.5738 73.5655C74.8488 73.5445 73.1361 73.8397 71.5221 74.4349C71.1453 74.8498 70.9299 75.3805 70.9131 75.9358C70.9131 78.1174 74.5335 79.8862 79.0002 79.8862C80.7249 79.9075 82.4388 79.6123 84.0528 79.0171C84.4296 78.6019 84.645 78.0715 84.6606 77.5162C84.6606 75.3346 81.0402 73.5655 76.5738 73.5655Z" fill="#F9D266"/>
<path d="M49.0791 79.0973C49.0791 80.4065 46.9071 81.467 44.2272 81.467C41.5476 81.467 39.375 80.4065 39.375 79.0973C39.375 77.7869 41.5476 76.7261 44.2272 76.7261C46.9071 76.7261 49.0791 77.7869 49.0791 79.0973Z" fill="#F6B940"/>
<path d="M44.2268 76.7265C43.1249 76.71 42.0308 76.9134 41.0123 77.325C41.0003 77.3874 40.9934 77.4522 40.9922 77.517C40.9922 78.8259 43.1642 79.8867 45.8441 79.8867C46.946 79.9044 48.0398 79.6998 49.0586 79.2894C49.0706 79.2258 49.0772 79.161 49.079 79.0977C49.079 77.7873 46.9067 76.7265 44.2268 76.7265Z" fill="#F9D266"/>
<path d="M52.3142 55.3899C52.3142 57.573 48.6935 59.3418 44.2274 59.3418C39.761 59.3418 36.1406 57.573 36.1406 55.3899C36.1406 53.2083 39.761 51.4395 44.2274 51.4395C48.6935 51.4395 52.3142 53.2083 52.3142 55.3899Z" fill="#F6B940"/>
<path d="M44.2268 51.4393C42.5021 51.418 40.7885 51.7132 39.1745 52.3084C38.7974 52.7236 38.582 53.2552 38.5664 53.8102C38.5664 55.9921 42.1868 57.7609 46.6532 57.7609C48.3779 57.7819 50.0915 57.487 51.7055 56.8918C52.0826 56.4766 52.2977 55.945 52.3136 55.3897C52.3136 53.2078 48.6932 51.4393 44.2268 51.4393Z" fill="#F9D266"/>
<path d="M52.3142 41.9558C52.3142 44.5187 51.4472 47.0087 49.8485 49.0397L44.2274 56.1803L38.6063 49.0397C37.0073 47.0087 36.1409 44.5187 36.1406 41.9558C36.1406 37.5923 39.761 34.0547 44.2274 34.0547C48.6935 34.0547 52.3142 37.5923 52.3142 41.9558Z" fill="#559B2D"/>
<path d="M45.7514 54.2439L49.8482 49.0392C51.4469 47.0082 52.3136 44.5182 52.3136 41.9556C52.3397 37.6167 48.7613 34.0791 44.321 34.0542C43.8452 34.0506 43.3697 34.0893 42.9008 34.1694C40.2362 35.5314 38.5661 38.2272 38.5664 41.1663C38.5664 43.728 39.4331 46.218 41.0318 48.2493L45.7514 54.2439Z" fill="#6BC13B"/>
<path d="M76.5757 44.3269C77.4697 44.3269 78.193 45.0349 78.193 45.9076V77.5168H74.959V45.9076C74.959 45.0349 75.6823 44.3269 76.5757 44.3269Z" fill="#474747"/>
<path d="M54.7299 78.3073C54.5649 78.3073 54.3999 78.2968 54.2364 78.2767L54.4377 76.7089C54.5364 76.7206 54.6345 76.7206 54.7386 76.7266H55.9986V78.3073H54.7299ZM65.9706 78.3073H64.3095V76.7266H65.9712L65.9706 78.3073ZM62.646 78.3073H60.9849V76.7266H62.6469L62.646 78.3073ZM59.3217 78.3073H57.6603V76.7266H59.3223L59.3217 78.3073ZM52.329 77.5276C51.7704 77.1217 51.3282 76.582 51.0447 75.9607L52.5222 75.3187C52.6926 75.6913 52.9581 76.0162 53.2935 76.2598L52.329 77.5276ZM52.329 74.1295L50.7186 73.9813C50.7849 73.3039 51.0294 72.6535 51.4281 72.0961L52.7535 73.0015C52.5138 73.3357 52.3665 73.7236 52.3257 74.1295H52.329ZM53.6898 72.2218L52.9878 70.7998C53.5341 70.54 54.1335 70.4047 54.7413 70.4047H54.9531V71.9857H54.7413C54.3768 71.9857 54.0177 72.0667 53.6898 72.2218ZM60.402 71.9857H59.9394V70.4047H60.402C60.7026 70.4059 61.0005 70.3531 61.281 70.2472L61.8672 71.7196C61.3998 71.896 60.903 71.9866 60.402 71.9857ZM58.2777 71.9857H56.6157V70.4047H58.2777V71.9857ZM63.5292 70.5388L62.2788 69.5356C62.5434 69.2206 62.7204 68.8441 62.7924 68.4418L64.3854 68.7121C64.2663 69.3826 63.9714 70.0117 63.5292 70.5388ZM62.6889 67.2433C62.5485 66.8599 62.3091 66.5164 61.9941 66.2482L63.0567 65.0569C63.5811 65.5036 63.9795 66.0754 64.2132 66.7162L62.6889 67.2433ZM60.8871 65.7121C60.7275 65.6803 60.5649 65.6638 60.402 65.6638H59.3952V64.0828H60.402C60.6747 64.0819 60.9471 64.1089 61.2144 64.1617L60.8871 65.7121ZM57.7332 65.6638H56.0715V64.0828H57.7332V65.6638ZM54.4089 65.6638H52.7469V64.0828H54.4089V65.6638ZM51.0852 65.6638H49.4223V64.0828H51.0852V65.6638ZM47.6613 65.626C46.9983 65.545 46.3602 65.3296 45.7875 64.9945L46.6164 63.6373C46.9977 63.8605 47.4225 64.003 47.8632 64.0558L47.6613 65.626ZM44.3301 63.6877C43.9395 63.1585 43.6659 62.5552 43.5264 61.9165L45.108 61.5874C45.201 62.0116 45.3831 62.413 45.6429 62.7646L44.3301 63.6877Z" fill="#686868"/>
<path d="M44.227 78.3065L41.3272 75.4724C40.5952 74.7572 40.1836 73.7867 40.1836 72.7754C40.1836 70.5923 41.9941 68.8235 44.227 68.8235C46.4602 68.8235 48.2707 70.5923 48.2707 72.7754C48.2707 73.7867 47.8594 74.7572 47.1271 75.4724L44.227 78.3065Z" fill="#559B2D"/>
<path d="M47.1265 75.4724C47.8588 74.7572 48.2701 73.7867 48.2701 72.7754C48.2701 70.6007 46.4716 68.834 44.2462 68.8235C43.2187 69.5645 42.6112 70.7372 42.6094 71.9849C42.6094 72.9965 43.0207 73.9667 43.753 74.6831L45.844 76.7261L47.1265 75.4724Z" fill="#6BC13B"/>
<path d="M49.0791 41.9556C49.0791 44.5746 46.9071 46.6977 44.2272 46.6977C41.5476 46.6977 39.375 44.5746 39.375 41.9556C39.375 39.3372 41.5476 37.2144 44.2272 37.2144C46.9071 37.2144 49.0791 39.3372 49.0791 41.9556Z" fill="#E2E7F6"/>
<path d="M44.2262 37.2144C43.1375 37.2144 42.0803 37.5732 41.2262 38.2341C39.5675 40.2876 39.9266 43.2666 42.0284 44.8875C43.7894 46.2462 46.2743 46.2462 48.0353 44.8875C49.6943 42.834 49.3361 39.8547 47.2343 38.2341C46.3778 37.5732 45.3179 37.2144 44.2262 37.2144Z" fill="#F2F2F2"/>
<path d="M43.4183 44.3267C43.2038 44.3267 42.9983 44.243 42.8465 44.0951L41.2295 42.5153L42.3728 41.3969L43.4183 42.419L46.0814 39.8174L47.2247 40.9349L43.9901 44.0951C43.8386 44.243 43.6328 44.3267 43.4183 44.3267Z" fill="#559B2D"/>
<path d="M74.958 56.1801L73.6821 56.5962C72.9204 56.8446 72.1221 56.9703 71.3181 56.9703C70.5153 56.9703 69.7173 56.8446 68.9544 56.5962L68.8302 56.5554C68.0682 56.307 67.2702 56.1801 66.4665 56.1801C65.6631 56.1801 64.8651 56.307 64.1028 56.5554C63.2583 56.8305 62.3736 56.9703 61.4835 56.9703H60.4014V46.698H61.4835C62.3736 46.698 63.2583 46.5579 64.1028 46.2816C64.8651 46.0335 65.6631 45.9075 66.4665 45.9075C67.2702 45.9075 68.0682 46.0335 68.8302 46.2816L68.9544 46.3227C69.7173 46.5708 70.5153 46.698 71.3181 46.698C72.1221 46.698 72.9204 46.5708 73.6821 46.3227L74.958 45.9075" fill="#F4A93C"/>
<path d="M71.3195 46.698C70.5167 46.698 69.7187 46.5708 68.9558 46.3227L68.8316 46.2816C67.2971 45.7827 65.6384 45.7827 64.1042 46.2816C63.2597 46.5579 62.375 46.698 61.4849 46.698H61.4414C63.4031 51.8247 67.9388 55.5954 73.4321 56.6658C73.5128 56.6421 73.6016 56.6223 73.6835 56.5962L74.9594 56.1801V45.9075L73.6835 46.3227C72.9218 46.5708 72.1235 46.698 71.3195 46.698Z" fill="#F6B940"/>
<path d="M78.1908 75.3667V45.9076C78.1908 45.0349 77.4675 44.3269 76.5732 44.3269V71.1949C76.5732 72.7321 77.1486 74.215 78.1908 75.3667Z" fill="#686868"/>
<path fill-rule="evenodd" clip-rule="evenodd" d="M67.4415 63.3955C68.1444 63.3955 68.7138 63.8932 68.7138 64.5061V71.6239C68.7138 71.6239 68.7138 78.9784 59.8071 83.3902C50.9004 78.9784 50.9004 71.6239 50.9004 71.6239V64.5061C50.9004 63.8932 51.4701 63.3955 52.1727 63.3955H67.4415Z" fill="#92D050"/>
<path fill-rule="evenodd" clip-rule="evenodd" d="M59.928 80.5675C53.6259 76.8238 53.5488 71.4643 53.5488 71.4064V65.395H66.3072V71.4064C66.3033 71.6263 66.1353 76.8802 59.928 80.5675Z" fill="#AAF065"/>
<path fill-rule="evenodd" clip-rule="evenodd" d="M60.3216 81.0382C60.0441 81.0382 59.7996 80.8783 59.7177 80.6455C59.6358 80.4115 59.7363 80.1574 59.9652 80.0197C65.8473 76.4782 66.0045 71.4856 66.0087 71.2765V65.806C65.6595 65.806 65.3766 65.5567 65.3766 65.2486C65.3766 64.9393 65.6595 64.6897 66.0087 64.6897C66.7065 64.6897 67.2723 65.1898 67.2723 65.806V71.2834C67.2678 71.5267 67.0941 77.0782 60.6774 80.9395C60.5727 81.0031 60.4488 81.037 60.3216 81.0382Z" fill="white"/>
<path fill-rule="evenodd" clip-rule="evenodd" d="M55.7688 77.862C55.5648 77.862 55.3728 77.7774 55.2528 77.6328C53.6919 75.8097 52.7664 73.6326 52.5879 71.3625V65.9169C52.5879 65.3031 53.1579 64.8069 53.8602 64.8069H60.8583C61.2099 64.8069 61.4946 65.055 61.4946 65.3619C61.4946 65.6676 61.2099 65.9169 60.8583 65.9169H53.8602V71.3625C54.0435 73.3974 54.8841 75.3462 56.2842 76.9812C56.4243 77.1504 56.4447 77.3739 56.3358 77.5599C56.2269 77.7456 56.0082 77.862 55.7688 77.862Z" fill="white"/>
<path d="M17.4278 17.5913C6.24594 28.8055 -0.00070367 44.025 0.0619908 59.9007C0.124685 75.777 6.49161 91.0092 17.7621 102.247C29.0327 113.485 44.2833 119.808 60.1596 119.825C76.0359 119.841 91.2366 113.551 102.419 102.336L59.9232 59.9637L17.4278 17.5913Z" fill="#E0FFB8" fill-opacity="0.1"/>
<path d="M64.2135 68.6732C64.0356 68.3978 63.7191 68.411 63.7191 68.411C63.7191 68.411 64.2081 69.1157 63.444 69.8948C63.3915 69.9482 63.3411 70.0001 63.2919 70.0514H61.2993V71.591C61.1421 71.6669 60.9705 71.7428 60.7815 71.8199C60.3321 72.0038 60.0063 72.149 59.7216 72.2603V70.0514H57.4782V69.6434H56.8125V70.5881H59.0559V72.4346H59.202C58.752 72.5531 58.2705 72.5834 57.3552 72.5474C57.3552 72.5474 58.0698 72.9293 59.0565 72.7676C60.0429 72.6059 61.2162 72.4454 62.2068 71.7416C63.1977 71.0381 63.804 70.4951 64.1169 69.8651C64.4301 69.2348 64.3914 68.9483 64.2135 68.6732ZM61.965 71.2241V70.5881H62.7642C62.5236 70.8236 62.2557 71.0369 61.965 71.2241Z" fill="white"/>
<path d="M57.3429 71.6829C57.3321 72.3915 58.1505 72.3507 58.1505 72.3507C58.1505 72.3507 57.9087 72.1224 57.8718 71.9619C57.8223 71.7474 57.8223 71.511 58.1922 70.9527C58.2969 70.7946 58.3836 70.6758 58.4529 70.5879H57.7734C57.5919 70.8324 57.3498 71.241 57.3429 71.6829Z" fill="white"/>
<path d="M56.2681 69.9435H55.3066V69.1062H56.2681V69.9435Z" fill="white"/>
<path d="M55.3073 69.1113H54.5186V68.4243H55.3073V69.1113Z" fill="white"/>
<path d="M61.2971 72.5635V74.0881H59.7194V72.9715L59.0537 73.0357V74.6248H61.9625V72.2842L61.2971 72.5635Z" fill="white"/>
<path d="M63.1455 69.1064H58.2891V68.5481H63.4413L63.1455 69.1064Z" fill="white"/>
<path d="M57.5278 69.1114H56.2705V68.0164H57.5278V69.1114Z" fill="white"/>
<path d="M55.3066 69.1113H56.2681V69.9438H55.3066V69.1113Z" fill="white"/>
<path d="M54.5186 68.4243H55.3073V69.1065H54.5186V68.4243Z" fill="white"/>
<path d="M38.4004 22.45C38.029 22.465 37.6867 22.3836 37.3756 22.2103C37.0648 22.0371 36.8086 21.7773 36.6046 21.4332L35.6722 19.8496C35.4682 19.5055 35.3692 19.1574 35.3701 18.8052C35.371 18.4529 35.4733 18.1267 35.6725 17.8218C35.8714 17.5191 36.1597 17.263 36.532 17.0533C36.8995 16.848 37.2664 16.7355 37.6327 16.718C37.9996 16.7005 38.3326 16.77 38.6326 16.9245C38.932 17.0789 39.1702 17.3057 39.3445 17.6026L39.3739 17.6521C39.3874 17.6757 39.3916 17.7013 39.3838 17.7265C39.376 17.7518 39.3607 17.7723 39.3367 17.7855L38.4883 18.26C38.4643 18.2732 38.4379 18.2771 38.4118 18.2694C38.3863 18.2617 38.365 18.2472 38.3515 18.2237L38.3404 18.2025C38.2135 17.9857 38.0275 17.8461 37.7845 17.786C37.5412 17.7259 37.2931 17.7652 37.0369 17.9087C36.7756 18.0543 36.613 18.2514 36.5488 18.4976C36.4846 18.7438 36.5269 18.9929 36.679 19.2475L37.6453 20.8876C37.7947 21.1421 38.0017 21.3009 38.2636 21.3638C38.5258 21.4268 38.7883 21.3855 39.0496 21.2399C39.3007 21.0986 39.463 20.9224 39.5356 20.7089C39.6088 20.4954 39.5773 20.2743 39.4411 20.0434L39.2533 19.7253C39.2398 19.7017 39.2209 19.6966 39.1969 19.7098L38.3845 20.1644C38.3605 20.1776 38.3344 20.1815 38.3083 20.1739C38.2825 20.1662 38.2612 20.1517 38.248 20.1281L37.8652 19.4777C37.8517 19.4542 37.8478 19.4286 37.8556 19.4033C37.8637 19.378 37.8784 19.3576 37.9024 19.3444L39.6718 18.3534C39.6961 18.3402 39.7222 18.3363 39.748 18.344C39.7741 18.3517 39.7948 18.3661 39.8086 18.3897L40.3588 19.3229C40.5691 19.681 40.6753 20.0363 40.6768 20.3863C40.6783 20.7363 40.5784 21.0603 40.3771 21.3582C40.1758 21.6562 39.8902 21.9077 39.5179 22.1175C39.1456 22.3272 38.7739 22.4373 38.4028 22.45L38.4004 22.45Z" fill="white"/>
<path d="M43.5203 19.8704C43.1555 19.837 42.833 19.7144 42.5516 19.5049C42.2702 19.2954 42.0575 19.0113 41.9114 18.6526L40.499 15.1992C40.4879 15.1734 40.4885 15.1503 40.5014 15.1251C40.5113 15.0999 40.5308 15.0842 40.5572 15.0734L41.4665 14.7212C41.4929 14.7103 41.5166 14.711 41.5424 14.7233C41.5682 14.7332 41.5865 14.7523 41.5955 14.7781L43.01 18.2385C43.1186 18.5057 43.2914 18.689 43.526 18.7883C43.7609 18.8876 44.0153 18.8831 44.2919 18.7773C44.5661 18.6715 44.7542 18.5029 44.8559 18.274C44.9576 18.0451 44.9531 17.797 44.8448 17.5274L43.43 14.067C43.4189 14.0412 43.4198 14.0181 43.4321 13.9929C43.4426 13.9677 43.4621 13.9498 43.4885 13.9412L44.3975 13.589C44.4239 13.5781 44.4479 13.5788 44.4734 13.5911C44.4992 13.6011 44.5178 13.6201 44.5265 13.6459L45.9389 17.0993C46.0853 17.458 46.1297 17.8068 46.0742 18.1483C46.0193 18.4897 45.8696 18.7938 45.629 19.0628C45.3881 19.3319 45.068 19.543 44.6687 19.6987C44.2697 19.8544 43.8875 19.9155 43.5227 19.8798L43.5203 19.8704Z" fill="white"/>
<path d="M51.4457 17.5345L51.0104 16.8154C50.9942 16.7964 50.9777 16.789 50.9609 16.7932L48.9599 17.2608C48.9431 17.265 48.9332 17.2786 48.9278 17.3016L48.8843 18.1347C48.8825 18.1926 48.8531 18.2266 48.7979 18.2389L47.7662 18.4811C47.7329 18.4895 47.7068 18.4864 47.6858 18.4696C47.6648 18.4551 47.6561 18.4271 47.6573 18.3877L48.0938 12.6176C48.0956 12.562 48.1253 12.5258 48.1802 12.5134L49.4558 12.2155C49.511 12.2032 49.553 12.2205 49.5803 12.27L52.6553 17.2185C52.6553 17.2185 52.6691 17.2397 52.673 17.2561C52.6862 17.3028 52.6613 17.3345 52.6016 17.3491L51.5696 17.5913C51.5147 17.6036 51.4751 17.5863 51.4454 17.5368L51.4457 17.5345ZM49.0325 16.3289L50.4641 15.9936C50.4977 15.9853 50.5028 15.9669 50.4845 15.9385L49.1729 13.7557C49.1615 13.7368 49.1522 13.7273 49.1423 13.734C49.133 13.7383 49.1255 13.7497 49.1249 13.7682L48.9887 16.2906C48.9899 16.3231 49.0061 16.3374 49.0325 16.3312V16.3289Z" fill="white"/>
<path d="M57.0411 16.8172L55.7925 14.6593C55.779 14.6381 55.7625 14.6307 55.7388 14.63L54.9639 14.6987C54.9354 14.7002 54.9231 14.7161 54.9273 14.744L55.1304 16.9606C55.1319 16.9885 55.1241 17.0115 55.1067 17.0318C55.0896 17.0522 55.0656 17.0631 55.0392 17.067L54.0645 17.1532C54.036 17.1547 54.0123 17.1472 53.9916 17.1303C53.9703 17.1135 53.9592 17.09 53.9553 17.0644L53.4495 11.5762C53.4477 11.5483 53.4558 11.5253 53.4729 11.505C53.49 11.4846 53.514 11.4737 53.5404 11.4698L55.9212 11.2608C56.2764 11.229 56.5962 11.2727 56.8779 11.3896C57.1596 11.5064 57.3873 11.6889 57.5583 11.9371C57.729 12.1852 57.8298 12.4777 57.8625 12.8193C57.897 13.1865 57.8304 13.5114 57.6678 13.7896C57.5025 14.0677 57.2562 14.2763 56.9265 14.4154C56.9001 14.4285 56.892 14.4492 56.9058 14.475L58.2504 16.675C58.2639 16.6963 58.2708 16.7127 58.2705 16.722C58.2741 16.7661 58.2471 16.7885 58.185 16.796L57.1602 16.8855C57.1056 16.8909 57.0633 16.8688 57.0363 16.8217L57.0411 16.8172ZM54.711 12.3972L54.8388 13.7867C54.8406 13.8145 54.8568 13.8266 54.8856 13.8227L55.9767 13.7282C56.2107 13.707 56.3937 13.624 56.5287 13.4749C56.664 13.3257 56.7216 13.1442 56.7018 12.9281C56.682 12.712 56.592 12.5404 56.4315 12.4153C56.2713 12.2903 56.0754 12.2385 55.842 12.2574L54.7503 12.352C54.7218 12.3535 54.7098 12.3693 54.7137 12.3973L54.711 12.3972Z" fill="white"/>
<path d="M63.3682 16.8905L63.1666 16.0784C63.1573 16.0573 63.1435 16.0453 63.127 16.0425L61.0744 15.9224C61.0576 15.9219 61.0432 15.9308 61.0309 15.9512L60.739 16.7334C60.7186 16.7861 60.682 16.8106 60.625 16.8089L59.5645 16.7468C59.5309 16.7458 59.5054 16.7335 59.4916 16.7146C59.4754 16.6956 59.4739 16.6654 59.4892 16.6288L61.6336 11.2334C61.654 11.1806 61.6906 11.1562 61.7476 11.1578L63.0574 11.2339C63.112 11.2355 63.1468 11.2666 63.1618 11.3226L64.6246 16.9304C64.6246 16.9304 64.6309 16.9561 64.6306 16.9723C64.6288 17.0209 64.5952 17.0432 64.5334 17.0391L63.4726 16.9769C63.418 16.9754 63.3832 16.9443 63.3682 16.8882V16.8905ZM61.4209 15.0537L62.89 15.1412C62.923 15.1422 62.9353 15.1286 62.9269 15.0936L62.3266 12.6318C62.3224 12.6108 62.3158 12.599 62.3041 12.601C62.2918 12.603 62.2846 12.6121 62.2768 12.6281L61.3915 15.0019C61.3834 15.0341 61.3948 15.0506 61.4209 15.0537Z" fill="white"/>
<path d="M70.437 12.3911C70.4613 12.3756 70.485 12.3716 70.5135 12.377L71.4702 12.5777C71.4987 12.5831 71.5197 12.5976 71.5332 12.6212C71.5491 12.6448 71.5533 12.6681 71.5476 12.6957L70.3524 18.0807C70.3467 18.1084 70.332 18.1288 70.3077 18.142C70.2834 18.1576 70.2597 18.1615 70.2312 18.1561L69.3075 17.961C69.2532 17.9502 69.2184 17.9191 69.2079 17.8724L67.8477 14.0149C67.8414 13.9962 67.8321 13.9867 67.8204 13.9887C67.8081 13.9884 67.8009 13.9997 67.7955 14.0204L67.0638 17.3859C67.0584 17.4135 67.0434 17.434 67.0191 17.4472C66.9951 17.4627 66.9711 17.4667 66.9426 17.4613L65.9859 17.2606C65.9574 17.2552 65.9367 17.2407 65.9229 17.2171C65.9073 17.1935 65.9031 17.1702 65.9085 17.1426L67.104 11.7576C67.1094 11.73 67.1244 11.7095 67.1484 11.6963C67.1727 11.6808 67.1967 11.6768 67.2252 11.6822L68.1486 11.8773C68.2032 11.8881 68.2353 11.9192 68.2485 11.9659L69.6018 15.8047C69.6084 15.8234 69.6174 15.8329 69.6294 15.8309C69.6414 15.8312 69.6486 15.8199 69.6543 15.7992L70.3902 12.4501C70.3956 12.4224 70.4103 12.402 70.4349 12.3887L70.437 12.3911Z" fill="white"/>
<path d="M77.7147 14.7136C77.7261 14.737 77.7276 14.7626 77.7174 14.7878L77.4315 15.5353C77.4213 15.5605 77.4042 15.5785 77.3799 15.5895C77.3559 15.6004 77.3298 15.602 77.3037 15.592L75.9024 15.0799C75.8763 15.0699 75.8571 15.0786 75.8493 15.1039L74.2086 19.3871C74.1984 19.4123 74.181 19.4303 74.157 19.4412C74.1327 19.4521 74.1066 19.4537 74.0808 19.4437L73.1637 19.1098C73.1379 19.0998 73.1193 19.0831 73.1079 19.0596C73.0968 19.0337 73.0953 19.0105 73.1055 18.9853L74.7459 14.7022C74.7564 14.6769 74.7474 14.6605 74.7216 14.6505L73.3575 14.1533C73.3314 14.1433 73.3131 14.1266 73.302 14.1031C73.2909 14.0796 73.2891 14.054 73.2993 14.0288L73.5852 13.2814C73.5957 13.2562 73.6128 13.2381 73.6368 13.2272C73.6608 13.2163 73.6872 13.2147 73.7127 13.2247L77.6616 14.6634C77.6874 14.6734 77.706 14.6902 77.7174 14.7136L77.7147 14.7136Z" fill="white"/>
<path d="M82.7547 18.2639C82.7283 18.2724 82.7022 18.2694 82.6788 18.2571L80.2632 16.9912C80.2398 16.9789 80.2206 16.9853 80.2053 17.0081L79.5924 18.1219C79.5801 18.147 79.584 18.1634 79.6098 18.178L81.195 19.0058C81.2184 19.018 81.2367 19.0371 81.243 19.0627C81.2517 19.0885 81.2487 19.1139 81.2361 19.1367L80.8521 19.8328C80.8392 19.8579 80.8197 19.8736 80.7933 19.8798C80.7672 19.886 80.7411 19.8853 80.7177 19.8731L79.1328 19.0429C79.1094 19.0307 79.0902 19.0348 79.0752 19.0599L78.4347 20.2239C78.4221 20.249 78.4263 20.2654 78.4521 20.28L80.868 21.5459C80.8914 21.5582 80.9097 21.5772 80.9163 21.6029C80.925 21.6286 80.9217 21.654 80.9091 21.6768L80.5248 22.3729C80.5125 22.3981 80.493 22.4137 80.4666 22.42C80.4402 22.4285 80.4141 22.4254 80.3904 22.4132L76.9869 20.6329C76.9611 20.6206 76.9452 20.6016 76.9386 20.5759C76.9299 20.5501 76.9329 20.5247 76.9455 20.5019L79.6182 15.6451C79.6308 15.62 79.65 15.6043 79.6767 15.5981C79.7031 15.5896 79.7292 15.5926 79.7526 15.6049L83.1564 17.3852C83.1798 17.3974 83.1981 17.4165 83.2044 17.4445C83.2131 17.4702 83.2101 17.4956 83.1975 17.5185L82.8132 18.2145C82.8006 18.2373 82.7811 18.2554 82.755 18.2616L82.7547 18.2639Z" fill="white"/>
<path d="M87.7696 21.649C87.7432 21.6529 87.7174 21.6475 87.694 21.6306L85.4701 20.0642C85.4467 20.0473 85.4275 20.0513 85.4128 20.0741L84.6526 21.098C84.6355 21.1207 84.6397 21.1394 84.6631 21.1539L86.1208 22.1798C86.1442 22.1967 86.1577 22.2179 86.1616 22.2435C86.1655 22.2691 86.1604 22.2944 86.143 22.3171L85.6675 22.9574C85.6501 22.98 85.6285 22.9934 85.6021 22.9972C85.576 23.0011 85.5499 22.9958 85.5268 22.9789L84.0688 21.953C84.0457 21.9362 84.0265 21.9403 84.0115 21.963L83.2168 23.0323C83.1997 23.055 83.2039 23.0737 83.2273 23.0882L85.4488 24.6547C85.4719 24.6716 85.4857 24.6927 85.4896 24.7184C85.4935 24.7462 85.4881 24.7694 85.471 24.7921L84.9955 25.4321C84.9781 25.4549 84.9565 25.4683 84.9301 25.472C84.9037 25.4759 84.8779 25.4706 84.8548 25.4537L81.7249 23.2476C81.7015 23.2309 81.688 23.2096 81.6838 23.1839C81.6799 23.1584 81.6853 23.133 81.7027 23.1103L85.0153 18.6446C85.0324 18.6219 85.054 18.6086 85.0804 18.6047C85.1068 18.6008 85.1326 18.6062 85.156 18.6231L88.2859 20.8291C88.3093 20.846 88.3225 20.8672 88.3267 20.8928C88.3306 20.9184 88.3252 20.9438 88.3078 20.9665L87.8326 21.6067C87.8152 21.6294 87.7936 21.6427 87.7672 21.6466L87.7696 21.649Z" fill="white"/>
<path d="M38.7717 103.153C38.5674 102.845 38.4627 102.509 38.4582 102.15C38.4534 101.791 38.5509 101.432 38.7528 101.075L39.6201 99.5483C39.8196 99.1961 40.0764 98.9276 40.3923 98.7446C40.7082 98.5616 41.0529 98.471 41.4282 98.4782C41.8038 98.4851 42.1818 98.5916 42.5619 98.7977C42.9465 99.0062 43.2414 99.2633 43.4481 99.5693C43.6524 99.875 43.7592 100.209 43.7664 100.565C43.7736 100.922 43.6761 101.279 43.4766 101.628L42.6093 103.155C42.4074 103.512 42.1461 103.785 41.8299 103.973C41.5116 104.163 41.1669 104.253 40.7892 104.246C40.4136 104.239 40.0335 104.133 39.6486 103.924C39.2682 103.718 38.9763 103.461 38.7717 103.153ZM40.9317 103.162C41.1933 103.086 41.3997 102.91 41.5566 102.634L42.4476 101.066C42.6045 100.79 42.6495 100.524 42.5808 100.266C42.5142 100.009 42.3432 99.8078 42.0699 99.6596C41.8014 99.5159 41.5377 99.4835 41.2785 99.5621C41.0196 99.641 40.8105 99.8216 40.6536 100.097L39.7626 101.666C39.6057 101.941 39.5631 102.208 39.6321 102.46C39.7008 102.715 39.8694 102.914 40.1379 103.06C40.4067 103.206 40.6704 103.239 40.9317 103.162Z" fill="white"/>
<path d="M49.1121 102.65C49.086 102.662 49.0623 102.662 49.0359 102.652L46.4673 101.737C46.4412 101.728 46.4223 101.737 46.4127 101.761L45.9684 102.947C45.9588 102.972 45.9684 102.991 45.9945 103L47.6841 103.602C47.7102 103.612 47.7291 103.628 47.7411 103.653C47.7528 103.679 47.7528 103.702 47.7432 103.727L47.4654 104.471C47.4558 104.497 47.439 104.515 47.4132 104.527C47.3871 104.538 47.3631 104.538 47.337 104.529L45.6477 103.929C45.6216 103.92 45.6024 103.929 45.5931 103.952L44.8017 106.065C44.7921 106.09 44.7756 106.109 44.7492 106.12C44.7234 106.132 44.6994 106.132 44.6733 106.123L43.7538 105.796C43.7277 105.787 43.7088 105.771 43.6968 105.745C43.6848 105.722 43.6848 105.697 43.6944 105.671L45.6333 100.494C45.6429 100.468 45.6594 100.45 45.6858 100.438C45.7092 100.426 45.7356 100.426 45.7617 100.435L49.383 101.724C49.4091 101.733 49.4283 101.749 49.44 101.775C49.4517 101.8 49.4517 101.823 49.4424 101.849L49.1643 102.592C49.1547 102.618 49.1382 102.636 49.1121 102.648V102.65Z" fill="white"/>
<path d="M52.9089 108.115C52.6026 107.902 52.3791 107.629 52.2366 107.295C52.0941 106.961 52.0488 106.593 52.1037 106.19L52.3293 104.459C52.3815 104.061 52.5195 103.718 52.7427 103.433C52.9659 103.148 53.2536 102.942 53.6028 102.812C53.9544 102.683 54.3441 102.646 54.7767 102.699C55.2138 102.752 55.5846 102.887 55.8912 103.097C56.1978 103.308 56.4234 103.579 56.5659 103.908C56.7084 104.237 56.7537 104.603 56.7012 105.002L56.4756 106.732C56.4234 107.138 56.2854 107.483 56.0598 107.774C55.8366 108.064 55.5489 108.275 55.1973 108.402C54.8457 108.532 54.4512 108.569 54.0165 108.514C53.5839 108.46 53.2155 108.326 52.9089 108.113V108.115ZM54.9195 107.346C55.1307 107.181 55.2591 106.94 55.2996 106.63L55.5324 104.851C55.5726 104.538 55.5135 104.274 55.3542 104.061C55.1949 103.848 54.9597 103.721 54.6483 103.681C54.3441 103.644 54.0876 103.709 53.8761 103.876C53.667 104.045 53.541 104.286 53.4984 104.598L53.2656 106.378C53.2251 106.69 53.2845 106.952 53.4459 107.165C53.6052 107.376 53.8383 107.501 54.1422 107.54C54.4464 107.578 54.7053 107.515 54.9168 107.348L54.9195 107.346Z" fill="white"/>
<path d="M61.5508 108.61L60.427 106.389C60.415 106.368 60.3985 106.356 60.3769 106.359L59.5999 106.384C59.5714 106.384 59.5597 106.398 59.5597 106.426L59.638 108.65C59.638 108.678 59.6308 108.701 59.6116 108.719C59.5927 108.738 59.569 108.749 59.5429 108.749L58.5664 108.782C58.5379 108.782 58.5142 108.775 58.495 108.756C58.4737 108.738 58.4641 108.715 58.4641 108.689L58.2715 103.18C58.2715 103.153 58.2787 103.129 58.2979 103.111C58.3168 103.092 58.3405 103.081 58.3669 103.081L60.757 103.002C61.1137 102.99 61.4296 103.051 61.7053 103.183C61.981 103.315 62.197 103.509 62.3539 103.764C62.5108 104.019 62.5963 104.318 62.6083 104.661C62.62 105.029 62.5369 105.349 62.3587 105.619C62.1781 105.891 61.9192 106.085 61.5841 106.203C61.5556 106.215 61.5484 106.234 61.5601 106.261L62.7769 108.529C62.7886 108.55 62.7958 108.566 62.7958 108.578C62.7958 108.622 62.7673 108.645 62.7055 108.645L61.6768 108.68C61.6222 108.68 61.5817 108.659 61.558 108.61H61.5508ZM59.4763 104.07L59.524 105.462C59.524 105.49 59.5381 105.502 59.5669 105.502L60.6622 105.464C60.895 105.457 61.0852 105.383 61.2277 105.242C61.3702 105.101 61.4392 104.922 61.4296 104.704C61.4224 104.487 61.3417 104.311 61.1896 104.179C61.0375 104.044 60.8428 103.982 60.6097 103.991L59.5144 104.028C59.4859 104.028 59.4739 104.042 59.4739 104.07H59.4763Z" fill="white"/>
<path d="M64.7811 108.335C64.7598 108.319 64.7457 108.299 64.7406 108.271L63.8805 102.824C63.876 102.797 63.8805 102.773 63.8997 102.752C63.9162 102.732 63.9375 102.718 63.966 102.713L64.9332 102.567C64.9617 102.563 64.9857 102.567 65.0091 102.586C65.0304 102.602 65.0448 102.623 65.0499 102.65L65.9073 108.097C65.9121 108.125 65.9073 108.148 65.8884 108.169C65.8716 108.19 65.8503 108.203 65.8218 108.208L64.8546 108.354C64.8261 108.359 64.8027 108.354 64.7811 108.335Z" fill="white"/>
<path d="M68.9345 107.399C68.5712 107.323 68.2598 107.165 68.003 106.922C67.7441 106.679 67.5611 106.366 67.4519 105.984L66.9482 104.225C66.8387 103.843 66.8294 103.482 66.9197 103.141C67.01 102.801 67.1903 102.506 67.4615 102.261C67.7324 102.015 68.0744 101.835 68.4881 101.723C68.8967 101.612 69.2792 101.591 69.638 101.663C69.9968 101.735 70.3031 101.881 70.5551 102.104C70.8071 102.326 70.9805 102.602 71.0756 102.93L71.0921 102.986C71.0993 103.012 71.0969 103.037 71.0825 103.06C71.0684 103.083 71.0495 103.1 71.0231 103.106L70.0799 103.364C70.0538 103.371 70.0277 103.368 70.004 103.354C69.98 103.34 69.9635 103.322 69.9563 103.296L69.9494 103.273C69.8801 103.032 69.7355 102.854 69.5168 102.736C69.2981 102.618 69.0464 102.597 68.7611 102.676C68.4713 102.754 68.2643 102.905 68.141 103.13C68.0174 103.352 67.9958 103.604 68.0768 103.887L68.5997 105.708C68.6801 105.991 68.8397 106.195 69.0797 106.317C69.317 106.442 69.5831 106.463 69.8708 106.385C70.1486 106.308 70.3532 106.176 70.4768 105.986C70.6025 105.796 70.6286 105.574 70.5551 105.317L70.4528 104.962C70.4456 104.937 70.4294 104.927 70.4009 104.934L69.4979 105.18C69.4715 105.187 69.4454 105.185 69.4217 105.17C69.398 105.157 69.3812 105.138 69.374 105.113L69.1673 104.39C69.1601 104.364 69.1628 104.339 69.1769 104.316C69.1913 104.293 69.2102 104.276 69.2387 104.27L71.2037 103.732C71.2298 103.725 71.2562 103.727 71.2799 103.741C71.3036 103.755 71.3201 103.774 71.3273 103.799L71.6243 104.835C71.7383 105.233 71.7527 105.602 71.6648 105.942C71.5769 106.283 71.3987 106.572 71.1278 106.813C70.8593 107.054 70.517 107.23 70.1036 107.341C69.6902 107.455 69.3029 107.473 68.9393 107.397L68.9345 107.399Z" fill="white"/>
<path d="M74.1195 105.922C74.0931 105.912 74.0766 105.894 74.0646 105.868L71.8929 100.781C71.8833 100.755 71.8833 100.73 71.8929 100.707C71.9025 100.681 71.9214 100.665 71.9475 100.654L72.8502 100.288C72.8766 100.276 72.9027 100.276 72.9264 100.288C72.9528 100.297 72.9693 100.315 72.9813 100.341L75.1506 105.43C75.1599 105.456 75.1599 105.481 75.1506 105.505C75.1386 105.53 75.1221 105.546 75.0957 105.558L74.193 105.924C74.1669 105.933 74.1408 105.935 74.1171 105.924L74.1195 105.922Z" fill="white"/>
<path d="M77.2863 98.0775C77.2932 98.052 77.3097 98.0313 77.3337 98.0172L78.1818 97.5423C78.2058 97.5285 78.2319 97.5261 78.258 97.533C78.2841 97.5399 78.3054 97.5564 78.3195 97.5795L81.1356 102.359C81.1497 102.382 81.1521 102.407 81.1449 102.433C81.1377 102.458 81.1212 102.479 81.0975 102.491L80.2776 102.949C80.2302 102.977 80.1849 102.977 80.142 102.949L76.4805 100.976C76.4616 100.966 76.4496 100.966 76.4403 100.976C76.4307 100.982 76.4331 100.997 76.4451 101.015L78.2175 103.99C78.2319 104.013 78.234 104.038 78.2271 104.064C78.2199 104.089 78.2034 104.11 78.1794 104.124L77.331 104.599C77.3076 104.613 77.2812 104.615 77.2551 104.608C77.229 104.601 77.2077 104.585 77.1933 104.562L74.3778 99.7824C74.3634 99.7593 74.361 99.7338 74.3682 99.7083C74.3754 99.6828 74.3919 99.6621 74.4156 99.6483L75.2355 99.1896C75.2829 99.1617 75.3282 99.1617 75.3708 99.1896L79.0161 101.154C79.035 101.163 79.0467 101.163 79.0563 101.154C79.0659 101.147 79.0635 101.133 79.0518 101.115L77.2956 98.1492C77.2812 98.1261 77.2791 98.1006 77.2863 98.0751V98.0775Z" fill="white"/>
</g>
<defs>
<clipPath id="clip0_1012_7761">
<rect width="120" height="120" fill="white"/>
</clipPath>
</defs>
</svg>
