<svg width="60" height="52" viewBox="0 0 60 52" fill="none" xmlns="http://www.w3.org/2000/svg">
<path d="M0.11736 48.9053L2.74758 41.8914C3.88131 38.8681 6.77157 36.8651 10.0003 36.8651H13.6221L5.43454 51.352H1.81281C0.548588 51.352 -0.326664 50.0893 0.11736 48.9053Z" fill="#81808C"/>
<path d="M30 36.8651H50L41.8125 51.352H38.1875L30 36.8651Z" fill="#81808C"/>
<path d="M3.73871 48.9053L6.36894 41.8914C7.50266 38.8681 10.3929 36.8651 13.6217 36.8651H30L21.8125 51.352H5.43417C4.16994 51.352 3.29469 50.0893 3.73871 48.9053Z" fill="#9295A1"/>
<path d="M0.11736 30.7967L2.74758 23.7827C3.88131 20.7594 6.77157 18.7565 10.0003 18.7565H13.6221L5.43454 33.2434H1.81281C0.548588 33.2434 -0.326664 31.9806 0.11736 30.7967Z" fill="#81808C"/>
<path d="M30 18.7565H50L41.8125 33.2434H38.1875L30 18.7565Z" fill="#81808C"/>
<path d="M3.73871 30.7967L6.36894 23.7827C7.50266 20.7594 10.3929 18.7565 13.6217 18.7565H30L21.8125 33.2434H5.43417C4.16994 33.2434 3.29469 31.9806 3.73871 30.7967Z" fill="#9295A1"/>
<path d="M40.117 30.7967L42.7472 23.7827C43.881 20.7594 46.7712 18.7565 50 18.7565L45.3845 33.2434H41.8125C40.5482 33.2434 39.673 31.9805 40.117 30.7967Z" fill="#9295A1"/>
<path d="M43.6263 30.9991L45.405 23.7827C46.1233 20.7594 47.9544 18.7565 50 18.7565C53.2289 18.7565 56.1191 20.7594 57.2528 23.7827L59.883 30.7967C60.327 31.9806 59.4519 33.2434 58.1875 33.2434H45.3844C44.2089 33.2434 43.3449 32.1406 43.6263 30.9991Z" fill="#9EA5AD"/>
<path d="M20.117 48.9053L22.7472 41.8914C23.881 38.8681 26.7712 36.8651 30 36.8651L25.3845 51.352H21.8125C20.5482 51.352 19.6731 50.0891 20.117 48.9053Z" fill="#9EA5AD"/>
<path d="M23.6263 49.1078L25.4051 41.8914C26.1234 38.8681 27.9544 36.8651 30.0001 36.8651C33.229 36.8651 36.1191 38.8681 37.2529 41.8914L39.8831 48.9053C40.327 50.0891 39.4519 51.352 38.1875 51.352H25.3844C24.209 51.352 23.3451 50.2492 23.6263 49.1078Z" fill="#AEB9BF"/>
<path d="M40.117 48.9053L42.7472 41.8914C43.881 38.8681 46.7712 36.8651 50 36.8651L45.3845 51.352H41.8125C40.5482 51.352 39.673 50.0891 40.117 48.9053Z" fill="#9295A1"/>
<path d="M43.6263 49.1078L45.405 41.8914C46.1233 38.8681 47.9544 36.8651 50 36.8651C53.2289 36.8651 56.1191 38.8681 57.2528 41.8914L59.883 48.9053C60.327 50.0893 59.4519 51.352 58.1875 51.352H45.3844C44.2089 51.352 43.3449 50.2492 43.6263 49.1078Z" fill="#9EA5AD"/>
<path d="M10.1172 12.688L12.7475 5.67407C13.8812 2.65077 16.7714 0.647827 20.0003 0.647827H23.6221L15.4345 15.1347H11.8128C10.5485 15.1347 9.67334 13.872 10.1172 12.688Z" fill="#81808C"/>
<path d="M13.7387 12.688L16.3689 5.67407C17.5027 2.65077 20.3929 0.647827 23.6218 0.647827H40L31.8125 15.1347H15.4342C14.1699 15.1347 13.2948 13.872 13.7387 12.688Z" fill="#9295A1"/>
<path d="M30.1169 12.688L32.7471 5.67407C33.881 2.65077 36.7711 0.647827 40 0.647827L35.3845 15.1347H31.8125C30.5481 15.1347 29.673 13.8719 30.1169 12.688Z" fill="#9EA5AD"/>
<path d="M33.6263 12.8905L35.4051 5.67407C36.1234 2.65077 37.9544 0.647827 40.0001 0.647827C43.229 0.647827 46.1191 2.65077 47.2529 5.67407L49.8831 12.688C50.327 13.8719 49.4519 15.1347 48.1875 15.1347H35.3844C34.209 15.1347 33.3451 14.0319 33.6263 12.8905Z" fill="#AEB9BF"/>
<path d="M20.117 30.7967L22.7472 23.7827C23.881 20.7594 26.7712 18.7565 30 18.7565L25.3845 33.2434H21.8125C20.5482 33.2434 19.6731 31.9805 20.117 30.7967Z" fill="#9EA5AD"/>
<path d="M23.6263 30.9991L25.4051 23.7827C26.1234 20.7594 27.9544 18.7565 30.0001 18.7565C33.229 18.7565 36.1191 20.7594 37.2529 23.7827L39.8831 30.7967C40.327 31.9805 39.4519 33.2434 38.1875 33.2434H25.3844C24.209 33.2434 23.3451 32.1406 23.6263 30.9991Z" fill="#AEB9BF"/>
<path d="M10.0809 48.6358C9.58084 48.6358 9.17546 48.2304 9.17546 47.7304C9.17546 47.2303 9.58084 46.825 10.0809 46.825C10.581 46.825 10.9863 47.2303 10.9863 47.7304C10.9863 48.2304 10.581 48.6358 10.0809 48.6358Z" fill="#81808C"/>
<path d="M16.3787 48.6358C15.8787 48.6358 15.4733 48.2304 15.4733 47.7304C15.4733 47.2303 15.8787 46.825 16.3787 46.825C16.8788 46.825 17.2842 47.2303 17.2842 47.7304C17.2842 48.2304 16.8788 48.6358 16.3787 48.6358Z" fill="#81808C"/>
<path d="M14.5672 45.014C14.0672 45.014 13.6618 44.6086 13.6618 44.1086C13.6618 43.6085 14.0672 43.2031 14.5672 43.2031C15.0673 43.2031 15.4727 43.6085 15.4727 44.1086C15.4727 44.6086 15.0673 45.014 14.5672 45.014Z" fill="#81808C"/>
<path d="M4.17953 30.5271C3.67947 30.5271 3.2741 30.1217 3.2741 29.6216C3.2741 29.1216 3.67947 28.7162 4.17953 28.7162C4.67958 28.7162 5.08496 29.1216 5.08496 29.6216C5.08496 30.1217 4.67958 30.5271 4.17953 30.5271Z" fill="#74727D"/>
<path d="M16.3787 30.5271C15.8787 30.5271 15.4733 30.1217 15.4733 29.6216C15.4733 29.1216 15.8787 28.7162 16.3787 28.7162C16.8788 28.7162 17.2842 29.1216 17.2842 29.6216C17.2842 30.1217 16.8788 30.5271 16.3787 30.5271Z" fill="#81808C"/>
<path d="M10.0809 26.9053C9.58084 26.9053 9.17546 26.5 9.17546 25.9999C9.17546 25.4999 9.58084 25.0945 10.0809 25.0945C10.581 25.0945 10.9863 25.4999 10.9863 25.9999C10.9863 26.5 10.581 26.9053 10.0809 26.9053Z" fill="#81808C"/>
<path d="M11.8914 23.2836C11.3914 23.2836 10.986 22.8783 10.986 22.3782C10.986 21.8782 11.3914 21.4728 11.8914 21.4728C12.3915 21.4728 12.7969 21.8782 12.7969 22.3782C12.7969 22.8783 12.3915 23.2836 11.8914 23.2836Z" fill="#81808C"/>
<path d="M26.3787 12.4184C25.8787 12.4184 25.4733 12.013 25.4733 11.513C25.4733 11.0129 25.8787 10.6075 26.3787 10.6075C26.8788 10.6075 27.2842 11.0129 27.2842 11.513C27.2842 12.013 26.8788 12.4184 26.3787 12.4184Z" fill="#81808C"/>
<path d="M24.5682 8.79671C24.0681 8.79671 23.6628 8.39133 23.6628 7.89127C23.6628 7.39122 24.0681 6.98584 24.5682 6.98584C25.0683 6.98584 25.4736 7.39122 25.4736 7.89127C25.4736 8.39133 25.0683 8.79671 24.5682 8.79671Z" fill="#81808C"/>
</svg>