<svg width="200" height="200" viewBox="0 0 200 200" fill="none" xmlns="http://www.w3.org/2000/svg">
<path d="M56.6667 196.667L73.3333 173.333H40V196.667H56.6667Z" fill="#547580"/>
<path d="M143.333 196.667L126.667 173.333H160V196.667H143.333Z" fill="#547580"/>
<path d="M76.6666 30H96.6666V43.3333H76.6666V30Z" fill="#BDC3C7"/>
<path d="M123.333 43.3334H103.333V30H123.333V43.3334Z" fill="#BDC3C7"/>
<path d="M93.3334 13.3334H106.667V60H93.3334V13.3334Z" fill="#547580"/>
<path d="M110 3.33337H90C86.3181 3.33337 83.3334 6.31814 83.3334 10C83.3334 13.6819 86.3181 16.6667 90 16.6667H110C113.682 16.6667 116.667 13.6819 116.667 10C116.667 6.31814 113.682 3.33337 110 3.33337Z" fill="#BDC3C7"/>
<path d="M76.6667 50C75.7827 50 74.9348 49.6489 74.3097 49.0237C73.6846 48.3986 73.3334 47.5508 73.3334 46.6667V26.6667C73.3334 25.7827 73.6846 24.9348 74.3097 24.3097C74.9348 23.6846 75.7827 23.3334 76.6667 23.3334C77.5508 23.3334 78.3986 23.6846 79.0237 24.3097C79.6489 24.9348 80 25.7827 80 26.6667V46.6667C80 47.5508 79.6489 48.3986 79.0237 49.0237C78.3986 49.6489 77.5508 50 76.6667 50Z" fill="#F3D55B"/>
<path d="M123.333 50C122.449 50 121.601 49.6489 120.976 49.0237C120.351 48.3986 120 47.5508 120 46.6667V26.6667C120 25.7827 120.351 24.9348 120.976 24.3097C121.601 23.6846 122.449 23.3334 123.333 23.3334C124.217 23.3334 125.065 23.6846 125.69 24.3097C126.315 24.9348 126.667 25.7827 126.667 26.6667V46.6667C126.667 47.5508 126.315 48.3986 125.69 49.0237C125.065 49.6489 124.217 50 123.333 50Z" fill="#F3D55B"/>
<path d="M77.11 56.6667H122.777C124.008 56.6667 125.226 56.9092 126.364 57.3802C127.501 57.8513 128.534 58.5417 129.405 59.4121C130.275 60.2825 130.965 61.3158 131.437 62.4531C131.908 63.5903 132.15 64.8092 132.15 66.0401V73.3334H67.7367V66.0434C67.7367 63.5571 68.7241 61.1727 70.4819 59.4143C72.2396 57.6559 74.6238 56.6676 77.11 56.6667V56.6667Z" fill="#BDC3C7"/>
<path d="M196.533 103.333V143.333C196.533 152.151 193.04 160.609 186.817 166.857C180.595 173.104 172.151 176.631 163.333 176.667H36.6667C32.2893 176.667 27.9548 175.804 23.9106 174.129C19.8664 172.454 16.1918 169.999 13.0965 166.904C10.0012 163.808 7.54588 160.134 5.87072 156.089C4.19557 152.045 3.33337 147.711 3.33337 143.333V103.333C3.33337 94.4928 6.84527 86.0143 13.0965 79.7631C19.3477 73.5119 27.8262 70 36.6667 70H163.333C172.151 70.0353 180.595 73.5627 186.817 79.8101C193.04 86.0575 196.533 94.5158 196.533 103.333V103.333Z" fill="#84B5CB"/>
<path d="M196.533 103.333V143.333C196.533 152.151 193.04 160.609 186.817 166.857C180.595 173.104 172.151 176.631 163.333 176.667V70C172.151 70.0353 180.595 73.5627 186.817 79.8101C193.04 86.0575 196.533 94.5158 196.533 103.333V103.333Z" fill="#E57E25"/>
<path d="M36.6667 70V176.667C32.2893 176.667 27.9548 175.804 23.9106 174.129C19.8664 172.454 16.1918 169.999 13.0965 166.904C10.0012 163.808 7.54588 160.134 5.87072 156.089C4.19557 152.045 3.33337 147.711 3.33337 143.333V103.333C3.33337 94.4928 6.84527 86.0143 13.0965 79.7631C19.3477 73.5119 27.8262 70 36.6667 70V70Z" fill="#E57E25"/>
<path d="M36.6666 70H163.333V176.667H36.6666V70Z" fill="#F29C1F"/>
<path d="M196.667 200H3.33333C2.44928 200 1.60143 199.649 0.976311 199.024C0.35119 198.399 0 197.551 0 196.667C0 195.783 0.35119 194.935 0.976311 194.31C1.60143 193.685 2.44928 193.333 3.33333 193.333H196.667C197.551 193.333 198.399 193.685 199.024 194.31C199.649 194.935 200 195.783 200 196.667C200 197.551 199.649 198.399 199.024 199.024C198.399 199.649 197.551 200 196.667 200Z" fill="#3F5C6C"/>
<path d="M130 143.333H120.133C128.433 137.15 133.333 132.567 133.333 123.333C133.333 119.797 131.929 116.406 129.428 113.905C126.928 111.405 123.536 110 120 110C116.464 110 113.072 111.405 110.572 113.905C108.072 116.406 106.667 119.797 106.667 123.333C106.667 124.217 107.018 125.065 107.643 125.69C108.268 126.316 109.116 126.667 110 126.667C110.884 126.667 111.732 126.316 112.357 125.69C112.982 125.065 113.333 124.217 113.333 123.333C113.333 121.565 114.036 119.87 115.286 118.619C116.536 117.369 118.232 116.667 120 116.667C121.768 116.667 123.464 117.369 124.714 118.619C125.964 119.87 126.667 121.565 126.667 123.333C126.667 130 123.39 132.703 113.03 140.283C111.473 141.423 109.797 142.65 108 144C107.44 144.42 107.027 145.005 106.818 145.673C106.61 146.341 106.617 147.057 106.838 147.721C107.059 148.385 107.484 148.962 108.051 149.371C108.619 149.78 109.3 150 110 150H130C130.884 150 131.732 149.649 132.357 149.024C132.982 148.399 133.333 147.551 133.333 146.667C133.333 145.783 132.982 144.935 132.357 144.31C131.732 143.685 130.884 143.333 130 143.333Z" fill="white"/>
<path d="M96.6666 90.0001C95.7826 90.0001 94.9347 90.3512 94.3096 90.9764C93.6845 91.6015 93.3333 92.4493 93.3333 93.3334V110H73.3333V93.3334C73.3333 92.4493 72.9821 91.6015 72.357 90.9764C71.7319 90.3512 70.884 90.0001 70 90.0001C69.1159 90.0001 68.2681 90.3512 67.6429 90.9764C67.0178 91.6015 66.6666 92.4493 66.6666 93.3334V136.667C66.6666 137.551 67.0178 138.399 67.6429 139.024C68.2681 139.649 69.1159 140 70 140C70.884 140 71.7319 139.649 72.357 139.024C72.9821 138.399 73.3333 137.551 73.3333 136.667V116.667H93.3333V136.667C93.3333 137.551 93.6845 138.399 94.3096 139.024C94.9347 139.649 95.7826 140 96.6666 140C97.5507 140 98.3985 139.649 99.0237 139.024C99.6488 138.399 100 137.551 100 136.667V93.3334C100 92.4493 99.6488 91.6015 99.0237 90.9764C98.3985 90.3512 97.5507 90.0001 96.6666 90.0001Z" fill="white"/>
</svg>